<?xml version="1.0" encoding="utf-8"?>
<!-- Generator: Adobe Illustrator 26.0.3, SVG Export Plug-In . SVG Version: 6.00 Build 0)  -->
<svg version="1.1" id="Layer_1" xmlns="http://www.w3.org/2000/svg" xmlns:xlink="http://www.w3.org/1999/xlink" x="0px" y="0px"
	 viewBox="0 0 66 92" style="enable-background:new 0 0 66 92;" xml:space="preserve">
<style type="text/css">
	.st0{fill:#C9C9C9;}
	.st1{fill:#FFFFFF;}
	.st2{fill:#333333;}
	.st3{fill:#FFD675;}
	.st4{opacity:0.2;fill:#616161;}
	.st5{fill:#EBEBEB;}
	.st6{fill:#EBBE9F;}
	.st7{fill:#9C9C9C;}
	.st8{opacity:0.2;fill:#FFFFFF;}
</style>
<g>
	<g>
		<g>
			<g>
				<path class="st0" d="M10.51,87.74c-3.46,0-6.28-2.76-6.34-6.27L4,11.97c0.04-3.31,2.86-6.09,6.33-6.08l45.93,0.08
					c3.46,0.01,6.27,2.79,6.27,6.2v69.35c0,3.39-2.8,6.15-6.25,6.16L10.51,87.74z"/>
				<path class="st1" d="M10.99,87.66c-3.46,0-6.28-2.76-6.29-6.16l-0.18-69.5c-0.01-3.42,2.81-6.2,6.28-6.19L56.73,5.9
					C60.19,5.9,63,8.69,63,12.1v69.35c0,3.39-2.8,6.15-6.25,6.16L10.99,87.66z"/>
				<g>
					<path class="st2" d="M56.34,86.27H11.07c-2.65,0-4.8-2.14-4.8-4.78V12.16c0-2.63,2.15-4.78,4.8-4.78h45.26
						c2.64,0,4.8,2.14,4.8,4.78v69.34C61.13,84.12,58.98,86.27,56.34,86.27z M11.07,9.27c-1.6,0-2.9,1.29-2.9,2.88v69.34
						c0,1.59,1.3,2.88,2.9,2.88h45.26c1.6,0,2.9-1.29,2.9-2.88V12.16c0-1.59-1.3-2.88-2.9-2.88H11.07z"/>
				</g>
				<g>
					<path class="st2" d="M15.19,17.1c-0.04,0.07-0.21,0.21-0.52,0.44c-0.39,0.29-0.73,0.48-1.02,0.56l-1.57-2.88l-0.09,0.06v2.52
						h-1.85v-6.56h1.85v3.72c0.32-0.04,0.6-0.26,0.86-0.65c0.23-0.36,0.35-0.7,0.35-1.01c0-0.23-0.04-0.42-0.11-0.59
						c-0.08-0.15-0.17-0.3-0.24-0.45c0-0.07,0.2-0.25,0.61-0.56c0.33-0.25,0.58-0.43,0.73-0.55c0.11,0.1,0.22,0.26,0.31,0.49
						c0.09,0.23,0.14,0.43,0.14,0.61c0,0.16-0.03,0.35-0.1,0.57c-0.07,0.23-0.16,0.43-0.26,0.61c-0.17,0.26-0.32,0.46-0.46,0.6
						c-0.28,0.28-0.42,0.44-0.44,0.47L15.19,17.1z"/>
				</g>
				<g>
					<path class="st2" d="M52.45,77.3c0.04-0.07,0.21-0.21,0.52-0.44c0.39-0.29,0.73-0.48,1.02-0.56l1.57,2.88l0.09-0.06v-2.52h1.85
						v6.56h-1.85v-3.72c-0.32,0.04-0.6,0.26-0.86,0.65c-0.23,0.36-0.35,0.7-0.35,1.01c0,0.23,0.04,0.42,0.11,0.59
						c0.08,0.15,0.17,0.3,0.24,0.45c0,0.07-0.2,0.25-0.61,0.56c-0.33,0.25-0.58,0.43-0.73,0.55c-0.11-0.1-0.22-0.26-0.31-0.49
						c-0.09-0.23-0.14-0.43-0.14-0.61c0-0.16,0.03-0.35,0.1-0.57c0.07-0.23,0.16-0.43,0.26-0.61c0.17-0.26,0.32-0.46,0.46-0.6
						c0.28-0.28,0.42-0.44,0.44-0.47L52.45,77.3z"/>
				</g>
			</g>
		</g>
		<g>
			<g>
				<g>
					<g>
						<g>
							<g>
								<path class="st2" d="M50.43,32.01l-0.12-0.42c0,0-7.83-4.47-10.33-5.89c-0.47-0.27-0.75-0.43-0.76-0.43H28.06
									c0,0-0.02,0.01-0.05,0.03c-0.02,0.01-0.05,0.03-0.08,0.05c-0.03,0.02-0.06,0.04-0.1,0.05c-0.03,0.02-0.07,0.04-0.11,0.06
									c-0.04,0.02-0.08,0.05-0.13,0.07c-0.07,0.04-0.14,0.08-0.22,0.12c-0.15,0.09-0.32,0.18-0.51,0.29c0,0-0.01,0-0.01,0
									c-0.14,0.08-0.29,0.17-0.45,0.26c-0.05,0.03-0.11,0.06-0.17,0.09c-0.37,0.21-0.79,0.45-1.23,0.7
									c-0.16,0.09-0.32,0.18-0.48,0.28c-0.16,0.09-0.32,0.18-0.49,0.28c-0.16,0.1-0.33,0.19-0.5,0.29
									c-2.21,1.26-4.65,2.65-5.83,3.33c-0.07,0.04-0.13,0.08-0.19,0.11c-0.28,0.16-0.47,0.27-0.52,0.29v18.59l7.3-2.19l1.66-0.5
									l24.5-7.36V32.01z"/>
								<g>
									<g>
										<g>
											<g>
												<path class="st3" d="M33.72,34.9l-3.05-5.29h6.11L33.72,34.9z M31.25,29.94l2.47,4.28l2.47-4.28H31.25z"/>
											</g>
										</g>
										<path class="st4" d="M29.62,25.27c-0.06,0.01-11.09,6.31-11.09,6.31l-1.55,4.78v13.8l7.3-2.19l1.66-0.5l4.36-14.31
											l0.58-1.92l0.85-1.83l1.9-4.07v-0.08H29.62z"/>
										<path class="st5" d="M28.06,25.27c0,0-0.02,0.01-0.05,0.03c-0.02,0.01-0.05,0.03-0.08,0.05c-0.03,0.02-0.06,0.04-0.1,0.05
											c-0.03,0.02-0.07,0.04-0.11,0.06c-0.04,0.02-0.08,0.05-0.13,0.07c-0.07,0.04-0.14,0.08-0.22,0.12
											c-0.15,0.08-0.32,0.18-0.51,0.29c0,0-0.01,0-0.01,0c-0.14,0.08-0.29,0.17-0.45,0.26c-0.05,0.03-0.11,0.06-0.17,0.09
											c-0.37,0.21-0.79,0.44-1.23,0.7c-0.16,0.09-0.32,0.18-0.48,0.28c-0.16,0.09-0.32,0.18-0.49,0.28
											c-0.16,0.09-0.33,0.19-0.5,0.29c-0.71,0.41-1.45,0.83-2.16,1.23c-0.21,0.12-0.43,0.24-0.63,0.36
											c-1.24,0.71-2.35,1.34-3.04,1.73c-0.07,0.04-0.13,0.08-0.19,0.11c-0.28,0.16-0.47,0.27-0.52,0.29v18.59l1.3-0.39
											l0.73-0.22l5.19-1.56l0.08-0.03c0.24-0.57,0.5-1.18,0.76-1.82c1.75-4.2,3.88-9.52,5.25-12.99c0.86-2.16,1.43-3.6,1.43-3.6
											l0.01-0.15l0.37-4.14H28.06z"/>
									</g>
									<g>
										<g>
											<path class="st4" d="M50.43,37.2l-1.69-5.62c0,0-11.04-6.3-11.09-6.31h-4.01v0.08l2.75,5.89l3.58,12.23l10.46-3.79V37.2z
												"/>
											<path class="st5" d="M50.43,32.01l-0.13-0.43c0,0-11.04-6.3-11.09-6.31h-4.05l0.38,4.29c0,0,4.76,9.88,6.45,13.08
												l8.43-2.53V32.01z"/>
										</g>
									</g>
								</g>
								<g>
									<polygon class="st6" points="40.07,22.54 39.96,21.03 39.96,20.98 39.61,16.36 37.9,15.49 34.59,13.82 33.67,14.31 
										32.75,13.82 29.44,15.49 27.73,16.36 27.38,20.98 27.38,21.03 27.26,22.54 28.64,27.12 33.66,31.25 33.66,31.27 
										33.66,31.27 33.67,31.26 33.68,31.27 33.68,31.27 33.68,31.25 39.06,26.86 									"/>
									<path class="st6" d="M33.68,25.27l2.03-0.07l-1.52-0.95c0,0-0.24-0.01-0.51-0.01l0,0c0,0-0.01,0-0.01,0s0,0-0.01,0l0,0
										c-0.27,0-0.51,0.01-0.51,0.01l-1.52,0.95l2.03,0.07v0L33.68,25.27L33.68,25.27L33.68,25.27z"/>
									<polygon class="st4" points="34.9,22.37 34.07,19.48 33.68,19.48 33.66,19.48 33.27,19.48 32.44,22.37 33.27,23.26 
										33.66,23.28 33.66,23.28 33.67,23.28 33.68,23.28 33.68,23.28 34.07,23.26 									"/>
									<g>
										<polygon class="st7" points="34.55,18.71 37.16,18.38 37.21,18.37 37.24,18.39 38.48,19.05 37.13,18.67 37.21,18.68 
											34.68,19.39 										"/>
										<path class="st2" d="M35.46,19.8c-0.04,0.09-0.07,0.2-0.07,0.3c0,0.41,0.33,0.74,0.74,0.74c0.41,0,0.74-0.33,0.74-0.74
											c0-0.11-0.02-0.21-0.07-0.3H35.46z"/>
										<polygon class="st7" points="32.79,18.71 30.18,18.38 30.13,18.37 30.1,18.39 28.85,19.05 30.21,18.67 30.12,18.68 
											32.66,19.39 										"/>
										<path class="st2" d="M31.88,19.8c0.04,0.09,0.07,0.2,0.07,0.3c0,0.41-0.33,0.74-0.74,0.74c-0.41,0-0.74-0.33-0.74-0.74
											c0-0.11,0.02-0.21,0.07-0.3H31.88z"/>
										<path class="st7" d="M39.96,21.03c-0.04,0.03-0.06,0.05-0.06,0.05l-1.21-4.26l-0.79-1.33l1.71,0.87l0.34,4.62L39.96,21.03
											z"/>
										<path class="st7" d="M27.38,21.03c0.04,0.03,0.07,0.05,0.07,0.05l1.21-4.26l0.79-1.33l-1.71,0.87l-0.34,4.62L27.38,21.03z
											"/>
									</g>
									<path class="st3" d="M39.73,14.71v1.76c-1.53,0.42-3.24,0.6-4.89,0.64c-1.09,0.03-2.16,0.01-3.12-0.05
										c-0.48-0.03-0.93-0.06-1.34-0.1c-0.5-0.04-0.94-0.09-1.33-0.14c-0.93-0.11-1.49-0.21-1.49-0.21v-1.68
										c0,0,6.06-3.24,6.09-3.24c0,0.01,0.76,0.39,1.74,0.87c0.31,0.15,0.65,0.32,0.98,0.49c0.32,0.16,0.65,0.32,0.97,0.48
										c0.9,0.44,1.72,0.84,2.13,1.04C39.63,14.67,39.73,14.71,39.73,14.71z"/>
									<g>
										<path class="st8" d="M36.36,13.07l-5.98,3.9c-0.5-0.04-0.94-0.09-1.33-0.14l6.33-4.25C35.68,12.74,36.02,12.9,36.36,13.07
											z"/>
										<path class="st8" d="M39.46,14.58l-4.62,2.54c-1.09,0.03-2.16,0.01-3.12-0.05l5.61-3.52
											C38.23,13.98,39.05,14.38,39.46,14.58z"/>
									</g>
								</g>
							</g>
							<g>
								<polygon class="st2" points="21.68,37.47 21.48,38.89 22.18,37.64 								"/>
								<polygon class="st2" points="24.48,37.47 24.27,38.89 24.98,37.64 								"/>
								<polygon class="st2" points="27.27,37.47 27.07,38.89 27.77,37.64 								"/>
								<polygon class="st2" points="18.18,42.05 17.98,43.47 18.68,42.22 								"/>
								<polygon class="st2" points="20.98,42.05 20.78,43.47 21.48,42.22 								"/>
								<polygon class="st2" points="23.77,42.05 23.57,43.47 24.27,42.22 								"/>
								<polygon class="st2" points="19.03,46.67 18.83,48.09 19.53,46.84 								"/>
								<polygon class="st2" points="21.83,46.67 21.63,48.09 22.33,46.84 								"/>
								<path class="st2" d="M24.83,46.56c-0.13,0.32-0.26,0.62-0.38,0.91l-0.04,0.01l0.14-1.02L24.83,46.56z"/>
								<polygon class="st2" points="26.57,29.48 26.37,30.91 27.07,29.65 								"/>
								<polygon class="st2" points="23.77,28.91 23.57,30.33 24.27,29.08 								"/>
								<path class="st2" d="M21.16,29.43l-0.39,0.7l0.07-0.52C20.95,29.55,21.06,29.49,21.16,29.43z"/>
								<polygon class="st2" points="18.83,49.55 18.46,49.66 18.49,49.44 								"/>
								<polygon class="st2" points="18.25,32.85 18.05,34.27 18.75,33.02 								"/>
								<polygon class="st2" points="21.36,32.85 21.16,34.27 21.86,33.02 								"/>
								<polygon class="st2" points="24.16,32.85 23.96,34.27 24.66,33.02 								"/>
								<polygon class="st2" points="26.96,32.85 26.76,34.27 27.46,33.02 								"/>
								<polygon class="st2" points="29.83,30.22 29.62,31.65 30.32,30.39 								"/>
								<polygon class="st2" points="18.56,37.47 18.36,38.89 19.06,37.64 								"/>
							</g>
							<g>
								<polygon class="st2" points="46.26,37.47 46.46,38.89 45.77,37.64 								"/>
								<polygon class="st2" points="43.47,37.47 43.67,38.89 42.97,37.64 								"/>
								<polygon class="st2" points="40.67,37.47 40.87,38.89 40.17,37.64 								"/>
								<polygon class="st2" points="41.37,29.48 41.57,30.91 40.87,29.65 								"/>
								<polygon class="st2" points="44.17,28.91 44.37,30.33 43.67,29.08 								"/>
								<path class="st2" d="M46.59,29.85l0.39,0.7l-0.07-0.52C46.8,29.97,46.69,29.9,46.59,29.85z"/>
								<polygon class="st2" points="49.69,32.85 49.89,34.27 49.19,33.02 								"/>
								<polygon class="st2" points="46.58,32.85 46.78,34.27 46.08,33.02 								"/>
								<polygon class="st2" points="43.78,32.85 43.98,34.27 43.28,33.02 								"/>
								<polygon class="st2" points="40.98,32.85 41.19,34.27 40.49,33.02 								"/>
								<polygon class="st2" points="38.12,30.22 38.32,31.65 37.62,30.39 								"/>
								<polygon class="st2" points="49.38,37.47 49.58,38.89 48.88,37.64 								"/>
							</g>
						</g>
						<path class="st7" d="M31.16,29.3c-0.05,0.21-0.07,0.42-0.07,0.65c0,1.6,1.3,2.9,2.9,2.9c1.61,0,2.9-1.3,2.9-2.9
							c0-0.35-0.06-0.68-0.18-0.98c1.41-0.11,2.52-1.29,2.53-2.73c0-1.52-1.23-2.74-2.75-2.74c-0.4,0-1.84,0.45-2.15,0.63l-0.81,0
							c-0.37-0.23-1.96-0.62-2.34-0.62c-1.61,0-2.91,1.3-2.9,2.9C28.3,27.99,29.58,29.28,31.16,29.3z"/>
						<path class="st2" d="M34.05,12.82c0.01-0.03,0.01-0.07,0.01-0.1c0-0.25-0.21-0.46-0.46-0.46c-0.26,0-0.46,0.21-0.46,0.46
							c0,0.06,0.01,0.11,0.03,0.16c-0.22,0.02-0.4,0.21-0.4,0.43c0,0.24,0.2,0.44,0.44,0.44c0.06,0,0.29-0.07,0.34-0.1l-0.3,0.51
							l0.72,0l-0.3-0.51c0.06,0.04,0.31,0.1,0.37,0.1c0.26,0,0.46-0.21,0.46-0.46C34.5,13.03,34.3,12.82,34.05,12.82z"/>
						<path class="st4" d="M35.29,36.91c0.02-0.12,0.03-0.23,0.02-0.36c-0.04-0.85-0.77-1.51-1.63-1.51c-0.86,0-1.59,0.66-1.63,1.52
							c-0.01,0.19,0.02,0.37,0.07,0.55c-0.82,0.06-1.52,0.75-1.6,1.63c-0.08,0.97,0.62,1.79,1.58,1.79c0.26,0,1.16-0.31,1.36-0.44
							l-1.24,2.28l2.99-0.03l-1.25-2.25c0.23,0.15,1.23,0.41,1.47,0.41c1-0.01,1.73-0.88,1.63-1.89
							C36.98,37.65,36.18,36.92,35.29,36.91z"/>
						<path class="st3" d="M35.26,36.81c0.03-0.12,0.04-0.24,0.04-0.37c0-0.91-0.74-1.65-1.65-1.65c-0.91,0-1.65,0.74-1.65,1.65
							c0,0.2,0.04,0.38,0.1,0.56c-0.8,0.06-1.43,0.73-1.44,1.55c0,0.86,0.7,1.56,1.56,1.56c0.23,0,1.04-0.25,1.22-0.36l-1.06,1.81
							l2.57,0l-1.06-1.81c0.21,0.13,1.11,0.36,1.33,0.36c0.91,0,1.65-0.74,1.65-1.65C36.89,37.56,36.16,36.83,35.26,36.81z"/>
						<path class="st4" d="M33.63,40.26l0.66,0.85h-1.26L33.63,40.26z M32.22,39.48c-0.5,0-0.91-0.42-0.92-0.93
							c0-0.48,0.38-0.88,0.85-0.92l0.83-0.06l-0.29-0.78c-0.04-0.11-0.06-0.22-0.06-0.34c0-0.56,0.46-1.01,1.02-1.02
							c0.27,0,0.53,0.11,0.72,0.3c0.19,0.19,0.3,0.45,0.3,0.71c0,0.08-0.01,0.15-0.02,0.23l-0.17,0.76l0.78,0.01
							c0.55,0.01,1,0.46,1,1.02c0,0.27-0.1,0.53-0.3,0.72c-0.19,0.19-0.45,0.3-0.72,0.3l0,0c-0.12-0.01-0.52-0.1-0.79-0.19
							l-0.81-0.38l-0.73,0.38C32.68,39.37,32.33,39.47,32.22,39.48z"/>
					</g>
					<g>
						<polygon class="st6" points="31.32,24.65 36.24,24.65 35.55,26.41 32.21,26.4 						"/>
						<rect x="32.46" y="24.89" class="st4" width="2.64" height="0.52"/>
					</g>
				</g>
			</g>
			<path class="st4" d="M50.3,31.58c0,0-7.83-4.47-10.33-5.89c-0.24-0.14-0.43-0.24-0.56-0.32l0.67-2.84l-0.11-1.51l0-0.06
				l-0.33-4.48c0.03-0.01,0.07-0.01,0.1-0.02v-1.76c0,0-0.1-0.05-0.27-0.13c-0.41-0.2-1.23-0.6-2.13-1.04
				c-0.32-0.16-0.65-0.32-0.97-0.48c-0.34-0.17-0.67-0.33-0.98-0.49c-0.98-0.48-1.74-0.86-1.74-0.87c0,0-0.01,0.01-0.01,0.01v33.44
				l6.28-1.89l0.06,0.2l3.57-1.29l6.89-2.07v-8.1L50.3,31.58z"/>
		</g>
		<g>
			<g>
				<g>
					<g>
						<g>
							<g>
								<path class="st2" d="M16.98,61.44l0.12,0.42c0,0,7.83,4.47,10.33,5.89c0.47,0.27,0.75,0.42,0.76,0.42h11.15
									c0,0,0.02-0.01,0.05-0.03c0.02-0.01,0.05-0.03,0.08-0.05c0.03-0.02,0.06-0.04,0.1-0.05c0.03-0.02,0.07-0.04,0.11-0.06
									c0.04-0.02,0.08-0.05,0.13-0.07c0.07-0.04,0.14-0.08,0.22-0.12c0.15-0.09,0.32-0.19,0.51-0.29c0,0,0.01,0,0.01,0
									c0.14-0.08,0.29-0.17,0.45-0.26c0.05-0.03,0.11-0.06,0.17-0.09c0.37-0.21,0.79-0.45,1.23-0.7c0.16-0.09,0.32-0.18,0.48-0.28
									c0.16-0.09,0.32-0.19,0.49-0.28c0.16-0.1,0.33-0.19,0.5-0.29c2.21-1.26,4.65-2.65,5.83-3.33c0.07-0.04,0.13-0.08,0.19-0.11
									c0.28-0.16,0.47-0.27,0.52-0.29V43.29l-7.3,2.19l-1.66,0.5l-24.5,7.36V61.44z"/>
								<g>
									<g>
										<g>
											<g>
												<path class="st3" d="M33.69,58.55l3.05,5.29h-6.11L33.69,58.55z M36.16,63.5l-2.47-4.28l-2.47,4.28H36.16z"/>
											</g>
										</g>
										<path class="st4" d="M37.79,68.17c0.06-0.01,11.09-6.31,11.09-6.31l1.55-4.77v-13.8l-7.3,2.19l-1.66,0.5l-4.36,14.31
											l-0.58,1.92l-0.85,1.83l-1.9,4.07v0.08H37.79z"/>
										<path class="st5" d="M39.35,68.17c0,0,0.02-0.01,0.05-0.03c0.02-0.01,0.05-0.03,0.08-0.05c0.03-0.02,0.06-0.04,0.1-0.05
											c0.03-0.02,0.07-0.04,0.11-0.06c0.04-0.02,0.08-0.05,0.13-0.07c0.07-0.04,0.14-0.08,0.22-0.12
											c0.15-0.08,0.32-0.18,0.51-0.29c0,0,0.01,0,0.01,0c0.14-0.08,0.29-0.17,0.45-0.26c0.05-0.03,0.11-0.06,0.17-0.09
											c0.37-0.21,0.79-0.45,1.23-0.7c0.16-0.09,0.32-0.18,0.48-0.28c0.16-0.09,0.32-0.18,0.49-0.28
											c0.16-0.09,0.33-0.19,0.5-0.29c0.71-0.41,1.45-0.83,2.16-1.23c0.21-0.12,0.43-0.24,0.63-0.36
											c1.24-0.71,2.35-1.34,3.04-1.73c0.07-0.04,0.13-0.08,0.19-0.11c0.28-0.16,0.47-0.27,0.52-0.29V43.29l-1.3,0.39L48.4,43.9
											l-5.19,1.56l-0.08,0.03c-0.24,0.57-0.5,1.18-0.76,1.82c-1.75,4.2-3.88,9.52-5.25,12.99c-0.86,2.16-1.43,3.6-1.43,3.6
											l-0.01,0.15l-0.37,4.14H39.35z"/>
									</g>
									<g>
										<g>
											<path class="st4" d="M16.98,56.25l1.69,5.61c0,0,11.04,6.3,11.09,6.31h4.01V68.1l-2.75-5.89l-3.58-12.23l-10.46,3.79
												V56.25z"/>
											<path class="st5" d="M16.98,61.44l0.13,0.43c0,0,11.04,6.3,11.09,6.31h4.05l-0.38-4.29c0,0-4.76-9.88-6.45-13.08
												l-8.43,2.53V61.44z"/>
										</g>
									</g>
								</g>
								<g>
									<polygon class="st6" points="27.33,70.91 27.45,72.41 27.45,72.47 27.8,77.09 29.51,77.95 32.82,79.63 33.74,79.14 
										34.66,79.63 37.97,77.95 39.68,77.09 40.03,72.47 40.03,72.41 40.14,70.91 38.77,66.32 33.75,62.19 33.75,62.18 
										33.75,62.18 33.74,62.19 33.73,62.18 33.73,62.18 33.73,62.19 28.35,66.59 									"/>
									<path class="st6" d="M33.73,68.18l-2.03,0.07l1.52,0.95c0,0,0.24,0.01,0.51,0.01l0,0c0,0,0.01,0,0.01,0s0,0,0.01,0l0,0
										c0.27,0,0.51-0.01,0.51-0.01l1.52-0.95l-2.03-0.07v0L33.73,68.18L33.73,68.18L33.73,68.18z"/>
									<polygon class="st4" points="32.5,71.08 33.34,73.97 33.73,73.97 33.75,73.97 34.14,73.97 34.97,71.08 34.14,70.19 
										33.75,70.17 33.75,70.17 33.74,70.17 33.73,70.17 33.73,70.17 33.34,70.19 									"/>
									<g>
										<polygon class="st7" points="32.86,74.74 30.25,75.07 30.2,75.08 30.17,75.06 28.92,74.4 30.28,74.78 30.19,74.77 
											32.73,74.06 										"/>
										<path class="st2" d="M31.95,73.65c0.04-0.09,0.07-0.2,0.07-0.3c0-0.41-0.33-0.74-0.74-0.74c-0.41,0-0.74,0.33-0.74,0.74
											c0,0.11,0.02,0.21,0.07,0.3H31.95z"/>
										<polygon class="st7" points="34.62,74.74 37.23,75.07 37.28,75.08 37.31,75.06 38.55,74.4 37.2,74.78 37.28,74.77 
											34.75,74.06 										"/>
										<path class="st2" d="M35.53,73.65c-0.04-0.09-0.07-0.2-0.07-0.3c0-0.41,0.33-0.74,0.74-0.74c0.41,0,0.74,0.33,0.74,0.74
											c0,0.11-0.02,0.21-0.07,0.3H35.53z"/>
										<path class="st7" d="M27.45,72.41c0.04-0.03,0.06-0.05,0.06-0.05l1.21,4.26l0.79,1.33l-1.71-0.87l-0.34-4.62L27.45,72.41z
											"/>
										<path class="st7" d="M40.03,72.41c-0.04-0.03-0.07-0.05-0.07-0.05l-1.21,4.26l-0.79,1.33l1.71-0.87l0.34-4.62L40.03,72.41
											z"/>
									</g>
									<path class="st3" d="M27.68,78.73v-1.76c1.53-0.42,3.24-0.6,4.89-0.64c1.09-0.03,2.16,0,3.12,0.05
										c0.48,0.03,0.93,0.06,1.34,0.1c0.5,0.04,0.94,0.09,1.33,0.14c0.93,0.11,1.49,0.21,1.49,0.21v1.68c0,0-6.06,3.24-6.09,3.24
										c0-0.01-0.76-0.39-1.74-0.87c-0.31-0.15-0.65-0.32-0.98-0.49c-0.32-0.16-0.65-0.32-0.97-0.48
										c-0.9-0.44-1.72-0.84-2.13-1.04C27.78,78.78,27.68,78.73,27.68,78.73z"/>
									<g>
										<path class="st8" d="M31.05,80.38l5.98-3.9c0.5,0.04,0.94,0.09,1.33,0.14l-6.33,4.25C31.72,80.71,31.39,80.55,31.05,80.38
											z"/>
										<path class="st8" d="M27.95,78.87l4.62-2.54c1.09-0.03,2.16,0,3.12,0.05l-5.61,3.52C29.18,79.46,28.36,79.06,27.95,78.87z
											"/>
									</g>
								</g>
							</g>
							<g>
								<polygon class="st2" points="45.73,55.98 45.93,54.55 45.23,55.81 								"/>
								<polygon class="st2" points="42.93,55.98 43.13,54.55 42.43,55.81 								"/>
								<polygon class="st2" points="40.14,55.98 40.34,54.55 39.64,55.81 								"/>
								<polygon class="st2" points="49.23,51.39 49.43,49.97 48.73,51.23 								"/>
								<polygon class="st2" points="46.43,51.39 46.63,49.97 45.93,51.23 								"/>
								<polygon class="st2" points="43.63,51.39 43.83,49.97 43.13,51.23 								"/>
								<polygon class="st2" points="48.37,46.78 48.57,45.36 47.87,46.61 								"/>
								<polygon class="st2" points="45.58,46.78 45.78,45.36 45.08,46.61 								"/>
								<path class="st2" d="M42.58,46.89c0.13-0.32,0.26-0.62,0.38-0.91L43,45.96l-0.14,1.02L42.58,46.89z"/>
								<polygon class="st2" points="40.83,63.96 41.04,62.54 40.34,63.79 								"/>
								<polygon class="st2" points="43.63,64.54 43.83,63.12 43.13,64.37 								"/>
								<path class="st2" d="M46.24,64.02l0.39-0.7l-0.07,0.52C46.46,63.9,46.35,63.96,46.24,64.02z"/>
								<polygon class="st2" points="48.58,43.9 48.95,43.79 48.92,44.01 								"/>
								<polygon class="st2" points="49.16,60.59 49.36,59.17 48.66,60.43 								"/>
								<polygon class="st2" points="46.05,60.59 46.25,59.17 45.55,60.43 								"/>
								<polygon class="st2" points="43.25,60.59 43.45,59.17 42.75,60.43 								"/>
								<polygon class="st2" points="40.45,60.59 40.65,59.17 39.95,60.43 								"/>
								<polygon class="st2" points="37.58,63.22 37.78,61.8 37.08,63.06 								"/>
								<polygon class="st2" points="48.84,55.98 49.04,54.55 48.34,55.81 								"/>
							</g>
							<g>
								<polygon class="st2" points="21.14,55.98 20.94,54.55 21.64,55.81 								"/>
								<polygon class="st2" points="23.94,55.98 23.74,54.55 24.44,55.81 								"/>
								<polygon class="st2" points="26.74,55.98 26.54,54.55 27.24,55.81 								"/>
								<polygon class="st2" points="26.04,63.96 25.84,62.54 26.54,63.79 								"/>
								<polygon class="st2" points="23.24,64.54 23.04,63.12 23.74,64.37 								"/>
								<path class="st2" d="M20.82,63.6l-0.39-0.7l0.07,0.52C20.61,63.48,20.72,63.54,20.82,63.6z"/>
								<polygon class="st2" points="17.72,60.59 17.51,59.17 18.22,60.43 								"/>
								<polygon class="st2" points="20.83,60.59 20.63,59.17 21.33,60.43 								"/>
								<polygon class="st2" points="23.63,60.59 23.43,59.17 24.13,60.43 								"/>
								<polygon class="st2" points="26.42,60.59 26.22,59.17 26.92,60.43 								"/>
								<polygon class="st2" points="29.29,63.22 29.09,61.8 29.79,63.06 								"/>
								<polygon class="st2" points="18.03,55.98 17.83,54.55 18.53,55.81 								"/>
							</g>
						</g>
						<path class="st7" d="M36.25,64.14c0.05-0.21,0.07-0.42,0.07-0.65c0-1.6-1.3-2.9-2.9-2.9c-1.61,0-2.9,1.3-2.9,2.9
							c0,0.35,0.06,0.68,0.18,0.98c-1.41,0.11-2.53,1.29-2.53,2.73c0,1.52,1.23,2.74,2.75,2.74c0.4,0,1.84-0.45,2.15-0.63l0.81,0
							c0.37,0.23,1.96,0.63,2.34,0.63c1.61,0,2.91-1.3,2.9-2.9C39.1,65.46,37.83,64.17,36.25,64.14z"/>
						<path class="st2" d="M33.36,80.63c-0.01,0.03-0.01,0.07-0.01,0.1c0,0.25,0.21,0.46,0.46,0.46c0.26,0,0.46-0.21,0.46-0.46
							c0-0.06-0.01-0.11-0.03-0.16c0.22-0.02,0.4-0.21,0.4-0.43c0-0.24-0.2-0.44-0.44-0.44c-0.06,0-0.29,0.07-0.34,0.1l0.3-0.51
							h-0.72l0.3,0.51c-0.06-0.04-0.31-0.1-0.37-0.1c-0.26,0-0.46,0.21-0.46,0.46C32.9,80.42,33.11,80.62,33.36,80.63z"/>
						<path class="st4" d="M32.12,56.54c-0.02,0.12-0.03,0.23-0.02,0.36c0.04,0.85,0.77,1.51,1.63,1.51c0.86,0,1.59-0.66,1.63-1.52
							c0.01-0.19-0.02-0.37-0.07-0.55c0.82-0.06,1.52-0.75,1.6-1.63c0.08-0.97-0.62-1.79-1.58-1.79c-0.26,0-1.16,0.31-1.36,0.44
							l1.24-2.28l-2.99,0.03l1.25,2.25c-0.23-0.15-1.23-0.41-1.47-0.41c-1,0.01-1.73,0.88-1.63,1.89
							C30.43,55.8,31.23,56.53,32.12,56.54z"/>
						<path class="st3" d="M32.14,56.63c-0.03,0.12-0.04,0.24-0.04,0.37c0,0.91,0.74,1.65,1.65,1.65c0.91,0,1.65-0.74,1.65-1.65
							c0-0.2-0.04-0.38-0.1-0.56c0.8-0.06,1.43-0.73,1.44-1.55c0-0.86-0.7-1.56-1.56-1.56c-0.23,0-1.04,0.25-1.22,0.36l1.06-1.81
							l-2.57,0l1.06,1.81c-0.21-0.13-1.11-0.36-1.33-0.36c-0.91,0-1.65,0.74-1.65,1.65C30.52,55.89,31.25,56.62,32.14,56.63z"/>
						<path class="st4" d="M33.78,53.19l-0.66-0.85h1.26L33.78,53.19z M35.19,53.97c0.5,0,0.91,0.42,0.92,0.93
							c0,0.48-0.38,0.88-0.85,0.92l-0.83,0.06l0.29,0.78c0.04,0.11,0.06,0.22,0.06,0.34c0,0.56-0.46,1.01-1.02,1.02
							c-0.27,0-0.53-0.11-0.72-0.3c-0.19-0.19-0.3-0.45-0.3-0.71c0-0.08,0.01-0.15,0.02-0.23l0.17-0.76L32.15,56
							c-0.55-0.01-1-0.46-1-1.02c0-0.27,0.1-0.53,0.3-0.72c0.19-0.19,0.45-0.3,0.72-0.3l0,0c0.12,0.01,0.52,0.1,0.79,0.19l0.81,0.38
							l0.73-0.38C34.73,54.07,35.08,53.98,35.19,53.97z"/>
					</g>
					<g>
						<polygon class="st6" points="36.09,68.8 31.17,68.8 31.86,67.04 35.2,67.05 						"/>
						<rect x="32.31" y="68.03" class="st4" width="2.64" height="0.52"/>
					</g>
				</g>
			</g>
			<path class="st4" d="M17.11,61.86c0,0,7.83,4.47,10.33,5.89c0.24,0.14,0.43,0.24,0.56,0.32l-0.67,2.84l0.11,1.51l0,0.06
				l0.33,4.48c-0.03,0.01-0.07,0.01-0.1,0.02v1.76c0,0,0.1,0.05,0.27,0.13c0.41,0.2,1.23,0.6,2.13,1.04
				c0.32,0.16,0.65,0.32,0.97,0.48c0.34,0.17,0.67,0.33,0.98,0.49c0.98,0.48,1.74,0.86,1.74,0.87c0,0,0.01-0.01,0.01-0.01V48.29
				l-6.28,1.89l-0.06-0.2l-3.57,1.29l-6.89,2.07v8.1L17.11,61.86z"/>
		</g>
	</g>
	<g>
		<path class="st2" d="M13.99,22.17c0.02-0.12,0.04-0.24,0.04-0.37c0-0.9-0.73-1.63-1.63-1.63c-0.9,0-1.63,0.73-1.63,1.63
			c0,0.2,0.03,0.38,0.1,0.55c-0.8,0.06-1.42,0.73-1.42,1.54c0,0.85,0.69,1.54,1.55,1.54c0.23,0,1.03-0.25,1.21-0.35l-1.05,1.79
			l2.55,0l-1.05-1.79c0.21,0.13,1.1,0.35,1.32,0.35c0.9,0,1.64-0.73,1.64-1.64C15.59,22.91,14.88,22.19,13.99,22.17z"/>
		<path class="st4" d="M13.99,22.17c0.02-0.12,0.04-0.24,0.04-0.37c0-0.9-0.73-1.63-1.63-1.63c0,0,0,0-0.01,0v6.71l1.3,0l-1.05-1.79
			c0.21,0.13,1.1,0.35,1.32,0.35c0.9,0,1.64-0.73,1.64-1.64C15.59,22.91,14.88,22.19,13.99,22.17z"/>
	</g>
	<g>
		<path class="st2" d="M53.18,71.08c-0.02,0.12-0.04,0.24-0.04,0.37c0,0.9,0.73,1.63,1.63,1.63c0.9,0,1.63-0.73,1.63-1.63
			c0-0.2-0.03-0.38-0.1-0.55c0.8-0.06,1.42-0.73,1.42-1.54c0-0.85-0.69-1.54-1.55-1.54c-0.23,0-1.03,0.25-1.21,0.35l1.05-1.79
			l-2.55,0l1.05,1.79c-0.21-0.13-1.1-0.35-1.32-0.35c-0.91,0-1.64,0.73-1.64,1.64C51.57,70.34,52.29,71.07,53.18,71.08z"/>
		<path class="st4" d="M53.18,71.08c-0.02,0.12-0.04,0.24-0.04,0.37c0,0.9,0.73,1.63,1.63,1.63c0,0,0,0,0.01,0v-6.71l-1.3,0
			l1.05,1.79c-0.21-0.13-1.1-0.35-1.32-0.35c-0.91,0-1.64,0.73-1.64,1.64C51.57,70.34,52.29,71.07,53.18,71.08z"/>
	</g>
</g>
</svg>
