<?xml version="1.0" encoding="utf-8"?>
<!-- Generator: Adobe Illustrator 26.0.3, SVG Export Plug-In . SVG Version: 6.00 Build 0)  -->
<svg version="1.1" id="Layer_1" xmlns="http://www.w3.org/2000/svg" xmlns:xlink="http://www.w3.org/1999/xlink" x="0px" y="0px"
	 viewBox="0 0 66 92" style="enable-background:new 0 0 66 92;" xml:space="preserve">
<style type="text/css">
	.st0{fill:#C9C9C9;}
	.st1{fill:#FFFFFF;}
	.st2{fill:#333333;}
	.st3{opacity:0.2;fill:#616161;}
</style>
<g>
	<g>
		<g>
			<g>
				<path class="st0" d="M10,87.32c-3.49,0.01-6.34-2.78-6.35-6.21L3.47,10.93C3.46,7.48,6.31,4.67,9.81,4.68l46.38,0.09
					c3.49,0.01,6.33,2.82,6.33,6.26v70.03c0,3.42-2.83,6.21-6.31,6.21L10,87.32z"/>
			</g>
			<path class="st1" d="M10.58,87.15c-3.45,0-6.25-2.79-6.25-6.23V10.91c0-3.43,2.8-6.23,6.25-6.23h45.7c3.45,0,6.25,2.79,6.25,6.23
				v70.01c0,3.44-2.81,6.23-6.25,6.23H10.58z"/>
			<g>
				<path class="st2" d="M11.66,14.15c0,0.13-0.06,0.32-0.19,0.55c-0.18,0.32-0.43,0.65-0.76,0.99c-0.38,0.39-0.59,0.59-0.62,0.62
					c-0.24,0.18-0.54,0.27-0.89,0.27c-0.48,0-0.89-0.18-1.24-0.55c-0.3-0.31-0.44-0.62-0.44-0.91c0-0.2,0.1-0.44,0.3-0.71
					c0.2-0.27,0.41-0.54,0.62-0.82c-0.16-0.14-0.3-0.29-0.42-0.47c-0.12-0.17-0.18-0.36-0.18-0.58c0-0.26,0.1-0.55,0.3-0.84
					c0.19-0.26,0.35-0.48,0.48-0.66c0.31-0.45,0.57-0.74,0.78-0.87c0.21-0.13,0.43-0.2,0.67-0.2c0.36,0,0.67,0.1,0.94,0.31
					c0.26,0.21,0.39,0.48,0.39,0.83c0,0.38-0.16,0.74-0.47,1.08c-0.31,0.34-0.47,0.57-0.47,0.7c0.31,0.21,0.59,0.4,0.81,0.6
					C11.53,13.71,11.66,13.93,11.66,14.15z M10.49,14.95c0-0.19-0.23-0.43-0.69-0.71C9.39,14,9.12,13.87,9.01,13.87
					c-0.04,0-0.1,0.07-0.18,0.2c-0.08,0.13-0.11,0.25-0.11,0.34c0,0.25,0.15,0.48,0.45,0.71c0.28,0.21,0.54,0.31,0.79,0.31
					c0.12,0,0.24-0.05,0.35-0.15C10.43,15.17,10.49,15.06,10.49,14.95z M10.15,12.07c0-0.15-0.08-0.31-0.24-0.47
					c-0.19-0.19-0.4-0.28-0.63-0.28c-0.11,0-0.2,0.03-0.27,0.1c-0.07,0.07-0.11,0.15-0.11,0.24c0,0.2,0.15,0.41,0.46,0.64
					c0.26,0.2,0.43,0.3,0.51,0.3c0.05,0,0.11-0.07,0.18-0.2C10.12,12.27,10.15,12.16,10.15,12.07z"/>
			</g>
			<g>
				<path class="st2" d="M55.58,78.45c0-0.13,0.06-0.32,0.19-0.55c0.18-0.32,0.43-0.65,0.76-0.99c0.38-0.39,0.59-0.59,0.62-0.62
					c0.24-0.18,0.54-0.27,0.89-0.27c0.48,0,0.89,0.18,1.24,0.55c0.3,0.31,0.44,0.62,0.44,0.91c0,0.21-0.1,0.44-0.3,0.71
					c-0.2,0.27-0.41,0.54-0.62,0.82c0.16,0.14,0.3,0.29,0.42,0.47c0.12,0.17,0.18,0.36,0.18,0.58c0,0.26-0.1,0.55-0.3,0.84
					c-0.19,0.26-0.35,0.48-0.48,0.66c-0.31,0.45-0.57,0.74-0.78,0.87c-0.21,0.13-0.43,0.2-0.67,0.2c-0.36,0-0.67-0.1-0.94-0.31
					c-0.26-0.21-0.39-0.48-0.39-0.83c0-0.38,0.16-0.74,0.47-1.08c0.31-0.34,0.47-0.57,0.47-0.7c-0.31-0.21-0.59-0.4-0.81-0.6
					C55.71,78.89,55.58,78.67,55.58,78.45z M56.76,77.65c0,0.19,0.23,0.43,0.69,0.71c0.41,0.25,0.67,0.37,0.79,0.37
					c0.04,0,0.1-0.07,0.18-0.2c0.08-0.13,0.11-0.25,0.11-0.34c0-0.25-0.15-0.48-0.45-0.71c-0.28-0.21-0.54-0.31-0.79-0.31
					c-0.12,0-0.24,0.05-0.35,0.15C56.81,77.43,56.76,77.54,56.76,77.65z M57.09,80.53c0,0.15,0.08,0.31,0.24,0.47
					c0.19,0.19,0.4,0.28,0.63,0.28c0.11,0,0.2-0.03,0.27-0.1c0.07-0.07,0.11-0.15,0.11-0.24c0-0.2-0.15-0.41-0.46-0.64
					c-0.26-0.2-0.43-0.3-0.51-0.3c-0.05,0-0.11,0.07-0.18,0.2C57.12,80.33,57.09,80.44,57.09,80.53z"/>
			</g>
		</g>
	</g>
	<g>
		<path class="st2" d="M47.66,15.73c0.05-0.26,0.09-0.52,0.09-0.8c0-1.97-1.6-3.57-3.57-3.57c-1.97,0-3.57,1.59-3.57,3.57
			c0,0.43,0.08,0.83,0.21,1.21c-1.74,0.14-3.11,1.59-3.11,3.36c0,1.87,1.52,3.37,3.38,3.38c0.5,0,2.26-0.55,2.64-0.77l-2.29,3.92
			l5.57,0l-2.29-3.92c0.46,0.28,2.41,0.77,2.88,0.77c1.98,0,3.58-1.6,3.57-3.58C51.18,17.35,49.61,15.76,47.66,15.73z"/>
		<path class="st3" d="M47.66,15.73c0.05-0.26,0.09-0.52,0.09-0.8c0-1.97-1.6-3.57-3.57-3.57c0,0-0.01,0-0.02,0v14.66l2.85,0
			l-2.29-3.92c0.46,0.28,2.41,0.77,2.88,0.77c1.98,0,3.58-1.6,3.57-3.58C51.18,17.35,49.61,15.76,47.66,15.73z"/>
	</g>
	<g>
		<path class="st2" d="M47.66,33.78c0.05-0.26,0.09-0.52,0.09-0.8c0-1.97-1.6-3.57-3.57-3.57c-1.97,0-3.57,1.59-3.57,3.57
			c0,0.43,0.08,0.83,0.21,1.21c-1.74,0.14-3.11,1.59-3.11,3.36c0,1.87,1.52,3.37,3.38,3.38c0.5,0,2.26-0.55,2.64-0.77l-2.29,3.92
			l5.57,0l-2.29-3.92c0.46,0.28,2.41,0.77,2.88,0.77c1.98,0,3.58-1.6,3.57-3.58C51.18,35.39,49.61,33.81,47.66,33.78z"/>
		<path class="st3" d="M47.66,33.78c0.05-0.26,0.09-0.52,0.09-0.8c0-1.97-1.6-3.57-3.57-3.57c0,0-0.01,0-0.02,0v14.66l2.85,0
			l-2.29-3.92c0.46,0.28,2.41,0.77,2.88,0.77c1.98,0,3.58-1.6,3.57-3.58C51.18,35.39,49.61,33.81,47.66,33.78z"/>
	</g>
	<g>
		<path class="st2" d="M19.19,15.73c-0.05-0.26-0.09-0.52-0.09-0.8c0-1.97,1.6-3.57,3.57-3.57c1.97,0,3.57,1.59,3.57,3.57
			c0,0.43-0.08,0.83-0.21,1.21c1.74,0.14,3.11,1.59,3.11,3.36c0,1.87-1.52,3.37-3.38,3.38c-0.5,0-2.26-0.55-2.64-0.77l2.29,3.92
			l-5.57,0l2.29-3.92c-0.46,0.28-2.41,0.77-2.88,0.77c-1.98,0-3.58-1.6-3.57-3.58C15.68,17.35,17.25,15.76,19.19,15.73z"/>
		<path class="st3" d="M19.19,15.73c-0.05-0.26-0.09-0.52-0.09-0.8c0-1.97,1.6-3.57,3.57-3.57c0,0,0.01,0,0.02,0v14.66l-2.85,0
			l2.29-3.92c-0.46,0.28-2.41,0.77-2.88,0.77c-1.98,0-3.58-1.6-3.57-3.58C15.68,17.35,17.25,15.76,19.19,15.73z"/>
	</g>
	<g>
		<path class="st2" d="M19.19,33.78c-0.05-0.26-0.09-0.52-0.09-0.8c0-1.97,1.6-3.57,3.57-3.57c1.97,0,3.57,1.59,3.57,3.57
			c0,0.43-0.08,0.83-0.21,1.21c1.74,0.14,3.11,1.59,3.11,3.36c0,1.87-1.52,3.37-3.38,3.38c-0.5,0-2.26-0.55-2.64-0.77l2.29,3.92
			l-5.57,0l2.29-3.92c-0.46,0.28-2.41,0.77-2.88,0.77c-1.98,0-3.58-1.6-3.57-3.58C15.68,35.39,17.25,33.81,19.19,33.78z"/>
		<path class="st3" d="M19.19,33.78c-0.05-0.26-0.09-0.52-0.09-0.8c0-1.97,1.6-3.57,3.57-3.57c0,0,0.01,0,0.02,0v14.66l-2.85,0
			l2.29-3.92c-0.46,0.28-2.41,0.77-2.88,0.77c-1.98,0-3.58-1.6-3.57-3.58C15.68,35.39,17.25,33.81,19.19,33.78z"/>
	</g>
	<g>
		<path class="st2" d="M47.66,76.1c0.05,0.26,0.09,0.52,0.09,0.8c0,1.97-1.6,3.57-3.57,3.57c-1.97,0-3.57-1.59-3.57-3.57
			c0-0.43,0.08-0.83,0.21-1.21c-1.74-0.14-3.11-1.59-3.11-3.36c0-1.87,1.52-3.37,3.38-3.38c0.5,0,2.26,0.55,2.64,0.77l-2.29-3.92
			l5.57,0l-2.29,3.92c0.46-0.28,2.41-0.77,2.88-0.77c1.98,0,3.58,1.6,3.57,3.58C51.18,74.48,49.61,76.06,47.66,76.1z"/>
		<path class="st3" d="M47.66,76.1c0.05,0.26,0.09,0.52,0.09,0.8c0,1.97-1.6,3.57-3.57,3.57c0,0-0.01,0-0.02,0V65.8l2.85,0
			l-2.29,3.92c0.46-0.28,2.41-0.77,2.88-0.77c1.98,0,3.58,1.6,3.57,3.58C51.18,74.48,49.61,76.06,47.66,76.1z"/>
	</g>
	<g>
		<path class="st2" d="M47.66,58.05c0.05,0.26,0.09,0.52,0.09,0.8c0,1.97-1.6,3.57-3.57,3.57c-1.97,0-3.57-1.59-3.57-3.57
			c0-0.43,0.08-0.83,0.21-1.21c-1.74-0.14-3.11-1.59-3.11-3.36c0-1.87,1.52-3.37,3.38-3.38c0.5,0,2.26,0.55,2.64,0.77l-2.29-3.92
			l5.57,0l-2.29,3.92c0.46-0.28,2.41-0.77,2.88-0.77c1.98,0,3.58,1.6,3.57,3.58C51.18,56.43,49.61,58.02,47.66,58.05z"/>
		<path class="st3" d="M47.66,58.05c0.05,0.26,0.09,0.52,0.09,0.8c0,1.97-1.6,3.57-3.57,3.57c0,0-0.01,0-0.02,0V47.75l2.85,0
			l-2.29,3.92c0.46-0.28,2.41-0.77,2.88-0.77c1.98,0,3.58,1.6,3.57,3.58C51.18,56.43,49.61,58.02,47.66,58.05z"/>
	</g>
	<g>
		<path class="st2" d="M19.19,76.1c-0.05,0.26-0.09,0.52-0.09,0.8c0,1.97,1.6,3.57,3.57,3.57c1.97,0,3.57-1.59,3.57-3.57
			c0-0.43-0.08-0.83-0.21-1.21c1.74-0.14,3.11-1.59,3.11-3.36c0-1.87-1.52-3.37-3.38-3.38c-0.5,0-2.26,0.55-2.64,0.77l2.29-3.92
			l-5.57,0l2.29,3.92c-0.46-0.28-2.41-0.77-2.88-0.77c-1.98,0-3.58,1.6-3.57,3.58C15.68,74.48,17.25,76.06,19.19,76.1z"/>
		<path class="st3" d="M19.19,76.1c-0.05,0.26-0.09,0.52-0.09,0.8c0,1.97,1.6,3.57,3.57,3.57c0,0,0.01,0,0.02,0V65.8l-2.85,0
			l2.29,3.92c-0.46-0.28-2.41-0.77-2.88-0.77c-1.98,0-3.58,1.6-3.57,3.58C15.68,74.48,17.25,76.06,19.19,76.1z"/>
	</g>
	<g>
		<path class="st2" d="M19.19,58.05c-0.05,0.26-0.09,0.52-0.09,0.8c0,1.97,1.6,3.57,3.57,3.57c1.97,0,3.57-1.59,3.57-3.57
			c0-0.43-0.08-0.83-0.21-1.21c1.74-0.14,3.11-1.59,3.11-3.36c0-1.87-1.52-3.37-3.38-3.38c-0.5,0-2.26,0.55-2.64,0.77l2.29-3.92
			l-5.57,0l2.29,3.92c-0.46-0.28-2.41-0.77-2.88-0.77c-1.98,0-3.58,1.6-3.57,3.58C15.68,56.43,17.25,58.02,19.19,58.05z"/>
		<path class="st3" d="M19.19,58.05c-0.05,0.26-0.09,0.52-0.09,0.8c0,1.97,1.6,3.57,3.57,3.57c0,0,0.01,0,0.02,0V47.75l-2.85,0
			l2.29,3.92c-0.46-0.28-2.41-0.77-2.88-0.77c-1.98,0-3.58,1.6-3.57,3.58C15.68,56.43,17.25,58.02,19.19,58.05z"/>
	</g>
	<g>
		<path class="st2" d="M9.81,20.72c0.01-0.06,0.02-0.12,0.02-0.18c0-0.45-0.37-0.81-0.82-0.81c-0.45,0-0.81,0.37-0.82,0.81
			c0,0.1,0.02,0.19,0.05,0.28c-0.4,0.03-0.71,0.36-0.71,0.77c0,0.43,0.35,0.77,0.77,0.77c0.11,0,0.52-0.12,0.6-0.18l-0.52,0.89
			l1.27,0l-0.52-0.89c0.1,0.06,0.55,0.17,0.66,0.17c0.45,0,0.82-0.37,0.82-0.82C10.61,21.09,10.25,20.72,9.81,20.72z"/>
		<path class="st3" d="M9.81,20.72c0.01-0.06,0.02-0.12,0.02-0.18c0-0.45-0.37-0.81-0.82-0.81c0,0,0,0,0,0v3.35l0.65,0l-0.52-0.89
			c0.1,0.06,0.55,0.17,0.66,0.17c0.45,0,0.82-0.37,0.82-0.82C10.61,21.09,10.25,20.72,9.81,20.72z"/>
	</g>
	<g>
		<path class="st2" d="M58.52,73.11c0.01,0.06,0.02,0.12,0.02,0.18c0,0.45-0.37,0.81-0.82,0.81c-0.45,0-0.81-0.37-0.82-0.81
			c0-0.1,0.02-0.19,0.05-0.28c-0.4-0.03-0.71-0.36-0.71-0.77c0-0.43,0.35-0.77,0.77-0.77c0.11,0,0.52,0.12,0.6,0.18l-0.52-0.89
			l1.27,0l-0.52,0.89c0.1-0.06,0.55-0.17,0.66-0.17c0.45,0,0.82,0.37,0.82,0.82C59.32,72.74,58.96,73.1,58.52,73.11z"/>
		<path class="st3" d="M58.52,73.11c0.01,0.06,0.02,0.12,0.02,0.18c0,0.45-0.37,0.81-0.82,0.81c0,0,0,0,0,0v-3.35l0.65,0l-0.52,0.89
			c0.1-0.06,0.55-0.17,0.66-0.17c0.45,0,0.82,0.37,0.82,0.82C59.32,72.74,58.96,73.1,58.52,73.11z"/>
	</g>
</g>
</svg>
