<?xml version="1.0" encoding="utf-8"?>
<!-- Generator: Adobe Illustrator 26.0.3, SVG Export Plug-In . SVG Version: 6.00 Build 0)  -->
<svg version="1.1" id="Layer_1" xmlns="http://www.w3.org/2000/svg" xmlns:xlink="http://www.w3.org/1999/xlink" x="0px" y="0px"
	 viewBox="0 0 66 92" style="enable-background:new 0 0 66 92;" xml:space="preserve">
<style type="text/css">
	.st0{fill:#C9C9C9;}
	.st1{fill:#FFFFFF;}
	.st2{fill:#333333;}
	.st3{opacity:0.2;fill:#616161;}
</style>
<g>
	<g>
		<g>
			<g>
				<path class="st0" d="M10,87.32c-3.49,0-6.34-2.78-6.35-6.21L3.47,10.93C3.46,7.48,6.31,4.67,9.81,4.68l46.38,0.09
					c3.49,0.01,6.33,2.82,6.33,6.26v70.03c0,3.42-2.83,6.21-6.31,6.22L10,87.32z"/>
			</g>
			<path class="st1" d="M10.58,87.15c-3.45,0-6.25-2.79-6.25-6.23V10.91c0-3.43,2.81-6.23,6.25-6.23h45.7
				c3.45,0,6.25,2.79,6.25,6.23v70.01c0,3.44-2.8,6.23-6.25,6.23H10.58z"/>
			<g>
				<path class="st2" d="M8.65,15.67c0,0.11-0.19,0.28-0.56,0.53c-0.42,0.27-0.78,0.41-1.08,0.41c-0.16,0-0.29-0.08-0.39-0.23
					c-0.07-0.11-0.11-0.22-0.11-0.31v-4.71c0-0.1-0.01-0.16-0.04-0.19c-0.03-0.03-0.07-0.05-0.13-0.05c-0.03,0-0.1,0.01-0.21,0.04
					c-0.11,0.02-0.2,0.03-0.25,0.02c-0.02-0.03-0.04-0.06-0.04-0.08c0-0.07,0.07-0.15,0.22-0.24c0.14-0.1,0.29-0.21,0.45-0.35
					c0.13-0.11,0.26-0.22,0.39-0.34c0.14-0.1,0.25-0.14,0.34-0.14c0.15,0,0.3,0.08,0.44,0.24c0.14,0.16,0.21,0.32,0.21,0.46v4.99
					c0.02,0.03,0.04,0.05,0.05,0.05c0.04,0.04,0.07,0.05,0.1,0.05c0.05-0.02,0.09-0.03,0.12-0.04c0.08-0.04,0.18-0.1,0.3-0.19h0.15
					L8.65,15.67z"/>
				<path class="st2" d="M14.4,13.38c0,0.36-0.07,0.7-0.22,1.03c-0.24,0.53-0.64,1-1.21,1.4c-0.33,0.23-0.56,0.38-0.71,0.46
					c-0.36,0.2-0.78,0.3-1.25,0.3c-0.7,0-1.27-0.3-1.71-0.91c-0.42-0.56-0.62-1.22-0.62-1.98c0-0.49,0.13-0.99,0.38-1.49
					c0.16-0.32,0.37-0.63,0.63-0.92c0.33-0.36,0.66-0.65,1-0.87c0.44-0.28,0.87-0.42,1.29-0.42c0.74,0,1.34,0.36,1.8,1.09
					C14.2,11.73,14.4,12.5,14.4,13.38z M13.03,14.37c0-0.44-0.06-0.87-0.18-1.29c-0.12-0.42-0.3-0.81-0.54-1.16
					c-0.25-0.39-0.5-0.67-0.73-0.83c-0.16-0.12-0.32-0.17-0.46-0.17c-0.34,0-0.62,0.16-0.83,0.48c-0.21,0.32-0.32,0.69-0.32,1.1
					c0,0.25,0.02,0.49,0.07,0.71c0.07,0.34,0.21,0.73,0.41,1.16c0.23,0.51,0.48,0.88,0.77,1.11c0.23,0.19,0.47,0.29,0.7,0.29
					c0.35,0,0.62-0.12,0.81-0.38C12.93,15.15,13.03,14.81,13.03,14.37z"/>
			</g>
			<g>
				<path class="st2" d="M58.6,76.94c0-0.11,0.19-0.28,0.56-0.53c0.42-0.27,0.78-0.41,1.08-0.41c0.16,0,0.29,0.08,0.39,0.23
					c0.07,0.11,0.11,0.22,0.11,0.31v4.71c0,0.1,0.01,0.16,0.04,0.19c0.03,0.03,0.07,0.05,0.13,0.05c0.03,0,0.1-0.01,0.21-0.04
					c0.11-0.02,0.19-0.03,0.25-0.02c0.03,0.03,0.04,0.06,0.04,0.08c0,0.07-0.07,0.15-0.22,0.24c-0.14,0.1-0.29,0.21-0.45,0.35
					c-0.13,0.11-0.26,0.22-0.39,0.33c-0.14,0.1-0.25,0.14-0.34,0.14c-0.15,0-0.3-0.08-0.44-0.24c-0.14-0.16-0.21-0.32-0.21-0.46
					V76.9c-0.03-0.03-0.04-0.05-0.05-0.05c-0.04-0.04-0.08-0.05-0.1-0.05c-0.05,0.02-0.09,0.03-0.12,0.04
					c-0.08,0.04-0.18,0.1-0.3,0.19h-0.15L58.6,76.94z"/>
				<path class="st2" d="M52.84,79.22c0-0.36,0.07-0.7,0.22-1.03c0.24-0.53,0.64-1,1.21-1.4c0.33-0.23,0.56-0.38,0.71-0.46
					c0.36-0.2,0.78-0.3,1.25-0.3c0.7,0,1.27,0.3,1.71,0.91c0.42,0.56,0.62,1.22,0.62,1.98c0,0.49-0.13,0.99-0.38,1.49
					c-0.16,0.32-0.37,0.63-0.63,0.92c-0.33,0.36-0.66,0.65-1,0.87c-0.44,0.28-0.87,0.42-1.29,0.42c-0.74,0-1.34-0.36-1.8-1.09
					C53.04,80.87,52.84,80.11,52.84,79.22z M54.21,78.23c0,0.44,0.06,0.87,0.18,1.29c0.12,0.42,0.3,0.81,0.54,1.16
					c0.25,0.39,0.5,0.67,0.73,0.83c0.16,0.12,0.32,0.17,0.46,0.17c0.34,0,0.62-0.16,0.83-0.48c0.21-0.32,0.32-0.69,0.32-1.1
					c0-0.25-0.02-0.49-0.07-0.71c-0.07-0.34-0.21-0.73-0.41-1.16c-0.23-0.51-0.48-0.88-0.77-1.11c-0.23-0.19-0.47-0.29-0.7-0.29
					c-0.35,0-0.62,0.12-0.81,0.38C54.31,77.45,54.21,77.8,54.21,78.23z"/>
			</g>
		</g>
	</g>
	<g>
		<path class="st2" d="M47.68,15.73c0.05-0.26,0.09-0.52,0.09-0.8c0-1.97-1.6-3.57-3.57-3.57c-1.97,0-3.57,1.59-3.57,3.57
			c0,0.43,0.08,0.83,0.21,1.21c-1.74,0.14-3.11,1.59-3.11,3.36c0,1.87,1.52,3.37,3.38,3.38c0.5,0,2.26-0.55,2.64-0.77l-2.29,3.92
			l5.57,0l-2.29-3.92c0.46,0.28,2.41,0.77,2.88,0.77c1.98,0,3.58-1.6,3.57-3.58C51.19,17.35,49.62,15.76,47.68,15.73z"/>
		<path class="st3" d="M47.68,15.73c0.05-0.26,0.09-0.52,0.09-0.8c0-1.97-1.6-3.57-3.57-3.57c0,0-0.01,0-0.02,0v14.66l2.85,0
			l-2.29-3.92c0.46,0.28,2.41,0.77,2.88,0.77c1.98,0,3.58-1.6,3.57-3.58C51.19,17.35,49.62,15.76,47.68,15.73z"/>
	</g>
	<g>
		<path class="st2" d="M36.75,26.13c0.05-0.26,0.09-0.52,0.09-0.8c0-1.97-1.6-3.57-3.57-3.57c-1.97,0-3.57,1.59-3.57,3.57
			c0,0.43,0.08,0.83,0.21,1.21c-1.74,0.14-3.11,1.59-3.11,3.36c0,1.87,1.52,3.37,3.38,3.38c0.5,0,2.26-0.55,2.64-0.77l-2.29,3.92
			l5.57,0l-2.29-3.92c0.46,0.28,2.41,0.77,2.88,0.77c1.98,0,3.58-1.6,3.57-3.58C40.27,27.74,38.7,26.16,36.75,26.13z"/>
		<path class="st3" d="M36.75,26.13c0.05-0.26,0.09-0.52,0.09-0.8c0-1.97-1.6-3.57-3.57-3.57c0,0-0.01,0-0.02,0v14.66l2.85,0
			l-2.29-3.92c0.46,0.28,2.41,0.77,2.88,0.77c1.98,0,3.58-1.6,3.57-3.58C40.27,27.74,38.7,26.16,36.75,26.13z"/>
	</g>
	<g>
		<path class="st2" d="M47.68,33.78c0.05-0.26,0.09-0.52,0.09-0.8c0-1.97-1.6-3.57-3.57-3.57c-1.97,0-3.57,1.59-3.57,3.57
			c0,0.43,0.08,0.83,0.21,1.21c-1.74,0.14-3.11,1.59-3.11,3.36c0,1.87,1.52,3.37,3.38,3.38c0.5,0,2.26-0.55,2.64-0.77l-2.29,3.92
			l5.57,0l-2.29-3.92c0.46,0.28,2.41,0.77,2.88,0.77c1.98,0,3.58-1.6,3.57-3.58C51.19,35.39,49.62,33.81,47.68,33.78z"/>
		<path class="st3" d="M47.68,33.78c0.05-0.26,0.09-0.52,0.09-0.8c0-1.97-1.6-3.57-3.57-3.57c0,0-0.01,0-0.02,0v14.66l2.85,0
			l-2.29-3.92c0.46,0.28,2.41,0.77,2.88,0.77c1.98,0,3.58-1.6,3.57-3.58C51.19,35.39,49.62,33.81,47.68,33.78z"/>
	</g>
	<g>
		<path class="st2" d="M19.21,15.73c-0.05-0.26-0.09-0.52-0.09-0.8c0-1.97,1.6-3.57,3.57-3.57c1.97,0,3.57,1.59,3.57,3.57
			c0,0.43-0.08,0.83-0.21,1.21c1.74,0.14,3.11,1.59,3.11,3.36c0,1.87-1.52,3.37-3.38,3.38c-0.5,0-2.26-0.55-2.64-0.77l2.29,3.92
			l-5.57,0l2.29-3.92c-0.46,0.28-2.41,0.77-2.88,0.77c-1.98,0-3.58-1.6-3.57-3.58C15.69,17.35,17.26,15.76,19.21,15.73z"/>
		<path class="st3" d="M19.21,15.73c-0.05-0.26-0.09-0.52-0.09-0.8c0-1.97,1.6-3.57,3.57-3.57c0,0,0.01,0,0.02,0v14.66l-2.85,0
			l2.29-3.92c-0.46,0.28-2.41,0.77-2.88,0.77c-1.98,0-3.58-1.6-3.57-3.58C15.69,17.35,17.26,15.76,19.21,15.73z"/>
	</g>
	<g>
		<path class="st2" d="M19.21,33.78c-0.05-0.26-0.09-0.52-0.09-0.8c0-1.97,1.6-3.57,3.57-3.57c1.97,0,3.57,1.59,3.57,3.57
			c0,0.43-0.08,0.83-0.21,1.21c1.74,0.14,3.11,1.59,3.11,3.36c0,1.87-1.52,3.37-3.38,3.38c-0.5,0-2.26-0.55-2.64-0.77l2.29,3.92
			l-5.57,0l2.29-3.92c-0.46,0.28-2.41,0.77-2.88,0.77c-1.98,0-3.58-1.6-3.57-3.58C15.69,35.39,17.26,33.81,19.21,33.78z"/>
		<path class="st3" d="M19.21,33.78c-0.05-0.26-0.09-0.52-0.09-0.8c0-1.97,1.6-3.57,3.57-3.57c0,0,0.01,0,0.02,0v14.66l-2.85,0
			l2.29-3.92c-0.46,0.28-2.41,0.77-2.88,0.77c-1.98,0-3.58-1.6-3.57-3.58C15.69,35.39,17.26,33.81,19.21,33.78z"/>
	</g>
	<g>
		<path class="st2" d="M47.68,76.1c0.05,0.26,0.09,0.52,0.09,0.8c0,1.97-1.6,3.57-3.57,3.57c-1.97,0-3.57-1.59-3.57-3.57
			c0-0.43,0.08-0.83,0.21-1.21c-1.74-0.14-3.11-1.59-3.11-3.36c0-1.87,1.52-3.37,3.38-3.38c0.5,0,2.26,0.55,2.64,0.77l-2.29-3.92
			l5.57,0l-2.29,3.92c0.46-0.28,2.41-0.77,2.88-0.77c1.98,0,3.58,1.6,3.57,3.58C51.19,74.48,49.62,76.06,47.68,76.1z"/>
		<path class="st3" d="M47.68,76.1c0.05,0.26,0.09,0.52,0.09,0.8c0,1.97-1.6,3.57-3.57,3.57c0,0-0.01,0-0.02,0V65.8l2.85,0
			l-2.29,3.92c0.46-0.28,2.41-0.77,2.88-0.77c1.98,0,3.58,1.6,3.57,3.58C51.19,74.48,49.62,76.06,47.68,76.1z"/>
	</g>
	<g>
		<path class="st2" d="M36.75,65.7c0.05,0.26,0.09,0.52,0.09,0.8c0,1.97-1.6,3.57-3.57,3.57c-1.97,0-3.57-1.59-3.57-3.57
			c0-0.43,0.08-0.83,0.21-1.21c-1.74-0.14-3.11-1.59-3.11-3.36c0-1.87,1.52-3.37,3.38-3.38c0.5,0,2.26,0.55,2.64,0.77l-2.29-3.92
			l5.57,0l-2.29,3.92c0.46-0.28,2.41-0.77,2.88-0.77c1.98,0,3.58,1.6,3.57,3.58C40.27,64.08,38.7,65.67,36.75,65.7z"/>
		<path class="st3" d="M36.75,65.7c0.05,0.26,0.09,0.52,0.09,0.8c0,1.97-1.6,3.57-3.57,3.57c0,0-0.01,0-0.02,0V55.4l2.85,0
			l-2.29,3.92c0.46-0.28,2.41-0.77,2.88-0.77c1.98,0,3.58,1.6,3.57,3.58C40.27,64.08,38.7,65.67,36.75,65.7z"/>
	</g>
	<g>
		<path class="st2" d="M47.68,58.05c0.05,0.26,0.09,0.52,0.09,0.8c0,1.97-1.6,3.57-3.57,3.57c-1.97,0-3.57-1.59-3.57-3.57
			c0-0.43,0.08-0.83,0.21-1.21c-1.74-0.14-3.11-1.59-3.11-3.36c0-1.87,1.52-3.37,3.38-3.38c0.5,0,2.26,0.55,2.64,0.77l-2.29-3.92
			l5.57,0l-2.29,3.92c0.46-0.28,2.41-0.77,2.88-0.77c1.98,0,3.58,1.6,3.57,3.58C51.19,56.43,49.62,58.02,47.68,58.05z"/>
		<path class="st3" d="M47.68,58.05c0.05,0.26,0.09,0.52,0.09,0.8c0,1.97-1.6,3.57-3.57,3.57c0,0-0.01,0-0.02,0V47.75l2.85,0
			l-2.29,3.92c0.46-0.28,2.41-0.77,2.88-0.77c1.98,0,3.58,1.6,3.57,3.58C51.19,56.43,49.62,58.02,47.68,58.05z"/>
	</g>
	<g>
		<path class="st2" d="M19.21,76.1c-0.05,0.26-0.09,0.52-0.09,0.8c0,1.97,1.6,3.57,3.57,3.57c1.97,0,3.57-1.59,3.57-3.57
			c0-0.43-0.08-0.83-0.21-1.21c1.74-0.14,3.11-1.59,3.11-3.36c0-1.87-1.52-3.37-3.38-3.38c-0.5,0-2.26,0.55-2.64,0.77l2.29-3.92
			l-5.57,0l2.29,3.92c-0.46-0.28-2.41-0.77-2.88-0.77c-1.98,0-3.58,1.6-3.57,3.58C15.69,74.48,17.26,76.06,19.21,76.1z"/>
		<path class="st3" d="M19.21,76.1c-0.05,0.26-0.09,0.52-0.09,0.8c0,1.97,1.6,3.57,3.57,3.57c0,0,0.01,0,0.02,0V65.8l-2.85,0
			l2.29,3.92c-0.46-0.28-2.41-0.77-2.88-0.77c-1.98,0-3.58,1.6-3.57,3.58C15.69,74.48,17.26,76.06,19.21,76.1z"/>
	</g>
	<g>
		<path class="st2" d="M19.21,58.05c-0.05,0.26-0.09,0.52-0.09,0.8c0,1.97,1.6,3.57,3.57,3.57c1.97,0,3.57-1.59,3.57-3.57
			c0-0.43-0.08-0.83-0.21-1.21c1.74-0.14,3.11-1.59,3.11-3.36c0-1.87-1.52-3.37-3.38-3.38c-0.5,0-2.26,0.55-2.64,0.77l2.29-3.92
			l-5.57,0l2.29,3.92c-0.46-0.28-2.41-0.77-2.88-0.77c-1.98,0-3.58,1.6-3.57,3.58C15.69,56.43,17.26,58.02,19.21,58.05z"/>
		<path class="st3" d="M19.21,58.05c-0.05,0.26-0.09,0.52-0.09,0.8c0,1.97,1.6,3.57,3.57,3.57c0,0,0.01,0,0.02,0V47.75l-2.85,0
			l2.29,3.92c-0.46-0.28-2.41-0.77-2.88-0.77c-1.98,0-3.58,1.6-3.57,3.58C15.69,56.43,17.26,58.02,19.21,58.05z"/>
	</g>
	<g>
		<path class="st2" d="M9.91,20.72c0.01-0.06,0.02-0.12,0.02-0.18c0-0.45-0.37-0.81-0.82-0.81c-0.45,0-0.81,0.37-0.81,0.81
			c0,0.1,0.02,0.19,0.05,0.28c-0.4,0.03-0.71,0.36-0.71,0.77c0,0.43,0.35,0.77,0.77,0.77c0.11,0,0.52-0.12,0.6-0.18l-0.52,0.89
			l1.27,0l-0.52-0.89c0.1,0.06,0.55,0.17,0.66,0.17c0.45,0,0.81-0.37,0.81-0.82C10.71,21.09,10.36,20.72,9.91,20.72z"/>
		<path class="st3" d="M9.91,20.72c0.01-0.06,0.02-0.12,0.02-0.18c0-0.45-0.37-0.81-0.82-0.81c0,0,0,0,0,0v3.35l0.65,0l-0.52-0.89
			c0.1,0.06,0.55,0.17,0.66,0.17c0.45,0,0.81-0.37,0.81-0.82C10.71,21.09,10.36,20.72,9.91,20.72z"/>
	</g>
	<g>
		<path class="st2" d="M58.62,73.11c0.01,0.06,0.02,0.12,0.02,0.18c0,0.45-0.37,0.81-0.82,0.81c-0.45,0-0.81-0.37-0.82-0.81
			c0-0.1,0.02-0.19,0.05-0.28c-0.4-0.03-0.71-0.36-0.71-0.77c0-0.43,0.35-0.77,0.77-0.77c0.11,0,0.52,0.12,0.6,0.18l-0.52-0.89
			l1.27,0l-0.52,0.89c0.1-0.06,0.55-0.17,0.66-0.17c0.45,0,0.82,0.37,0.82,0.82C59.42,72.74,59.07,73.1,58.62,73.11z"/>
		<path class="st3" d="M58.62,73.11c0.01,0.06,0.02,0.12,0.02,0.18c0,0.45-0.37,0.81-0.82,0.81c0,0,0,0,0,0v-3.35l0.65,0l-0.52,0.89
			c0.1-0.06,0.55-0.17,0.66-0.17c0.45,0,0.82,0.37,0.82,0.82C59.42,72.74,59.07,73.1,58.62,73.11z"/>
	</g>
</g>
</svg>
