<?xml version="1.0" encoding="utf-8"?>
<!-- Generator: Adobe Illustrator 26.0.3, SVG Export Plug-In . SVG Version: 6.00 Build 0)  -->
<svg version="1.1" id="Layer_1" xmlns="http://www.w3.org/2000/svg" xmlns:xlink="http://www.w3.org/1999/xlink" x="0px" y="0px"
	 viewBox="0 0 66 92" style="enable-background:new 0 0 66 92;" xml:space="preserve">
<style type="text/css">
	.st0{fill:#C9C9C9;}
	.st1{fill:#FFFFFF;}
	.st2{fill:#333333;}
	.st3{opacity:0.2;fill:#616161;}
</style>
<g>
	<g>
		<g>
			<g>
				<path class="st0" d="M10,87.32c-3.49,0-6.34-2.78-6.35-6.21L3.47,10.93C3.46,7.47,6.31,4.67,9.81,4.68l46.38,0.08
					c3.49,0.01,6.33,2.82,6.33,6.26v70.03c0,3.42-2.83,6.21-6.31,6.22L10,87.32z"/>
			</g>
			<path class="st1" d="M10.58,87.15c-3.45,0-6.25-2.79-6.25-6.23V10.91c0-3.43,2.81-6.23,6.25-6.23h45.7
				c3.45,0,6.25,2.79,6.25,6.23v70.01c0,3.43-2.8,6.23-6.25,6.23H10.58z"/>
			<g>
				<path class="st2" d="M11.66,10c-0.11,0.2-0.22,0.4-0.32,0.6c-0.22,0.43-0.4,0.8-0.53,1.11c-0.16,0.36-0.31,0.69-0.44,1.01
					c-0.19,0.46-0.29,0.7-0.29,0.71c-0.11,0.22-0.26,0.5-0.45,0.84c-0.24,0.4-0.42,0.7-0.56,0.88c-0.24,0.3-0.47,0.57-0.72,0.8
					c-0.27,0.25-0.57,0.48-0.91,0.68c-0.02-0.01-0.05-0.03-0.07-0.04c-0.02-0.02-0.03-0.05-0.03-0.08c0-0.05,0.14-0.25,0.42-0.6
					c0.18-0.22,0.3-0.39,0.38-0.52c0.11-0.17,0.21-0.37,0.31-0.6c0.1-0.22,0.2-0.45,0.3-0.7c0.27-0.55,0.5-1.07,0.69-1.54
					c0.11-0.29,0.23-0.62,0.34-0.98c0-0.12-0.42-0.18-1.27-0.18c-0.11,0-0.24,0.02-0.37,0.06c-0.13,0.04-0.26,0.11-0.37,0.2H7.54
					v-0.19c0.39-0.56,0.77-0.94,1.13-1.17c0.28-0.17,0.59-0.26,0.91-0.26c0.1,0,0.25,0.01,0.45,0.04c0.2,0.02,0.36,0.04,0.47,0.04
					c0.16-0.01,0.28-0.01,0.37-0.02c0.28-0.03,0.48-0.1,0.61-0.2h0.15L11.66,10z"/>
			</g>
			<g>
				<path class="st2" d="M55.58,82.6c0.11-0.21,0.22-0.4,0.32-0.6c0.22-0.43,0.4-0.8,0.53-1.11c0.16-0.36,0.31-0.69,0.44-1.01
					c0.19-0.46,0.29-0.7,0.29-0.71c0.11-0.22,0.26-0.5,0.45-0.84c0.24-0.4,0.42-0.7,0.56-0.88c0.24-0.3,0.47-0.57,0.72-0.8
					c0.27-0.25,0.57-0.48,0.91-0.68c0.02,0.01,0.05,0.03,0.07,0.04c0.02,0.02,0.03,0.05,0.03,0.08c0,0.05-0.14,0.25-0.42,0.6
					c-0.18,0.22-0.3,0.39-0.38,0.52c-0.11,0.17-0.21,0.37-0.31,0.6c-0.1,0.22-0.2,0.46-0.3,0.7c-0.27,0.55-0.5,1.07-0.69,1.54
					c-0.11,0.29-0.23,0.62-0.34,0.98c0,0.12,0.42,0.18,1.27,0.18c0.11,0,0.24-0.02,0.37-0.06c0.13-0.04,0.26-0.11,0.37-0.2h0.24
					v0.19c-0.39,0.56-0.77,0.94-1.13,1.17c-0.28,0.17-0.59,0.26-0.91,0.26c-0.1,0-0.25-0.01-0.45-0.04
					c-0.21-0.02-0.36-0.04-0.47-0.04c-0.16,0.01-0.28,0.01-0.37,0.02c-0.28,0.03-0.48,0.1-0.61,0.2h-0.15L55.58,82.6z"/>
			</g>
		</g>
	</g>
	<g>
		<path class="st2" d="M47.66,15.73c0.05-0.26,0.09-0.52,0.09-0.8c0-1.97-1.6-3.57-3.57-3.57c-1.97,0-3.57,1.59-3.57,3.57
			c0,0.43,0.08,0.83,0.21,1.21c-1.74,0.14-3.11,1.59-3.11,3.36c0,1.87,1.52,3.37,3.38,3.38c0.5,0,2.26-0.55,2.64-0.77l-2.29,3.92
			l5.57,0l-2.29-3.92c0.46,0.28,2.41,0.77,2.88,0.77c1.98,0,3.58-1.6,3.57-3.58C51.18,17.35,49.61,15.76,47.66,15.73z"/>
		<path class="st3" d="M47.66,15.73c0.05-0.26,0.09-0.52,0.09-0.8c0-1.97-1.6-3.57-3.57-3.57c0,0-0.01,0-0.02,0v14.66l2.85,0
			l-2.29-3.92c0.46,0.28,2.41,0.77,2.88,0.77c1.98,0,3.58-1.6,3.57-3.58C51.18,17.35,49.61,15.76,47.66,15.73z"/>
	</g>
	<g>
		<path class="st2" d="M47.66,43.65c0.05-0.26,0.09-0.52,0.09-0.8c0-1.97-1.6-3.57-3.57-3.57c-1.97,0-3.57,1.59-3.57,3.57
			c0,0.43,0.08,0.83,0.21,1.21c-1.74,0.14-3.11,1.59-3.11,3.36c0,1.87,1.52,3.37,3.38,3.38c0.5,0,2.26-0.55,2.64-0.77l-2.29,3.92
			l5.57,0l-2.29-3.92c0.46,0.28,2.41,0.77,2.88,0.77c1.98,0,3.58-1.6,3.57-3.58C51.18,45.27,49.61,43.68,47.66,43.65z"/>
		<path class="st3" d="M47.66,43.65c0.05-0.26,0.09-0.52,0.09-0.8c0-1.97-1.6-3.57-3.57-3.57c0,0-0.01,0-0.02,0v14.66l2.85,0
			l-2.29-3.92c0.46,0.28,2.41,0.77,2.88,0.77c1.98,0,3.58-1.6,3.57-3.58C51.18,45.27,49.61,43.68,47.66,43.65z"/>
	</g>
	<g>
		<path class="st2" d="M36.35,29.79c0.05-0.26,0.09-0.52,0.09-0.8c0-1.97-1.6-3.57-3.57-3.57c-1.97,0-3.57,1.59-3.57,3.57
			c0,0.43,0.08,0.83,0.21,1.21c-1.74,0.14-3.11,1.59-3.11,3.36c0,1.87,1.52,3.37,3.38,3.38c0.5,0,2.26-0.55,2.64-0.77l-2.29,3.92
			l5.57,0l-2.29-3.92c0.46,0.28,2.41,0.77,2.88,0.77c1.98,0,3.58-1.6,3.57-3.58C39.86,31.41,38.29,29.82,36.35,29.79z"/>
		<path class="st3" d="M36.35,29.79c0.05-0.26,0.09-0.52,0.09-0.8c0-1.97-1.6-3.57-3.57-3.57c0,0-0.01,0-0.02,0v14.66l2.85,0
			l-2.29-3.92c0.46,0.28,2.41,0.77,2.88,0.77c1.98,0,3.58-1.6,3.57-3.58C39.86,31.41,38.29,29.82,36.35,29.79z"/>
	</g>
	<g>
		<path class="st2" d="M19.19,15.73c-0.05-0.26-0.09-0.52-0.09-0.8c0-1.97,1.6-3.57,3.57-3.57c1.97,0,3.57,1.59,3.57,3.57
			c0,0.43-0.08,0.83-0.21,1.21c1.74,0.14,3.11,1.59,3.11,3.36c0,1.87-1.52,3.37-3.38,3.38c-0.5,0-2.26-0.55-2.64-0.77l2.29,3.92
			l-5.57,0l2.29-3.92c-0.46,0.28-2.41,0.77-2.88,0.77c-1.98,0-3.58-1.6-3.57-3.58C15.68,17.35,17.25,15.76,19.19,15.73z"/>
		<path class="st3" d="M19.19,15.73c-0.05-0.26-0.09-0.52-0.09-0.8c0-1.97,1.6-3.57,3.57-3.57c0,0,0.01,0,0.02,0v14.66l-2.85,0
			l2.29-3.92c-0.46,0.28-2.41,0.77-2.88,0.77c-1.98,0-3.58-1.6-3.57-3.58C15.68,17.35,17.25,15.76,19.19,15.73z"/>
	</g>
	<g>
		<path class="st2" d="M19.19,43.65c-0.05-0.26-0.09-0.52-0.09-0.8c0-1.97,1.6-3.57,3.57-3.57c1.97,0,3.57,1.59,3.57,3.57
			c0,0.43-0.08,0.83-0.21,1.21c1.74,0.14,3.11,1.59,3.11,3.36c0,1.87-1.52,3.37-3.38,3.38c-0.5,0-2.26-0.55-2.64-0.77l2.29,3.92
			l-5.57,0l2.29-3.92c-0.46,0.28-2.41,0.77-2.88,0.77c-1.98,0-3.58-1.6-3.57-3.58C15.68,45.27,17.25,43.68,19.19,43.65z"/>
		<path class="st3" d="M19.19,43.65c-0.05-0.26-0.09-0.52-0.09-0.8c0-1.97,1.6-3.57,3.57-3.57c0,0,0.01,0,0.02,0v14.66l-2.85,0
			l2.29-3.92c-0.46,0.28-2.41,0.77-2.88,0.77c-1.98,0-3.58-1.6-3.57-3.58C15.68,45.27,17.25,43.68,19.19,43.65z"/>
	</g>
	<g>
		<path class="st2" d="M47.66,76.1c0.05,0.26,0.09,0.52,0.09,0.8c0,1.97-1.6,3.57-3.57,3.57c-1.97,0-3.57-1.59-3.57-3.57
			c0-0.43,0.08-0.83,0.21-1.21c-1.74-0.14-3.11-1.59-3.11-3.36c0-1.87,1.52-3.37,3.38-3.38c0.5,0,2.26,0.55,2.64,0.77l-2.29-3.92
			l5.57,0l-2.29,3.92c0.46-0.28,2.41-0.77,2.88-0.77c1.98,0,3.58,1.6,3.57,3.58C51.18,74.48,49.61,76.07,47.66,76.1z"/>
		<path class="st3" d="M47.66,76.1c0.05,0.26,0.09,0.52,0.09,0.8c0,1.97-1.6,3.57-3.57,3.57c0,0-0.01,0-0.02,0V65.8l2.85,0
			l-2.29,3.92c0.46-0.28,2.41-0.77,2.88-0.77c1.98,0,3.58,1.6,3.57,3.58C51.18,74.48,49.61,76.07,47.66,76.1z"/>
	</g>
	<g>
		<path class="st2" d="M19.19,76.1c-0.05,0.26-0.09,0.52-0.09,0.8c0,1.97,1.6,3.57,3.57,3.57c1.97,0,3.57-1.59,3.57-3.57
			c0-0.43-0.08-0.83-0.21-1.21c1.74-0.14,3.11-1.59,3.11-3.36c0-1.87-1.52-3.37-3.38-3.38c-0.5,0-2.26,0.55-2.64,0.77l2.29-3.92
			l-5.57,0l2.29,3.92c-0.46-0.28-2.41-0.77-2.88-0.77c-1.98,0-3.58,1.6-3.57,3.58C15.68,74.48,17.25,76.07,19.19,76.1z"/>
		<path class="st3" d="M19.19,76.1c-0.05,0.26-0.09,0.52-0.09,0.8c0,1.97,1.6,3.57,3.57,3.57c0,0,0.01,0,0.02,0V65.8l-2.85,0
			l2.29,3.92c-0.46-0.28-2.41-0.77-2.88-0.77c-1.98,0-3.58,1.6-3.57,3.58C15.68,74.48,17.25,76.07,19.19,76.1z"/>
	</g>
	<g>
		<path class="st2" d="M10.39,20.72c0.01-0.06,0.02-0.12,0.02-0.18c0-0.45-0.37-0.81-0.82-0.81c-0.45,0-0.81,0.37-0.82,0.81
			c0,0.1,0.02,0.19,0.05,0.28c-0.4,0.03-0.71,0.36-0.71,0.77c0,0.43,0.35,0.77,0.77,0.77c0.11,0,0.52-0.12,0.6-0.18l-0.52,0.89
			l1.27,0l-0.52-0.89c0.1,0.06,0.55,0.17,0.66,0.17c0.45,0,0.82-0.37,0.82-0.82C11.19,21.09,10.83,20.72,10.39,20.72z"/>
		<path class="st3" d="M10.39,20.72c0.01-0.06,0.02-0.12,0.02-0.18c0-0.45-0.37-0.81-0.82-0.81c0,0,0,0,0,0v3.35l0.65,0l-0.52-0.89
			c0.1,0.06,0.55,0.17,0.66,0.17c0.45,0,0.82-0.37,0.82-0.82C11.19,21.09,10.83,20.72,10.39,20.72z"/>
	</g>
	<g>
		<path class="st2" d="M59.1,73.11c0.01,0.06,0.02,0.12,0.02,0.18c0,0.45-0.37,0.81-0.82,0.81c-0.45,0-0.81-0.37-0.82-0.81
			c0-0.1,0.02-0.19,0.05-0.28c-0.4-0.03-0.71-0.36-0.71-0.77c0-0.43,0.35-0.77,0.77-0.77c0.11,0,0.52,0.12,0.6,0.18l-0.52-0.89
			l1.27,0l-0.52,0.89c0.1-0.06,0.55-0.17,0.66-0.17c0.45,0,0.82,0.37,0.82,0.82C59.9,72.74,59.54,73.1,59.1,73.11z"/>
		<path class="st3" d="M59.1,73.11c0.01,0.06,0.02,0.12,0.02,0.18c0,0.45-0.37,0.81-0.82,0.81c0,0,0,0,0,0v-3.35l0.65,0l-0.52,0.89
			c0.1-0.06,0.55-0.17,0.66-0.17c0.45,0,0.82,0.37,0.82,0.82C59.9,72.74,59.54,73.1,59.1,73.11z"/>
	</g>
</g>
</svg>
