<?xml version="1.0" encoding="utf-8"?>
<!-- Generator: Adobe Illustrator 26.0.3, SVG Export Plug-In . SVG Version: 6.00 Build 0)  -->
<svg version="1.1" id="Layer_1" xmlns="http://www.w3.org/2000/svg" xmlns:xlink="http://www.w3.org/1999/xlink" x="0px" y="0px"
	 viewBox="0 0 66 92" style="enable-background:new 0 0 66 92;" xml:space="preserve">
<style type="text/css">
	.st0{fill:#C9C9C9;}
	.st1{fill:#FFFFFF;}
	.st2{fill:#333333;}
	.st3{opacity:0.2;fill:#616161;}
</style>
<g>
	<g>
		<g>
			<g>
				<path class="st0" d="M9.05,88.96c-3.63,0-6.59-2.89-6.56-6.46L2.3,9.54c-0.05-3.59,2.91-6.51,6.55-6.5l48.21,0.09
					c3.63,0.01,6.58,2.93,6.62,6.51v72.8c-0.04,3.56-2.98,6.46-6.6,6.46L9.05,88.96z"/>
			</g>
			<path class="st1" d="M9.65,88.78c-3.58,0-6.5-2.9-6.46-6.48V9.52C3.15,5.95,6.07,3.04,9.65,3.04h47.51c3.58,0,6.5,2.9,6.54,6.48
				V82.3c-0.04,3.57-2.96,6.48-6.54,6.48H9.65z"/>
			<g>
				<path class="st2" d="M10.73,11.54c0,0.11-0.04,0.22-0.11,0.33c-0.1,0.11-0.16,0.19-0.18,0.23c-0.31,0.46-0.56,0.78-0.74,0.96
					c-0.16,0.1-0.31,0.2-0.47,0.3c-0.05,0.07-0.08,0.15-0.08,0.24c0.02,0.08,0.03,0.14,0.03,0.18c0,0.17,0.01,0.32,0.04,0.45
					c0.03,0.13,0.06,0.2,0.1,0.2c0.06,0,0.11-0.02,0.17-0.07c0.19-0.16,0.31-0.24,0.36-0.26c0.04,0.09,0.07,0.14,0.07,0.15
					c0,0.09-0.17,0.3-0.52,0.63c-0.41,0.39-0.79,0.58-1.14,0.58c-0.25,0-0.41-0.33-0.48-0.99c-0.07-0.66-0.13-1.03-0.19-1.1H5.39
					c-0.04-0.02-0.07-0.04-0.08-0.05C5.31,13.3,5.3,13.25,5.3,13.17c0-0.12,0.14-0.39,0.43-0.81C6,11.97,6.4,11.44,6.96,10.77
					c0.17-0.21,0.34-0.42,0.52-0.63c0.11-0.13,0.27-0.3,0.46-0.5c0.19-0.2,0.4-0.44,0.63-0.7C8.76,8.7,8.91,8.58,9.03,8.58
					l0.12,0.03v3.32c0.1,0.05,0.18,0.08,0.24,0.08C9.43,12,9.47,12,9.49,12c0.25,0,0.48-0.08,0.69-0.24
					c0.15-0.14,0.3-0.28,0.46-0.41c0.03,0.02,0.05,0.03,0.07,0.05C10.72,11.4,10.73,11.45,10.73,11.54z M7.65,11.88v-0.35v-0.12
					c0-0.12-0.01-0.26-0.03-0.42c-0.13,0.11-0.31,0.31-0.53,0.58c-0.07,0.09-0.16,0.21-0.28,0.38l0.08,0.04h0.63L7.65,11.88z"/>
			</g>
			<g>
				<path class="st2" d="M56.47,81.08c0-0.11,0.04-0.22,0.11-0.33c0.1-0.11,0.16-0.19,0.18-0.23c0.31-0.46,0.56-0.78,0.74-0.96
					c0.16-0.1,0.31-0.2,0.47-0.3c0.05-0.07,0.08-0.15,0.08-0.24c-0.02-0.08-0.03-0.14-0.03-0.18c0-0.17-0.01-0.32-0.04-0.45
					c-0.03-0.13-0.06-0.2-0.1-0.2c-0.06,0-0.11,0.02-0.17,0.07c-0.19,0.16-0.31,0.24-0.36,0.26c-0.04-0.09-0.07-0.14-0.07-0.15
					c0-0.09,0.17-0.3,0.52-0.63c0.41-0.39,0.79-0.58,1.14-0.58c0.25,0,0.41,0.33,0.48,0.99c0.07,0.66,0.13,1.03,0.19,1.1h2.19
					c0.04,0.02,0.07,0.04,0.08,0.05c0.01,0.01,0.01,0.06,0.01,0.15c0,0.12-0.14,0.39-0.43,0.81c-0.26,0.38-0.67,0.91-1.22,1.58
					c-0.17,0.21-0.34,0.42-0.52,0.63c-0.11,0.13-0.27,0.3-0.46,0.5c-0.19,0.2-0.4,0.44-0.63,0.7c-0.19,0.23-0.35,0.35-0.46,0.35
					l-0.12-0.03v-3.32c-0.1-0.05-0.18-0.08-0.24-0.08c-0.05,0.01-0.08,0.01-0.1,0.01c-0.25,0-0.48,0.08-0.69,0.24
					c-0.15,0.14-0.3,0.28-0.46,0.41c-0.03-0.02-0.05-0.03-0.07-0.05C56.48,81.22,56.47,81.17,56.47,81.08z M59.55,80.75v0.35v0.12
					c0,0.12,0.01,0.26,0.03,0.42c0.13-0.11,0.31-0.31,0.53-0.58c0.07-0.09,0.16-0.21,0.28-0.38l-0.08-0.04h-0.63L59.55,80.75z"/>
			</g>
		</g>
	</g>
	<g>
		<path class="st2" d="M48.18,15.82c0.05-0.26,0.09-0.52,0.09-0.8c0-1.97-1.6-3.57-3.57-3.57c-1.97,0-3.57,1.59-3.57,3.57
			c0,0.43,0.08,0.83,0.21,1.21c-1.74,0.14-3.11,1.59-3.11,3.36c0,1.87,1.52,3.37,3.38,3.38c0.5,0,2.26-0.55,2.64-0.77l-2.29,3.92
			l5.57,0l-2.29-3.92c0.46,0.28,2.41,0.77,2.88,0.77c1.98,0,3.58-1.6,3.57-3.58C51.69,17.43,50.12,15.85,48.18,15.82z"/>
		<path class="st3" d="M48.18,15.82c0.05-0.26,0.09-0.52,0.09-0.8c0-1.97-1.6-3.57-3.57-3.57c0,0-0.01,0-0.02,0v14.66l2.85,0
			l-2.29-3.92c0.46,0.28,2.41,0.77,2.88,0.77c1.98,0,3.58-1.6,3.57-3.58C51.69,17.43,50.12,15.85,48.18,15.82z"/>
	</g>
	<g>
		<path class="st2" d="M48.18,76.18c0.05,0.26,0.09,0.52,0.09,0.8c0,1.97-1.6,3.57-3.57,3.57c-1.97,0-3.57-1.59-3.57-3.57
			c0-0.43,0.08-0.83,0.21-1.21c-1.74-0.14-3.11-1.59-3.11-3.36c0-1.87,1.52-3.37,3.38-3.38c0.5,0,2.26,0.55,2.64,0.77l-2.29-3.92
			l5.57,0l-2.29,3.92c0.46-0.28,2.41-0.77,2.88-0.77c1.98,0,3.58,1.6,3.57,3.58C51.69,74.57,50.12,76.15,48.18,76.18z"/>
		<path class="st3" d="M48.18,76.18c0.05,0.26,0.09,0.52,0.09,0.8c0,1.97-1.6,3.57-3.57,3.57c0,0-0.01,0-0.02,0V65.89l2.85,0
			l-2.29,3.92c0.46-0.28,2.41-0.77,2.88-0.77c1.98,0,3.58,1.6,3.57,3.58C51.69,74.57,50.12,76.15,48.18,76.18z"/>
	</g>
	<g>
		<path class="st2" d="M18.74,15.82c-0.05-0.26-0.09-0.52-0.09-0.8c0-1.97,1.6-3.57,3.57-3.57c1.97,0,3.57,1.59,3.57,3.57
			c0,0.43-0.08,0.83-0.21,1.21c1.74,0.14,3.11,1.59,3.11,3.36c0,1.87-1.52,3.37-3.38,3.38c-0.5,0-2.26-0.55-2.64-0.77l2.29,3.92
			l-5.57,0l2.29-3.92c-0.46,0.28-2.41,0.77-2.88,0.77c-1.98,0-3.58-1.6-3.57-3.58C15.22,17.43,16.79,15.85,18.74,15.82z"/>
		<path class="st3" d="M18.74,15.82c-0.05-0.26-0.09-0.52-0.09-0.8c0-1.97,1.6-3.57,3.57-3.57c0,0,0.01,0,0.02,0v14.66l-2.85,0
			l2.29-3.92c-0.46,0.28-2.41,0.77-2.88,0.77c-1.98,0-3.58-1.6-3.57-3.58C15.22,17.43,16.79,15.85,18.74,15.82z"/>
	</g>
	<g>
		<path class="st2" d="M18.74,76.18c-0.05,0.26-0.09,0.52-0.09,0.8c0,1.97,1.6,3.57,3.57,3.57c1.97,0,3.57-1.59,3.57-3.57
			c0-0.43-0.08-0.83-0.21-1.21c1.74-0.14,3.11-1.59,3.11-3.36c0-1.87-1.52-3.37-3.38-3.38c-0.5,0-2.26,0.55-2.64,0.77l2.29-3.92
			l-5.57,0l2.29,3.92c-0.46-0.28-2.41-0.77-2.88-0.77c-1.98,0-3.58,1.6-3.57,3.58C15.22,74.57,16.79,76.15,18.74,76.18z"/>
		<path class="st3" d="M18.74,76.18c-0.05,0.26-0.09,0.52-0.09,0.8c0,1.97,1.6,3.57,3.57,3.57c0,0,0.01,0,0.02,0V65.89l-2.85,0
			l2.29,3.92c-0.46-0.28-2.41-0.77-2.88-0.77c-1.98,0-3.58,1.6-3.57,3.58C15.22,74.57,16.79,76.15,18.74,76.18z"/>
	</g>
	<g>
		<path class="st2" d="M8.8,19.36c0.01-0.06,0.02-0.12,0.02-0.18c0-0.45-0.37-0.81-0.82-0.81s-0.81,0.36-0.82,0.81
			c0,0.1,0.02,0.19,0.05,0.28c-0.4,0.03-0.71,0.36-0.71,0.77c0,0.43,0.35,0.77,0.77,0.77c0.11,0,0.52-0.12,0.6-0.18l-0.52,0.9
			l1.27,0l-0.52-0.89c0.1,0.06,0.55,0.18,0.66,0.18c0.45,0,0.82-0.37,0.82-0.82C9.6,19.73,9.25,19.37,8.8,19.36z"/>
		<path class="st3" d="M8.8,19.36c0.01-0.06,0.02-0.12,0.02-0.18c0-0.45-0.37-0.81-0.82-0.81c0,0,0,0,0,0v3.35l0.65,0l-0.52-0.89
			c0.1,0.06,0.55,0.18,0.66,0.18c0.45,0,0.82-0.37,0.82-0.82C9.6,19.73,9.25,19.37,8.8,19.36z"/>
	</g>
	<g>
		<path class="st2" d="M59.82,73.43c0.01,0.06,0.02,0.12,0.02,0.18c0,0.45-0.37,0.81-0.82,0.81c-0.45,0-0.81-0.36-0.82-0.81
			c0-0.1,0.02-0.19,0.05-0.28c-0.4-0.03-0.71-0.36-0.71-0.77c0-0.43,0.35-0.77,0.77-0.77c0.11,0,0.52,0.12,0.6,0.18l-0.52-0.9
			l1.27,0l-0.52,0.89c0.1-0.06,0.55-0.18,0.66-0.18c0.45,0,0.82,0.37,0.82,0.82C60.62,73.06,60.26,73.42,59.82,73.43z"/>
		<path class="st3" d="M59.82,73.43c0.01,0.06,0.02,0.12,0.02,0.18c0,0.45-0.37,0.81-0.82,0.81c0,0,0,0,0,0v-3.35l0.65,0l-0.52,0.89
			c0.1-0.06,0.55-0.18,0.66-0.18c0.45,0,0.82,0.37,0.82,0.82C60.62,73.06,60.26,73.42,59.82,73.43z"/>
	</g>
</g>
</svg>
