<?xml version="1.0" encoding="utf-8"?>
<!-- Generator: Adobe Illustrator 26.0.3, SVG Export Plug-In . SVG Version: 6.00 Build 0)  -->
<svg version="1.1" id="Layer_1" xmlns="http://www.w3.org/2000/svg" xmlns:xlink="http://www.w3.org/1999/xlink" x="0px" y="0px"
	 viewBox="0 0 66 92" style="enable-background:new 0 0 66 92;" xml:space="preserve">
<style type="text/css">
	.st0{fill:#C9C9C9;}
	.st1{fill:#FFFFFF;}
	.st2{fill:#333333;}
	.st3{opacity:0.2;fill:#616161;}
</style>
<g>
	<g>
		<g>
			<g>
				<path class="st0" d="M9.05,88.96c-3.63,0-6.59-2.89-6.56-6.46L2.31,9.54c-0.05-3.59,2.91-6.51,6.55-6.5l48.21,0.09
					c3.63,0.01,6.58,2.93,6.62,6.51v72.8c-0.04,3.56-2.98,6.46-6.6,6.46L9.05,88.96z"/>
			</g>
			<path class="st1" d="M9.65,88.78c-3.58,0-6.5-2.9-6.46-6.48V9.52C3.15,5.95,6.07,3.04,9.65,3.04h47.51c3.58,0,6.5,2.9,6.54,6.48
				V82.3c-0.04,3.57-2.96,6.48-6.54,6.48H9.65z"/>
			<g>
				<path class="st2" d="M10.79,8.54c-0.13,0.21-0.29,0.42-0.49,0.63c-0.26,0.28-0.5,0.46-0.72,0.54C9.44,9.75,9.2,9.79,8.87,9.81
					c-0.33,0.02-0.49,0.14-0.49,0.35c0,0.18,0.1,0.3,0.3,0.34c0.35,0.08,0.65,0.22,0.9,0.41c0.25,0.19,0.43,0.41,0.55,0.63
					c0.12,0.23,0.17,0.46,0.17,0.69c0,0.34-0.08,0.68-0.24,1.01c-0.08,0.16-0.21,0.36-0.4,0.62c-0.47,0.61-0.89,1.03-1.26,1.25
					c-0.37,0.22-0.85,0.33-1.45,0.33c-0.35,0-0.65-0.05-0.89-0.15c-0.32-0.13-0.48-0.34-0.48-0.61c0-0.18,0.14-0.49,0.43-0.92
					c0.29-0.43,0.51-0.65,0.66-0.65c0.11,0,0.17,0.13,0.17,0.38c0.01,0.25,0.05,0.43,0.11,0.54c0.08,0.09,0.15,0.15,0.21,0.2
					c0.19,0.14,0.38,0.21,0.58,0.21c0.26,0,0.48-0.09,0.68-0.26c0.25-0.22,0.37-0.54,0.37-0.95c0-0.41-0.13-0.76-0.4-1.06
					c-0.26-0.29-0.58-0.46-0.95-0.51c-0.08-0.01-0.13-0.02-0.17-0.02c-0.11-0.02-0.18-0.03-0.19-0.05c-0.03-0.04-0.05-0.1-0.05-0.2
					c0.03-0.25,0.06-0.49,0.08-0.74c0.02-0.25,0.03-0.48,0.03-0.71c0-0.11-0.02-0.17-0.06-0.19C7.07,9.74,6.99,9.73,6.87,9.73V9.51
					c0.09-0.12,0.27-0.29,0.54-0.52c0.33-0.28,0.56-0.42,0.69-0.42h2.02c0.09,0,0.19-0.03,0.32-0.1c0.12-0.07,0.2-0.1,0.23-0.1
					l0.13,0.07V8.54z"/>
			</g>
			<g>
				<path class="st2" d="M56.41,84.09c0.13-0.21,0.29-0.42,0.49-0.63c0.26-0.28,0.5-0.46,0.72-0.54c0.14-0.05,0.38-0.09,0.71-0.11
					c0.33-0.02,0.49-0.14,0.49-0.35c0-0.18-0.1-0.3-0.3-0.34c-0.35-0.08-0.65-0.22-0.9-0.41c-0.25-0.19-0.43-0.41-0.55-0.63
					c-0.12-0.23-0.17-0.46-0.17-0.69c0-0.34,0.08-0.68,0.24-1.01c0.08-0.16,0.21-0.36,0.4-0.62c0.47-0.61,0.89-1.03,1.26-1.25
					c0.37-0.22,0.85-0.33,1.45-0.33c0.35,0,0.65,0.05,0.89,0.15c0.32,0.13,0.48,0.34,0.48,0.61c0,0.18-0.14,0.49-0.43,0.92
					c-0.29,0.43-0.51,0.65-0.66,0.65c-0.11,0-0.17-0.13-0.17-0.38c-0.01-0.25-0.05-0.43-0.11-0.54c-0.08-0.09-0.15-0.15-0.21-0.2
					c-0.19-0.14-0.38-0.21-0.58-0.21c-0.26,0-0.48,0.09-0.68,0.26c-0.25,0.22-0.37,0.54-0.37,0.95c0,0.41,0.13,0.76,0.4,1.06
					c0.26,0.29,0.58,0.46,0.95,0.51c0.08,0.01,0.13,0.02,0.17,0.02c0.11,0.02,0.18,0.03,0.19,0.05c0.03,0.04,0.05,0.1,0.05,0.2
					c-0.03,0.25-0.06,0.49-0.08,0.74c-0.02,0.25-0.03,0.48-0.03,0.71c0,0.11,0.02,0.17,0.06,0.19c0.04,0.02,0.12,0.03,0.24,0.03
					v0.23c-0.09,0.12-0.27,0.29-0.54,0.52c-0.33,0.28-0.56,0.42-0.69,0.42h-2.02c-0.09,0-0.19,0.03-0.32,0.1
					c-0.12,0.07-0.2,0.1-0.23,0.1l-0.13-0.07V84.09z"/>
			</g>
		</g>
	</g>
	<g>
		<path class="st2" d="M48.14,15.82c0.05-0.26,0.09-0.52,0.09-0.8c0-1.97-1.6-3.57-3.57-3.57c-1.97,0-3.57,1.59-3.57,3.57
			c0,0.43,0.08,0.83,0.21,1.21c-1.74,0.14-3.11,1.59-3.11,3.36c0,1.87,1.52,3.37,3.38,3.38c0.5,0,2.26-0.55,2.64-0.77l-2.29,3.92
			l5.57,0l-2.29-3.92c0.46,0.28,2.41,0.77,2.88,0.77c1.98,0,3.58-1.6,3.57-3.58C51.66,17.43,50.09,15.85,48.14,15.82z"/>
		<path class="st3" d="M48.14,15.82c0.05-0.26,0.09-0.52,0.09-0.8c0-1.97-1.6-3.57-3.57-3.57c0,0-0.01,0-0.02,0v14.66l2.85,0
			l-2.29-3.92c0.46,0.28,2.41,0.77,2.88,0.77c1.98,0,3.58-1.6,3.57-3.58C51.66,17.43,50.09,15.85,48.14,15.82z"/>
	</g>
	<g>
		<path class="st2" d="M19.67,15.82c-0.05-0.26-0.09-0.52-0.09-0.8c0-1.97,1.6-3.57,3.57-3.57c1.97,0,3.57,1.59,3.57,3.57
			c0,0.43-0.08,0.83-0.21,1.21c1.74,0.14,3.11,1.59,3.11,3.36c0,1.87-1.52,3.37-3.38,3.38c-0.5,0-2.26-0.55-2.64-0.77l2.29,3.92
			l-5.57,0l2.29-3.92c-0.46,0.28-2.41,0.77-2.88,0.77c-1.98,0-3.58-1.6-3.57-3.58C16.16,17.43,17.73,15.85,19.67,15.82z"/>
		<path class="st3" d="M19.67,15.82c-0.05-0.26-0.09-0.52-0.09-0.8c0-1.97,1.6-3.57,3.57-3.57c0,0,0.01,0,0.02,0v14.66l-2.85,0
			l2.29-3.92c-0.46,0.28-2.41,0.77-2.88,0.77c-1.98,0-3.58-1.6-3.57-3.58C16.16,17.43,17.73,15.85,19.67,15.82z"/>
	</g>
	<g>
		<path class="st2" d="M30.09,42.5C30.04,42.24,30,41.98,30,41.7c0-1.97,1.6-3.57,3.57-3.57c1.97,0,3.57,1.59,3.57,3.57
			c0,0.43-0.08,0.83-0.21,1.21c1.74,0.14,3.11,1.59,3.11,3.36c0,1.87-1.52,3.37-3.38,3.38c-0.5,0-2.26-0.55-2.64-0.77l2.29,3.92
			l-5.57,0l2.29-3.92c-0.46,0.28-2.41,0.77-2.88,0.77c-1.98,0-3.58-1.6-3.57-3.58C26.58,44.12,28.15,42.53,30.09,42.5z"/>
		<path class="st3" d="M30.09,42.5C30.04,42.24,30,41.98,30,41.7c0-1.97,1.6-3.57,3.57-3.57c0,0,0.01,0,0.02,0V52.8l-2.85,0
			l2.29-3.92c-0.46,0.28-2.41,0.77-2.88,0.77c-1.98,0-3.58-1.6-3.57-3.58C26.58,44.12,28.15,42.53,30.09,42.5z"/>
	</g>
	<g>
		<path class="st2" d="M48.14,76.18c0.05,0.26,0.09,0.52,0.09,0.8c0,1.97-1.6,3.57-3.57,3.57c-1.97,0-3.57-1.59-3.57-3.57
			c0-0.43,0.08-0.83,0.21-1.21c-1.74-0.14-3.11-1.59-3.11-3.36c0-1.87,1.52-3.37,3.38-3.38c0.5,0,2.26,0.55,2.64,0.77l-2.29-3.92
			l5.57,0l-2.29,3.92c0.46-0.28,2.41-0.77,2.88-0.77c1.98,0,3.58,1.6,3.57,3.58C51.66,74.57,50.09,76.15,48.14,76.18z"/>
		<path class="st3" d="M48.14,76.18c0.05,0.26,0.09,0.52,0.09,0.8c0,1.97-1.6,3.57-3.57,3.57c0,0-0.01,0-0.02,0V65.89l2.85,0
			l-2.29,3.92c0.46-0.28,2.41-0.77,2.88-0.77c1.98,0,3.58,1.6,3.57,3.58C51.66,74.57,50.09,76.15,48.14,76.18z"/>
	</g>
	<g>
		<path class="st2" d="M19.67,76.18c-0.05,0.26-0.09,0.52-0.09,0.8c0,1.97,1.6,3.57,3.57,3.57c1.97,0,3.57-1.59,3.57-3.57
			c0-0.43-0.08-0.83-0.21-1.21c1.74-0.14,3.11-1.59,3.11-3.36c0-1.87-1.52-3.37-3.38-3.38c-0.5,0-2.26,0.55-2.64,0.77l2.29-3.92
			l-5.57,0l2.29,3.92c-0.46-0.28-2.41-0.77-2.88-0.77c-1.98,0-3.58,1.6-3.57,3.58C16.16,74.57,17.73,76.15,19.67,76.18z"/>
		<path class="st3" d="M19.67,76.18c-0.05,0.26-0.09,0.52-0.09,0.8c0,1.97,1.6,3.57,3.57,3.57c0,0,0.01,0,0.02,0V65.89l-2.85,0
			l2.29,3.92c-0.46-0.28-2.41-0.77-2.88-0.77c-1.98,0-3.58,1.6-3.57,3.58C16.16,74.57,17.73,76.15,19.67,76.18z"/>
	</g>
	<g>
		<path class="st2" d="M8.82,19.36c0.01-0.06,0.02-0.12,0.02-0.18c0-0.45-0.37-0.81-0.82-0.81c-0.45,0-0.81,0.36-0.82,0.81
			c0,0.1,0.02,0.19,0.05,0.28c-0.4,0.03-0.71,0.36-0.71,0.77c0,0.43,0.35,0.77,0.77,0.77c0.11,0,0.52-0.12,0.6-0.18l-0.52,0.9
			l1.27,0l-0.52-0.89c0.1,0.06,0.55,0.18,0.66,0.18c0.45,0,0.82-0.37,0.82-0.82C9.62,19.73,9.26,19.37,8.82,19.36z"/>
		<path class="st3" d="M8.82,19.36c0.01-0.06,0.02-0.12,0.02-0.18c0-0.45-0.37-0.81-0.82-0.81c0,0,0,0,0,0v3.35l0.65,0l-0.52-0.89
			c0.1,0.06,0.55,0.18,0.66,0.18c0.45,0,0.82-0.37,0.82-0.82C9.62,19.73,9.26,19.37,8.82,19.36z"/>
	</g>
	<g>
		<path class="st2" d="M59.83,73.43c0.01,0.06,0.02,0.12,0.02,0.18c0,0.45-0.37,0.81-0.82,0.81c-0.45,0-0.81-0.36-0.82-0.81
			c0-0.1,0.02-0.19,0.05-0.28c-0.4-0.03-0.71-0.36-0.71-0.77c0-0.43,0.35-0.77,0.77-0.77c0.11,0,0.52,0.12,0.6,0.18l-0.52-0.9
			l1.27,0l-0.52,0.89c0.1-0.06,0.55-0.18,0.66-0.18c0.45,0,0.82,0.37,0.82,0.82C60.64,73.06,60.28,73.42,59.83,73.43z"/>
		<path class="st3" d="M59.83,73.43c0.01,0.06,0.02,0.12,0.02,0.18c0,0.45-0.37,0.81-0.82,0.81c0,0,0,0,0,0v-3.35l0.65,0l-0.52,0.89
			c0.1-0.06,0.55-0.18,0.66-0.18c0.45,0,0.82,0.37,0.82,0.82C60.64,73.06,60.28,73.42,59.83,73.43z"/>
	</g>
</g>
</svg>
