<?xml version="1.0" encoding="utf-8"?>
<!-- Generator: Adobe Illustrator 26.0.3, SVG Export Plug-In . SVG Version: 6.00 Build 0)  -->
<svg version="1.1" id="Layer_1" xmlns="http://www.w3.org/2000/svg" xmlns:xlink="http://www.w3.org/1999/xlink" x="0px" y="0px"
	 viewBox="0 0 66 92" style="enable-background:new 0 0 66 92;" xml:space="preserve">
<style type="text/css">
	.st0{fill:#C9C9C9;}
	.st1{fill:#FFFFFF;}
	.st2{fill:#333333;}
	.st3{opacity:0.2;fill:#616161;}
</style>
<g>
	<g>
		<g>
			<g>
				<path class="st0" d="M9.05,88.96c-3.63,0.01-6.59-2.89-6.56-6.46L2.3,9.54c-0.05-3.59,2.91-6.51,6.55-6.5l48.21,0.09
					c3.63,0.01,6.58,2.93,6.62,6.51v72.8c-0.04,3.56-2.98,6.46-6.6,6.46L9.05,88.96z"/>
			</g>
			<path class="st1" d="M9.65,88.78c-3.58,0-6.5-2.91-6.46-6.48V9.52C3.15,5.95,6.07,3.05,9.65,3.05h47.51c3.58,0,6.5,2.9,6.54,6.48
				V82.3c-0.04,3.57-2.96,6.48-6.54,6.48H9.65z"/>
			<g>
				<path class="st2" d="M53.58,80.5c0-0.25,0.06-0.51,0.19-0.78c0.19-0.4,0.52-0.84,0.99-1.31c0.4-0.39,0.71-0.67,0.94-0.83
					c0.37-0.25,0.75-0.38,1.15-0.38c0.33,0,0.63,0.07,0.89,0.22c0.3,0.17,0.45,0.39,0.45,0.68c0,0.2-0.19,0.53-0.57,1.01
					c-0.38,0.48-0.65,0.72-0.81,0.72c-0.14,0-0.21-0.05-0.21-0.15s0.11-0.29,0.33-0.56c0.1-0.12,0.15-0.22,0.15-0.29
					c-0.06-0.11-0.12-0.2-0.18-0.25c-0.19-0.17-0.45-0.25-0.77-0.25c-0.28,0-0.54,0.09-0.76,0.26c-0.28,0.21-0.41,0.5-0.41,0.86
					c0,0.26,0.07,0.5,0.22,0.71c0.11,0.16,0.26,0.29,0.43,0.38c0.23,0.11,0.47,0.17,0.73,0.18c0.25,0.01,0.38,0.06,0.38,0.17
					c0,0.05-0.16,0.27-0.47,0.66c-0.25,0.3-0.48,0.63-0.71,0.99c0.07,0.07,0.13,0.1,0.17,0.1h1.44c0.06,0,0.19-0.08,0.38-0.23
					c0.19-0.15,0.32-0.23,0.39-0.23c0.13,0,0.19,0.05,0.19,0.14c0,0.05-0.07,0.16-0.22,0.33c-0.15,0.17-0.36,0.39-0.64,0.67
					c-0.31,0.31-0.51,0.5-0.59,0.56c-0.16,0.13-0.29,0.19-0.39,0.19h-2.4c-0.02-0.02-0.03-0.03-0.04-0.05
					c-0.01-0.01-0.01-0.05-0.01-0.11c0-0.18,0.22-0.49,0.65-0.91c0.43-0.43,0.65-0.72,0.65-0.88c0-0.04-0.17-0.12-0.52-0.25
					c-0.23-0.09-0.43-0.2-0.59-0.35c-0.12-0.12-0.23-0.26-0.3-0.43C53.62,80.91,53.58,80.71,53.58,80.5z"/>
			</g>
			<g>
				<path class="st2" d="M14.35,12.12c0,0.25-0.06,0.51-0.19,0.78c-0.19,0.4-0.52,0.84-0.99,1.31c-0.4,0.4-0.71,0.67-0.94,0.83
					c-0.37,0.25-0.75,0.38-1.15,0.38c-0.33,0-0.63-0.07-0.89-0.22c-0.3-0.17-0.45-0.4-0.45-0.68c0-0.19,0.19-0.53,0.57-1.01
					c0.38-0.48,0.65-0.72,0.81-0.72c0.14,0,0.21,0.05,0.21,0.15c0,0.1-0.11,0.29-0.33,0.56c-0.1,0.13-0.15,0.22-0.15,0.29
					c0.06,0.11,0.12,0.2,0.18,0.25c0.19,0.17,0.45,0.25,0.77,0.25c0.28,0,0.54-0.09,0.76-0.26c0.28-0.21,0.41-0.5,0.41-0.86
					c0-0.26-0.07-0.5-0.22-0.71c-0.11-0.16-0.26-0.29-0.43-0.38c-0.23-0.11-0.48-0.17-0.73-0.18c-0.25-0.01-0.38-0.06-0.38-0.17
					c0-0.05,0.16-0.27,0.47-0.66c0.24-0.3,0.48-0.63,0.71-0.99c-0.07-0.07-0.13-0.1-0.17-0.1h-1.44c-0.06,0-0.19,0.08-0.38,0.23
					c-0.19,0.15-0.32,0.23-0.39,0.23c-0.13,0-0.19-0.05-0.19-0.14c0-0.05,0.07-0.16,0.22-0.33c0.15-0.17,0.36-0.39,0.64-0.67
					C11,9,11.2,8.82,11.28,8.75c0.16-0.12,0.29-0.19,0.39-0.19h2.4c0.02,0.02,0.03,0.03,0.04,0.05c0.01,0.01,0.01,0.05,0.01,0.11
					c0,0.18-0.22,0.49-0.65,0.91c-0.43,0.43-0.65,0.72-0.65,0.88c0,0.04,0.17,0.12,0.52,0.24c0.23,0.09,0.43,0.2,0.59,0.35
					c0.13,0.12,0.23,0.26,0.3,0.43C14.31,11.72,14.35,11.91,14.35,12.12z"/>
			</g>
		</g>
	</g>
	<g>
		<path class="st2" d="M29.66,14.99c-0.05-0.26-0.09-0.52-0.09-0.8c0-1.97,1.6-3.57,3.57-3.57c1.97,0,3.57,1.59,3.57,3.57
			c0,0.43-0.08,0.83-0.21,1.21c1.74,0.14,3.11,1.59,3.11,3.36c0,1.87-1.52,3.37-3.38,3.38c-0.5,0-2.26-0.55-2.64-0.77l2.29,3.92
			l-5.57,0l2.29-3.92c-0.46,0.28-2.41,0.77-2.88,0.77c-1.98,0-3.58-1.6-3.57-3.58C26.15,16.61,27.72,15.03,29.66,14.99z"/>
		<path class="st3" d="M29.66,14.99c-0.05-0.26-0.09-0.52-0.09-0.8c0-1.97,1.6-3.57,3.57-3.57c0,0,0.01,0,0.02,0v14.66l-2.85,0
			l2.29-3.92c-0.46,0.28-2.41,0.77-2.88,0.77c-1.98,0-3.58-1.6-3.57-3.58C26.15,16.61,27.72,15.03,29.66,14.99z"/>
	</g>
	<g>
		<path class="st2" d="M29.66,43.03c-0.05-0.26-0.09-0.52-0.09-0.8c0-1.97,1.6-3.57,3.57-3.57c1.97,0,3.57,1.59,3.57,3.57
			c0,0.43-0.08,0.83-0.21,1.21c1.74,0.14,3.11,1.59,3.11,3.36c0,1.87-1.52,3.37-3.38,3.38c-0.5,0-2.26-0.55-2.64-0.77l2.29,3.92
			l-5.57,0l2.29-3.92c-0.46,0.28-2.41,0.77-2.88,0.77c-1.98,0-3.58-1.6-3.57-3.58C26.15,44.65,27.72,43.06,29.66,43.03z"/>
		<path class="st3" d="M29.66,43.03c-0.05-0.26-0.09-0.52-0.09-0.8c0-1.97,1.6-3.57,3.57-3.57c0,0,0.01,0,0.02,0v14.66l-2.85,0
			l2.29-3.92c-0.46,0.28-2.41,0.77-2.88,0.77c-1.98,0-3.58-1.6-3.57-3.58C26.15,44.65,27.72,43.06,29.66,43.03z"/>
	</g>
	<g>
		<path class="st2" d="M30.22,76.18c-0.05,0.26-0.09,0.52-0.09,0.8c0,1.97,1.6,3.57,3.57,3.57c1.97,0,3.57-1.59,3.57-3.57
			c0-0.43-0.08-0.83-0.21-1.21c1.74-0.14,3.11-1.59,3.11-3.36c0-1.87-1.52-3.37-3.38-3.38c-0.5,0-2.26,0.55-2.64,0.77l2.29-3.92
			l-5.57,0l2.29,3.92c-0.46-0.28-2.41-0.77-2.88-0.77c-1.98,0-3.58,1.6-3.57,3.58C26.71,74.57,28.28,76.15,30.22,76.18z"/>
		<path class="st3" d="M30.22,76.18c-0.05,0.26-0.09,0.52-0.09,0.8c0,1.97,1.6,3.57,3.57,3.57c0,0,0.01,0,0.02,0V65.89l-2.85,0
			l2.29,3.92c-0.46-0.28-2.41-0.77-2.88-0.77c-1.98,0-3.58,1.6-3.57,3.58C26.71,74.57,28.28,76.15,30.22,76.18z"/>
	</g>
	<g>
		<path class="st2" d="M12.34,19.36c0.01-0.06,0.02-0.12,0.02-0.18c0-0.45-0.37-0.81-0.81-0.81c-0.45,0-0.82,0.36-0.82,0.81
			c0,0.1,0.02,0.19,0.05,0.28c-0.4,0.03-0.71,0.36-0.71,0.77c0,0.43,0.35,0.77,0.77,0.77c0.11,0,0.52-0.12,0.6-0.18l-0.52,0.9
			l1.27,0l-0.52-0.89c0.1,0.06,0.55,0.18,0.66,0.18c0.45,0,0.82-0.37,0.82-0.82C13.14,19.73,12.78,19.37,12.34,19.36z"/>
		<path class="st3" d="M12.34,19.36c0.01-0.06,0.02-0.12,0.02-0.18c0-0.45-0.37-0.81-0.81-0.81c0,0,0,0,0,0v3.35l0.65,0l-0.52-0.89
			c0.1,0.06,0.55,0.18,0.66,0.18c0.45,0,0.82-0.37,0.82-0.82C13.14,19.73,12.78,19.37,12.34,19.36z"/>
	</g>
	<g>
		<path class="st2" d="M56.58,73.43c0.01,0.06,0.02,0.12,0.02,0.18c0,0.45-0.37,0.81-0.82,0.81c-0.45,0-0.81-0.36-0.82-0.81
			c0-0.1,0.02-0.19,0.05-0.28c-0.4-0.03-0.71-0.36-0.71-0.77c0-0.43,0.35-0.77,0.77-0.77c0.11,0,0.52,0.12,0.6,0.18l-0.52-0.9
			l1.27,0l-0.52,0.89c0.1-0.06,0.55-0.18,0.66-0.18c0.45,0,0.82,0.37,0.82,0.82C57.39,73.06,57.03,73.42,56.58,73.43z"/>
		<path class="st3" d="M56.58,73.43c0.01,0.06,0.02,0.12,0.02,0.18c0,0.45-0.37,0.81-0.82,0.81c0,0,0,0,0,0v-3.35l0.65,0l-0.52,0.89
			c0.1-0.06,0.55-0.18,0.66-0.18c0.45,0,0.82,0.37,0.82,0.82C57.39,73.06,57.03,73.42,56.58,73.43z"/>
	</g>
</g>
</svg>
