<?xml version="1.0" encoding="utf-8"?>
<!-- Generator: Adobe Illustrator 26.0.3, SVG Export Plug-In . SVG Version: 6.00 Build 0)  -->
<svg version="1.1" id="Layer_1" xmlns="http://www.w3.org/2000/svg" xmlns:xlink="http://www.w3.org/1999/xlink" x="0px" y="0px"
	 viewBox="0 0 66 92" style="enable-background:new 0 0 66 92;" xml:space="preserve">
<style type="text/css">
	.st0{fill:#C9C9C9;}
	.st1{fill:#FFFFFF;}
	.st2{fill:#333333;}
	.st3{opacity:0.2;fill:#616161;}
</style>
<g>
	<g>
		<g>
			<g>
				<path class="st0" d="M10,87.32c-3.49,0.01-6.34-2.78-6.35-6.21L3.47,10.93C3.46,7.48,6.31,4.67,9.81,4.68l46.38,0.09
					c3.49,0.01,6.33,2.82,6.33,6.26v70.03c0,3.42-2.83,6.21-6.31,6.21L10,87.32z"/>
			</g>
			<path class="st1" d="M10.58,87.15c-3.45,0-6.25-2.79-6.25-6.23V10.91c0-3.43,2.8-6.23,6.25-6.23h45.7c3.45,0,6.25,2.79,6.25,6.23
				v70.01c0,3.44-2.8,6.23-6.25,6.23H10.58z"/>
			<g>
				<path class="st2" d="M11.62,14.21c0,0.3-0.15,0.69-0.46,1.18c-0.3,0.48-0.61,0.79-0.9,0.93c-0.24,0.11-0.41,0.18-0.53,0.22
					c-0.12,0.04-0.21,0.06-0.29,0.06c-0.1,0-0.18,0-0.26,0c-0.63,0-1.11-0.22-1.46-0.66c-0.3-0.39-0.45-0.86-0.45-1.42
					c0-0.38,0.07-0.81,0.22-1.29c0.15-0.49,0.33-0.9,0.56-1.24c0.32-0.48,0.53-0.78,0.62-0.89c0.05-0.06,0.29-0.27,0.72-0.63
					c0.31-0.27,0.54-0.44,0.68-0.52c0.1-0.05,0.18-0.08,0.26-0.08c0.11,0,0.16,0.06,0.16,0.17c0,0.03-0.15,0.19-0.46,0.48
					c-0.23,0.22-0.46,0.48-0.68,0.78c-0.09,0.11-0.2,0.31-0.34,0.62c-0.17,0.35-0.25,0.58-0.25,0.69c0,0.02,0.01,0.04,0.03,0.06
					c0.02,0.02,0.04,0.03,0.07,0.03c0.16-0.08,0.32-0.17,0.5-0.25c0.35-0.17,0.6-0.25,0.76-0.25c0.3,0,0.62,0.19,0.94,0.56
					C11.43,13.17,11.62,13.66,11.62,14.21z M10.31,15.19c0-0.39-0.14-0.78-0.41-1.15c-0.27-0.38-0.55-0.57-0.84-0.57
					c-0.11,0-0.21,0.02-0.3,0.07c-0.09,0.05-0.14,0.12-0.14,0.22c0,0.37,0.15,0.75,0.46,1.13c0.33,0.42,0.68,0.62,1.06,0.62
					c0.05,0,0.1-0.02,0.12-0.06C10.3,15.41,10.31,15.32,10.31,15.19z"/>
			</g>
			<g>
				<path class="st2" d="M55.63,78.39c0-0.3,0.15-0.69,0.46-1.18c0.3-0.48,0.6-0.79,0.9-0.93c0.24-0.11,0.41-0.18,0.53-0.22
					C57.63,76.02,57.73,76,57.8,76c0.1,0,0.18,0,0.26,0c0.63,0,1.11,0.22,1.46,0.66c0.3,0.39,0.45,0.86,0.45,1.42
					c0,0.38-0.07,0.81-0.22,1.29c-0.15,0.49-0.33,0.9-0.56,1.24c-0.32,0.48-0.53,0.78-0.62,0.89c-0.05,0.06-0.29,0.27-0.72,0.63
					c-0.31,0.27-0.54,0.44-0.68,0.52c-0.1,0.05-0.18,0.08-0.26,0.08c-0.11,0-0.16-0.06-0.16-0.17c0-0.03,0.15-0.19,0.46-0.48
					c0.23-0.22,0.46-0.48,0.68-0.78c0.09-0.11,0.2-0.31,0.34-0.62c0.17-0.35,0.25-0.58,0.25-0.69c0-0.02-0.01-0.04-0.03-0.06
					c-0.02-0.02-0.04-0.03-0.07-0.03c-0.16,0.08-0.32,0.17-0.5,0.25c-0.35,0.17-0.6,0.25-0.76,0.25c-0.3,0-0.62-0.19-0.94-0.56
					C55.81,79.43,55.63,78.94,55.63,78.39z M56.93,77.42c0,0.39,0.14,0.78,0.41,1.15c0.27,0.38,0.55,0.57,0.84,0.57
					c0.11,0,0.21-0.02,0.3-0.07c0.09-0.05,0.14-0.12,0.14-0.22c0-0.37-0.15-0.75-0.46-1.13c-0.33-0.42-0.69-0.62-1.06-0.62
					c-0.05,0-0.1,0.02-0.12,0.06C56.94,77.2,56.93,77.28,56.93,77.42z"/>
			</g>
		</g>
	</g>
	<g>
		<path class="st2" d="M47.23,15.73c0.05-0.26,0.09-0.52,0.09-0.8c0-1.97-1.6-3.57-3.57-3.57c-1.97,0-3.57,1.59-3.57,3.57
			c0,0.43,0.08,0.83,0.21,1.21c-1.74,0.14-3.11,1.59-3.11,3.36c0,1.87,1.52,3.37,3.38,3.38c0.5,0,2.26-0.55,2.64-0.77L41,26.03
			l5.57,0l-2.29-3.92c0.46,0.28,2.41,0.77,2.88,0.77c1.98,0,3.58-1.6,3.57-3.58C50.75,17.35,49.17,15.76,47.23,15.73z"/>
		<path class="st3" d="M47.23,15.73c0.05-0.26,0.09-0.52,0.09-0.8c0-1.97-1.6-3.57-3.57-3.57c0,0-0.01,0-0.02,0v14.66l2.85,0
			l-2.29-3.92c0.46,0.28,2.41,0.77,2.88,0.77c1.98,0,3.58-1.6,3.57-3.58C50.75,17.35,49.17,15.76,47.23,15.73z"/>
	</g>
	<g>
		<path class="st2" d="M47.23,43.65c0.05-0.26,0.09-0.52,0.09-0.8c0-1.97-1.6-3.57-3.57-3.57c-1.97,0-3.57,1.59-3.57,3.57
			c0,0.43,0.08,0.83,0.21,1.21c-1.74,0.14-3.11,1.59-3.11,3.36c0,1.87,1.52,3.37,3.38,3.38c0.5,0,2.26-0.55,2.64-0.77L41,53.95
			l5.57,0l-2.29-3.92c0.46,0.28,2.41,0.77,2.88,0.77c1.98,0,3.58-1.6,3.57-3.58C50.75,45.27,49.17,43.68,47.23,43.65z"/>
		<path class="st3" d="M47.23,43.65c0.05-0.26,0.09-0.52,0.09-0.8c0-1.97-1.6-3.57-3.57-3.57c0,0-0.01,0-0.02,0v14.66l2.85,0
			l-2.29-3.92c0.46,0.28,2.41,0.77,2.88,0.77c1.98,0,3.58-1.6,3.57-3.58C50.75,45.27,49.17,43.68,47.23,43.65z"/>
	</g>
	<g>
		<path class="st2" d="M18.76,15.73c-0.05-0.26-0.09-0.52-0.09-0.8c0-1.97,1.6-3.57,3.57-3.57c1.97,0,3.57,1.59,3.57,3.57
			c0,0.43-0.08,0.83-0.21,1.21c1.74,0.14,3.11,1.59,3.11,3.36c0,1.87-1.52,3.37-3.38,3.38c-0.5,0-2.26-0.55-2.64-0.77l2.29,3.92
			l-5.57,0l2.29-3.92c-0.46,0.28-2.41,0.77-2.88,0.77c-1.98,0-3.58-1.6-3.57-3.58C15.24,17.35,16.81,15.76,18.76,15.73z"/>
		<path class="st3" d="M18.76,15.73c-0.05-0.26-0.09-0.52-0.09-0.8c0-1.97,1.6-3.57,3.57-3.57c0,0,0.01,0,0.02,0v14.66l-2.85,0
			l2.29-3.92c-0.46,0.28-2.41,0.77-2.88,0.77c-1.98,0-3.58-1.6-3.57-3.58C15.24,17.35,16.81,15.76,18.76,15.73z"/>
	</g>
	<g>
		<path class="st2" d="M18.76,43.65c-0.05-0.26-0.09-0.52-0.09-0.8c0-1.97,1.6-3.57,3.57-3.57c1.97,0,3.57,1.59,3.57,3.57
			c0,0.43-0.08,0.83-0.21,1.21c1.74,0.14,3.11,1.59,3.11,3.36c0,1.87-1.52,3.37-3.38,3.38c-0.5,0-2.26-0.55-2.64-0.77l2.29,3.92
			l-5.57,0l2.29-3.92c-0.46,0.28-2.41,0.77-2.88,0.77c-1.98,0-3.58-1.6-3.57-3.58C15.24,45.27,16.81,43.68,18.76,43.65z"/>
		<path class="st3" d="M18.76,43.65c-0.05-0.26-0.09-0.52-0.09-0.8c0-1.97,1.6-3.57,3.57-3.57c0,0,0.01,0,0.02,0v14.66l-2.85,0
			l2.29-3.92c-0.46,0.28-2.41,0.77-2.88,0.77c-1.98,0-3.58-1.6-3.57-3.58C15.24,45.27,16.81,43.68,18.76,43.65z"/>
	</g>
	<g>
		<path class="st2" d="M47.23,76.1c0.05,0.26,0.09,0.52,0.09,0.8c0,1.97-1.6,3.57-3.57,3.57c-1.97,0-3.57-1.59-3.57-3.57
			c0-0.43,0.08-0.83,0.21-1.21c-1.74-0.14-3.11-1.59-3.11-3.36c0-1.87,1.52-3.37,3.38-3.38c0.5,0,2.26,0.55,2.64,0.77L41,65.8
			l5.57,0l-2.29,3.92c0.46-0.28,2.41-0.77,2.88-0.77c1.98,0,3.58,1.6,3.57,3.58C50.75,74.48,49.17,76.06,47.23,76.1z"/>
		<path class="st3" d="M47.23,76.1c0.05,0.26,0.09,0.52,0.09,0.8c0,1.97-1.6,3.57-3.57,3.57c0,0-0.01,0-0.02,0V65.8l2.85,0
			l-2.29,3.92c0.46-0.28,2.41-0.77,2.88-0.77c1.98,0,3.58,1.6,3.57,3.58C50.75,74.48,49.17,76.06,47.23,76.1z"/>
	</g>
	<g>
		<path class="st2" d="M18.76,76.1c-0.05,0.26-0.09,0.52-0.09,0.8c0,1.97,1.6,3.57,3.57,3.57c1.97,0,3.57-1.59,3.57-3.57
			c0-0.43-0.08-0.83-0.21-1.21c1.74-0.14,3.11-1.59,3.11-3.36c0-1.87-1.52-3.37-3.38-3.38c-0.5,0-2.26,0.55-2.64,0.77l2.29-3.92
			l-5.57,0l2.29,3.92c-0.46-0.28-2.41-0.77-2.88-0.77c-1.98,0-3.58,1.6-3.57,3.58C15.24,74.48,16.81,76.06,18.76,76.1z"/>
		<path class="st3" d="M18.76,76.1c-0.05,0.26-0.09,0.52-0.09,0.8c0,1.97,1.6,3.57,3.57,3.57c0,0,0.01,0,0.02,0V65.8l-2.85,0
			l2.29,3.92c-0.46-0.28-2.41-0.77-2.88-0.77c-1.98,0-3.58,1.6-3.57,3.58C15.24,74.48,16.81,76.06,18.76,76.1z"/>
	</g>
	<g>
		<path class="st2" d="M9.82,20.72c0.01-0.06,0.02-0.12,0.02-0.18c0-0.45-0.37-0.81-0.82-0.81c-0.45,0-0.81,0.37-0.82,0.81
			c0,0.1,0.02,0.19,0.05,0.28c-0.4,0.03-0.71,0.36-0.71,0.77c0,0.43,0.35,0.77,0.77,0.77c0.11,0,0.52-0.12,0.6-0.18L8.4,23.07
			l1.27,0l-0.52-0.89c0.1,0.06,0.55,0.17,0.66,0.17c0.45,0,0.82-0.37,0.82-0.82C10.63,21.09,10.27,20.72,9.82,20.72z"/>
		<path class="st3" d="M9.82,20.72c0.01-0.06,0.02-0.12,0.02-0.18c0-0.45-0.37-0.81-0.82-0.81c0,0,0,0,0,0v3.35l0.65,0l-0.52-0.89
			c0.1,0.06,0.55,0.17,0.66,0.17c0.45,0,0.82-0.37,0.82-0.82C10.63,21.09,10.27,20.72,9.82,20.72z"/>
	</g>
	<g>
		<path class="st2" d="M58.53,73.11c0.01,0.06,0.02,0.12,0.02,0.18c0,0.45-0.37,0.81-0.82,0.81c-0.45,0-0.81-0.37-0.82-0.81
			c0-0.1,0.02-0.19,0.05-0.28c-0.4-0.03-0.71-0.36-0.71-0.77c0-0.43,0.35-0.77,0.77-0.77c0.11,0,0.52,0.12,0.6,0.18l-0.52-0.89
			l1.27,0l-0.52,0.89c0.1-0.06,0.55-0.17,0.66-0.17c0.45,0,0.82,0.37,0.82,0.82C59.34,72.74,58.98,73.1,58.53,73.11z"/>
		<path class="st3" d="M58.53,73.11c0.01,0.06,0.02,0.12,0.02,0.18c0,0.45-0.37,0.81-0.82,0.81c0,0,0,0,0,0v-3.35l0.65,0l-0.52,0.89
			c0.1-0.06,0.55-0.17,0.66-0.17c0.45,0,0.82,0.37,0.82,0.82C59.34,72.74,58.98,73.1,58.53,73.11z"/>
	</g>
</g>
</svg>
