<?xml version="1.0" encoding="utf-8"?>
<!-- Generator: Adobe Illustrator 26.0.3, SVG Export Plug-In . SVG Version: 6.00 Build 0)  -->
<svg version="1.1" id="Layer_1" xmlns="http://www.w3.org/2000/svg" xmlns:xlink="http://www.w3.org/1999/xlink" x="0px" y="0px"
	 viewBox="0 0 66 92" style="enable-background:new 0 0 66 92;" xml:space="preserve">
<style type="text/css">
	.st0{fill:#C9C9C9;}
	.st1{fill:#FFFFFF;}
	.st2{fill:#333333;}
	.st3{opacity:0.2;fill:#616161;}
	.st4{fill:#FDD8AB;}
	.st5{fill:#EBEBEB;}
	.st6{fill:#454545;}
	.st7{fill:#FFD675;}
</style>
<g>
	<g>
		<g>
			<g>
				<path class="st0" d="M10.02,87.16c-3.49,0.01-6.34-2.78-6.34-6.21L3.5,10.83C3.49,7.38,6.33,4.57,9.83,4.58l46.34,0.09
					c3.49,0.01,6.33,2.81,6.33,6.26V80.9c0,3.42-2.83,6.21-6.3,6.21L10.02,87.16z"/>
				<path class="st1" d="M10.35,87.42c-3.44,0-6.25-2.79-6.25-6.23V11.24c0-3.43,2.8-6.22,6.25-6.22h45.67
					c3.44,0,6.25,2.79,6.25,6.22V81.2c0,3.43-2.8,6.23-6.25,6.23H10.35z"/>
				<g>
					<path class="st2" d="M56.26,85.68H10.59c-2.67,0-4.84-2.16-4.84-4.82V10.9c0-2.55,2.03-4.64,3.12-5.04l0.16-0.06l45.91,0
						c4.54,0.36,6.16,2.86,6.16,5.09v69.96C61.09,83.51,58.92,85.68,56.26,85.68z M9.41,7.72c-0.49,0.31-1.75,1.6-1.75,3.18v69.96
						c0,1.6,1.31,2.91,2.93,2.91h45.67c1.61,0,2.93-1.3,2.93-2.91V10.9c0-1.77-1.63-2.96-4.36-3.18H9.41z"/>
				</g>
				<g>
					<path class="st2" d="M14.72,13.24c0,0.31-0.08,0.66-0.23,1.04c-0.15,0.38-0.34,0.68-0.55,0.9c-0.08,0.08-0.22,0.21-0.42,0.37
						c-0.29,0.24-0.59,0.45-0.9,0.63c-0.09,0.05-0.16,0.09-0.2,0.12c-0.14,0.09-0.21,0.15-0.21,0.19c0,0.07,0.21,0.2,0.64,0.37
						c0.39,0.16,0.68,0.26,0.87,0.3c0.02,0.01,0.07,0.01,0.13,0.01h0.16c0.05,0,0.1,0,0.15,0c0.05,0,0.1,0.01,0.16,0.03
						c-0.04,0.04-0.11,0.08-0.21,0.13c-0.11,0.05-0.21,0.1-0.32,0.15c-0.15,0.13-0.27,0.23-0.35,0.3c-0.08,0.07-0.15,0.1-0.19,0.1
						c-0.14,0-0.37-0.15-0.69-0.46c-0.32-0.31-0.62-0.46-0.91-0.46c-0.18,0-0.36,0.07-0.53,0.2c-0.17,0.14-0.28,0.2-0.31,0.2
						c-0.07,0-0.11-0.05-0.11-0.14c0-0.07,0.1-0.18,0.31-0.33c0.13-0.1,0.27-0.2,0.4-0.3c-0.33-0.19-0.65-0.39-0.95-0.61
						c-0.3-0.21-0.57-0.47-0.81-0.78c-0.21-0.27-0.36-0.56-0.47-0.86C9.06,14.04,9,13.73,9,13.4c0-0.49,0.1-0.9,0.29-1.2
						c0.07-0.11,0.3-0.37,0.69-0.76c0.12-0.12,0.43-0.38,0.91-0.78c0.61-0.49,0.97-0.74,1.09-0.74c0.11,0,0.31,0.11,0.61,0.32
						c0.36,0.25,0.78,0.62,1.26,1.1c0.3,0.3,0.52,0.6,0.66,0.9C14.65,12.53,14.72,12.86,14.72,13.24z M13.19,14.09
						c0-0.28-0.06-0.58-0.18-0.92c-0.12-0.33-0.28-0.65-0.49-0.95c-0.16-0.24-0.46-0.52-0.9-0.84c-0.14-0.11-0.35-0.25-0.61-0.42
						c-0.1,0-0.23,0.18-0.38,0.54c-0.15,0.36-0.23,0.59-0.23,0.7c0,0.49,0.11,0.95,0.32,1.37c0.17,0.36,0.45,0.72,0.81,1.1
						c0.15,0.16,0.52,0.5,1.1,1.03c0.2-0.19,0.35-0.47,0.45-0.86C13.15,14.57,13.19,14.31,13.19,14.09z"/>
				</g>
				<g>
					<path class="st2" d="M52.36,79.28c0-0.31,0.08-0.66,0.23-1.04c0.15-0.38,0.34-0.68,0.55-0.9c0.08-0.08,0.22-0.21,0.42-0.37
						c0.29-0.24,0.59-0.45,0.9-0.63c0.09-0.05,0.16-0.09,0.2-0.12c0.14-0.09,0.21-0.15,0.21-0.19c0-0.07-0.21-0.2-0.64-0.37
						c-0.39-0.16-0.68-0.26-0.87-0.3c-0.02-0.01-0.07-0.01-0.13-0.01h-0.16c-0.05,0-0.1,0-0.15,0c-0.05,0-0.1-0.01-0.16-0.03
						c0.04-0.04,0.11-0.08,0.21-0.13c0.11-0.05,0.21-0.1,0.32-0.15c0.15-0.13,0.27-0.23,0.35-0.3c0.08-0.07,0.15-0.1,0.19-0.1
						c0.14,0,0.37,0.15,0.69,0.46c0.32,0.31,0.62,0.46,0.91,0.46c0.18,0,0.36-0.07,0.53-0.2c0.17-0.14,0.28-0.2,0.31-0.2
						c0.07,0,0.11,0.05,0.11,0.15c0,0.07-0.1,0.18-0.31,0.33c-0.13,0.1-0.27,0.2-0.4,0.3c0.33,0.19,0.65,0.4,0.95,0.61
						c0.3,0.21,0.57,0.47,0.81,0.78c0.21,0.27,0.36,0.56,0.47,0.86c0.11,0.3,0.16,0.62,0.16,0.95c0,0.49-0.1,0.9-0.29,1.2
						c-0.07,0.11-0.3,0.37-0.69,0.76c-0.12,0.12-0.43,0.38-0.91,0.78c-0.61,0.49-0.97,0.74-1.09,0.74c-0.11,0-0.31-0.11-0.61-0.32
						c-0.36-0.25-0.78-0.62-1.26-1.1c-0.3-0.3-0.52-0.6-0.66-0.9C52.43,79.99,52.36,79.65,52.36,79.28z M53.89,78.43
						c0,0.28,0.06,0.58,0.18,0.92c0.12,0.33,0.28,0.65,0.49,0.95c0.16,0.23,0.46,0.52,0.9,0.84c0.14,0.11,0.35,0.25,0.61,0.42
						c0.1,0,0.23-0.18,0.38-0.54c0.15-0.36,0.23-0.59,0.23-0.7c0-0.49-0.11-0.95-0.32-1.38c-0.17-0.36-0.45-0.72-0.81-1.1
						c-0.15-0.16-0.52-0.5-1.1-1.03c-0.2,0.19-0.35,0.47-0.45,0.86C53.93,77.95,53.89,78.2,53.89,78.43z"/>
				</g>
			</g>
			<g>
				<g>
					<g>
						<g>
							<g>
								<polygon class="st0" points="42.31,27.95 42.22,29.19 42.16,29.95 41.93,33.2 41.88,33.96 41.81,35 41.81,35.01 
									41.74,35.97 40.99,35.98 40.64,35.99 39.92,36.01 39.5,36.01 39,36.02 38.12,36.04 37.13,36.06 32.51,36.16 32.5,36.16 
									27.87,36.06 26.89,36.04 26,36.02 25.5,36.01 25.09,36.01 24.72,36 24.36,35.99 24.01,35.98 23.27,35.97 23.2,35.01 
									23.2,35 23.12,33.96 23.07,33.2 22.84,29.95 22.78,29.19 22.69,27.95 								"/>
								<path class="st3" d="M41.5,30.27c-0.88,0.94-3.49,1.85-5.77,1.85h-0.03c-0.5,0.63-1.08,1.12-1.72,1.39
									c-0.4,0.17-0.83,0.27-1.27,0.27c-0.03,0-0.06,0-0.08-0.01c0,0,0,0-0.01,0v-5.83L41.5,30.27z"/>
								<g>
									<path class="st4" d="M45.45,40.75l-3.72,1.11l-0.35,0.11l-0.1,0.03c-0.29-0.48-0.53-0.85-0.63-1.01
										c-0.04-0.05-0.06-0.08-0.07-0.08c-0.01,0-0.01,0.02-0.02,0.03c-0.32,0.52-0.49,1.01-0.6,1.46l-0.99,0.3l-6.46,1.93
										l-4.03,1.2l-1.34,0.4c-0.04-0.16-0.1-0.32-0.17-0.51c-2.33-1-1.27-2.59-2.4-4.59c-0.04-0.08-0.08-0.14-0.13-0.21
										c-0.14,0.17-2.77,4.17-3.22,7.09l-0.33,0.09l-2.61,0.78h-0.06c-0.04-5.73,1.7-9.55,3.31-11.87
										c0.11-0.16,0.22-0.31,0.34-0.45c0.11-0.13,0.21-0.28,0.31-0.4l0.01-0.01c0-0.01,0-0.02,0-0.02
										c0.08-0.08,0.16-0.18,0.24-0.27c0.03-0.04,0.06-0.08,0.1-0.12c0.04-0.05,0.08-0.1,0.13-0.15c0.2-0.22,0.38-0.41,0.55-0.58
										h0.01c0.04-0.04,0.08-0.08,0.13-0.13c0.04-0.03,0.08-0.08,0.11-0.11c0.04-0.03,0.08-0.06,0.11-0.1
										c0.07-0.06,0.13-0.11,0.2-0.17c0.26-0.22,0.41-0.32,0.41-0.32l0.61,0.14l0.1,0.03l0.24,0.07l0.06,0.01l0.84-0.03l1.3-0.05
										l1.38-0.06l3.79-0.15h0.01l3.87,0.16l1.31,0.05l1.3,0.05l0.84,0.03l0.07-0.01l0.24-0.07l0.11-0.03l0.6-0.14
										c0,0,0.16,0.1,0.41,0.32c0.06,0.05,0.13,0.1,0.2,0.17c0.03,0.04,0.07,0.07,0.11,0.1c0.04,0.03,0.08,0.08,0.11,0.11L41.8,35
										h0.01c0.04,0.03,0.08,0.08,0.12,0.13c0.04,0.04,0.1,0.08,0.14,0.14c0.09,0.1,0.19,0.19,0.29,0.31
										c0.06,0.05,0.11,0.11,0.17,0.18c0.01,0.01,0.02,0.03,0.03,0.04c0.01,0.02,0.02,0.03,0.03,0.05
										c0.08,0.08,0.16,0.18,0.24,0.27c0,0,0.01,0.01,0.01,0.02v0.01c0.1,0.11,0.2,0.26,0.32,0.4c0.11,0.14,0.22,0.29,0.33,0.45
										C44.16,37.97,44.86,39.22,45.45,40.75z"/>
									<path class="st3" d="M32.5,38.32h0.85l-0.38,3.07c-0.15,0.01-0.31,0.01-0.47,0.02V38.32z"/>
								</g>
								<g>
									<g>
										<path class="st3" d="M32.5,27.95l-9.41,1.38c1.47,2.06,4.01,2.79,6.29,2.79h0.03c0.81,1.03,1.85,1.66,3,1.66
											c0.03,0,0.06-0.01,0.09-0.01V27.95z"/>
										<path class="st3" d="M32.5,38.32h-0.85l0.38,3.07c0.16,0.01,0.31,0.01,0.47,0.02V38.32z"/>
									</g>
									<path class="st3" d="M29.4,40.9c-4.31-0.95-6.66-2.41-7.88-3.9c0.89-1.28,1.75-2.09,2.23-2.5L29.4,40.9z"/>
									<g>
										<path class="st4" d="M32.5,32.51c-0.03,0-0.06,0-0.09,0c-0.43,0-0.84-0.09-1.23-0.25c-0.02,0.1-0.04,0.2-0.04,0.31v0.55
											c0.41,0.18,0.83,0.27,1.27,0.27c0.03,0,0.06,0,0.09,0V32.51z"/>
										<path class="st4" d="M32.5,31.27c-0.02,0-0.03-0.01-0.05-0.01c-0.62,0-1.13,0.43-1.28,1c0.39,0.16,0.8,0.25,1.23,0.25
											c0.03,0,0.06,0,0.09,0V31.27z"/>
									</g>
									<path class="st4" d="M40.08,34.02l-2.29-0.03l-3.93-0.05v-0.81c-0.41,0.18-0.83,0.27-1.27,0.27c-0.03,0-0.06,0-0.09,0l0,0
										c0,0,0,0,0,0c0,0,0,0,0,0l0,0c-0.03,0-0.06,0-0.09,0c-0.44,0-0.87-0.09-1.27-0.27v0.81l-3.93,0.05l-2.29,0.03
										c-0.4,0.7-0.22,0.77-0.22,1.57c0,2,1.38,3.76,3.48,4.81c0.01,0.01,0.02,0.01,0.03,0.01c0.38,0.18,0.78,0.35,1.19,0.48
										c0.81,0.27,1.7,0.44,2.63,0.49c0.05,0,0.1,0.01,0.15,0.01c0.1,0,0.21,0,0.31,0.01l0,0c0,0,0,0,0,0c0,0,0,0,0,0l0,0
										c0.11,0,0.21,0,0.31-0.01c0.05,0,0.1-0.01,0.15-0.01c0.93-0.05,1.82-0.22,2.63-0.49c0.42-0.13,0.82-0.3,1.19-0.48
										c0.01,0,0.02,0,0.03-0.01c2.1-1.05,3.48-2.81,3.48-4.81C40.3,34.79,40.48,34.72,40.08,34.02z"/>
									<g>
										<path class="st3" d="M29.4,40.9c-0.42-0.16-0.82-0.32-1.19-0.48c-0.01,0-0.02,0-0.03-0.01c-2.1-1.05-3.48-2.81-3.48-4.81
											c0-0.8-0.18-0.87,0.22-1.57l2.29-0.03L29.4,40.9z"/>
										<path class="st3" d="M35.6,40.9c0.42-0.16,0.82-0.32,1.19-0.48c0.01,0,0.02,0,0.03-0.01c2.1-1.05,3.48-2.81,3.48-4.81
											c0-0.8,0.18-0.87-0.22-1.57l-2.29-0.03L35.6,40.9z"/>
									</g>
									<path class="st4" d="M32.5,32.51c0.03,0,0.06,0,0.09,0c0.43,0,0.84-0.09,1.23-0.25c0.02,0.1,0.04,0.2,0.04,0.31v0.55
										c-0.41,0.18-0.83,0.27-1.27,0.27c-0.03,0-0.06,0-0.09,0V32.51z"/>
									<path class="st4" d="M32.5,31.27c0.02,0,0.03-0.01,0.05-0.01c0.62,0,1.14,0.43,1.28,1c-0.39,0.16-0.8,0.25-1.23,0.25
										c-0.03,0-0.06,0-0.09,0V31.27z"/>
								</g>
								<path class="st2" d="M45.45,40.75l-3.72,1.11l-0.35,0.11l-0.1,0.03c-0.29-0.48-0.53-0.85-0.63-1.01
									c-0.04-0.05-0.06-0.08-0.07-0.08c-0.01,0-0.01,0.02-0.02,0.03c-0.32,0.52-0.49,1.01-0.6,1.46l-0.99,0.3l-6.46,1.93
									l-4.03,1.2l-1.34,0.4c-0.04-0.16-0.1-0.32-0.17-0.51c-2.33-1-1.27-2.59-2.4-4.59c-0.04-0.08-0.08-0.14-0.13-0.21
									c-0.14,0.17-2.77,4.17-3.22,7.09l-0.33,0.09l-2.61,0.78h-0.06c-0.04-5.73,1.7-9.55,3.31-11.87
									c0.11-0.16,0.22-0.31,0.34-0.45c0.11-0.13,0.21-0.28,0.31-0.4l0.01-0.01c0-0.01,0-0.02,0-0.02
									c0.08-0.08,0.16-0.18,0.24-0.27c0.01-0.02,0.03-0.03,0.03-0.04c0.03-0.03,0.04-0.05,0.07-0.08l3,2.62l0.47,0.41l0.14-0.24
									c0.4,0.09,0.82,0.14,1.25,0.14c0.83,0,3.79-0.92,4.43-1.3h1.67c0.77,0.46,4.04,1.29,4.84,1.29c0.27,0,0.53-0.02,0.78-0.05
									l0.32,0.5l0.67-0.71l2.45-2.62c0.01,0.01,0.02,0.03,0.03,0.04c0.01,0.02,0.02,0.03,0.03,0.05c0.08,0.08,0.16,0.18,0.24,0.27
									c0,0,0.01,0.01,0.01,0.02v0.01c0.06,0.06,0.11,0.14,0.18,0.22c0.04,0.06,0.09,0.12,0.14,0.17c0.11,0.14,0.22,0.29,0.33,0.45
									C44.16,37.97,44.86,39.22,45.45,40.75z"/>
								<path class="st3" d="M43.48,37c-1.23,1.49-3.57,2.94-7.88,3.9l2.34-2.65l0.14-0.16l1.83-2.08l0.39-0.44l0.94-1.07
									c0.06,0.05,0.13,0.11,0.2,0.17c0.03,0.03,0.07,0.07,0.11,0.1c0.04,0.03,0.08,0.07,0.12,0.11c0.04,0.04,0.08,0.08,0.13,0.12
									h0v0c0.04,0.03,0.08,0.08,0.12,0.12c0.05,0.05,0.09,0.09,0.14,0.14c0.09,0.1,0.19,0.2,0.29,0.31
									c0.07,0.07,0.13,0.14,0.19,0.22c0.01,0.01,0.03,0.03,0.04,0.04c0.08,0.09,0.15,0.18,0.23,0.28c0,0,0,0,0,0.01h0v0
									c0.1,0.13,0.2,0.26,0.31,0.4C43.26,36.68,43.37,36.84,43.48,37z"/>
								<path class="st5" d="M44.04,32.54c0,0.27-0.01,0.54-0.06,0.82c-0.12,0.89-0.46,1.83-1.14,2.78v0
									c-0.65,0.9-1.61,1.81-2.97,2.68c-0.08,0.05-0.17,0.11-0.26,0.16c-0.79,0.49-1.72,0.97-2.79,1.42
									c-0.02,0.01-0.05,0.02-0.07,0.03c-0.02,0.01-0.04,0.02-0.05,0.02c-0.07,0.02-0.13,0.05-0.19,0.08
									c-0.19,0.08-0.39,0.16-0.59,0.24c-0.1,0.04-0.2,0.08-0.31,0.12l2.51-4.86l0.86-1.65l0.19-0.38l3.14-6.06
									C42.31,27.95,44.04,29.92,44.04,32.54z"/>
								<path class="st5" d="M29.4,40.9c-1.61-0.6-2.93-1.25-4.01-1.91c-0.09-0.05-0.17-0.11-0.26-0.16
									c-2.79-1.79-3.87-3.73-4.11-5.46c-0.04-0.28-0.06-0.55-0.06-0.81c0-2.62,1.73-4.59,1.73-4.59L29.4,40.9z"/>
								<g>
									<polygon class="st2" points="23.76,35.65 24.57,36.73 24.2,35.43 									"/>
									<polygon class="st2" points="26.56,38.26 27.37,39.34 27,38.04 									"/>
									<polygon class="st2" points="22.29,29.22 23.09,30.3 22.73,29 									"/>
									<polygon class="st2" points="23.35,31.48 24.16,32.56 23.8,31.26 									"/>
									<polygon class="st2" points="24.42,33.74 25.23,34.82 24.86,33.52 									"/>
									<polygon class="st2" points="25.49,36 26.3,37.08 25.93,35.78 									"/>
									<path class="st2" d="M25.39,38.98c-0.09-0.05-0.17-0.11-0.26-0.16l-0.47-0.63l0.44-0.22L25.39,38.98z"/>
									<polygon class="st2" points="21.62,31.13 22.43,32.2 22.06,30.91 									"/>
									<polygon class="st2" points="22.69,33.39 23.5,34.47 23.13,33.17 									"/>
									<path class="st2" d="M21.37,33.82l-0.35-0.46c-0.04-0.28-0.06-0.55-0.06-0.81L21,32.52L21.37,33.82z"/>
									<polygon class="st2" points="22.1,35.42 22.91,36.5 22.54,35.2 									"/>
								</g>
								<g>
									<polygon class="st2" points="41.24,35.65 40.43,36.73 40.8,35.43 									"/>
									<polygon class="st2" points="38.44,38.26 37.63,39.34 38,38.04 									"/>
									<polygon class="st2" points="42.72,29.22 41.91,30.3 42.27,29 									"/>
									<polygon class="st2" points="41.65,31.48 40.84,32.56 41.21,31.26 									"/>
									<polygon class="st2" points="40.58,33.74 39.77,34.82 40.14,33.52 									"/>
									<polygon class="st2" points="39.51,36 38.7,37.08 39.07,35.78 									"/>
									<path class="st2" d="M39.51,38.48c0.09-0.05,0.74-0.64,0.74-0.64l-0.44-0.22L39.51,38.48z"/>
									<polygon class="st2" points="43.38,31.13 42.57,32.2 42.94,30.91 									"/>
									<polygon class="st2" points="42.31,33.39 41.5,34.47 41.87,33.17 									"/>
									<path class="st2" d="M44.04,32.54c0,0.27-0.01,0.54-0.06,0.82l-0.35,0.46L44,32.52L44.04,32.54z"/>
									<polygon class="st2" points="42.91,35.42 42.1,36.5 42.46,35.2 									"/>
								</g>
							</g>
							<path class="st2" d="M31.6,29.51l-0.57,0.94c-1.16,0-2.19,0-2.79-0.01C29.47,30.44,30.63,30.11,31.6,29.51z"/>
							<path class="st2" d="M36.57,30.46c-0.61,0-1.55,0-2.6-0.01l-0.59-0.94C34.3,30.07,35.39,30.42,36.57,30.46z"/>
							<path class="st2" d="M36.72,30.46c-0.03,0-0.06,0-0.08-0.01C37.36,30.46,37.55,30.46,36.72,30.46z"/>
							<g>
								<path class="st2" d="M44.3,25.27c0.01,3.31-2.68,6-6,6c-0.8,0-4.07-0.82-4.84-1.29H31.8c-0.64,0.38-3.59,1.3-4.43,1.3
									c-3.13-0.01-5.67-2.54-5.67-5.67c0.01-2.98,2.31-5.42,5.23-5.65c-0.24-0.63-0.36-1.31-0.36-2.03c0-0.28,0.02-0.56,0.06-0.83
									v-0.01c0.04-0.33,0.11-0.64,0.21-0.95v-0.01c0.77-2.42,3.03-4.18,5.72-4.19c2.62-0.01,4.86,1.68,5.67,4.02
									c0.11,0.32,0.2,0.64,0.25,0.98c0.06,0.32,0.08,0.65,0.08,0.98c0.01,0.47-0.06,0.9-0.15,1.34C41.67,19.34,44.3,22,44.3,25.27
									z"/>
								<g>
									<path class="st3" d="M28.48,45.81l-1.35,0.4c-0.05-0.16-0.1-0.33-0.17-0.51c-2.41-1.03-1.19-2.7-2.53-4.81
										c-0.15,0.17-2.77,4.18-3.22,7.08l-0.32,0.1c-0.69-3.03,3.89-8.1,3.89-8.1S26.82,45.04,28.48,45.81z"/>
									<path class="st3" d="M41.72,41.86l-0.35,0.11l-0.11,0.03c-0.29-0.49-0.52-0.85-0.63-1.01c-0.04-0.05-0.06-0.08-0.07-0.09
										c-0.33,0.53-0.51,1.03-0.62,1.49l-0.99,0.3c0.74-1.39,1.27-2.71,1.27-2.71S40.92,40.75,41.72,41.86z"/>
								</g>
								<path class="st3" d="M35.07,32.22l-1.21,0.9c-0.4,0.18-0.83,0.27-1.27,0.27c-0.03,0-0.06-0.01-0.09-0.01
									c-0.03,0-0.06,0.01-0.09,0.01c-0.44,0-0.87-0.1-1.27-0.27l-1.19-0.9l0.38-0.62c0.74,0.37,1.79,0.9,2.09,0.9
									c0.03,0,0.06-0.01,0.08-0.01c0,0,0,0,0.01,0c0.03,0,0.06,0.01,0.09,0.01c0.27,0,1.22-0.62,1.97-1.12L35.07,32.22z"/>
								<path class="st4" d="M34.1,19.1c-0.7,0.08-1.3,0.51-1.6,1.11c-0.3-0.61-0.89-1.04-1.6-1.11c-1.74,0.99-2.98,3.52-2.98,6.48
									c0,2.1,0.62,3.98,1.61,5.25c0,0.01,0.01,0.02,0.01,0.02c0,0,0,0,0,0l0,0c0.51,0.65,1.11,1.13,1.77,1.41
									c0.38,0.15,0.77,0.24,1.18,0.25v0c0,0,0,0,0,0c0,0,0,0,0,0v0c0.41-0.01,0.8-0.09,1.18-0.25c0.66-0.27,1.26-0.76,1.77-1.41
									l0,0c0,0,0,0,0,0c0.01-0.01,0.01-0.01,0.01-0.02c0.99-1.27,1.61-3.15,1.61-5.25C37.08,22.62,35.84,20.1,34.1,19.1z"/>
								<path class="st2" d="M35.71,18.61c0-0.74-3.24-3.93-3.24-3.93s-3.16,3.28-3.16,3.91c0,1.07,0.86,1.94,1.93,1.94
									c0.37,0,0.71-0.1,1-0.28l0.53,0c0.29,0.18,0.63,0.28,1,0.28C34.83,20.54,35.71,19.68,35.71,18.61z"/>
								<g>
									<g>
										<path class="st2" d="M29.08,25.18c-0.02,0.05-0.03,0.1-0.03,0.16c0,0.35,0.44,0.64,0.98,0.64c0.54,0,0.98-0.29,0.98-0.64
											c0-0.06-0.01-0.11-0.03-0.16H29.08z"/>
									</g>
									<g>
										<path class="st2" d="M35.93,25.18c0.02,0.05,0.03,0.1,0.03,0.16c0,0.35-0.44,0.64-0.98,0.64c-0.54,0-0.98-0.29-0.98-0.64
											c0-0.06,0.01-0.11,0.03-0.16H35.93z"/>
									</g>
									<g>
										<path class="st6" d="M33.77,29.98H32.5H32.5h-1.27c0.25,0.34,0.73,0.57,1.27,0.57v0c0,0,0,0,0,0c0,0,0,0,0,0v0
											C33.05,30.55,33.52,30.32,33.77,29.98z"/>
										<path class="st2" d="M32.5,29.91c-0.58-0.68-1.4,0.18-1.4,0.18h1.4h0.01h1.4C33.9,30.09,33.08,29.24,32.5,29.91z"/>
									</g>
									<polygon class="st3" points="32.5,26.26 32.5,26.24 32.5,26.25 32.5,26.24 32.5,26.26 31.76,28.6 32.5,28.6 32.5,28.6 
										33.24,28.6 									"/>
									<polygon class="st2" points="33.9,23.78 35.84,23.89 35.87,23.89 35.88,23.9 36.65,24.74 35.8,23.99 35.84,24 33.9,24.1 
																			"/>
									<polygon class="st2" points="31.27,24.1 29.33,24 29.37,23.99 28.52,24.74 29.29,23.9 29.3,23.89 29.33,23.89 31.27,23.78 
																			"/>
								</g>
								<g>
									<path class="st3" d="M34,12.51c0.02-0.11,0.03-0.23,0.03-0.35C34,11.34,33.3,10.7,32.46,10.7c-0.85,0-1.58,0.65-1.62,1.5
										c-0.01,0.19,0.02,0.37,0.07,0.54c-0.82,0.07-1.52,0.76-1.6,1.63c-0.08,0.95,0.64,1.72,1.59,1.68
										c0.25-0.01,1.13-0.33,1.32-0.46l-1.2,2.19l2.85-0.17l-1.16-2.05c0.22,0.13,1.16,0.35,1.39,0.34
										c0.93-0.04,1.62-0.87,1.54-1.81C35.58,13.2,34.85,12.52,34,12.51z"/>
									<path class="st7" d="M33.88,12.56c0.02-0.11,0.04-0.22,0.04-0.34c0.01-0.84-0.68-1.53-1.52-1.53
										c-0.84,0-1.53,0.67-1.53,1.52c0,0.18,0.03,0.35,0.09,0.52c-0.74,0.05-1.33,0.67-1.33,1.43c0,0.8,0.64,1.44,1.44,1.45
										c0.21,0,0.96-0.23,1.13-0.32l-0.98,1.67l2.38,0.01l-0.97-1.68c0.19,0.12,1.03,0.33,1.23,0.33c0.84,0,1.53-0.68,1.53-1.52
										C35.38,13.26,34.71,12.58,33.88,12.56z"/>
									<path class="st3" d="M32.4,15.54l0.63,1.09l-1.27,0L32.4,15.54z M31.06,15.28c-0.62,0-1.12-0.51-1.12-1.13
										c0-0.58,0.46-1.07,1.04-1.11l0.42-0.03l-0.14-0.4c-0.05-0.13-0.07-0.27-0.07-0.41c0-0.66,0.55-1.2,1.21-1.2
										c0.32,0,0.63,0.13,0.85,0.36c0.23,0.23,0.35,0.53,0.35,0.85c0,0.09-0.01,0.17-0.03,0.28l-0.08,0.38l0.39,0.01
										c0.65,0.01,1.18,0.55,1.18,1.21c0,0.32-0.13,0.62-0.36,0.85c-0.23,0.23-0.53,0.35-0.86,0.35c-0.15,0-0.92-0.2-1.06-0.29
										l-0.15,0.14L32.03,15C31.9,15.07,31.22,15.28,31.06,15.28z"/>
								</g>
							</g>
						</g>
						<path class="st3" d="M33.84,19.15c0.08-0.02,0.17-0.04,0.26-0.04C34.01,19.11,33.93,19.13,33.84,19.15z"/>
						<path class="st3" d="M33.15,19.46c0.01-0.01,0.02-0.01,0.03-0.02C33.17,19.44,33.16,19.45,33.15,19.46z"/>
						<path class="st3" d="M33.37,19.33c0.02-0.01,0.03-0.01,0.05-0.02C33.4,19.31,33.38,19.32,33.37,19.33z"/>
						<path class="st3" d="M33.6,19.22c0.03-0.01,0.06-0.02,0.08-0.03C33.65,19.2,33.62,19.21,33.6,19.22z"/>
					</g>
					<path class="st3" d="M43.49,36.99c-0.11-0.16-0.22-0.31-0.33-0.45c-0.06-0.07-0.12-0.15-0.18-0.23
						c-0.04-0.06-0.09-0.12-0.14-0.17v0c0,0,0,0,0,0v0c0.68-0.95,1.02-1.89,1.14-2.78c0.05-0.28,0.06-0.55,0.06-0.82
						c0-1.47-0.54-2.73-1.02-3.56c0.8-1.02,1.29-2.31,1.28-3.71c0-3.28-2.63-5.93-5.9-5.99c0.1-0.43,0.16-0.87,0.15-1.34
						c0-0.33-0.03-0.66-0.08-0.98c-0.05-0.34-0.13-0.66-0.25-0.98c-0.65-1.89-2.24-3.35-4.2-3.84c-0.04-0.81-0.73-1.44-1.56-1.45
						c-0.01,0-0.02,0-0.03,0v33.94l0.07-0.02l6.45-1.93c0,0,0,0,0,0l0.99-0.3c0,0,0,0,0,0l0,0c0.1-0.41,0.25-0.85,0.52-1.32
						c0.03-0.05,0.06-0.1,0.09-0.15c0-0.01,0.01-0.01,0.01-0.01c0,0,0,0,0,0c0.01,0.01,0.03,0.04,0.06,0.08
						c0.11,0.16,0.34,0.52,0.63,1.01l0.06-0.02l0.05-0.01l0.35-0.11l3.72-1.11C44.86,39.22,44.16,37.97,43.49,36.99z"/>
				</g>
				<g>
					<g>
						<g>
							<g>
								<polygon class="st0" points="21.35,64.74 21.44,63.5 21.5,62.74 21.73,59.49 21.78,58.72 21.86,57.69 21.86,57.68 
									21.93,56.72 22.67,56.71 23.02,56.7 23.74,56.68 24.16,56.68 24.66,56.67 25.54,56.65 26.53,56.63 31.16,56.53 31.16,56.53 
									35.79,56.63 36.77,56.65 37.66,56.67 38.16,56.68 38.57,56.68 38.94,56.69 39.3,56.7 39.65,56.71 40.39,56.72 40.46,57.68 
									40.46,57.69 40.54,58.72 40.59,59.49 40.82,62.74 40.88,63.5 40.97,64.74 								"/>
								<path class="st3" d="M22.16,62.42c0.88-0.94,3.49-1.85,5.77-1.85h0.03c0.5-0.63,1.08-1.12,1.72-1.39
									c0.4-0.17,0.83-0.27,1.27-0.27c0.03,0,0.06,0,0.08,0.01c0,0,0,0,0.01,0v5.83L22.16,62.42z"/>
								<g>
									<path class="st4" d="M18.21,51.94l3.72-1.11l0.35-0.11l0.1-0.03c0.29,0.48,0.53,0.85,0.63,1.01
										c0.04,0.05,0.06,0.08,0.07,0.08c0.01,0,0.01-0.02,0.02-0.03c0.32-0.52,0.49-1.01,0.6-1.46l0.99-0.3l6.46-1.93l4.03-1.2
										l1.34-0.4c0.04,0.16,0.1,0.32,0.17,0.51c2.33,1,1.27,2.59,2.4,4.59c0.04,0.08,0.08,0.14,0.13,0.21
										c0.14-0.17,2.77-4.17,3.22-7.09l0.33-0.09l2.61-0.78h0.06c0.04,5.73-1.7,9.55-3.31,11.87c-0.11,0.16-0.22,0.31-0.34,0.45
										c-0.11,0.13-0.21,0.28-0.31,0.4l-0.01,0.01c0,0.01,0,0.02,0,0.02c-0.08,0.08-0.16,0.18-0.24,0.27
										c-0.03,0.04-0.06,0.08-0.1,0.12c-0.04,0.05-0.08,0.1-0.13,0.15c-0.2,0.22-0.38,0.41-0.55,0.58h-0.01
										c-0.04,0.04-0.08,0.08-0.13,0.13c-0.04,0.03-0.08,0.08-0.11,0.11c-0.04,0.03-0.08,0.06-0.11,0.1
										c-0.07,0.06-0.13,0.11-0.2,0.17c-0.26,0.22-0.41,0.32-0.41,0.32l-0.61-0.14l-0.1-0.03l-0.24-0.07l-0.06-0.01l-0.84,0.03
										l-1.3,0.05l-1.38,0.06l-3.79,0.15h-0.01l-3.87-0.16l-1.31-0.05l-1.3-0.05l-0.84-0.03l-0.07,0.01l-0.24,0.07l-0.11,0.03
										l-0.6,0.14c0,0-0.16-0.1-0.41-0.32c-0.06-0.05-0.13-0.1-0.2-0.17c-0.03-0.04-0.07-0.07-0.11-0.1
										c-0.04-0.03-0.08-0.08-0.11-0.11l-0.13-0.13h-0.01c-0.04-0.03-0.08-0.08-0.12-0.13c-0.04-0.04-0.1-0.08-0.14-0.14
										c-0.09-0.1-0.19-0.19-0.29-0.31c-0.06-0.05-0.11-0.11-0.17-0.18c-0.01-0.01-0.02-0.03-0.03-0.04
										c-0.01-0.02-0.02-0.03-0.03-0.05c-0.08-0.08-0.16-0.18-0.24-0.27c0,0-0.01-0.01-0.01-0.02v-0.01
										c-0.1-0.11-0.2-0.26-0.32-0.4c-0.11-0.14-0.22-0.29-0.33-0.45C19.5,54.72,18.8,53.47,18.21,51.94z"/>
									<path class="st3" d="M31.16,54.37h-0.85l0.38-3.07c0.15-0.01,0.31-0.01,0.47-0.02V54.37z"/>
								</g>
								<g>
									<g>
										<path class="st3" d="M31.16,64.74l9.41-1.38c-1.47-2.06-4.01-2.79-6.29-2.79h-0.03c-0.81-1.03-1.85-1.66-3-1.66
											c-0.03,0-0.06,0.01-0.09,0.01V64.74z"/>
										<path class="st3" d="M31.16,54.37h0.85l-0.38-3.07c-0.16-0.01-0.31-0.01-0.47-0.02V54.37z"/>
									</g>
									<path class="st3" d="M34.26,51.79c4.31,0.95,6.66,2.41,7.88,3.9c-0.89,1.28-1.75,2.09-2.23,2.5L34.26,51.79z"/>
									<g>
										<path class="st4" d="M31.16,60.18c0.03,0,0.06,0,0.09,0c0.43,0,0.84,0.09,1.23,0.25c0.02-0.1,0.04-0.2,0.04-0.31v-0.55
											c-0.41-0.18-0.83-0.27-1.27-0.27c-0.03,0-0.06,0-0.09,0V60.18z"/>
										<path class="st4" d="M31.16,61.42c0.02,0,0.03,0.01,0.05,0.01c0.62,0,1.13-0.43,1.28-1c-0.39-0.16-0.8-0.25-1.23-0.25
											c-0.03,0-0.06,0-0.09,0V61.42z"/>
									</g>
									<path class="st4" d="M23.58,58.67l2.29,0.03l3.93,0.05v0.81c0.41-0.18,0.83-0.27,1.27-0.27c0.03,0,0.06,0,0.09,0l0,0
										c0,0,0,0,0,0c0,0,0,0,0,0l0,0c0.03,0,0.06,0,0.09,0c0.44,0,0.87,0.09,1.27,0.27v-0.81l3.93-0.05l2.29-0.03
										c0.4-0.7,0.22-0.77,0.22-1.57c0-2-1.38-3.76-3.48-4.81c-0.01-0.01-0.02-0.01-0.03-0.01c-0.38-0.18-0.78-0.35-1.19-0.48
										c-0.81-0.27-1.7-0.44-2.63-0.49c-0.05,0-0.1-0.01-0.15-0.01c-0.1,0-0.21,0-0.31-0.01l0,0c0,0,0,0,0,0c0,0,0,0,0,0l0,0
										c-0.11,0-0.21,0-0.31,0.01c-0.05,0-0.1,0.01-0.15,0.01c-0.93,0.05-1.82,0.22-2.63,0.49c-0.42,0.13-0.82,0.3-1.19,0.48
										c-0.01,0-0.02,0-0.03,0.01c-2.1,1.05-3.48,2.81-3.48,4.81C23.36,57.9,23.18,57.97,23.58,58.67z"/>
									<g>
										<path class="st3" d="M34.26,51.79c0.42,0.16,0.82,0.32,1.19,0.48c0.01,0,0.02,0,0.03,0.01c2.1,1.05,3.48,2.81,3.48,4.81
											c0,0.8,0.18,0.87-0.22,1.57l-2.29,0.03L34.26,51.79z"/>
										<path class="st3" d="M28.06,51.79c-0.42,0.16-0.82,0.32-1.19,0.48c-0.01,0-0.02,0-0.03,0.01
											c-2.1,1.05-3.48,2.81-3.48,4.81c0,0.8-0.18,0.87,0.22,1.57l2.29,0.03L28.06,51.79z"/>
									</g>
									<path class="st4" d="M31.16,60.18c-0.03,0-0.06,0-0.09,0c-0.43,0-0.84,0.09-1.23,0.25c-0.02-0.1-0.04-0.2-0.04-0.31v-0.55
										c0.41-0.18,0.83-0.27,1.27-0.27c0.03,0,0.06,0,0.09,0V60.18z"/>
									<path class="st4" d="M31.16,61.42c-0.02,0-0.03,0.01-0.05,0.01c-0.62,0-1.14-0.43-1.28-1c0.39-0.16,0.8-0.25,1.23-0.25
										c0.03,0,0.06,0,0.09,0V61.42z"/>
								</g>
								<path class="st2" d="M18.21,51.94l3.72-1.11l0.35-0.11l0.1-0.03c0.29,0.48,0.53,0.85,0.63,1.01
									c0.04,0.05,0.06,0.08,0.07,0.08c0.01,0,0.01-0.02,0.02-0.03c0.32-0.52,0.49-1.01,0.6-1.46l0.99-0.3l6.46-1.93l4.03-1.2
									l1.34-0.4c0.04,0.16,0.1,0.32,0.17,0.51c2.33,1,1.27,2.59,2.4,4.59c0.04,0.08,0.08,0.14,0.13,0.21
									c0.14-0.17,2.77-4.17,3.22-7.09l0.33-0.09l2.61-0.78h0.06c0.04,5.73-1.7,9.55-3.31,11.87c-0.11,0.16-0.22,0.31-0.34,0.45
									c-0.11,0.13-0.21,0.28-0.31,0.4l-0.01,0.01c0,0.01,0,0.02,0,0.02c-0.08,0.08-0.16,0.18-0.24,0.27
									c-0.01,0.02-0.03,0.03-0.03,0.04c-0.03,0.03-0.04,0.05-0.07,0.08l-3-2.62l-0.47-0.41l-0.14,0.24
									c-0.4-0.09-0.82-0.14-1.25-0.14c-0.83,0-3.79,0.92-4.43,1.3h-1.67c-0.77-0.46-4.04-1.29-4.84-1.29
									c-0.27,0-0.53,0.02-0.78,0.05l-0.32-0.5l-0.67,0.71l-2.45,2.62c-0.01-0.01-0.02-0.03-0.03-0.04
									c-0.01-0.02-0.02-0.03-0.03-0.05c-0.08-0.08-0.16-0.18-0.24-0.27c0,0-0.01-0.01-0.01-0.02v-0.01
									c-0.06-0.06-0.11-0.14-0.18-0.22c-0.04-0.06-0.09-0.12-0.14-0.17c-0.11-0.14-0.22-0.29-0.33-0.45
									C19.5,54.72,18.8,53.47,18.21,51.94z"/>
								<path class="st3" d="M20.18,55.69c1.23-1.49,3.57-2.94,7.88-3.9l-2.34,2.65l-0.14,0.16l-1.83,2.08l-0.39,0.44l-0.94,1.07
									c-0.06-0.05-0.13-0.11-0.2-0.17c-0.03-0.03-0.07-0.07-0.11-0.1c-0.04-0.03-0.08-0.07-0.12-0.11
									c-0.04-0.04-0.08-0.08-0.13-0.12h0v0c-0.04-0.03-0.08-0.08-0.12-0.12c-0.05-0.05-0.09-0.09-0.14-0.14
									c-0.09-0.1-0.19-0.2-0.29-0.31c-0.07-0.07-0.13-0.14-0.19-0.22c-0.01-0.01-0.03-0.03-0.04-0.04
									c-0.08-0.09-0.15-0.18-0.23-0.28c0,0,0,0,0-0.01h0v0c-0.1-0.13-0.2-0.26-0.31-0.4C20.4,56.01,20.29,55.85,20.18,55.69z"/>
								<path class="st5" d="M19.62,60.15c0-0.27,0.01-0.54,0.06-0.82c0.12-0.89,0.46-1.83,1.14-2.78v0
									c0.65-0.9,1.61-1.81,2.97-2.68c0.08-0.05,0.17-0.11,0.26-0.16c0.79-0.49,1.72-0.97,2.79-1.42c0.02-0.01,0.05-0.02,0.07-0.03
									c0.02-0.01,0.04-0.02,0.05-0.02c0.07-0.02,0.13-0.05,0.19-0.08c0.19-0.08,0.39-0.16,0.59-0.24c0.1-0.04,0.2-0.08,0.31-0.12
									l-2.51,4.86l-0.86,1.65l-0.19,0.38l-3.14,6.06C21.35,64.74,19.62,62.76,19.62,60.15z"/>
								<path class="st5" d="M34.26,51.79c1.61,0.6,2.93,1.25,4.01,1.91c0.09,0.05,0.17,0.11,0.26,0.16
									c2.79,1.79,3.87,3.73,4.11,5.46c0.04,0.28,0.06,0.55,0.06,0.81c0,2.62-1.73,4.59-1.73,4.59L34.26,51.79z"/>
								<g>
									<polygon class="st2" points="39.9,57.04 39.09,55.96 39.46,57.26 									"/>
									<polygon class="st2" points="37.1,54.43 36.29,53.35 36.66,54.65 									"/>
									<polygon class="st2" points="41.37,63.47 40.57,62.39 40.93,63.69 									"/>
									<polygon class="st2" points="40.31,61.21 39.5,60.13 39.86,61.43 									"/>
									<polygon class="st2" points="39.24,58.95 38.43,57.87 38.8,59.17 									"/>
									<polygon class="st2" points="38.17,56.69 37.36,55.61 37.73,56.91 									"/>
									<path class="st2" d="M38.27,53.71c0.09,0.05,0.17,0.11,0.26,0.16L39,54.5l-0.44,0.22L38.27,53.71z"/>
									<polygon class="st2" points="42.04,61.56 41.23,60.48 41.6,61.78 									"/>
									<polygon class="st2" points="40.97,59.3 40.16,58.22 40.53,59.52 									"/>
									<path class="st2" d="M42.29,58.87l0.35,0.46c0.04,0.28,0.06,0.55,0.06,0.81l-0.04,0.02L42.29,58.87z"/>
									<polygon class="st2" points="41.56,57.27 40.76,56.19 41.12,57.49 									"/>
								</g>
								<g>
									<polygon class="st2" points="22.42,57.04 23.23,55.96 22.86,57.26 									"/>
									<polygon class="st2" points="25.22,54.43 26.03,53.35 25.66,54.65 									"/>
									<polygon class="st2" points="20.94,63.47 21.75,62.39 21.39,63.69 									"/>
									<polygon class="st2" points="22.01,61.21 22.82,60.13 22.46,61.43 									"/>
									<polygon class="st2" points="23.08,58.95 23.89,57.87 23.52,59.17 									"/>
									<polygon class="st2" points="24.15,56.69 24.96,55.61 24.59,56.91 									"/>
									<path class="st2" d="M24.15,54.21c-0.09,0.05-0.74,0.64-0.74,0.64l0.44,0.22L24.15,54.21z"/>
									<polygon class="st2" points="20.28,61.56 21.09,60.48 20.72,61.78 									"/>
									<polygon class="st2" points="21.35,59.3 22.16,58.22 21.79,59.52 									"/>
									<path class="st2" d="M19.62,60.15c0-0.27,0.01-0.54,0.06-0.82l0.35-0.46l-0.37,1.29L19.62,60.15z"/>
									<polygon class="st2" points="20.75,57.27 21.56,56.19 21.2,57.49 									"/>
								</g>
							</g>
							<path class="st2" d="M32.06,63.18l0.57-0.94c1.16,0,2.19,0,2.79,0.01C34.19,62.25,33.03,62.58,32.06,63.18z"/>
							<path class="st2" d="M27.1,62.23c0.61,0,1.55,0,2.6,0.01l0.59,0.94C29.36,62.62,28.27,62.27,27.1,62.23z"/>
							<path class="st2" d="M26.94,62.23c0.03,0,0.06,0,0.08,0.01C26.3,62.23,26.11,62.23,26.94,62.23z"/>
							<g>
								<path class="st2" d="M19.36,67.42c-0.01-3.31,2.68-6,6-6c0.8,0,4.07,0.82,4.84,1.29h1.67c0.64-0.38,3.59-1.3,4.43-1.3
									c3.13,0.01,5.67,2.54,5.67,5.66c-0.01,2.98-2.31,5.42-5.23,5.65c0.24,0.63,0.36,1.31,0.36,2.03c0,0.28-0.02,0.56-0.06,0.83
									v0.01c-0.04,0.33-0.11,0.64-0.21,0.95v0.01c-0.77,2.42-3.03,4.18-5.72,4.19c-2.62,0.01-4.86-1.68-5.67-4.02
									c-0.11-0.32-0.2-0.64-0.25-0.98c-0.06-0.32-0.08-0.65-0.08-0.98c-0.01-0.47,0.06-0.9,0.15-1.34
									C21.99,73.35,19.36,70.69,19.36,67.42z"/>
								<g>
									<path class="st3" d="M35.18,46.88l1.35-0.4c0.05,0.16,0.1,0.33,0.17,0.51c2.41,1.03,1.19,2.7,2.53,4.81
										c0.15-0.17,2.77-4.18,3.22-7.08l0.32-0.1c0.69,3.03-3.89,8.1-3.89,8.1S36.84,47.65,35.18,46.88z"/>
									<path class="st3" d="M21.94,50.83l0.35-0.11l0.11-0.03c0.29,0.49,0.52,0.85,0.63,1.01c0.04,0.05,0.06,0.08,0.07,0.09
										c0.33-0.53,0.51-1.03,0.62-1.49l0.99-0.3c-0.74,1.39-1.27,2.71-1.27,2.71S22.74,51.94,21.94,50.83z"/>
								</g>
								<path class="st3" d="M28.59,60.47l1.21-0.9c0.4-0.18,0.83-0.27,1.27-0.27c0.03,0,0.06,0.01,0.09,0.01
									c0.03,0,0.06-0.01,0.09-0.01c0.44,0,0.87,0.1,1.27,0.27l1.19,0.9l-0.38,0.62c-0.74-0.37-1.79-0.9-2.09-0.9
									c-0.03,0-0.06,0.01-0.08,0.01c0,0,0,0-0.01,0c-0.03,0-0.06-0.01-0.09-0.01c-0.27,0-1.22,0.62-1.97,1.12L28.59,60.47z"/>
								<path class="st4" d="M29.56,73.59c0.7-0.08,1.3-0.51,1.6-1.11c0.3,0.61,0.89,1.04,1.6,1.11c1.74-0.99,2.98-3.52,2.98-6.48
									c0-2.1-0.62-3.98-1.61-5.25c0-0.01-0.01-0.02-0.01-0.02c0,0,0,0,0,0l0,0c-0.51-0.65-1.11-1.13-1.77-1.41
									c-0.38-0.15-0.77-0.24-1.18-0.25v0c0,0,0,0,0,0c0,0,0,0,0,0v0c-0.41,0.01-0.8,0.09-1.18,0.25
									c-0.66,0.27-1.26,0.76-1.77,1.41l0,0c0,0,0,0,0,0c-0.01,0.01-0.01,0.01-0.01,0.02c-0.99,1.27-1.61,3.15-1.61,5.25
									C26.58,70.07,27.82,72.59,29.56,73.59z"/>
								<path class="st2" d="M27.95,74.08c0,0.74,3.24,3.93,3.24,3.93s3.16-3.28,3.16-3.92c0-1.07-0.86-1.94-1.93-1.94
									c-0.37,0-0.71,0.1-1,0.28l-0.53,0c-0.29-0.18-0.63-0.28-1-0.28C28.83,72.15,27.95,73.01,27.95,74.08z"/>
								<g>
									<g>
										<path class="st2" d="M34.59,67.51c0.02-0.05,0.03-0.1,0.03-0.16c0-0.35-0.44-0.64-0.98-0.64s-0.98,0.29-0.98,0.64
											c0,0.06,0.01,0.11,0.03,0.16H34.59z"/>
									</g>
									<g>
										<path class="st2" d="M27.73,67.51c-0.02-0.05-0.03-0.1-0.03-0.16c0-0.35,0.44-0.64,0.98-0.64c0.54,0,0.98,0.29,0.98,0.64
											c0,0.06-0.01,0.11-0.03,0.16H27.73z"/>
									</g>
									<g>
										<path class="st6" d="M29.89,62.71h1.27h0.01h1.27c-0.25-0.34-0.73-0.57-1.27-0.57v0c0,0,0,0,0,0c0,0,0,0,0,0v0
											C30.61,62.14,30.14,62.37,29.89,62.71z"/>
										<path class="st2" d="M31.16,62.77c0.58,0.68,1.4-0.18,1.4-0.18h-1.4h-0.01h-1.4C29.76,62.6,30.58,63.45,31.16,62.77z"/>
									</g>
									<polygon class="st3" points="31.16,66.43 31.16,66.45 31.16,66.44 31.16,66.45 31.16,66.43 31.9,64.09 31.16,64.09 
										31.16,64.09 30.42,64.09 									"/>
									<polygon class="st2" points="29.76,68.91 27.82,68.8 27.79,68.8 27.78,68.78 27.01,67.94 27.86,68.7 27.82,68.69 
										29.76,68.59 									"/>
									<polygon class="st2" points="32.39,68.59 34.33,68.69 34.29,68.7 35.14,67.94 34.37,68.78 34.36,68.8 34.33,68.8 
										32.39,68.91 									"/>
								</g>
								<g>
									<path class="st3" d="M29.66,80.18c-0.02,0.11-0.03,0.23-0.03,0.34c0.03,0.83,0.73,1.47,1.57,1.47
										c0.85,0,1.58-0.65,1.62-1.5c0.01-0.19-0.02-0.37-0.07-0.54c0.82-0.07,1.52-0.76,1.6-1.63c0.08-0.95-0.64-1.72-1.59-1.68
										c-0.25,0.01-1.13,0.33-1.32,0.46l1.2-2.19l-2.85,0.17l1.16,2.05c-0.22-0.13-1.16-0.35-1.39-0.34
										c-0.93,0.04-1.62,0.87-1.54,1.81C28.09,79.49,28.81,80.17,29.66,80.18z"/>
									<path class="st7" d="M29.78,80.13c-0.02,0.11-0.04,0.22-0.04,0.34c-0.01,0.84,0.68,1.53,1.52,1.53
										c0.84,0,1.53-0.67,1.53-1.52c0-0.18-0.03-0.35-0.09-0.52c0.74-0.05,1.33-0.67,1.33-1.43c0-0.8-0.64-1.44-1.44-1.45
										c-0.21,0-0.96,0.23-1.13,0.32l0.98-1.67l-2.38-0.01l0.97,1.68c-0.19-0.12-1.03-0.33-1.23-0.33c-0.84,0-1.53,0.68-1.53,1.52
										C28.29,79.43,28.95,80.11,29.78,80.13z"/>
									<path class="st3" d="M31.26,77.15l-0.63-1.09l1.27,0L31.26,77.15z M32.6,77.41c0.62,0,1.12,0.51,1.12,1.13
										c0,0.58-0.46,1.07-1.04,1.11l-0.42,0.03l0.14,0.4c0.05,0.13,0.07,0.27,0.07,0.41c0,0.66-0.55,1.2-1.21,1.2
										c-0.32,0-0.63-0.13-0.85-0.36c-0.23-0.23-0.35-0.53-0.35-0.85c0-0.09,0.01-0.17,0.03-0.28l0.08-0.38l-0.39-0.01
										c-0.65-0.01-1.18-0.55-1.18-1.21c0-0.32,0.13-0.62,0.36-0.85c0.23-0.23,0.53-0.35,0.86-0.35c0.15,0,0.92,0.2,1.06,0.29
										l0.15-0.14l0.61,0.15C31.76,77.61,32.45,77.41,32.6,77.41z"/>
								</g>
							</g>
						</g>
						<path class="st3" d="M29.82,73.54c-0.08,0.02-0.17,0.04-0.26,0.04C29.65,73.58,29.74,73.56,29.82,73.54z"/>
						<path class="st3" d="M30.51,73.23c-0.01,0.01-0.02,0.01-0.03,0.02C30.49,73.25,30.5,73.24,30.51,73.23z"/>
						<path class="st3" d="M30.29,73.36c-0.02,0.01-0.03,0.01-0.05,0.02C30.26,73.38,30.28,73.37,30.29,73.36z"/>
						<path class="st3" d="M30.06,73.47c-0.03,0.01-0.06,0.02-0.08,0.03C30.01,73.48,30.04,73.48,30.06,73.47z"/>
					</g>
					<path class="st3" d="M20.17,55.7c0.11,0.16,0.22,0.31,0.33,0.45c0.06,0.07,0.12,0.15,0.18,0.23c0.04,0.06,0.09,0.12,0.14,0.17
						v0c0,0,0,0,0,0v0c-0.68,0.95-1.02,1.89-1.14,2.78c-0.05,0.28-0.06,0.55-0.06,0.82c0,1.47,0.54,2.73,1.02,3.56
						c-0.8,1.02-1.29,2.31-1.28,3.71c0,3.28,2.63,5.93,5.9,5.99c-0.1,0.43-0.16,0.87-0.15,1.34c0,0.33,0.03,0.66,0.08,0.98
						c0.05,0.34,0.13,0.66,0.25,0.98c0.65,1.89,2.24,3.35,4.2,3.84c0.04,0.81,0.73,1.44,1.56,1.45c0.01,0,0.02,0,0.03,0V48.05
						l-0.07,0.02l-6.45,1.93c0,0,0,0,0,0l-0.99,0.3c0,0,0,0,0,0l0,0c-0.1,0.41-0.25,0.85-0.52,1.32c-0.03,0.05-0.06,0.1-0.09,0.15
						c0,0.01-0.01,0.01-0.01,0.01c0,0,0,0,0,0c-0.01-0.01-0.03-0.04-0.06-0.08c-0.11-0.16-0.34-0.52-0.63-1.01l-0.06,0.02
						l-0.05,0.01l-0.35,0.11l-3.72,1.11C18.8,53.47,19.5,54.72,20.17,55.7z"/>
				</g>
			</g>
		</g>
	</g>
	<g>
		<path class="st2" d="M14.09,21.01c0.02-0.12,0.04-0.24,0.04-0.37c0-0.91-0.74-1.65-1.65-1.65c-0.91,0-1.65,0.74-1.65,1.65
			c0,0.2,0.03,0.38,0.1,0.56c-0.8,0.06-1.44,0.73-1.44,1.55c0,0.86,0.7,1.56,1.56,1.56c0.23,0,1.04-0.25,1.22-0.36l-1.06,1.81
			l2.57,0l-1.06-1.81c0.21,0.13,1.11,0.35,1.33,0.35c0.91,0,1.65-0.74,1.65-1.65C15.71,21.76,14.98,21.02,14.09,21.01z"/>
		<path class="st3" d="M14.09,21.01c0.02-0.12,0.04-0.24,0.04-0.37c0-0.91-0.74-1.65-1.65-1.65c0,0,0,0-0.01,0v6.77l1.32,0
			l-1.06-1.81c0.21,0.13,1.11,0.35,1.33,0.35c0.91,0,1.65-0.74,1.65-1.65C15.71,21.76,14.98,21.02,14.09,21.01z"/>
	</g>
	<g>
		<path class="st2" d="M52.93,70.36c-0.02,0.12-0.04,0.24-0.04,0.37c0,0.91,0.74,1.65,1.65,1.65c0.91,0,1.65-0.74,1.65-1.65
			c0-0.2-0.03-0.38-0.1-0.56c0.8-0.06,1.44-0.73,1.44-1.55c0-0.86-0.7-1.56-1.56-1.56c-0.23,0-1.04,0.25-1.22,0.36l1.06-1.81
			l-2.57,0l1.06,1.81c-0.21-0.13-1.11-0.35-1.33-0.35c-0.91,0-1.65,0.74-1.65,1.65C51.3,69.61,52.03,70.34,52.93,70.36z"/>
		<path class="st3" d="M52.93,70.36c-0.02,0.12-0.04,0.24-0.04,0.37c0,0.91,0.74,1.65,1.65,1.65c0,0,0,0,0.01,0V65.6l-1.32,0
			l1.06,1.81c-0.21-0.13-1.11-0.35-1.33-0.35c-0.91,0-1.65,0.74-1.65,1.65C51.3,69.61,52.03,70.34,52.93,70.36z"/>
	</g>
</g>
</svg>
