<?xml version="1.0" encoding="utf-8"?>
<!-- Generator: Adobe Illustrator 26.0.3, SVG Export Plug-In . SVG Version: 6.00 Build 0)  -->
<svg version="1.1" id="Layer_1" xmlns="http://www.w3.org/2000/svg" xmlns:xlink="http://www.w3.org/1999/xlink" x="0px" y="0px"
	 viewBox="0 0 66 92" style="enable-background:new 0 0 66 92;" xml:space="preserve">
<style type="text/css">
	.st0{fill:#C9C9C9;}
	.st1{fill:#FFFFFF;}
	.st2{fill:#333333;}
	.st3{opacity:0.2;fill:#616161;}
</style>
<g>
	<g>
		<g>
			<g>
				<path class="st0" d="M9.05,88.96c-3.63,0.01-6.59-2.89-6.56-6.46L2.3,9.54c-0.05-3.59,2.91-6.51,6.55-6.5l48.21,0.09
					c3.63,0.01,6.58,2.93,6.62,6.51v72.8c-0.04,3.56-2.98,6.46-6.6,6.46L9.05,88.96z"/>
			</g>
			<path class="st1" d="M9.65,88.78c-3.58,0-6.5-2.91-6.46-6.48V9.52C3.15,5.95,6.07,3.05,9.65,3.05h47.51c3.58,0,6.5,2.9,6.54,6.48
				V82.3c-0.04,3.57-2.96,6.48-6.54,6.48H9.65z"/>
			<g>
				<path class="st2" d="M53.58,79.13c0.11-0.29,0.3-0.63,0.56-1.03c0.34-0.53,0.62-0.8,0.84-0.8h2.87
					c0.04-0.01,0.08-0.02,0.13-0.03c0.05-0.01,0.11-0.04,0.18-0.08h0.17v0.24c-0.12,0.1-0.23,0.21-0.32,0.33
					c-0.33,0.43-0.74,0.96-1.21,1.57c-0.35,0.45-0.61,0.81-0.77,1.07c-0.26,0.41-0.39,0.75-0.39,1c0,0.16,0.03,0.32,0.1,0.5
					c0.07,0.18,0.16,0.33,0.27,0.45c0.06,0.06,0.18,0.14,0.36,0.24c0.22,0.13,0.39,0.19,0.5,0.19c0.18,0,0.43-0.12,0.74-0.37
					c0.31-0.25,0.49-0.37,0.54-0.37c0.13,0,0.19,0.05,0.19,0.16c0,0.11-0.14,0.31-0.4,0.6c-0.27,0.29-0.52,0.52-0.76,0.68
					c-0.33,0.22-0.52,0.34-0.56,0.36c-0.29,0.16-0.54,0.25-0.74,0.25c-0.4,0-0.77-0.16-1.11-0.48c-0.34-0.32-0.51-0.7-0.51-1.13
					c0-0.41,0.12-0.8,0.36-1.16c0.04-0.06,0.21-0.29,0.52-0.71c0.43-0.59,0.69-0.94,0.77-1.05c0.35-0.47,0.53-0.71,0.53-0.73
					c0-0.09-0.05-0.14-0.16-0.16c-0.11-0.02-0.21-0.03-0.31-0.03c-0.07,0-0.15,0-0.24,0c-0.09,0-0.14,0-0.15,0
					c-0.55,0-0.96,0.07-1.22,0.21c-0.2,0.16-0.4,0.32-0.6,0.48c-0.02,0-0.05-0.01-0.08-0.02c-0.03-0.01-0.05-0.02-0.06-0.03V79.13z"
					/>
			</g>
			<g>
				<path class="st2" d="M14.35,13.5c-0.11,0.29-0.3,0.63-0.56,1.03c-0.34,0.53-0.62,0.8-0.84,0.8h-2.87
					c-0.04,0.01-0.08,0.02-0.13,0.03c-0.05,0.01-0.11,0.04-0.18,0.08H9.6v-0.24c0.12-0.1,0.23-0.21,0.32-0.33
					c0.33-0.43,0.74-0.96,1.21-1.57c0.35-0.45,0.61-0.81,0.77-1.07c0.26-0.41,0.39-0.75,0.39-1c0-0.16-0.03-0.32-0.1-0.5
					c-0.07-0.18-0.16-0.33-0.27-0.45c-0.06-0.06-0.18-0.14-0.36-0.25c-0.22-0.12-0.39-0.19-0.5-0.19c-0.18,0-0.43,0.12-0.74,0.37
					c-0.31,0.25-0.49,0.37-0.54,0.37c-0.13,0-0.19-0.05-0.19-0.16s0.14-0.31,0.4-0.6c0.27-0.29,0.52-0.52,0.76-0.68
					c0.33-0.22,0.52-0.34,0.56-0.36c0.29-0.16,0.54-0.25,0.74-0.25c0.4,0,0.77,0.16,1.11,0.48c0.34,0.32,0.51,0.7,0.51,1.13
					c0,0.42-0.12,0.8-0.36,1.16c-0.04,0.06-0.21,0.29-0.52,0.71c-0.43,0.59-0.69,0.94-0.77,1.05c-0.35,0.46-0.53,0.71-0.53,0.73
					c0,0.09,0.05,0.14,0.16,0.16c0.11,0.02,0.21,0.03,0.31,0.03c0.07,0,0.15,0,0.24,0c0.09,0,0.14,0,0.15,0
					c0.55,0,0.96-0.07,1.22-0.21c0.2-0.16,0.4-0.32,0.6-0.48c0.02,0,0.05,0.01,0.08,0.02c0.03,0.01,0.05,0.02,0.06,0.03V13.5z"/>
			</g>
		</g>
	</g>
	<g>
		<path class="st2" d="M29.94,29.43c-0.05-0.26-0.09-0.52-0.09-0.8c0-1.97,1.6-3.57,3.57-3.57c1.97,0,3.57,1.59,3.57,3.57
			c0,0.43-0.08,0.83-0.21,1.21c1.74,0.14,3.11,1.59,3.11,3.36c0,1.87-1.52,3.37-3.38,3.38c-0.5,0-2.26-0.55-2.64-0.77l2.29,3.92
			l-5.57,0l2.29-3.92c-0.46,0.28-2.41,0.77-2.88,0.77c-1.98,0-3.58-1.6-3.57-3.58C26.43,31.04,28,29.46,29.94,29.43z"/>
		<path class="st3" d="M29.94,29.43c-0.05-0.26-0.09-0.52-0.09-0.8c0-1.97,1.6-3.57,3.57-3.57c0,0,0.01,0,0.02,0v14.66l-2.85,0
			l2.29-3.92c-0.46,0.28-2.41,0.77-2.88,0.77c-1.98,0-3.58-1.6-3.57-3.58C26.43,31.04,28,29.46,29.94,29.43z"/>
	</g>
	<g>
		<path class="st2" d="M12.62,19.36c0.01-0.06,0.02-0.12,0.02-0.18c0-0.45-0.37-0.81-0.81-0.81c-0.45,0-0.82,0.36-0.82,0.81
			c0,0.1,0.02,0.19,0.05,0.28c-0.4,0.03-0.71,0.36-0.71,0.77c0,0.43,0.35,0.77,0.77,0.77c0.11,0,0.52-0.12,0.6-0.18l-0.52,0.9
			l1.27,0l-0.52-0.89c0.1,0.06,0.55,0.18,0.66,0.18c0.45,0,0.82-0.37,0.82-0.82C13.42,19.73,13.06,19.37,12.62,19.36z"/>
		<path class="st3" d="M12.62,19.36c0.01-0.06,0.02-0.12,0.02-0.18c0-0.45-0.37-0.81-0.81-0.81c0,0,0,0,0,0v3.35l0.65,0l-0.52-0.89
			c0.1,0.06,0.55,0.18,0.66,0.18c0.45,0,0.82-0.37,0.82-0.82C13.42,19.73,13.06,19.37,12.62,19.36z"/>
	</g>
	<g>
		<path class="st2" d="M56.86,73.43c0.01,0.06,0.02,0.12,0.02,0.18c0,0.45-0.37,0.81-0.81,0.81c-0.45,0-0.82-0.36-0.82-0.81
			c0-0.1,0.02-0.19,0.05-0.28c-0.4-0.03-0.71-0.36-0.71-0.77c0-0.43,0.35-0.77,0.77-0.77c0.11,0,0.52,0.12,0.6,0.18l-0.52-0.9
			l1.27,0l-0.52,0.89c0.1-0.06,0.55-0.18,0.66-0.18c0.45,0,0.82,0.37,0.82,0.82C57.67,73.06,57.31,73.42,56.86,73.43z"/>
		<path class="st3" d="M56.86,73.43c0.01,0.06,0.02,0.12,0.02,0.18c0,0.45-0.37,0.81-0.81,0.81c0,0,0,0,0,0v-3.35l0.65,0l-0.52,0.89
			c0.1-0.06,0.55-0.18,0.66-0.18c0.45,0,0.82,0.37,0.82,0.82C57.67,73.06,57.31,73.42,56.86,73.43z"/>
	</g>
	<g>
		<path class="st2" d="M30.51,62.58c-0.05,0.26-0.09,0.52-0.09,0.8c0,1.97,1.6,3.57,3.57,3.57c1.97,0,3.57-1.59,3.57-3.57
			c0-0.43-0.08-0.83-0.21-1.21c1.74-0.14,3.11-1.59,3.11-3.36c0-1.87-1.52-3.37-3.38-3.38c-0.5,0-2.26,0.55-2.64,0.77l2.29-3.92
			l-5.57,0l2.29,3.92c-0.46-0.28-2.41-0.77-2.88-0.77c-1.98,0-3.58,1.6-3.57,3.58C26.99,60.96,28.56,62.54,30.51,62.58z"/>
		<path class="st3" d="M30.51,62.58c-0.05,0.26-0.09,0.52-0.09,0.8c0,1.97,1.6,3.57,3.57,3.57c0,0,0.01,0,0.02,0V52.28l-2.85,0
			l2.29,3.92c-0.46-0.28-2.41-0.77-2.88-0.77c-1.98,0-3.58,1.6-3.57,3.58C26.99,60.96,28.56,62.54,30.51,62.58z"/>
	</g>
</g>
</svg>
