<?xml version="1.0" encoding="utf-8"?>
<!-- Generator: Adobe Illustrator 26.0.3, SVG Export Plug-In . SVG Version: 6.00 Build 0)  -->
<svg version="1.1" id="Layer_1" xmlns="http://www.w3.org/2000/svg" xmlns:xlink="http://www.w3.org/1999/xlink" x="0px" y="0px"
	 viewBox="0 0 66 92" style="enable-background:new 0 0 66 92;" xml:space="preserve">
<style type="text/css">
	.st0{fill:#C9C9C9;}
	.st1{fill:#FFFFFF;}
	.st2{fill:#333333;}
	.st3{fill:#757575;}
	.st4{fill:#EBB07A;}
	.st5{opacity:0.2;fill:#616161;}
	.st6{opacity:0.2;}
	.st7{fill:#616161;}
	.st8{fill:#1C1C1C;}
	.st9{fill:#ABABAB;}
	.st10{opacity:0.2;fill:#FFFFFF;}
	.st11{fill:#EBEBEB;}
	.st12{fill:#FFD675;}
</style>
<g>
	<g>
		<g>
			<g>
				<path class="st0" d="M10.01,87.26c-3.48,0.01-6.33-2.78-6.33-6.2L3.5,11.03C3.49,7.58,6.33,4.78,9.83,4.79L56.1,4.87
					c3.48,0.01,6.32,2.81,6.32,6.25V81c0,3.42-2.82,6.2-6.29,6.2L10.01,87.26z"/>
				<path class="st1" d="M10.66,87.04c-3.44,0-6.24-2.79-6.24-6.22V10.96c0-3.43,2.8-6.22,6.24-6.22h45.6
					c3.44,0,6.24,2.79,6.24,6.22v69.86c0,3.43-2.8,6.22-6.24,6.22H10.66z"/>
				<g>
					<path class="st2" d="M56.18,85.77h-45.6c-2.67,0-4.83-2.16-4.83-4.81V11.1c0-2.55,2.03-4.63,3.11-5.03l0.16-0.06l45.85,0
						c4.53,0.35,6.15,2.86,6.15,5.09v69.86C61.02,83.61,58.85,85.77,56.18,85.77z M9.41,7.92C8.91,8.23,7.66,9.51,7.66,11.1v69.86
						c0,1.6,1.31,2.9,2.92,2.9h45.6c1.61,0,2.92-1.3,2.92-2.9V11.1c0-1.77-1.63-2.96-4.35-3.18H9.41z"/>
				</g>
				<g>
					<path class="st2" d="M14.51,10.53c-0.19,0.32-0.42,0.56-0.7,0.73c-0.28,0.17-0.56,0.25-0.84,0.25c-0.09,0-0.41-0.07-0.96-0.21
						c-0.26-0.07-0.49-0.1-0.7-0.1c-0.13,0-0.27,0.02-0.4,0.05c-0.14,0.03-0.25,0.09-0.35,0.17h-0.1V11.3
						c0.19-0.42,0.41-0.72,0.67-0.9c0.26-0.18,0.6-0.27,1.03-0.27c0.31,0,0.6,0.05,0.88,0.15c0.28,0.1,0.55,0.15,0.81,0.15
						c0.08,0,0.18,0,0.29-0.01c0.11-0.01,0.23-0.02,0.37-0.04V10.53z M14.54,15.84c0,0.59-0.22,1.07-0.67,1.43
						c-0.45,0.36-1.02,0.54-1.72,0.54c-0.43,0-0.79-0.08-1.07-0.25c-0.34-0.2-0.51-0.48-0.51-0.86c0-0.17,0.05-0.33,0.14-0.46
						c0.13-0.18,0.32-0.27,0.58-0.27c0.16,0,0.31,0.05,0.43,0.16c0.12,0.11,0.19,0.24,0.19,0.39c0,0.26-0.11,0.43-0.32,0.52
						c-0.22,0.09-0.33,0.15-0.33,0.19c0.04,0.08,0.08,0.14,0.12,0.17c0.13,0.11,0.31,0.17,0.55,0.17c0.24,0,0.45-0.06,0.62-0.17
						c0.17-0.11,0.26-0.27,0.26-0.48v-5.09c0.31-0.1,0.61-0.2,0.88-0.3c0.27-0.1,0.51-0.25,0.72-0.44h0.15V15.84z"/>
				</g>
				<g>
					<path class="st2" d="M52.46,76.98c0-0.59,0.22-1.07,0.67-1.43c0.45-0.36,1.02-0.54,1.72-0.54c0.43,0,0.79,0.08,1.07,0.25
						c0.34,0.2,0.51,0.48,0.51,0.86c0,0.17-0.05,0.33-0.14,0.46c-0.13,0.18-0.33,0.27-0.58,0.27c-0.16,0-0.31-0.05-0.43-0.16
						c-0.12-0.1-0.19-0.24-0.19-0.39c0-0.26,0.11-0.43,0.32-0.52c0.22-0.09,0.33-0.15,0.33-0.19c-0.04-0.08-0.08-0.14-0.12-0.17
						c-0.13-0.11-0.31-0.17-0.55-0.17s-0.45,0.06-0.62,0.17c-0.17,0.11-0.26,0.27-0.26,0.48v5.09c-0.31,0.1-0.61,0.2-0.88,0.3
						c-0.27,0.1-0.51,0.25-0.72,0.44h-0.15V76.98z M52.48,82.28c0.19-0.32,0.42-0.56,0.7-0.73c0.28-0.17,0.56-0.25,0.84-0.25
						c0.09,0,0.41,0.07,0.96,0.21c0.26,0.07,0.49,0.1,0.7,0.1c0.13,0,0.27-0.02,0.4-0.05c0.14-0.03,0.25-0.09,0.35-0.17h0.1v0.13
						c-0.19,0.42-0.41,0.72-0.67,0.9c-0.26,0.18-0.6,0.27-1.03,0.27c-0.31,0-0.6-0.05-0.88-0.15c-0.28-0.1-0.55-0.15-0.81-0.15
						c-0.08,0-0.18,0-0.29,0.01c-0.11,0.01-0.23,0.02-0.37,0.04V82.28z"/>
				</g>
			</g>
			<g>
				<g>
					<g>
						<polygon class="st3" points="28.95,30.47 26.9,31.29 27.37,32.15 35.5,32.05 36.07,31.29 34.25,30.47 						"/>
						<g>
							<rect x="28.95" y="27.93" class="st4" width="5.3" height="5.53"/>
							<path class="st5" d="M34.25,29v1.35c-0.65,0.61-1.39,1.01-2.17,1.01h-1c-0.77,0-1.49-0.39-2.13-0.98v-1.32l0.46,0.73
								l0.12-1.84h4.12l0.12,1.84L34.25,29z"/>
							<path class="st2" d="M34.56,14.36c0.05-0.22,0.1-0.45,0.08-0.69c-0.09-0.73-1.6-1.71-3.05-1.71c-1.69,0-2.97,0.87-3.08,1.71
								c-0.05,0.36,0.06,0.71,0.18,1.04c-1.49,0.12-2.67,1.36-2.67,2.89c0,1.6,1.3,2.89,2.9,2.9c0.43,0,1.94-0.47,2.26-0.66l0.86,0
								c0.39,0.24,2.07,0.66,2.47,0.66c1.7,0,3.07-1.37,3.07-3.07C37.58,15.75,36.23,14.39,34.56,14.36z"/>
							<path class="st4" d="M32.09,15.32h-0.5h-0.5c-2.62,0-4.74,1.79-4.74,4c0,0,0.02,5.41,0.06,5.67
								c0.36,2.33,2.32,5.94,4.68,5.94h0.5h0.5c2.36,0,4.31-3.61,4.68-5.94c0.04-0.26,0.06-5.67,0.06-5.67
								C36.83,17.11,34.71,15.32,32.09,15.32z"/>
							<path class="st2" d="M30.45,30.18c-0.02,0.09-0.03,0.18-0.03,0.28c0,0.7,0.57,1.27,1.27,1.26c0.7,0,1.27-0.56,1.27-1.26
								c0-0.15-0.03-0.3-0.08-0.43c0.62-0.05,1.1-0.56,1.1-1.19c0-0.66-0.54-1.2-1.2-1.2c-0.18,0-0.8,0.19-0.93,0.27l-0.35,0
								c-0.16-0.1-0.85-0.27-1.02-0.27c-0.7,0-1.27,0.57-1.27,1.27C29.2,29.61,29.76,30.17,30.45,30.18z"/>
							<path class="st4" d="M32.86,28.85c-0.15,0-0.26-0.05-0.33-0.09l-0.3-0.18l-1.24-0.01l-0.31,0.19
								c-0.1,0.06-0.21,0.09-0.32,0.09c-0.18,0-0.28,0-0.47-0.19c-0.3-0.35,1.3-2.54,1.71-2.54c0.41,0,2.07,2.06,1.74,2.55
								C33.21,28.78,33.04,28.85,32.86,28.85L32.86,28.85z"/>
							<g>
								<path class="st2" d="M28.54,21.73c-0.1,0.12-0.16,0.27-0.16,0.42c0,0.41,0.39,0.75,0.88,0.75c0.49,0,0.88-0.34,0.88-0.75
									c0-0.16-0.06-0.3-0.16-0.42H28.54z"/>
								<polygon class="st5" points="31.93,21.01 31.59,21.01 31.25,21.01 30.78,24.48 31.59,25.41 32.4,24.48 								"/>
								<path class="st2" d="M34.63,21.73c0.1,0.12,0.16,0.27,0.16,0.42c0,0.41-0.39,0.75-0.88,0.75c-0.49,0-0.88-0.34-0.88-0.75
									c0-0.16,0.06-0.3,0.16-0.42H34.63z"/>
							</g>
							<g class="st6">
								<rect x="30.64" y="27.16" class="st7" width="1.94" height="0.48"/>
							</g>
							<polygon class="st2" points="32.94,19.86 35.57,20.17 32.94,20.49 							"/>
							<polygon class="st2" points="30.24,20.49 27.67,20.17 30.24,19.86 							"/>
						</g>
						<path class="st3" d="M44.82,31.99l-2.01,1.88l-0.88,2.67c0,0,2.98-0.6,2.99-0.52L44.82,31.99z"/>
						<path class="st3" d="M18.57,31.99l2.01,1.88l0.88,2.67c0,0-2.98-0.6-2.99-0.52L18.57,31.99z"/>
						<path class="st8" d="M19.77,33.46l-0.28,0.56l-0.66,2.14c0,0,3.71-1.03,3.54-0.92L19.77,33.46z"/>
						<polygon class="st9" points="47.23,39.32 45.23,39.92 41.62,41 41.39,41.06 36.76,42.44 36.63,42.48 36.35,42.57 34.94,42.99 
							34.39,43.15 32.63,43.68 31.75,43.94 28.34,44.96 27.63,45.17 27.47,45.22 26.58,45.48 26.02,45.65 24.4,46.13 21.97,46.86 
							21.96,46.17 21.95,44.17 20.34,46.88 20.34,47.34 18.65,47.85 14.58,49.07 14.58,43.35 14.59,43.06 14.59,43.04 14.59,43.03 
							14.63,42.17 14.77,41.85 15.57,39.95 16.37,38.05 17.23,36.02 17.55,35.26 17.91,34.4 18.5,34.26 19.49,34.02 19.54,34.01 
							19.62,33.99 19.74,33.96 19.8,33.95 20.02,33.9 20.3,33.83 20.31,33.83 20.34,33.82 20.49,33.78 23.19,33.13 23.48,33.06 
							23.6,33.03 23.9,32.95 26.06,32.43 26.1,32.42 26.35,32.36 27.17,32.16 27.35,32.11 28.95,31.73 34.25,31.73 35.51,32.04 
							35.82,32.11 35.99,32.15 37.91,32.62 39.64,33.04 42.87,33.82 43.05,33.87 43.8,34.05 44.82,34.29 44.88,34.31 45.27,34.4 
							46.07,36.41 46.87,38.43 47.1,38.98 						"/>
						<polygon class="st10" points="37.91,32.62 32.34,38.2 32.1,38.43 31.15,39.38 31.14,39.39 29.61,40.92 29.53,41 26.85,43.68 
							26.03,44.51 25.65,44.88 25.24,45.3 24.4,46.13 21.97,46.86 21.96,46.17 24.46,43.68 24.87,43.27 25.16,42.98 26.02,42.12 
							26.28,41.85 26.54,41.59 26.65,41.49 29.81,38.33 29.86,38.28 29.98,38.17 29.98,38.16 30.88,37.25 31.11,37.02 35.99,32.15 
													"/>
						<polygon class="st10" points="44.82,34.29 41.47,37.65 36.72,42.4 36.63,42.48 36.35,42.57 34.94,42.99 34.39,43.15 
							32.63,43.68 31.75,43.94 28.34,44.96 27.63,45.17 27.47,45.22 27.59,45.09 28.1,44.59 30.49,42.2 30.73,41.95 32.02,40.66 
							32.17,40.51 33.43,39.25 39.64,33.04 42.87,33.82 43.05,33.87 43.8,34.05 						"/>
						<path class="st5" d="M36.76,42.44l-0.13,0.04l-0.28,0.08l-1.41,0.42l-0.55,0.16l-1.76,0.53l-0.88,0.26l-3.41,1.02l-0.71,0.21
							l-0.16,0.05l-0.89,0.27l-0.56,0.17l-0.37-0.77l-0.78-1.62l-2.5-5.21l-1.21-2.53l-0.11-0.24l0,0l-0.68-1.41v0l-0.02-0.05
							l0.15-0.03l2.71-0.66l0.29-0.07l0.12-0.03l0.29-0.08l2.17-0.52l0.04-0.01l0.25-0.06c0.77,0.78,2.58,2.55,4.77,4.66
							c0.39,0.38,0.81,0.77,1.22,1.18c0.36,0.35,0.72,0.7,1.09,1.06c1.09,1.04,2.2,2.11,3.29,3.15
							C36.73,42.41,36.75,42.43,36.76,42.44z"/>
						<path class="st2" d="M31.75,43.94l-3.41,1.02l-0.71,0.21l-0.16,0.05l-0.89,0.27l-0.55-0.97l-0.86-1.53l-2.79-4.92l-0.99-1.75
							l-0.41-0.73l-0.95-1.68l-0.24-0.43l0.29-0.08l5.61-1.4c0.06,0.08,0.19,0.23,0.38,0.44c0.79,0.85,2.63,2.67,4.82,4.82
							c0.39,0.39,0.8,0.78,1.21,1.18c0.36,0.35,0.72,0.71,1.09,1.06c1.04,1.02,2.12,2.07,3.16,3.07l-1.41,0.42l-0.55,0.16
							l-1.76,0.53L31.75,43.94z"/>
						<polygon class="st11" points="26.9,31.29 27.17,32.16 31.37,34.6 31.24,31.73 						"/>
						<polygon class="st11" points="36.07,31.29 35.8,32.16 31.6,34.6 31.73,31.73 						"/>
						<path class="st5" d="M31.15,39.38l0.78,0.83C31.65,39.92,31.39,39.65,31.15,39.38c-0.47-0.47-0.87-0.89-1.17-1.22
							c-0.29-0.31-0.5-0.54-0.62-0.66l0.63,0.66L31.15,39.38z"/>
						<path class="st5" d="M32.17,40.51c0.93,0.88,1.87,1.73,2.76,2.48l-0.55,0.16l-2.37-2.49l-1.05-1.1l-0.12-0.12l-1.05-1.1
							l-2.09-2.19l-0.05-0.06c0.02,0.02,0.03,0.04,0.06,0.06c0.65,0.66,1.37,1.4,2.13,2.15c0.35,0.35,0.72,0.71,1.09,1.06
							c0.04,0.04,0.08,0.08,0.12,0.12C31.43,39.82,31.8,40.17,32.17,40.51z"/>
						<polygon class="st5" points="28.34,44.96 27.63,45.17 27.59,45.09 26.85,43.68 26.02,42.12 25.1,40.37 24,38.41 26.28,41.85 
							27.24,43.29 28.1,44.59 						"/>
						<polygon class="st5" points="32.63,43.68 31.75,43.94 31.1,42.96 30.49,42.2 29.53,41 29.06,40.43 29.61,40.92 30.73,41.95 
													"/>
						<polygon class="st5" points="21.95,44.17 20.34,46.88 20.34,47.34 18.65,47.85 17.41,47.6 19.11,46.83 						"/>
						<polygon class="st5" points="47.23,39.32 45.23,39.92 41.62,41 41.39,41.06 41.17,38.36 41.47,37.65 41.94,36.53 43.05,33.87 
							43.8,34.05 44.82,34.29 44.88,34.31 45.27,34.4 46.07,36.41 46.87,38.43 47.1,38.98 						"/>
						<path class="st9" d="M45.23,39.92L41.62,41l-0.02-2.56l0.92-1.84l0.1-0.2l1.17-2.35l1.03-2.06c0,0,2.62,3.3,2.7,3.24
							c0.02,0,0.09,0.39,0.2,0.98c0.12,0.73,0.29,1.78,0.45,2.84l-0.84,0.25l-0.09,0.03L45.23,39.92z"/>
						<path class="st5" d="M22.02,38.64l-0.07,4.55l-6.21-1.05c0,0-0.01-0.25,0.03-0.5l1.78-6.39l0.36-0.85l1.63-0.39l0.08-0.02
							l0.12-0.03l0.06-0.01L22.02,38.64z"/>
						<path class="st9" d="M21.95,43.72l-5.86-0.53l-1.5-0.14h0c0,0,0-0.01,0-0.02c0,0,0,0,0-0.01c0.02-0.12,0.08-0.56,0.18-1.18
							c0.33-2.2,1-6.63,1.07-6.63c0.08,0.06,2.7-3.24,2.7-3.24l0.02,0.04l0.99,1.98l2.21,4.42L21.95,43.72z"/>
						<path class="st10" d="M48.17,39.04L48.17,39.04l-0.85,0.25l-0.09,0.04l-0.43,0.12l-0.48,0.14l-1.1,0.33l0.84-3.5l0.2-0.86
							l-1.44-3.57c0.15,0.19,2.57,3.23,2.69,3.23c0.02,0,0.08,0.34,0.17,0.86c0.01,0.04,0.02,0.08,0.03,0.13
							c0.01,0.05,0.02,0.1,0.03,0.16c0.04,0.24,0.08,0.5,0.13,0.78c0.01,0.11,0.03,0.23,0.06,0.35c0,0.04,0.01,0.08,0.02,0.13
							c0.03,0.2,0.06,0.4,0.1,0.62c0.01,0.04,0.01,0.07,0.01,0.1C48.1,38.58,48.13,38.81,48.17,39.04z"/>
						<path class="st10" d="M18.55,32.03l-1.43,3.53l0.11,0.46l1.23,5.15l-2.37,2.04l-0.52,0.45c0,0-0.77,3.13-0.86,3.23
							c-0.02,0.02-0.06,0.01-0.13-0.02v-3.5l0.01-0.3c0,0,0-0.01,0-0.02c0-0.01,0-0.01,0-0.01l0.04-0.87l0.13-0.29l0.01-0.03v-0.02
							c0.23-1.5,0.6-4.01,0.85-5.47c0.02-0.11,0.03-0.21,0.05-0.3c0.09-0.52,0.15-0.85,0.17-0.85c0.13,0,2.7-3.23,2.7-3.23h0.03
							L18.55,32.03z"/>
						<path class="st2" d="M31.59,14.27l-3.53,1.05l-1.97,2.67v4.44l0.64,0.37l0.11-4.61c0,0,0.11-1.61,1.5-1.61
							c1.38,0,3.26,0.97,3.26,0.97s1.9-0.97,3.26-0.97c1.35,0,1.49,1.61,1.49,1.61l0.11,4.61l0.64-0.37l0.41-4.2l-1.93-2.9
							L31.59,14.27z"/>
						<g>
							<path class="st2" d="M16.57,39.37c-0.13,0.78-0.6,1.34-1.06,1.26c-0.16-0.03-0.29-0.13-0.39-0.27l0.27,1.58l-0.61-0.1
								c0.23-1.5,0.6-4.01,0.85-5.47c0.03-0.03,0.04-0.05,0.04-0.05S16.66,38.84,16.57,39.37z"/>
						</g>
						<path class="st5" d="M25.52,33.86c-0.02-0.09-0.05-0.18-0.09-0.26c-0.29-0.61-1.07-0.9-1.77-0.66
							c-0.72,0.24-1.13,0.97-0.87,1.63c0.06,0.15,0.14,0.28,0.25,0.39c-0.68,0.31-1.06,1.08-0.83,1.77c0.26,0.76,1.14,1.1,1.93,0.75
							c0.21-0.09,0.83-0.62,0.94-0.78l-0.27,2.04l2.23-1.08l-1.58-1.13c0.22,0.03,1.04-0.11,1.22-0.19
							c0.71-0.32,0.98-1.12,0.63-1.79C26.98,33.92,26.19,33.62,25.52,33.86z"/>
						<path class="st12" d="M25.48,34.12c-0.02-0.09-0.04-0.19-0.08-0.28c-0.28-0.66-1.04-0.96-1.7-0.68
							c-0.66,0.28-0.96,1.04-0.68,1.7c0.06,0.14,0.14,0.27,0.24,0.37c-0.56,0.29-0.81,0.98-0.56,1.57c0.27,0.62,0.99,0.91,1.61,0.64
							c0.17-0.07,0.68-0.51,0.77-0.63l-0.2,1.64l1.86-0.8l-1.32-0.98c0.19,0.03,0.91-0.09,1.07-0.16c0.66-0.28,0.97-1.05,0.68-1.7
							C26.89,34.16,26.14,33.85,25.48,34.12z"/>
						<path class="st5" d="M25.37,37.03l0.73,0.54l-0.84,0.36L25.37,37.03z M23.83,37.22c-0.36,0-0.69-0.22-0.84-0.55
							c-0.18-0.43,0-0.94,0.41-1.16l0.37-0.19l-0.29-0.31c-0.08-0.08-0.14-0.17-0.18-0.28c-0.21-0.49,0.02-1.07,0.52-1.28
							c0.12-0.05,0.25-0.08,0.39-0.08c0.39,0,0.75,0.23,0.9,0.59c0.03,0.06,0.05,0.13,0.07,0.22l0.08,0.38l0.36-0.14
							c0.12-0.05,0.24-0.07,0.37-0.07c0.39,0,0.75,0.23,0.9,0.59c0.1,0.24,0.11,0.51,0.01,0.75c-0.1,0.24-0.28,0.43-0.52,0.53
							c-0.11,0.04-0.64,0.13-0.87,0.13l-0.67,0.27c-0.07,0.1-0.52,0.47-0.64,0.53C24.07,37.2,23.95,37.22,23.83,37.22z"/>
					</g>
					<path class="st5" d="M48.17,39.04c-0.03-0.21-0.07-0.42-0.1-0.62c0-0.03-0.01-0.06-0.01-0.09c0-0.02-0.01-0.05-0.01-0.08
						c-0.03-0.22-0.06-0.42-0.1-0.62c-0.01-0.05-0.02-0.1-0.02-0.13c-0.03-0.12-0.04-0.24-0.06-0.35c-0.04-0.29-0.09-0.55-0.13-0.78
						c-0.01-0.06-0.02-0.11-0.03-0.16c-0.01-0.04-0.01-0.09-0.03-0.13c-0.1-0.52-0.15-0.86-0.17-0.86c-0.12,0-2.54-3.04-2.69-3.23
						l0.01,0.02c-0.01-0.01-0.02-0.02-0.02-0.02l-1.96,1.83l-3.22-0.78l-1.73-0.42l-1.92-0.47l-0.17-0.04l0,0l0.26-0.82l-1.82-0.81
						v-0.56c1.31-1.24,2.27-3.36,2.51-4.93c0.02-0.11,0.03-1.2,0.04-2.4l0.28-0.16l0.41-4.2l-0.03-0.04
						c0.06-0.25,0.11-0.5,0.11-0.76c0-1.67-1.35-3.03-3.01-3.06c0.05-0.22,0.1-0.45,0.08-0.69c-0.09-0.73-1.6-1.71-3.04-1.71v32.02
						l0.16-0.05l0.88-0.26l1.76-0.53l0.55-0.16l1.41-0.42l0.28-0.08l0.13-0.04l4.63-1.38L41.62,41l3.61-1.08l1.68-0.5l0.33-0.09
						l0.05-0.02l0.03-0.01L48.17,39.04C48.17,39.04,48.17,39.04,48.17,39.04L48.17,39.04z"/>
				</g>
				<g>
					<g>
						<polygon class="st3" points="33.8,61.74 35.85,60.93 35.38,60.06 27.25,60.16 26.68,60.93 28.5,61.74 						"/>
						<g>
							<rect x="28.5" y="58.75" class="st4" width="5.3" height="5.53"/>
							<path class="st5" d="M28.5,63.22v-1.35c0.65-0.61,1.39-1.01,2.17-1.01h1c0.77,0,1.49,0.39,2.13,0.98v1.32l-0.46-0.73
								l-0.12,1.84H29.1l-0.12-1.84L28.5,63.22z"/>
							<path class="st2" d="M28.19,77.85c-0.05,0.22-0.1,0.45-0.08,0.69c0.09,0.73,1.6,1.71,3.05,1.71c1.69,0,2.97-0.87,3.08-1.71
								c0.05-0.36-0.06-0.71-0.18-1.04c1.49-0.12,2.67-1.36,2.67-2.89c0-1.6-1.3-2.89-2.9-2.9c-0.43,0-1.94,0.47-2.26,0.66l-0.86,0
								c-0.39-0.24-2.07-0.66-2.47-0.66c-1.7,0-3.07,1.37-3.07,3.07C25.17,76.47,26.52,77.83,28.19,77.85z"/>
							<path class="st4" d="M30.66,76.89h0.5h0.5c2.62,0,4.74-1.79,4.74-4c0,0-0.02-5.41-0.06-5.67c-0.36-2.33-2.32-5.94-4.68-5.94
								h-0.5h-0.5c-2.36,0-4.31,3.61-4.68,5.94c-0.04,0.26-0.06,5.67-0.06,5.67C25.92,75.1,28.04,76.89,30.66,76.89z"/>
							<path class="st2" d="M32.3,62.03c0.02-0.09,0.03-0.18,0.03-0.28c0-0.7-0.57-1.27-1.27-1.26c-0.7,0-1.27,0.56-1.27,1.26
								c0,0.15,0.03,0.3,0.08,0.43c-0.62,0.05-1.1,0.56-1.1,1.19c0,0.66,0.54,1.2,1.2,1.2c0.18,0,0.8-0.19,0.93-0.27l0.35,0
								c0.16,0.1,0.85,0.27,1.02,0.27c0.7,0,1.27-0.57,1.27-1.27C33.55,62.6,32.99,62.04,32.3,62.03z"/>
							<path class="st4" d="M29.89,63.36c0.15,0,0.26,0.05,0.33,0.09l0.3,0.18l1.24,0.01l0.31-0.19c0.1-0.06,0.21-0.09,0.32-0.09
								c0.18,0,0.28,0,0.47,0.19c0.3,0.35-1.3,2.54-1.71,2.54s-2.07-2.06-1.74-2.55C29.54,63.43,29.71,63.36,29.89,63.36
								L29.89,63.36z"/>
							<g>
								<path class="st2" d="M34.21,70.48c0.1-0.12,0.16-0.27,0.16-0.42c0-0.41-0.39-0.75-0.88-0.75c-0.49,0-0.88,0.33-0.88,0.75
									c0,0.16,0.06,0.3,0.16,0.42H34.21z"/>
								<polygon class="st5" points="30.82,71.21 31.16,71.21 31.5,71.21 31.97,67.74 31.16,66.8 30.35,67.74 								"/>
								<path class="st2" d="M28.12,70.48c-0.1-0.12-0.16-0.27-0.16-0.42c0-0.41,0.39-0.75,0.88-0.75c0.49,0,0.88,0.33,0.88,0.75
									c0,0.16-0.06,0.3-0.16,0.42H28.12z"/>
							</g>
							<g class="st6">
								<rect x="30.17" y="64.58" class="st7" width="1.94" height="0.48"/>
							</g>
							<polygon class="st2" points="29.81,72.36 27.18,72.04 29.81,71.72 							"/>
							<polygon class="st2" points="32.51,71.72 35.08,72.04 32.51,72.36 							"/>
						</g>
						<path class="st3" d="M17.93,60.23l2.01-1.88l0.88-2.67c0,0-2.98,0.6-2.99,0.52L17.93,60.23z"/>
						<path class="st3" d="M44.18,60.23l-2.01-1.88l-0.88-2.67c0,0,2.98,0.6,2.99,0.52L44.18,60.23z"/>
						<path class="st8" d="M42.98,58.75l0.28-0.56l0.66-2.14c0,0-3.71,1.03-3.54,0.92L42.98,58.75z"/>
						<polygon class="st9" points="15.52,52.89 17.52,52.3 21.13,51.22 21.36,51.15 25.99,49.77 26.12,49.73 26.4,49.65 
							27.81,49.23 28.36,49.06 30.12,48.53 31,48.27 34.41,47.25 35.12,47.05 35.28,47 36.17,46.73 36.73,46.56 38.35,46.08 
							40.78,45.35 40.79,46.04 40.8,48.05 42.41,45.34 42.41,44.87 44.1,44.36 48.17,43.15 48.17,48.86 48.16,49.15 48.16,49.18 
							48.16,49.18 48.12,50.04 47.98,50.36 47.18,52.26 46.38,54.16 45.52,56.19 45.2,56.96 44.84,57.81 44.24,57.96 43.26,58.19 
							43.21,58.2 43.13,58.22 43.01,58.25 42.95,58.27 42.73,58.32 42.45,58.39 42.44,58.39 42.41,58.4 42.26,58.43 39.56,59.09 
							39.27,59.16 39.15,59.19 38.85,59.26 36.69,59.78 36.65,59.79 36.4,59.86 35.58,60.06 35.4,60.1 33.8,60.48 28.5,60.48 
							27.24,60.18 26.93,60.1 26.76,60.06 24.84,59.6 23.1,59.17 19.88,58.39 19.7,58.35 18.95,58.17 17.93,57.92 17.87,57.91 
							17.48,57.81 16.68,55.8 15.88,53.79 15.65,53.23 						"/>
						<polygon class="st10" points="24.84,59.6 30.41,54.02 30.65,53.78 31.6,52.83 31.61,52.82 33.14,51.29 33.22,51.21 
							35.9,48.53 36.72,47.71 37.1,47.33 37.51,46.92 38.35,46.08 40.78,45.35 40.79,46.04 38.29,48.53 37.88,48.95 37.59,49.24 
							36.73,50.1 36.47,50.36 36.21,50.62 36.09,50.73 32.94,53.88 32.89,53.93 32.77,54.05 32.77,54.05 31.87,54.96 31.63,55.19 
							26.76,60.06 						"/>
						<polygon class="st10" points="17.93,57.92 21.28,54.57 26.03,49.81 26.12,49.73 26.4,49.65 27.81,49.23 28.36,49.06 
							30.12,48.53 31,48.27 34.41,47.25 35.12,47.05 35.28,47 35.16,47.12 34.65,47.63 32.26,50.02 32.02,50.26 30.73,51.55 
							30.58,51.7 29.32,52.96 23.1,59.17 19.88,58.39 19.7,58.35 18.95,58.17 						"/>
						<path class="st5" d="M25.99,49.77l0.13-0.04l0.28-0.08l1.41-0.42l0.54-0.16l1.76-0.53L31,48.27l3.41-1.02l0.71-0.21L35.28,47
							l0.89-0.27l0.56-0.17l0.37,0.77l0.78,1.62l2.5,5.21l1.21,2.53l0.11,0.24l0,0l0.68,1.41v0.01l0.02,0.05l-0.15,0.03l-2.71,0.66
							l-0.29,0.07l-0.12,0.03l-0.29,0.08l-2.17,0.52l-0.04,0.01l-0.25,0.06c-0.77-0.78-2.58-2.55-4.77-4.66
							c-0.39-0.38-0.81-0.77-1.22-1.18c-0.36-0.35-0.72-0.7-1.09-1.06c-1.09-1.04-2.2-2.11-3.29-3.15
							C26.02,49.8,26,49.79,25.99,49.77z"/>
						<path class="st2" d="M31,48.27l3.41-1.02l0.71-0.21L35.28,47l0.89-0.27l0.55,0.97l0.86,1.53l2.79,4.92l0.99,1.75l0.41,0.73
							l0.95,1.68l0.24,0.43l-0.29,0.08l-5.61,1.4c-0.06-0.08-0.19-0.23-0.38-0.44c-0.79-0.85-2.63-2.67-4.82-4.82
							c-0.39-0.39-0.8-0.78-1.21-1.18c-0.36-0.35-0.72-0.71-1.09-1.06c-1.04-1.02-2.12-2.07-3.16-3.07l1.41-0.42l0.54-0.16
							l1.76-0.53L31,48.27z"/>
						<polygon class="st11" points="35.85,60.93 35.58,60.05 31.38,57.62 31.5,60.48 						"/>
						<polygon class="st11" points="26.68,60.93 26.95,60.05 31.15,57.62 31.02,60.48 						"/>
						<path class="st5" d="M31.6,52.83L30.82,52C31.1,52.29,31.36,52.57,31.6,52.83c0.47,0.47,0.87,0.89,1.17,1.22
							c0.29,0.31,0.5,0.54,0.62,0.66l-0.63-0.66L31.6,52.83z"/>
						<path class="st5" d="M30.58,51.7c-0.93-0.88-1.87-1.73-2.76-2.48l0.54-0.16l2.37,2.49l1.05,1.1l0.12,0.12l1.05,1.1l2.09,2.19
							l0.05,0.06c-0.02-0.02-0.03-0.04-0.06-0.06c-0.65-0.66-1.37-1.4-2.13-2.15c-0.35-0.35-0.72-0.71-1.09-1.06
							c-0.04-0.04-0.08-0.08-0.12-0.12C31.32,52.4,30.95,52.05,30.58,51.7z"/>
						<polygon class="st5" points="34.41,47.25 35.12,47.05 35.16,47.12 35.9,48.53 36.73,50.1 37.64,51.84 38.75,53.8 36.47,50.36 
							35.51,48.92 34.65,47.63 						"/>
						<polygon class="st5" points="30.12,48.53 31,48.27 31.65,49.26 32.26,50.02 33.22,51.21 33.69,51.79 33.14,51.29 32.02,50.26 
													"/>
						<polygon class="st5" points="40.8,48.05 42.41,45.34 42.41,44.87 44.1,44.36 45.34,44.61 43.64,45.39 						"/>
						<polygon class="st5" points="15.52,52.89 17.52,52.3 21.13,51.22 21.36,51.15 21.58,53.86 21.28,54.57 20.81,55.68 
							19.7,58.35 18.95,58.17 17.93,57.92 17.87,57.91 17.48,57.81 16.68,55.8 15.88,53.79 15.65,53.23 						"/>
						<path class="st9" d="M17.52,52.3l3.61-1.08l0.02,2.56l-0.92,1.84l-0.1,0.2l-1.17,2.35l-1.03,2.06c0,0-2.62-3.3-2.7-3.24
							c-0.02,0-0.09-0.39-0.2-0.98c-0.12-0.73-0.29-1.78-0.45-2.84l0.84-0.25l0.09-0.03L17.52,52.3z"/>
						<path class="st5" d="M40.73,53.57l0.07-4.55l6.21,1.05c0,0,0.01,0.25-0.03,0.5l-1.78,6.39l-0.36,0.85l-1.63,0.39l-0.08,0.02
							l-0.12,0.03l-0.06,0.01L40.73,53.57z"/>
						<path class="st9" d="M40.8,48.49l5.86,0.53l1.5,0.14h0c0,0,0,0.01,0,0.02c0,0,0,0,0,0.01c-0.02,0.12-0.08,0.56-0.18,1.18
							c-0.33,2.2-1,6.63-1.07,6.63c-0.08-0.06-2.7,3.24-2.7,3.24l-0.02-0.04l-0.99-1.98L41,53.78L40.8,48.49z"/>
						<path class="st10" d="M14.58,53.18L14.58,53.18l0.85-0.25l0.09-0.04l0.43-0.12l0.48-0.14l1.1-0.33l-0.84,3.5l-0.2,0.86
							l1.44,3.57c-0.15-0.19-2.57-3.23-2.69-3.23c-0.02,0-0.08-0.34-0.17-0.86c-0.01-0.04-0.02-0.08-0.03-0.13
							c-0.01-0.05-0.02-0.1-0.03-0.16c-0.04-0.24-0.08-0.5-0.13-0.78c-0.01-0.11-0.03-0.23-0.06-0.35c0-0.04-0.01-0.08-0.02-0.13
							c-0.03-0.2-0.06-0.4-0.1-0.62c-0.01-0.04-0.01-0.07-0.01-0.1C14.65,53.63,14.61,53.41,14.58,53.18z"/>
						<path class="st10" d="M44.2,60.18l1.43-3.53l-0.11-0.46l-1.23-5.15l2.37-2.04l0.52-0.45c0,0,0.77-3.13,0.86-3.23
							c0.02-0.02,0.06-0.01,0.13,0.02v3.5l-0.01,0.3c0,0,0,0.01,0,0.02c0,0.01,0,0.01,0,0.01l-0.04,0.87l-0.13,0.29l-0.01,0.03v0.02
							c-0.23,1.5-0.6,4.01-0.85,5.47c-0.02,0.11-0.03,0.21-0.05,0.3c-0.09,0.52-0.15,0.85-0.17,0.85c-0.13,0-2.7,3.23-2.7,3.23
							h-0.03L44.2,60.18z"/>
						<path class="st2" d="M31.16,77.94l3.53-1.05l1.97-2.66v-4.44l-0.64-0.37l-0.11,4.61c0,0-0.11,1.61-1.5,1.61
							c-1.38,0-3.26-0.97-3.26-0.97s-1.9,0.97-3.26,0.97c-1.35,0-1.49-1.61-1.49-1.61l-0.11-4.61l-0.64,0.37l-0.41,4.2l1.93,2.9
							L31.16,77.94z"/>
						<g>
							<path class="st2" d="M46.18,52.84c0.13-0.78,0.6-1.34,1.06-1.26c0.16,0.03,0.29,0.13,0.39,0.27l-0.27-1.58l0.61,0.1
								c-0.23,1.5-0.6,4.01-0.85,5.47c-0.03,0.03-0.04,0.05-0.04,0.05S46.09,53.38,46.18,52.84z"/>
						</g>
						<path class="st5" d="M37.23,58.35c0.02,0.09,0.05,0.18,0.09,0.26c0.29,0.61,1.07,0.9,1.77,0.66c0.72-0.24,1.13-0.97,0.87-1.63
							c-0.06-0.15-0.14-0.28-0.25-0.39c0.68-0.31,1.06-1.08,0.83-1.77c-0.26-0.76-1.14-1.1-1.93-0.75
							c-0.21,0.09-0.83,0.62-0.94,0.78l0.27-2.04l-2.23,1.08l1.58,1.13c-0.22-0.03-1.04,0.11-1.22,0.19
							c-0.71,0.32-0.98,1.12-0.63,1.79C35.77,58.29,36.56,58.59,37.23,58.35z"/>
						<path class="st12" d="M37.27,58.1c0.02,0.09,0.04,0.19,0.08,0.28c0.28,0.66,1.04,0.96,1.7,0.68c0.66-0.28,0.96-1.04,0.68-1.7
							c-0.06-0.14-0.14-0.27-0.24-0.37c0.56-0.29,0.81-0.98,0.56-1.57c-0.27-0.62-0.99-0.91-1.61-0.64
							c-0.17,0.07-0.68,0.51-0.77,0.63l0.2-1.64l-1.86,0.8l1.32,0.98c-0.19-0.03-0.91,0.09-1.07,0.16c-0.66,0.28-0.97,1.05-0.68,1.7
							C35.86,58.06,36.61,58.36,37.27,58.1z"/>
						<path class="st5" d="M37.38,55.18l-0.73-0.54l0.84-0.36L37.38,55.18z M38.92,54.99c0.36,0,0.69,0.22,0.84,0.55
							c0.18,0.43,0,0.94-0.41,1.16l-0.37,0.19l0.29,0.31c0.08,0.08,0.14,0.17,0.18,0.28c0.21,0.49-0.02,1.07-0.52,1.28
							c-0.12,0.05-0.25,0.08-0.38,0.08c-0.39,0-0.75-0.23-0.9-0.59c-0.03-0.06-0.05-0.13-0.07-0.22l-0.08-0.38l-0.36,0.14
							c-0.12,0.05-0.24,0.07-0.37,0.07c-0.39,0-0.75-0.23-0.9-0.59c-0.1-0.24-0.11-0.51-0.01-0.75c0.1-0.24,0.28-0.43,0.52-0.53
							c0.11-0.04,0.64-0.13,0.87-0.13l0.67-0.27c0.07-0.1,0.52-0.47,0.64-0.53C38.68,55.02,38.8,54.99,38.92,54.99z"/>
					</g>
					<path class="st5" d="M14.58,53.18c0.03,0.21,0.07,0.42,0.1,0.62c0,0.03,0.01,0.06,0.01,0.09c0,0.02,0.01,0.05,0.01,0.08
						c0.03,0.22,0.06,0.42,0.1,0.62c0.01,0.05,0.02,0.1,0.02,0.13c0.03,0.12,0.04,0.24,0.06,0.35c0.04,0.29,0.09,0.55,0.13,0.78
						c0.01,0.06,0.02,0.11,0.03,0.16c0.01,0.04,0.01,0.09,0.03,0.13c0.1,0.52,0.15,0.86,0.17,0.86c0.12,0,2.54,3.04,2.69,3.23
						l-0.01-0.02c0.01,0.01,0.02,0.02,0.02,0.02l1.96-1.83l3.22,0.78l1.73,0.42l1.92,0.47l0.17,0.04l0,0l-0.26,0.82l1.82,0.81v0.56
						c-1.31,1.24-2.27,3.37-2.51,4.93c-0.02,0.11-0.03,1.2-0.04,2.4l-0.28,0.16l-0.41,4.2l0.03,0.04c-0.06,0.24-0.11,0.5-0.11,0.76
						c0,1.67,1.35,3.03,3.01,3.06c-0.05,0.22-0.1,0.45-0.08,0.69c0.09,0.73,1.6,1.71,3.04,1.71V48.23L31,48.27l-0.88,0.26
						l-1.76,0.53l-0.54,0.16l-1.41,0.42l-0.28,0.08l-0.13,0.04l-4.63,1.38l-0.23,0.07l-3.61,1.08l-1.68,0.5l-0.33,0.09l-0.05,0.02
						l-0.03,0.01L14.58,53.18C14.58,53.17,14.58,53.17,14.58,53.18L14.58,53.18z"/>
				</g>
			</g>
		</g>
	</g>
	<g>
		<path class="st2" d="M13.93,21.19c0.02-0.12,0.04-0.24,0.04-0.37c0-0.91-0.74-1.65-1.65-1.64c-0.91,0-1.65,0.74-1.65,1.64
			c0,0.2,0.03,0.38,0.1,0.56c-0.8,0.06-1.43,0.73-1.43,1.55c0,0.86,0.7,1.55,1.56,1.56c0.23,0,1.04-0.25,1.22-0.36l-1.05,1.81
			l2.57,0l-1.06-1.81c0.21,0.13,1.11,0.35,1.33,0.35c0.91,0,1.65-0.74,1.65-1.65C15.55,21.94,14.82,21.21,13.93,21.19z"/>
		<path class="st2" d="M17.07,39.49c-0.12,0.79-0.67,1.36-1.24,1.27c-0.13-0.03-0.66-0.31-0.78-0.43l0.42,1.66l-0.72-0.11l0.01-0.03
			v-0.02c0.23-1.5,0.6-4.01,0.85-5.47c0.02-0.11,0.03-0.21,0.05-0.3c0.5,0.15,0.8,0.81,0.69,1.53c-0.01,0.11-0.04,0.22-0.08,0.32
			C16.83,38.01,17.19,38.71,17.07,39.49z"/>
		<path class="st2" d="M48.17,39.04L48.17,39.04l-0.85,0.25l-0.09,0.04l-0.43,0.12l-0.48,0.14c-0.01-0.03-0.01-0.06-0.02-0.1
			c-0.11-0.78,0.24-1.48,0.8-1.57c-0.03-0.1-0.06-0.2-0.08-0.32c-0.11-0.71,0.18-1.36,0.66-1.52c0.01,0.04,0.02,0.08,0.03,0.13
			c0.01,0.05,0.02,0.1,0.03,0.16c0.04,0.24,0.08,0.5,0.13,0.78c0.01,0.11,0.03,0.23,0.06,0.35c0,0.04,0.01,0.08,0.02,0.13
			c0.03,0.2,0.06,0.4,0.1,0.62c0.01,0.04,0.01,0.07,0.01,0.1C48.1,38.58,48.13,38.81,48.17,39.04z"/>
		<path class="st5" d="M13.93,21.19c0.02-0.12,0.04-0.24,0.04-0.37c0-0.91-0.74-1.65-1.65-1.64c0,0,0,0-0.01,0v6.76l1.31,0
			l-1.06-1.81c0.21,0.13,1.11,0.35,1.33,0.35c0.91,0,1.65-0.74,1.65-1.65C15.55,21.94,14.82,21.21,13.93,21.19z"/>
	</g>
	<g>
		<path class="st2" d="M53.42,70.47c-0.02,0.12-0.04,0.24-0.04,0.37c0,0.91,0.74,1.65,1.65,1.64c0.91,0,1.65-0.73,1.65-1.64
			c0-0.2-0.03-0.38-0.1-0.56c0.8-0.06,1.43-0.73,1.43-1.55c0-0.86-0.7-1.55-1.56-1.56c-0.23,0-1.04,0.25-1.22,0.36l1.05-1.81
			l-2.57,0l1.06,1.81c-0.21-0.13-1.11-0.35-1.33-0.35c-0.91,0-1.65,0.74-1.65,1.65C51.8,69.73,52.52,70.46,53.42,70.47z"/>
		<path class="st5" d="M53.42,70.47c-0.02,0.12-0.04,0.24-0.04,0.37c0,0.91,0.74,1.65,1.65,1.64c0,0,0,0,0.01,0v-6.76l-1.31,0
			l1.06,1.81c-0.21-0.13-1.11-0.35-1.33-0.35c-0.91,0-1.65,0.74-1.65,1.65C51.8,69.73,52.52,70.46,53.42,70.47z"/>
	</g>
</g>
</svg>
