<?xml version="1.0" encoding="utf-8"?>
<!-- Generator: Adobe Illustrator 26.0.3, SVG Export Plug-In . SVG Version: 6.00 Build 0)  -->
<svg version="1.1" id="Layer_1" xmlns="http://www.w3.org/2000/svg" xmlns:xlink="http://www.w3.org/1999/xlink" x="0px" y="0px"
	 viewBox="0 0 66 92" style="enable-background:new 0 0 66 92;" xml:space="preserve">
<style type="text/css">
	.st0{fill:#C9C9C9;}
	.st1{fill:#FFFFFF;}
	.st2{fill:#333333;}
	.st3{opacity:0.2;fill:#616161;}
</style>
<g>
	<g>
		<g>
			<g>
				<path class="st0" d="M10,87.32c-3.49,0-6.34-2.78-6.35-6.21L3.47,10.93C3.46,7.48,6.3,4.67,9.81,4.68l46.38,0.09
					c3.49,0.01,6.33,2.82,6.33,6.26v70.03c0,3.42-2.83,6.21-6.31,6.22L10,87.32z"/>
			</g>
			<path class="st1" d="M10.58,87.15c-3.45,0-6.25-2.79-6.25-6.23V10.91c0-3.43,2.8-6.23,6.25-6.23h45.7c3.45,0,6.25,2.79,6.25,6.23
				v70.01c0,3.44-2.8,6.23-6.25,6.23H10.58z"/>
			<g>
				<path class="st2" d="M11.65,12.25c0,0.44-0.1,0.92-0.29,1.43c-0.2,0.52-0.4,0.89-0.61,1.14c-0.38,0.43-0.74,0.79-1.07,1.07
					c-0.55,0.47-0.99,0.71-1.31,0.71c-0.03,0-0.06-0.01-0.09-0.04c-0.03-0.02-0.06-0.05-0.08-0.08c0.3-0.19,0.61-0.47,0.92-0.82
					c0.31-0.35,0.62-0.83,0.92-1.43v-0.12c-0.03-0.01-0.05-0.02-0.07-0.04c-0.24,0.11-0.46,0.2-0.67,0.28
					c-0.2,0.08-0.38,0.12-0.54,0.12c-0.31,0-0.61-0.17-0.89-0.52C7.56,13.57,7.4,13.1,7.4,12.54c0-0.54,0.33-1.12,0.98-1.72
					c0.6-0.56,1.1-0.83,1.49-0.83c0.37,0,0.75,0.2,1.12,0.59C11.43,11.04,11.65,11.6,11.65,12.25z M10.28,13.04
					c0-0.53-0.16-0.98-0.49-1.34C9.5,11.38,9.2,11.22,8.9,11.22c-0.07,0-0.12,0.04-0.14,0.13c-0.03,0.09-0.04,0.19-0.04,0.29
					c0,0.46,0.12,0.84,0.34,1.14c0.28,0.37,0.54,0.55,0.8,0.55c0.13,0,0.22-0.01,0.28-0.04C10.23,13.25,10.28,13.16,10.28,13.04z"/>
			</g>
			<g>
				<path class="st2" d="M55.59,80.35c0-0.44,0.1-0.92,0.29-1.43c0.2-0.52,0.4-0.89,0.61-1.14c0.38-0.43,0.74-0.79,1.07-1.07
					c0.55-0.47,0.99-0.71,1.31-0.71c0.03,0,0.06,0.01,0.09,0.04c0.03,0.02,0.06,0.05,0.08,0.08c-0.3,0.19-0.61,0.47-0.92,0.82
					c-0.31,0.35-0.62,0.83-0.92,1.43v0.12c0.03,0.01,0.05,0.02,0.07,0.04c0.24-0.11,0.46-0.2,0.67-0.28
					c0.2-0.08,0.38-0.12,0.54-0.12c0.31,0,0.61,0.17,0.89,0.52c0.32,0.39,0.48,0.87,0.48,1.42c0,0.54-0.33,1.12-0.98,1.72
					c-0.6,0.56-1.1,0.83-1.49,0.83c-0.37,0-0.75-0.2-1.12-0.59C55.81,81.56,55.59,81,55.59,80.35z M56.97,79.56
					c0,0.53,0.16,0.98,0.49,1.34c0.29,0.32,0.59,0.48,0.89,0.48c0.07,0,0.12-0.04,0.14-0.13c0.03-0.09,0.04-0.19,0.04-0.29
					c0-0.46-0.12-0.84-0.34-1.14c-0.28-0.37-0.54-0.55-0.8-0.55c-0.13,0-0.22,0.01-0.28,0.04C57.01,79.36,56.97,79.44,56.97,79.56z"
					/>
			</g>
		</g>
	</g>
	<g>
		<path class="st2" d="M47.75,15.73c0.05-0.26,0.09-0.52,0.09-0.8c0-1.97-1.6-3.57-3.57-3.57c-1.97,0-3.57,1.59-3.57,3.57
			c0,0.43,0.08,0.83,0.21,1.21c-1.74,0.14-3.11,1.59-3.11,3.36c0,1.87,1.52,3.37,3.38,3.38c0.5,0,2.26-0.55,2.64-0.77l-2.29,3.92
			l5.57,0l-2.29-3.92c0.46,0.28,2.41,0.77,2.88,0.77c1.98,0,3.58-1.6,3.57-3.58C51.27,17.35,49.7,15.76,47.75,15.73z"/>
		<path class="st3" d="M47.75,15.73c0.05-0.26,0.09-0.52,0.09-0.8c0-1.97-1.6-3.57-3.57-3.57c0,0-0.01,0-0.02,0v14.66l2.85,0
			l-2.29-3.92c0.46,0.28,2.41,0.77,2.88,0.77c1.98,0,3.58-1.6,3.57-3.58C51.27,17.35,49.7,15.76,47.75,15.73z"/>
	</g>
	<g>
		<path class="st2" d="M36.83,43.03c0.05-0.26,0.09-0.52,0.09-0.8c0-1.97-1.6-3.57-3.57-3.57c-1.97,0-3.57,1.59-3.57,3.57
			c0,0.43,0.08,0.83,0.21,1.21c-1.74,0.14-3.11,1.59-3.11,3.36c0,1.87,1.52,3.37,3.38,3.38c0.5,0,2.26-0.55,2.64-0.77l-2.29,3.92
			l5.57,0l-2.29-3.92c0.46,0.28,2.41,0.77,2.88,0.77c1.98,0,3.58-1.6,3.57-3.58C40.34,44.65,38.77,43.06,36.83,43.03z"/>
		<path class="st3" d="M36.83,43.03c0.05-0.26,0.09-0.52,0.09-0.8c0-1.97-1.6-3.57-3.57-3.57c0,0-0.01,0-0.02,0v14.66l2.85,0
			l-2.29-3.92c0.46,0.28,2.41,0.77,2.88,0.77c1.98,0,3.58-1.6,3.57-3.58C40.34,44.65,38.77,43.06,36.83,43.03z"/>
	</g>
	<g>
		<path class="st2" d="M47.75,33.78c0.05-0.26,0.09-0.52,0.09-0.8c0-1.97-1.6-3.57-3.57-3.57c-1.97,0-3.57,1.59-3.57,3.57
			c0,0.43,0.08,0.83,0.21,1.21c-1.74,0.14-3.11,1.59-3.11,3.36c0,1.87,1.52,3.37,3.38,3.38c0.5,0,2.26-0.55,2.64-0.77l-2.29,3.92
			l5.57,0l-2.29-3.92c0.46,0.28,2.41,0.77,2.88,0.77c1.98,0,3.58-1.6,3.57-3.58C51.27,35.39,49.7,33.81,47.75,33.78z"/>
		<path class="st3" d="M47.75,33.78c0.05-0.26,0.09-0.52,0.09-0.8c0-1.97-1.6-3.57-3.57-3.57c0,0-0.01,0-0.02,0v14.66l2.85,0
			l-2.29-3.92c0.46,0.28,2.41,0.77,2.88,0.77c1.98,0,3.58-1.6,3.57-3.58C51.27,35.39,49.7,33.81,47.75,33.78z"/>
	</g>
	<g>
		<path class="st2" d="M19.28,15.73c-0.05-0.26-0.09-0.52-0.09-0.8c0-1.97,1.6-3.57,3.57-3.57c1.97,0,3.57,1.59,3.57,3.57
			c0,0.43-0.08,0.83-0.21,1.21c1.74,0.14,3.11,1.59,3.11,3.36c0,1.87-1.52,3.37-3.38,3.38c-0.5,0-2.26-0.55-2.64-0.77l2.29,3.92
			l-5.57,0l2.29-3.92c-0.46,0.28-2.41,0.77-2.88,0.77c-1.98,0-3.58-1.6-3.57-3.58C15.77,17.35,17.34,15.76,19.28,15.73z"/>
		<path class="st3" d="M19.28,15.73c-0.05-0.26-0.09-0.52-0.09-0.8c0-1.97,1.6-3.57,3.57-3.57c0,0,0.01,0,0.02,0v14.66l-2.85,0
			l2.29-3.92c-0.46,0.28-2.41,0.77-2.88,0.77c-1.98,0-3.58-1.6-3.57-3.58C15.77,17.35,17.34,15.76,19.28,15.73z"/>
	</g>
	<g>
		<path class="st2" d="M19.28,33.78c-0.05-0.26-0.09-0.52-0.09-0.8c0-1.97,1.6-3.57,3.57-3.57c1.97,0,3.57,1.59,3.57,3.57
			c0,0.43-0.08,0.83-0.21,1.21c1.74,0.14,3.11,1.59,3.11,3.36c0,1.87-1.52,3.37-3.38,3.38c-0.5,0-2.26-0.55-2.64-0.77l2.29,3.92
			l-5.57,0l2.29-3.92c-0.46,0.28-2.41,0.77-2.88,0.77c-1.98,0-3.58-1.6-3.57-3.58C15.77,35.39,17.34,33.81,19.28,33.78z"/>
		<path class="st3" d="M19.28,33.78c-0.05-0.26-0.09-0.52-0.09-0.8c0-1.97,1.6-3.57,3.57-3.57c0,0,0.01,0,0.02,0v14.66l-2.85,0
			l2.29-3.92c-0.46,0.28-2.41,0.77-2.88,0.77c-1.98,0-3.58-1.6-3.57-3.58C15.77,35.39,17.34,33.81,19.28,33.78z"/>
	</g>
	<g>
		<path class="st2" d="M47.75,76.1c0.05,0.26,0.09,0.52,0.09,0.8c0,1.97-1.6,3.57-3.57,3.57c-1.97,0-3.57-1.59-3.57-3.57
			c0-0.43,0.08-0.83,0.21-1.21c-1.74-0.14-3.11-1.59-3.11-3.36c0-1.87,1.52-3.37,3.38-3.38c0.5,0,2.26,0.55,2.64,0.77l-2.29-3.92
			l5.57,0l-2.29,3.92c0.46-0.28,2.41-0.77,2.88-0.77c1.98,0,3.58,1.6,3.57,3.58C51.27,74.48,49.7,76.06,47.75,76.1z"/>
		<path class="st3" d="M47.75,76.1c0.05,0.26,0.09,0.52,0.09,0.8c0,1.97-1.6,3.57-3.57,3.57c0,0-0.01,0-0.02,0V65.8l2.85,0
			l-2.29,3.92c0.46-0.28,2.41-0.77,2.88-0.77c1.98,0,3.58,1.6,3.57,3.58C51.27,74.48,49.7,76.06,47.75,76.1z"/>
	</g>
	<g>
		<path class="st2" d="M47.75,58.05c0.05,0.26,0.09,0.52,0.09,0.8c0,1.97-1.6,3.57-3.57,3.57c-1.97,0-3.57-1.59-3.57-3.57
			c0-0.43,0.08-0.83,0.21-1.21c-1.74-0.14-3.11-1.59-3.11-3.36c0-1.87,1.52-3.37,3.38-3.38c0.5,0,2.26,0.55,2.64,0.77l-2.29-3.92
			l5.57,0l-2.29,3.92c0.46-0.28,2.41-0.77,2.88-0.77c1.98,0,3.58,1.6,3.57,3.58C51.27,56.43,49.7,58.02,47.75,58.05z"/>
		<path class="st3" d="M47.75,58.05c0.05,0.26,0.09,0.52,0.09,0.8c0,1.97-1.6,3.57-3.57,3.57c0,0-0.01,0-0.02,0V47.75l2.85,0
			l-2.29,3.92c0.46-0.28,2.41-0.77,2.88-0.77c1.98,0,3.58,1.6,3.57,3.58C51.27,56.43,49.7,58.02,47.75,58.05z"/>
	</g>
	<g>
		<path class="st2" d="M19.28,76.1c-0.05,0.26-0.09,0.52-0.09,0.8c0,1.97,1.6,3.57,3.57,3.57c1.97,0,3.57-1.59,3.57-3.57
			c0-0.43-0.08-0.83-0.21-1.21c1.74-0.14,3.11-1.59,3.11-3.36c0-1.87-1.52-3.37-3.38-3.38c-0.5,0-2.26,0.55-2.64,0.77l2.29-3.92
			l-5.57,0l2.29,3.92c-0.46-0.28-2.41-0.77-2.88-0.77c-1.98,0-3.58,1.6-3.57,3.58C15.77,74.48,17.34,76.06,19.28,76.1z"/>
		<path class="st3" d="M19.28,76.1c-0.05,0.26-0.09,0.52-0.09,0.8c0,1.97,1.6,3.57,3.57,3.57c0,0,0.01,0,0.02,0V65.8l-2.85,0
			l2.29,3.92c-0.46-0.28-2.41-0.77-2.88-0.77c-1.98,0-3.58,1.6-3.57,3.58C15.77,74.48,17.34,76.06,19.28,76.1z"/>
	</g>
	<g>
		<path class="st2" d="M19.28,58.05c-0.05,0.26-0.09,0.52-0.09,0.8c0,1.97,1.6,3.57,3.57,3.57c1.97,0,3.57-1.59,3.57-3.57
			c0-0.43-0.08-0.83-0.21-1.21c1.74-0.14,3.11-1.59,3.11-3.36c0-1.87-1.52-3.37-3.38-3.38c-0.5,0-2.26,0.55-2.64,0.77l2.29-3.92
			l-5.57,0l2.29,3.92c-0.46-0.28-2.41-0.77-2.88-0.77c-1.98,0-3.58,1.6-3.57,3.58C15.77,56.43,17.34,58.02,19.28,58.05z"/>
		<path class="st3" d="M19.28,58.05c-0.05,0.26-0.09,0.52-0.09,0.8c0,1.97,1.6,3.57,3.57,3.57c0,0,0.01,0,0.02,0V47.75l-2.85,0
			l2.29,3.92c-0.46-0.28-2.41-0.77-2.88-0.77c-1.98,0-3.58,1.6-3.57,3.58C15.77,56.43,17.34,58.02,19.28,58.05z"/>
	</g>
	<g>
		<path class="st2" d="M9.86,20.72c0.01-0.06,0.02-0.12,0.02-0.18c0-0.45-0.37-0.81-0.82-0.81c-0.45,0-0.81,0.37-0.81,0.81
			c0,0.1,0.02,0.19,0.05,0.28c-0.4,0.03-0.71,0.36-0.71,0.77c0,0.43,0.35,0.77,0.77,0.77c0.11,0,0.52-0.12,0.6-0.18l-0.52,0.89
			l1.27,0l-0.52-0.89c0.1,0.06,0.55,0.17,0.66,0.17c0.45,0,0.81-0.37,0.81-0.82C10.66,21.09,10.31,20.72,9.86,20.72z"/>
		<path class="st3" d="M9.86,20.72c0.01-0.06,0.02-0.12,0.02-0.18c0-0.45-0.37-0.81-0.82-0.81c0,0,0,0,0,0v3.35l0.65,0l-0.52-0.89
			c0.1,0.06,0.55,0.17,0.66,0.17c0.45,0,0.81-0.37,0.81-0.82C10.66,21.09,10.31,20.72,9.86,20.72z"/>
	</g>
	<g>
		<path class="st2" d="M58.57,73.11c0.01,0.06,0.02,0.12,0.02,0.18c0,0.45-0.37,0.81-0.82,0.81c-0.45,0-0.81-0.37-0.82-0.81
			c0-0.1,0.02-0.19,0.05-0.28c-0.4-0.03-0.71-0.36-0.71-0.77c0-0.43,0.35-0.77,0.77-0.77c0.11,0,0.52,0.12,0.6,0.18l-0.52-0.89
			l1.27,0l-0.52,0.89c0.1-0.06,0.55-0.17,0.66-0.17c0.45,0,0.82,0.37,0.82,0.82C59.37,72.74,59.01,73.1,58.57,73.11z"/>
		<path class="st3" d="M58.57,73.11c0.01,0.06,0.02,0.12,0.02,0.18c0,0.45-0.37,0.81-0.82,0.81c0,0,0,0,0,0v-3.35l0.65,0l-0.52,0.89
			c0.1-0.06,0.55-0.17,0.66-0.17c0.45,0,0.82,0.37,0.82,0.82C59.37,72.74,59.01,73.1,58.57,73.11z"/>
	</g>
</g>
</svg>
