<?xml version="1.0" encoding="utf-8"?>
<!-- Generator: Adobe Illustrator 26.0.3, SVG Export Plug-In . SVG Version: 6.00 Build 0)  -->
<svg version="1.1" id="Layer_1" xmlns="http://www.w3.org/2000/svg" xmlns:xlink="http://www.w3.org/1999/xlink" x="0px" y="0px"
	 viewBox="0 0 66 92" style="enable-background:new 0 0 66 92;" xml:space="preserve">
<style type="text/css">
	.st0{fill:#C9C9C9;}
	.st1{fill:#FFFFFF;}
	.st2{fill:#333333;}
	.st3{opacity:0.2;fill:#616161;}
</style>
<g>
	<g>
		<g>
			<g>
				<path class="st0" d="M9.07,88.96c-3.63,0.01-6.59-2.89-6.6-6.46L2.28,9.54c-0.01-3.59,2.95-6.51,6.59-6.5l48.21,0.09
					c3.63,0.01,6.58,2.93,6.62,6.51v72.8c-0.04,3.56-2.98,6.46-6.6,6.46L9.07,88.96z"/>
			</g>
			<path class="st1" d="M9.71,88.78c-3.58,0-6.5-2.91-6.5-6.48V9.52c0-3.57,2.92-6.48,6.5-6.48h47.51c3.58,0,6.5,2.9,6.5,6.48V82.3
				c0,3.57-2.91,6.48-6.5,6.48H9.71z"/>
			<g>
				<path class="st2" d="M53.65,77.2h2v3.29h1.22c0.07-0.08,0.15-0.29,0.24-0.64c0.21-0.84,0.46-1.52,0.75-2.04
					c0.12-0.22,0.26-0.4,0.42-0.53c0.2-0.16,0.41-0.24,0.63-0.24c0.15,0,0.31,0.05,0.49,0.16c0.22,0.13,0.33,0.29,0.33,0.47
					c0,0.09-0.03,0.16-0.1,0.22c-0.07,0.06-0.14,0.09-0.21,0.09c-0.18,0-0.28-0.1-0.29-0.3c-0.01-0.2-0.09-0.3-0.24-0.3
					c-0.34,0-0.57,0.17-0.7,0.52c-0.08,0.23-0.12,0.56-0.12,0.99c0,0.26,0.01,0.55,0.04,0.88c0.03,0.33,0.06,0.68,0.09,1.05
					c0,0.43-0.08,0.82-0.25,1.18c-0.14,0.29-0.35,0.6-0.65,0.91c-0.18,0.19-0.46,0.45-0.84,0.78l0.07,0.1h1.77
					c0.11,0,0.22-0.01,0.31-0.04c0.18-0.06,0.36-0.11,0.54-0.17v0.1c-0.08,0.12-0.13,0.22-0.17,0.27c-0.12,0.19-0.19,0.28-0.22,0.28
					c-0.02,0-0.07-0.02-0.14-0.06c-0.08-0.04-0.15-0.06-0.22-0.06h-4.76V77.2z M55.72,81.01v2.65c0.18-0.05,0.36-0.24,0.55-0.57
					c0.07-0.12,0.15-0.29,0.24-0.52c0.06-0.16,0.12-0.35,0.17-0.56c0.11-0.45,0.16-0.68,0.17-0.7v-0.3H55.72z"/>
			</g>
			<g>
				<path class="st2" d="M14.32,15.42h-2v-3.29h-1.22c-0.07,0.08-0.15,0.3-0.24,0.64c-0.21,0.84-0.46,1.52-0.75,2.04
					c-0.12,0.22-0.26,0.39-0.42,0.53c-0.2,0.16-0.41,0.25-0.63,0.25c-0.15,0-0.31-0.05-0.49-0.16c-0.22-0.13-0.33-0.29-0.33-0.47
					c0-0.09,0.03-0.16,0.1-0.22c0.07-0.06,0.14-0.09,0.21-0.09c0.18,0,0.28,0.1,0.29,0.3c0.01,0.2,0.09,0.3,0.24,0.3
					c0.34,0,0.57-0.17,0.7-0.52c0.08-0.23,0.12-0.55,0.12-0.99c0-0.26-0.01-0.55-0.04-0.88c-0.03-0.33-0.06-0.68-0.09-1.05
					c0-0.43,0.08-0.82,0.25-1.18c0.14-0.29,0.35-0.6,0.65-0.91c0.18-0.19,0.45-0.45,0.84-0.78l-0.07-0.1H9.66
					c-0.11,0-0.22,0.01-0.31,0.04C9.17,8.92,8.99,8.98,8.82,9.03v-0.1c0.08-0.13,0.13-0.22,0.17-0.27C9.1,8.47,9.18,8.37,9.2,8.37
					c0.02,0,0.07,0.02,0.14,0.06c0.08,0.04,0.15,0.06,0.22,0.06h4.76V15.42z M12.25,11.61V8.96c-0.18,0.05-0.36,0.24-0.55,0.57
					c-0.07,0.12-0.15,0.29-0.24,0.52c-0.06,0.16-0.12,0.35-0.17,0.56c-0.11,0.45-0.16,0.68-0.17,0.7v0.3H12.25z"/>
			</g>
		</g>
	</g>
	<g>
		<path class="st2" d="M40.01,39.17c0.11-0.55,0.19-1.11,0.19-1.7c0.01-4.19-3.4-7.58-7.58-7.57c-4.19,0.01-7.58,3.38-7.58,7.57
			c0,0.9,0.16,1.76,0.45,2.56c-3.69,0.29-6.6,3.38-6.61,7.14c0.01,3.96,3.22,7.16,7.18,7.17c1.05,0.01,4.8-1.16,5.6-1.63l-4.86,8.33
			l11.84-0.01l-4.86-8.32c0.97,0.59,5.11,1.63,6.11,1.63c4.2,0,7.59-3.4,7.59-7.59C47.48,42.6,44.14,39.23,40.01,39.17z"/>
		<path class="st3" d="M40.01,39.17c0.11-0.55,0.19-1.11,0.19-1.7c0.01-4.19-3.4-7.58-7.58-7.57c-0.01,0-0.02,0-0.03,0v31.13
			l6.05-0.01l-4.86-8.32c0.97,0.59,5.11,1.63,6.11,1.63c4.2,0,7.59-3.4,7.59-7.59C47.48,42.6,44.14,39.23,40.01,39.17z"/>
	</g>
	<g>
		<path class="st2" d="M12.62,19.36c0.01-0.06,0.02-0.12,0.02-0.18c0-0.45-0.37-0.81-0.81-0.81c-0.45,0-0.82,0.36-0.82,0.81
			c0,0.1,0.02,0.19,0.05,0.28c-0.4,0.03-0.71,0.36-0.71,0.77c0,0.43,0.35,0.77,0.77,0.77c0.11,0,0.52-0.12,0.6-0.18l-0.52,0.9
			l1.27,0l-0.52-0.89c0.1,0.06,0.55,0.18,0.66,0.18c0.45,0,0.82-0.37,0.82-0.82C13.42,19.73,13.06,19.37,12.62,19.36z"/>
		<path class="st3" d="M12.62,19.36c0.01-0.06,0.02-0.12,0.02-0.18c0-0.45-0.37-0.81-0.81-0.81c0,0,0,0,0,0v3.35l0.65,0l-0.52-0.89
			c0.1,0.06,0.55,0.18,0.66,0.18c0.45,0,0.82-0.37,0.82-0.82C13.42,19.73,13.06,19.37,12.62,19.36z"/>
	</g>
	<g>
		<path class="st2" d="M56.87,73.43c0.01,0.06,0.02,0.12,0.02,0.18c0,0.45-0.37,0.81-0.81,0.81c-0.45,0-0.82-0.36-0.82-0.81
			c0-0.1,0.02-0.19,0.05-0.28c-0.4-0.03-0.71-0.36-0.71-0.77c0-0.43,0.35-0.77,0.77-0.77c0.11,0,0.52,0.12,0.6,0.18l-0.52-0.9
			l1.27,0l-0.52,0.89c0.1-0.06,0.55-0.18,0.66-0.18c0.45,0,0.82,0.37,0.82,0.82C57.67,73.06,57.31,73.42,56.87,73.43z"/>
		<path class="st3" d="M56.87,73.43c0.01,0.06,0.02,0.12,0.02,0.18c0,0.45-0.37,0.81-0.81,0.81c0,0,0,0,0,0v-3.35l0.65,0l-0.52,0.89
			c0.1-0.06,0.55-0.18,0.66-0.18c0.45,0,0.82,0.37,0.82,0.82C57.67,73.06,57.31,73.42,56.87,73.43z"/>
	</g>
</g>
</svg>
