<?xml version="1.0" encoding="utf-8"?>
<!-- Generator: Adobe Illustrator 26.0.3, SVG Export Plug-In . SVG Version: 6.00 Build 0)  -->
<svg version="1.1" id="Layer_1" xmlns="http://www.w3.org/2000/svg" xmlns:xlink="http://www.w3.org/1999/xlink" x="0px" y="0px"
	 viewBox="0 0 66 92" style="enable-background:new 0 0 66 92;" xml:space="preserve">
<style type="text/css">
	.st0{fill:#C9C9C9;}
	.st1{fill:#FFFFFF;}
	.st2{fill:#D66142;}
	.st3{opacity:0.2;fill:#616161;}
	.st4{fill:#333333;}
	.st5{fill:#FDD8AB;}
	.st6{fill:#EBEBEB;}
	.st7{fill:#FFD675;}
	.st8{fill:#D66B4F;}
</style>
<g>
	<g>
		<path class="st0" d="M10.02,87.25c-3.49,0.01-6.33-2.78-6.34-6.2L3.5,11C3.49,7.55,6.33,4.75,9.83,4.76l46.29,0.09
			c3.48,0.01,6.32,2.81,6.32,6.25v69.89c0,3.42-2.82,6.2-6.29,6.21L10.02,87.25z"/>
		<path class="st1" d="M10.65,87.06c-3.44,0-6.24-2.79-6.24-6.22V10.97c0-3.43,2.8-6.22,6.24-6.22h45.62c3.44,0,6.24,2.79,6.24,6.22
			v69.88c0,3.43-2.8,6.22-6.24,6.22H10.65z"/>
		<g>
			<path class="st2" d="M56.2,85.76H10.58c-2.67,0-4.83-2.16-4.83-4.81V11.07c0-2.55,2.03-4.63,3.11-5.03l0.16-0.06l45.86,0
				c4.54,0.35,6.15,2.86,6.15,5.09v69.88C61.03,83.61,58.86,85.76,56.2,85.76z M9.41,7.89c-0.49,0.31-1.75,1.6-1.75,3.18v69.88
				c0,1.6,1.31,2.9,2.92,2.9H56.2c1.61,0,2.92-1.3,2.92-2.9V11.07c0-1.77-1.63-2.96-4.35-3.18H9.41z"/>
		</g>
		<g>
			<polygon class="st2" points="12.27,26.46 9.29,22.69 12.27,18.92 15.26,22.69 			"/>
			<polygon class="st3" points="12.27,18.92 12.18,19.04 12.18,26.34 12.27,26.46 15.26,22.69 			"/>
		</g>
		<g>
			<path class="st4" d="M14.71,13.41c0,0.31-0.08,0.66-0.23,1.04c-0.15,0.38-0.34,0.68-0.55,0.9c-0.08,0.08-0.22,0.21-0.42,0.37
				c-0.29,0.23-0.59,0.45-0.9,0.63c-0.09,0.05-0.16,0.09-0.2,0.12c-0.14,0.09-0.21,0.15-0.21,0.19c0,0.07,0.21,0.2,0.64,0.37
				c0.39,0.16,0.67,0.26,0.87,0.3c0.02,0.01,0.07,0.01,0.13,0.01H14c0.05,0,0.1,0,0.15,0c0.05,0,0.1,0.01,0.16,0.03
				c-0.04,0.04-0.11,0.08-0.21,0.13c-0.11,0.05-0.21,0.1-0.32,0.15c-0.15,0.13-0.27,0.23-0.35,0.3c-0.08,0.07-0.15,0.1-0.19,0.1
				c-0.14,0-0.37-0.15-0.69-0.46c-0.32-0.31-0.62-0.46-0.91-0.46c-0.18,0-0.36,0.07-0.53,0.2c-0.17,0.14-0.28,0.2-0.31,0.2
				c-0.07,0-0.11-0.05-0.11-0.14c0-0.07,0.1-0.18,0.31-0.33c0.13-0.1,0.26-0.2,0.4-0.3c-0.33-0.19-0.65-0.39-0.95-0.61
				c-0.3-0.21-0.57-0.47-0.81-0.78c-0.2-0.27-0.36-0.56-0.47-0.86C9.05,14.21,9,13.9,9,13.57c0-0.49,0.1-0.89,0.29-1.2
				c0.07-0.11,0.3-0.37,0.69-0.76c0.12-0.12,0.42-0.38,0.91-0.78c0.61-0.49,0.97-0.74,1.09-0.74c0.11,0,0.31,0.11,0.61,0.32
				c0.36,0.25,0.78,0.62,1.26,1.1c0.3,0.3,0.52,0.6,0.66,0.89C14.64,12.7,14.71,13.04,14.71,13.41z M13.18,14.26
				c0-0.28-0.06-0.58-0.18-0.92c-0.12-0.33-0.28-0.65-0.49-0.94c-0.16-0.23-0.46-0.52-0.9-0.84c-0.14-0.11-0.35-0.25-0.61-0.42
				c-0.1,0-0.23,0.18-0.38,0.54c-0.15,0.36-0.23,0.59-0.23,0.7c0,0.49,0.11,0.95,0.32,1.37c0.17,0.36,0.45,0.72,0.81,1.1
				c0.15,0.16,0.52,0.5,1.1,1.03c0.2-0.19,0.35-0.47,0.45-0.86C13.14,14.74,13.18,14.48,13.18,14.26z"/>
		</g>
		<g>
			<polygon class="st2" points="54.74,66.32 57.72,70.09 54.74,73.86 51.75,70.09 			"/>
			<polygon class="st3" points="54.74,73.86 54.83,73.74 54.83,66.44 54.74,66.32 51.75,70.09 			"/>
		</g>
		<g>
			<path class="st4" d="M52.3,79.37c0-0.31,0.08-0.66,0.23-1.04c0.15-0.38,0.34-0.68,0.55-0.9c0.08-0.08,0.22-0.21,0.42-0.37
				c0.29-0.23,0.59-0.45,0.9-0.63c0.09-0.05,0.16-0.09,0.2-0.12c0.14-0.09,0.21-0.15,0.21-0.19c0-0.07-0.21-0.2-0.64-0.37
				c-0.39-0.16-0.67-0.26-0.87-0.3c-0.02-0.01-0.07-0.01-0.13-0.01h-0.16c-0.05,0-0.1,0-0.15,0c-0.05,0-0.1-0.01-0.16-0.03
				c0.04-0.04,0.11-0.08,0.21-0.13c0.11-0.05,0.21-0.1,0.32-0.15c0.15-0.13,0.27-0.23,0.35-0.3c0.08-0.07,0.15-0.1,0.19-0.1
				c0.14,0,0.37,0.15,0.69,0.46c0.32,0.31,0.62,0.46,0.91,0.46c0.18,0,0.36-0.07,0.53-0.2c0.17-0.14,0.28-0.2,0.31-0.2
				c0.07,0,0.11,0.05,0.11,0.14c0,0.07-0.1,0.18-0.31,0.33c-0.13,0.1-0.26,0.2-0.4,0.3c0.33,0.19,0.65,0.39,0.95,0.61
				c0.3,0.21,0.57,0.47,0.81,0.78c0.2,0.27,0.36,0.56,0.47,0.86c0.11,0.3,0.16,0.62,0.16,0.94c0,0.49-0.1,0.89-0.29,1.2
				c-0.07,0.11-0.3,0.37-0.69,0.76c-0.12,0.12-0.42,0.38-0.91,0.78c-0.61,0.49-0.97,0.74-1.09,0.74c-0.11,0-0.31-0.11-0.61-0.32
				c-0.36-0.25-0.78-0.62-1.26-1.1c-0.3-0.3-0.52-0.6-0.66-0.89C52.37,80.08,52.3,79.75,52.3,79.37z M53.83,78.52
				c0,0.28,0.06,0.58,0.18,0.92c0.12,0.33,0.28,0.65,0.49,0.94c0.16,0.23,0.46,0.51,0.9,0.84c0.14,0.11,0.35,0.25,0.61,0.42
				c0.1,0,0.23-0.18,0.38-0.54s0.23-0.59,0.23-0.7c0-0.49-0.11-0.95-0.32-1.37c-0.17-0.36-0.45-0.72-0.81-1.1
				c-0.15-0.16-0.52-0.5-1.1-1.03c-0.2,0.19-0.35,0.47-0.45,0.86C53.87,78.05,53.83,78.3,53.83,78.52z"/>
		</g>
	</g>
	<g>
		<g>
			<g>
				<g>
					<polygon class="st0" points="42.27,28.1 42.18,29.35 42.12,30.1 41.89,33.35 41.83,34.11 41.76,35.15 41.76,35.15 41.69,36.11 
						40.95,36.13 40.6,36.13 39.88,36.15 39.46,36.16 38.96,36.17 38.08,36.19 37.09,36.21 32.47,36.3 32.46,36.3 27.84,36.21 
						26.86,36.19 25.97,36.17 25.47,36.16 25.06,36.15 24.7,36.14 24.33,36.13 23.98,36.13 23.25,36.11 23.17,35.15 23.17,35.15 
						23.1,34.11 23.05,33.35 22.82,30.1 22.76,29.35 22.67,28.1 					"/>
					<path class="st3" d="M41.37,28.1c-1.46,2.07-3.52,4.17-5.8,4.17h-0.03c-0.5,0.63-1.08,1.12-1.72,1.39
						c-0.4,0.17-0.83,0.27-1.27,0.27c-0.03,0-0.06,0-0.08-0.01c0,0,0,0-0.01,0V28.1H41.37z"/>
					<g>
						<path class="st2" d="M45.4,40.89l-3.72,1.11l-0.35,0.11l-0.11,0.03c-0.29-0.49-0.52-0.85-0.63-1.01
							c-0.04-0.05-0.06-0.08-0.07-0.09c-0.33,0.53-0.51,1.02-0.62,1.49l-0.99,0.3l-6.45,1.92l-4.02,1.2l-1.35,0.4
							c-0.05-0.16-0.1-0.33-0.17-0.51c-2.41-1.03-1.19-2.7-2.53-4.8c-0.14,0.17-2.77,4.18-3.22,7.08l-0.32,0.1l-2.61,0.78h-0.06
							c-0.04-5.72,1.7-9.54,3.3-11.85c0.11-0.16,0.22-0.31,0.33-0.46c0.11-0.14,0.21-0.27,0.31-0.4l0,0c0-0.01,0-0.01,0-0.01
							c0.08-0.09,0.16-0.19,0.24-0.28c0.07-0.09,0.16-0.18,0.23-0.27c0.19-0.22,0.38-0.41,0.55-0.57v0h0
							c0.04-0.04,0.08-0.08,0.12-0.12c0.04-0.03,0.08-0.07,0.12-0.11c0.04-0.03,0.08-0.07,0.11-0.1c0.07-0.07,0.14-0.12,0.2-0.17
							c0.26-0.22,0.41-0.32,0.41-0.32l0.6,0.15l0.11,0.03l0.24,0.06l0.07,0.01L26,34.53l1.3-0.05l5.17-0.21h0.01l5.17,0.21l1.3,0.05
							l0.84,0.04l0.07-0.01l0.24-0.06l0.11-0.03l0.6-0.15c0,0,0.15,0.1,0.41,0.32c0.06,0.05,0.13,0.11,0.2,0.17
							c0.03,0.03,0.07,0.07,0.11,0.1c0.04,0.03,0.08,0.07,0.12,0.11c0.04,0.04,0.08,0.09,0.13,0.12l0,0
							c0.04,0.03,0.08,0.08,0.12,0.12c0.05,0.05,0.09,0.09,0.14,0.14c0.09,0.1,0.19,0.2,0.29,0.31c0.07,0.07,0.13,0.14,0.19,0.22
							c0.01,0.02,0.02,0.04,0.04,0.05c0.08,0.09,0.16,0.19,0.24,0.28c0,0,0,0,0,0.01l0.01,0c0.1,0.13,0.2,0.26,0.31,0.4
							c0.11,0.15,0.22,0.3,0.33,0.46C44.11,38.11,44.81,39.35,45.4,40.89z"/>
						<path class="st3" d="M32.47,38.46h0.85l-0.38,3.07c-0.15,0.01-0.31,0.01-0.47,0.02V38.46z"/>
					</g>
					<g>
						<g>
							<path class="st3" d="M32.47,28.1h-8.91c1.46,2.06,3.52,4.17,5.8,4.17h0.03c0.81,1.03,1.85,1.66,2.99,1.66
								c0.03,0,0.06-0.01,0.09-0.01V28.1z"/>
							<path class="st3" d="M32.47,38.46h-0.85L32,41.52c0.16,0.01,0.31,0.01,0.47,0.02V38.46z"/>
						</g>
						<path class="st3" d="M29.37,41.04c-4.31-0.95-6.65-2.4-7.87-3.89c0.89-1.28,1.75-2.09,2.23-2.5L29.37,41.04z"/>
						<g>
							<path class="st5" d="M32.47,32.66c-0.03,0-0.06,0-0.09,0c-0.43,0-0.84-0.09-1.23-0.25c-0.02,0.1-0.04,0.2-0.04,0.31v0.55
								c0.41,0.18,0.83,0.27,1.27,0.27c0.03,0,0.06,0,0.09,0V32.66z"/>
							<path class="st5" d="M32.47,31.42c-0.02,0-0.03-0.01-0.05-0.01c-0.62,0-1.13,0.43-1.27,1c0.39,0.16,0.8,0.25,1.23,0.25
								c0.03,0,0.06,0,0.09,0V31.42z"/>
						</g>
						<path class="st5" d="M40.04,34.17l-2.29-0.03l-3.92-0.05v-0.81c-0.41,0.18-0.83,0.27-1.27,0.27c-0.03,0-0.06,0-0.09,0l0,0
							c0,0,0,0,0,0c0,0,0,0,0,0l0,0c-0.03,0-0.06,0-0.09,0c-0.44,0-0.87-0.09-1.27-0.27v0.81l-3.92,0.05l-2.29,0.03
							c-0.4,0.7-0.22,0.77-0.22,1.57c0,2,1.38,3.76,3.48,4.81c0.01,0.01,0.02,0.01,0.03,0.01c0.38,0.18,0.77,0.35,1.19,0.48
							c0.81,0.27,1.7,0.44,2.63,0.49c0.05,0,0.1,0.01,0.15,0.01c0.1,0,0.21,0,0.31,0.01l0,0c0,0,0,0,0,0c0,0,0,0,0,0l0,0
							c0.11,0,0.21,0,0.31-0.01c0.05,0,0.1-0.01,0.15-0.01c0.93-0.05,1.82-0.22,2.63-0.49c0.42-0.13,0.82-0.3,1.19-0.48
							c0.01,0,0.02,0,0.03-0.01c2.1-1.05,3.48-2.81,3.48-4.81C40.26,34.93,40.44,34.87,40.04,34.17z"/>
						<path class="st5" d="M32.47,32.66c0.03,0,0.06,0,0.09,0c0.43,0,0.84-0.09,1.23-0.25c0.02,0.1,0.04,0.2,0.04,0.31v0.55
							c-0.41,0.18-0.83,0.27-1.27,0.27c-0.03,0-0.06,0-0.09,0V32.66z"/>
						<path class="st5" d="M32.47,31.42c0.02,0,0.03-0.01,0.05-0.01c0.62,0,1.13,0.43,1.27,1c-0.39,0.16-0.8,0.25-1.23,0.25
							c-0.03,0-0.06,0-0.09,0V31.42z"/>
					</g>
					<path class="st3" d="M43.44,37.14c-1.22,1.49-3.56,2.94-7.87,3.89l2.34-2.65l0.14-0.16l1.83-2.07l0.39-0.44l0.94-1.07
						c0.06,0.05,0.13,0.11,0.2,0.17c0.03,0.03,0.07,0.07,0.11,0.1c0.04,0.03,0.08,0.07,0.12,0.11c0.04,0.04,0.08,0.08,0.13,0.12h0v0
						c0.04,0.03,0.08,0.08,0.12,0.12c0.05,0.05,0.09,0.09,0.14,0.14c0.09,0.1,0.19,0.2,0.29,0.31c0.07,0.07,0.13,0.14,0.19,0.22
						c0.01,0.01,0.03,0.03,0.04,0.04c0.08,0.09,0.15,0.18,0.23,0.28c0,0,0,0,0,0.01h0.01v0c0.1,0.13,0.2,0.26,0.31,0.4
						C43.22,36.83,43.33,36.98,43.44,37.14z"/>
					<path class="st6" d="M43.99,32.69c0,0.27-0.01,0.54-0.06,0.82c-0.12,0.88-0.46,1.83-1.14,2.77v0c-0.65,0.9-1.6,1.81-2.96,2.68
						c-0.08,0.05-0.17,0.11-0.26,0.16c-0.79,0.49-1.71,0.96-2.79,1.42c-0.02,0.01-0.05,0.02-0.07,0.03
						c-0.02,0.01-0.04,0.02-0.05,0.02c-0.07,0.02-0.13,0.05-0.19,0.08c-0.19,0.08-0.39,0.16-0.59,0.24c-0.1,0.04-0.2,0.08-0.31,0.12
						l2.51-4.85l0.86-1.65l0.19-0.38l3.14-6.05C42.27,28.1,43.99,30.08,43.99,32.69z"/>
					<path class="st6" d="M29.37,41.04c-1.61-0.6-2.93-1.25-4.01-1.91c-0.09-0.05-0.17-0.11-0.26-0.16
						c-2.79-1.79-3.87-3.73-4.11-5.46c-0.04-0.28-0.06-0.55-0.06-0.81c0-2.61,1.72-4.59,1.72-4.59L29.37,41.04z"/>
					<path class="st3" d="M28.45,45.95l-1.35,0.4c-0.05-0.16-0.1-0.33-0.17-0.51c-2.41-1.03-1.19-2.7-2.53-4.8
						c-0.15,0.17-2.77,4.18-3.22,7.07l-0.32,0.1c-0.69-3.02,3.88-8.09,3.88-8.09S26.79,45.18,28.45,45.95z"/>
					<path class="st3" d="M41.68,41.99l-0.35,0.11l-0.11,0.03c-0.29-0.49-0.52-0.85-0.63-1.01c-0.04-0.05-0.06-0.08-0.07-0.09
						c-0.33,0.53-0.51,1.02-0.62,1.49l-0.99,0.3c0.74-1.39,1.27-2.7,1.27-2.7S40.88,40.89,41.68,41.99z"/>
					<g>
						<polygon class="st4" points="23.73,35.8 24.54,36.87 24.18,35.58 						"/>
						<polygon class="st4" points="26.53,38.4 27.34,39.48 26.98,38.18 						"/>
						<polygon class="st4" points="22.26,29.38 23.07,30.45 22.71,29.16 						"/>
						<polygon class="st4" points="23.33,31.63 24.14,32.71 23.77,31.41 						"/>
						<polygon class="st4" points="24.4,33.89 25.21,34.96 24.84,33.67 						"/>
						<polygon class="st4" points="25.47,36.15 26.27,37.22 25.91,35.93 						"/>
						<path class="st4" d="M25.37,39.12c-0.09-0.05-0.17-0.11-0.26-0.16l-0.47-0.63l0.44-0.22L25.37,39.12z"/>
						<polygon class="st4" points="21.6,31.28 22.41,32.35 22.04,31.06 						"/>
						<polygon class="st4" points="22.67,33.54 23.48,34.61 23.11,33.32 						"/>
						<path class="st4" d="M21.35,33.97L21,33.5c-0.04-0.28-0.06-0.55-0.06-0.81l0.04-0.02L21.35,33.97z"/>
						<polygon class="st4" points="22.08,35.57 22.88,36.64 22.52,35.35 						"/>
					</g>
					<g>
						<polygon class="st4" points="41.2,35.8 40.39,36.87 40.76,35.58 						"/>
						<polygon class="st4" points="38.4,38.4 37.6,39.48 37.96,38.18 						"/>
						<polygon class="st4" points="42.67,29.38 41.86,30.45 42.23,29.16 						"/>
						<polygon class="st4" points="41.61,31.63 40.8,32.71 41.16,31.41 						"/>
						<polygon class="st4" points="40.54,33.89 39.73,34.96 40.1,33.67 						"/>
						<polygon class="st4" points="39.47,36.15 38.66,37.22 39.03,35.93 						"/>
						<path class="st4" d="M39.57,39.12c0.09-0.05,0.17-0.11,0.26-0.16l0.47-0.63l-0.44-0.22L39.57,39.12z"/>
						<polygon class="st4" points="43.34,31.28 42.53,32.35 42.89,31.06 						"/>
						<polygon class="st4" points="42.27,33.54 41.46,34.61 41.83,33.32 						"/>
						<path class="st4" d="M43.99,32.69c0,0.27-0.01,0.54-0.06,0.82l-0.34,0.46l0.37-1.29L43.99,32.69z"/>
						<polygon class="st4" points="42.86,35.57 42.05,36.64 42.42,35.35 						"/>
					</g>
				</g>
				<g>
					<path class="st2" d="M43.62,22.96c0,0-1.28,2.84-3.26,5.14c-1.34,1.56-3,2.88-4.79,2.91h-0.03c-0.04,0-0.08-0.01-0.12-0.02
						c0.59-0.77,1.06-1.76,1.33-2.88c0.18-0.74,0.27-1.53,0.27-2.36c0-2.96-1.24-5.48-2.98-6.47c-0.09,0.01-0.17,0.03-0.26,0.04
						c-0.05,0.01-0.11,0.03-0.16,0.05c-0.03,0.01-0.06,0.01-0.08,0.03c-0.06,0.02-0.12,0.05-0.18,0.08
						c-0.02,0.01-0.03,0.01-0.05,0.02c-0.04,0.03-0.09,0.05-0.13,0.08c-0.02,0.01-0.04,0.02-0.05,0.03
						c-0.01,0.01-0.02,0.01-0.03,0.02c-0.15,0.1-0.28,0.23-0.39,0.36c-0.1,0.12-0.19,0.25-0.26,0.39v0.01l0,0c0,0,0,0,0,0v-0.01
						c-0.07-0.14-0.15-0.27-0.26-0.39c-0.13-0.16-0.29-0.3-0.47-0.41c-0.11-0.08-0.23-0.14-0.36-0.19c-0.16-0.06-0.33-0.1-0.5-0.12
						c-1.74,0.99-2.98,3.51-2.98,6.47c0,0.83,0.1,1.62,0.27,2.36c0.28,1.13,0.74,2.12,1.33,2.88c-0.04,0.01-0.08,0.02-0.12,0.02
						h-0.03c-1.79-0.03-3.45-1.35-4.78-2.91c-1.98-2.31-3.26-5.14-3.26-5.14l7.96-8.04l0.19-0.2l0.03-0.03l0.2-0.2l2.76-2.92v-0.01
						l0,0l0,0v0.01l0.06,0.06l2.71,2.86l0.23,0.23l0.19,0.2L43.62,22.96z"/>
					<g>
						<polygon class="st3" points="32.47,18.8 34.61,15.96 32.47,13.04 32.47,13.03 32.47,13.04 32.47,13.03 32.47,13.04 
							30.33,15.96 32.47,18.8 32.47,18.81 32.47,18.8 32.47,18.81 						"/>
						<polygon class="st7" points="35.66,14.92 32.47,19.18 32.47,19.18 32.47,19.18 32.46,19.18 32.46,19.18 29.28,14.92 
							29.47,14.72 29.5,14.69 30.39,15.88 30.67,16.26 32.46,13.87 32.46,13.86 32.47,13.87 32.47,13.86 32.47,13.87 34.26,16.26 
							34.55,15.88 35.44,14.69 35.46,14.72 						"/>
						<polygon class="st3" points="32.47,17.74 33.53,16.34 32.47,14.93 32.47,14.92 32.47,14.92 32.47,14.92 32.47,14.93 
							31.41,16.34 32.47,17.74 32.47,17.75 32.47,17.75 32.47,17.75 						"/>
						<polygon class="st3" points="24.81,16.08 25.86,14.67 24.81,13.26 24.81,13.25 24.8,13.26 24.8,13.25 24.8,13.26 23.74,14.67 
							24.8,16.08 24.8,16.09 24.8,16.09 24.81,16.09 						"/>
					</g>
					<path class="st5" d="M34.06,19.27c-0.7,0.08-1.29,0.51-1.6,1.11c-0.3-0.61-0.89-1.04-1.6-1.11c-1.74,0.99-2.97,3.52-2.97,6.47
						c0,2.1,0.62,3.98,1.61,5.25c0,0.01,0.01,0.02,0.01,0.02c0,0,0,0,0,0l0,0c0.51,0.65,1.1,1.13,1.76,1.4
						c0.38,0.15,0.77,0.24,1.18,0.25v0c0,0,0,0,0,0c0,0,0,0,0,0v0c0.41-0.01,0.8-0.09,1.18-0.25c0.66-0.27,1.26-0.76,1.76-1.4l0,0
						c0,0,0,0,0,0c0.01-0.01,0.01-0.01,0.01-0.02c0.98-1.27,1.61-3.15,1.61-5.25C37.04,22.78,35.8,20.26,34.06,19.27z"/>
					<g>
						<g>
							<path class="st4" d="M29.05,25.34c-0.02,0.05-0.03,0.1-0.03,0.16c0,0.35,0.44,0.64,0.97,0.64s0.97-0.29,0.97-0.64
								c0-0.06-0.01-0.11-0.03-0.16H29.05z"/>
						</g>
						<g>
							<path class="st4" d="M35.89,25.34c0.02,0.05,0.03,0.1,0.03,0.16c0,0.35-0.44,0.64-0.97,0.64c-0.54,0-0.98-0.29-0.98-0.64
								c0-0.06,0.01-0.11,0.03-0.16H35.89z"/>
						</g>
						<g>
							<path class="st2" d="M33.74,30.13h-1.27h-0.01H31.2c0.25,0.34,0.73,0.57,1.27,0.57v0c0,0,0,0,0,0c0,0,0,0,0,0v0
								C33.01,30.7,33.49,30.47,33.74,30.13z"/>
							<path class="st8" d="M32.47,30.07c-0.58-0.68-1.4,0.18-1.4,0.18h1.4h0.01h1.4C33.87,30.25,33.05,29.39,32.47,30.07z"/>
						</g>
						<polygon class="st3" points="32.47,26.42 32.47,26.4 32.47,26.41 32.47,26.4 32.47,26.42 31.73,28.76 32.47,28.76 
							32.47,28.76 33.2,28.76 						"/>
						<polygon class="st2" points="33.87,23.94 35.8,24.05 35.83,24.05 35.84,24.06 36.61,24.9 35.76,24.15 35.8,24.16 33.87,24.26 
													"/>
						<polygon class="st2" points="31.24,24.26 29.3,24.16 29.34,24.15 28.49,24.9 29.26,24.06 29.27,24.05 29.3,24.05 31.23,23.94 
													"/>
					</g>
				</g>
				<g>
					<path class="st3" d="M29.37,41.04c-0.42-0.16-0.82-0.32-1.19-0.48c-0.01,0-0.02,0-0.03-0.01c-2.1-1.05-3.48-2.81-3.48-4.81
						c0-0.8-0.18-0.87,0.22-1.57l2.29-0.03L29.37,41.04z"/>
					<path class="st3" d="M33.79,32.42c-0.39,0.16-0.8,0.25-1.23,0.25c-0.03,0-0.06,0-0.09,0l0,0c0,0,0,0,0,0c0,0,0,0,0,0l0,0
						c-0.03,0-0.06,0-0.09,0c-0.43,0-0.84-0.09-1.23-0.25c-0.02,0.1-0.04,0.2-0.04,0.31v0.55c0.41,0.18,0.83,0.27,1.27,0.27
						c0.03,0,0.06,0,0.09,0c0.03,0,0.06,0,0.09,0c0.44,0,0.87-0.09,1.27-0.27v-0.55C33.83,32.62,33.81,32.52,33.79,32.42z"/>
					<path class="st3" d="M33.13,38.6h-0.66h-0.01h-0.66l0.34,2.93c0.1,0,0.21,0,0.31,0.01l0,0c0,0,0,0,0,0c0,0,0,0,0,0l0,0
						c0.11,0,0.21,0,0.31-0.01L33.13,38.6z"/>
					<path class="st3" d="M35.56,41.04c0.42-0.16,0.82-0.32,1.19-0.48c0.01,0,0.02,0,0.03-0.01c2.1-1.05,3.48-2.81,3.48-4.81
						c0-0.8,0.18-0.87-0.22-1.57l-2.29-0.03L35.56,41.04z"/>
				</g>
			</g>
			<path class="st3" d="M45.4,40.89l-3.72,1.11l-0.35,0.11c-0.37-0.61-0.64-1.01-0.68-1.06c-0.02,0.03-0.04,0.06-0.05,0.09
				c-0.3,0.5-0.46,0.96-0.57,1.4l-0.99,0.3l-6.57,1.96V11.69l0.06-0.06l2.71,2.86l0.23,0.23l0.19,0.2l7.97,8.04
				c0,0-1.28,2.84-3.26,5.14h1.91c0,0,1.72,1.98,1.72,4.59c0,0.27-0.01,0.54-0.06,0.82c-0.12,0.88-0.46,1.83-1.14,2.77v0
				c0.1,0.13,0.2,0.26,0.31,0.4c0.11,0.15,0.22,0.3,0.33,0.46C44.11,38.11,44.81,39.35,45.4,40.89z"/>
			<path class="st3" d="M33.81,19.31c0.08-0.02,0.17-0.04,0.26-0.04C33.98,19.28,33.89,19.29,33.81,19.31z"/>
			<path class="st3" d="M33.12,19.62c0.01-0.01,0.02-0.01,0.03-0.02C33.14,19.61,33.13,19.61,33.12,19.62z"/>
			<path class="st3" d="M33.33,19.49c0.02-0.01,0.03-0.01,0.05-0.02C33.37,19.48,33.35,19.48,33.33,19.49z"/>
			<path class="st3" d="M33.56,19.39c0.03-0.01,0.06-0.02,0.08-0.03C33.62,19.37,33.59,19.38,33.56,19.39z"/>
		</g>
		<g>
			<g>
				<g>
					<polygon class="st0" points="40.92,65.02 21.32,65.02 21.41,63.77 21.47,63.02 21.7,59.77 21.76,59.01 21.83,57.97 
						21.83,57.97 21.9,57.01 22.64,56.99 22.99,56.99 23.35,56.98 23.71,56.97 24.13,56.96 24.63,56.95 25.51,56.93 26.5,56.91 
						31.12,56.82 31.13,56.82 35.75,56.91 36.73,56.93 37.61,56.95 38.11,56.96 38.53,56.97 38.89,56.98 39.26,56.99 39.6,56.99 
						40.34,57.01 40.41,57.97 40.49,59.01 40.54,59.77 40.78,63.02 40.83,63.79 					"/>
					<path class="st3" d="M31.13,59.2v5.82h-8.91c1.46-2.06,3.52-4.17,5.79-4.17h0.03c0.5-0.63,1.08-1.12,1.72-1.4
						c0.4-0.17,0.83-0.27,1.27-0.27C31.06,59.19,31.09,59.2,31.13,59.2C31.12,59.2,31.12,59.2,31.13,59.2z"/>
					<g>
						<path class="st2" d="M45.39,44.13c0.04,5.72-1.69,9.54-3.31,11.84c-0.08,0.11-0.15,0.21-0.23,0.32
							c-0.08,0.12-0.17,0.24-0.26,0.35c-0.06,0.07-0.11,0.14-0.16,0.2c-0.08,0.1-0.16,0.2-0.24,0.29v0
							c-0.08,0.09-0.15,0.18-0.23,0.26c-0.2,0.22-0.39,0.41-0.55,0.58c-0.22,0.21-0.4,0.38-0.55,0.51
							c-0.26,0.22-0.41,0.32-0.41,0.32l-0.6-0.15l-0.11-0.03h-0.01l-0.23-0.06l-0.07-0.02l-0.84,0.04h0l-1.29,0.05l-5.17,0.21h0
							l-5.17-0.21l-1.3-0.05l-0.85-0.04l-0.06,0.02h-0.01l-0.23,0.06l-0.11,0.03l-0.6,0.15c0,0-0.15-0.11-0.42-0.32
							c-0.06-0.05-0.12-0.11-0.2-0.17c-0.02-0.02-0.04-0.03-0.06-0.05c-0.09-0.08-0.19-0.18-0.3-0.28c0,0,0,0,0,0l-0.13-0.13
							c-0.09-0.09-0.18-0.19-0.28-0.29c-0.05-0.05-0.09-0.1-0.14-0.16c-0.05-0.06-0.1-0.12-0.15-0.18
							c-0.03-0.03-0.05-0.06-0.08-0.09c-0.08-0.09-0.16-0.19-0.24-0.29c-0.1-0.13-0.21-0.26-0.31-0.41
							c-0.11-0.14-0.22-0.3-0.33-0.46c-0.68-0.97-1.38-2.21-1.96-3.74l3.71-1.11l0.45-0.14c0.38,0.63,0.66,1.05,0.7,1.09
							c0.33-0.52,0.5-1.02,0.62-1.49l0.99-0.3l6.24-1.86l4.22-1.26l1.35-0.4c0.05,0.16,0.11,0.33,0.17,0.51
							c2.41,1.03,1.19,2.7,2.52,4.8c0.15-0.17,2.77-4.18,3.22-7.07l0.32-0.1l2.61-0.78H45.39z"/>
						<path class="st3" d="M31.12,54.66h-0.85l0.38-3.06c0.16-0.01,0.31-0.01,0.47-0.02V54.66z"/>
					</g>
					<g>
						<g>
							<path class="st3" d="M31.12,65.02h8.91c-1.46-2.06-3.52-4.17-5.8-4.17H34.2c-0.81-1.03-1.85-1.66-3-1.66
								c-0.03,0-0.06,0-0.09,0.01V65.02z"/>
							<path class="st3" d="M31.12,54.66h0.85l-0.38-3.06c-0.16-0.01-0.31-0.01-0.47-0.02V54.66z"/>
						</g>
						<path class="st3" d="M34.22,52.08c4.31,0.95,6.65,2.4,7.87,3.89c-0.89,1.28-1.75,2.09-2.23,2.5L34.22,52.08z"/>
						<g>
							<path class="st5" d="M31.12,60.46c0.03,0,0.06,0,0.09,0c0.43,0,0.84,0.09,1.23,0.25c0.02-0.1,0.04-0.21,0.04-0.31v-0.55
								c-0.4-0.18-0.83-0.27-1.27-0.27c-0.03,0-0.06,0-0.09,0V60.46z"/>
							<path class="st5" d="M31.12,61.7c0.02,0,0.03,0,0.05,0c0.62,0,1.13-0.43,1.27-1c-0.39-0.16-0.8-0.25-1.23-0.25
								c-0.03,0-0.06,0-0.09,0V61.7z"/>
						</g>
						<path class="st5" d="M23.55,58.95l2.29,0.03l3.92,0.05v0.81c0.41-0.18,0.83-0.27,1.27-0.27c0.03,0,0.06,0,0.08,0l0,0
							c0,0,0,0,0,0c0,0,0,0,0,0l0,0c0.03,0,0.06,0,0.08,0c0.44,0,0.87,0.09,1.27,0.27v-0.81l3.92-0.05l2.29-0.03
							c0.4-0.7,0.22-0.77,0.22-1.57c0-2-1.38-3.76-3.48-4.81c-0.01-0.01-0.02-0.01-0.02-0.01c-0.38-0.18-0.77-0.35-1.19-0.48
							c-0.81-0.27-1.7-0.44-2.63-0.49c-0.05,0-0.1-0.01-0.15-0.01c-0.1,0-0.21-0.01-0.31-0.01l0,0c0,0,0,0,0,0c0,0,0,0,0,0l0,0
							c-0.1,0-0.21,0-0.31,0.01c-0.05,0-0.1,0.01-0.15,0.01c-0.93,0.05-1.82,0.22-2.63,0.49c-0.42,0.13-0.82,0.3-1.19,0.48
							c-0.01,0-0.02,0.01-0.02,0.01c-2.1,1.05-3.48,2.81-3.48,4.81C23.33,58.19,23.15,58.25,23.55,58.95z"/>
						<path class="st5" d="M31.12,60.46c-0.03,0-0.06,0-0.09,0c-0.43,0-0.84,0.09-1.23,0.25c-0.03-0.1-0.04-0.21-0.04-0.31v-0.55
							c0.41-0.18,0.83-0.27,1.27-0.27c0.03,0,0.06,0,0.09,0V60.46z"/>
						<path class="st5" d="M31.12,61.7c-0.02,0-0.03,0-0.05,0c-0.62,0-1.13-0.43-1.27-1c0.39-0.16,0.8-0.25,1.23-0.25
							c0.03,0,0.06,0,0.09,0V61.7z"/>
					</g>
					<path class="st3" d="M28.02,52.08l-2.34,2.65l-0.14,0.16l-1.84,2.08l-0.38,0.43l-0.95,1.07c-0.06-0.05-0.12-0.11-0.2-0.17
						c-0.02-0.02-0.04-0.03-0.06-0.05c-0.09-0.09-0.19-0.18-0.3-0.28c0,0,0,0,0,0v0c-0.04-0.04-0.08-0.08-0.13-0.12
						c-0.09-0.09-0.18-0.19-0.28-0.29c-0.05-0.05-0.09-0.1-0.14-0.16c-0.05-0.06-0.1-0.12-0.15-0.18c-0.03-0.03-0.05-0.06-0.07-0.09
						h-0.01c-0.08-0.09-0.16-0.19-0.24-0.29c-0.1-0.13-0.21-0.26-0.31-0.41c-0.11-0.14-0.22-0.3-0.33-0.46
						C21.38,54.49,23.71,53.03,28.02,52.08z"/>
					<path class="st6" d="M28.02,52.08l-2.51,4.85l-0.86,1.65l-0.19,0.38l-3.14,6.05c0,0-1.72-1.98-1.73-4.59
						c0-0.26,0.02-0.53,0.06-0.81c0.12-0.89,0.47-1.83,1.15-2.78c0.65-0.9,1.6-1.81,2.96-2.68c0.08-0.05,0.16-0.11,0.25-0.17
						c0.83-0.51,1.8-1.01,2.93-1.48c0.23-0.09,0.46-0.19,0.69-0.28C27.76,52.18,27.89,52.13,28.02,52.08z"/>
					<path class="st6" d="M34.22,52.08c1.61,0.6,2.93,1.25,4.01,1.91c0.09,0.05,0.17,0.11,0.26,0.16c2.79,1.79,3.87,3.73,4.11,5.46
						c0.04,0.27,0.06,0.55,0.06,0.81c0,2.61-1.72,4.59-1.72,4.59L34.22,52.08z"/>
					<path class="st3" d="M35.14,47.17l1.35-0.4c0.05,0.16,0.1,0.33,0.17,0.51c2.41,1.03,1.19,2.7,2.53,4.8
						c0.14-0.17,2.77-4.18,3.22-7.08l0.32-0.1c0.69,3.02-3.88,8.09-3.88,8.09S36.79,47.94,35.14,47.17z"/>
					<path class="st3" d="M24.67,50.3C23.93,51.69,23.4,53,23.4,53s-0.69-0.76-1.49-1.87l0.45-0.14c0.38,0.63,0.66,1.05,0.7,1.09
						c0.33-0.52,0.5-1.02,0.62-1.49L24.67,50.3z"/>
					<g>
						<polygon class="st4" points="39.85,57.33 39.04,56.25 39.41,57.54 						"/>
						<polygon class="st4" points="37.06,54.72 36.25,53.64 36.61,54.93 						"/>
						<polygon class="st4" points="41.32,63.75 40.52,62.67 40.88,63.96 						"/>
						<polygon class="st4" points="40.26,61.49 39.45,60.41 39.82,61.71 						"/>
						<polygon class="st4" points="39.19,59.23 38.38,58.16 38.75,59.45 						"/>
						<polygon class="st4" points="38.12,56.97 37.31,55.9 37.68,57.19 						"/>
						<path class="st4" d="M38.22,54c0.09,0.05,0.17,0.11,0.26,0.16l0.47,0.63l-0.44,0.22L38.22,54z"/>
						<polygon class="st4" points="41.99,61.84 41.18,60.77 41.55,62.06 						"/>
						<polygon class="st4" points="40.92,59.58 40.11,58.51 40.48,59.8 						"/>
						<path class="st4" d="M42.24,59.16l0.35,0.46c0.04,0.27,0.06,0.55,0.06,0.81l-0.04,0.02L42.24,59.16z"/>
						<polygon class="st4" points="41.51,57.55 40.71,56.48 41.07,57.77 						"/>
					</g>
					<g>
						<polygon class="st4" points="22.39,57.33 23.2,56.25 22.83,57.54 						"/>
						<polygon class="st4" points="25.18,54.72 25.99,53.64 25.63,54.93 						"/>
						<polygon class="st4" points="20.92,63.75 21.72,62.67 21.36,63.96 						"/>
						<polygon class="st4" points="21.98,61.49 22.79,60.41 22.43,61.71 						"/>
						<polygon class="st4" points="23.05,59.23 23.86,58.16 23.49,59.45 						"/>
						<polygon class="st4" points="24.12,56.97 24.93,55.9 24.56,57.19 						"/>
						<path class="st4" d="M24.02,54c-0.09,0.05-0.17,0.11-0.26,0.16l-0.47,0.63l0.44,0.22L24.02,54z"/>
						<polygon class="st4" points="20.25,61.84 21.06,60.77 20.69,62.06 						"/>
						<polygon class="st4" points="21.32,59.58 22.13,58.51 21.76,59.8 						"/>
						<path class="st4" d="M20,59.16l-0.37,1.3l-0.04-0.02c0-0.26,0.02-0.53,0.06-0.81L20,59.16z"/>
						<polygon class="st4" points="20.73,57.55 21.54,56.48 21.17,57.77 						"/>
					</g>
				</g>
				<g>
					<path class="st2" d="M28.17,62.11c-0.05,0-0.13,0-0.13,0C28.1,62.11,28.15,62.11,28.17,62.11
						C28.18,62.11,28.18,62.11,28.17,62.11L28.17,62.11z"/>
					<path class="st2" d="M34.07,62.11c0.02,0,0.07,0,0.14,0C34.2,62.11,34.12,62.11,34.07,62.11
						C34.07,62.11,34.07,62.11,34.07,62.11z"/>
					<path class="st2" d="M42.28,70.16l-7.97,8.04l-0.2,0.2l-0.03,0.03l-0.2,0.2l-2.76,2.92v0h-0.01v0l-0.68-0.72l-2.09-2.21
						l-0.2-0.2l-0.02-0.03l-0.2-0.2l-7.97-8.04c0,0,1.28-2.84,3.27-5.15c1.34-1.56,2.99-2.88,4.78-2.91h0.03
						c0.04,0.01,0.08,0.02,0.12,0.02c-0.59,0.77-1.06,1.76-1.33,2.88c-0.18,0.74-0.28,1.53-0.28,2.37c0,2.96,1.24,5.48,2.98,6.47
						c0.43-0.05,0.83-0.24,1.14-0.52c0.06-0.05,0.12-0.11,0.17-0.17c0.11-0.13,0.2-0.26,0.28-0.41v-0.02c0,0,0,0,0,0.01
						c0,0,0,0,0-0.01v0.01c0.07,0.15,0.17,0.29,0.28,0.42c0.05,0.06,0.11,0.12,0.17,0.17c0.31,0.28,0.7,0.47,1.14,0.52
						c1.74-0.99,2.97-3.52,2.97-6.47c0-0.83-0.1-1.63-0.28-2.37c-0.27-1.13-0.73-2.12-1.33-2.88c0.04,0,0.08-0.01,0.12-0.02h0.02
						c1.79,0.03,3.45,1.35,4.79,2.91C40.99,67.32,42.28,70.16,42.28,70.16z"/>
					<g>
						<polygon class="st3" points="31.12,74.32 28.98,77.16 31.12,80.08 31.12,80.09 31.12,80.08 31.12,80.09 31.12,80.08 
							33.26,77.16 31.12,74.32 31.12,74.31 31.12,74.32 31.12,74.31 						"/>
						<polygon class="st7" points="34.31,78.2 34.12,78.4 34.09,78.43 33.2,77.24 32.92,76.86 31.13,79.25 31.13,79.26 31.12,79.26 
							31.12,79.26 31.12,79.25 29.33,76.86 29.04,77.25 28.15,78.43 28.13,78.4 27.93,78.2 31.12,73.95 31.12,73.94 31.12,73.94 
							31.13,73.94 31.13,73.95 						"/>
						<polygon class="st3" points="31.12,75.38 30.06,76.79 31.12,78.2 31.12,78.2 31.12,78.2 31.12,78.2 31.12,78.2 32.18,76.79 
							31.12,75.38 31.12,75.37 31.12,75.37 31.12,75.37 						"/>
					</g>
					<path class="st5" d="M29.52,73.85c0.7-0.08,1.3-0.51,1.6-1.11c0.3,0.61,0.89,1.04,1.59,1.11c1.74-0.99,2.98-3.52,2.98-6.47
						c0-2.1-0.62-3.98-1.61-5.25c-0.01-0.01-0.01-0.01-0.01-0.02c0,0,0,0,0,0l0,0c-0.51-0.65-1.11-1.13-1.76-1.4
						c-0.38-0.16-0.77-0.24-1.18-0.25l0,0c0,0,0,0,0,0c0,0,0,0,0,0l0,0c-0.41,0.01-0.8,0.09-1.18,0.25
						c-0.66,0.27-1.26,0.76-1.76,1.4h0c0,0,0,0,0,0c0,0.01-0.01,0.02-0.01,0.02c-0.98,1.27-1.61,3.15-1.61,5.25
						C26.55,70.34,27.79,72.86,29.52,73.85z"/>
					<g>
						<g>
							<path class="st4" d="M34.54,67.78c0.02-0.05,0.03-0.11,0.03-0.16c0-0.36-0.44-0.64-0.97-0.64c-0.54,0-0.97,0.29-0.97,0.64
								c0,0.05,0.01,0.11,0.03,0.16H34.54z"/>
						</g>
						<g>
							<path class="st4" d="M27.7,67.78c-0.02-0.05-0.03-0.11-0.03-0.16c0-0.36,0.44-0.64,0.97-0.64c0.54,0,0.98,0.29,0.98,0.64
								c0,0.05-0.01,0.11-0.03,0.16H27.7z"/>
						</g>
						<g>
							<path class="st2" d="M29.85,62.98h1.27h0.01h1.27c-0.26-0.34-0.73-0.57-1.27-0.57v0c0,0,0,0,0,0c0,0,0,0,0,0v0
								C30.57,62.42,30.1,62.65,29.85,62.98z"/>
							<path class="st8" d="M31.12,63.05c0.58,0.68,1.4-0.18,1.4-0.18h-1.4h-0.01h-1.4C29.72,62.87,30.54,63.73,31.12,63.05z"/>
						</g>
						<polygon class="st3" points="31.12,66.7 31.12,66.72 31.12,66.71 31.12,66.72 31.12,66.7 31.86,64.36 31.12,64.36 
							31.12,64.36 30.38,64.36 						"/>
						<polygon class="st2" points="29.72,69.18 27.79,69.07 27.76,69.07 27.74,69.06 26.98,68.22 27.83,68.97 27.79,68.96 
							29.72,68.86 						"/>
						<polygon class="st2" points="32.35,68.86 34.29,68.96 34.25,68.97 35.1,68.22 34.33,69.06 34.31,69.07 34.29,69.07 
							32.35,69.18 						"/>
					</g>
				</g>
				<g>
					<path class="st3" d="M34.22,52.08c0.42,0.16,0.82,0.32,1.19,0.48c0.01,0,0.02,0.01,0.02,0.01c2.1,1.05,3.48,2.81,3.48,4.81
						c0,0.8,0.18,0.87-0.22,1.57l-2.29,0.03L34.22,52.08z"/>
					<path class="st3" d="M29.8,60.71c0.39-0.16,0.8-0.25,1.23-0.25c0.03,0,0.06,0,0.09,0l0,0c0,0,0,0,0,0c0,0,0,0,0,0l0,0
						c0.03,0,0.06,0,0.09,0c0.43,0,0.84,0.09,1.23,0.25c0.02-0.1,0.04-0.21,0.04-0.31v-0.55c-0.4-0.18-0.83-0.27-1.27-0.27
						c-0.03,0-0.06,0-0.09,0c-0.03,0-0.06,0-0.09,0c-0.44,0-0.87,0.09-1.27,0.27v0.55C29.76,60.5,29.78,60.6,29.8,60.71z"/>
					<path class="st3" d="M30.46,54.52h0.66h0.01h0.66l-0.34-2.93c-0.1,0-0.21-0.01-0.31-0.01l0,0c0,0,0,0,0,0c0,0,0,0,0,0l0,0
						c-0.1,0-0.21,0-0.31,0.01L30.46,54.52z"/>
					<path class="st3" d="M28.02,52.08c-0.42,0.16-0.82,0.32-1.19,0.48c-0.01,0-0.02,0.01-0.02,0.01c-2.1,1.05-3.48,2.81-3.48,4.81
						c0,0.8-0.18,0.87,0.22,1.57l2.29,0.03L28.02,52.08z"/>
				</g>
			</g>
			<path class="st3" d="M31.12,48.41v33l-0.68-0.58l-2.09-2.21l-0.2-0.2l-0.02-0.03l-0.2-0.2l-7.97-8.04c0,0,1.28-2.84,3.27-5.15
				h-1.9c0,0-1.72-1.98-1.73-4.59c0-0.26,0.02-0.53,0.06-0.81c0.12-0.89,0.47-1.83,1.15-2.78c-0.1-0.13-0.21-0.26-0.31-0.41
				c-0.11-0.14-0.22-0.3-0.33-0.46c-0.68-0.97-1.38-2.21-1.96-3.74l3.71-1.11l0.45-0.14c0.38,0.63,0.66,1.05,0.7,1.09
				c0.33-0.52,0.5-1.02,0.62-1.49l0.99-0.3l6.24-1.86L31.12,48.41z"/>
		</g>
	</g>
</g>
</svg>
