<?xml version="1.0" encoding="utf-8"?>
<!-- Generator: Adobe Illustrator 26.0.3, SVG Export Plug-In . SVG Version: 6.00 Build 0)  -->
<svg version="1.1" id="Layer_1" xmlns="http://www.w3.org/2000/svg" xmlns:xlink="http://www.w3.org/1999/xlink" x="0px" y="0px"
	 viewBox="0 0 66 92" style="enable-background:new 0 0 66 92;" xml:space="preserve">
<style type="text/css">
	.st0{fill:#C9C9C9;}
	.st1{fill:#FFFFFF;}
	.st2{fill:#D66142;}
	.st3{opacity:0.2;fill:#616161;}
	.st4{fill:#333333;}
</style>
<g>
	<g>
		<path class="st0" d="M10,87.32c-3.49,0.01-6.34-2.78-6.35-6.21L3.47,10.93C3.46,7.48,6.31,4.67,9.81,4.68l46.38,0.09
			c3.49,0.01,6.33,2.82,6.33,6.26v70.03c0,3.42-2.83,6.21-6.31,6.21L10,87.32z"/>
	</g>
	<path class="st1" d="M10.58,87.15c-3.45,0-6.25-2.79-6.25-6.23V10.91c0-3.43,2.8-6.23,6.25-6.23h45.7c3.45,0,6.25,2.79,6.25,6.23
		v70.01c0,3.44-2.81,6.23-6.25,6.23H10.58z"/>
	<g>
		<polygon class="st2" points="44.5,10.62 50.66,18.4 44.5,26.18 38.34,18.4 		"/>
		<polygon class="st3" points="44.54,10.67 44.5,10.62 38.34,18.4 44.5,26.18 44.54,26.13 		"/>
	</g>
	<g>
		<polygon class="st2" points="44.5,28.96 50.66,36.74 44.5,44.53 38.34,36.74 		"/>
		<polygon class="st3" points="44.54,29.01 44.5,28.96 38.34,36.74 44.5,44.53 44.54,44.47 		"/>
	</g>
	<g>
		<polygon class="st2" points="22.36,47.3 16.19,55.08 22.36,62.87 28.52,55.08 		"/>
		<polygon class="st3" points="22.32,47.36 22.36,47.3 28.52,55.08 22.36,62.87 22.32,62.82 		"/>
	</g>
	<g>
		<polygon class="st2" points="22.36,65.65 16.19,73.43 22.36,81.21 28.52,73.43 		"/>
		<polygon class="st3" points="22.32,65.7 22.36,65.65 28.52,73.43 22.36,81.21 22.32,81.16 		"/>
	</g>
	<g>
		<polygon class="st2" points="22.36,10.62 28.52,18.4 22.36,26.18 16.19,18.4 		"/>
		<polygon class="st3" points="22.4,10.67 22.36,10.62 16.19,18.4 22.36,26.18 22.4,26.13 		"/>
	</g>
	<g>
		<polygon class="st2" points="22.36,28.96 28.52,36.74 22.36,44.53 16.19,36.74 		"/>
		<polygon class="st3" points="22.4,29.01 22.36,28.96 16.19,36.74 22.36,44.53 22.4,44.47 		"/>
	</g>
	<g>
		<polygon class="st2" points="44.5,47.3 38.34,55.08 44.5,62.87 50.66,55.08 		"/>
		<polygon class="st3" points="44.46,47.36 44.5,47.3 50.66,55.08 44.5,62.87 44.46,62.82 		"/>
	</g>
	<g>
		<polygon class="st2" points="44.5,65.65 38.34,73.43 44.5,81.21 50.66,73.43 		"/>
		<polygon class="st3" points="44.46,65.7 44.5,65.65 50.66,73.43 44.5,81.21 44.46,81.16 		"/>
	</g>
	<g>
		<polygon class="st2" points="9.23,23.44 7.44,21.17 9.23,18.9 11.03,21.17 		"/>
		<polygon class="st3" points="9.23,18.9 9.22,18.92 9.22,23.42 9.23,23.44 11.03,21.17 		"/>
	</g>
	<g>
		<path class="st4" d="M11.66,14.15c0,0.13-0.06,0.32-0.19,0.55c-0.18,0.32-0.43,0.65-0.76,0.99c-0.38,0.39-0.59,0.59-0.62,0.62
			c-0.24,0.18-0.54,0.27-0.89,0.27c-0.48,0-0.89-0.18-1.24-0.55c-0.3-0.31-0.44-0.62-0.44-0.91c0-0.2,0.1-0.44,0.3-0.71
			c0.2-0.27,0.41-0.54,0.62-0.82c-0.16-0.14-0.3-0.29-0.42-0.47c-0.12-0.17-0.18-0.36-0.18-0.58c0-0.26,0.1-0.55,0.3-0.84
			c0.19-0.26,0.35-0.48,0.48-0.66c0.31-0.45,0.57-0.74,0.78-0.87c0.21-0.13,0.43-0.2,0.67-0.2c0.36,0,0.67,0.1,0.94,0.31
			c0.26,0.21,0.39,0.48,0.39,0.83c0,0.38-0.16,0.74-0.47,1.08c-0.31,0.34-0.47,0.57-0.47,0.7c0.31,0.21,0.59,0.4,0.81,0.6
			C11.53,13.71,11.66,13.93,11.66,14.15z M10.49,14.95c0-0.19-0.23-0.43-0.69-0.71C9.39,14,9.12,13.87,9.01,13.87
			c-0.04,0-0.1,0.07-0.18,0.2c-0.08,0.13-0.11,0.25-0.11,0.34c0,0.25,0.15,0.48,0.45,0.71c0.28,0.21,0.54,0.31,0.79,0.31
			c0.12,0,0.24-0.05,0.35-0.15C10.43,15.17,10.49,15.06,10.49,14.95z M10.15,12.07c0-0.15-0.08-0.31-0.24-0.47
			c-0.19-0.19-0.4-0.28-0.63-0.28c-0.11,0-0.2,0.03-0.27,0.1c-0.07,0.07-0.11,0.15-0.11,0.24c0,0.2,0.15,0.41,0.46,0.64
			c0.26,0.2,0.43,0.3,0.51,0.3c0.05,0,0.11-0.07,0.18-0.2C10.12,12.27,10.15,12.16,10.15,12.07z"/>
	</g>
	<g>
		<path class="st4" d="M55.58,78.45c0-0.13,0.06-0.32,0.19-0.55c0.18-0.32,0.43-0.65,0.76-0.99c0.38-0.39,0.59-0.59,0.62-0.62
			c0.24-0.18,0.54-0.27,0.89-0.27c0.48,0,0.89,0.18,1.24,0.55c0.3,0.31,0.44,0.62,0.44,0.91c0,0.21-0.1,0.44-0.3,0.71
			c-0.2,0.27-0.41,0.54-0.62,0.82c0.16,0.14,0.3,0.29,0.42,0.47c0.12,0.17,0.18,0.36,0.18,0.58c0,0.26-0.1,0.55-0.3,0.84
			c-0.19,0.26-0.35,0.48-0.48,0.66c-0.31,0.45-0.57,0.74-0.78,0.87c-0.21,0.13-0.43,0.2-0.67,0.2c-0.36,0-0.67-0.1-0.94-0.31
			c-0.26-0.21-0.39-0.48-0.39-0.83c0-0.38,0.16-0.74,0.47-1.08c0.31-0.34,0.47-0.57,0.47-0.7c-0.31-0.21-0.59-0.4-0.81-0.6
			C55.71,78.89,55.58,78.67,55.58,78.45z M56.76,77.65c0,0.19,0.23,0.43,0.69,0.71c0.41,0.25,0.67,0.37,0.79,0.37
			c0.04,0,0.1-0.07,0.18-0.2c0.08-0.13,0.11-0.25,0.11-0.34c0-0.25-0.15-0.48-0.45-0.71c-0.28-0.21-0.54-0.31-0.79-0.31
			c-0.12,0-0.24,0.05-0.35,0.15C56.81,77.43,56.76,77.54,56.76,77.65z M57.09,80.53c0,0.15,0.08,0.31,0.24,0.47
			c0.19,0.19,0.4,0.28,0.63,0.28c0.11,0,0.2-0.03,0.27-0.1c0.07-0.07,0.11-0.15,0.11-0.24c0-0.2-0.15-0.41-0.46-0.64
			c-0.26-0.2-0.43-0.3-0.51-0.3c-0.05,0-0.11,0.07-0.18,0.2C57.12,80.33,57.09,80.44,57.09,80.53z"/>
	</g>
	<g>
		<polygon class="st2" points="58.01,69.17 59.8,71.43 58.01,73.7 56.22,71.43 		"/>
		<polygon class="st3" points="58.02,69.18 58.01,69.17 56.22,71.43 58.01,73.7 58.02,73.68 		"/>
	</g>
</g>
</svg>
