<?xml version="1.0" encoding="utf-8"?>
<!-- Generator: Adobe Illustrator 26.0.3, SVG Export Plug-In . SVG Version: 6.00 Build 0)  -->
<svg version="1.1" id="Layer_1" xmlns="http://www.w3.org/2000/svg" xmlns:xlink="http://www.w3.org/1999/xlink" x="0px" y="0px"
	 viewBox="0 0 66 92" style="enable-background:new 0 0 66 92;" xml:space="preserve">
<style type="text/css">
	.st0{fill:#C9C9C9;}
	.st1{fill:#FFFFFF;}
	.st2{fill:#333333;}
	.st3{fill:#D66142;}
	.st4{opacity:0.2;fill:#616161;}
</style>
<g>
	<g>
		<path class="st0" d="M9.09,88.96c-3.63,0.01-6.59-2.89-6.6-6.46L2.3,9.54c-0.01-3.59,2.95-6.51,6.59-6.5L57.1,3.13
			c3.63,0.01,6.58,2.93,6.58,6.51v72.8c0,3.56-2.94,6.46-6.56,6.46L9.09,88.96z"/>
	</g>
	<path class="st1" d="M9.69,88.78c-3.58,0-6.5-2.91-6.5-6.48V9.52c0-3.57,2.91-6.48,6.5-6.48H57.2c3.58,0,6.5,2.9,6.5,6.48V82.3
		c0,3.57-2.91,6.48-6.5,6.48H9.69z"/>
	<g>
		<path class="st2" d="M53.62,79.13c0.11-0.29,0.3-0.63,0.56-1.03c0.34-0.53,0.62-0.8,0.84-0.8h2.87c0.04-0.01,0.08-0.02,0.13-0.03
			c0.05-0.01,0.11-0.04,0.18-0.08h0.17v0.24c-0.12,0.1-0.23,0.21-0.32,0.33c-0.33,0.43-0.74,0.96-1.21,1.57
			c-0.35,0.45-0.61,0.81-0.77,1.07c-0.26,0.41-0.39,0.75-0.39,1c0,0.16,0.03,0.32,0.1,0.5c0.07,0.18,0.16,0.33,0.27,0.45
			c0.06,0.06,0.18,0.14,0.36,0.24c0.22,0.13,0.39,0.19,0.5,0.19c0.18,0,0.43-0.12,0.74-0.37c0.31-0.25,0.49-0.37,0.54-0.37
			c0.13,0,0.19,0.05,0.19,0.16c0,0.11-0.14,0.31-0.4,0.6c-0.27,0.29-0.52,0.52-0.76,0.68c-0.33,0.22-0.52,0.34-0.56,0.36
			c-0.29,0.16-0.54,0.25-0.74,0.25c-0.4,0-0.77-0.16-1.11-0.48c-0.34-0.32-0.51-0.7-0.51-1.13c0-0.41,0.12-0.8,0.36-1.16
			c0.04-0.06,0.21-0.29,0.52-0.71c0.43-0.59,0.69-0.94,0.77-1.05c0.35-0.47,0.53-0.71,0.53-0.73c0-0.09-0.05-0.14-0.16-0.16
			c-0.11-0.02-0.21-0.03-0.31-0.03c-0.07,0-0.15,0-0.24,0c-0.09,0-0.14,0-0.15,0c-0.55,0-0.96,0.07-1.22,0.21
			c-0.2,0.16-0.4,0.32-0.6,0.48c-0.02,0-0.05-0.01-0.08-0.02c-0.03-0.01-0.05-0.02-0.06-0.03V79.13z"/>
	</g>
	<g>
		<polygon class="st3" points="11.89,22.7 9.9,20.19 11.89,17.68 13.88,20.19 		"/>
		<polygon class="st4" points="11.89,17.68 11.88,17.69 11.88,22.68 11.89,22.7 13.88,20.19 		"/>
	</g>
	<g>
		<path class="st2" d="M14.39,13.5c-0.11,0.29-0.3,0.63-0.56,1.03c-0.34,0.53-0.62,0.8-0.84,0.8h-2.87
			c-0.04,0.01-0.08,0.02-0.13,0.03c-0.05,0.01-0.11,0.04-0.18,0.08H9.65v-0.24c0.12-0.1,0.23-0.21,0.32-0.33
			c0.33-0.43,0.74-0.96,1.21-1.57c0.35-0.45,0.61-0.81,0.77-1.07c0.26-0.41,0.39-0.75,0.39-1c0-0.16-0.03-0.32-0.1-0.5
			c-0.07-0.18-0.16-0.33-0.27-0.45c-0.06-0.06-0.18-0.14-0.36-0.25c-0.22-0.12-0.39-0.19-0.5-0.19c-0.18,0-0.43,0.12-0.74,0.37
			c-0.31,0.25-0.49,0.37-0.54,0.37c-0.13,0-0.19-0.05-0.19-0.16s0.14-0.31,0.4-0.6c0.27-0.29,0.52-0.52,0.76-0.68
			c0.33-0.22,0.52-0.34,0.56-0.36c0.29-0.16,0.54-0.25,0.74-0.25c0.4,0,0.77,0.16,1.11,0.48c0.34,0.32,0.51,0.7,0.51,1.13
			c0,0.42-0.12,0.8-0.36,1.16c-0.04,0.06-0.21,0.29-0.52,0.71c-0.43,0.59-0.69,0.94-0.77,1.05c-0.35,0.46-0.53,0.71-0.53,0.73
			c0,0.09,0.05,0.14,0.16,0.16c0.11,0.02,0.21,0.03,0.31,0.03c0.07,0,0.15,0,0.24,0c0.09,0,0.14,0,0.15,0
			c0.55,0,0.96-0.07,1.22-0.21c0.2-0.16,0.4-0.32,0.6-0.48c0.02,0,0.05,0.01,0.08,0.02c0.03,0.01,0.05,0.02,0.06,0.03V13.5z"/>
	</g>
	<g>
		<polygon class="st3" points="56.12,69.92 58.11,72.43 56.12,74.95 54.13,72.43 		"/>
		<polygon class="st4" points="56.13,69.94 56.12,69.92 54.13,72.43 56.12,74.95 56.13,74.93 		"/>
	</g>
	<g>
		<polygon class="st3" points="33.44,24.65 27.04,32.74 33.44,40.83 39.85,32.74 		"/>
		<polygon class="st4" points="33.4,24.71 33.44,24.65 39.85,32.74 33.44,40.83 33.4,40.78 		"/>
	</g>
	<g>
		<polygon class="st3" points="33.44,52.61 39.85,60.69 33.44,68.78 27.04,60.69 		"/>
		<polygon class="st4" points="33.49,52.66 33.44,52.61 27.04,60.69 33.44,68.78 33.49,68.73 		"/>
	</g>
</g>
</svg>
