<?xml version="1.0" encoding="utf-8"?>
<!-- Generator: Adobe Illustrator 26.0.3, SVG Export Plug-In . SVG Version: 6.00 Build 0)  -->
<svg version="1.1" id="Layer_1" xmlns="http://www.w3.org/2000/svg" xmlns:xlink="http://www.w3.org/1999/xlink" x="0px" y="0px"
	 viewBox="0 0 66 92" style="enable-background:new 0 0 66 92;" xml:space="preserve">
<style type="text/css">
	.st0{fill:#C9C9C9;}
	.st1{fill:#FFFFFF;}
	.st2{fill:#D66142;}
	.st3{opacity:0.2;fill:#616161;}
	.st4{fill:#333333;}
</style>
<g>
	<g>
		<path class="st0" d="M10,87.32c-3.49,0.01-6.34-2.78-6.35-6.21L3.47,10.93C3.46,7.48,6.31,4.67,9.81,4.68l46.38,0.09
			c3.49,0.01,6.33,2.82,6.33,6.26v70.03c0,3.42-2.83,6.21-6.31,6.21L10,87.32z"/>
	</g>
	<path class="st1" d="M10.58,87.15c-3.45,0-6.25-2.79-6.25-6.23V10.91c0-3.43,2.8-6.23,6.25-6.23h45.7c3.45,0,6.25,2.79,6.25,6.23
		v70.01c0,3.44-2.8,6.23-6.25,6.23H10.58z"/>
	<g>
		<polygon class="st2" points="44.5,10.62 38.34,18.4 44.5,26.18 50.66,18.4 		"/>
		<polygon class="st3" points="44.46,10.67 44.5,10.62 50.66,18.4 44.5,26.18 44.46,26.13 		"/>
	</g>
	<g>
		<polygon class="st2" points="22.36,38.13 28.52,45.91 22.36,53.7 16.19,45.91 		"/>
		<polygon class="st3" points="22.4,38.18 22.36,38.13 16.19,45.91 22.36,53.7 22.4,53.65 		"/>
	</g>
	<g>
		<polygon class="st2" points="22.36,65.65 28.52,73.43 22.36,81.21 16.19,73.43 		"/>
		<polygon class="st3" points="22.4,65.7 22.36,65.65 16.19,73.43 22.36,81.21 22.4,81.16 		"/>
	</g>
	<g>
		<polygon class="st2" points="22.36,10.62 28.52,18.4 22.36,26.18 16.19,18.4 		"/>
		<polygon class="st3" points="22.4,10.67 22.36,10.62 16.19,18.4 22.36,26.18 22.4,26.13 		"/>
	</g>
	<g>
		<polygon class="st2" points="44.5,38.13 38.34,45.91 44.5,53.7 50.66,45.91 		"/>
		<polygon class="st3" points="44.46,38.18 44.5,38.13 50.66,45.91 44.5,53.7 44.46,53.65 		"/>
	</g>
	<g>
		<polygon class="st2" points="44.5,65.65 38.34,73.43 44.5,81.21 50.66,73.43 		"/>
		<polygon class="st3" points="44.46,65.7 44.5,65.65 50.66,73.43 44.5,81.21 44.46,81.16 		"/>
	</g>
	<g>
		<polygon class="st2" points="9.23,23.44 7.44,21.17 9.23,18.9 11.03,21.17 		"/>
		<polygon class="st3" points="9.23,18.9 9.22,18.92 9.22,23.42 9.23,23.44 11.03,21.17 		"/>
	</g>
	<g>
		<path class="st4" d="M11.62,14.21c0,0.3-0.15,0.69-0.46,1.18c-0.3,0.48-0.61,0.79-0.9,0.93c-0.24,0.11-0.41,0.18-0.53,0.22
			c-0.12,0.04-0.21,0.06-0.29,0.06c-0.1,0-0.18,0-0.26,0c-0.63,0-1.11-0.22-1.46-0.66c-0.3-0.39-0.45-0.86-0.45-1.42
			c0-0.38,0.07-0.81,0.22-1.29c0.15-0.49,0.33-0.9,0.56-1.24c0.32-0.48,0.53-0.78,0.62-0.89c0.05-0.06,0.29-0.27,0.72-0.63
			c0.31-0.27,0.54-0.44,0.68-0.52c0.1-0.05,0.18-0.08,0.26-0.08c0.11,0,0.16,0.06,0.16,0.17c0,0.03-0.15,0.19-0.46,0.48
			c-0.23,0.22-0.46,0.48-0.68,0.78c-0.09,0.11-0.2,0.31-0.34,0.62c-0.17,0.35-0.25,0.58-0.25,0.69c0,0.02,0.01,0.04,0.03,0.06
			c0.02,0.02,0.04,0.03,0.07,0.03c0.16-0.08,0.32-0.17,0.5-0.25c0.35-0.17,0.6-0.25,0.76-0.25c0.3,0,0.62,0.19,0.94,0.56
			C11.43,13.17,11.62,13.66,11.62,14.21z M10.31,15.19c0-0.39-0.14-0.78-0.41-1.15c-0.27-0.38-0.55-0.57-0.84-0.57
			c-0.11,0-0.21,0.02-0.3,0.07c-0.09,0.05-0.14,0.12-0.14,0.22c0,0.37,0.15,0.75,0.46,1.13c0.33,0.42,0.68,0.62,1.06,0.62
			c0.05,0,0.1-0.02,0.12-0.06C10.3,15.41,10.31,15.32,10.31,15.19z"/>
	</g>
	<g>
		<path class="st4" d="M55.63,78.39c0-0.3,0.15-0.69,0.46-1.18c0.3-0.48,0.6-0.79,0.9-0.93c0.24-0.11,0.41-0.18,0.53-0.22
			C57.63,76.02,57.73,76,57.8,76c0.1,0,0.18,0,0.26,0c0.63,0,1.11,0.22,1.46,0.66c0.3,0.39,0.45,0.86,0.45,1.42
			c0,0.38-0.07,0.81-0.22,1.29c-0.15,0.49-0.33,0.9-0.56,1.24c-0.32,0.48-0.53,0.78-0.62,0.89c-0.05,0.06-0.29,0.27-0.72,0.63
			c-0.31,0.27-0.54,0.44-0.68,0.52c-0.1,0.05-0.18,0.08-0.26,0.08c-0.11,0-0.16-0.06-0.16-0.17c0-0.03,0.15-0.19,0.46-0.48
			c0.23-0.22,0.46-0.48,0.68-0.78c0.09-0.11,0.2-0.31,0.34-0.62c0.17-0.35,0.25-0.58,0.25-0.69c0-0.02-0.01-0.04-0.03-0.06
			c-0.02-0.02-0.04-0.03-0.07-0.03c-0.16,0.08-0.32,0.17-0.5,0.25c-0.35,0.17-0.6,0.25-0.76,0.25c-0.3,0-0.62-0.19-0.94-0.56
			C55.81,79.43,55.63,78.94,55.63,78.39z M56.93,77.42c0,0.39,0.14,0.78,0.41,1.15c0.27,0.38,0.55,0.57,0.84,0.57
			c0.11,0,0.21-0.02,0.3-0.07c0.09-0.05,0.14-0.12,0.14-0.22c0-0.37-0.15-0.75-0.46-1.13c-0.33-0.42-0.69-0.62-1.06-0.62
			c-0.05,0-0.1,0.02-0.12,0.06C56.94,77.2,56.93,77.28,56.93,77.42z"/>
	</g>
	<g>
		<polygon class="st2" points="58.01,69.17 59.8,71.43 58.01,73.7 56.22,71.43 		"/>
		<polygon class="st3" points="58.02,69.18 58.01,69.17 56.22,71.43 58.01,73.7 58.02,73.68 		"/>
	</g>
</g>
</svg>
