<?xml version="1.0" encoding="utf-8"?>
<!-- Generator: Adobe Illustrator 26.0.3, SVG Export Plug-In . SVG Version: 6.00 Build 0)  -->
<svg version="1.1" id="Layer_1" xmlns="http://www.w3.org/2000/svg" xmlns:xlink="http://www.w3.org/1999/xlink" x="0px" y="0px"
	 viewBox="0 0 66 92" style="enable-background:new 0 0 66 92;" xml:space="preserve">
<style type="text/css">
	.st0{fill:#C9C9C9;}
	.st1{fill:#FFFFFF;}
	.st2{fill:#D66142;}
	.st3{opacity:0.2;fill:#616161;}
	.st4{fill:#333333;}
</style>
<g>
	<g>
		<path class="st0" d="M9.09,88.96c-3.63,0-6.59-2.89-6.6-6.46L2.3,9.54c-0.01-3.59,2.95-6.51,6.59-6.5L57.1,3.13
			c3.63,0.01,6.58,2.93,6.58,6.51v72.8c0,3.56-2.94,6.46-6.56,6.46L9.09,88.96z"/>
	</g>
	<path class="st1" d="M9.69,88.78c-3.58,0-6.5-2.9-6.5-6.48V9.52c0-3.57,2.92-6.48,6.5-6.48H57.2c3.58,0,6.5,2.9,6.5,6.48V82.3
		c0,3.57-2.91,6.48-6.5,6.48H9.69z"/>
	<g>
		<polygon class="st2" points="44.95,9.22 38.55,17.31 44.95,25.4 51.36,17.31 		"/>
		<polygon class="st3" points="44.91,9.27 44.95,9.22 51.36,17.31 44.95,25.4 44.91,25.34 		"/>
	</g>
	<g>
		<polygon class="st2" points="21.94,66.42 28.34,74.51 21.94,82.6 15.53,74.51 		"/>
		<polygon class="st3" points="21.98,66.47 21.94,66.42 15.53,74.51 21.94,82.6 21.98,82.55 		"/>
	</g>
	<g>
		<polygon class="st2" points="21.94,9.22 28.34,17.31 21.94,25.4 15.53,17.31 		"/>
		<polygon class="st3" points="21.98,9.27 21.94,9.22 15.53,17.31 21.94,25.4 21.98,25.34 		"/>
	</g>
	<g>
		<polygon class="st2" points="44.95,66.42 38.55,74.51 44.95,82.6 51.36,74.51 		"/>
		<polygon class="st3" points="44.91,66.47 44.95,66.42 51.36,74.51 44.95,82.6 44.91,82.55 		"/>
	</g>
	<g>
		<polygon class="st2" points="8.29,22.54 6.43,20.19 8.29,17.83 10.16,20.19 		"/>
		<polygon class="st3" points="8.29,17.83 8.28,17.85 8.28,22.52 8.29,22.54 10.16,20.19 		"/>
	</g>
	<g>
		<path class="st4" d="M10.77,11.54c0,0.11-0.04,0.22-0.11,0.33c-0.1,0.11-0.16,0.19-0.18,0.23c-0.31,0.46-0.56,0.78-0.74,0.96
			c-0.16,0.1-0.31,0.2-0.47,0.3c-0.05,0.07-0.08,0.15-0.08,0.24c0.02,0.08,0.03,0.14,0.03,0.18c0,0.17,0.01,0.32,0.04,0.45
			c0.03,0.13,0.06,0.2,0.1,0.2c0.06,0,0.11-0.02,0.17-0.07c0.19-0.16,0.31-0.24,0.36-0.26c0.04,0.09,0.07,0.14,0.07,0.15
			c0,0.09-0.17,0.3-0.52,0.63c-0.41,0.39-0.79,0.58-1.14,0.58c-0.25,0-0.41-0.33-0.48-0.99c-0.07-0.66-0.13-1.03-0.19-1.1H5.44
			c-0.04-0.02-0.07-0.04-0.08-0.05c-0.01-0.01-0.01-0.06-0.01-0.15c0-0.12,0.14-0.39,0.43-0.81c0.26-0.38,0.67-0.91,1.22-1.58
			c0.17-0.21,0.34-0.42,0.52-0.63c0.11-0.13,0.27-0.3,0.46-0.5c0.19-0.2,0.4-0.44,0.63-0.7C8.8,8.7,8.96,8.58,9.07,8.58l0.12,0.03
			v3.32c0.1,0.05,0.18,0.08,0.24,0.08C9.48,12,9.51,12,9.53,12c0.25,0,0.48-0.08,0.69-0.24c0.15-0.14,0.3-0.28,0.46-0.41
			c0.03,0.02,0.05,0.03,0.07,0.05C10.76,11.4,10.77,11.45,10.77,11.54z M7.7,11.88v-0.35v-0.12c0-0.12-0.01-0.26-0.03-0.42
			c-0.13,0.11-0.31,0.31-0.53,0.58c-0.07,0.09-0.16,0.21-0.28,0.38l0.08,0.04h0.63L7.7,11.88z"/>
	</g>
	<g>
		<path class="st4" d="M56.52,81.08c0-0.11,0.04-0.22,0.11-0.33c0.1-0.11,0.16-0.19,0.18-0.23c0.31-0.46,0.56-0.78,0.74-0.96
			c0.16-0.1,0.31-0.2,0.47-0.3c0.05-0.07,0.08-0.15,0.08-0.24c-0.02-0.08-0.03-0.14-0.03-0.18c0-0.17-0.01-0.32-0.04-0.45
			c-0.03-0.13-0.06-0.2-0.1-0.2c-0.06,0-0.11,0.02-0.17,0.07c-0.19,0.16-0.31,0.24-0.36,0.26c-0.04-0.09-0.07-0.14-0.07-0.15
			c0-0.09,0.17-0.3,0.52-0.63c0.41-0.39,0.79-0.58,1.14-0.58c0.25,0,0.41,0.33,0.48,0.99c0.07,0.66,0.13,1.03,0.19,1.1h2.19
			c0.04,0.02,0.07,0.04,0.08,0.05c0.01,0.01,0.01,0.06,0.01,0.15c0,0.12-0.14,0.39-0.43,0.81c-0.26,0.38-0.67,0.91-1.22,1.58
			c-0.17,0.21-0.34,0.42-0.52,0.63c-0.11,0.13-0.27,0.3-0.46,0.5c-0.19,0.2-0.4,0.44-0.63,0.7c-0.19,0.23-0.35,0.35-0.46,0.35
			l-0.12-0.03v-3.32c-0.1-0.05-0.18-0.08-0.24-0.08c-0.05,0.01-0.08,0.01-0.1,0.01c-0.25,0-0.48,0.08-0.69,0.24
			c-0.15,0.14-0.3,0.28-0.46,0.41c-0.03-0.02-0.05-0.03-0.07-0.05C56.53,81.22,56.52,81.17,56.52,81.08z M59.59,80.75v0.35v0.12
			c0,0.12,0.01,0.26,0.03,0.42c0.13-0.11,0.31-0.31,0.53-0.58c0.07-0.09,0.16-0.21,0.28-0.38l-0.08-0.04h-0.63L59.59,80.75z"/>
	</g>
	<g>
		<polygon class="st2" points="59,70.08 60.86,72.43 59,74.79 57.13,72.43 		"/>
		<polygon class="st3" points="59.01,70.09 59,70.08 57.13,72.43 59,74.79 59.01,74.77 		"/>
	</g>
</g>
</svg>
