<?xml version="1.0" encoding="utf-8"?>
<!-- Generator: Adobe Illustrator 26.0.3, SVG Export Plug-In . SVG Version: 6.00 Build 0)  -->
<svg version="1.1" id="Layer_1" xmlns="http://www.w3.org/2000/svg" xmlns:xlink="http://www.w3.org/1999/xlink" x="0px" y="0px"
	 viewBox="0 0 66 92" style="enable-background:new 0 0 66 92;" xml:space="preserve">
<style type="text/css">
	.st0{fill:#C9C9C9;}
	.st1{fill:#FFFFFF;}
	.st2{fill:#333333;}
	.st3{fill:#D66142;}
	.st4{opacity:0.2;fill:#616161;}
</style>
<g>
	<g>
		<path class="st0" d="M9.09,88.96c-3.63,0.01-6.59-2.89-6.6-6.46L2.3,9.54C2.3,5.95,5.25,3.04,8.9,3.04L57.1,3.13
			c3.63,0.01,6.58,2.93,6.58,6.51v72.8c0,3.56-2.94,6.46-6.56,6.46L9.09,88.96z"/>
	</g>
	<path class="st1" d="M9.69,88.78c-3.58,0-6.5-2.91-6.5-6.48V9.52c0-3.57,2.92-6.48,6.5-6.48H57.2c3.58,0,6.5,2.9,6.5,6.48V82.3
		c0,3.57-2.91,6.48-6.5,6.48H9.69z"/>
	<g>
		<path class="st2" d="M53.62,80.5c0-0.25,0.06-0.51,0.19-0.78c0.19-0.4,0.52-0.84,0.99-1.31c0.4-0.39,0.71-0.67,0.94-0.83
			c0.37-0.25,0.75-0.38,1.15-0.38c0.33,0,0.63,0.07,0.89,0.22c0.3,0.17,0.45,0.39,0.45,0.68c0,0.2-0.19,0.53-0.57,1.01
			c-0.38,0.48-0.65,0.72-0.81,0.72c-0.14,0-0.21-0.05-0.21-0.15s0.11-0.29,0.33-0.56c0.1-0.12,0.15-0.22,0.15-0.29
			c-0.06-0.11-0.12-0.2-0.18-0.25c-0.19-0.17-0.45-0.25-0.77-0.25c-0.28,0-0.54,0.09-0.76,0.26c-0.28,0.21-0.41,0.5-0.41,0.86
			c0,0.26,0.07,0.5,0.22,0.71c0.11,0.16,0.26,0.29,0.43,0.38c0.23,0.11,0.47,0.17,0.73,0.18c0.25,0.01,0.38,0.06,0.38,0.17
			c0,0.05-0.16,0.27-0.47,0.66c-0.25,0.3-0.48,0.63-0.71,0.99c0.07,0.07,0.13,0.1,0.17,0.1h1.44c0.06,0,0.19-0.08,0.38-0.23
			c0.19-0.15,0.32-0.23,0.39-0.23c0.13,0,0.19,0.05,0.19,0.14c0,0.05-0.07,0.16-0.22,0.33c-0.15,0.17-0.36,0.39-0.64,0.67
			c-0.31,0.31-0.51,0.5-0.59,0.56c-0.16,0.13-0.29,0.19-0.39,0.19h-2.4c-0.02-0.02-0.03-0.03-0.04-0.05
			c-0.01-0.01-0.01-0.05-0.01-0.11c0-0.18,0.22-0.49,0.65-0.91c0.43-0.43,0.65-0.72,0.65-0.88c0-0.04-0.17-0.12-0.52-0.25
			c-0.23-0.09-0.43-0.2-0.59-0.35c-0.12-0.12-0.23-0.26-0.3-0.43C53.66,80.91,53.62,80.71,53.62,80.5z"/>
	</g>
	<g>
		<polygon class="st3" points="11.89,22.7 9.9,20.19 11.89,17.68 13.88,20.19 		"/>
		<polygon class="st4" points="11.89,17.68 11.88,17.69 11.88,22.68 11.89,22.7 13.88,20.19 		"/>
	</g>
	<g>
		<path class="st2" d="M14.39,12.12c0,0.25-0.06,0.51-0.19,0.78c-0.19,0.4-0.52,0.84-0.99,1.31c-0.4,0.4-0.71,0.67-0.94,0.83
			c-0.37,0.25-0.75,0.38-1.15,0.38c-0.33,0-0.63-0.07-0.89-0.22c-0.3-0.17-0.45-0.4-0.45-0.68c0-0.19,0.19-0.53,0.57-1.01
			c0.38-0.48,0.65-0.72,0.81-0.72c0.14,0,0.21,0.05,0.21,0.15c0,0.1-0.11,0.29-0.33,0.56c-0.1,0.13-0.15,0.22-0.15,0.29
			c0.06,0.11,0.12,0.2,0.18,0.25c0.19,0.17,0.45,0.25,0.77,0.25c0.28,0,0.54-0.09,0.76-0.26c0.28-0.21,0.41-0.5,0.41-0.86
			c0-0.26-0.07-0.5-0.22-0.71c-0.11-0.16-0.26-0.29-0.43-0.38c-0.23-0.11-0.48-0.17-0.73-0.18c-0.25-0.01-0.38-0.06-0.38-0.17
			c0-0.05,0.16-0.27,0.47-0.66c0.24-0.3,0.48-0.63,0.71-0.99c-0.07-0.07-0.13-0.1-0.17-0.1h-1.44c-0.06,0-0.19,0.08-0.38,0.23
			c-0.19,0.15-0.32,0.23-0.39,0.23c-0.13,0-0.19-0.05-0.19-0.14c0-0.05,0.07-0.16,0.22-0.33c0.15-0.17,0.36-0.39,0.64-0.67
			c0.31-0.31,0.51-0.5,0.59-0.56c0.16-0.12,0.29-0.19,0.39-0.19h2.4c0.02,0.02,0.03,0.03,0.04,0.05c0.01,0.01,0.01,0.05,0.01,0.11
			c0,0.18-0.22,0.49-0.65,0.91c-0.43,0.43-0.65,0.72-0.65,0.88c0,0.04,0.17,0.12,0.52,0.24c0.23,0.09,0.43,0.2,0.59,0.35
			c0.13,0.12,0.23,0.26,0.3,0.43C14.35,11.72,14.39,11.91,14.39,12.12z"/>
	</g>
	<g>
		<polygon class="st3" points="56.12,69.92 58.11,72.43 56.12,74.95 54.13,72.43 		"/>
		<polygon class="st4" points="56.13,69.94 56.12,69.92 54.13,72.43 56.12,74.95 56.13,74.93 		"/>
	</g>
	<g>
		<polygon class="st3" points="33.44,9.6 27.04,17.69 33.44,25.78 39.85,17.69 		"/>
		<polygon class="st4" points="33.4,9.65 33.44,9.6 39.85,17.69 33.44,25.78 33.4,25.73 		"/>
	</g>
	<g>
		<polygon class="st3" points="33.44,38.2 27.04,46.29 33.44,54.38 39.85,46.29 		"/>
		<polygon class="st4" points="33.4,38.26 33.44,38.2 39.85,46.29 33.44,54.38 33.4,54.33 		"/>
	</g>
	<g>
		<polygon class="st3" points="33.44,66.8 39.85,74.89 33.44,82.98 27.04,74.89 		"/>
		<polygon class="st4" points="33.49,66.86 33.44,66.8 27.04,74.89 33.44,82.98 33.49,82.93 		"/>
	</g>
</g>
</svg>
