<?xml version="1.0" encoding="utf-8"?>
<!-- Generator: Adobe Illustrator 26.0.3, SVG Export Plug-In . SVG Version: 6.00 Build 0)  -->
<svg version="1.1" id="Layer_1" xmlns="http://www.w3.org/2000/svg" xmlns:xlink="http://www.w3.org/1999/xlink" x="0px" y="0px"
	 viewBox="0 0 66 92" style="enable-background:new 0 0 66 92;" xml:space="preserve">
<style type="text/css">
	.st0{fill:#C9C9C9;}
	.st1{fill:#FFFFFF;}
	.st2{fill:#D66142;}
	.st3{opacity:0.2;fill:#616161;}
	.st4{fill:#333333;}
	.st5{fill:#757575;}
	.st6{fill:#EBB07A;}
	.st7{opacity:0.2;}
	.st8{fill:#616161;}
	.st9{fill:#B35137;}
	.st10{fill:#ABABAB;}
	.st11{opacity:0.2;fill:#FFFFFF;}
	.st12{fill:#FFD675;}
	.st13{fill:#EBEBEB;}
</style>
<g>
	<g>
		<path class="st0" d="M10.01,87.25c-3.48,0.01-6.33-2.78-6.34-6.2L3.5,11C3.49,7.55,6.33,4.75,9.83,4.76l46.29,0.09
			c3.48,0.01,6.32,2.81,6.32,6.25v69.89c0,3.42-2.82,6.2-6.3,6.2L10.01,87.25z"/>
		<path class="st1" d="M10.65,87.06c-3.44,0-6.24-2.79-6.24-6.22V10.97c0-3.43,2.8-6.22,6.24-6.22h45.61c3.44,0,6.24,2.79,6.24,6.22
			v69.88c0,3.43-2.8,6.22-6.24,6.22H10.65z"/>
		<g>
			<path class="st2" d="M56.2,85.76H10.58c-2.67,0-4.83-2.16-4.83-4.81V11.07c0-2.55,2.03-4.63,3.11-5.03l0.16-0.06l45.86,0
				c4.53,0.35,6.15,2.86,6.15,5.09v69.88C61.03,83.61,58.86,85.76,56.2,85.76z M9.41,7.89C8.91,8.2,7.66,9.49,7.66,11.07v69.88
				c0,1.6,1.31,2.9,2.93,2.9H56.2c1.61,0,2.92-1.3,2.92-2.9V11.07c0-1.77-1.63-2.96-4.35-3.18H9.41z"/>
		</g>
		<g>
			<polygon class="st2" points="12.27,26.46 9.29,22.69 12.27,18.92 15.26,22.69 			"/>
			<polygon class="st3" points="12.27,18.92 12.18,19.04 12.18,26.34 12.27,26.46 15.26,22.69 			"/>
		</g>
		<g>
			<path class="st4" d="M14.52,10.51c-0.19,0.32-0.42,0.56-0.7,0.73c-0.28,0.17-0.56,0.25-0.84,0.25c-0.09,0-0.41-0.07-0.96-0.21
				c-0.26-0.07-0.49-0.1-0.7-0.1c-0.13,0-0.27,0.02-0.4,0.05c-0.14,0.03-0.25,0.09-0.35,0.17h-0.1v-0.13
				c0.19-0.42,0.41-0.72,0.67-0.9c0.26-0.18,0.6-0.27,1.03-0.27c0.31,0,0.6,0.05,0.88,0.15c0.28,0.1,0.55,0.15,0.81,0.15
				c0.08,0,0.18,0,0.29-0.01c0.11-0.01,0.23-0.02,0.37-0.04V10.51z M14.54,15.81c0,0.59-0.22,1.07-0.67,1.43
				c-0.45,0.36-1.02,0.54-1.72,0.54c-0.43,0-0.79-0.08-1.08-0.25c-0.34-0.2-0.51-0.48-0.51-0.86c0-0.17,0.05-0.33,0.14-0.46
				c0.13-0.18,0.33-0.27,0.58-0.27c0.16,0,0.31,0.05,0.43,0.16c0.12,0.11,0.19,0.24,0.19,0.39c0,0.26-0.11,0.43-0.33,0.52
				c-0.22,0.09-0.33,0.15-0.33,0.19c0.04,0.08,0.08,0.14,0.12,0.17c0.13,0.11,0.31,0.17,0.55,0.17c0.24,0,0.45-0.06,0.62-0.17
				c0.17-0.11,0.26-0.27,0.26-0.48v-5.1c0.31-0.1,0.61-0.2,0.88-0.3c0.27-0.1,0.51-0.25,0.72-0.44h0.15V15.81z"/>
		</g>
		<g>
			<polygon class="st2" points="54.74,66.32 57.72,70.09 54.74,73.86 51.75,70.09 			"/>
			<polygon class="st3" points="54.74,73.86 54.83,73.74 54.83,66.44 54.74,66.32 51.75,70.09 			"/>
		</g>
		<g>
			<path class="st4" d="M52.47,76.97c0-0.59,0.22-1.07,0.67-1.43c0.45-0.36,1.02-0.54,1.72-0.54c0.43,0,0.79,0.08,1.08,0.25
				c0.34,0.2,0.51,0.48,0.51,0.86c0,0.17-0.05,0.33-0.14,0.46c-0.13,0.18-0.33,0.27-0.58,0.27c-0.16,0-0.31-0.05-0.43-0.16
				c-0.12-0.11-0.19-0.24-0.19-0.39c0-0.26,0.11-0.43,0.33-0.52c0.22-0.09,0.33-0.15,0.33-0.19c-0.04-0.08-0.08-0.14-0.12-0.17
				c-0.13-0.11-0.31-0.17-0.55-0.17c-0.24,0-0.45,0.06-0.62,0.17c-0.17,0.11-0.26,0.27-0.26,0.48v5.1c-0.31,0.1-0.61,0.2-0.88,0.3
				c-0.27,0.1-0.51,0.25-0.72,0.44h-0.15V76.97z M52.49,82.27c0.19-0.32,0.42-0.56,0.7-0.73c0.28-0.17,0.56-0.25,0.84-0.25
				c0.09,0,0.41,0.07,0.96,0.21c0.26,0.07,0.49,0.1,0.7,0.1c0.13,0,0.27-0.02,0.4-0.05c0.14-0.03,0.25-0.09,0.35-0.17h0.1v0.13
				c-0.19,0.42-0.41,0.72-0.67,0.9c-0.26,0.18-0.6,0.27-1.03,0.27c-0.31,0-0.6-0.05-0.88-0.15c-0.28-0.1-0.55-0.15-0.81-0.15
				c-0.08,0-0.18,0-0.29,0.01c-0.11,0.01-0.23,0.02-0.37,0.04V82.27z"/>
		</g>
	</g>
	<g>
		<g>
			<g>
				<polygon class="st5" points="28.96,30.45 26.9,31.27 27.38,32.13 35.51,32.03 36.08,31.27 34.26,30.45 				"/>
				<g>
					<rect x="28.96" y="27.91" class="st6" width="5.3" height="5.53"/>
					<path class="st3" d="M34.26,28.98v1.35c-0.65,0.61-1.39,1.01-2.17,1.01h-1c-0.77,0-1.49-0.39-2.13-0.98v-1.32l0.46,0.73
						l0.12-1.84h4.12l0.12,1.84L34.26,28.98z"/>
					<path class="st6" d="M32.1,15.27h-0.5h-0.5c-2.62,0-4.74,1.79-4.74,4c0,0,0.02,5.41,0.06,5.67c0.36,2.33,2.32,5.94,4.68,5.94
						h0.5h0.5c2.36,0,4.32-3.61,4.68-5.94c0.04-0.26,0.06-5.67,0.06-5.67C36.84,17.06,34.71,15.27,32.1,15.27z"/>
					<polygon class="st2" points="36.35,15.27 31.6,12.28 26.84,15.27 25.61,17.39 26.1,22.4 26.73,22.78 26.84,18.17 28.34,16.56 
						31.6,18.09 34.85,16.56 36.35,18.17 36.46,22.78 37.1,22.4 37.58,17.39 					"/>
					<g>
						<path class="st4" d="M28.55,21.71c-0.1,0.12-0.16,0.27-0.16,0.42c0,0.41,0.39,0.75,0.88,0.75c0.49,0,0.88-0.34,0.88-0.75
							c0-0.16-0.06-0.3-0.16-0.42H28.55z"/>
						<polygon class="st3" points="31.94,20.99 31.6,20.99 31.26,20.99 30.79,24.46 31.6,25.39 32.41,24.46 						"/>
						<path class="st4" d="M34.64,21.71c0.1,0.12,0.16,0.27,0.16,0.42c0,0.41-0.39,0.75-0.88,0.75c-0.49,0-0.88-0.34-0.88-0.75
							c0-0.16,0.06-0.3,0.16-0.42H34.64z"/>
					</g>
					<path class="st2" d="M36.38,25.15l-2.61,4.15l-0.21-3.25l-1.37-0.57l-0.6-0.08L31,25.47l-1.37,0.57l-0.21,3.25l-2.61-4.15
						l-0.39-0.21c0.36,2.33,2.32,5.94,4.68,5.94h0.5h0.5c2.36,0,4.32-3.61,4.68-5.94L36.38,25.15z"/>
					<polygon class="st6" points="33.04,26.93 31.85,26.05 31.6,26.05 31.34,26.05 30.15,26.93 30.08,29.46 31.6,29.46 33.11,29.46 
											"/>
					<g class="st7">
						<rect x="30.63" y="27.05" class="st8" width="1.94" height="0.64"/>
					</g>
					<polygon class="st2" points="32.95,19.83 35.57,20.15 32.95,20.47 					"/>
					<polygon class="st2" points="30.24,20.47 27.67,20.15 30.24,19.83 					"/>
				</g>
				<path class="st5" d="M44.83,31.97l-2.01,1.88l-0.88,2.67c0,0,2.98-0.6,3-0.52L44.83,31.97z"/>
				<path class="st5" d="M18.57,31.97l2.01,1.88l0.88,2.67c0,0-2.98-0.6-2.99-0.52L18.57,31.97z"/>
				<path class="st9" d="M19.78,33.44L19.5,34l-0.66,2.14c0,0,3.71-1.03,3.54-0.92L19.78,33.44z"/>
				<polygon class="st10" points="47.24,39.3 45.24,39.9 41.63,40.98 41.4,41.04 36.77,42.43 36.64,42.47 36.36,42.55 34.94,42.97 
					34.4,43.14 32.64,43.66 31.76,43.93 28.35,44.94 27.64,45.15 27.48,45.2 26.58,45.47 26.02,45.63 24.41,46.12 21.97,46.84 
					21.97,46.16 21.95,44.15 20.35,46.86 20.35,47.33 18.65,47.84 14.58,49.05 14.58,43.34 14.59,43.04 14.59,43.02 14.59,43.01 
					14.63,42.16 14.77,41.84 15.57,39.93 16.37,38.04 17.23,36 17.55,35.24 17.91,34.39 18.51,34.24 19.5,34.01 19.55,33.99 
					19.62,33.97 19.74,33.94 19.81,33.93 20.02,33.88 20.31,33.81 20.31,33.81 20.34,33.8 20.49,33.76 23.2,33.11 23.48,33.04 
					23.61,33.01 23.9,32.93 26.07,32.41 26.11,32.4 26.35,32.34 27.17,32.14 27.36,32.1 28.96,31.71 34.26,31.71 35.52,32.02 
					35.83,32.09 36,32.13 37.92,32.6 39.65,33.02 42.87,33.8 43.06,33.85 43.8,34.03 44.83,34.28 44.89,34.29 45.28,34.39 
					46.08,36.39 46.88,38.41 47.11,38.96 				"/>
				<polygon class="st11" points="37.92,32.6 32.34,38.18 32.1,38.42 31.16,39.37 31.15,39.37 29.61,40.91 29.54,40.99 26.86,43.67 
					26.03,44.49 25.65,44.87 25.24,45.28 24.41,46.12 21.97,46.84 21.97,46.16 24.46,43.67 24.88,43.25 25.17,42.96 26.03,42.1 
					26.29,41.84 26.55,41.58 26.66,41.47 29.81,38.32 29.86,38.27 29.98,38.15 29.99,38.14 30.89,37.23 31.12,37 36,32.13 				"/>
				<polygon class="st11" points="44.83,34.28 41.48,37.63 36.73,42.38 36.64,42.47 36.36,42.55 34.94,42.97 34.4,43.14 
					32.64,43.66 31.76,43.93 28.35,44.94 27.64,45.15 27.48,45.2 27.6,45.07 28.1,44.57 30.5,42.18 30.74,41.94 32.03,40.65 
					32.18,40.5 33.44,39.24 39.65,33.02 42.87,33.8 43.06,33.85 43.8,34.03 				"/>
				<path class="st3" d="M36.77,42.43l-0.13,0.04l-0.28,0.08l-1.41,0.42l-0.55,0.16l-1.76,0.53l-0.88,0.26l-3.41,1.02l-0.71,0.21
					l-0.16,0.05l-0.89,0.27l-0.56,0.17l-0.37-0.77l-0.78-1.62l-2.5-5.21l-1.21-2.53l-0.12-0.24l0,0l-0.68-1.41v0l-0.02-0.05
					l0.15-0.03l2.71-0.66l0.29-0.07l0.12-0.03l0.29-0.08l2.17-0.52l0.04-0.01l0.25-0.06c0.77,0.78,2.58,2.56,4.77,4.66
					c0.39,0.38,0.81,0.78,1.22,1.18c0.36,0.35,0.72,0.7,1.09,1.06c1.09,1.04,2.2,2.11,3.29,3.15C36.74,42.4,36.76,42.41,36.77,42.43
					z"/>
				<path class="st2" d="M31.76,43.93l-3.41,1.02l-0.71,0.21l-0.16,0.05l-0.89,0.27l-0.55-0.97l-0.86-1.53l-2.79-4.92l-0.99-1.75
					l-0.41-0.73l-0.95-1.68l-0.24-0.43l0.29-0.08l5.61-1.4c0.06,0.08,0.19,0.23,0.38,0.44c0.79,0.85,2.63,2.67,4.82,4.82
					c0.4,0.39,0.8,0.78,1.21,1.18c0.36,0.35,0.72,0.71,1.09,1.06c1.05,1.02,2.12,2.07,3.16,3.07l-1.41,0.42l-0.55,0.16l-1.76,0.53
					L31.76,43.93z"/>
				<polygon class="st12" points="23.49,32.97 22.86,36.96 26.51,38.68 26.52,38.7 26.52,38.69 26.53,38.69 26.52,38.68 
					27.16,34.69 23.51,32.96 23.5,32.94 23.49,32.96 23.48,32.95 				"/>
				<polygon class="st3" points="23.29,32.61 22.38,37.32 26.76,39.01 26.77,39.03 26.77,39.01 26.79,39.02 26.78,39 27.18,34.72 
					23.3,32.61 23.29,32.59 23.29,32.6 23.28,32.59 				"/>
				<polygon class="st3" points="23.84,36.44 24.18,34.26 26.18,35.21 25.83,37.39 				"/>
				<polygon class="st13" points="26.9,31.27 27.18,32.14 31.37,34.58 31.25,31.71 				"/>
				<polygon class="st13" points="36.08,31.27 35.81,32.14 31.61,34.58 31.73,31.71 				"/>
				<path class="st3" d="M31.16,39.37l0.78,0.83C31.66,39.91,31.39,39.63,31.16,39.37c-0.47-0.47-0.87-0.89-1.17-1.22
					c-0.29-0.31-0.5-0.54-0.62-0.66l0.63,0.66L31.16,39.37z"/>
				<path class="st3" d="M32.18,40.5c0.93,0.88,1.87,1.73,2.76,2.48l-0.55,0.16l-2.37-2.49l-1.05-1.1l-0.12-0.12l-1.05-1.1
					l-2.09-2.19l-0.05-0.06c0.02,0.02,0.03,0.04,0.06,0.06c0.65,0.66,1.37,1.4,2.13,2.15c0.35,0.35,0.72,0.71,1.09,1.06
					c0.04,0.04,0.08,0.08,0.12,0.12C31.44,39.8,31.81,40.15,32.18,40.5z"/>
				<polygon class="st3" points="28.35,44.94 27.64,45.15 27.6,45.07 26.86,43.67 26.03,42.1 25.11,40.35 24,38.4 26.29,41.84 
					27.24,43.28 28.1,44.57 				"/>
				<polygon class="st3" points="32.64,43.66 31.76,43.93 31.11,42.94 30.5,42.18 29.54,40.99 29.07,40.41 29.61,40.91 30.74,41.94 
									"/>
				<polygon class="st3" points="21.95,44.15 20.35,46.86 20.35,47.33 18.65,47.84 17.42,47.58 19.12,46.81 				"/>
				<polygon class="st3" points="47.24,39.3 45.24,39.9 41.63,40.98 41.4,41.04 41.18,38.34 41.48,37.63 41.94,36.51 43.06,33.85 
					43.8,34.03 44.83,34.28 44.89,34.29 45.28,34.39 46.08,36.39 46.88,38.41 47.11,38.96 				"/>
				<path class="st10" d="M45.24,39.9l-3.61,1.08l-0.02-2.56l0.92-1.84l0.1-0.2l1.17-2.35l1.03-2.06c0,0,2.62,3.3,2.7,3.24
					c0.02,0,0.09,0.39,0.2,0.98c0.12,0.73,0.29,1.78,0.45,2.84l-0.84,0.25l-0.09,0.03L45.24,39.9z"/>
				<path class="st3" d="M22.02,38.63l-0.07,4.56l-6.21-1.05c0,0-0.01-0.25,0.03-0.5l1.78-6.39l0.36-0.85l1.64-0.39l0.08-0.02
					l0.12-0.03l0.06-0.01L22.02,38.63z"/>
				<path class="st10" d="M21.95,43.71l-5.86-0.53l-1.5-0.14h0c0,0,0-0.01,0-0.02c0,0,0,0,0-0.01c0.02-0.12,0.08-0.56,0.18-1.18
					c0.33-2.2,1-6.63,1.07-6.63c0.08,0.06,2.7-3.24,2.7-3.24l0.02,0.04l0.99,1.99l2.21,4.42L21.95,43.71z"/>
				<path class="st11" d="M48.18,39.02l-0.84,0.25l-0.09,0.03l-2,0.6l0.84-3.51l0.2-0.86l-1.45-3.57c0,0,2.62,3.3,2.7,3.24
					c0.02,0,0.09,0.39,0.2,0.98C47.84,36.92,48.01,37.97,48.18,39.02z"/>
				<path class="st11" d="M18.55,32.01l-1.44,3.53L17.23,36l1.24,5.15l-2.37,2.03l-0.52,0.44c0,0-0.78,3.13-0.86,3.24
					c-0.02,0.02-0.06,0.01-0.13-0.02v-3.51l0.01-0.29h0c0,0,0-0.01,0-0.02c0,0,0,0,0-0.01l0.04-0.86l0.14-0.32
					c0.33-2.2,1-6.63,1.07-6.63c0.08,0.06,2.7-3.24,2.7-3.24h0.03L18.55,32.01z"/>
				<polygon class="st2" points="15.65,36.14 16.57,38.57 14.92,40.81 				"/>
				<polygon class="st2" points="48.19,39.02 48.18,39.02 47.34,39.27 47.11,38.96 46.82,38.58 46.88,38.41 47.73,36.19 
					47.74,36.14 				"/>
			</g>
			<path class="st3" d="M47.74,36.14l-0.02,0.05c-0.1-0.6-0.18-0.98-0.2-0.98c-0.08,0.06-2.7-3.24-2.7-3.24l-1.96,1.83l-3.22-0.78
				l-1.73-0.42L36,32.13l-0.17-0.04h0l0.26-0.82l-1.82-0.81v-0.59c1.31-1.24,2.27-3.36,2.51-4.93c0.02-0.11,0.03-1.19,0.04-2.37
				l0.28-0.16l0.49-5.01l-1.23-2.12l-4.75-3l-0.14,0.09v31.65l0.3-0.09l0.88-0.26l1.76-0.53l0.55-0.16l1.41-0.42l0.28-0.08
				l0.13-0.04l4.63-1.38l0.23-0.07l3.61-1.08l2-0.6l0.09-0.03l0.84-0.25l0.02,0L47.74,36.14z"/>
		</g>
		<g>
			<g>
				<polygon class="st5" points="33.82,61.88 35.87,61.07 35.4,60.2 27.27,60.3 26.7,61.07 28.51,61.88 				"/>
				<g>
					<rect x="28.51" y="58.89" class="st6" width="5.3" height="5.53"/>
					<path class="st3" d="M28.51,63.36v-1.35C29.16,61.4,29.9,61,30.68,61h1c0.77,0,1.49,0.38,2.13,0.98v1.32l-0.46-0.72l-0.12,1.84
						h-4.12L29,62.58L28.51,63.36z"/>
					<path class="st6" d="M30.68,77.07h0.5h0.5c2.62,0,4.74-1.79,4.74-4c0,0-0.02-5.41-0.06-5.67c-0.36-2.33-2.32-5.94-4.68-5.94
						h-0.5h-0.5c-2.36,0-4.32,3.61-4.68,5.94c-0.04,0.26-0.06,5.67-0.06,5.67C25.94,75.27,28.06,77.07,30.68,77.07z"/>
					<polygon class="st2" points="26.43,77.06 31.18,80.06 35.93,77.06 37.16,74.94 36.68,69.93 36.04,69.56 35.93,74.17 
						34.44,75.78 31.18,74.24 27.92,75.78 26.43,74.17 26.32,69.56 25.68,69.93 25.19,74.94 					"/>
					<g>
						<path class="st4" d="M34.22,70.63c0.1-0.12,0.16-0.27,0.16-0.42c0-0.41-0.39-0.75-0.88-0.75c-0.49,0-0.88,0.33-0.88,0.75
							c0,0.16,0.06,0.3,0.16,0.42H34.22z"/>
						<polygon class="st3" points="30.84,71.35 31.18,71.35 31.52,71.35 31.99,67.88 31.18,66.94 30.37,67.88 						"/>
						<path class="st4" d="M28.13,70.63c-0.1-0.12-0.16-0.27-0.16-0.42c0-0.41,0.39-0.75,0.88-0.75c0.49,0,0.88,0.33,0.88,0.75
							c0,0.16-0.06,0.3-0.16,0.42H28.13z"/>
					</g>
					<path class="st2" d="M26.39,67.19L29,63.04l0.21,3.25l1.37,0.57l0.6,0.08l0.6-0.08l1.37-0.57l0.21-3.25l2.61,4.15l0.39,0.21
						c-0.36-2.33-2.32-5.94-4.68-5.94h-0.5h-0.5c-2.36,0-4.32,3.61-4.68,5.94L26.39,67.19z"/>
					<polygon class="st6" points="29.74,65.41 30.93,66.29 31.18,66.29 31.43,66.29 32.62,65.41 32.69,62.87 31.18,62.87 
						29.67,62.87 					"/>
					<g class="st7">
						<rect x="30.21" y="64.65" class="st8" width="1.94" height="0.64"/>
					</g>
					<polygon class="st2" points="29.83,72.5 27.2,72.18 29.83,71.86 					"/>
					<polygon class="st2" points="32.53,71.86 35.1,72.18 32.53,72.5 					"/>
				</g>
				<path class="st5" d="M17.94,60.37l2.01-1.88l0.88-2.67c0,0-2.98,0.6-2.99,0.52L17.94,60.37z"/>
				<path class="st5" d="M44.2,60.37l-2.01-1.88l-0.88-2.67c0,0,2.98,0.6,3,0.52L44.2,60.37z"/>
				<path class="st9" d="M43,58.89l0.28-0.56l0.66-2.14c0,0-3.71,1.03-3.54,0.92L43,58.89z"/>
				<path class="st10" d="M15.53,53.03l2-0.6l3.61-1.08l0.23-0.07L26,49.91l0.13-0.04l0.28-0.08l1.41-0.42l0.54-0.16l1.76-0.53
					l0.88-0.26l3.41-1.02l0.71-0.21l0.16-0.05l0.89-0.27l0.56-0.17l1.62-0.48l2.43-0.72l0,0.68l0.02,2.01l1.6-2.71v-0.47l1.7-0.51
					l4.07-1.21V49l-0.01,0.29v0.02c0,0,0,0,0,0.01l-0.04,0.86l-0.14,0.32l-0.8,1.91l-0.8,1.9l-0.86,2.03l-0.32,0.76l-0.36,0.86
					l-0.6,0.15l-0.99,0.24l-0.05,0.01l-0.07,0.02l-0.12,0.03l-0.06,0.01l-0.21,0.05l-0.29,0.07h0l-0.03,0.01l-0.15,0.04l-2.71,0.66
					l-0.29,0.07l-0.12,0.03l-0.29,0.08l-2.17,0.52l-0.04,0.01L36.42,60l-0.82,0.2l-0.18,0.05l-1.6,0.39h-5.3l-1.26-0.31l-0.3-0.08
					l-0.17-0.04l-1.92-0.47l-1.73-0.42l-3.22-0.78l-0.19-0.04l-0.74-0.18l-1.03-0.25l-0.06-0.01l-0.39-0.1l-0.8-2.01l-0.8-2.02
					l-0.23-0.55L15.53,53.03z"/>
				<polygon class="st11" points="24.85,59.74 30.43,54.16 30.67,53.92 31.62,52.97 31.63,52.96 33.16,51.43 33.24,51.35 
					35.92,48.67 36.74,47.84 37.12,47.47 37.53,47.06 38.37,46.22 40.8,45.49 40.81,46.18 38.31,48.67 37.89,49.08 37.61,49.37 
					36.75,50.24 36.49,50.5 36.23,50.76 36.11,50.87 32.96,54.02 32.91,54.07 32.79,54.19 32.79,54.19 31.88,55.1 31.65,55.33 
					26.78,60.2 				"/>
				<polygon class="st11" points="17.94,58.06 21.3,54.71 26.05,49.95 26.13,49.87 26.42,49.78 27.83,49.36 28.37,49.2 30.14,48.67 
					31.01,48.41 34.43,47.39 35.14,47.18 35.3,47.14 35.18,47.26 34.67,47.76 32.28,50.16 32.03,50.4 30.74,51.69 30.59,51.84 
					29.34,53.1 23.12,59.31 19.9,58.54 19.71,58.49 18.97,58.31 				"/>
				<path class="st3" d="M26,49.91l0.13-0.04l0.28-0.08l1.41-0.42l0.54-0.16l1.76-0.53l0.88-0.26l3.41-1.02l0.71-0.21l0.16-0.05
					l0.89-0.27l0.56-0.17l0.37,0.77l0.77,1.62l2.5,5.21l1.21,2.53l0.11,0.24l0.01,0l0.68,1.41v0l0.02,0.04l-0.15,0.04l-2.71,0.66
					l-0.29,0.07l-0.12,0.03l-0.29,0.08l-2.17,0.52l-0.04,0.01L36.42,60c-0.77-0.79-2.58-2.56-4.77-4.67
					c-0.39-0.38-0.81-0.78-1.22-1.17c-0.36-0.35-0.72-0.7-1.09-1.06c-1.08-1.04-2.2-2.11-3.29-3.15
					C26.04,49.94,26.02,49.93,26,49.91z"/>
				<path class="st2" d="M31.01,48.41l3.41-1.02l0.71-0.21l0.16-0.05l0.89-0.27l0.55,0.97l0.86,1.53l2.79,4.92l0.99,1.75l0.41,0.73
					l0.95,1.68L43,58.89l-0.29,0.08l-5.61,1.4c-0.06-0.08-0.19-0.23-0.38-0.44c-0.79-0.85-2.63-2.68-4.82-4.82
					c-0.4-0.38-0.8-0.78-1.21-1.18c-0.36-0.35-0.72-0.71-1.09-1.06c-1.05-1.02-2.12-2.06-3.16-3.07l1.41-0.42l0.54-0.16l1.76-0.53
					L31.01,48.41z"/>
				<polygon class="st12" points="39.28,59.37 39.92,55.38 36.27,53.65 36.26,53.63 36.26,53.65 36.24,53.64 36.25,53.66 
					35.62,57.65 39.27,59.37 39.28,59.39 39.28,59.38 39.29,59.39 				"/>
				<polygon class="st3" points="39.49,59.72 40.39,55.01 36.01,53.33 36,53.31 36,53.32 35.99,53.32 36,53.34 35.6,57.61 
					39.47,59.73 39.48,59.75 39.48,59.73 39.5,59.74 				"/>
				<polygon class="st3" points="38.94,55.89 38.59,58.07 36.6,57.13 36.94,54.95 				"/>
				<polygon class="st13" points="35.87,61.07 35.6,60.19 31.4,57.76 31.52,60.63 				"/>
				<polygon class="st13" points="26.7,61.07 26.97,60.19 31.16,57.76 31.04,60.63 				"/>
				<path class="st3" d="M31.62,52.97l-0.78-0.83C31.12,52.43,31.38,52.7,31.62,52.97c0.47,0.47,0.87,0.89,1.17,1.22
					c0.29,0.31,0.51,0.54,0.62,0.66l-0.62-0.66L31.62,52.97z"/>
				<path class="st3" d="M30.59,51.84c-0.93-0.88-1.87-1.73-2.76-2.48l0.54-0.16l2.37,2.49l1.05,1.1l0.11,0.12l1.05,1.1l2.09,2.19
					l0.05,0.06c-0.02-0.02-0.04-0.04-0.06-0.06c-0.65-0.67-1.37-1.4-2.13-2.15c-0.35-0.35-0.72-0.71-1.09-1.06
					c-0.04-0.04-0.08-0.08-0.12-0.12C31.33,52.54,30.97,52.19,30.59,51.84z"/>
				<polygon class="st3" points="34.43,47.39 35.14,47.18 35.18,47.26 35.92,48.67 36.75,50.24 37.66,51.98 38.77,53.94 36.49,50.5 
					35.53,49.06 34.67,47.76 				"/>
				<polygon class="st3" points="30.14,48.67 31.01,48.41 31.67,49.4 32.28,50.16 33.24,51.35 33.7,51.93 33.16,51.43 32.03,50.4 
									"/>
				<polygon class="st3" points="40.82,48.19 42.43,45.48 42.43,45.01 44.12,44.5 45.36,44.75 43.66,45.53 				"/>
				<polygon class="st3" points="15.53,53.03 17.53,52.43 21.14,51.36 21.37,51.29 21.59,54 21.3,54.71 20.83,55.82 19.71,58.49 
					18.97,58.31 17.94,58.06 17.88,58.05 17.49,57.95 16.69,55.94 15.89,53.93 15.66,53.37 				"/>
				<path class="st10" d="M17.53,52.43l3.61-1.08l0.02,2.56l-0.92,1.84l-0.1,0.2l-1.17,2.35l-1.03,2.06c0,0-2.62-3.3-2.7-3.24
					c-0.02,0-0.09-0.39-0.2-0.98c-0.12-0.73-0.29-1.78-0.45-2.84l0.84-0.25l0.09-0.03L17.53,52.43z"/>
				<path class="st3" d="M40.75,53.71l0.07-4.55l6.21,1.05c0,0,0.01,0.25-0.03,0.5l-1.78,6.39l-0.36,0.86l-1.64,0.39l-0.07,0.02
					l-0.12,0.03l-0.06,0.01L40.75,53.71z"/>
				<path class="st10" d="M40.82,48.63l5.86,0.53l1.5,0.14h0c0,0,0,0.01,0,0.02c0,0,0,0,0,0.01c-0.02,0.12-0.09,0.56-0.18,1.17
					c-0.33,2.2-1,6.63-1.07,6.63c-0.08-0.06-2.7,3.24-2.7,3.24l-0.02-0.04l-0.99-1.99l-2.21-4.43L40.82,48.63z"/>
				<path class="st11" d="M14.6,53.31l0.84-0.25l0.09-0.03l2-0.6l-0.84,3.51l-0.2,0.86l1.45,3.57c0,0-2.62-3.3-2.7-3.24
					c-0.02,0-0.09-0.39-0.2-0.98C14.93,55.42,14.76,54.37,14.6,53.31z"/>
				<path class="st11" d="M44.22,60.33l1.44-3.53l-0.11-0.47l-1.24-5.15l2.37-2.03l0.52-0.44c0,0,0.78-3.13,0.86-3.24
					c0.02-0.02,0.06-0.01,0.13,0.02V49l-0.01,0.29h0c0,0,0,0.01,0,0.02c0,0,0,0,0,0.01l-0.04,0.86l-0.14,0.32
					c-0.33,2.2-1,6.63-1.07,6.63c-0.08-0.06-2.7,3.24-2.7,3.24H44.2L44.22,60.33z"/>
				<polygon class="st2" points="47.12,56.2 46.2,53.76 47.85,51.52 				"/>
				<polygon class="st2" points="14.58,53.32 14.6,53.31 15.44,53.06 15.66,53.37 15.95,53.76 15.89,53.93 15.05,56.15 15.03,56.2 
									"/>
			</g>
			<path class="st3" d="M31.24,48.34l-0.22,0.07l-0.88,0.26l-1.76,0.53l-0.54,0.16l-1.41,0.42l-0.28,0.08L26,49.91l-4.63,1.38
				l-0.23,0.07l-3.61,1.08l-2,0.6l-0.09,0.03l-0.84,0.25l-0.02,0l0.45,2.88l0.02-0.05c0.1,0.6,0.18,0.98,0.2,0.98
				c0.08-0.06,2.7,3.24,2.7,3.24l1.96-1.83l3.22,0.78l1.73,0.42l1.92,0.47l0.17,0.04h0l-0.26,0.83l1.82,0.81v0.59
				c-1.31,1.24-2.27,3.36-2.51,4.92c-0.02,0.11-0.03,1.19-0.04,2.37l-0.28,0.17l-0.49,5.01l1.23,2.12l4.75,3l0.06-0.04V48.34z"/>
		</g>
	</g>
</g>
</svg>
