<?xml version="1.0" encoding="utf-8"?>
<!-- Generator: Adobe Illustrator 26.0.3, SVG Export Plug-In . SVG Version: 6.00 Build 0)  -->
<svg version="1.1" id="Layer_1" xmlns="http://www.w3.org/2000/svg" xmlns:xlink="http://www.w3.org/1999/xlink" x="0px" y="0px"
	 viewBox="0 0 66 92" style="enable-background:new 0 0 66 92;" xml:space="preserve">
<style type="text/css">
	.st0{fill:#C9C9C9;}
	.st1{fill:#FFFFFF;}
	.st2{fill:#D66142;}
	.st3{opacity:0.2;fill:#616161;}
	.st4{fill:#333333;}
</style>
<g>
	<g>
		<path class="st0" d="M9.09,88.96c-3.63,0-6.59-2.89-6.6-6.46L2.3,9.54c-0.01-3.59,2.95-6.51,6.59-6.5L57.1,3.13
			c3.63,0.01,6.58,2.93,6.58,6.51v72.8c0,3.56-2.94,6.46-6.56,6.46L9.09,88.96z"/>
	</g>
	<path class="st1" d="M9.69,88.78c-3.58,0-6.5-2.9-6.5-6.48V9.52c0-3.57,2.92-6.48,6.5-6.48H57.2c3.58,0,6.5,2.9,6.5,6.48V82.3
		c0,3.57-2.91,6.48-6.5,6.48H9.69z"/>
	<g>
		<polygon class="st2" points="44.95,9.22 38.55,17.31 44.95,25.4 51.36,17.31 		"/>
		<polygon class="st3" points="44.91,9.27 44.95,9.22 51.36,17.31 44.95,25.4 44.91,25.34 		"/>
	</g>
	<g>
		<polygon class="st2" points="21.94,66.42 28.34,74.51 21.94,82.6 15.53,74.51 		"/>
		<polygon class="st3" points="21.98,66.47 21.94,66.42 15.53,74.51 21.94,82.6 21.98,82.55 		"/>
	</g>
	<g>
		<polygon class="st2" points="21.94,9.22 28.34,17.31 21.94,25.4 15.53,17.31 		"/>
		<polygon class="st3" points="21.98,9.27 21.94,9.22 15.53,17.31 21.94,25.4 21.98,25.34 		"/>
	</g>
	<g>
		<polygon class="st2" points="33.44,37.82 27.04,45.91 33.44,54 39.85,45.91 		"/>
		<polygon class="st3" points="33.4,37.87 33.44,37.82 39.85,45.91 33.44,54 33.4,53.95 		"/>
	</g>
	<g>
		<polygon class="st2" points="44.95,66.42 38.55,74.51 44.95,82.6 51.36,74.51 		"/>
		<polygon class="st3" points="44.91,66.47 44.95,66.42 51.36,74.51 44.95,82.6 44.91,82.55 		"/>
	</g>
	<g>
		<polygon class="st2" points="8.29,22.54 6.43,20.19 8.29,17.83 10.16,20.19 		"/>
		<polygon class="st3" points="8.29,17.83 8.28,17.85 8.28,22.52 8.29,22.54 10.16,20.19 		"/>
	</g>
	<g>
		<path class="st4" d="M10.84,8.54c-0.13,0.21-0.29,0.42-0.49,0.63c-0.26,0.28-0.5,0.46-0.72,0.54C9.48,9.75,9.24,9.79,8.92,9.81
			c-0.33,0.02-0.49,0.14-0.49,0.35c0,0.18,0.1,0.3,0.3,0.34c0.35,0.08,0.65,0.22,0.9,0.41c0.25,0.19,0.43,0.41,0.55,0.63
			c0.12,0.23,0.17,0.46,0.17,0.69c0,0.34-0.08,0.68-0.24,1.01c-0.08,0.16-0.21,0.36-0.4,0.62c-0.47,0.61-0.89,1.03-1.26,1.25
			c-0.37,0.22-0.85,0.33-1.45,0.33c-0.35,0-0.65-0.05-0.89-0.15c-0.32-0.13-0.48-0.34-0.48-0.61c0-0.18,0.14-0.49,0.43-0.92
			c0.29-0.43,0.51-0.65,0.66-0.65c0.11,0,0.17,0.13,0.17,0.38c0.01,0.25,0.05,0.43,0.11,0.54c0.08,0.09,0.15,0.15,0.21,0.2
			c0.19,0.14,0.38,0.21,0.58,0.21c0.26,0,0.48-0.09,0.68-0.26c0.25-0.22,0.37-0.54,0.37-0.95c0-0.41-0.13-0.76-0.4-1.06
			c-0.26-0.29-0.58-0.46-0.95-0.51c-0.08-0.01-0.13-0.02-0.17-0.02c-0.11-0.02-0.18-0.03-0.19-0.05c-0.03-0.04-0.05-0.1-0.05-0.2
			c0.03-0.25,0.06-0.49,0.08-0.74c0.02-0.25,0.03-0.48,0.03-0.71c0-0.11-0.02-0.17-0.06-0.19C7.11,9.74,7.03,9.73,6.91,9.73V9.51
			c0.09-0.12,0.27-0.29,0.54-0.52c0.33-0.28,0.56-0.42,0.69-0.42h2.02c0.09,0,0.19-0.03,0.32-0.1c0.12-0.07,0.2-0.1,0.23-0.1
			l0.13,0.07V8.54z"/>
	</g>
	<g>
		<path class="st4" d="M56.45,84.09c0.13-0.21,0.29-0.42,0.49-0.63c0.26-0.28,0.5-0.46,0.72-0.54c0.14-0.05,0.38-0.09,0.71-0.11
			c0.33-0.02,0.49-0.14,0.49-0.35c0-0.18-0.1-0.3-0.3-0.34c-0.35-0.08-0.65-0.22-0.9-0.41c-0.25-0.19-0.43-0.41-0.55-0.63
			c-0.12-0.23-0.17-0.46-0.17-0.69c0-0.34,0.08-0.68,0.24-1.01c0.08-0.16,0.21-0.36,0.4-0.62c0.47-0.61,0.89-1.03,1.26-1.25
			c0.37-0.22,0.85-0.33,1.45-0.33c0.35,0,0.65,0.05,0.89,0.15c0.32,0.13,0.48,0.34,0.48,0.61c0,0.18-0.14,0.49-0.43,0.92
			c-0.29,0.43-0.51,0.65-0.66,0.65c-0.11,0-0.17-0.13-0.17-0.38c-0.01-0.25-0.05-0.43-0.11-0.54c-0.08-0.09-0.15-0.15-0.21-0.2
			c-0.19-0.14-0.38-0.21-0.58-0.21c-0.26,0-0.48,0.09-0.68,0.26c-0.25,0.22-0.37,0.54-0.37,0.95c0,0.41,0.13,0.76,0.4,1.06
			c0.26,0.29,0.58,0.46,0.95,0.51c0.08,0.01,0.13,0.02,0.17,0.02c0.11,0.02,0.18,0.03,0.19,0.05c0.03,0.04,0.05,0.1,0.05,0.2
			c-0.03,0.25-0.06,0.49-0.08,0.74c-0.02,0.25-0.03,0.48-0.03,0.71c0,0.11,0.02,0.17,0.06,0.19c0.04,0.02,0.12,0.03,0.24,0.03v0.23
			c-0.09,0.12-0.27,0.29-0.54,0.52c-0.33,0.28-0.56,0.42-0.69,0.42h-2.02c-0.09,0-0.19,0.03-0.32,0.1c-0.12,0.07-0.2,0.1-0.23,0.1
			l-0.13-0.07V84.09z"/>
	</g>
	<g>
		<polygon class="st2" points="59,70.08 60.86,72.43 59,74.79 57.13,72.43 		"/>
		<polygon class="st3" points="59.01,70.09 59,70.08 57.13,72.43 59,74.79 59.01,74.77 		"/>
	</g>
</g>
</svg>
