<?xml version="1.0" encoding="utf-8"?>
<!-- Generator: Adobe Illustrator 26.0.3, SVG Export Plug-In . SVG Version: 6.00 Build 0)  -->
<svg version="1.1" id="Layer_1" xmlns="http://www.w3.org/2000/svg" xmlns:xlink="http://www.w3.org/1999/xlink" x="0px" y="0px"
	 viewBox="0 0 66 92" style="enable-background:new 0 0 66 92;" xml:space="preserve">
<style type="text/css">
	.st0{fill:#C9C9C9;}
	.st1{fill:#FFFFFF;}
	.st2{fill:#D66142;}
	.st3{opacity:0.2;fill:#616161;}
	.st4{fill:#333333;}
</style>
<g>
	<g>
		<path class="st0" d="M10,87.32c-3.49,0-6.34-2.78-6.35-6.21L3.47,10.93C3.46,7.47,6.31,4.67,9.81,4.68l46.38,0.08
			c3.49,0.01,6.33,2.82,6.33,6.26v70.03c0,3.42-2.83,6.21-6.31,6.22L10,87.32z"/>
	</g>
	<path class="st1" d="M10.58,87.15c-3.45,0-6.25-2.79-6.25-6.23V10.91c0-3.43,2.81-6.23,6.25-6.23h45.7c3.45,0,6.25,2.79,6.25,6.23
		v70.01c0,3.43-2.8,6.23-6.25,6.23H10.58z"/>
	<g>
		<polygon class="st2" points="44.5,10.62 38.34,18.4 44.5,26.18 50.66,18.4 		"/>
		<polygon class="st3" points="44.46,10.67 44.5,10.62 50.66,18.4 44.5,26.18 44.46,26.13 		"/>
	</g>
	<g>
		<polygon class="st2" points="22.36,38.13 28.52,45.91 22.36,53.7 16.19,45.91 		"/>
		<polygon class="st3" points="22.4,38.18 22.36,38.13 16.19,45.91 22.36,53.7 22.4,53.65 		"/>
	</g>
	<g>
		<polygon class="st2" points="33,24.97 39.16,32.75 33,40.54 26.83,32.75 		"/>
		<polygon class="st3" points="33.04,25.03 33,24.97 26.83,32.75 33,40.54 33.04,40.49 		"/>
	</g>
	<g>
		<polygon class="st2" points="22.36,65.65 28.52,73.43 22.36,81.21 16.19,73.43 		"/>
		<polygon class="st3" points="22.4,65.7 22.36,65.65 16.19,73.43 22.36,81.21 22.4,81.16 		"/>
	</g>
	<g>
		<polygon class="st2" points="22.36,10.62 28.52,18.4 22.36,26.18 16.19,18.4 		"/>
		<polygon class="st3" points="22.4,10.67 22.36,10.62 16.19,18.4 22.36,26.18 22.4,26.13 		"/>
	</g>
	<g>
		<polygon class="st2" points="44.5,38.13 38.34,45.91 44.5,53.7 50.66,45.91 		"/>
		<polygon class="st3" points="44.46,38.18 44.5,38.13 50.66,45.91 44.5,53.7 44.46,53.65 		"/>
	</g>
	<g>
		<polygon class="st2" points="44.5,65.65 38.34,73.43 44.5,81.21 50.66,73.43 		"/>
		<polygon class="st3" points="44.46,65.7 44.5,65.65 50.66,73.43 44.5,81.21 44.46,81.16 		"/>
	</g>
	<g>
		<polygon class="st2" points="9.23,23.44 7.44,21.17 9.23,18.9 11.03,21.17 		"/>
		<polygon class="st3" points="9.23,18.9 9.22,18.92 9.22,23.42 9.23,23.44 11.03,21.17 		"/>
	</g>
	<g>
		<path class="st4" d="M11.66,10c-0.11,0.2-0.22,0.4-0.32,0.6c-0.22,0.43-0.4,0.8-0.53,1.11c-0.16,0.36-0.31,0.69-0.44,1.01
			c-0.19,0.46-0.29,0.7-0.29,0.71c-0.11,0.22-0.26,0.5-0.45,0.84c-0.24,0.4-0.42,0.7-0.56,0.88c-0.24,0.3-0.47,0.57-0.72,0.8
			c-0.27,0.25-0.57,0.48-0.91,0.68c-0.02-0.01-0.05-0.03-0.07-0.04c-0.02-0.02-0.03-0.05-0.03-0.08c0-0.05,0.14-0.25,0.42-0.6
			c0.18-0.22,0.3-0.39,0.38-0.52c0.11-0.17,0.21-0.37,0.31-0.6c0.1-0.22,0.2-0.45,0.3-0.7c0.27-0.55,0.5-1.07,0.69-1.54
			c0.11-0.29,0.23-0.62,0.34-0.98c0-0.12-0.42-0.18-1.27-0.18c-0.11,0-0.24,0.02-0.37,0.06c-0.13,0.04-0.26,0.11-0.37,0.2H7.54
			v-0.19c0.39-0.56,0.77-0.94,1.13-1.17c0.28-0.17,0.59-0.26,0.91-0.26c0.1,0,0.25,0.01,0.45,0.04c0.2,0.02,0.36,0.04,0.47,0.04
			c0.16-0.01,0.28-0.01,0.37-0.02c0.28-0.03,0.48-0.1,0.61-0.2h0.15L11.66,10z"/>
	</g>
	<g>
		<path class="st4" d="M55.58,82.6c0.11-0.21,0.22-0.4,0.32-0.6c0.22-0.43,0.4-0.8,0.53-1.11c0.16-0.36,0.31-0.69,0.44-1.01
			c0.19-0.46,0.29-0.7,0.29-0.71c0.11-0.22,0.26-0.5,0.45-0.84c0.24-0.4,0.42-0.7,0.56-0.88c0.24-0.3,0.47-0.57,0.72-0.8
			c0.27-0.25,0.57-0.48,0.91-0.68c0.02,0.01,0.05,0.03,0.07,0.04c0.02,0.02,0.03,0.05,0.03,0.08c0,0.05-0.14,0.25-0.42,0.6
			c-0.18,0.22-0.3,0.39-0.38,0.52c-0.11,0.17-0.21,0.37-0.31,0.6c-0.1,0.22-0.2,0.46-0.3,0.7c-0.27,0.55-0.5,1.07-0.69,1.54
			c-0.11,0.29-0.23,0.62-0.34,0.98c0,0.12,0.42,0.18,1.27,0.18c0.11,0,0.24-0.02,0.37-0.06c0.13-0.04,0.26-0.11,0.37-0.2h0.24v0.19
			c-0.39,0.56-0.77,0.94-1.13,1.17c-0.28,0.17-0.59,0.26-0.91,0.26c-0.1,0-0.25-0.01-0.45-0.04c-0.21-0.02-0.36-0.04-0.47-0.04
			c-0.16,0.01-0.28,0.01-0.37,0.02c-0.28,0.03-0.48,0.1-0.61,0.2h-0.15L55.58,82.6z"/>
	</g>
	<g>
		<polygon class="st2" points="58.01,69.17 59.8,71.43 58.01,73.7 56.22,71.43 		"/>
		<polygon class="st3" points="58.02,69.18 58.01,69.17 56.22,71.43 58.01,73.7 58.02,73.68 		"/>
	</g>
</g>
</svg>
