<?xml version="1.0" encoding="utf-8"?>
<!-- Generator: Adobe Illustrator 26.0.3, SVG Export Plug-In . SVG Version: 6.00 Build 0)  -->
<svg version="1.1" id="Layer_1" xmlns="http://www.w3.org/2000/svg" xmlns:xlink="http://www.w3.org/1999/xlink" x="0px" y="0px"
	 viewBox="0 0 66 92" style="enable-background:new 0 0 66 92;" xml:space="preserve">
<style type="text/css">
	.st0{fill:#C9C9C9;}
	.st1{fill:#FFFFFF;}
	.st2{fill:#D66142;}
	.st3{opacity:0.2;fill:#616161;}
	.st4{fill:#333333;}
</style>
<g>
	<g>
		<path class="st0" d="M10,87.32c-3.49,0-6.34-2.78-6.35-6.21L3.47,10.93C3.46,7.48,6.3,4.67,9.81,4.68l46.38,0.09
			c3.49,0.01,6.33,2.82,6.33,6.26v70.03c0,3.42-2.83,6.21-6.31,6.22L10,87.32z"/>
	</g>
	<path class="st1" d="M10.58,87.15c-3.45,0-6.25-2.79-6.25-6.23V10.91c0-3.43,2.8-6.23,6.25-6.23h45.7c3.45,0,6.25,2.79,6.25,6.23
		v70.01c0,3.44-2.8,6.23-6.25,6.23H10.58z"/>
	<g>
		<polygon class="st2" points="44.5,10.62 50.66,18.4 44.5,26.18 38.33,18.4 		"/>
		<polygon class="st3" points="44.54,10.67 44.5,10.62 38.33,18.4 44.5,26.18 44.54,26.13 		"/>
	</g>
	<g>
		<polygon class="st2" points="33.07,38.13 39.23,45.91 33.07,53.7 26.91,45.91 		"/>
		<polygon class="st3" points="33.11,38.18 33.07,38.13 26.91,45.91 33.07,53.7 33.11,53.65 		"/>
	</g>
	<g>
		<polygon class="st2" points="44.5,28.96 50.66,36.74 44.5,44.53 38.33,36.74 		"/>
		<polygon class="st3" points="44.54,29.01 44.5,28.96 38.33,36.74 44.5,44.53 44.54,44.47 		"/>
	</g>
	<g>
		<polygon class="st2" points="22.36,47.3 16.19,55.08 22.36,62.87 28.52,55.08 		"/>
		<polygon class="st3" points="22.31,47.36 22.36,47.3 28.52,55.08 22.36,62.87 22.31,62.82 		"/>
	</g>
	<g>
		<polygon class="st2" points="22.36,65.65 16.19,73.43 22.36,81.21 28.52,73.43 		"/>
		<polygon class="st3" points="22.31,65.7 22.36,65.65 28.52,73.43 22.36,81.21 22.31,81.16 		"/>
	</g>
	<g>
		<polygon class="st2" points="22.36,10.62 28.52,18.4 22.36,26.18 16.19,18.4 		"/>
		<polygon class="st3" points="22.4,10.67 22.36,10.62 16.19,18.4 22.36,26.18 22.4,26.13 		"/>
	</g>
	<g>
		<polygon class="st2" points="22.36,28.96 28.52,36.74 22.36,44.53 16.19,36.74 		"/>
		<polygon class="st3" points="22.4,29.01 22.36,28.96 16.19,36.74 22.36,44.53 22.4,44.47 		"/>
	</g>
	<g>
		<polygon class="st2" points="44.5,47.3 38.33,55.08 44.5,62.87 50.66,55.08 		"/>
		<polygon class="st3" points="44.46,47.36 44.5,47.3 50.66,55.08 44.5,62.87 44.46,62.82 		"/>
	</g>
	<g>
		<polygon class="st2" points="44.5,65.65 38.33,73.43 44.5,81.21 50.66,73.43 		"/>
		<polygon class="st3" points="44.46,65.7 44.5,65.65 50.66,73.43 44.5,81.21 44.46,81.16 		"/>
	</g>
	<g>
		<polygon class="st2" points="9.23,23.44 7.44,21.17 9.23,18.9 11.03,21.17 		"/>
		<polygon class="st3" points="9.23,18.9 9.22,18.92 9.22,23.42 9.23,23.44 11.03,21.17 		"/>
	</g>
	<g>
		<path class="st4" d="M11.65,12.25c0,0.44-0.1,0.92-0.29,1.43c-0.2,0.52-0.4,0.89-0.61,1.14c-0.38,0.43-0.74,0.79-1.07,1.07
			c-0.55,0.47-0.99,0.71-1.31,0.71c-0.03,0-0.06-0.01-0.09-0.04c-0.03-0.02-0.06-0.05-0.08-0.08c0.3-0.19,0.61-0.47,0.92-0.82
			c0.31-0.35,0.62-0.83,0.92-1.43v-0.12c-0.03-0.01-0.05-0.02-0.07-0.04c-0.24,0.11-0.46,0.2-0.67,0.28
			c-0.2,0.08-0.38,0.12-0.54,0.12c-0.31,0-0.61-0.17-0.89-0.52C7.56,13.57,7.4,13.1,7.4,12.54c0-0.54,0.33-1.12,0.98-1.72
			c0.6-0.56,1.1-0.83,1.49-0.83c0.37,0,0.75,0.2,1.12,0.59C11.43,11.04,11.65,11.6,11.65,12.25z M10.28,13.04
			c0-0.53-0.16-0.98-0.49-1.34C9.5,11.38,9.2,11.22,8.9,11.22c-0.07,0-0.12,0.04-0.14,0.13c-0.03,0.09-0.04,0.19-0.04,0.29
			c0,0.46,0.12,0.84,0.34,1.14c0.28,0.37,0.54,0.55,0.8,0.55c0.13,0,0.22-0.01,0.28-0.04C10.23,13.25,10.28,13.16,10.28,13.04z"/>
	</g>
	<g>
		<path class="st4" d="M55.59,80.35c0-0.44,0.1-0.92,0.29-1.43c0.2-0.52,0.4-0.89,0.61-1.14c0.38-0.43,0.74-0.79,1.07-1.07
			c0.55-0.47,0.99-0.71,1.31-0.71c0.03,0,0.06,0.01,0.09,0.04c0.03,0.02,0.06,0.05,0.08,0.08c-0.3,0.19-0.61,0.47-0.92,0.82
			c-0.31,0.35-0.62,0.83-0.92,1.43v0.12c0.03,0.01,0.05,0.02,0.07,0.04c0.24-0.11,0.46-0.2,0.67-0.28c0.2-0.08,0.38-0.12,0.54-0.12
			c0.31,0,0.61,0.17,0.89,0.52c0.32,0.39,0.48,0.87,0.48,1.42c0,0.54-0.33,1.12-0.98,1.72c-0.6,0.56-1.1,0.83-1.49,0.83
			c-0.37,0-0.75-0.2-1.12-0.59C55.81,81.56,55.59,81,55.59,80.35z M56.97,79.56c0,0.53,0.16,0.98,0.49,1.34
			c0.29,0.32,0.59,0.48,0.89,0.48c0.07,0,0.12-0.04,0.14-0.13c0.03-0.09,0.04-0.19,0.04-0.29c0-0.46-0.12-0.84-0.34-1.14
			c-0.28-0.37-0.54-0.55-0.8-0.55c-0.13,0-0.22,0.01-0.28,0.04C57.01,79.36,56.97,79.44,56.97,79.56z"/>
	</g>
	<g>
		<polygon class="st2" points="58.01,69.17 59.8,71.43 58.01,73.69 56.21,71.43 		"/>
		<polygon class="st3" points="58.02,69.18 58.01,69.17 56.21,71.43 58.01,73.69 58.02,73.68 		"/>
	</g>
</g>
</svg>
