<?xml version="1.0" encoding="utf-8"?>
<!-- Generator: Adobe Illustrator 26.0.3, SVG Export Plug-In . SVG Version: 6.00 Build 0)  -->
<svg version="1.1" id="Layer_1" xmlns="http://www.w3.org/2000/svg" xmlns:xlink="http://www.w3.org/1999/xlink" x="0px" y="0px"
	 viewBox="0 0 66 92" style="enable-background:new 0 0 66 92;" xml:space="preserve">
<style type="text/css">
	.st0{fill:#C9C9C9;}
	.st1{fill:#FFFFFF;}
	.st2{fill:#D66142;}
	.st3{opacity:0.2;fill:#616161;}
	.st4{fill:#333333;}
	.st5{fill:#FFD675;}
	.st6{fill:#EBEBEB;}
	.st7{opacity:0.4;fill:#616161;}
	.st8{fill:#EBBE9F;}
	.st9{fill:#9C9C9C;}
	.st10{opacity:0.2;fill:#FFFFFF;}
</style>
<g>
	<g>
		<path class="st0" d="M10.02,87.29c-3.49,0-6.33-2.78-6.34-6.21L3.5,10.96C3.49,7.5,6.33,4.7,9.83,4.71l46.34,0.09
			c3.49,0.01,6.33,2.81,6.33,6.26v69.97c0,3.42-2.83,6.21-6.3,6.21L10.02,87.29z"/>
		<path class="st1" d="M10.5,87.21c-3.44,0-6.25-2.79-6.25-6.23V11.03c0-3.43,2.8-6.22,6.25-6.22h45.67c3.45,0,6.25,2.79,6.25,6.22
			v69.96c0,3.43-2.8,6.23-6.25,6.23H10.5z"/>
		<g>
			<path class="st2" d="M56.25,85.8H10.59c-2.67,0-4.84-2.16-4.84-4.82V11.03c0-2.66,2.17-4.82,4.84-4.82h45.67
				c2.67,0,4.84,2.16,4.84,4.82v69.96C61.09,83.64,58.92,85.8,56.25,85.8z M10.59,8.12c-1.61,0-2.93,1.3-2.93,2.91v69.96
				c0,1.6,1.31,2.91,2.93,2.91h45.67c1.61,0,2.93-1.3,2.93-2.91V11.03c0-1.6-1.31-2.91-2.93-2.91H10.59z"/>
		</g>
		<g>
			<polygon class="st2" points="12.28,26.43 9.29,22.66 12.28,18.88 15.27,22.66 			"/>
			<polygon class="st3" points="12.28,18.88 12.19,19.01 12.19,26.31 12.28,26.43 15.27,22.66 			"/>
		</g>
		<g>
			<path class="st4" d="M14.74,16.02c-0.04,0.07-0.22,0.21-0.52,0.44c-0.39,0.3-0.74,0.49-1.03,0.57l-1.58-2.9l-0.09,0.06v2.54H9.65
				v-6.62h1.86v3.75c0.32-0.04,0.61-0.26,0.87-0.66c0.24-0.36,0.35-0.7,0.35-1.02c0-0.23-0.04-0.43-0.11-0.6
				c-0.08-0.15-0.17-0.3-0.25-0.45c0-0.07,0.21-0.25,0.62-0.56c0.34-0.25,0.58-0.44,0.73-0.55c0.11,0.1,0.22,0.26,0.32,0.49
				c0.1,0.23,0.14,0.44,0.14,0.62c0,0.16-0.03,0.35-0.1,0.58c-0.07,0.23-0.16,0.43-0.27,0.62c-0.17,0.27-0.32,0.47-0.46,0.61
				c-0.28,0.28-0.42,0.44-0.44,0.47L14.74,16.02z"/>
		</g>
		<g>
			<polygon class="st2" points="54.8,66.34 57.78,70.11 54.8,73.89 51.81,70.11 			"/>
			<polygon class="st3" points="54.8,73.89 54.89,73.76 54.89,66.46 54.8,66.34 51.81,70.11 			"/>
		</g>
		<g>
			<path class="st4" d="M52.33,76.75c0.04-0.07,0.22-0.21,0.52-0.44c0.39-0.3,0.74-0.49,1.03-0.57l1.58,2.9l0.09-0.06v-2.54h1.86
				v6.62h-1.86v-3.75c-0.32,0.04-0.61,0.26-0.87,0.66c-0.24,0.36-0.35,0.7-0.35,1.02c0,0.23,0.04,0.43,0.11,0.6
				c0.08,0.15,0.17,0.3,0.25,0.45c0,0.07-0.21,0.25-0.62,0.56c-0.34,0.25-0.58,0.44-0.73,0.55c-0.11-0.1-0.22-0.26-0.32-0.49
				c-0.1-0.23-0.14-0.44-0.14-0.62c0-0.16,0.03-0.35,0.1-0.58c0.07-0.23,0.16-0.43,0.27-0.62c0.17-0.27,0.32-0.47,0.46-0.61
				c0.28-0.28,0.42-0.44,0.44-0.47L52.33,76.75z"/>
		</g>
	</g>
	<g>
		<g>
			<g>
				<g>
					<path class="st2" d="M50.29,31.06l-0.13-0.43c0,0-7.9-4.51-10.43-5.94c-0.47-0.27-0.76-0.43-0.77-0.43H27.72
						c0,0-0.02,0.01-0.05,0.03c-0.02,0.01-0.05,0.03-0.08,0.05c-0.03,0.02-0.06,0.04-0.1,0.05c-0.03,0.02-0.07,0.04-0.11,0.06
						c-0.04,0.02-0.08,0.05-0.13,0.07c-0.07,0.04-0.14,0.08-0.22,0.13c-0.15,0.09-0.33,0.19-0.52,0.29c0,0-0.01,0-0.01,0
						c-0.14,0.08-0.3,0.17-0.46,0.26c-0.05,0.03-0.11,0.06-0.17,0.1c-0.38,0.21-0.79,0.45-1.24,0.7c-0.16,0.09-0.32,0.18-0.49,0.28
						c-0.16,0.09-0.33,0.19-0.5,0.28c-0.16,0.1-0.34,0.19-0.51,0.29c-2.23,1.27-4.69,2.68-5.89,3.36c-0.07,0.04-0.13,0.08-0.19,0.11
						c-0.29,0.16-0.47,0.27-0.52,0.3v18.75l7.36-2.21l1.67-0.5l24.72-7.42V31.06z"/>
					<g>
						<g>
							<g>
								<polygon class="st3" points="33.43,42.18 30.07,37.28 33.45,33.51 36.85,37.41 								"/>
								<polygon class="st5" points="33.44,41.06 30.45,37.29 33.44,33.52 36.43,37.29 								"/>
								<polygon class="st3" points="31.75,37.29 33.44,35.16 35.12,37.29 33.44,39.42 								"/>
								<g>
									<path class="st5" d="M33.44,33.97l-3.08-5.34h6.16L33.44,33.97z M30.95,28.98l2.49,4.31l2.49-4.31H30.95z"/>
								</g>
							</g>
							<path class="st3" d="M29.3,24.26c-0.06,0.01-11.19,6.37-11.19,6.37l-1.56,4.82v13.92l7.36-2.21l1.67-0.5l4.4-14.44l0.59-1.93
								l0.86-1.84l1.92-4.1v-0.08H29.3z"/>
							<path class="st6" d="M27.72,24.26c0,0-0.02,0.01-0.05,0.03c-0.02,0.01-0.05,0.03-0.08,0.05c-0.03,0.02-0.06,0.04-0.1,0.05
								c-0.03,0.02-0.07,0.04-0.11,0.06c-0.04,0.02-0.08,0.05-0.13,0.07c-0.07,0.04-0.14,0.08-0.22,0.13
								c-0.15,0.08-0.32,0.18-0.52,0.29c0,0-0.01,0-0.01,0c-0.14,0.08-0.3,0.17-0.46,0.26c-0.05,0.03-0.11,0.06-0.17,0.1
								c-0.38,0.21-0.79,0.45-1.24,0.7c-0.16,0.09-0.32,0.18-0.49,0.28c-0.16,0.09-0.33,0.18-0.5,0.28
								c-0.16,0.09-0.34,0.19-0.51,0.29c-0.72,0.41-1.46,0.83-2.18,1.24c-0.22,0.12-0.43,0.24-0.64,0.36
								c-1.25,0.72-2.37,1.36-3.07,1.75c-0.07,0.04-0.13,0.08-0.19,0.11c-0.29,0.16-0.47,0.27-0.52,0.3v18.75l1.31-0.4l0.74-0.22
								l5.23-1.57l0.08-0.03c0.25-0.58,0.5-1.19,0.77-1.84c1.76-4.24,3.91-9.61,5.3-13.11c0.87-2.18,1.44-3.63,1.44-3.63l0.01-0.15
								l0.38-4.18H27.72z"/>
						</g>
						<g>
							<g>
								<path class="st3" d="M50.29,36.3l-1.71-5.67c0,0-11.13-6.35-11.19-6.37h-4.05v0.08l2.78,5.95l3.61,12.34l10.55-3.82V36.3z"
									/>
								<path class="st6" d="M50.29,31.06l-0.13-0.43c0,0-11.13-6.35-11.19-6.37h-4.08l0.39,4.33c0,0,4.8,9.97,6.51,13.2l8.5-2.55
									V31.06z"/>
							</g>
						</g>
					</g>
					<g>
						<path class="st7" d="M39.74,24.69l-0.24,3.06l-6.1,4.36v0.01l-0.01-0.01l-0.01,0.01v-0.01l-6.1-4.36l-0.25-3.1
							c0.43-0.25,0.68-0.39,0.69-0.39h0.91c0.56,0.85,1.03,1.57,1.03,1.57l2.22-1.57l0.34-0.24l1.16,0.04l1.16-0.04l0.34,0.24
							l2.22,1.57c0,0,0.48-0.72,1.03-1.57h0.84C38.98,24.26,39.27,24.42,39.74,24.69z"/>
						<polygon class="st8" points="39.85,21.51 39.73,19.99 39.73,19.93 39.38,15.27 37.65,14.4 34.31,12.71 33.39,13.2 
							32.46,12.71 29.12,14.4 27.39,15.27 27.04,19.93 27.04,19.99 26.92,21.51 27.27,25.94 33.38,30.3 33.38,30.31 33.38,30.31 
							33.39,30.3 33.39,30.31 33.39,30.31 33.39,30.3 39.5,25.94 						"/>
						<path class="st9" d="M39.85,21.51l-0.12-1.58c-0.53,0.94-2.62,4.09-2.62,4.09l-2.56-1.81l-1.16,0.04l-1.16-0.04l-2.56,1.81
							c0,0-2.09-3.15-2.62-4.09l-0.12,1.58l0.35,4.43l6.1,4.36v0.01l0.01-0.01l0.01,0.01V30.3l6.1-4.36L39.85,21.51z"/>
						<path class="st8" d="M33.39,24.26l2.05-0.07l-1.53-0.96c0,0-0.25-0.01-0.52-0.01l0,0c0,0-0.01,0-0.01,0c0,0,0,0-0.01,0l0,0
							c-0.27,0-0.52,0.01-0.52,0.01l-1.53,0.96l2.05,0.07v0L33.39,24.26L33.39,24.26L33.39,24.26z"/>
						<polygon class="st3" points="34.63,21.33 33.79,18.42 33.39,18.42 33.38,18.42 32.98,18.42 32.14,21.33 32.98,22.23 
							33.38,22.25 33.38,22.25 33.39,22.25 33.39,22.25 33.39,22.25 33.79,22.23 						"/>
						<g>
							<polygon class="st9" points="34.27,17.64 36.9,17.31 36.96,17.3 36.99,17.32 38.24,17.98 36.88,17.6 36.96,17.61 
								34.41,18.33 							"/>
							<path class="st4" d="M35.19,18.74c-0.04,0.09-0.07,0.2-0.07,0.31c0,0.41,0.33,0.74,0.74,0.74c0.41,0,0.74-0.33,0.74-0.74
								c0-0.11-0.02-0.21-0.07-0.31H35.19z"/>
							<polygon class="st9" points="32.5,17.64 29.87,17.31 29.81,17.3 29.78,17.32 28.53,17.98 29.89,17.6 29.81,17.61 
								32.36,18.33 							"/>
							<path class="st4" d="M31.58,18.74c0.04,0.09,0.07,0.2,0.07,0.31c0,0.41-0.33,0.74-0.74,0.74s-0.74-0.33-0.74-0.74
								c0-0.11,0.02-0.21,0.07-0.31H31.58z"/>
							<path class="st9" d="M39.73,19.99c-0.04,0.03-0.06,0.05-0.06,0.05l-1.22-4.3l-0.8-1.34l1.73,0.87l0.35,4.66L39.73,19.99z"/>
							<path class="st9" d="M27.04,19.99c0.04,0.03,0.07,0.05,0.07,0.05l1.22-4.3l0.8-1.34l-1.73,0.87l-0.35,4.66L27.04,19.99z"/>
						</g>
						<path class="st5" d="M39.5,13.61v1.78c-1.54,0.42-3.27,0.6-4.93,0.65c-1.1,0.03-2.18,0.01-3.15-0.05
							c-0.48-0.03-0.94-0.06-1.36-0.1c-0.5-0.04-0.95-0.09-1.34-0.14c-0.93-0.11-1.51-0.21-1.51-0.21v-1.69c0,0,6.11-3.26,6.14-3.26
							c0,0.01,0.76,0.4,1.75,0.88c0.31,0.16,0.65,0.32,0.99,0.49c0.32,0.16,0.65,0.32,0.98,0.48c0.91,0.44,1.74,0.85,2.15,1.05
							C39.4,13.56,39.5,13.61,39.5,13.61z"/>
						<g>
							<path class="st10" d="M36.1,11.95l-6.04,3.94c-0.5-0.04-0.95-0.09-1.34-0.14l6.39-4.29C35.42,11.62,35.76,11.78,36.1,11.95z"
								/>
							<path class="st10" d="M39.22,13.48l-4.66,2.56c-1.1,0.03-2.18,0.01-3.15-0.05l5.66-3.56C37.98,12.87,38.81,13.28,39.22,13.48
								z"/>
						</g>
						<polygon class="st2" points="34.43,12.49 33.44,13.81 33.44,13.81 33.39,13.9 32.33,12.52 33.44,11.05 						"/>
						<polygon class="st10" points="33.44,13.81 33.67,12.65 33.44,11.05 34.43,12.49 						"/>
					</g>
				</g>
				<g>
					<polygon class="st4" points="21.29,36.57 21.08,38.01 21.79,36.74 					"/>
					<polygon class="st4" points="24.11,36.57 23.91,38.01 24.61,36.74 					"/>
					<polygon class="st4" points="26.93,36.57 26.73,38.01 27.43,36.74 					"/>
					<polygon class="st4" points="17.76,41.19 17.55,42.63 18.26,41.36 					"/>
					<polygon class="st4" points="20.58,41.19 20.38,42.63 21.08,41.36 					"/>
					<polygon class="st4" points="23.4,41.19 23.2,42.63 23.91,41.36 					"/>
					<polygon class="st4" points="18.62,45.85 18.42,47.29 19.12,46.02 					"/>
					<polygon class="st4" points="21.44,45.85 21.24,47.29 21.95,46.02 					"/>
					<path class="st4" d="M24.46,45.74c-0.13,0.32-0.26,0.63-0.38,0.92l-0.04,0.01l0.14-1.02L24.46,45.74z"/>
					<polygon class="st4" points="26.23,28.51 26.02,29.95 26.73,28.68 					"/>
					<polygon class="st4" points="23.4,27.93 23.2,29.37 23.91,28.1 					"/>
					<path class="st4" d="M20.77,28.46l-0.39,0.7l0.07-0.52C20.55,28.58,20.66,28.51,20.77,28.46z"/>
					<polygon class="st4" points="18.41,48.76 18.04,48.87 18.07,48.64 					"/>
					<polygon class="st4" points="17.83,31.91 17.63,33.35 18.33,32.08 					"/>
					<polygon class="st4" points="20.97,31.91 20.77,33.35 21.47,32.08 					"/>
					<polygon class="st4" points="23.79,31.91 23.59,33.35 24.3,32.08 					"/>
					<polygon class="st4" points="26.61,31.91 26.41,33.35 27.12,32.08 					"/>
					<polygon class="st4" points="29.51,29.26 29.3,30.69 30.01,29.43 					"/>
					<polygon class="st4" points="18.15,36.57 17.94,38.01 18.65,36.74 					"/>
				</g>
				<g>
					<polygon class="st4" points="46.09,36.57 46.3,38.01 45.59,36.74 					"/>
					<polygon class="st4" points="43.27,36.57 43.47,38.01 42.77,36.74 					"/>
					<polygon class="st4" points="40.45,36.57 40.65,38.01 39.94,36.74 					"/>
					<polygon class="st4" points="41.16,28.51 41.36,29.95 40.65,28.68 					"/>
					<polygon class="st4" points="43.98,27.93 44.18,29.37 43.47,28.1 					"/>
					<path class="st4" d="M46.61,28.46l0.39,0.7l-0.07-0.52C46.83,28.58,46.72,28.51,46.61,28.46z"/>
					<polygon class="st4" points="49.55,31.91 49.76,33.35 49.05,32.08 					"/>
					<polygon class="st4" points="46.41,31.91 46.61,33.35 45.91,32.08 					"/>
					<polygon class="st4" points="43.59,31.91 43.79,33.35 43.08,32.08 					"/>
					<polygon class="st4" points="40.77,31.91 40.97,33.35 40.26,32.08 					"/>
					<polygon class="st4" points="37.87,29.26 38.08,30.69 37.37,29.43 					"/>
					<polygon class="st4" points="49.23,36.57 49.44,38.01 48.73,36.74 					"/>
				</g>
			</g>
			<path class="st3" d="M50.29,31.06l-0.13-0.43c0,0-1.41-0.8-3.21-1.83l-0.02-0.16c-0.1-0.06-0.21-0.12-0.32-0.18l0.12,0.22
				c-2-1.14-4.42-2.52-6.03-3.43c-0.44-0.25-0.82-0.46-1.11-0.63l0.25-3.11l-0.06-0.8l-0.05-0.72l0-0.06l-0.34-4.51
				c0.03-0.01,0.07-0.02,0.1-0.03v-1.78c0,0-0.1-0.05-0.27-0.13c-0.41-0.2-1.24-0.6-2.15-1.05c-0.32-0.16-0.65-0.32-0.98-0.48
				c-0.34-0.17-0.68-0.33-0.99-0.49c-0.82-0.4-1.48-0.73-1.69-0.84V44.3l6.26-1.88l0.06,0.2l3.59-1.3l0.28-0.08l6.68-2.01V31.06z"/>
		</g>
		<g>
			<g>
				<g>
					<path class="st2" d="M16.55,60.9l0.13,0.43c0,0,7.9,4.51,10.43,5.94c0.47,0.27,0.76,0.43,0.77,0.43h11.25
						c0,0,0.02-0.01,0.05-0.03c0.02-0.01,0.05-0.03,0.08-0.05c0.03-0.02,0.06-0.04,0.1-0.05c0.03-0.02,0.07-0.04,0.1-0.06
						c0.04-0.02,0.08-0.05,0.13-0.07c0.07-0.04,0.14-0.08,0.22-0.13c0.15-0.09,0.33-0.19,0.52-0.29c0,0,0,0,0.01,0
						c0.14-0.09,0.3-0.17,0.46-0.26c0.05-0.03,0.11-0.06,0.17-0.1c0.38-0.21,0.79-0.45,1.24-0.7c0.16-0.09,0.32-0.19,0.49-0.28
						c0.16-0.09,0.33-0.19,0.49-0.28c0.17-0.1,0.34-0.2,0.51-0.29c2.23-1.27,4.69-2.68,5.88-3.35c0.07-0.04,0.13-0.08,0.19-0.11
						c0.29-0.16,0.47-0.27,0.52-0.3V42.59l-7.36,2.21l-1.67,0.5l-24.72,7.42V60.9z"/>
					<g>
						<g>
							<g>
								<polygon class="st3" points="33.41,49.78 36.77,54.68 33.4,58.45 30,54.55 								"/>
								<polygon class="st5" points="33.41,50.9 36.39,54.67 33.41,58.44 30.42,54.67 								"/>
								<polygon class="st3" points="35.09,54.67 33.41,56.8 31.72,54.67 33.41,52.54 								"/>
								<g>
									<path class="st5" d="M33.41,57.99l3.08,5.34h-6.16L33.41,57.99z M35.9,62.99l-2.49-4.32l-2.49,4.32H35.9z"/>
								</g>
							</g>
							<path class="st3" d="M37.54,67.7c0.06-0.01,11.19-6.37,11.19-6.37l1.56-4.82V42.59l-7.36,2.21l-1.67,0.5l-4.4,14.44
								l-0.59,1.93l-0.86,1.85l-1.92,4.1v0.08H37.54z"/>
							<path class="st6" d="M39.12,67.7c0,0,0.02-0.01,0.05-0.03c0.02-0.01,0.05-0.03,0.08-0.05c0.03-0.02,0.06-0.04,0.1-0.05
								c0.03-0.02,0.07-0.04,0.1-0.06c0.04-0.02,0.08-0.05,0.13-0.07c0.07-0.04,0.14-0.08,0.22-0.13c0.15-0.08,0.33-0.18,0.52-0.29
								c0,0,0,0,0.01,0c0.14-0.08,0.3-0.17,0.46-0.26c0.05-0.03,0.11-0.06,0.17-0.1c0.37-0.21,0.79-0.45,1.24-0.7
								c0.16-0.09,0.32-0.19,0.49-0.28c0.16-0.09,0.33-0.18,0.49-0.28c0.17-0.1,0.34-0.19,0.51-0.29c0.72-0.41,1.46-0.83,2.18-1.24
								c0.22-0.12,0.43-0.24,0.64-0.36c1.25-0.72,2.37-1.35,3.07-1.75c0.07-0.04,0.13-0.08,0.19-0.11c0.29-0.16,0.47-0.27,0.52-0.3
								V42.59l-1.31,0.39l-0.74,0.22l-5.23,1.57l-0.08,0.02c-0.24,0.58-0.5,1.19-0.77,1.84c-1.76,4.24-3.91,9.61-5.3,13.1
								c-0.87,2.18-1.44,3.63-1.44,3.63l-0.01,0.15l-0.38,4.18H39.12z"/>
						</g>
						<g>
							<g>
								<path class="st3" d="M16.55,55.66l1.71,5.67c0,0,11.13,6.35,11.19,6.37h4.05v-0.08l-2.78-5.95L27.1,49.33l-10.56,3.82V55.66
									z"/>
								<path class="st6" d="M16.55,60.9l0.13,0.43c0,0,11.13,6.35,11.19,6.37h4.08l-0.39-4.33c0,0-4.8-9.97-6.51-13.2l-8.51,2.55
									V60.9z"/>
							</g>
						</g>
					</g>
					<g>
						<path class="st7" d="M27.1,67.27l0.24-3.06l6.1-4.36v-0.01l0.01,0.01l0.01-0.01v0.01l6.1,4.36l0.24,3.1
							c-0.43,0.25-0.68,0.39-0.69,0.39h-0.91c-0.56-0.85-1.03-1.57-1.03-1.57l-2.22,1.57l-0.34,0.24l-1.16-0.04l-1.16,0.04
							l-0.34-0.24l-2.22-1.57c0,0-0.48,0.72-1.03,1.57h-0.83C27.86,67.7,27.58,67.53,27.1,67.27z"/>
						<polygon class="st8" points="26.99,70.45 27.11,71.97 27.11,72.03 27.46,76.69 29.19,77.56 32.53,79.25 33.46,78.76 
							34.38,79.25 37.72,77.56 39.45,76.69 39.8,72.03 39.8,71.97 39.92,70.45 39.57,66.02 33.47,61.66 33.47,61.65 33.46,61.65 
							33.46,61.65 33.45,61.65 33.45,61.65 33.45,61.66 27.34,66.02 						"/>
						<path class="st9" d="M26.99,70.45l0.12,1.58c0.53-0.94,2.62-4.08,2.62-4.08l2.56,1.81l1.16-0.04l1.16,0.04l2.56-1.81
							c0,0,2.09,3.15,2.62,4.08l0.12-1.58l-0.35-4.43l-6.1-4.36v-0.01l-0.01,0l-0.01,0v0.01l-6.1,4.36L26.99,70.45z"/>
						<path class="st8" d="M33.45,67.7l-2.05,0.07l1.53,0.96c0,0,0.25,0.01,0.52,0.01l0,0c0,0,0.01,0,0.01,0c0,0,0.01,0,0.01,0l0,0
							c0.27,0,0.52-0.01,0.52-0.01l1.53-0.96l-2.05-0.07l0,0H33.45L33.45,67.7L33.45,67.7z"/>
						<polygon class="st3" points="32.21,70.63 33.05,73.54 33.45,73.54 33.46,73.54 33.86,73.54 34.7,70.63 33.86,69.73 
							33.46,69.71 33.46,69.71 33.46,69.71 33.45,69.71 33.45,69.71 33.05,69.73 						"/>
						<g>
							<polygon class="st9" points="32.57,74.32 29.94,74.65 29.88,74.66 29.85,74.64 28.6,73.98 29.97,74.36 29.88,74.35 
								32.43,73.64 							"/>
							<path class="st4" d="M31.65,73.22c0.04-0.09,0.07-0.2,0.07-0.31c0-0.41-0.33-0.74-0.74-0.74c-0.41,0-0.74,0.33-0.74,0.74
								c0,0.11,0.02,0.21,0.06,0.31H31.65z"/>
							<polygon class="st9" points="34.34,74.32 36.97,74.65 37.03,74.66 37.06,74.64 38.32,73.98 36.95,74.36 37.03,74.35 
								34.48,73.64 							"/>
							<path class="st4" d="M35.27,73.22c-0.04-0.09-0.07-0.2-0.07-0.31c0-0.41,0.33-0.74,0.74-0.74c0.41,0,0.74,0.33,0.74,0.74
								c0,0.11-0.02,0.21-0.07,0.31H35.27z"/>
							<path class="st9" d="M27.11,71.97c0.04-0.03,0.06-0.05,0.06-0.05l1.22,4.3l0.8,1.34l-1.73-0.87l-0.35-4.66L27.11,71.97z"/>
							<path class="st9" d="M39.8,71.97c-0.04-0.03-0.06-0.05-0.06-0.05l-1.22,4.3l-0.8,1.34l1.73-0.87l0.35-4.66L39.8,71.97z"/>
						</g>
						<path class="st5" d="M27.35,78.35v-1.78c1.54-0.42,3.27-0.6,4.93-0.65c1.1-0.03,2.18-0.01,3.15,0.05
							c0.48,0.03,0.94,0.06,1.36,0.1c0.5,0.04,0.95,0.09,1.34,0.14c0.93,0.11,1.5,0.21,1.5,0.21v1.69c0,0-6.11,3.27-6.14,3.27
							c0-0.01-0.76-0.4-1.75-0.88c-0.31-0.15-0.65-0.32-0.99-0.49c-0.32-0.16-0.66-0.32-0.98-0.48c-0.91-0.44-1.74-0.85-2.15-1.05
							C27.44,78.4,27.35,78.35,27.35,78.35z"/>
						<g>
							<path class="st10" d="M30.74,80.01l6.04-3.94c0.5,0.04,0.95,0.09,1.34,0.14l-6.39,4.29C31.43,80.35,31.09,80.18,30.74,80.01z
								"/>
							<path class="st10" d="M27.62,78.48l4.66-2.56c1.1-0.03,2.18-0.01,3.15,0.05l-5.66,3.56C28.86,79.09,28.03,78.68,27.62,78.48z
								"/>
						</g>
						<polygon class="st2" points="32.41,79.47 33.41,78.15 33.41,78.15 33.46,78.06 34.51,79.44 33.41,80.91 						"/>
						<polygon class="st10" points="33.41,78.15 33.17,79.31 33.41,80.91 32.41,79.47 						"/>
					</g>
				</g>
				<g>
					<polygon class="st4" points="45.56,55.39 45.76,53.95 45.05,55.22 					"/>
					<polygon class="st4" points="42.73,55.39 42.94,53.95 42.23,55.22 					"/>
					<polygon class="st4" points="39.91,55.39 40.11,53.95 39.41,55.22 					"/>
					<polygon class="st4" points="49.09,50.77 49.29,49.33 48.58,50.6 					"/>
					<polygon class="st4" points="46.26,50.77 46.47,49.33 45.76,50.6 					"/>
					<polygon class="st4" points="43.44,50.77 43.64,49.33 42.94,50.6 					"/>
					<polygon class="st4" points="48.22,46.11 48.43,44.67 47.72,45.94 					"/>
					<polygon class="st4" points="45.4,46.11 45.6,44.67 44.9,45.94 					"/>
					<path class="st4" d="M42.38,46.22c0.13-0.32,0.26-0.63,0.38-0.92l0.04-0.01l-0.15,1.03L42.38,46.22z"/>
					<polygon class="st4" points="40.62,63.45 40.82,62.01 40.11,63.28 					"/>
					<polygon class="st4" points="43.44,64.03 43.64,62.59 42.94,63.86 					"/>
					<path class="st4" d="M46.07,63.51l0.39-0.7l-0.08,0.52C46.29,63.38,46.18,63.44,46.07,63.51z"/>
					<polygon class="st4" points="48.43,43.2 48.8,43.09 48.77,43.32 					"/>
					<polygon class="st4" points="49.01,60.05 49.22,58.61 48.51,59.88 					"/>
					<polygon class="st4" points="45.87,60.05 46.08,58.61 45.37,59.88 					"/>
					<polygon class="st4" points="43.05,60.05 43.25,58.61 42.55,59.88 					"/>
					<polygon class="st4" points="40.23,60.05 40.43,58.61 39.73,59.88 					"/>
					<polygon class="st4" points="37.34,62.7 37.54,61.27 36.83,62.53 					"/>
					<polygon class="st4" points="48.7,55.39 48.9,53.95 48.19,55.22 					"/>
				</g>
				<g>
					<polygon class="st4" points="20.75,55.39 20.55,53.95 21.25,55.22 					"/>
					<polygon class="st4" points="23.57,55.39 23.37,53.95 24.08,55.22 					"/>
					<polygon class="st4" points="26.39,55.39 26.19,53.95 26.9,55.22 					"/>
					<polygon class="st4" points="25.69,63.45 25.48,62.01 26.19,63.28 					"/>
					<polygon class="st4" points="22.86,64.03 22.66,62.59 23.37,63.86 					"/>
					<path class="st4" d="M20.23,63.51l-0.39-0.7l0.07,0.52C20.02,63.38,20.12,63.44,20.23,63.51z"/>
					<polygon class="st4" points="17.29,60.05 17.09,58.61 17.79,59.88 					"/>
					<polygon class="st4" points="20.43,60.05 20.23,58.61 20.94,59.88 					"/>
					<polygon class="st4" points="23.25,60.05 23.05,58.61 23.76,59.88 					"/>
					<polygon class="st4" points="26.08,60.05 25.87,58.61 26.58,59.88 					"/>
					<polygon class="st4" points="28.97,62.7 28.77,61.27 29.47,62.53 					"/>
					<polygon class="st4" points="17.61,55.39 17.41,53.95 18.11,55.22 					"/>
				</g>
			</g>
			<path class="st3" d="M16.55,60.9l0.13,0.43c0,0,1.4,0.8,3.21,1.83l0.02,0.16c0.11,0.06,0.21,0.12,0.32,0.18l-0.12-0.22
				c2,1.14,4.42,2.52,6.03,3.43c0.44,0.25,0.82,0.46,1.1,0.63l-0.25,3.11l0.06,0.8l0.06,0.72l0,0.06l0.34,4.52
				c-0.03,0.01-0.07,0.02-0.11,0.03v1.78c0,0,0.1,0.05,0.27,0.13c0.41,0.2,1.24,0.6,2.15,1.05c0.32,0.16,0.65,0.32,0.98,0.48
				c0.34,0.17,0.68,0.34,0.99,0.49c0.82,0.4,1.48,0.73,1.69,0.84V47.66l-6.26,1.88l-0.06-0.2l-3.59,1.3l-0.28,0.08l-6.69,2.01V60.9z
				"/>
		</g>
	</g>
</g>
</svg>
