<?xml version="1.0" encoding="utf-8"?>
<!-- Generator: Adobe Illustrator 26.0.3, SVG Export Plug-In . SVG Version: 6.00 Build 0)  -->
<svg version="1.1" id="Layer_1" xmlns="http://www.w3.org/2000/svg" xmlns:xlink="http://www.w3.org/1999/xlink" x="0px" y="0px"
	 viewBox="0 0 66 92" style="enable-background:new 0 0 66 92;" xml:space="preserve">
<style type="text/css">
	.st0{fill:#C9C9C9;}
	.st1{fill:#FFFFFF;}
	.st2{fill:#D66142;}
	.st3{opacity:0.2;fill:#616161;}
	.st4{fill:#333333;}
</style>
<g>
	<g>
		<path class="st0" d="M10,87.32c-3.49,0-6.34-2.78-6.35-6.21L3.47,10.93C3.46,7.48,6.31,4.67,9.81,4.68l46.38,0.09
			c3.49,0.01,6.33,2.82,6.33,6.26v70.03c0,3.42-2.83,6.21-6.31,6.22L10,87.32z"/>
	</g>
	<path class="st1" d="M10.58,87.15c-3.45,0-6.25-2.79-6.25-6.23V10.91c0-3.43,2.81-6.23,6.25-6.23h45.7c3.45,0,6.25,2.79,6.25,6.23
		v70.01c0,3.44-2.8,6.23-6.25,6.23H10.58z"/>
	<g>
		<polygon class="st2" points="44.5,10.62 50.66,18.4 44.5,26.18 38.34,18.4 		"/>
		<polygon class="st3" points="44.54,10.67 44.5,10.62 38.34,18.4 44.5,26.18 44.54,26.13 		"/>
	</g>
	<g>
		<polygon class="st2" points="33.07,20.73 39.23,28.51 33.07,36.29 26.91,28.51 		"/>
		<polygon class="st3" points="33.11,20.78 33.07,20.73 26.91,28.51 33.07,36.29 33.11,36.24 		"/>
	</g>
	<g>
		<polygon class="st2" points="33.79,56.26 27.62,64.04 33.79,71.82 39.95,64.04 		"/>
		<polygon class="st3" points="33.75,56.31 33.79,56.26 39.95,64.04 33.79,71.82 33.75,71.77 		"/>
	</g>
	<g>
		<polygon class="st2" points="44.5,28.96 50.66,36.74 44.5,44.53 38.34,36.74 		"/>
		<polygon class="st3" points="44.54,29.01 44.5,28.96 38.34,36.74 44.5,44.53 44.54,44.47 		"/>
	</g>
	<g>
		<polygon class="st2" points="22.36,47.3 16.19,55.08 22.36,62.87 28.52,55.08 		"/>
		<polygon class="st3" points="22.31,47.36 22.36,47.3 28.52,55.08 22.36,62.87 22.31,62.82 		"/>
	</g>
	<g>
		<polygon class="st2" points="22.36,65.65 16.19,73.43 22.36,81.21 28.52,73.43 		"/>
		<polygon class="st3" points="22.31,65.7 22.36,65.65 28.52,73.43 22.36,81.21 22.31,81.16 		"/>
	</g>
	<g>
		<polygon class="st2" points="22.36,10.62 28.52,18.4 22.36,26.18 16.19,18.4 		"/>
		<polygon class="st3" points="22.4,10.67 22.36,10.62 16.19,18.4 22.36,26.18 22.4,26.13 		"/>
	</g>
	<g>
		<polygon class="st2" points="22.36,28.96 28.52,36.74 22.36,44.53 16.19,36.74 		"/>
		<polygon class="st3" points="22.4,29.01 22.36,28.96 16.19,36.74 22.36,44.53 22.4,44.47 		"/>
	</g>
	<g>
		<polygon class="st2" points="44.5,47.3 38.34,55.08 44.5,62.87 50.66,55.08 		"/>
		<polygon class="st3" points="44.46,47.36 44.5,47.3 50.66,55.08 44.5,62.87 44.46,62.82 		"/>
	</g>
	<g>
		<polygon class="st2" points="44.5,65.65 38.34,73.43 44.5,81.21 50.66,73.43 		"/>
		<polygon class="st3" points="44.46,65.7 44.5,65.65 50.66,73.43 44.5,81.21 44.46,81.16 		"/>
	</g>
	<g>
		<polygon class="st2" points="9.23,23.44 7.44,21.17 9.23,18.9 11.03,21.17 		"/>
		<polygon class="st3" points="9.23,18.9 9.22,18.92 9.22,23.42 9.23,23.44 11.03,21.17 		"/>
	</g>
	<g>
		<path class="st4" d="M8.65,15.67c0,0.11-0.19,0.28-0.56,0.53c-0.42,0.27-0.78,0.41-1.08,0.41c-0.16,0-0.29-0.08-0.39-0.23
			c-0.07-0.11-0.11-0.22-0.11-0.31v-4.71c0-0.1-0.01-0.16-0.04-0.19c-0.03-0.03-0.07-0.05-0.13-0.05c-0.03,0-0.1,0.01-0.21,0.04
			c-0.11,0.02-0.2,0.03-0.25,0.02c-0.02-0.03-0.04-0.06-0.04-0.08c0-0.07,0.07-0.15,0.22-0.24c0.14-0.1,0.29-0.21,0.45-0.35
			c0.13-0.11,0.26-0.22,0.39-0.34c0.14-0.1,0.25-0.14,0.34-0.14c0.15,0,0.3,0.08,0.44,0.24c0.14,0.16,0.21,0.32,0.21,0.46v4.99
			c0.02,0.03,0.04,0.05,0.05,0.05c0.04,0.04,0.07,0.05,0.1,0.05c0.05-0.02,0.09-0.03,0.12-0.04c0.08-0.04,0.18-0.1,0.3-0.19h0.15
			L8.65,15.67z"/>
		<path class="st4" d="M14.4,13.38c0,0.36-0.07,0.7-0.22,1.03c-0.24,0.53-0.64,1-1.21,1.4c-0.33,0.23-0.56,0.38-0.71,0.46
			c-0.36,0.2-0.78,0.3-1.25,0.3c-0.7,0-1.27-0.3-1.71-0.91c-0.42-0.56-0.62-1.22-0.62-1.98c0-0.49,0.13-0.99,0.38-1.49
			c0.16-0.32,0.37-0.63,0.63-0.92c0.33-0.36,0.66-0.65,1-0.87c0.44-0.28,0.87-0.42,1.29-0.42c0.74,0,1.34,0.36,1.8,1.09
			C14.2,11.73,14.4,12.5,14.4,13.38z M13.03,14.37c0-0.44-0.06-0.87-0.18-1.29c-0.12-0.42-0.3-0.81-0.54-1.16
			c-0.25-0.39-0.5-0.67-0.73-0.83c-0.16-0.12-0.32-0.17-0.46-0.17c-0.34,0-0.62,0.16-0.83,0.48c-0.21,0.32-0.32,0.69-0.32,1.1
			c0,0.25,0.02,0.49,0.07,0.71c0.07,0.34,0.21,0.73,0.41,1.16c0.23,0.51,0.48,0.88,0.77,1.11c0.23,0.19,0.47,0.29,0.7,0.29
			c0.35,0,0.62-0.12,0.81-0.38C12.93,15.15,13.03,14.81,13.03,14.37z"/>
	</g>
	<g>
		<path class="st4" d="M58.6,76.94c0-0.11,0.19-0.28,0.56-0.53c0.42-0.27,0.78-0.41,1.08-0.41c0.16,0,0.29,0.08,0.39,0.23
			c0.07,0.11,0.11,0.22,0.11,0.31v4.71c0,0.1,0.01,0.16,0.04,0.19c0.03,0.03,0.07,0.05,0.13,0.05c0.03,0,0.1-0.01,0.21-0.04
			c0.11-0.02,0.19-0.03,0.25-0.02c0.03,0.03,0.04,0.06,0.04,0.08c0,0.07-0.07,0.15-0.22,0.24c-0.14,0.1-0.29,0.21-0.45,0.35
			c-0.13,0.11-0.26,0.22-0.39,0.33c-0.14,0.1-0.25,0.14-0.34,0.14c-0.15,0-0.3-0.08-0.44-0.24c-0.14-0.16-0.21-0.32-0.21-0.46V76.9
			c-0.03-0.03-0.04-0.05-0.05-0.05c-0.04-0.04-0.08-0.05-0.1-0.05c-0.05,0.02-0.09,0.03-0.12,0.04c-0.08,0.04-0.18,0.1-0.3,0.19
			h-0.15L58.6,76.94z"/>
		<path class="st4" d="M52.84,79.22c0-0.36,0.07-0.7,0.22-1.03c0.24-0.53,0.64-1,1.21-1.4c0.33-0.23,0.56-0.38,0.71-0.46
			c0.36-0.2,0.78-0.3,1.25-0.3c0.7,0,1.27,0.3,1.71,0.91c0.42,0.56,0.62,1.22,0.62,1.98c0,0.49-0.13,0.99-0.38,1.49
			c-0.16,0.32-0.37,0.63-0.63,0.92c-0.33,0.36-0.66,0.65-1,0.87c-0.44,0.28-0.87,0.42-1.29,0.42c-0.74,0-1.34-0.36-1.8-1.09
			C53.04,80.87,52.84,80.11,52.84,79.22z M54.21,78.23c0,0.44,0.06,0.87,0.18,1.29c0.12,0.42,0.3,0.81,0.54,1.16
			c0.25,0.39,0.5,0.67,0.73,0.83c0.16,0.12,0.32,0.17,0.46,0.17c0.34,0,0.62-0.16,0.83-0.48c0.21-0.32,0.32-0.69,0.32-1.1
			c0-0.25-0.02-0.49-0.07-0.71c-0.07-0.34-0.21-0.73-0.41-1.16c-0.23-0.51-0.48-0.88-0.77-1.11c-0.23-0.19-0.47-0.29-0.7-0.29
			c-0.35,0-0.62,0.12-0.81,0.38C54.31,77.45,54.21,77.8,54.21,78.23z"/>
	</g>
	<g>
		<polygon class="st2" points="58.01,69.17 59.8,71.43 58.01,73.69 56.21,71.43 		"/>
		<polygon class="st3" points="58.02,69.18 58.01,69.17 56.21,71.43 58.01,73.69 58.02,73.68 		"/>
	</g>
</g>
</svg>
