<?xml version="1.0" encoding="utf-8"?>
<!-- Generator: Adobe Illustrator 26.0.3, SVG Export Plug-In . SVG Version: 6.00 Build 0)  -->
<svg version="1.1" id="Layer_1" xmlns="http://www.w3.org/2000/svg" xmlns:xlink="http://www.w3.org/1999/xlink" x="0px" y="0px"
	 viewBox="0 0 66 92" style="enable-background:new 0 0 66 92;" xml:space="preserve">
<style type="text/css">
	.st0{fill:#C9C9C9;}
	.st1{fill:#FFFFFF;}
	.st2{fill:#333333;}
	.st3{opacity:0.2;fill:#616161;}
	.st4{fill:#D66142;}
</style>
<g>
	<g>
		<g>
			<g>
				<path class="st0" d="M10,87.32c-3.49,0.01-6.34-2.78-6.35-6.21L3.47,10.93C3.46,7.48,6.31,4.67,9.81,4.68l46.38,0.09
					c3.49,0.01,6.33,2.82,6.33,6.26v70.03c0,3.42-2.83,6.21-6.31,6.21L10,87.32z"/>
			</g>
			<path class="st1" d="M10.58,87.15c-3.45,0-6.25-2.79-6.25-6.23V10.91c0-3.43,2.8-6.23,6.25-6.23h45.7c3.45,0,6.25,2.79,6.25,6.23
				v70.01c0,3.44-2.81,6.23-6.25,6.23H10.58z"/>
			<g>
				<path class="st2" d="M11.66,14.15c0,0.13-0.06,0.32-0.19,0.55c-0.18,0.32-0.43,0.65-0.76,0.99c-0.38,0.39-0.59,0.59-0.62,0.62
					c-0.24,0.18-0.54,0.27-0.89,0.27c-0.48,0-0.89-0.18-1.24-0.55c-0.3-0.31-0.44-0.62-0.44-0.91c0-0.2,0.1-0.44,0.3-0.71
					c0.2-0.27,0.41-0.54,0.62-0.82c-0.16-0.14-0.3-0.29-0.42-0.47c-0.12-0.17-0.18-0.36-0.18-0.58c0-0.26,0.1-0.55,0.3-0.84
					c0.19-0.26,0.35-0.48,0.48-0.66c0.31-0.45,0.57-0.74,0.78-0.87c0.21-0.13,0.43-0.2,0.67-0.2c0.36,0,0.67,0.1,0.94,0.31
					c0.26,0.21,0.39,0.48,0.39,0.83c0,0.38-0.16,0.74-0.47,1.08c-0.31,0.34-0.47,0.57-0.47,0.7c0.31,0.21,0.59,0.4,0.81,0.6
					C11.53,13.71,11.66,13.93,11.66,14.15z M10.49,14.95c0-0.19-0.23-0.43-0.69-0.71C9.39,14,9.12,13.87,9.01,13.87
					c-0.04,0-0.1,0.07-0.18,0.2c-0.08,0.13-0.11,0.25-0.11,0.34c0,0.25,0.15,0.48,0.45,0.71c0.28,0.21,0.54,0.31,0.79,0.31
					c0.12,0,0.24-0.05,0.35-0.15C10.43,15.17,10.49,15.06,10.49,14.95z M10.15,12.07c0-0.15-0.08-0.31-0.24-0.47
					c-0.19-0.19-0.4-0.28-0.63-0.28c-0.11,0-0.2,0.03-0.27,0.1c-0.07,0.07-0.11,0.15-0.11,0.24c0,0.2,0.15,0.41,0.46,0.64
					c0.26,0.2,0.43,0.3,0.51,0.3c0.05,0,0.11-0.07,0.18-0.2C10.12,12.27,10.15,12.16,10.15,12.07z"/>
			</g>
			<g>
				<path class="st2" d="M55.58,78.45c0-0.13,0.06-0.32,0.19-0.55c0.18-0.32,0.43-0.65,0.76-0.99c0.38-0.39,0.59-0.59,0.62-0.62
					c0.24-0.18,0.54-0.27,0.89-0.27c0.48,0,0.89,0.18,1.24,0.55c0.3,0.31,0.44,0.62,0.44,0.91c0,0.21-0.1,0.44-0.3,0.71
					c-0.2,0.27-0.41,0.54-0.62,0.82c0.16,0.14,0.3,0.29,0.42,0.47c0.12,0.17,0.18,0.36,0.18,0.58c0,0.26-0.1,0.55-0.3,0.84
					c-0.19,0.26-0.35,0.48-0.48,0.66c-0.31,0.45-0.57,0.74-0.78,0.87c-0.21,0.13-0.43,0.2-0.67,0.2c-0.36,0-0.67-0.1-0.94-0.31
					c-0.26-0.21-0.39-0.48-0.39-0.83c0-0.38,0.16-0.74,0.47-1.08c0.31-0.34,0.47-0.57,0.47-0.7c-0.31-0.21-0.59-0.4-0.81-0.6
					C55.71,78.89,55.58,78.67,55.58,78.45z M56.76,77.65c0,0.19,0.23,0.43,0.69,0.71c0.41,0.25,0.67,0.37,0.79,0.37
					c0.04,0,0.1-0.07,0.18-0.2c0.08-0.13,0.11-0.25,0.11-0.34c0-0.25-0.15-0.48-0.45-0.71c-0.28-0.21-0.54-0.31-0.79-0.31
					c-0.12,0-0.24,0.05-0.35,0.15C56.81,77.43,56.76,77.54,56.76,77.65z M57.09,80.53c0,0.15,0.08,0.31,0.24,0.47
					c0.19,0.19,0.4,0.28,0.63,0.28c0.11,0,0.2-0.03,0.27-0.1c0.07-0.07,0.11-0.15,0.11-0.24c0-0.2-0.15-0.41-0.46-0.64
					c-0.26-0.2-0.43-0.3-0.51-0.3c-0.05,0-0.11,0.07-0.18,0.2C57.12,80.33,57.09,80.44,57.09,80.53z"/>
			</g>
		</g>
		<g>
			<g>
				<path class="st3" d="M50.84,18.6c0.01-1.49-6.47-7.85-6.47-7.85s-0.01,0.01-0.01,0.01v15.28l3.02,0.01l-2.41-4.14
					c0.58,0.35,1.26,0.56,1.99,0.56C49.09,22.47,50.84,20.74,50.84,18.6z"/>
			</g>
			<g>
				<path class="st3" d="M50.84,36.94c0.01-1.49-6.47-7.85-6.47-7.85s-0.01,0.01-0.01,0.01v15.28l3.02,0.01l-2.41-4.14
					c0.58,0.35,1.26,0.56,1.99,0.56C49.09,40.81,50.84,39.08,50.84,36.94z"/>
			</g>
			<g>
				<path class="st3" d="M16.05,18.6c-0.01-1.49,6.47-7.85,6.47-7.85s0.01,0.01,0.01,0.01v15.28l-3.02,0.01l2.41-4.14
					c-0.58,0.35-1.26,0.56-1.99,0.56C17.79,22.47,16.05,20.74,16.05,18.6z"/>
			</g>
			<g>
				<path class="st3" d="M16.05,36.94c-0.01-1.49,6.47-7.85,6.47-7.85s0.01,0.01,0.01,0.01v15.28l-3.02,0.01l2.41-4.14
					c-0.58,0.35-1.26,0.56-1.99,0.56C17.79,40.81,16.05,39.08,16.05,36.94z"/>
			</g>
			<g>
				<path class="st3" d="M50.81,73.54c0.01,1.49-6.47,7.85-6.47,7.85s-0.01-0.01-0.01-0.01V66.1l3.02-0.01l-2.41,4.14
					c0.58-0.35,1.26-0.56,1.99-0.56C49.06,69.67,50.81,71.4,50.81,73.54z"/>
			</g>
			<g>
				<path class="st3" d="M50.81,55.2c0.01,1.49-6.47,7.85-6.47,7.85s-0.01-0.01-0.01-0.01V47.75l3.02-0.01l-2.41,4.14
					c0.58-0.35,1.26-0.56,1.99-0.56C49.06,51.33,50.81,53.06,50.81,55.2z"/>
			</g>
			<g>
				<path class="st3" d="M16.02,73.54c-0.01,1.49,6.47,7.85,6.47,7.85s0.01-0.01,0.01-0.01V66.1l-3.02-0.01l2.41,4.14
					c-0.58-0.35-1.26-0.56-1.99-0.56C17.76,69.67,16.02,71.4,16.02,73.54z"/>
			</g>
			<g>
				<path class="st3" d="M16.02,55.2c-0.01,1.49,6.47,7.85,6.47,7.85s0.01-0.01,0.01-0.01V47.75l-3.02-0.01l2.41,4.14
					c-0.58-0.35-1.26-0.56-1.99-0.56C17.76,51.33,16.02,53.06,16.02,55.2z"/>
			</g>
			<g>
				<path class="st3" d="M11.27,21.42c0-0.4-1.73-2.09-1.73-2.09s0,0,0,0v4.08l0.81,0L9.7,22.3c0.15,0.09,0.34,0.15,0.53,0.15
					C10.8,22.46,11.27,21.99,11.27,21.42z"/>
			</g>
			<g>
				<path class="st3" d="M56.32,71.38c0,0.4,1.73,2.09,1.73,2.09s0,0,0,0v-4.08l-0.8,0l0.64,1.1c-0.15-0.09-0.34-0.15-0.53-0.15
					C56.78,70.34,56.32,70.8,56.32,71.38z"/>
			</g>
		</g>
	</g>
	<g>
		<path class="st4" d="M12.11,20.63c-0.06,1.03-2.13,2.6-2.13,2.6s-2.13-1.58-2.13-2.62c0-0.71,0.58-1.29,1.29-1.29
			c0.4,0,0.85,0.36,0.85,0.36s0.42-0.36,0.83-0.35C11.54,19.34,12.15,19.92,12.11,20.63z"/>
		<path class="st3" d="M10.83,19.33c-0.41-0.01-0.83,0.35-0.83,0.35s-0.01,0-0.01-0.01v3.55c0,0,0.01,0,0.01,0s2.07-1.57,2.13-2.6
			C12.15,19.92,11.54,19.34,10.83,19.33z"/>
	</g>
	<g>
		<path class="st4" d="M55.92,72.05c0.06-1.05,2.17-2.66,2.17-2.66s2.17,1.61,2.17,2.67c0,0.72-0.59,1.31-1.32,1.31
			c-0.41,0-0.86-0.37-0.86-0.37s-0.43,0.37-0.85,0.36C56.5,73.36,55.88,72.78,55.92,72.05z"/>
		<path class="st3" d="M57.23,73.37c0.42,0.01,0.85-0.36,0.85-0.36s0.01,0,0.01,0.01V69.4c0,0-0.01,0-0.01,0s-2.12,1.6-2.17,2.66
			C55.88,72.78,56.5,73.36,57.23,73.37z"/>
	</g>
	<g>
		<path class="st4" d="M16.9,16.55c0.16,2.94,6.05,7.41,6.05,7.41s6.06-4.5,6.06-7.44c0-2.03-1.66-3.66-3.68-3.66
			c-1.14,0-2.4,1.03-2.4,1.03s-1.2-1.03-2.37-1.01C18.53,12.89,16.79,14.52,16.9,16.55z"/>
		<path class="st3" d="M20.56,12.86c1.17-0.02,2.37,1.01,2.37,1.01s0.02-0.01,0.04-0.03v10.1c-0.01,0.01-0.02,0.01-0.02,0.01
			s-5.89-4.47-6.05-7.41C16.79,14.52,18.53,12.89,20.56,12.86z"/>
	</g>
	<g>
		<path class="st4" d="M50.83,16.55c-0.16,2.94-6.05,7.41-6.05,7.41s-6.06-4.5-6.06-7.44c0-2.03,1.66-3.66,3.68-3.66
			c1.14,0,2.4,1.03,2.4,1.03s1.2-1.03,2.37-1.01C49.2,12.89,50.94,14.52,50.83,16.55z"/>
		<path class="st3" d="M47.17,12.86c-1.17-0.02-2.37,1.01-2.37,1.01s-0.02-0.01-0.04-0.03v10.1c0.01,0.01,0.02,0.01,0.02,0.01
			s5.89-4.47,6.05-7.41C50.94,14.52,49.2,12.89,47.17,12.86z"/>
	</g>
	<g>
		<path class="st4" d="M16.9,34.71c0.16,2.94,6.05,7.41,6.05,7.41s6.06-4.5,6.06-7.44c0-2.03-1.66-3.66-3.68-3.66
			c-1.14,0-2.4,1.03-2.4,1.03s-1.2-1.03-2.37-1.01C18.53,31.06,16.79,32.69,16.9,34.71z"/>
		<path class="st3" d="M20.56,31.03c1.17-0.02,2.37,1.01,2.37,1.01s0.02-0.01,0.04-0.03v10.1c-0.01,0.01-0.02,0.01-0.02,0.01
			s-5.89-4.47-6.05-7.41C16.79,32.69,18.53,31.06,20.56,31.03z"/>
	</g>
	<g>
		<path class="st4" d="M50.83,34.71c-0.16,2.94-6.05,7.41-6.05,7.41s-6.06-4.5-6.06-7.44c0-2.03,1.66-3.66,3.68-3.66
			c1.14,0,2.4,1.03,2.4,1.03s1.2-1.03,2.37-1.01C49.2,31.06,50.94,32.69,50.83,34.71z"/>
		<path class="st3" d="M47.17,31.03c-1.17-0.02-2.37,1.01-2.37,1.01s-0.02-0.01-0.04-0.03v10.1c0.01,0.01,0.02,0.01,0.02,0.01
			s5.89-4.47,6.05-7.41C50.94,32.69,49.2,31.06,47.17,31.03z"/>
	</g>
	<g>
		<path class="st4" d="M16.9,74.75c0.16-2.94,6.05-7.41,6.05-7.41s6.06,4.5,6.06,7.44c0,2.03-1.66,3.66-3.68,3.66
			c-1.14,0-2.4-1.03-2.4-1.03s-1.2,1.03-2.37,1.01C18.53,78.41,16.79,76.78,16.9,74.75z"/>
		<path class="st3" d="M20.56,78.44c1.17,0.02,2.37-1.01,2.37-1.01s0.02,0.01,0.04,0.03v-10.1c-0.01-0.01-0.02-0.01-0.02-0.01
			s-5.89,4.47-6.05,7.41C16.79,76.78,18.53,78.41,20.56,78.44z"/>
	</g>
	<g>
		<path class="st4" d="M50.83,74.75c-0.16-2.94-6.05-7.41-6.05-7.41s-6.06,4.5-6.06,7.44c0,2.03,1.66,3.66,3.68,3.66
			c1.14,0,2.4-1.03,2.4-1.03s1.2,1.03,2.37,1.01C49.2,78.41,50.94,76.78,50.83,74.75z"/>
		<path class="st3" d="M47.17,78.44c-1.17,0.02-2.37-1.01-2.37-1.01s-0.02,0.01-0.04,0.03v-10.1c0.01-0.01,0.02-0.01,0.02-0.01
			s5.89,4.47,6.05,7.41C50.94,76.78,49.2,78.41,47.17,78.44z"/>
	</g>
	<g>
		<path class="st4" d="M16.9,56.59c0.16-2.94,6.05-7.41,6.05-7.41s6.06,4.5,6.06,7.44c0,2.03-1.66,3.66-3.68,3.66
			c-1.14,0-2.4-1.03-2.4-1.03s-1.2,1.03-2.37,1.01C18.53,60.24,16.79,58.61,16.9,56.59z"/>
		<path class="st3" d="M20.56,60.27c1.17,0.02,2.37-1.01,2.37-1.01s0.02,0.01,0.04,0.03v-10.1c-0.01-0.01-0.02-0.01-0.02-0.01
			s-5.89,4.47-6.05,7.41C16.79,58.61,18.53,60.24,20.56,60.27z"/>
	</g>
	<g>
		<path class="st4" d="M50.83,56.59c-0.16-2.94-6.05-7.41-6.05-7.41s-6.06,4.5-6.06,7.44c0,2.03,1.66,3.66,3.68,3.66
			c1.14,0,2.4-1.03,2.4-1.03s1.2,1.03,2.37,1.01C49.2,60.24,50.94,58.61,50.83,56.59z"/>
		<path class="st3" d="M47.17,60.27c-1.17,0.02-2.37-1.01-2.37-1.01s-0.02,0.01-0.04,0.03v-10.1c0.01-0.01,0.02-0.01,0.02-0.01
			s5.89,4.47,6.05,7.41C50.94,58.61,49.2,60.24,47.17,60.27z"/>
	</g>
</g>
</svg>
