<?xml version="1.0" encoding="utf-8"?>
<!-- Generator: Adobe Illustrator 26.0.3, SVG Export Plug-In . SVG Version: 6.00 Build 0)  -->
<svg version="1.1" id="Layer_1" xmlns="http://www.w3.org/2000/svg" xmlns:xlink="http://www.w3.org/1999/xlink" x="0px" y="0px"
	 viewBox="0 0 66 92" style="enable-background:new 0 0 66 92;" xml:space="preserve">
<style type="text/css">
	.st0{fill:#C9C9C9;}
	.st1{fill:#FFFFFF;}
	.st2{fill:#D66142;}
	.st3{fill:#333333;}
	.st4{opacity:0.2;fill:#616161;}
	.st5{fill:#FDD8AB;}
	.st6{fill:#EBEBEB;}
	.st7{fill:#D66F53;}
	.st8{fill:#FFD675;}
</style>
<g>
	<g>
		<g>
			<g>
				<path class="st0" d="M10.02,87.3c-3.49,0.01-6.34-2.78-6.34-6.21L3.5,10.96C3.49,7.51,6.33,4.71,9.83,4.71L56.17,4.8
					c3.49,0.01,6.33,2.81,6.33,6.26v69.97c0,3.42-2.83,6.21-6.3,6.21L10.02,87.3z"/>
				<path class="st1" d="M10.06,87.11c-3.44,0-6.25-2.79-6.25-6.23V10.93c0-3.43,2.8-6.22,6.25-6.22h45.67
					c3.44,0,6.25,2.79,6.25,6.22v69.96c0,3.43-2.8,6.23-6.25,6.23H10.06z"/>
				<g>
					<path class="st2" d="M56.26,85.81H10.59c-2.67,0-4.84-2.16-4.84-4.82V11.03C5.75,8.48,7.78,6.4,8.87,6l0.16-0.06l45.91,0
						c4.54,0.36,6.16,2.86,6.16,5.09v69.96C61.09,83.65,58.92,85.81,56.26,85.81z M9.41,7.85c-0.49,0.31-1.75,1.6-1.75,3.18v69.96
						c0,1.6,1.31,2.91,2.93,2.91h45.67c1.61,0,2.93-1.3,2.93-2.91V11.03c0-1.77-1.63-2.96-4.36-3.18H9.41z"/>
				</g>
				<g>
					<path class="st3" d="M14.72,13.37c0,0.31-0.08,0.66-0.23,1.04c-0.15,0.38-0.34,0.68-0.55,0.9c-0.08,0.08-0.22,0.21-0.42,0.37
						c-0.29,0.24-0.59,0.45-0.9,0.63c-0.09,0.05-0.16,0.09-0.2,0.12c-0.14,0.09-0.21,0.15-0.21,0.19c0,0.07,0.21,0.2,0.64,0.37
						c0.39,0.16,0.68,0.26,0.87,0.3c0.02,0.01,0.07,0.01,0.13,0.01h0.16c0.05,0,0.1,0,0.15,0c0.05,0,0.1,0.01,0.16,0.03
						c-0.04,0.04-0.11,0.08-0.21,0.13c-0.11,0.05-0.21,0.1-0.32,0.15c-0.15,0.13-0.27,0.23-0.35,0.3c-0.08,0.07-0.15,0.1-0.19,0.1
						c-0.14,0-0.37-0.15-0.69-0.46c-0.32-0.31-0.62-0.46-0.91-0.46c-0.18,0-0.36,0.07-0.53,0.2c-0.17,0.14-0.28,0.2-0.31,0.2
						c-0.07,0-0.11-0.05-0.11-0.14c0-0.07,0.1-0.18,0.31-0.33c0.13-0.1,0.27-0.2,0.4-0.3c-0.33-0.19-0.65-0.39-0.95-0.61
						c-0.3-0.21-0.57-0.47-0.81-0.78c-0.21-0.27-0.36-0.56-0.47-0.86C9.06,14.18,9,13.86,9,13.54c0-0.49,0.1-0.9,0.29-1.2
						c0.07-0.11,0.3-0.37,0.69-0.76c0.12-0.12,0.43-0.38,0.91-0.78c0.61-0.49,0.97-0.74,1.09-0.74c0.11,0,0.31,0.11,0.61,0.32
						c0.36,0.25,0.78,0.62,1.26,1.1c0.3,0.3,0.52,0.6,0.66,0.9C14.65,12.66,14.72,13,14.72,13.37z M13.19,14.22
						c0-0.28-0.06-0.58-0.18-0.92c-0.12-0.33-0.28-0.65-0.49-0.95c-0.16-0.24-0.46-0.52-0.9-0.84c-0.14-0.11-0.35-0.25-0.61-0.42
						c-0.1,0-0.23,0.18-0.38,0.54c-0.15,0.36-0.23,0.59-0.23,0.7c0,0.49,0.11,0.95,0.32,1.37c0.17,0.36,0.45,0.72,0.81,1.1
						c0.15,0.16,0.52,0.5,1.1,1.03c0.2-0.19,0.35-0.47,0.45-0.86C13.15,14.7,13.19,14.45,13.19,14.22z"/>
				</g>
				<g>
					<path class="st3" d="M52.36,79.41c0-0.31,0.08-0.66,0.23-1.04c0.15-0.38,0.34-0.68,0.55-0.9c0.08-0.08,0.22-0.21,0.42-0.37
						c0.29-0.24,0.59-0.45,0.9-0.63c0.09-0.05,0.16-0.09,0.2-0.12c0.14-0.09,0.21-0.15,0.21-0.19c0-0.07-0.21-0.2-0.64-0.37
						c-0.39-0.16-0.68-0.26-0.87-0.3c-0.02-0.01-0.07-0.01-0.13-0.01h-0.16c-0.05,0-0.1,0-0.15,0c-0.05,0-0.1-0.01-0.16-0.03
						c0.04-0.04,0.11-0.08,0.21-0.13c0.11-0.05,0.21-0.1,0.32-0.15c0.15-0.13,0.27-0.23,0.35-0.3c0.08-0.07,0.15-0.1,0.19-0.1
						c0.14,0,0.37,0.15,0.69,0.46c0.32,0.31,0.62,0.46,0.91,0.46c0.18,0,0.36-0.07,0.53-0.2c0.17-0.14,0.28-0.2,0.31-0.2
						c0.07,0,0.11,0.05,0.11,0.15c0,0.07-0.1,0.18-0.31,0.33c-0.13,0.1-0.27,0.2-0.4,0.3c0.33,0.19,0.65,0.4,0.95,0.61
						c0.3,0.21,0.57,0.47,0.81,0.78c0.21,0.27,0.36,0.56,0.47,0.86c0.11,0.3,0.16,0.62,0.16,0.95c0,0.49-0.1,0.9-0.29,1.2
						c-0.07,0.11-0.3,0.37-0.69,0.76c-0.12,0.12-0.43,0.38-0.91,0.78c-0.61,0.49-0.97,0.74-1.09,0.74c-0.11,0-0.31-0.11-0.61-0.32
						c-0.36-0.25-0.78-0.62-1.26-1.1c-0.3-0.3-0.52-0.6-0.66-0.9C52.43,80.12,52.36,79.79,52.36,79.41z M53.89,78.56
						c0,0.28,0.06,0.58,0.18,0.92c0.12,0.33,0.28,0.65,0.49,0.95c0.16,0.23,0.46,0.52,0.9,0.84c0.14,0.11,0.35,0.25,0.61,0.42
						c0.1,0,0.23-0.18,0.38-0.54c0.15-0.36,0.23-0.59,0.23-0.7c0-0.49-0.11-0.95-0.32-1.38c-0.17-0.36-0.45-0.72-0.81-1.1
						c-0.15-0.16-0.52-0.5-1.1-1.03c-0.2,0.19-0.35,0.47-0.45,0.86C53.93,78.08,53.89,78.34,53.89,78.56z"/>
				</g>
			</g>
			<g>
				<g>
					<g>
						<g>
							<g>
								<polygon class="st0" points="42.31,28.08 42.22,29.33 42.16,30.09 41.93,33.34 41.88,34.1 41.81,35.14 41.81,35.14 
									41.74,36.1 40.99,36.12 40.64,36.12 39.92,36.14 39.5,36.15 39,36.16 38.12,36.18 37.13,36.2 32.51,36.29 32.5,36.29 
									27.87,36.2 26.89,36.18 26,36.16 25.5,36.15 25.09,36.14 24.72,36.13 24.36,36.12 24.01,36.12 23.27,36.1 23.2,35.14 
									23.2,35.14 23.12,34.1 23.07,33.34 22.84,30.09 22.78,29.33 22.69,28.08 								"/>
								<path class="st4" d="M41.42,28.08l-5.8,4.18h-0.03c-0.5,0.63-1.08,1.12-1.72,1.39c-0.4,0.17-0.83,0.27-1.27,0.27
									c-0.03,0-0.06,0-0.08-0.01c0,0,0,0-0.01,0v-5.83H41.42z"/>
								<g>
									<path class="st5" d="M45.45,40.88l-3.72,1.11l-0.35,0.1l-0.1,0.03c-0.29-0.49-0.53-0.85-0.63-1.01
										c-0.04-0.05-0.06-0.08-0.07-0.09c-0.01,0.01-0.01,0.02-0.02,0.03c-0.01,0.02-0.02,0.03-0.03,0.05
										c-0.3,0.5-0.47,0.97-0.57,1.41l-0.99,0.3l-6.45,1.92l-4.03,1.2l-1.34,0.41c-0.04-0.16-0.1-0.33-0.17-0.51
										c-2.33-1-1.27-2.59-2.4-4.6c-0.01-0.03-0.03-0.05-0.05-0.08c-0.02-0.04-0.05-0.09-0.08-0.13
										c-0.14,0.17-2.77,4.18-3.22,7.09l-0.33,0.1l-2.61,0.78h-0.06c-0.04-5.73,1.7-9.55,3.31-11.86
										c0.11-0.16,0.22-0.31,0.34-0.46c0.11-0.13,0.21-0.27,0.31-0.4l0.01-0.01c0-0.01,0-0.01,0-0.01
										c0.08-0.09,0.16-0.19,0.24-0.27c0.08-0.1,0.15-0.18,0.23-0.27c0.2-0.22,0.38-0.41,0.55-0.57v-0.01h0.01
										c0.04-0.04,0.08-0.08,0.13-0.12c0.04-0.04,0.08-0.08,0.11-0.11c0.04-0.03,0.08-0.07,0.11-0.1c0.07-0.06,0.13-0.12,0.2-0.17
										c0.25-0.22,0.41-0.32,0.41-0.32l0.61,0.15l0.1,0.03l0.24,0.06l0.06,0.01l0.84-0.04l1.3-0.05l1.38-0.06l3.79-0.15h0.01
										l3.87,0.16l1.31,0.05l1.3,0.05l0.84,0.04l0.07-0.01l0.24-0.06l0.11-0.03l0.6-0.15c0,0,0.16,0.1,0.41,0.32
										c0.06,0.05,0.13,0.11,0.2,0.17c0.03,0.03,0.07,0.07,0.11,0.1c0.04,0.03,0.08,0.07,0.11,0.11c0.04,0.04,0.08,0.08,0.13,0.12
										l0.01,0.01c0.04,0.03,0.08,0.08,0.12,0.12c0.04,0.04,0.1,0.09,0.14,0.14c0.09,0.1,0.19,0.2,0.29,0.31
										c0.07,0.07,0.13,0.14,0.2,0.22c0.01,0.02,0.02,0.03,0.03,0.05c0.08,0.08,0.16,0.18,0.24,0.27c0,0,0.01,0.01,0.01,0.01v0.01
										c0.1,0.12,0.2,0.26,0.32,0.4c0.11,0.15,0.22,0.3,0.33,0.46C44.16,38.11,44.86,39.35,45.45,40.88z"/>
									<path class="st4" d="M32.5,38.45h0.85l-0.38,3.07c-0.15,0.01-0.31,0.01-0.47,0.02V38.45z"/>
								</g>
								<g>
									<g>
										<path class="st4" d="M32.5,28.08h-8.92l5.8,4.17h0.03c0,0,1.85,1.66,3,1.66c0.03,0,0.06-0.01,0.09-0.01V28.08z"/>
										<path class="st4" d="M32.5,38.45h-0.85l0.38,3.07c0.16,0.01,0.31,0.01,0.47,0.02V38.45z"/>
									</g>
									<path class="st4" d="M29.4,41.03c-4.31-0.95-6.66-2.41-7.88-3.9c0.89-1.28,1.75-2.09,2.23-2.5L29.4,41.03z"/>
									<path class="st5" d="M40.3,35.72c0,1.08-0.41,2.1-1.12,2.98c-0.59,0.73-1.4,1.36-2.36,1.84c-0.01,0.01-0.01,0.01-0.03,0.01
										c-0.38,0.18-0.77,0.34-1.19,0.48c-0.82,0.27-1.7,0.44-2.63,0.49c-0.05,0-0.1,0.01-0.15,0.01c-0.1,0.01-0.2,0.01-0.31,0.01
										c-0.01,0-0.01,0-0.01,0c-0.1,0-0.21,0-0.31-0.01c-0.05,0-0.1-0.01-0.15-0.01c-0.93-0.05-1.82-0.22-2.63-0.49
										c-0.41-0.13-0.82-0.3-1.19-0.48c-0.01-0.01-0.01-0.01-0.03-0.01c-0.96-0.48-1.77-1.11-2.36-1.84
										c-0.72-0.87-1.13-1.89-1.13-2.98c0-0.8-0.17-0.87,0.23-1.57l2.29-0.03l3.93-0.05v-0.81c0.41,0.18,0.83,0.27,1.27,0.27
										c0.03,0,0.06-0.01,0.08-0.01c0,0,0,0,0.01,0c0.03,0,0.06,0.01,0.09,0.01c0.44,0,0.87-0.1,1.27-0.27v0.81l3.93,0.05
										l2.29,0.03C40.48,34.86,40.3,34.92,40.3,35.72z"/>
									<path class="st4" d="M40.07,34.15l-2.29-0.03l-1.09,3.45c-0.27-0.05-0.55-0.07-0.83-0.08c-1.64-0.03-3.32,1.41-3.32,1.41
										s-1.78-1.43-3.38-1.43c-0.3,0-0.59,0.03-0.87,0.08l-1.08-3.42l-2.29,0.03c-0.4,0.7-0.22,0.77-0.22,1.57
										c0,1.09,0.42,2.1,1.13,2.97c0,0,0,0-0.01,0c0.05,0.06,0.11,0.12,0.16,0.18c0.08,0.09,0.16,0.19,0.25,0.28
										c0.11,0.11,0.22,0.21,0.34,0.31c0.08,0.07,0.15,0.13,0.23,0.2c0.15,0.12,0.31,0.23,0.48,0.34
										c0.06,0.04,0.11,0.08,0.17,0.12c0.23,0.15,0.48,0.29,0.73,0.41c0.01,0.01,0.01,0.01,0.03,0.01
										c0.38,0.18,0.78,0.34,1.19,0.48c0.82,0.27,1.7,0.44,2.63,0.49c0.05,0,0.1,0.01,0.15,0.01c0.1,0.01,0.21,0.01,0.31,0.01
										c0,0,0,0,0.01,0c0.11,0,0.21,0,0.31-0.01c0.05,0,0.1-0.01,0.15-0.01c0.93-0.05,1.82-0.22,2.63-0.49
										c0.42-0.13,0.82-0.3,1.19-0.48c0.01-0.01,0.02-0.01,0.03-0.01c0.26-0.13,0.5-0.27,0.74-0.42c0.05-0.03,0.09-0.06,0.13-0.09
										c0.18-0.12,0.35-0.24,0.51-0.37c0.08-0.06,0.15-0.13,0.23-0.2c0.11-0.1,0.23-0.2,0.33-0.3c0.1-0.1,0.18-0.2,0.27-0.3
										c0.05-0.06,0.1-0.11,0.15-0.16c0,0,0,0-0.01,0c0.71-0.87,1.13-1.88,1.13-2.97C40.3,34.92,40.47,34.85,40.07,34.15z"/>
									<path class="st5" d="M33.86,32.71v0.55c-0.4,0.18-0.83,0.27-1.27,0.27c-0.03,0-0.06-0.01-0.09-0.01
										c-0.03,0-0.06,0.01-0.09,0.01c-0.44,0-0.87-0.1-1.27-0.27v-0.55c0-0.11,0.02-0.21,0.04-0.31c0.02-0.07,0.04-0.14,0.07-0.2
										c0.2-0.47,0.67-0.8,1.21-0.8c0.01,0,0.03,0.01,0.04,0.01c0.01,0,0.03-0.01,0.04-0.01c0.5,0,0.94,0.28,1.16,0.69
										c0.05,0.1,0.1,0.2,0.12,0.31C33.85,32.5,33.86,32.61,33.86,32.71z"/>
								</g>
								<path class="st4" d="M33.86,32.71v0.55c-0.4,0.18-0.83,0.27-1.27,0.27c-0.03,0-0.06-0.01-0.09-0.01
									c-0.03,0-0.06,0.01-0.09,0.01c-0.44,0-0.87-0.1-1.27-0.27v-0.55c0-0.11,0.02-0.21,0.04-0.31c0.02-0.07,0.04-0.14,0.07-0.2
									c0.51,0.25,0.98,0.45,1.17,0.45c0.03,0,0.06-0.01,0.08-0.01c0,0,0,0,0.01,0c0.03,0,0.06,0.01,0.09,0.01
									c0.17,0,0.62-0.25,1.11-0.56c0.05,0.1,0.1,0.2,0.12,0.31C33.85,32.5,33.86,32.61,33.86,32.71z"/>
								<path class="st4" d="M43.48,37.13c-1.23,1.49-3.57,2.94-7.88,3.9l2.34-2.65l0.14-0.16l1.83-2.08l0.39-0.44l0.94-1.07
									c0.06,0.05,0.13,0.11,0.2,0.17c0.03,0.03,0.07,0.07,0.11,0.1c0.04,0.03,0.08,0.07,0.12,0.11c0.04,0.04,0.08,0.08,0.13,0.12
									h0v0c0.04,0.03,0.08,0.08,0.12,0.12c0.05,0.05,0.09,0.09,0.14,0.14c0.09,0.1,0.19,0.2,0.29,0.31
									c0.07,0.07,0.13,0.14,0.19,0.22c0.01,0.01,0.03,0.03,0.04,0.04c0.08,0.09,0.15,0.18,0.23,0.28c0,0,0,0,0,0.01h0.01v0
									c0.1,0.13,0.2,0.26,0.31,0.4C43.26,36.82,43.37,36.97,43.48,37.13z"/>
								<path class="st6" d="M44.04,32.68c0,0.27-0.01,0.54-0.06,0.82c-0.12,0.89-0.46,1.83-1.14,2.78v0
									c-0.65,0.9-1.61,1.81-2.97,2.68c-0.08,0.05-0.17,0.11-0.26,0.16c-0.79,0.49-1.72,0.97-2.79,1.42
									c-0.02,0.01-0.05,0.02-0.07,0.03c-0.02,0.01-0.04,0.02-0.05,0.02c-0.07,0.02-0.13,0.05-0.19,0.08
									c-0.19,0.08-0.39,0.16-0.59,0.24c-0.1,0.04-0.2,0.08-0.31,0.12l2.51-4.86l0.86-1.65l0.19-0.38l3.14-6.06
									C42.31,28.08,44.04,30.06,44.04,32.68z"/>
								<path class="st6" d="M29.4,41.03c-1.61-0.6-2.93-1.25-4.01-1.91c-0.09-0.05-0.17-0.11-0.26-0.16
									c-2.79-1.79-3.87-3.73-4.11-5.46c-0.04-0.28-0.06-0.55-0.06-0.81c0-2.62,1.73-4.59,1.73-4.59L29.4,41.03z"/>
								<g>
									<polygon class="st3" points="23.76,35.78 24.57,36.86 24.2,35.56 									"/>
									<polygon class="st3" points="26.56,38.4 27.37,39.47 27,38.18 									"/>
									<polygon class="st3" points="22.29,29.36 23.09,30.43 22.73,29.14 									"/>
									<polygon class="st3" points="23.35,31.62 24.16,32.69 23.8,31.4 									"/>
									<polygon class="st3" points="24.42,33.88 25.23,34.95 24.86,33.66 									"/>
									<polygon class="st3" points="25.49,36.14 26.3,37.21 25.93,35.92 									"/>
									<path class="st3" d="M25.39,39.12c-0.09-0.05-0.17-0.11-0.26-0.16l-0.47-0.63l0.44-0.22L25.39,39.12z"/>
									<polygon class="st3" points="21.62,31.26 22.43,32.34 22.06,31.04 									"/>
									<polygon class="st3" points="22.69,33.52 23.5,34.6 23.13,33.3 									"/>
									<path class="st3" d="M21.37,33.95l-0.35-0.46c-0.04-0.28-0.06-0.55-0.06-0.81L21,32.66L21.37,33.95z"/>
									<polygon class="st3" points="22.1,35.56 22.91,36.63 22.54,35.34 									"/>
								</g>
								<g>
									<polygon class="st3" points="41.24,35.78 40.43,36.86 40.8,35.56 									"/>
									<polygon class="st3" points="38.44,38.4 37.63,39.47 38,38.18 									"/>
									<polygon class="st3" points="42.72,29.36 41.91,30.43 42.27,29.14 									"/>
									<polygon class="st3" points="41.65,31.62 40.84,32.69 41.21,31.4 									"/>
									<polygon class="st3" points="40.58,33.88 39.77,34.95 40.14,33.66 									"/>
									<polygon class="st3" points="39.51,36.14 38.7,37.21 39.07,35.92 									"/>
									<path class="st3" d="M39.61,39.12c0.09-0.05,0.17-0.11,0.26-0.16l0.47-0.63l-0.44-0.22L39.61,39.12z"/>
									<polygon class="st3" points="43.38,31.26 42.57,32.34 42.94,31.04 									"/>
									<polygon class="st3" points="42.31,33.52 41.5,34.6 41.87,33.3 									"/>
									<path class="st3" d="M44.04,32.68c0,0.27-0.01,0.54-0.06,0.82l-0.35,0.46L44,32.66L44.04,32.68z"/>
									<polygon class="st3" points="42.91,35.56 42.1,36.63 42.46,35.34 									"/>
								</g>
							</g>
							<g>
								<path class="st2" d="M40.52,41.11c-0.3,0.5-0.47,0.97-0.57,1.41l-0.99,0.3l-6.45,1.92l-4.03,1.2l-1.34,0.41
									c-0.04-0.16-0.1-0.33-0.17-0.51c-2.33-1-1.27-2.59-2.4-4.6c-0.01-0.03-0.03-0.05-0.05-0.08c0.39-0.82,0.98-1.51,1.72-2.01
									c0.83-0.59,1.85-0.93,2.94-0.93c1.59,0,3.38,1.43,3.38,1.43s1.68-1.43,3.32-1.41c1.06,0.01,2.08,0.34,2.91,0.9
									C39.53,39.64,40.13,40.32,40.52,41.11z"/>
								<path class="st2" d="M43.55,18.53C43.26,23.89,32.5,32.04,32.5,32.04s-11.06-8.21-11.06-13.59c0-3.69,3.02-6.67,6.71-6.67
									c2.07,0,4.39,1.87,4.39,1.87s2.19-1.87,4.33-1.83C40.57,11.86,43.75,14.83,43.55,18.53z"/>
								<g>
									<path class="st4" d="M28.48,45.95l-1.35,0.4c-0.05-0.16-0.1-0.33-0.17-0.51c-2.41-1.03-1.19-2.7-2.53-4.81
										c-0.15,0.17-2.77,4.18-3.22,7.08l-0.32,0.1c-0.69-3.03,4.3-8.32,4.3-8.32S26.82,45.18,28.48,45.95z"/>
									<path class="st4" d="M41.72,41.99l-0.35,0.11l-0.11,0.03c-0.29-0.49-0.52-0.85-0.63-1.01c-0.04-0.05-0.06-0.08-0.07-0.09
										c-0.33,0.53-0.51,1.03-0.62,1.49l-0.99,0.3c0.74-1.39,0.81-3.09,0.81-3.09S40.92,40.88,41.72,41.99z"/>
								</g>
								<path class="st5" d="M34.1,19.24c-1.25,0-1.21,0.55-1.51,1.15c-0.3-0.61-0.44-1.15-1.69-1.15c-1.24,0-2.98,3.52-2.98,6.48
									c0,2.1,0.62,3.98,1.61,5.25c0,0.01,0.01,0.02,0.01,0.02c0,0,0,0,0,0l0,0c0.51,0.65,1.11,1.13,1.77,1.41
									c0.38,0.15,0.77,0.24,1.18,0.25v0c0,0,0,0,0,0c0,0,0,0,0,0v0c0.41-0.01,0.8-0.09,1.18-0.25c0.66-0.27,1.26-0.76,1.77-1.41
									l0,0c0,0,0,0,0,0c0.01-0.01,0.01-0.01,0.01-0.02c0.99-1.27,1.61-3.15,1.61-5.25C37.08,22.76,35.61,19.37,34.1,19.24z"/>
								<g>
									<g>
										<path class="st3" d="M29.08,25.32c-0.02,0.05-0.03,0.1-0.03,0.16c0,0.35,0.44,0.64,0.98,0.64c0.54,0,0.98-0.29,0.98-0.64
											c0-0.06-0.01-0.11-0.03-0.16H29.08z"/>
									</g>
									<g>
										<path class="st3" d="M35.93,25.32c0.02,0.05,0.03,0.1,0.03,0.16c0,0.35-0.44,0.64-0.98,0.64c-0.54,0-0.98-0.29-0.98-0.64
											c0-0.06,0.01-0.11,0.03-0.16H35.93z"/>
									</g>
									<g>
										<path class="st7" d="M33.77,30.12H32.5H32.5h-1.27c0.25,0.34,0.73,0.57,1.27,0.57v0c0,0,0,0,0,0c0,0,0,0,0,0v0
											C33.05,30.69,33.52,30.46,33.77,30.12z"/>
										<path class="st2" d="M32.5,30.05c-0.58-0.68-1.4,0.18-1.4,0.18h1.4h0.01h1.4C33.9,30.23,33.08,29.37,32.5,30.05z"/>
									</g>
									<path class="st4" d="M32.5,26.4v-0.02l0,0.01l0-0.01L32.5,26.4l-0.74,2.34c0,0,0.27,0.23,0.7,0.23s0.77-0.23,0.77-0.23
										L32.5,26.4z"/>
									<polygon class="st2" points="33.9,23.92 35.84,24.02 35.87,24.02 35.88,24.04 36.65,24.88 35.8,24.12 35.84,24.14 
										33.9,24.24 									"/>
									<polygon class="st2" points="31.27,24.24 29.33,24.14 29.37,24.12 28.52,24.88 29.29,24.04 29.3,24.02 29.33,24.02 
										31.27,23.92 									"/>
								</g>
							</g>
							<g>
								<path class="st2" d="M40.52,41.11c-0.3,0.5-0.47,0.97-0.57,1.41l-0.99,0.3l-6.45,1.92l-4.03,1.2l-1.34,0.41
									c-0.04-0.16-0.1-0.33-0.17-0.51c-2.33-1-1.27-2.59-2.4-4.6c-0.01-0.03-0.03-0.05-0.05-0.08c0.39-0.82,0.98-1.51,1.72-2.01
									c0.83-0.59,1.85-0.93,2.94-0.93c1.59,0,3.38,1.43,3.38,1.43s1.68-1.43,3.32-1.41c1.06,0.01,2.08,0.34,2.91,0.9
									C39.53,39.64,40.13,40.32,40.52,41.11z"/>
								<path class="st2" d="M43.55,18.53C43.26,23.89,32.5,32.04,32.5,32.04s-11.06-8.21-11.06-13.59c0-3.69,3.02-6.67,6.71-6.67
									c2.07,0,4.39,1.87,4.39,1.87s2.19-1.87,4.33-1.83C40.57,11.86,43.75,14.83,43.55,18.53z"/>
								<g>
									<path class="st4" d="M28.48,45.95l-1.35,0.4c-0.05-0.16-0.1-0.33-0.17-0.51c-2.41-1.03-1.19-2.7-2.53-4.81
										c-0.15,0.17-2.77,4.18-3.22,7.08l-0.32,0.1c-0.69-3.03,4.3-8.32,4.3-8.32S26.82,45.18,28.48,45.95z"/>
									<path class="st4" d="M41.72,41.99l-0.35,0.11l-0.11,0.03c-0.29-0.49-0.52-0.85-0.63-1.01c-0.04-0.05-0.06-0.08-0.07-0.09
										c-0.33,0.53-0.51,1.03-0.62,1.49l-0.99,0.3c0.74-1.39,0.81-3.09,0.81-3.09S40.92,40.88,41.72,41.99z"/>
								</g>
								<path class="st5" d="M34.1,19.24c-1.25,0-1.21,0.55-1.51,1.15c-0.3-0.61-0.44-1.15-1.69-1.15c-1.24,0-2.98,3.52-2.98,6.48
									c0,2.1,0.62,3.98,1.61,5.25c0,0.01,0.01,0.02,0.01,0.02c0,0,0,0,0,0l0,0c0.51,0.65,1.11,1.13,1.77,1.41
									c0.38,0.15,0.77,0.24,1.18,0.25v0c0,0,0,0,0,0c0,0,0,0,0,0v0c0.41-0.01,0.8-0.09,1.18-0.25c0.66-0.27,1.26-0.76,1.77-1.41
									l0,0c0,0,0,0,0,0c0.01-0.01,0.01-0.01,0.01-0.02c0.99-1.27,1.61-3.15,1.61-5.25C37.08,22.76,35.61,19.37,34.1,19.24z"/>
								<g>
									<g>
										<path class="st3" d="M29.08,25.32c-0.02,0.05-0.03,0.1-0.03,0.16c0,0.35,0.44,0.64,0.98,0.64c0.54,0,0.98-0.29,0.98-0.64
											c0-0.06-0.01-0.11-0.03-0.16H29.08z"/>
									</g>
									<g>
										<path class="st3" d="M35.93,25.32c0.02,0.05,0.03,0.1,0.03,0.16c0,0.35-0.44,0.64-0.98,0.64c-0.54,0-0.98-0.29-0.98-0.64
											c0-0.06,0.01-0.11,0.03-0.16H35.93z"/>
									</g>
									<g>
										<path class="st7" d="M33.77,30.12H32.5H32.5h-1.27c0.25,0.34,0.73,0.57,1.27,0.57v0c0,0,0,0,0,0c0,0,0,0,0,0v0
											C33.05,30.69,33.52,30.46,33.77,30.12z"/>
										<path class="st2" d="M32.5,30.05c-0.58-0.68-1.4,0.18-1.4,0.18h1.4h0.01h1.4C33.9,30.23,33.08,29.37,32.5,30.05z"/>
									</g>
									<path class="st4" d="M32.5,26.4v-0.02l0,0.01l0-0.01L32.5,26.4l-0.74,2.34c0,0,0.27,0.23,0.7,0.23s0.77-0.23,0.77-0.23
										L32.5,26.4z"/>
									<polygon class="st2" points="33.9,23.92 35.84,24.02 35.87,24.02 35.88,24.04 36.65,24.88 35.8,24.12 35.84,24.14 
										33.9,24.24 									"/>
									<polygon class="st2" points="31.27,24.24 29.33,24.14 29.37,24.12 28.52,24.88 29.29,24.04 29.3,24.02 29.33,24.02 
										31.27,23.92 									"/>
								</g>
							</g>
						</g>
						<path class="st4" d="M33.84,19.28c0.08-0.02,0.17-0.04,0.26-0.04C34.01,19.25,33.93,19.26,33.84,19.28z"/>
						<path class="st4" d="M33.15,19.59c0.01-0.01,0.02-0.01,0.03-0.02C33.17,19.58,33.16,19.59,33.15,19.59z"/>
						<path class="st4" d="M33.37,19.46c0.02-0.01,0.03-0.01,0.05-0.02C33.4,19.45,33.38,19.45,33.37,19.46z"/>
						<path class="st4" d="M33.6,19.36c0.03-0.01,0.06-0.02,0.08-0.03C33.65,19.34,33.62,19.35,33.6,19.36z"/>
						<g>
							<path class="st4" d="M35.6,15.61c0.08,1.48-3.09,3.85-3.09,3.85s-3.17-2.3-2.99-3.97c0.11-1.04,1.03-1.82,2.01-1.82
								c0.54,0,1.13,0.46,1.13,0.46s0.54-0.46,1.07-0.45C34.62,13.69,35.55,14.67,35.6,15.61z"/>
							<path class="st8" d="M35.37,15.74c-0.07,1.35-2.78,3.4-2.78,3.4s-2.78-2.07-2.78-3.42c0-0.93,0.76-1.68,1.69-1.68
								c0.52,0,1.11,0.47,1.11,0.47s0.55-0.47,1.09-0.46C34.62,14.06,35.42,14.81,35.37,15.74z"/>
							<path class="st4" d="M32.59,18.16c-1.04-0.86-2.01-1.94-2.01-2.45c0-0.5,0.42-0.91,0.93-0.91c0.15,0,0.48,0.18,0.63,0.3
								l0.49,0.4l0.48-0.41c0.14-0.11,0.42-0.28,0.58-0.28c0.27,0,0.53,0.12,0.71,0.31c0.11,0.12,0.23,0.31,0.22,0.58
								C34.58,16.21,33.61,17.31,32.59,18.16z"/>
						</g>
						<path class="st4" d="M43.48,37.13c-0.11-0.16-0.22-0.31-0.33-0.46c-0.04-0.05-0.07-0.09-0.11-0.14
							c-0.07-0.09-0.14-0.18-0.2-0.26v0c0.68-0.95,1.02-1.89,1.14-2.78c0.05-0.28,0.06-0.55,0.06-0.82c0-2.62-1.73-4.6-1.73-4.6
							h-5.2c2.96-2.82,6.28-6.6,6.44-9.55c0.2-3.7-2.97-6.67-6.68-6.72c-2.13-0.03-4.33,1.83-4.33,1.83s-0.01-0.01-0.02-0.01v31.1
							l6.43-1.92l0.8-0.24l0.2-0.06v0h0c0-0.02,0.01-0.03,0.01-0.05c0.11-0.45,0.29-0.93,0.61-1.44c0,0,0.01,0.01,0.01,0.01
							c0.01,0.01,0.03,0.03,0.06,0.08c0.11,0.16,0.34,0.52,0.63,1.01l0,0l0.01,0l0.1-0.03l0.15-0.04l0.2-0.06l3.72-1.11
							C44.86,39.35,44.16,38.11,43.48,37.13z"/>
					</g>
				</g>
				<g>
					<g>
						<g>
							<g>
								<polygon class="st0" points="21.34,64.9 21.43,63.65 21.49,62.89 21.72,59.64 21.78,58.88 21.85,57.84 21.85,57.83 
									21.92,56.88 22.66,56.86 23.01,56.85 23.74,56.84 24.15,56.83 24.65,56.82 25.54,56.8 26.52,56.78 31.15,56.68 31.16,56.68 
									35.78,56.78 36.77,56.8 37.66,56.82 38.16,56.83 38.57,56.84 38.93,56.85 39.3,56.85 39.65,56.86 40.39,56.88 40.46,57.83 
									40.46,57.84 40.53,58.88 40.59,59.64 40.82,62.89 40.88,63.65 40.96,64.9 								"/>
								<path class="st4" d="M22.24,64.9l5.8-4.18h0.03c0.5-0.63,1.08-1.12,1.72-1.39c0.4-0.17,0.83-0.27,1.27-0.27
									c0.03,0,0.06,0,0.08,0.01c0,0,0,0,0.01,0v5.83H22.24z"/>
								<g>
									<path class="st5" d="M18.21,52.09l3.72-1.11l0.35-0.1l0.1-0.03c0.29,0.49,0.53,0.85,0.63,1.01
										c0.04,0.05,0.06,0.08,0.07,0.09c0.01-0.01,0.01-0.02,0.02-0.03c0.01-0.02,0.02-0.03,0.03-0.05c0.3-0.5,0.47-0.97,0.57-1.41
										l0.99-0.3l6.46-1.92l4.03-1.2l1.34-0.41c0.04,0.16,0.1,0.33,0.17,0.51c2.33,1,1.27,2.59,2.4,4.6
										c0.01,0.03,0.03,0.05,0.05,0.08c0.02,0.04,0.05,0.09,0.08,0.13c0.14-0.17,2.77-4.18,3.22-7.09l0.33-0.1l2.61-0.78h0.06
										c0.04,5.73-1.7,9.55-3.31,11.86c-0.11,0.16-0.22,0.31-0.34,0.46c-0.11,0.13-0.21,0.27-0.31,0.4l-0.01,0.01
										c0,0.01,0,0.01,0,0.01c-0.08,0.09-0.16,0.19-0.24,0.27c-0.08,0.1-0.15,0.18-0.23,0.27c-0.2,0.22-0.38,0.41-0.55,0.57v0.01
										h-0.01c-0.04,0.04-0.08,0.08-0.13,0.12c-0.04,0.04-0.08,0.08-0.11,0.11c-0.04,0.03-0.08,0.07-0.11,0.1
										c-0.07,0.06-0.13,0.12-0.2,0.17c-0.25,0.22-0.41,0.32-0.41,0.32l-0.61-0.15l-0.1-0.03l-0.24-0.06l-0.06-0.01l-0.84,0.04
										l-1.3,0.05l-1.38,0.06l-3.79,0.15h-0.01l-3.87-0.16l-1.31-0.05l-1.3-0.05l-0.84-0.04l-0.07,0.01l-0.24,0.06l-0.11,0.03
										l-0.6,0.15c0,0-0.16-0.1-0.41-0.32c-0.06-0.05-0.13-0.11-0.2-0.17c-0.03-0.03-0.07-0.07-0.11-0.1
										c-0.04-0.03-0.08-0.07-0.11-0.11c-0.04-0.04-0.08-0.08-0.13-0.12l-0.01-0.01c-0.04-0.03-0.08-0.08-0.12-0.12
										c-0.04-0.04-0.1-0.09-0.14-0.14c-0.09-0.1-0.19-0.2-0.29-0.31c-0.07-0.07-0.13-0.14-0.2-0.22
										c-0.01-0.02-0.02-0.03-0.03-0.05c-0.08-0.08-0.16-0.18-0.24-0.27c0,0-0.01-0.01-0.01-0.01V56.7
										c-0.1-0.12-0.2-0.26-0.32-0.4c-0.11-0.15-0.22-0.3-0.33-0.46C19.5,54.87,18.8,53.63,18.21,52.09z"/>
									<path class="st4" d="M31.16,54.52h-0.85l0.38-3.07c0.15-0.01,0.31-0.01,0.47-0.02V54.52z"/>
								</g>
								<g>
									<g>
										<path class="st4" d="M31.15,64.89h8.92l-5.8-4.17h-0.03c0,0-1.85-1.66-3-1.66c-0.03,0-0.06,0.01-0.09,0.01V64.89z"/>
										<path class="st4" d="M31.15,54.52H32l-0.38-3.07c-0.16-0.01-0.31-0.01-0.47-0.02V54.52z"/>
									</g>
									<path class="st4" d="M34.25,51.95c4.31,0.95,6.66,2.41,7.88,3.9c-0.89,1.28-1.75,2.09-2.23,2.5L34.25,51.95z"/>
									<path class="st5" d="M23.35,57.25c0-1.08,0.41-2.1,1.12-2.98c0.59-0.73,1.4-1.36,2.36-1.84c0.01-0.01,0.01-0.01,0.03-0.01
										c0.38-0.18,0.77-0.34,1.19-0.48c0.82-0.27,1.7-0.44,2.63-0.49c0.05,0,0.1-0.01,0.15-0.01c0.1-0.01,0.2-0.01,0.31-0.01
										c0.01,0,0.01,0,0.01,0c0.1,0,0.21,0,0.31,0.01c0.05,0,0.1,0.01,0.15,0.01c0.93,0.05,1.82,0.22,2.63,0.49
										c0.41,0.13,0.82,0.3,1.19,0.48c0.01,0.01,0.01,0.01,0.03,0.01c0.96,0.48,1.77,1.11,2.36,1.84
										c0.72,0.87,1.13,1.89,1.13,2.98c0,0.8,0.17,0.87-0.23,1.57l-2.29,0.03l-3.93,0.05v0.81c-0.41-0.18-0.83-0.27-1.27-0.27
										c-0.03,0-0.06,0.01-0.08,0.01c0,0,0,0-0.01,0c-0.03,0-0.06-0.01-0.09-0.01c-0.44,0-0.87,0.1-1.27,0.27V58.9l-3.93-0.05
										l-2.29-0.03C23.17,58.12,23.35,58.06,23.35,57.25z"/>
									<path class="st4" d="M23.58,58.82l2.29,0.03l1.09-3.45c0.27,0.05,0.55,0.07,0.83,0.08c1.64,0.03,3.32-1.41,3.32-1.41
										s1.78,1.43,3.38,1.43c0.3,0,0.59-0.03,0.87-0.08l1.08,3.42l2.29-0.03c0.4-0.7,0.22-0.77,0.22-1.57
										c0-1.09-0.42-2.1-1.13-2.97c0,0,0,0,0.01,0c-0.05-0.06-0.11-0.12-0.16-0.18c-0.08-0.09-0.16-0.19-0.25-0.28
										c-0.11-0.11-0.22-0.21-0.34-0.31c-0.08-0.07-0.15-0.13-0.23-0.2c-0.15-0.12-0.31-0.23-0.48-0.34
										c-0.06-0.04-0.11-0.08-0.17-0.12c-0.23-0.15-0.48-0.29-0.73-0.41c-0.01-0.01-0.01-0.01-0.03-0.01
										c-0.38-0.18-0.78-0.34-1.19-0.48c-0.82-0.27-1.7-0.44-2.63-0.49c-0.05,0-0.1-0.01-0.15-0.01c-0.1-0.01-0.21-0.01-0.31-0.01
										c0,0,0,0-0.01,0c-0.11,0-0.21,0-0.31,0.01c-0.05,0-0.1,0.01-0.15,0.01c-0.93,0.05-1.82,0.22-2.63,0.49
										c-0.42,0.13-0.82,0.3-1.19,0.48c-0.01,0.01-0.02,0.01-0.03,0.01c-0.26,0.13-0.5,0.27-0.74,0.42
										c-0.05,0.03-0.09,0.06-0.13,0.09c-0.18,0.12-0.35,0.24-0.51,0.37c-0.08,0.06-0.15,0.13-0.23,0.2
										c-0.11,0.1-0.23,0.2-0.33,0.3c-0.1,0.1-0.18,0.2-0.27,0.3c-0.05,0.06-0.1,0.11-0.15,0.16c0,0,0,0,0.01,0.01
										c-0.71,0.87-1.13,1.88-1.13,2.97C23.36,58.06,23.18,58.12,23.58,58.82z"/>
									<path class="st5" d="M29.79,60.26v-0.55c0.4-0.18,0.83-0.27,1.27-0.27c0.03,0,0.06,0.01,0.09,0.01
										c0.03,0,0.06-0.01,0.09-0.01c0.44,0,0.87,0.1,1.27,0.27v0.55c0,0.11-0.02,0.21-0.04,0.31c-0.02,0.07-0.04,0.14-0.07,0.2
										c-0.2,0.47-0.67,0.8-1.21,0.8c-0.01,0-0.03-0.01-0.04-0.01c-0.01,0-0.03,0.01-0.04,0.01c-0.5,0-0.94-0.28-1.16-0.69
										c-0.05-0.1-0.1-0.2-0.12-0.31C29.81,60.47,29.79,60.37,29.79,60.26z"/>
								</g>
								<path class="st4" d="M29.79,60.26v-0.55c0.4-0.18,0.83-0.27,1.27-0.27c0.03,0,0.06,0.01,0.09,0.01
									c0.03,0,0.06-0.01,0.09-0.01c0.44,0,0.87,0.1,1.27,0.27v0.55c0,0.11-0.02,0.21-0.04,0.31c-0.02,0.07-0.04,0.14-0.07,0.2
									c-0.51-0.25-0.98-0.45-1.17-0.45c-0.03,0-0.06,0.01-0.08,0.01c0,0,0,0-0.01,0c-0.03,0-0.06-0.01-0.09-0.01
									c-0.17,0-0.62,0.25-1.11,0.56c-0.05-0.1-0.1-0.2-0.12-0.31C29.81,60.47,29.79,60.37,29.79,60.26z"/>
								<path class="st4" d="M20.17,55.84c1.23-1.49,3.57-2.94,7.88-3.9l-2.34,2.65l-0.14,0.16l-1.83,2.08l-0.39,0.44l-0.94,1.07
									c-0.06-0.05-0.13-0.11-0.2-0.17c-0.03-0.03-0.07-0.07-0.11-0.1c-0.04-0.03-0.08-0.07-0.12-0.11
									c-0.04-0.04-0.08-0.08-0.13-0.12h0v0c-0.04-0.03-0.08-0.08-0.12-0.12c-0.05-0.05-0.09-0.09-0.14-0.14
									c-0.09-0.1-0.19-0.2-0.29-0.31c-0.07-0.07-0.13-0.14-0.19-0.22c-0.01-0.01-0.03-0.03-0.04-0.04
									c-0.08-0.09-0.15-0.18-0.23-0.28c0,0,0,0,0-0.01h0v0c-0.1-0.13-0.2-0.26-0.31-0.4C20.39,56.16,20.28,56,20.17,55.84z"/>
								<path class="st6" d="M19.62,60.3c0-0.27,0.01-0.54,0.06-0.82c0.12-0.89,0.46-1.83,1.14-2.78v0c0.65-0.9,1.61-1.81,2.97-2.68
									c0.08-0.05,0.17-0.11,0.26-0.16c0.79-0.49,1.72-0.97,2.79-1.42c0.02-0.01,0.05-0.02,0.07-0.03
									c0.02-0.01,0.04-0.02,0.05-0.02c0.07-0.02,0.13-0.05,0.19-0.08c0.19-0.08,0.39-0.16,0.59-0.24c0.1-0.04,0.2-0.08,0.31-0.12
									l-2.51,4.86l-0.86,1.65l-0.19,0.38l-3.14,6.06C21.34,64.9,19.62,62.92,19.62,60.3z"/>
								<path class="st6" d="M34.25,51.95c1.61,0.6,2.93,1.25,4.01,1.91c0.09,0.05,0.17,0.11,0.26,0.16
									c2.79,1.79,3.87,3.73,4.11,5.46c0.04,0.28,0.06,0.55,0.06,0.81c0,2.62-1.73,4.59-1.73,4.59L34.25,51.95z"/>
								<g>
									<polygon class="st3" points="39.9,57.19 39.09,56.12 39.45,57.41 									"/>
									<polygon class="st3" points="37.1,54.58 36.29,53.5 36.65,54.8 									"/>
									<polygon class="st3" points="41.37,63.62 40.56,62.54 40.93,63.84 									"/>
									<polygon class="st3" points="40.3,61.36 39.49,60.28 39.86,61.58 									"/>
									<polygon class="st3" points="39.23,59.1 38.42,58.02 38.79,59.32 									"/>
									<polygon class="st3" points="38.16,56.84 37.35,55.76 37.72,57.06 									"/>
									<path class="st3" d="M38.26,53.86c0.09,0.05,0.17,0.11,0.26,0.16l0.47,0.63l-0.44,0.22L38.26,53.86z"/>
									<polygon class="st3" points="42.03,61.71 41.22,60.64 41.59,61.93 									"/>
									<polygon class="st3" points="40.96,59.45 40.16,58.38 40.52,59.67 									"/>
									<path class="st3" d="M42.29,59.02l0.35,0.46c0.04,0.28,0.06,0.55,0.06,0.81l-0.04,0.02L42.29,59.02z"/>
									<polygon class="st3" points="41.56,57.42 40.75,56.35 41.12,57.64 									"/>
								</g>
								<g>
									<polygon class="st3" points="22.41,57.19 23.22,56.12 22.85,57.41 									"/>
									<polygon class="st3" points="25.21,54.58 26.02,53.5 25.66,54.8 									"/>
									<polygon class="st3" points="20.94,63.62 21.75,62.54 21.38,63.84 									"/>
									<polygon class="st3" points="22.01,61.36 22.82,60.28 22.45,61.58 									"/>
									<polygon class="st3" points="23.07,59.1 23.88,58.02 23.52,59.32 									"/>
									<polygon class="st3" points="24.14,56.84 24.95,55.76 24.59,57.06 									"/>
									<path class="st3" d="M24.04,53.86c-0.09,0.05-0.17,0.11-0.26,0.16l-0.47,0.63l0.44,0.22L24.04,53.86z"/>
									<polygon class="st3" points="20.27,61.71 21.08,60.64 20.72,61.93 									"/>
									<polygon class="st3" points="21.34,59.45 22.15,58.38 21.79,59.67 									"/>
									<path class="st3" d="M19.62,60.3c0-0.27,0.01-0.54,0.06-0.82l0.35-0.46l-0.37,1.3L19.62,60.3z"/>
									<polygon class="st3" points="20.75,57.42 21.56,56.35 21.19,57.64 									"/>
								</g>
							</g>
							<g>
								<path class="st2" d="M23.14,51.87c0.3-0.5,0.47-0.97,0.57-1.41l0.99-0.3l6.46-1.92l4.03-1.2l1.34-0.41
									c0.04,0.16,0.1,0.33,0.17,0.51c2.33,1,1.27,2.59,2.4,4.6c0.01,0.03,0.03,0.05,0.05,0.08c-0.39,0.82-0.98,1.51-1.72,2.01
									c-0.83,0.59-1.85,0.93-2.94,0.93c-1.59,0-3.38-1.43-3.38-1.43s-1.68,1.43-3.32,1.41c-1.06-0.01-2.08-0.34-2.91-0.9
									C24.13,53.33,23.52,52.66,23.14,51.87z"/>
								<path class="st2" d="M20.11,74.45c0.29-5.36,11.05-13.51,11.05-13.51s11.06,8.21,11.06,13.59c0,3.69-3.02,6.67-6.71,6.67
									c-2.07,0-4.39-1.86-4.39-1.86s-2.19,1.86-4.33,1.83C23.08,81.12,19.91,78.15,20.11,74.45z"/>
								<g>
									<path class="st4" d="M35.18,47.03l1.35-0.4c0.05,0.16,0.1,0.33,0.17,0.51c2.41,1.03,1.19,2.7,2.53,4.81
										c0.15-0.17,2.77-4.18,3.22-7.08l0.32-0.1c0.69,3.03-4.3,8.32-4.3,8.32S36.83,47.8,35.18,47.03z"/>
									<path class="st4" d="M21.93,50.99l0.35-0.11l0.11-0.03c0.29,0.49,0.52,0.85,0.63,1.01c0.04,0.05,0.06,0.08,0.07,0.09
										c0.33-0.53,0.51-1.03,0.62-1.49l0.99-0.3c-0.74,1.39-0.81,3.09-0.81,3.09S22.74,52.1,21.93,50.99z"/>
								</g>
								<path class="st5" d="M29.56,73.74c1.25,0,1.21-0.55,1.51-1.15c0.3,0.61,0.44,1.15,1.69,1.15s2.98-3.52,2.98-6.48
									c0-2.1-0.62-3.98-1.61-5.25c0-0.01-0.01-0.02-0.01-0.02c0,0,0,0,0,0l0,0c-0.51-0.65-1.11-1.13-1.77-1.41
									c-0.38-0.15-0.77-0.24-1.18-0.25v0c0,0,0,0,0,0c0,0,0,0,0,0v0c-0.41,0.01-0.8,0.09-1.18,0.25
									c-0.66,0.27-1.26,0.76-1.77,1.41l0,0c0,0,0,0,0,0c-0.01,0.01-0.01,0.01-0.01,0.02c-0.99,1.27-1.61,3.15-1.61,5.25
									C26.58,70.22,28.05,73.61,29.56,73.74z"/>
								<g>
									<g>
										<path class="st3" d="M34.58,67.66c0.02-0.05,0.03-0.1,0.03-0.16c0-0.35-0.44-0.64-0.98-0.64c-0.54,0-0.98,0.29-0.98,0.64
											c0,0.06,0.01,0.11,0.03,0.16H34.58z"/>
									</g>
									<g>
										<path class="st3" d="M27.73,67.66c-0.02-0.05-0.03-0.1-0.03-0.16c0-0.35,0.44-0.64,0.98-0.64c0.54,0,0.98,0.29,0.98,0.64
											c0,0.06-0.01,0.11-0.03,0.16H27.73z"/>
									</g>
									<g>
										<path class="st7" d="M29.88,62.86h1.27h0.01h1.27c-0.25-0.34-0.73-0.57-1.27-0.57v0c0,0,0,0,0,0c0,0,0,0,0,0v0
											C30.61,62.29,30.14,62.52,29.88,62.86z"/>
										<path class="st2" d="M31.15,62.93c0.58,0.68,1.4-0.18,1.4-0.18h-1.4h-0.01h-1.4C29.75,62.75,30.57,63.6,31.15,62.93z"/>
									</g>
									<path class="st4" d="M31.15,66.58v0.02l0-0.01l0,0.01L31.15,66.58l0.74-2.34c0,0-0.27-0.23-0.7-0.23s-0.77,0.23-0.77,0.23
										L31.15,66.58z"/>
									<polygon class="st2" points="29.75,69.06 27.82,68.95 27.79,68.95 27.77,68.94 27.01,68.1 27.86,68.85 27.82,68.84 
										29.75,68.74 									"/>
									<polygon class="st2" points="32.39,68.74 34.32,68.84 34.28,68.85 35.13,68.1 34.37,68.94 34.35,68.95 34.33,68.95 
										32.39,69.06 									"/>
								</g>
							</g>
							<g>
								<path class="st2" d="M23.14,51.87c0.3-0.5,0.47-0.97,0.57-1.41l0.99-0.3l6.46-1.92l4.03-1.2l1.34-0.41
									c0.04,0.16,0.1,0.33,0.17,0.51c2.33,1,1.27,2.59,2.4,4.6c0.01,0.03,0.03,0.05,0.05,0.08c-0.39,0.82-0.98,1.51-1.72,2.01
									c-0.83,0.59-1.85,0.93-2.94,0.93c-1.59,0-3.38-1.43-3.38-1.43s-1.68,1.43-3.32,1.41c-1.06-0.01-2.08-0.34-2.91-0.9
									C24.13,53.33,23.52,52.66,23.14,51.87z"/>
								<path class="st2" d="M20.11,74.45c0.29-5.36,11.05-13.51,11.05-13.51s11.06,8.21,11.06,13.59c0,3.69-3.02,6.67-6.71,6.67
									c-2.07,0-4.39-1.86-4.39-1.86s-2.19,1.86-4.33,1.83C23.08,81.12,19.91,78.15,20.11,74.45z"/>
								<g>
									<path class="st4" d="M35.18,47.03l1.35-0.4c0.05,0.16,0.1,0.33,0.17,0.51c2.41,1.03,1.19,2.7,2.53,4.81
										c0.15-0.17,2.77-4.18,3.22-7.08l0.32-0.1c0.69,3.03-4.3,8.32-4.3,8.32S36.83,47.8,35.18,47.03z"/>
									<path class="st4" d="M21.93,50.99l0.35-0.11l0.11-0.03c0.29,0.49,0.52,0.85,0.63,1.01c0.04,0.05,0.06,0.08,0.07,0.09
										c0.33-0.53,0.51-1.03,0.62-1.49l0.99-0.3c-0.74,1.39-0.81,3.09-0.81,3.09S22.74,52.1,21.93,50.99z"/>
								</g>
								<path class="st5" d="M29.56,73.74c1.25,0,1.21-0.55,1.51-1.15c0.3,0.61,0.44,1.15,1.69,1.15s2.98-3.52,2.98-6.48
									c0-2.1-0.62-3.98-1.61-5.25c0-0.01-0.01-0.02-0.01-0.02c0,0,0,0,0,0l0,0c-0.51-0.65-1.11-1.13-1.77-1.41
									c-0.38-0.15-0.77-0.24-1.18-0.25v0c0,0,0,0,0,0c0,0,0,0,0,0v0c-0.41,0.01-0.8,0.09-1.18,0.25
									c-0.66,0.27-1.26,0.76-1.77,1.41l0,0c0,0,0,0,0,0c-0.01,0.01-0.01,0.01-0.01,0.02c-0.99,1.27-1.61,3.15-1.61,5.25
									C26.58,70.22,28.05,73.61,29.56,73.74z"/>
								<g>
									<g>
										<path class="st3" d="M34.58,67.66c0.02-0.05,0.03-0.1,0.03-0.16c0-0.35-0.44-0.64-0.98-0.64c-0.54,0-0.98,0.29-0.98,0.64
											c0,0.06,0.01,0.11,0.03,0.16H34.58z"/>
									</g>
									<g>
										<path class="st3" d="M27.73,67.66c-0.02-0.05-0.03-0.1-0.03-0.16c0-0.35,0.44-0.64,0.98-0.64c0.54,0,0.98,0.29,0.98,0.64
											c0,0.06-0.01,0.11-0.03,0.16H27.73z"/>
									</g>
									<g>
										<path class="st7" d="M29.88,62.86h1.27h0.01h1.27c-0.25-0.34-0.73-0.57-1.27-0.57v0c0,0,0,0,0,0c0,0,0,0,0,0v0
											C30.61,62.29,30.14,62.52,29.88,62.86z"/>
										<path class="st2" d="M31.15,62.93c0.58,0.68,1.4-0.18,1.4-0.18h-1.4h-0.01h-1.4C29.75,62.75,30.57,63.6,31.15,62.93z"/>
									</g>
									<path class="st4" d="M31.15,66.58v0.02l0-0.01l0,0.01L31.15,66.58l0.74-2.34c0,0-0.27-0.23-0.7-0.23s-0.77,0.23-0.77,0.23
										L31.15,66.58z"/>
									<polygon class="st2" points="29.75,69.06 27.82,68.95 27.79,68.95 27.77,68.94 27.01,68.1 27.86,68.85 27.82,68.84 
										29.75,68.74 									"/>
									<polygon class="st2" points="32.39,68.74 34.32,68.84 34.28,68.85 35.13,68.1 34.37,68.94 34.35,68.95 34.33,68.95 
										32.39,69.06 									"/>
								</g>
							</g>
						</g>
						<path class="st4" d="M29.81,73.7c-0.08,0.02-0.17,0.04-0.26,0.04C29.64,73.73,29.73,73.72,29.81,73.7z"/>
						<path class="st4" d="M30.5,73.38c-0.01,0.01-0.02,0.01-0.03,0.02C30.48,73.4,30.49,73.39,30.5,73.38z"/>
						<path class="st4" d="M30.29,73.52c-0.02,0.01-0.03,0.01-0.05,0.02C30.26,73.53,30.27,73.52,30.29,73.52z"/>
						<path class="st4" d="M30.06,73.62c-0.03,0.01-0.06,0.02-0.08,0.03C30,73.64,30.03,73.63,30.06,73.62z"/>
						<g>
							<path class="st4" d="M28.05,77.37c-0.08-1.48,3.09-3.85,3.09-3.85s3.17,2.3,2.99,3.97c-0.11,1.04-1.03,1.82-2.01,1.82
								c-0.54,0-1.13-0.46-1.13-0.46s-0.54,0.46-1.07,0.45C29.03,79.29,28.11,78.3,28.05,77.37z"/>
							<path class="st8" d="M28.28,77.24c0.07-1.35,2.78-3.4,2.78-3.4s2.78,2.07,2.78,3.42c0,0.93-0.76,1.68-1.69,1.68
								c-0.52,0-1.11-0.47-1.11-0.47s-0.55,0.47-1.09,0.46C29.03,78.92,28.23,78.17,28.28,77.24z"/>
							<path class="st4" d="M31.07,74.81c1.04,0.86,2.01,1.94,2.01,2.45c0,0.5-0.42,0.91-0.93,0.91c-0.15,0-0.48-0.18-0.63-0.3
								l-0.49-0.4l-0.48,0.41c-0.14,0.11-0.42,0.28-0.58,0.28c-0.27,0-0.53-0.12-0.71-0.31c-0.11-0.11-0.23-0.31-0.22-0.58
								C29.07,76.76,30.05,75.67,31.07,74.81z"/>
						</g>
						<path class="st4" d="M20.17,55.85c0.11,0.16,0.22,0.31,0.33,0.46c0.04,0.05,0.07,0.09,0.11,0.14c0.07,0.09,0.14,0.18,0.2,0.26
							v0c-0.68,0.95-1.02,1.89-1.14,2.78c-0.05,0.28-0.06,0.55-0.06,0.82c0,2.62,1.73,4.6,1.73,4.6h5.2
							c-2.96,2.82-6.28,6.6-6.44,9.55c-0.2,3.7,2.97,6.67,6.68,6.72c2.13,0.03,4.33-1.83,4.33-1.83s0.01,0.01,0.02,0.01v-31.1
							l-6.43,1.92l-0.8,0.24l-0.2,0.06v0h0c0,0.02-0.01,0.03-0.01,0.05c-0.11,0.45-0.29,0.93-0.61,1.44c0,0-0.01-0.01-0.01-0.01
							c-0.01-0.01-0.03-0.03-0.06-0.08c-0.11-0.16-0.34-0.52-0.63-1.01l0,0l-0.01,0l-0.1,0.03l-0.15,0.04l-0.2,0.06l-3.72,1.11
							C18.8,53.63,19.5,54.87,20.17,55.85z"/>
					</g>
				</g>
			</g>
		</g>
	</g>
	<g>
		<path class="st2" d="M16.39,21.38c-0.1,1.91-3.93,4.81-3.93,4.81s-3.93-2.92-3.93-4.84c0-1.31,1.07-2.37,2.39-2.37
			c0.74,0,1.56,0.66,1.56,0.66s0.78-0.66,1.54-0.65C15.33,19.01,16.46,20.07,16.39,21.38z"/>
		<path class="st4" d="M14.01,18.99c-0.76-0.01-1.54,0.65-1.54,0.65s-0.01-0.01-0.03-0.02v6.56c0.01,0,0.01,0.01,0.01,0.01
			s3.83-2.9,3.93-4.81C16.46,20.07,15.33,19.01,14.01,18.99z"/>
	</g>
	<g>
		<path class="st2" d="M50.58,70.95c0.1-1.91,3.93-4.81,3.93-4.81s3.93,2.92,3.93,4.84c0,1.31-1.07,2.37-2.39,2.37
			c-0.74,0-1.56-0.66-1.56-0.66s-0.78,0.66-1.54,0.65C51.64,73.32,50.51,72.26,50.58,70.95z"/>
		<path class="st4" d="M52.96,73.34c0.76,0.01,1.54-0.65,1.54-0.65s0.01,0.01,0.03,0.02v-6.56c-0.01,0-0.01-0.01-0.01-0.01
			s-3.83,2.9-3.93,4.81C50.51,72.26,51.64,73.32,52.96,73.34z"/>
	</g>
</g>
</svg>
