<?xml version="1.0" encoding="utf-8"?>
<!-- Generator: Adobe Illustrator 26.0.3, SVG Export Plug-In . SVG Version: 6.00 Build 0)  -->
<svg version="1.1" id="Layer_1" xmlns="http://www.w3.org/2000/svg" xmlns:xlink="http://www.w3.org/1999/xlink" x="0px" y="0px"
	 viewBox="0 0 66 92" style="enable-background:new 0 0 66 92;" xml:space="preserve">
<style type="text/css">
	.st0{fill:#C9C9C9;}
	.st1{fill:#FFFFFF;}
	.st2{fill:#333333;}
	.st3{opacity:0.2;fill:#616161;}
	.st4{fill:#D66142;}
</style>
<g>
	<g>
		<g>
			<g>
				<path class="st0" d="M10,87.32c-3.49,0-6.34-2.78-6.35-6.21L3.47,10.93C3.46,7.47,6.31,4.67,9.81,4.68l46.38,0.08
					c3.49,0.01,6.33,2.82,6.33,6.26v70.03c0,3.42-2.83,6.21-6.31,6.22L10,87.32z"/>
			</g>
			<path class="st1" d="M10.58,87.15c-3.45,0-6.25-2.79-6.25-6.23V10.91c0-3.43,2.81-6.23,6.25-6.23h45.7
				c3.45,0,6.25,2.79,6.25,6.23v70.01c0,3.43-2.8,6.23-6.25,6.23H10.58z"/>
			<g>
				<path class="st2" d="M11.66,10c-0.11,0.2-0.22,0.4-0.32,0.6c-0.22,0.43-0.4,0.8-0.53,1.11c-0.16,0.36-0.31,0.69-0.44,1.01
					c-0.19,0.46-0.29,0.7-0.29,0.71c-0.11,0.22-0.26,0.5-0.45,0.84c-0.24,0.4-0.42,0.7-0.56,0.88c-0.24,0.3-0.47,0.57-0.72,0.8
					c-0.27,0.25-0.57,0.48-0.91,0.68c-0.02-0.01-0.05-0.03-0.07-0.04c-0.02-0.02-0.03-0.05-0.03-0.08c0-0.05,0.14-0.25,0.42-0.6
					c0.18-0.22,0.3-0.39,0.38-0.52c0.11-0.17,0.21-0.37,0.31-0.6c0.1-0.22,0.2-0.45,0.3-0.7c0.27-0.55,0.5-1.07,0.69-1.54
					c0.11-0.29,0.23-0.62,0.34-0.98c0-0.12-0.42-0.18-1.27-0.18c-0.11,0-0.24,0.02-0.37,0.06c-0.13,0.04-0.26,0.11-0.37,0.2H7.54
					v-0.19c0.39-0.56,0.77-0.94,1.13-1.17c0.28-0.17,0.59-0.26,0.91-0.26c0.1,0,0.25,0.01,0.45,0.04c0.2,0.02,0.36,0.04,0.47,0.04
					c0.16-0.01,0.28-0.01,0.37-0.02c0.28-0.03,0.48-0.1,0.61-0.2h0.15L11.66,10z"/>
			</g>
			<g>
				<path class="st2" d="M55.58,82.6c0.11-0.21,0.22-0.4,0.32-0.6c0.22-0.43,0.4-0.8,0.53-1.11c0.16-0.36,0.31-0.69,0.44-1.01
					c0.19-0.46,0.29-0.7,0.29-0.71c0.11-0.22,0.26-0.5,0.45-0.84c0.24-0.4,0.42-0.7,0.56-0.88c0.24-0.3,0.47-0.57,0.72-0.8
					c0.27-0.25,0.57-0.48,0.91-0.68c0.02,0.01,0.05,0.03,0.07,0.04c0.02,0.02,0.03,0.05,0.03,0.08c0,0.05-0.14,0.25-0.42,0.6
					c-0.18,0.22-0.3,0.39-0.38,0.52c-0.11,0.17-0.21,0.37-0.31,0.6c-0.1,0.22-0.2,0.46-0.3,0.7c-0.27,0.55-0.5,1.07-0.69,1.54
					c-0.11,0.29-0.23,0.62-0.34,0.98c0,0.12,0.42,0.18,1.27,0.18c0.11,0,0.24-0.02,0.37-0.06c0.13-0.04,0.26-0.11,0.37-0.2h0.24
					v0.19c-0.39,0.56-0.77,0.94-1.13,1.17c-0.28,0.17-0.59,0.26-0.91,0.26c-0.1,0-0.25-0.01-0.45-0.04
					c-0.21-0.02-0.36-0.04-0.47-0.04c-0.16,0.01-0.28,0.01-0.37,0.02c-0.28,0.03-0.48,0.1-0.61,0.2h-0.15L55.58,82.6z"/>
			</g>
		</g>
		<g>
			<g>
				<path class="st3" d="M50.83,18.6c0.01-1.49-6.47-7.85-6.47-7.85s-0.01,0.01-0.01,0.01v15.28l3.02,0.01l-2.41-4.14
					c0.58,0.35,1.26,0.56,1.99,0.56C49.09,22.47,50.83,20.74,50.83,18.6z"/>
			</g>
			<g>
				<path class="st3" d="M50.83,46.82c0.01-1.49-6.47-7.85-6.47-7.85s-0.01,0.01-0.01,0.01v15.28l3.02,0.01l-2.41-4.14
					c0.58,0.35,1.26,0.56,1.99,0.56C49.09,50.69,50.83,48.96,50.83,46.82z"/>
			</g>
			<g>
				<path class="st3" d="M16.05,18.6c-0.01-1.49,6.47-7.85,6.47-7.85s0.01,0.01,0.01,0.01v15.28l-3.02,0.01l2.41-4.14
					c-0.58,0.35-1.26,0.56-1.99,0.56C17.79,22.47,16.05,20.74,16.05,18.6z"/>
			</g>
			<g>
				<path class="st3" d="M26.64,32.96c-0.01-1.49,6.47-7.85,6.47-7.85s0.01,0.01,0.01,0.01V40.4l-3.02,0.01l2.41-4.14
					c-0.58,0.35-1.26,0.56-1.99,0.56C28.39,36.83,26.64,35.1,26.64,32.96z"/>
			</g>
			<g>
				<path class="st3" d="M16.05,45.44c-0.01-1.49,6.47-7.85,6.47-7.85s0.01,0.01,0.01,0.01v15.28l-3.02,0.01l2.41-4.14
					c-0.58,0.35-1.26,0.56-1.99,0.56C17.79,49.32,16.05,47.58,16.05,45.44z"/>
			</g>
			<g>
				<path class="st3" d="M50.81,73.54c0.01,1.49-6.47,7.85-6.47,7.85s-0.01-0.01-0.01-0.01V66.1l3.02-0.01l-2.41,4.14
					c0.58-0.35,1.26-0.56,1.99-0.56C49.06,69.67,50.81,71.4,50.81,73.54z"/>
			</g>
			<g>
				<path class="st3" d="M16.02,73.54c-0.01,1.49,6.47,7.85,6.47,7.85s0.01-0.01,0.01-0.01V66.1l-3.02-0.01l2.41,4.14
					c-0.58-0.35-1.26-0.56-1.99-0.56C17.76,69.67,16.02,71.4,16.02,73.54z"/>
			</g>
			<g>
				<path class="st3" d="M11.09,21.42c0-0.4-1.73-2.09-1.73-2.09s0,0,0,0v4.08l0.81,0L9.53,22.3c0.15,0.09,0.34,0.15,0.53,0.15
					C10.63,22.46,11.09,21.99,11.09,21.42z"/>
			</g>
			<g>
				<path class="st3" d="M56.49,72.03c0,0.4,1.73,2.09,1.73,2.09s0,0,0,0v-4.08l-0.8,0l0.64,1.1C57.9,71.06,57.72,71,57.52,71
					C56.95,71,56.49,71.46,56.49,72.03z"/>
			</g>
		</g>
	</g>
	<g>
		<path class="st4" d="M11.11,20.63c-0.06,1.03-2.13,2.6-2.13,2.6s-2.13-1.58-2.13-2.62c0-0.71,0.58-1.29,1.29-1.29
			c0.4,0,0.85,0.36,0.85,0.36s0.42-0.36,0.83-0.35C10.54,19.34,11.15,19.92,11.11,20.63z"/>
		<path class="st3" d="M9.82,19.33c-0.41-0.01-0.83,0.35-0.83,0.35s-0.01,0-0.01-0.01v3.55c0,0,0.01,0,0.01,0s2.07-1.57,2.13-2.6
			C11.15,19.92,10.54,19.34,9.82,19.33z"/>
	</g>
	<g>
		<path class="st4" d="M55.66,72.8c0.06-1.05,2.17-2.66,2.17-2.66s2.17,1.61,2.17,2.67c0,0.72-0.59,1.31-1.32,1.31
			c-0.41,0-0.86-0.37-0.86-0.37s-0.43,0.37-0.85,0.36C56.24,74.11,55.62,73.53,55.66,72.8z"/>
		<path class="st3" d="M56.97,74.12c0.42,0.01,0.85-0.36,0.85-0.36s0.01,0,0.01,0.01v-3.62c0,0-0.01,0-0.01,0s-2.12,1.6-2.17,2.66
			C55.62,73.53,56.24,74.11,56.97,74.12z"/>
	</g>
	<g>
		<path class="st4" d="M16.7,16.55c0.16,2.94,6.05,7.41,6.05,7.41s6.06-4.5,6.06-7.44c0-2.03-1.66-3.66-3.68-3.66
			c-1.14,0-2.4,1.03-2.4,1.03s-1.2-1.03-2.37-1.01C18.34,12.89,16.6,14.52,16.7,16.55z"/>
		<path class="st3" d="M20.36,12.87c1.17-0.02,2.37,1.01,2.37,1.01s0.02-0.01,0.04-0.03v10.1c-0.01,0.01-0.02,0.01-0.02,0.01
			s-5.89-4.47-6.05-7.41C16.6,14.52,18.34,12.89,20.36,12.87z"/>
	</g>
	<g>
		<path class="st4" d="M50.63,16.55c-0.16,2.94-6.05,7.41-6.05,7.41s-6.06-4.5-6.06-7.44c0-2.03,1.66-3.66,3.68-3.66
			c1.14,0,2.4,1.03,2.4,1.03s1.2-1.03,2.37-1.01C49,12.89,50.74,14.52,50.63,16.55z"/>
		<path class="st3" d="M46.98,12.87c-1.17-0.02-2.37,1.01-2.37,1.01s-0.02-0.01-0.04-0.03v10.1c0.01,0.01,0.02,0.01,0.02,0.01
			s5.89-4.47,6.05-7.41C50.74,14.52,49,12.89,46.98,12.87z"/>
	</g>
	<g>
		<path class="st4" d="M27.37,30.9c0.16,2.94,6.05,7.41,6.05,7.41s6.06-4.5,6.06-7.44c0-2.03-1.66-3.66-3.68-3.66
			c-1.14,0-2.4,1.03-2.4,1.03s-1.2-1.03-2.37-1.01C29,27.25,27.26,28.88,27.37,30.9z"/>
		<path class="st3" d="M31.03,27.22c1.17-0.02,2.37,1.01,2.37,1.01s0.02-0.01,0.04-0.03v10.1c-0.01,0.01-0.02,0.01-0.02,0.01
			s-5.89-4.47-6.05-7.41C27.26,28.88,29,27.25,31.03,27.22z"/>
	</g>
	<g>
		<path class="st4" d="M16.7,74.75c0.16-2.94,6.05-7.41,6.05-7.41s6.06,4.5,6.06,7.44c0,2.03-1.66,3.66-3.68,3.66
			c-1.14,0-2.4-1.03-2.4-1.03s-1.2,1.03-2.37,1.01C18.34,78.41,16.6,76.78,16.7,74.75z"/>
		<path class="st3" d="M20.36,78.44c1.17,0.02,2.37-1.01,2.37-1.01s0.02,0.01,0.04,0.03v-10.1c-0.01-0.01-0.02-0.01-0.02-0.01
			s-5.89,4.47-6.05,7.41C16.6,76.78,18.34,78.41,20.36,78.44z"/>
	</g>
	<g>
		<path class="st4" d="M50.63,74.75c-0.16-2.94-6.05-7.41-6.05-7.41s-6.06,4.5-6.06,7.44c0,2.03,1.66,3.66,3.68,3.66
			c1.14,0,2.4-1.03,2.4-1.03s1.2,1.03,2.37,1.01C49,78.41,50.74,76.78,50.63,74.75z"/>
		<path class="st3" d="M46.98,78.44c-1.17,0.02-2.37-1.01-2.37-1.01s-0.02,0.01-0.04,0.03v-10.1c0.01-0.01,0.02-0.01,0.02-0.01
			s5.89,4.47,6.05,7.41C50.74,76.78,49,78.41,46.98,78.44z"/>
	</g>
	<g>
		<path class="st4" d="M16.7,47.5c0.16-2.94,6.05-7.41,6.05-7.41s6.06,4.5,6.06,7.45c0,2.03-1.66,3.66-3.68,3.66
			c-1.14,0-2.4-1.03-2.4-1.03s-1.2,1.03-2.37,1.01C18.34,51.16,16.6,49.53,16.7,47.5z"/>
		<path class="st3" d="M20.36,51.19c1.17,0.02,2.37-1.01,2.37-1.01s0.02,0.01,0.04,0.03v-10.1c-0.01-0.01-0.02-0.01-0.02-0.01
			s-5.89,4.47-6.05,7.41C16.6,49.53,18.34,51.16,20.36,51.19z"/>
	</g>
	<g>
		<path class="st4" d="M50.63,47.5c-0.16-2.94-6.05-7.41-6.05-7.41s-6.06,4.5-6.06,7.45c0,2.03,1.66,3.66,3.68,3.66
			c1.14,0,2.4-1.03,2.4-1.03s1.2,1.03,2.37,1.01C49,51.16,50.74,49.53,50.63,47.5z"/>
		<path class="st3" d="M46.98,51.19c-1.17,0.02-2.37-1.01-2.37-1.01s-0.02,0.01-0.04,0.03v-10.1c0.01-0.01,0.02-0.01,0.02-0.01
			s5.89,4.47,6.05,7.41C50.74,49.53,49,51.16,46.98,51.19z"/>
	</g>
</g>
</svg>
