<?xml version="1.0" encoding="utf-8"?>
<!-- Generator: Adobe Illustrator 26.0.3, SVG Export Plug-In . SVG Version: 6.00 Build 0)  -->
<svg version="1.1" id="Layer_1" xmlns="http://www.w3.org/2000/svg" xmlns:xlink="http://www.w3.org/1999/xlink" x="0px" y="0px"
	 viewBox="0 0 66 92" style="enable-background:new 0 0 66 92;" xml:space="preserve">
<style type="text/css">
	.st0{fill:#C9C9C9;}
	.st1{fill:#FFFFFF;}
	.st2{fill:#333333;}
	.st3{opacity:0.2;fill:#616161;}
	.st4{fill:#D66142;}
</style>
<g>
	<g>
		<g>
			<g>
				<path class="st0" d="M10,87.32c-3.49,0-6.34-2.78-6.35-6.21L3.47,10.93C3.46,7.48,6.3,4.67,9.81,4.68l46.38,0.09
					c3.49,0.01,6.33,2.82,6.33,6.26v70.03c0,3.42-2.83,6.21-6.31,6.22L10,87.32z"/>
			</g>
			<path class="st1" d="M10.58,87.15c-3.45,0-6.25-2.79-6.25-6.23V10.91c0-3.43,2.8-6.23,6.25-6.23h45.7c3.45,0,6.25,2.79,6.25,6.23
				v70.01c0,3.44-2.8,6.23-6.25,6.23H10.58z"/>
			<g>
				<path class="st2" d="M11.65,12.25c0,0.44-0.1,0.92-0.29,1.43c-0.2,0.52-0.4,0.89-0.61,1.14c-0.38,0.43-0.74,0.79-1.07,1.07
					c-0.55,0.47-0.99,0.71-1.31,0.71c-0.03,0-0.06-0.01-0.09-0.04c-0.03-0.02-0.06-0.05-0.08-0.08c0.3-0.19,0.61-0.47,0.92-0.82
					c0.31-0.35,0.62-0.83,0.92-1.43v-0.12c-0.03-0.01-0.05-0.02-0.07-0.04c-0.24,0.11-0.46,0.2-0.67,0.28
					c-0.2,0.08-0.38,0.12-0.54,0.12c-0.31,0-0.61-0.17-0.89-0.52C7.56,13.57,7.4,13.1,7.4,12.54c0-0.54,0.33-1.12,0.98-1.72
					c0.6-0.56,1.1-0.83,1.49-0.83c0.37,0,0.75,0.2,1.12,0.59C11.43,11.04,11.65,11.6,11.65,12.25z M10.28,13.04
					c0-0.53-0.16-0.98-0.49-1.34C9.5,11.38,9.2,11.22,8.9,11.22c-0.07,0-0.12,0.04-0.14,0.13c-0.03,0.09-0.04,0.19-0.04,0.29
					c0,0.46,0.12,0.84,0.34,1.14c0.28,0.37,0.54,0.55,0.8,0.55c0.13,0,0.22-0.01,0.28-0.04C10.23,13.25,10.28,13.16,10.28,13.04z"/>
			</g>
			<g>
				<path class="st2" d="M55.59,80.35c0-0.44,0.1-0.92,0.29-1.43c0.2-0.52,0.4-0.89,0.61-1.14c0.38-0.43,0.74-0.79,1.07-1.07
					c0.55-0.47,0.99-0.71,1.31-0.71c0.03,0,0.06,0.01,0.09,0.04c0.03,0.02,0.06,0.05,0.08,0.08c-0.3,0.19-0.61,0.47-0.92,0.82
					c-0.31,0.35-0.62,0.83-0.92,1.43v0.12c0.03,0.01,0.05,0.02,0.07,0.04c0.24-0.11,0.46-0.2,0.67-0.28
					c0.2-0.08,0.38-0.12,0.54-0.12c0.31,0,0.61,0.17,0.89,0.52c0.32,0.39,0.48,0.87,0.48,1.42c0,0.54-0.33,1.12-0.98,1.72
					c-0.6,0.56-1.1,0.83-1.49,0.83c-0.37,0-0.75-0.2-1.12-0.59C55.81,81.56,55.59,81,55.59,80.35z M56.97,79.56
					c0,0.53,0.16,0.98,0.49,1.34c0.29,0.32,0.59,0.48,0.89,0.48c0.07,0,0.12-0.04,0.14-0.13c0.03-0.09,0.04-0.19,0.04-0.29
					c0-0.46-0.12-0.84-0.34-1.14c-0.28-0.37-0.54-0.55-0.8-0.55c-0.13,0-0.22,0.01-0.28,0.04C57.01,79.36,56.97,79.44,56.97,79.56z"
					/>
			</g>
		</g>
		<g>
			<g>
				<path class="st3" d="M50.83,18.6c0.01-1.49-6.47-7.85-6.47-7.85s-0.01,0.01-0.01,0.01v15.28l3.02,0.01l-2.41-4.14
					c0.58,0.35,1.26,0.56,1.99,0.56C49.09,22.47,50.83,20.74,50.83,18.6z"/>
			</g>
			<g>
				<path class="st3" d="M50.83,36.94c0.01-1.49-6.47-7.85-6.47-7.85s-0.01,0.01-0.01,0.01v15.28l3.02,0.01l-2.41-4.14
					c0.58,0.35,1.26,0.56,1.99,0.56C49.09,40.81,50.83,39.08,50.83,36.94z"/>
			</g>
			<g>
				<path class="st3" d="M16.05,18.6c-0.01-1.49,6.47-7.85,6.47-7.85s0.01,0.01,0.01,0.01v15.28l-3.02,0.01l2.41-4.14
					c-0.58,0.35-1.26,0.56-1.99,0.56C17.79,22.47,16.05,20.74,16.05,18.6z"/>
			</g>
			<g>
				<path class="st3" d="M27.04,45.98c-0.01-1.49,6.47-7.85,6.47-7.85s0.01,0.01,0.01,0.01v15.28l-3.02,0.01l2.41-4.14
					c-0.58,0.35-1.26,0.56-1.99,0.56C28.78,49.86,27.04,48.12,27.04,45.98z"/>
			</g>
			<g>
				<path class="st3" d="M16.05,36.94c-0.01-1.49,6.47-7.85,6.47-7.85s0.01,0.01,0.01,0.01v15.28l-3.02,0.01l2.41-4.14
					c-0.58,0.35-1.26,0.56-1.99,0.56C17.79,40.81,16.05,39.08,16.05,36.94z"/>
			</g>
			<g>
				<path class="st3" d="M50.8,73.54c0.01,1.49-6.47,7.85-6.47,7.85s-0.01-0.01-0.01-0.01V66.1l3.02-0.01l-2.41,4.14
					c0.58-0.35,1.26-0.56,1.99-0.56C49.06,69.67,50.8,71.4,50.8,73.54z"/>
			</g>
			<g>
				<path class="st3" d="M50.8,55.2c0.01,1.49-6.47,7.85-6.47,7.85s-0.01-0.01-0.01-0.01V47.75l3.02-0.01l-2.41,4.14
					c0.58-0.35,1.26-0.56,1.99-0.56C49.06,51.33,50.8,53.06,50.8,55.2z"/>
			</g>
			<g>
				<path class="st3" d="M16.02,73.54c-0.01,1.49,6.47,7.85,6.47,7.85s0.01-0.01,0.01-0.01V66.1l-3.02-0.01l2.41,4.14
					c-0.58-0.35-1.26-0.56-1.99-0.56C17.76,69.67,16.02,71.4,16.02,73.54z"/>
			</g>
			<g>
				<path class="st3" d="M16.02,55.2c-0.01,1.49,6.47,7.85,6.47,7.85s0.01-0.01,0.01-0.01V47.75l-3.02-0.01l2.41,4.14
					c-0.58-0.35-1.26-0.56-1.99-0.56C17.76,51.33,16.02,53.06,16.02,55.2z"/>
			</g>
			<g>
				<path class="st3" d="M10.99,21.42c0-0.4-1.73-2.09-1.73-2.09s0,0,0,0v4.08l0.81,0L9.43,22.3c0.15,0.09,0.34,0.15,0.53,0.15
					C10.53,22.46,10.99,21.99,10.99,21.42z"/>
			</g>
			<g>
				<path class="st3" d="M56.04,71.38c0,0.4,1.73,2.09,1.73,2.09s0,0,0,0v-4.08l-0.8,0l0.64,1.1c-0.15-0.09-0.34-0.15-0.53-0.15
					C56.51,70.34,56.04,70.8,56.04,71.38z"/>
			</g>
		</g>
	</g>
	<g>
		<path class="st4" d="M11.48,20.63c-0.06,1.03-2.13,2.6-2.13,2.6s-2.13-1.58-2.13-2.62c0-0.71,0.58-1.29,1.29-1.29
			c0.4,0,0.84,0.36,0.84,0.36s0.42-0.36,0.83-0.35C10.91,19.34,11.52,19.92,11.48,20.63z"/>
		<path class="st3" d="M10.2,19.33c-0.41-0.01-0.83,0.35-0.83,0.35s-0.01,0-0.01-0.01v3.55c0,0,0.01,0,0.01,0s2.07-1.57,2.13-2.6
			C11.52,19.92,10.91,19.34,10.2,19.33z"/>
	</g>
	<g>
		<path class="st4" d="M55.28,72.05c0.06-1.05,2.17-2.66,2.17-2.66s2.17,1.61,2.17,2.67c0,0.72-0.59,1.31-1.32,1.31
			c-0.41,0-0.86-0.37-0.86-0.37s-0.43,0.37-0.85,0.36C55.87,73.36,55.25,72.78,55.28,72.05z"/>
		<path class="st3" d="M56.6,73.37c0.42,0.01,0.85-0.36,0.85-0.36s0.01,0,0.01,0.01V69.4c0,0,0,0,0,0s-2.12,1.6-2.17,2.66
			C55.25,72.78,55.87,73.36,56.6,73.37z"/>
	</g>
	<g>
		<path class="st4" d="M16.55,16.55c0.16,2.94,6.05,7.41,6.05,7.41s6.06-4.5,6.06-7.44c0-2.03-1.66-3.66-3.68-3.66
			c-1.14,0-2.4,1.03-2.4,1.03s-1.2-1.03-2.37-1.01C18.18,12.89,16.44,14.52,16.55,16.55z"/>
		<path class="st3" d="M20.21,12.86c1.17-0.02,2.37,1.01,2.37,1.01s0.02-0.01,0.04-0.03v10.1c-0.01,0.01-0.02,0.01-0.02,0.01
			s-5.89-4.47-6.05-7.41C16.44,14.52,18.18,12.89,20.21,12.86z"/>
	</g>
	<g>
		<path class="st4" d="M27.42,43.54c0.16,2.94,6.05,7.41,6.05,7.41s6.06-4.5,6.06-7.44c0-2.03-1.66-3.66-3.68-3.66
			c-1.14,0-2.4,1.03-2.4,1.03s-1.2-1.03-2.37-1.01C29.05,39.88,27.31,41.51,27.42,43.54z"/>
		<path class="st3" d="M31.08,39.86c1.17-0.02,2.37,1.01,2.37,1.01s0.02-0.01,0.04-0.03v10.1c-0.01,0.01-0.02,0.01-0.02,0.01
			s-5.89-4.47-6.05-7.41C27.31,41.51,29.05,39.88,31.08,39.86z"/>
	</g>
	<g>
		<path class="st4" d="M50.48,16.55c-0.16,2.94-6.05,7.41-6.05,7.41s-6.06-4.5-6.06-7.44c0-2.03,1.66-3.66,3.68-3.66
			c1.14,0,2.4,1.03,2.4,1.03s1.2-1.03,2.37-1.01C48.85,12.89,50.59,14.52,50.48,16.55z"/>
		<path class="st3" d="M46.82,12.86c-1.17-0.02-2.37,1.01-2.37,1.01s-0.02-0.01-0.04-0.03v10.1c0.01,0.01,0.02,0.01,0.02,0.01
			s5.89-4.47,6.05-7.41C50.59,14.52,48.85,12.89,46.82,12.86z"/>
	</g>
	<g>
		<path class="st4" d="M16.55,34.71c0.16,2.94,6.05,7.41,6.05,7.41s6.06-4.5,6.06-7.44c0-2.03-1.66-3.66-3.68-3.66
			c-1.14,0-2.4,1.03-2.4,1.03s-1.2-1.03-2.37-1.01C18.18,31.06,16.44,32.69,16.55,34.71z"/>
		<path class="st3" d="M20.21,31.03c1.17-0.02,2.37,1.01,2.37,1.01s0.02-0.01,0.04-0.03v10.1c-0.01,0.01-0.02,0.01-0.02,0.01
			s-5.89-4.47-6.05-7.41C16.44,32.69,18.18,31.06,20.21,31.03z"/>
	</g>
	<g>
		<path class="st4" d="M50.48,34.71c-0.16,2.94-6.05,7.41-6.05,7.41s-6.06-4.5-6.06-7.44c0-2.03,1.66-3.66,3.68-3.66
			c1.14,0,2.4,1.03,2.4,1.03s1.2-1.03,2.37-1.01C48.85,31.06,50.59,32.69,50.48,34.71z"/>
		<path class="st3" d="M46.82,31.03c-1.17-0.02-2.37,1.01-2.37,1.01s-0.02-0.01-0.04-0.03v10.1c0.01,0.01,0.02,0.01,0.02,0.01
			s5.89-4.47,6.05-7.41C50.59,32.69,48.85,31.06,46.82,31.03z"/>
	</g>
	<g>
		<path class="st4" d="M16.55,74.75c0.16-2.94,6.05-7.41,6.05-7.41s6.06,4.5,6.06,7.44c0,2.03-1.66,3.66-3.68,3.66
			c-1.14,0-2.4-1.03-2.4-1.03s-1.2,1.03-2.37,1.01C18.18,78.41,16.44,76.78,16.55,74.75z"/>
		<path class="st3" d="M20.21,78.44c1.17,0.02,2.37-1.01,2.37-1.01s0.02,0.01,0.04,0.03v-10.1c-0.01-0.01-0.02-0.01-0.02-0.01
			s-5.89,4.47-6.05,7.41C16.44,76.78,18.18,78.41,20.21,78.44z"/>
	</g>
	<g>
		<path class="st4" d="M50.48,74.75c-0.16-2.94-6.05-7.41-6.05-7.41s-6.06,4.5-6.06,7.44c0,2.03,1.66,3.66,3.68,3.66
			c1.14,0,2.4-1.03,2.4-1.03s1.2,1.03,2.37,1.01C48.85,78.41,50.59,76.78,50.48,74.75z"/>
		<path class="st3" d="M46.82,78.44c-1.17,0.02-2.37-1.01-2.37-1.01s-0.02,0.01-0.04,0.03v-10.1c0.01-0.01,0.02-0.01,0.02-0.01
			s5.89,4.47,6.05,7.41C50.59,76.78,48.85,78.41,46.82,78.44z"/>
	</g>
	<g>
		<path class="st4" d="M16.55,56.59c0.16-2.94,6.05-7.41,6.05-7.41s6.06,4.5,6.06,7.44c0,2.03-1.66,3.66-3.68,3.66
			c-1.14,0-2.4-1.03-2.4-1.03s-1.2,1.03-2.37,1.01C18.18,60.24,16.44,58.61,16.55,56.59z"/>
		<path class="st3" d="M20.21,60.27c1.17,0.02,2.37-1.01,2.37-1.01s0.02,0.01,0.04,0.03v-10.1c-0.01-0.01-0.02-0.01-0.02-0.01
			s-5.89,4.47-6.05,7.41C16.44,58.61,18.18,60.24,20.21,60.27z"/>
	</g>
	<g>
		<path class="st4" d="M50.48,56.59c-0.16-2.94-6.05-7.41-6.05-7.41s-6.06,4.5-6.06,7.44c0,2.03,1.66,3.66,3.68,3.66
			c1.14,0,2.4-1.03,2.4-1.03s1.2,1.03,2.37,1.01C48.85,60.24,50.59,58.61,50.48,56.59z"/>
		<path class="st3" d="M46.82,60.27c-1.17,0.02-2.37-1.01-2.37-1.01s-0.02,0.01-0.04,0.03v-10.1c0.01-0.01,0.02-0.01,0.02-0.01
			s5.89,4.47,6.05,7.41C50.59,58.61,48.85,60.24,46.82,60.27z"/>
	</g>
</g>
</svg>
