<?xml version="1.0" encoding="utf-8"?>
<!-- Generator: Adobe Illustrator 26.0.3, SVG Export Plug-In . SVG Version: 6.00 Build 0)  -->
<svg version="1.1" id="Layer_1" xmlns="http://www.w3.org/2000/svg" xmlns:xlink="http://www.w3.org/1999/xlink" x="0px" y="0px"
	 viewBox="0 0 66 92" style="enable-background:new 0 0 66 92;" xml:space="preserve">
<style type="text/css">
	.st0{fill:#C9C9C9;}
	.st1{fill:#FFFFFF;}
	.st2{fill:#333333;}
	.st3{opacity:0.2;fill:#616161;}
	.st4{fill:#D66142;}
</style>
<g>
	<g>
		<g>
			<g>
				<path class="st0" d="M9.09,88.96c-3.63,0-6.59-2.89-6.6-6.46L2.3,9.54c-0.01-3.59,2.95-6.51,6.59-6.5L57.1,3.13
					c3.63,0.01,6.58,2.93,6.58,6.51v72.8c0,3.56-2.94,6.46-6.56,6.46L9.09,88.96z"/>
			</g>
			<path class="st1" d="M9.69,88.78c-3.58,0-6.5-2.9-6.5-6.48V9.52c0-3.57,2.92-6.48,6.5-6.48H57.2c3.58,0,6.5,2.9,6.5,6.48V82.3
				c0,3.57-2.91,6.48-6.5,6.48H9.69z"/>
			<g>
				<path class="st2" d="M10.77,11.54c0,0.11-0.04,0.22-0.11,0.33c-0.1,0.11-0.16,0.19-0.18,0.23c-0.31,0.46-0.56,0.78-0.74,0.96
					c-0.16,0.1-0.31,0.2-0.47,0.3c-0.05,0.07-0.08,0.15-0.08,0.24c0.02,0.08,0.03,0.14,0.03,0.18c0,0.17,0.01,0.32,0.04,0.45
					c0.03,0.13,0.06,0.2,0.1,0.2c0.06,0,0.11-0.02,0.17-0.07c0.19-0.16,0.31-0.24,0.36-0.26c0.04,0.09,0.07,0.14,0.07,0.15
					c0,0.09-0.17,0.3-0.52,0.63c-0.41,0.39-0.79,0.58-1.14,0.58c-0.25,0-0.41-0.33-0.48-0.99c-0.07-0.66-0.13-1.03-0.19-1.1H5.44
					c-0.04-0.02-0.07-0.04-0.08-0.05c-0.01-0.01-0.01-0.06-0.01-0.15c0-0.12,0.14-0.39,0.43-0.81c0.26-0.38,0.67-0.91,1.22-1.58
					c0.17-0.21,0.34-0.42,0.52-0.63c0.11-0.13,0.27-0.3,0.46-0.5c0.19-0.2,0.4-0.44,0.63-0.7C8.8,8.7,8.96,8.58,9.07,8.58l0.12,0.03
					v3.32c0.1,0.05,0.18,0.08,0.24,0.08C9.48,12,9.51,12,9.53,12c0.25,0,0.48-0.08,0.69-0.24c0.15-0.14,0.3-0.28,0.46-0.41
					c0.03,0.02,0.05,0.03,0.07,0.05C10.76,11.4,10.77,11.45,10.77,11.54z M7.7,11.88v-0.35v-0.12c0-0.12-0.01-0.26-0.03-0.42
					c-0.13,0.11-0.31,0.31-0.53,0.58c-0.07,0.09-0.16,0.21-0.28,0.38l0.08,0.04h0.63L7.7,11.88z"/>
			</g>
			<g>
				<path class="st2" d="M56.52,81.08c0-0.11,0.04-0.22,0.11-0.33c0.1-0.11,0.16-0.19,0.18-0.23c0.31-0.46,0.56-0.78,0.74-0.96
					c0.16-0.1,0.31-0.2,0.47-0.3c0.05-0.07,0.08-0.15,0.08-0.24c-0.02-0.08-0.03-0.14-0.03-0.18c0-0.17-0.01-0.32-0.04-0.45
					c-0.03-0.13-0.06-0.2-0.1-0.2c-0.06,0-0.11,0.02-0.17,0.07c-0.19,0.16-0.31,0.24-0.36,0.26c-0.04-0.09-0.07-0.14-0.07-0.15
					c0-0.09,0.17-0.3,0.52-0.63c0.41-0.39,0.79-0.58,1.14-0.58c0.25,0,0.41,0.33,0.48,0.99c0.07,0.66,0.13,1.03,0.19,1.1h2.19
					c0.04,0.02,0.07,0.04,0.08,0.05c0.01,0.01,0.01,0.06,0.01,0.15c0,0.12-0.14,0.39-0.43,0.81c-0.26,0.38-0.67,0.91-1.22,1.58
					c-0.17,0.21-0.34,0.42-0.52,0.63c-0.11,0.13-0.27,0.3-0.46,0.5c-0.19,0.2-0.4,0.44-0.63,0.7c-0.19,0.23-0.35,0.35-0.46,0.35
					l-0.12-0.03v-3.32c-0.1-0.05-0.18-0.08-0.24-0.08c-0.05,0.01-0.08,0.01-0.1,0.01c-0.25,0-0.48,0.08-0.69,0.24
					c-0.15,0.14-0.3,0.28-0.46,0.41c-0.03-0.02-0.05-0.03-0.07-0.05C56.53,81.22,56.52,81.17,56.52,81.08z M59.59,80.75v0.35v0.12
					c0,0.12,0.01,0.26,0.03,0.42c0.13-0.11,0.31-0.31,0.53-0.58c0.07-0.09,0.16-0.21,0.28-0.38l-0.08-0.04h-0.63L59.59,80.75z"/>
			</g>
		</g>
		<g>
			<g>
				<path class="st3" d="M51.58,18.82c0.01-1.49-6.47-7.85-6.47-7.85s-0.01,0.01-0.01,0.01v15.28l3.02,0.01l-2.41-4.14
					c0.58,0.35,1.26,0.56,1.99,0.56C49.84,22.69,51.58,20.96,51.58,18.82z"/>
			</g>
			<g>
				<path class="st3" d="M16.8,18.82c-0.01-1.49,6.47-7.85,6.47-7.85s0.01,0.01,0.01,0.01v15.28l-3.02,0.01l2.41-4.14
					c-0.58,0.35-1.26,0.56-1.99,0.56C18.54,22.69,16.8,20.96,16.8,18.82z"/>
			</g>
			<g>
				<path class="st3" d="M51.55,73.76c0.01,1.49-6.47,7.85-6.47,7.85s-0.01-0.01-0.01-0.01V66.32l3.02-0.01l-2.41,4.14
					c0.58-0.35,1.26-0.56,1.99-0.56C49.81,69.89,51.55,71.62,51.55,73.76z"/>
			</g>
			<g>
				<path class="st3" d="M16.77,73.76c-0.01,1.49,6.47,7.85,6.47,7.85s0.01-0.01,0.01-0.01V66.32l-3.02-0.01l2.41,4.14
					c-0.58-0.35-1.26-0.56-1.99-0.56C18.51,69.89,16.77,71.62,16.77,73.76z"/>
			</g>
			<g>
				<path class="st3" d="M9.98,20.05c0-0.4-1.73-2.09-1.73-2.09s0,0,0,0v4.08l0.8,0l-0.64-1.1c0.15,0.09,0.34,0.15,0.53,0.15
					C9.52,21.08,9.98,20.62,9.98,20.05z"/>
			</g>
			<g>
				<path class="st3" d="M57.49,72.7c0,0.4,1.73,2.09,1.73,2.09s0,0,0,0v-4.08l-0.8,0l0.64,1.11c-0.15-0.09-0.34-0.15-0.53-0.15
					C57.96,71.66,57.49,72.12,57.49,72.7z"/>
			</g>
		</g>
	</g>
	<g>
		<path class="st4" d="M17.65,16.9c0.16,2.94,6.05,7.41,6.05,7.41s6.06-4.5,6.06-7.44c0-2.03-1.66-3.66-3.68-3.66
			c-1.14,0-2.4,1.03-2.4,1.03s-1.2-1.03-2.37-1.01C19.28,13.24,17.54,14.87,17.65,16.9z"/>
		<path class="st3" d="M21.31,13.21c1.17-0.02,2.37,1.01,2.37,1.01s0.02-0.01,0.04-0.03v10.1c-0.01,0.01-0.02,0.01-0.02,0.01
			s-5.89-4.47-6.05-7.41C17.54,14.87,19.28,13.24,21.31,13.21z"/>
	</g>
	<g>
		<path class="st4" d="M51.58,16.9c-0.16,2.94-6.05,7.41-6.05,7.41s-6.06-4.5-6.06-7.44c0-2.03,1.66-3.66,3.68-3.66
			c1.14,0,2.4,1.03,2.4,1.03s1.2-1.03,2.37-1.01C49.95,13.24,51.69,14.87,51.58,16.9z"/>
		<path class="st3" d="M47.92,13.21c-1.17-0.02-2.37,1.01-2.37,1.01s-0.02-0.01-0.04-0.03v10.1c0.01,0.01,0.02,0.01,0.02,0.01
			s5.89-4.47,6.05-7.41C51.69,14.87,49.95,13.24,47.92,13.21z"/>
	</g>
	<g>
		<path class="st4" d="M17.65,75.1c0.16-2.94,6.05-7.41,6.05-7.41s6.06,4.5,6.06,7.44c0,2.03-1.66,3.66-3.68,3.66
			c-1.14,0-2.4-1.03-2.4-1.03s-1.2,1.03-2.37,1.01C19.28,78.76,17.54,77.13,17.65,75.1z"/>
		<path class="st3" d="M21.31,78.78c1.17,0.02,2.37-1.01,2.37-1.01s0.02,0.01,0.04,0.03v-10.1c-0.01-0.01-0.02-0.01-0.02-0.01
			s-5.89,4.47-6.05,7.41C17.54,77.13,19.28,78.76,21.31,78.78z"/>
	</g>
	<g>
		<path class="st4" d="M51.58,75.1c-0.16-2.94-6.05-7.41-6.05-7.41s-6.06,4.5-6.06,7.44c0,2.03,1.66,3.66,3.68,3.66
			c1.14,0,2.4-1.03,2.4-1.03s1.2,1.03,2.37,1.01C49.95,78.76,51.69,77.13,51.58,75.1z"/>
		<path class="st3" d="M47.92,78.78c-1.17,0.02-2.37-1.01-2.37-1.01s-0.02,0.01-0.04,0.03v-10.1c0.01-0.01,0.02-0.01,0.02-0.01
			s5.89,4.47,6.05,7.41C51.69,77.13,49.95,78.76,47.92,78.78z"/>
	</g>
	<g>
		<path class="st4" d="M10.02,19.72c-0.06,1.03-2.13,2.6-2.13,2.6s-2.13-1.58-2.13-2.62c0-0.71,0.58-1.29,1.29-1.29
			c0.4,0,0.84,0.36,0.84,0.36s0.42-0.36,0.83-0.35C9.44,18.43,10.05,19.01,10.02,19.72z"/>
		<path class="st3" d="M8.73,18.42c-0.41-0.01-0.83,0.35-0.83,0.35s-0.01,0-0.01-0.01v3.55c0,0,0.01,0,0.01,0s2.07-1.57,2.13-2.6
			C10.05,19.01,9.44,18.43,8.73,18.42z"/>
	</g>
	<g>
		<path class="st4" d="M56.2,73.17c0.06-1.05,2.17-2.66,2.17-2.66s2.17,1.61,2.17,2.67c0,0.72-0.59,1.31-1.32,1.31
			c-0.41,0-0.86-0.37-0.86-0.37s-0.43,0.37-0.85,0.36C56.79,74.48,56.16,73.9,56.2,73.17z"/>
		<path class="st3" d="M57.51,74.49c0.42,0.01,0.85-0.36,0.85-0.36s0.01,0,0.01,0.01v-3.62c0,0,0,0,0,0s-2.12,1.6-2.17,2.66
			C56.16,73.9,56.79,74.48,57.51,74.49z"/>
	</g>
</g>
</svg>
