<?xml version="1.0" encoding="utf-8"?>
<!-- Generator: Adobe Illustrator 26.0.3, SVG Export Plug-In . SVG Version: 6.00 Build 0)  -->
<svg version="1.1" id="Layer_1" xmlns="http://www.w3.org/2000/svg" xmlns:xlink="http://www.w3.org/1999/xlink" x="0px" y="0px"
	 viewBox="0 0 66 92" style="enable-background:new 0 0 66 92;" xml:space="preserve">
<style type="text/css">
	.st0{fill:#C9C9C9;}
	.st1{fill:#FFFFFF;}
	.st2{fill:#333333;}
	.st3{opacity:0.2;fill:#616161;}
	.st4{fill:#D66142;}
</style>
<g>
	<g>
		<g>
			<g>
				<path class="st0" d="M9.09,88.96c-3.63,0-6.59-2.89-6.6-6.46L2.3,9.54c-0.01-3.59,2.95-6.51,6.59-6.5L57.1,3.13
					c3.63,0.01,6.58,2.93,6.58,6.51v72.8c0,3.56-2.94,6.46-6.56,6.46L9.09,88.96z"/>
			</g>
			<path class="st1" d="M9.69,88.78c-3.58,0-6.5-2.9-6.5-6.48V9.52c0-3.57,2.92-6.48,6.5-6.48H57.2c3.58,0,6.5,2.9,6.5,6.48V82.3
				c0,3.57-2.91,6.48-6.5,6.48H9.69z"/>
			<g>
				<path class="st2" d="M10.84,8.54c-0.13,0.21-0.29,0.42-0.49,0.63c-0.26,0.28-0.5,0.46-0.72,0.54C9.48,9.75,9.24,9.79,8.92,9.81
					c-0.33,0.02-0.49,0.14-0.49,0.35c0,0.18,0.1,0.3,0.3,0.34c0.35,0.08,0.65,0.22,0.9,0.41c0.25,0.19,0.43,0.41,0.55,0.63
					c0.12,0.23,0.17,0.46,0.17,0.69c0,0.34-0.08,0.68-0.24,1.01c-0.08,0.16-0.21,0.36-0.4,0.62c-0.47,0.61-0.89,1.03-1.26,1.25
					c-0.37,0.22-0.85,0.33-1.45,0.33c-0.35,0-0.65-0.05-0.89-0.15c-0.32-0.13-0.48-0.34-0.48-0.61c0-0.18,0.14-0.49,0.43-0.92
					c0.29-0.43,0.51-0.65,0.66-0.65c0.11,0,0.17,0.13,0.17,0.38c0.01,0.25,0.05,0.43,0.11,0.54c0.08,0.09,0.15,0.15,0.21,0.2
					c0.19,0.14,0.38,0.21,0.58,0.21c0.26,0,0.48-0.09,0.68-0.26c0.25-0.22,0.37-0.54,0.37-0.95c0-0.41-0.13-0.76-0.4-1.06
					c-0.26-0.29-0.58-0.46-0.95-0.51c-0.08-0.01-0.13-0.02-0.17-0.02c-0.11-0.02-0.18-0.03-0.19-0.05c-0.03-0.04-0.05-0.1-0.05-0.2
					c0.03-0.25,0.06-0.49,0.08-0.74c0.02-0.25,0.03-0.48,0.03-0.71c0-0.11-0.02-0.17-0.06-0.19C7.11,9.74,7.03,9.73,6.91,9.73V9.51
					c0.09-0.12,0.27-0.29,0.54-0.52c0.33-0.28,0.56-0.42,0.69-0.42h2.02c0.09,0,0.19-0.03,0.32-0.1c0.12-0.07,0.2-0.1,0.23-0.1
					l0.13,0.07V8.54z"/>
			</g>
			<g>
				<path class="st2" d="M56.45,84.09c0.13-0.21,0.29-0.42,0.49-0.63c0.26-0.28,0.5-0.46,0.72-0.54c0.14-0.05,0.38-0.09,0.71-0.11
					c0.33-0.02,0.49-0.14,0.49-0.35c0-0.18-0.1-0.3-0.3-0.34c-0.35-0.08-0.65-0.22-0.9-0.41c-0.25-0.19-0.43-0.41-0.55-0.63
					c-0.12-0.23-0.17-0.46-0.17-0.69c0-0.34,0.08-0.68,0.24-1.01c0.08-0.16,0.21-0.36,0.4-0.62c0.47-0.61,0.89-1.03,1.26-1.25
					c0.37-0.22,0.85-0.33,1.45-0.33c0.35,0,0.65,0.05,0.89,0.15c0.32,0.13,0.48,0.34,0.48,0.61c0,0.18-0.14,0.49-0.43,0.92
					c-0.29,0.43-0.51,0.65-0.66,0.65c-0.11,0-0.17-0.13-0.17-0.38c-0.01-0.25-0.05-0.43-0.11-0.54c-0.08-0.09-0.15-0.15-0.21-0.2
					c-0.19-0.14-0.38-0.21-0.58-0.21c-0.26,0-0.48,0.09-0.68,0.26c-0.25,0.22-0.37,0.54-0.37,0.95c0,0.41,0.13,0.76,0.4,1.06
					c0.26,0.29,0.58,0.46,0.95,0.51c0.08,0.01,0.13,0.02,0.17,0.02c0.11,0.02,0.18,0.03,0.19,0.05c0.03,0.04,0.05,0.1,0.05,0.2
					c-0.03,0.25-0.06,0.49-0.08,0.74c-0.02,0.25-0.03,0.48-0.03,0.71c0,0.11,0.02,0.17,0.06,0.19c0.04,0.02,0.12,0.03,0.24,0.03
					v0.23c-0.09,0.12-0.27,0.29-0.54,0.52c-0.33,0.28-0.56,0.42-0.69,0.42h-2.02c-0.09,0-0.19,0.03-0.32,0.1
					c-0.12,0.07-0.2,0.1-0.23,0.1l-0.13-0.07V84.09z"/>
			</g>
		</g>
		<g>
			<g>
				<path class="st3" d="M50.85,18.82c0.01-1.49-6.47-7.85-6.47-7.85s-0.01,0.01-0.01,0.01v15.28l3.02,0.01l-2.41-4.14
					c0.58,0.35,1.26,0.56,1.99,0.56C49.11,22.69,50.85,20.96,50.85,18.82z"/>
			</g>
			<g>
				<path class="st3" d="M16.07,18.82c-0.01-1.49,6.47-7.85,6.47-7.85s0.01,0.01,0.01,0.01v15.28l-3.02,0.01l2.41-4.14
					c-0.58,0.35-1.26,0.56-1.99,0.56C17.81,22.69,16.07,20.96,16.07,18.82z"/>
			</g>
			<g>
				<path class="st3" d="M26.96,45.67c-0.01-1.49,6.47-7.85,6.47-7.85s0.01,0.01,0.01,0.01v15.28l-3.02,0.01l2.41-4.14
					c-0.58,0.35-1.26,0.56-1.99,0.56C28.71,49.54,26.96,47.81,26.96,45.67z"/>
			</g>
			<g>
				<path class="st3" d="M50.82,73.76c0.01,1.49-6.47,7.85-6.47,7.85s-0.01-0.01-0.01-0.01V66.32l3.02-0.01l-2.41,4.14
					c0.58-0.35,1.26-0.56,1.99-0.56C49.08,69.89,50.82,71.62,50.82,73.76z"/>
			</g>
			<g>
				<path class="st3" d="M16.04,73.76c-0.01,1.49,6.47,7.85,6.47,7.85s0.01-0.01,0.01-0.01V66.32l-3.02-0.01l2.41,4.14
					c-0.58-0.35-1.26-0.56-1.99-0.56C17.78,69.89,16.04,71.62,16.04,73.76z"/>
			</g>
			<g>
				<path class="st3" d="M9.94,20.05c0-0.4-1.73-2.09-1.73-2.09s0,0,0,0v4.08l0.8,0l-0.64-1.1c0.15,0.09,0.34,0.15,0.53,0.15
					C9.48,21.08,9.94,20.62,9.94,20.05z"/>
			</g>
			<g>
				<path class="st3" d="M57.45,72.7c0,0.4,1.73,2.09,1.73,2.09s0,0,0,0v-4.08l-0.8,0l0.64,1.11c-0.15-0.09-0.34-0.15-0.53-0.15
					C57.92,71.66,57.45,72.12,57.45,72.7z"/>
			</g>
		</g>
	</g>
	<g>
		<path class="st4" d="M16.98,16.9c0.16,2.94,6.05,7.41,6.05,7.41s6.06-4.5,6.06-7.44c0-2.03-1.66-3.66-3.68-3.66
			c-1.14,0-2.4,1.03-2.4,1.03s-1.2-1.03-2.37-1.01C18.62,13.24,16.88,14.87,16.98,16.9z"/>
		<path class="st3" d="M20.64,13.21c1.17-0.02,2.37,1.01,2.37,1.01s0.02-0.01,0.04-0.03v10.1c-0.01,0.01-0.02,0.01-0.02,0.01
			s-5.89-4.47-6.05-7.41C16.88,14.87,18.62,13.24,20.64,13.21z"/>
	</g>
	<g>
		<path class="st4" d="M50.92,16.9c-0.16,2.94-6.05,7.41-6.05,7.41s-6.06-4.5-6.06-7.44c0-2.03,1.66-3.66,3.68-3.66
			c1.14,0,2.4,1.03,2.4,1.03s1.2-1.03,2.37-1.01C49.28,13.24,51.02,14.87,50.92,16.9z"/>
		<path class="st3" d="M47.26,13.21c-1.17-0.02-2.37,1.01-2.37,1.01s-0.02-0.01-0.04-0.03v10.1c0.01,0.01,0.02,0.01,0.02,0.01
			s5.89-4.47,6.05-7.41C51.02,14.87,49.28,13.24,47.26,13.21z"/>
	</g>
	<g>
		<path class="st4" d="M39.5,42.9c-0.16,2.94-6.05,7.41-6.05,7.41s-6.06-4.5-6.06-7.44c0-2.03,1.66-3.66,3.68-3.66
			c1.14,0,2.4,1.03,2.4,1.03s1.2-1.03,2.37-1.01C37.87,39.24,39.61,40.87,39.5,42.9z"/>
		<path class="st3" d="M35.84,39.21c-1.17-0.02-2.37,1.01-2.37,1.01s-0.02-0.01-0.04-0.03v10.1c0.01,0.01,0.02,0.01,0.02,0.01
			s5.89-4.47,6.05-7.41C39.61,40.87,37.87,39.24,35.84,39.21z"/>
	</g>
	<g>
		<path class="st4" d="M16.98,75.1c0.16-2.94,6.05-7.41,6.05-7.41s6.06,4.5,6.06,7.44c0,2.03-1.66,3.66-3.68,3.66
			c-1.14,0-2.4-1.03-2.4-1.03s-1.2,1.03-2.37,1.01C18.62,78.76,16.88,77.13,16.98,75.1z"/>
		<path class="st3" d="M20.64,78.78c1.17,0.02,2.37-1.01,2.37-1.01s0.02,0.01,0.04,0.03v-10.1c-0.01-0.01-0.02-0.01-0.02-0.01
			s-5.89,4.47-6.05,7.41C16.88,77.13,18.62,78.76,20.64,78.78z"/>
	</g>
	<g>
		<path class="st4" d="M50.92,75.1c-0.16-2.94-6.05-7.41-6.05-7.41s-6.06,4.5-6.06,7.44c0,2.03,1.66,3.66,3.68,3.66
			c1.14,0,2.4-1.03,2.4-1.03s1.2,1.03,2.37,1.01C49.28,78.76,51.02,77.13,50.92,75.1z"/>
		<path class="st3" d="M47.26,78.78c-1.17,0.02-2.37-1.01-2.37-1.01s-0.02,0.01-0.04,0.03v-10.1c0.01-0.01,0.02-0.01,0.02-0.01
			s5.89,4.47,6.05,7.41C51.02,77.13,49.28,78.76,47.26,78.78z"/>
	</g>
	<g>
		<path class="st4" d="M10.83,19.72c-0.06,1.03-2.13,2.6-2.13,2.6s-2.13-1.58-2.13-2.62c0-0.71,0.58-1.29,1.29-1.29
			c0.4,0,0.84,0.36,0.84,0.36s0.42-0.36,0.83-0.35C10.25,18.43,10.86,19.01,10.83,19.72z"/>
		<path class="st3" d="M9.54,18.42c-0.41-0.01-0.83,0.35-0.83,0.35s-0.01,0-0.01-0.01v3.55c0,0,0.01,0,0.01,0s2.07-1.57,2.13-2.6
			C10.86,19.01,10.25,18.43,9.54,18.42z"/>
	</g>
	<g>
		<path class="st4" d="M57.01,73.17c0.06-1.05,2.17-2.66,2.17-2.66s2.17,1.61,2.17,2.67c0,0.72-0.59,1.31-1.32,1.31
			c-0.41,0-0.86-0.37-0.86-0.37s-0.43,0.37-0.85,0.36C57.6,74.48,56.97,73.9,57.01,73.17z"/>
		<path class="st3" d="M58.32,74.49c0.42,0.01,0.85-0.36,0.85-0.36s0.01,0,0.01,0.01v-3.62c0,0,0,0,0,0s-2.12,1.6-2.17,2.66
			C56.97,73.9,57.6,74.48,58.32,74.49z"/>
	</g>
</g>
</svg>
