<?xml version="1.0" encoding="utf-8"?>
<!-- Generator: Adobe Illustrator 26.0.3, SVG Export Plug-In . SVG Version: 6.00 Build 0)  -->
<svg version="1.1" id="Layer_1" xmlns="http://www.w3.org/2000/svg" xmlns:xlink="http://www.w3.org/1999/xlink" x="0px" y="0px"
	 viewBox="0 0 66 92" style="enable-background:new 0 0 66 92;" xml:space="preserve">
<style type="text/css">
	.st0{fill:#C9C9C9;}
	.st1{fill:#FFFFFF;}
	.st2{fill:#333333;}
	.st3{opacity:0.2;fill:#616161;}
	.st4{fill:#D66142;}
</style>
<g>
	<g>
		<g>
			<g>
				<path class="st0" d="M9.09,90.57c-3.63,0.01-6.59-2.89-6.6-6.46L2.3,11.16c-0.01-3.59,2.95-6.51,6.59-6.5L57.1,4.74
					c3.63,0.01,6.58,2.93,6.58,6.51v72.8c0,3.56-2.94,6.46-6.56,6.46L9.09,90.57z"/>
			</g>
			<path class="st1" d="M9.69,90.39c-3.58,0-6.5-2.91-6.5-6.48V11.13c0-3.57,2.91-6.48,6.5-6.48H57.2c3.58,0,6.5,2.9,6.5,6.48v72.78
				c0,3.57-2.91,6.48-6.5,6.48H9.69z"/>
			<g>
				<path class="st2" d="M53.62,80.74c0.11-0.29,0.3-0.63,0.56-1.03c0.34-0.53,0.62-0.8,0.84-0.8h2.87
					c0.04-0.01,0.08-0.02,0.13-0.03c0.05-0.01,0.11-0.04,0.18-0.08h0.17v0.24c-0.12,0.1-0.23,0.21-0.32,0.33
					c-0.33,0.43-0.74,0.96-1.21,1.57c-0.35,0.45-0.61,0.81-0.77,1.07c-0.26,0.41-0.39,0.75-0.39,1c0,0.16,0.03,0.32,0.1,0.5
					c0.07,0.18,0.16,0.33,0.27,0.45c0.06,0.06,0.18,0.14,0.36,0.24c0.22,0.13,0.39,0.19,0.5,0.19c0.18,0,0.43-0.12,0.74-0.37
					c0.31-0.25,0.49-0.37,0.54-0.37c0.13,0,0.19,0.05,0.19,0.16c0,0.11-0.14,0.31-0.4,0.6c-0.27,0.29-0.52,0.52-0.76,0.68
					c-0.33,0.22-0.52,0.34-0.56,0.36c-0.29,0.16-0.54,0.25-0.74,0.25c-0.4,0-0.77-0.16-1.11-0.48c-0.34-0.32-0.51-0.7-0.51-1.13
					c0-0.41,0.12-0.8,0.36-1.16c0.04-0.06,0.21-0.29,0.52-0.71c0.43-0.59,0.69-0.94,0.77-1.05c0.35-0.47,0.53-0.71,0.53-0.73
					c0-0.09-0.05-0.14-0.16-0.16c-0.11-0.02-0.21-0.03-0.31-0.03c-0.07,0-0.15,0-0.24,0c-0.09,0-0.14,0-0.15,0
					c-0.55,0-0.96,0.07-1.22,0.21c-0.2,0.16-0.4,0.32-0.6,0.48c-0.02,0-0.05-0.01-0.08-0.02c-0.03-0.01-0.05-0.02-0.06-0.03V80.74z"
					/>
			</g>
			<g>
				<path class="st2" d="M14.39,15.11c-0.11,0.29-0.3,0.63-0.56,1.03c-0.34,0.53-0.62,0.8-0.84,0.8h-2.87
					c-0.04,0.01-0.08,0.02-0.13,0.03C9.95,16.97,9.89,17,9.82,17.04H9.65V16.8c0.12-0.1,0.23-0.21,0.32-0.33
					c0.33-0.43,0.74-0.96,1.21-1.57c0.35-0.45,0.61-0.81,0.77-1.07c0.26-0.41,0.39-0.75,0.39-1c0-0.16-0.03-0.32-0.1-0.5
					c-0.07-0.18-0.16-0.33-0.27-0.45c-0.06-0.06-0.18-0.14-0.36-0.25c-0.22-0.12-0.39-0.19-0.5-0.19c-0.18,0-0.43,0.12-0.74,0.37
					c-0.31,0.25-0.49,0.37-0.54,0.37c-0.13,0-0.19-0.05-0.19-0.16c0-0.11,0.14-0.31,0.4-0.6c0.27-0.29,0.52-0.52,0.76-0.68
					c0.33-0.22,0.52-0.34,0.56-0.36c0.29-0.16,0.54-0.25,0.74-0.25c0.4,0,0.77,0.16,1.11,0.48c0.34,0.32,0.51,0.7,0.51,1.13
					c0,0.42-0.12,0.8-0.36,1.16c-0.04,0.06-0.21,0.29-0.52,0.71c-0.43,0.59-0.69,0.94-0.77,1.05c-0.35,0.46-0.53,0.71-0.53,0.73
					c0,0.09,0.05,0.14,0.16,0.16c0.11,0.02,0.21,0.03,0.31,0.03c0.07,0,0.15,0,0.24,0c0.09,0,0.14,0,0.15,0
					c0.55,0,0.96-0.07,1.22-0.21c0.2-0.16,0.4-0.32,0.6-0.48c0.02,0,0.05,0.01,0.08,0.02c0.03,0.01,0.05,0.02,0.06,0.03V15.11z"/>
			</g>
		</g>
		<g>
			<g>
				<path class="st3" d="M39.88,34.12c0.01-1.49-6.47-7.85-6.47-7.85s-0.01,0.01-0.01,0.01v15.28l3.02,0.01l-2.41-4.14
					c0.58,0.35,1.26,0.56,1.99,0.56C38.14,37.99,39.88,36.26,39.88,34.12z"/>
			</g>
			<g>
				<path class="st3" d="M39.88,62.11c0.01,1.49-6.47,7.85-6.47,7.85s-0.01-0.01-0.01-0.01V54.66l3.02-0.01l-2.41,4.14
					c0.58-0.35,1.26-0.56,1.99-0.56C38.14,58.24,39.88,59.97,39.88,62.11z"/>
			</g>
			<g>
				<path class="st3" d="M13.62,21.66c0-0.4-1.73-2.09-1.73-2.09s0,0,0,0v4.08l0.81,0l-0.64-1.11c0.15,0.09,0.34,0.15,0.53,0.15
					C13.15,22.69,13.62,22.23,13.62,21.66z"/>
			</g>
			<g>
				<path class="st3" d="M54.29,74.31c0,0.4,1.73,2.09,1.73,2.09s0,0,0,0v-4.08l-0.8,0l0.64,1.11c-0.15-0.09-0.34-0.15-0.53-0.15
					C54.75,73.28,54.29,73.74,54.29,74.31z"/>
			</g>
		</g>
	</g>
	<g>
		<path class="st4" d="M39.5,31.49c-0.16,2.94-6.05,7.41-6.05,7.41s-6.06-4.5-6.06-7.44c0-2.03,1.66-3.66,3.68-3.66
			c1.14,0,2.4,1.03,2.4,1.03s1.2-1.03,2.37-1.01C37.87,27.83,39.6,29.46,39.5,31.49z"/>
		<path class="st3" d="M35.84,27.81c-1.17-0.02-2.37,1.01-2.37,1.01s-0.02-0.01-0.04-0.03v10.1c0.01,0.01,0.02,0.01,0.02,0.01
			s5.89-4.47,6.05-7.41C39.6,29.46,37.87,27.83,35.84,27.81z"/>
	</g>
	<g>
		<path class="st4" d="M27.3,63.56c0.16-2.94,6.05-7.41,6.05-7.41s6.06,4.5,6.06,7.44c0,2.03-1.66,3.66-3.68,3.66
			c-1.14,0-2.4-1.03-2.4-1.03s-1.2,1.03-2.37,1.01C28.93,67.21,27.19,65.59,27.3,63.56z"/>
		<path class="st3" d="M30.96,67.24c1.17,0.02,2.37-1.01,2.37-1.01s0.02,0.01,0.04,0.03v-10.1c-0.01-0.01-0.02-0.01-0.02-0.01
			s-5.89,4.47-6.05,7.41C27.19,65.59,28.93,67.21,30.96,67.24z"/>
	</g>
	<g>
		<path class="st4" d="M13.65,21.33c-0.06,1.03-2.13,2.6-2.13,2.6s-2.13-1.58-2.13-2.62c0-0.71,0.58-1.29,1.29-1.29
			c0.4,0,0.84,0.36,0.84,0.36s0.42-0.36,0.83-0.35C13.08,20.05,13.69,20.62,13.65,21.33z"/>
		<path class="st3" d="M12.36,20.04c-0.41-0.01-0.83,0.35-0.83,0.35s-0.01,0-0.01-0.01v3.55c0,0,0.01,0,0.01,0s2.07-1.57,2.13-2.6
			C13.69,20.62,13.08,20.05,12.36,20.04z"/>
	</g>
	<g>
		<path class="st4" d="M53.52,74.78c0.06-1.05,2.17-2.66,2.17-2.66s2.17,1.61,2.17,2.67c0,0.72-0.59,1.31-1.32,1.31
			c-0.41,0-0.86-0.37-0.86-0.37s-0.43,0.37-0.85,0.36C54.1,76.09,53.48,75.51,53.52,74.78z"/>
		<path class="st3" d="M54.83,76.1c0.42,0.01,0.85-0.36,0.85-0.36s0.01,0,0.01,0.01v-3.62c0,0,0,0,0,0s-2.12,1.6-2.17,2.66
			C53.48,75.51,54.1,76.09,54.83,76.1z"/>
	</g>
</g>
</svg>
