<?xml version="1.0" encoding="utf-8"?>
<!-- Generator: Adobe Illustrator 26.0.3, SVG Export Plug-In . SVG Version: 6.00 Build 0)  -->
<svg version="1.1" id="Layer_1" xmlns="http://www.w3.org/2000/svg" xmlns:xlink="http://www.w3.org/1999/xlink" x="0px" y="0px"
	 viewBox="0 0 66 92" style="enable-background:new 0 0 66 92;" xml:space="preserve">
<style type="text/css">
	.st0{fill:#C9C9C9;}
	.st1{fill:#FFFFFF;}
	.st2{fill:#D66142;}
	.st3{fill:#333333;}
	.st4{fill:#757575;}
	.st5{fill:#EBB07A;}
	.st6{opacity:0.2;fill:#616161;}
	.st7{opacity:0.2;}
	.st8{fill:#616161;}
	.st9{fill:#9C4129;}
	.st10{fill:#ABABAB;}
	.st11{opacity:0.2;fill:#FFFFFF;}
	.st12{fill:#EBEBEB;}
	.st13{fill:#FFD675;}
</style>
<g>
	<g>
		<g>
			<g>
				<path class="st0" d="M10.02,87.29c-3.49,0.01-6.33-2.78-6.34-6.21L3.5,10.96C3.49,7.51,6.33,4.7,9.83,4.71l46.34,0.09
					c3.49,0.01,6.33,2.81,6.33,6.26v69.97c0,3.42-2.83,6.21-6.3,6.21L10.02,87.29z"/>
				<path class="st1" d="M10.24,87.2c-3.44,0-6.25-2.79-6.25-6.22V11.02c0-3.43,2.8-6.22,6.25-6.22H55.9c3.44,0,6.25,2.79,6.25,6.22
					v69.96c0,3.43-2.8,6.22-6.25,6.22H10.24z"/>
				<g>
					<path class="st2" d="M56.25,85.8H10.59c-2.67,0-4.84-2.16-4.84-4.82V11.03c0-2.56,2.03-4.64,3.12-5.04l0.16-0.06l45.91,0
						c4.54,0.35,6.16,2.86,6.16,5.09v69.96C61.09,83.64,58.92,85.8,56.25,85.8z M9.41,7.85c-0.49,0.31-1.75,1.6-1.75,3.18v69.96
						c0,1.6,1.31,2.91,2.93,2.91h45.67c1.61,0,2.93-1.3,2.93-2.91V11.03c0-1.77-1.63-2.96-4.36-3.18H9.41z"/>
				</g>
				<g>
					<path class="st3" d="M14.53,10.46c-0.19,0.32-0.42,0.56-0.7,0.73c-0.28,0.17-0.56,0.25-0.84,0.25c-0.09,0-0.41-0.07-0.96-0.21
						c-0.26-0.07-0.49-0.1-0.71-0.1c-0.13,0-0.27,0.02-0.4,0.05c-0.14,0.03-0.25,0.09-0.35,0.17h-0.1v-0.13
						c0.19-0.42,0.41-0.72,0.67-0.9c0.26-0.18,0.6-0.27,1.03-0.27c0.31,0,0.6,0.05,0.88,0.15c0.28,0.1,0.55,0.15,0.81,0.15
						c0.08,0,0.18,0,0.29-0.01c0.11-0.01,0.23-0.02,0.37-0.04V10.46z M14.56,15.77c0,0.59-0.22,1.07-0.67,1.43
						c-0.45,0.36-1.02,0.54-1.72,0.54c-0.43,0-0.79-0.08-1.08-0.25c-0.34-0.2-0.52-0.49-0.52-0.86c0-0.17,0.05-0.33,0.14-0.46
						c0.13-0.18,0.33-0.27,0.58-0.27c0.16,0,0.31,0.05,0.43,0.16c0.12,0.11,0.19,0.24,0.19,0.39c0,0.26-0.11,0.43-0.33,0.52
						c-0.22,0.09-0.33,0.15-0.33,0.19c0.04,0.08,0.08,0.14,0.12,0.17c0.13,0.11,0.31,0.17,0.55,0.17c0.24,0,0.45-0.06,0.62-0.17
						c0.17-0.11,0.26-0.27,0.26-0.48v-5.1c0.31-0.1,0.61-0.2,0.88-0.3c0.27-0.1,0.51-0.25,0.72-0.44h0.15V15.77z"/>
				</g>
				<g>
					<path class="st3" d="M52.52,77c0-0.59,0.22-1.07,0.67-1.43c0.45-0.36,1.02-0.54,1.72-0.54c0.43,0,0.79,0.08,1.08,0.25
						c0.34,0.2,0.52,0.49,0.52,0.86c0,0.17-0.05,0.33-0.14,0.46c-0.13,0.18-0.33,0.27-0.58,0.27c-0.16,0-0.31-0.05-0.43-0.16
						c-0.12-0.11-0.19-0.24-0.19-0.39c0-0.26,0.11-0.43,0.33-0.52c0.22-0.09,0.33-0.15,0.33-0.19c-0.04-0.08-0.08-0.14-0.12-0.17
						c-0.13-0.11-0.31-0.17-0.55-0.17c-0.24,0-0.45,0.06-0.62,0.17c-0.17,0.11-0.26,0.27-0.26,0.48v5.1c-0.31,0.1-0.61,0.2-0.88,0.3
						c-0.27,0.1-0.51,0.25-0.72,0.44h-0.15V77z M52.55,82.31c0.19-0.32,0.42-0.56,0.7-0.73c0.28-0.17,0.56-0.25,0.84-0.25
						c0.09,0,0.41,0.07,0.96,0.21c0.26,0.07,0.49,0.1,0.71,0.1c0.13,0,0.27-0.02,0.4-0.05c0.14-0.03,0.25-0.09,0.35-0.17h0.1v0.13
						c-0.19,0.42-0.41,0.72-0.67,0.9c-0.26,0.18-0.6,0.27-1.03,0.27c-0.31,0-0.6-0.05-0.88-0.15c-0.28-0.1-0.55-0.15-0.81-0.15
						c-0.08,0-0.18,0-0.29,0.01c-0.11,0.01-0.23,0.02-0.37,0.04V82.31z"/>
				</g>
			</g>
			<g>
				<g>
					<g>
						<g>
							<polygon class="st4" points="28.99,30.43 26.93,31.24 27.4,32.11 35.54,32.01 36.12,31.24 34.3,30.43 							"/>
							<g>
								<path class="st2" d="M38.49,17.54c-0.03,0.47-1.37,6.51-1.61,7.02c-1.49,3.22-5.35,1.5-5.35,1.5s-3.66,1.75-5.14-1.46
									c-0.26-0.55-1.82-6.61-1.82-7.11c0-2.33,1.9-4.21,4.23-4.21c1.31,0,2.77,1.18,2.77,1.18s1.38-1.18,2.72-1.16
									C36.61,13.34,38.61,15.22,38.49,17.54z"/>
								<rect x="28.99" y="27.88" class="st5" width="5.31" height="5.54"/>
								<path class="st6" d="M34.3,28.95v1.35c-0.65,0.62-1.39,1.01-2.17,1.01h-1c-0.77,0-1.49-0.39-2.14-0.99V29l0.46,0.73
									l0.12-1.85h4.12l0.12,1.85L34.3,28.95z"/>
								<path class="st5" d="M32.13,15.26h-0.5h-0.5c-2.62,0-4.75,1.79-4.75,4c0,0,0.02,5.42,0.06,5.67
									c0.36,2.34,2.32,5.95,4.68,5.95h0.5h0.5c2.36,0,4.32-3.61,4.68-5.95c0.04-0.26,0.06-5.67,0.06-5.67
									C36.87,17.05,34.75,15.26,32.13,15.26z"/>
								<g>
									<path class="st3" d="M28.58,21.68c-0.1,0.12-0.16,0.27-0.16,0.43c0,0.41,0.39,0.75,0.88,0.75c0.49,0,0.88-0.34,0.88-0.75
										c0-0.16-0.06-0.3-0.16-0.43H28.58z"/>
									<polygon class="st6" points="31.97,20.95 31.63,20.95 31.29,20.95 30.82,24.43 31.63,25.36 32.44,24.43 									"/>
									<path class="st3" d="M34.68,21.68c0.1,0.12,0.16,0.27,0.16,0.43c0,0.41-0.39,0.75-0.88,0.75c-0.49,0-0.88-0.34-0.88-0.75
										c0-0.16,0.06-0.3,0.16-0.43H34.68z"/>
								</g>
								<g class="st7">
									<rect x="30.67" y="27.11" class="st8" width="1.94" height="0.48"/>
								</g>
								<polygon class="st2" points="32.98,19.8 35.61,20.12 32.98,20.44 								"/>
								<polygon class="st2" points="30.27,20.44 27.7,20.12 30.27,19.8 								"/>
							</g>
							<path class="st2" d="M38.49,17.43c-0.03,0.47-0.17,0.96-0.41,1.47c-0.69-1.36-2.16-2.27-3.8-2.3
								c-1.34-0.02-2.72,1.15-2.72,1.15s-1.46-1.17-2.77-1.17c-1.68,0-3.14,0.98-3.82,2.4c-0.26-0.55-0.41-1.1-0.41-1.59
								c0-2.33,1.9-4.21,4.23-4.21c1.31,0,1.43,0.52,2.74,0.52c1.3,0,1.41-0.52,2.75-0.5C36.61,13.23,38.61,15.1,38.49,17.43z"/>
							<path class="st2" d="M30.48,28.28c1.05,0.3,1.16,2.15,1.16,2.15s0.12-1.87,1.18-2.15H30.48z"/>
							<path class="st2" d="M34.6,27.14c-0.01,0.21-0.08,0.42-0.18,0.65c-0.3-0.6-0.96-1.01-1.68-1.02
								c-0.59-0.01-1.85-0.01-2.43-0.01c-0.74,0-1.39,0.43-1.69,1.06c-0.12-0.25-0.18-0.48-0.18-0.71c0-1.03,0.84-1.86,1.87-1.86
								c0.58,0,1.21,0.87,1.21,0.87s0.62-0.87,1.22-0.86C33.78,25.28,34.66,26.11,34.6,27.14z"/>
							<path class="st4" d="M44.88,31.95l-2.01,1.88l-0.88,2.67c0,0,2.98-0.6,3-0.52L44.88,31.95z"/>
							<path class="st4" d="M18.59,31.95l2.01,1.88l0.88,2.67c0,0-2.98-0.6-3-0.52L18.59,31.95z"/>
							<path class="st9" d="M19.79,33.42l-0.28,0.56l-0.66,2.14c0,0,3.71-1.04,3.54-0.93L19.79,33.42z"/>
							<polygon class="st10" points="47.29,39.29 45.29,39.89 41.67,40.97 41.44,41.03 36.81,42.42 36.68,42.46 36.39,42.54 
								34.98,42.96 34.43,43.13 32.67,43.66 31.79,43.92 28.38,44.94 27.66,45.15 27.5,45.19 26.61,45.46 26.05,45.63 24.43,46.11 
								21.99,46.84 21.99,46.15 21.97,44.14 20.37,46.86 20.37,47.32 18.67,47.83 14.59,49.05 14.59,43.33 14.6,43.03 14.6,43.01 
								14.6,43 14.65,42.15 14.78,41.83 15.59,39.92 16.39,38.02 17.24,35.99 17.57,35.22 17.93,34.37 18.53,34.22 19.52,33.99 
								19.56,33.97 19.64,33.96 19.76,33.92 19.83,33.91 20.04,33.86 20.33,33.79 20.33,33.79 20.36,33.78 20.51,33.74 23.22,33.09 
								23.51,33.02 23.63,32.99 23.92,32.91 26.09,32.39 26.13,32.38 26.38,32.32 27.2,32.12 27.38,32.07 28.99,31.69 34.3,31.69 
								35.56,32 35.86,32.07 36.03,32.11 37.96,32.58 39.69,33 42.92,33.78 43.1,33.83 43.85,34.01 44.88,34.26 44.94,34.27 
								45.33,34.37 46.13,36.38 46.93,38.39 47.16,38.95 							"/>
							<polygon class="st11" points="37.96,32.58 32.38,38.17 32.14,38.4 31.19,39.35 31.18,39.36 29.64,40.9 29.56,40.98 
								26.88,43.66 26.06,44.48 25.68,44.86 25.27,45.27 24.43,46.11 21.99,46.84 21.99,46.15 24.49,43.66 24.9,43.24 25.19,42.95 
								26.05,42.09 26.31,41.83 26.57,41.57 26.69,41.46 29.84,38.3 29.89,38.25 30.01,38.13 30.02,38.13 30.92,37.22 31.15,36.99 
								36.03,32.11 							"/>
							<polygon class="st11" points="44.88,34.26 41.52,37.61 36.76,42.37 36.68,42.46 36.39,42.54 34.98,42.96 34.43,43.13 
								32.67,43.66 31.79,43.92 28.38,44.94 27.66,45.15 27.5,45.19 27.63,45.07 28.13,44.56 30.53,42.17 30.77,41.93 32.06,40.64 
								32.21,40.48 33.47,39.22 39.69,33 42.92,33.78 43.1,33.83 43.85,34.01 							"/>
							<path class="st6" d="M36.81,42.42l-0.13,0.04l-0.28,0.08l-1.41,0.42l-0.55,0.16l-1.77,0.53l-0.88,0.26l-3.41,1.02l-0.71,0.21
								l-0.16,0.05l-0.89,0.27l-0.56,0.17l-0.37-0.77l-0.78-1.62l-2.51-5.22l-1.21-2.54l-0.12-0.24l0,0l-0.68-1.41v0l-0.02-0.05
								l0.15-0.03l2.71-0.66l0.29-0.07l0.12-0.03l0.29-0.08l2.17-0.52l0.04-0.01l0.25-0.06c0.77,0.79,2.58,2.56,4.77,4.67
								c0.39,0.38,0.81,0.78,1.22,1.18c0.36,0.35,0.72,0.7,1.1,1.06c1.09,1.04,2.2,2.12,3.29,3.15
								C36.78,42.39,36.79,42.4,36.81,42.42z"/>
							<path class="st2" d="M31.79,43.92l-3.41,1.02l-0.71,0.21l-0.16,0.05l-0.89,0.27l-0.55-0.98l-0.86-1.53l-2.79-4.93l-0.99-1.75
								l-0.41-0.73l-0.95-1.68l-0.24-0.43l0.29-0.08l5.62-1.4c0.06,0.08,0.19,0.23,0.39,0.44c0.79,0.85,2.64,2.68,4.83,4.83
								c0.4,0.39,0.8,0.79,1.22,1.18c0.36,0.35,0.72,0.71,1.09,1.06c1.05,1.02,2.12,2.07,3.17,3.07l-1.41,0.42l-0.55,0.16
								l-1.77,0.53L31.79,43.92z"/>
							<polygon class="st12" points="26.93,31.24 27.2,32.12 31.4,34.56 31.28,31.69 							"/>
							<polygon class="st12" points="36.12,31.24 35.84,32.12 31.64,34.56 31.76,31.69 							"/>
							<path class="st6" d="M31.19,39.35l0.78,0.83C31.69,39.89,31.42,39.62,31.19,39.35c-0.47-0.47-0.87-0.89-1.17-1.22
								c-0.29-0.31-0.51-0.54-0.62-0.66l0.63,0.66L31.19,39.35z"/>
							<path class="st6" d="M32.21,40.48c0.93,0.88,1.88,1.73,2.77,2.48l-0.55,0.16l-2.37-2.49l-1.05-1.11l-0.12-0.12l-1.05-1.11
								l-2.09-2.2l-0.05-0.06c0.02,0.02,0.03,0.04,0.06,0.06c0.65,0.67,1.37,1.4,2.13,2.15c0.35,0.35,0.72,0.71,1.09,1.06
								c0.04,0.04,0.08,0.08,0.12,0.12C31.47,39.79,31.84,40.14,32.21,40.48z"/>
							<polygon class="st6" points="28.38,44.94 27.66,45.15 27.63,45.07 26.88,43.66 26.05,42.09 25.13,40.34 24.03,38.38 
								26.31,41.83 27.27,43.27 28.13,44.56 							"/>
							<polygon class="st6" points="32.67,43.66 31.79,43.92 31.14,42.93 30.53,42.17 29.56,40.98 29.1,40.4 29.64,40.9 
								30.77,41.93 							"/>
							<polygon class="st6" points="21.97,44.14 20.37,46.86 20.37,47.32 18.67,47.83 17.43,47.58 19.13,46.8 							"/>
							<polygon class="st6" points="47.29,39.29 45.29,39.89 41.67,40.97 41.44,41.03 41.22,38.32 41.52,37.61 41.99,36.5 
								43.1,33.83 43.85,34.01 44.88,34.26 44.94,34.27 45.33,34.37 46.13,36.38 46.93,38.39 47.16,38.95 							"/>
							<path class="st10" d="M45.29,39.89l-3.61,1.08l-0.02-2.57l0.92-1.84l0.1-0.2l1.17-2.35l1.03-2.06c0,0,2.62,3.3,2.7,3.24
								c0.02,0,0.09,0.39,0.2,0.99c0.12,0.73,0.29,1.78,0.45,2.84l-0.84,0.25l-0.09,0.03L45.29,39.89z"/>
							<path class="st6" d="M22.04,38.61l-0.07,4.56l-6.21-1.05c0,0-0.01-0.25,0.03-0.5l1.78-6.4l0.36-0.86l1.64-0.39l0.08-0.02
								l0.12-0.03l0.06-0.01L22.04,38.61z"/>
							<path class="st10" d="M21.97,43.7l-5.87-0.53l-1.5-0.14h0c0,0,0-0.01,0-0.02c0,0,0,0,0-0.01c0.02-0.12,0.08-0.56,0.18-1.18
								c0.33-2.2,1-6.64,1.07-6.64c0.08,0.06,2.7-3.24,2.7-3.24l0.02,0.04l0.99,1.99l2.21,4.43L21.97,43.7z"/>
							<path class="st11" d="M48.23,39.01L48.23,39.01l-0.02,0.01l-0.83,0.24l-0.09,0.03l-0.11,0.03l-0.31,0.1l-1.58,0.47l0.84-3.51
								l0.2-0.86l-1.45-3.57c0.15,0.19,2.57,3.24,2.7,3.24c0.02,0,0.09,0.39,0.2,0.99c0.01,0.05,0.02,0.1,0.03,0.16
								c0.02,0.11,0.04,0.22,0.06,0.34c0.02,0.14,0.04,0.29,0.07,0.44c0.01,0.11,0.03,0.24,0.06,0.36c0,0.04,0.01,0.08,0.02,0.13
								l0.06,0.37c0.01,0.08,0.03,0.17,0.04,0.25c0.01,0.03,0.01,0.06,0.01,0.1C48.16,38.55,48.19,38.78,48.23,39.01z"/>
							<path class="st11" d="M18.57,31.99l-1.43,3.53l0.11,0.46l1.24,5.16l-2.38,2.03l-0.52,0.45c0,0-0.77,3.14-0.86,3.24
								c-0.02,0.02-0.06,0.01-0.13-0.01v-3.51l0.01-0.3c0,0,0-0.01,0-0.02c0-0.01,0-0.01,0-0.01l0.04-0.86l0.14-0.32v-0.02
								c0.04-0.24,0.08-0.5,0.12-0.79c0.2-1.36,0.47-3.13,0.68-4.36c0.02-0.12,0.03-0.22,0.05-0.33c0.11-0.69,0.2-1.15,0.22-1.15
								c0.13,0,2.7-3.24,2.7-3.24h0.03L18.57,31.99z"/>
							<g>
								<path class="st2" d="M16.81,38.21c-0.08,0.58-1.89,2.85-1.89,2.85s-0.01-0.02-0.01-0.04c0.2-1.36,0.47-3.13,0.68-4.36
									c0.2-0.05,0.43-0.08,0.53-0.06C16.6,36.66,16.92,37.39,16.81,38.21z"/>
								<path class="st2" d="M48.21,39.02l-0.83,0.24l-0.09,0.03l-0.11,0.03c-0.32-0.47-0.57-0.9-0.6-1.11
									c-0.11-0.83,0.2-1.55,0.69-1.62c0.11-0.01,0.36,0.02,0.59,0.08c0.01,0,0.01,0.01,0.02,0.01l0.11,0.79l0.02,0.13l0.06,0.37
									L48.21,39.02z"/>
							</g>
							<g>
								<path class="st6" d="M26.99,33.82c0.73,1.36-0.95,5.09-0.95,5.09s-3.85-1.43-4.24-2.88c-0.24-0.88,0.21-1.82,0.98-2.16
									c0.44-0.19,1.1-0.02,1.1-0.02s0.31-0.6,0.77-0.8C25.47,32.7,26.54,32.99,26.99,33.82z"/>
								<path class="st13" d="M26.95,34.3c0.47,1.23-1.02,4.08-1.02,4.08s-3.18-0.8-3.71-2.01c-0.37-0.83-0.02-1.79,0.77-2.13
									c0.44-0.2,1.12,0.01,1.12,0.01s0.28-0.63,0.74-0.82C25.65,33.08,26.63,33.45,26.95,34.3z"/>
								<path class="st6" d="M25.52,37.47c-1.2-0.38-2.41-0.97-2.6-1.41c-0.1-0.22-0.11-0.46-0.03-0.68
									c0.07-0.2,0.22-0.36,0.41-0.45c0,0,0.05-0.02,0.17-0.02c0.18,0,0.37,0.04,0.43,0.06l0.63,0.18l0.28-0.6
									c0.09-0.18,0.25-0.39,0.35-0.43c0.1-0.04,0.21-0.06,0.32-0.06c0.26,0,0.62,0.13,0.76,0.51
									C26.43,35.08,25.99,36.42,25.52,37.47z"/>
							</g>
						</g>
					</g>
					<path class="st6" d="M48.23,39.01c-0.02-0.11-0.04-0.23-0.06-0.35c-0.03-0.18-0.06-0.37-0.09-0.55
						c-0.01-0.05-0.02-0.1-0.02-0.15l-0.06-0.37c-0.01-0.04-0.02-0.09-0.02-0.13l-0.11-0.79c-0.01,0-0.01-0.01-0.02-0.01
						c-0.02-0.12-0.04-0.23-0.06-0.34c-0.01-0.06-0.02-0.11-0.03-0.16c-0.03-0.14-0.05-0.27-0.07-0.39
						c-0.02-0.13-0.05-0.25-0.06-0.34c-0.03-0.16-0.05-0.26-0.06-0.26c-0.12,0-2.54-3.05-2.7-3.24l0,0.01c0,0-0.01-0.01-0.01-0.01
						l-1.96,1.84L39.69,33l-1.73-0.42l-1.93-0.47l-0.17-0.04l0,0l0.26-0.83l-1.82-0.81v-0.56c1.31-1.24,2.27-3.37,2.52-4.93
						c0-0.03,0.01-0.13,0.01-0.28c0.02-0.03,0.03-0.06,0.05-0.09c0.24-0.51,1.59-6.56,1.61-7.02c0-0.04,0-0.07,0-0.11c0,0,0,0,0,0
						c0.12-2.33-1.87-4.2-4.21-4.23c-1.34-0.02-1.45,0.49-2.73,0.5v30.3l0.25-0.07l0.88-0.26l1.77-0.53l0.55-0.16l1.41-0.42
						l0.28-0.08l0.13-0.04l4.64-1.38l0.23-0.07l3.61-1.08v0l1.58-0.47l0.1-0.03l0.27-0.08l0.06-0.02l0.04-0.02l0.05-0.02l0.67-0.2
						l0.15-0.05l0,0L48.23,39.01C48.23,39.01,48.23,39.01,48.23,39.01L48.23,39.01z"/>
				</g>
				<g>
					<g>
						<g>
							<polygon class="st4" points="33.83,61.74 35.89,60.93 35.42,60.06 27.28,60.16 26.7,60.93 28.53,61.74 							"/>
							<g>
								<path class="st2" d="M24.33,74.63c0.03-0.46,1.37-6.51,1.61-7.02c1.49-3.22,5.35-1.5,5.35-1.5s3.66-1.75,5.14,1.46
									c0.26,0.55,1.82,6.61,1.82,7.11c0,2.33-1.9,4.21-4.23,4.21c-1.31,0-2.77-1.18-2.77-1.18s-1.38,1.18-2.72,1.16
									C26.21,78.83,24.21,76.96,24.33,74.63z"/>
								<rect x="28.53" y="58.75" class="st5" width="5.31" height="5.54"/>
								<path class="st6" d="M28.53,63.22v-1.35c0.65-0.62,1.39-1.01,2.17-1.01h1c0.77,0,1.49,0.39,2.14,0.99v1.33l-0.46-0.73
									l-0.12,1.85h-4.12l-0.12-1.85L28.53,63.22z"/>
								<path class="st5" d="M30.69,76.92h0.5h0.5c2.62,0,4.75-1.79,4.75-4c0,0-0.02-5.42-0.06-5.67c-0.36-2.34-2.32-5.95-4.68-5.95
									h-0.5h-0.5c-2.36,0-4.32,3.61-4.68,5.95c-0.04,0.26-0.06,5.67-0.06,5.67C25.95,75.12,28.07,76.92,30.69,76.92z"/>
								<g>
									<path class="st3" d="M34.24,70.5c0.1-0.12,0.16-0.27,0.16-0.42c0-0.41-0.39-0.75-0.88-0.75c-0.49,0-0.88,0.34-0.88,0.75
										c0,0.16,0.06,0.3,0.16,0.42H34.24z"/>
									<polygon class="st6" points="30.85,71.22 31.19,71.22 31.53,71.22 32,67.75 31.19,66.81 30.38,67.75 									"/>
									<path class="st3" d="M28.15,70.5c-0.1-0.12-0.16-0.27-0.16-0.42c0-0.41,0.39-0.75,0.88-0.75c0.49,0,0.88,0.34,0.88,0.75
										c0,0.16-0.06,0.3-0.16,0.42H28.15z"/>
								</g>
								<g class="st7">
									<rect x="30.21" y="64.58" class="st8" width="1.94" height="0.48"/>
								</g>
								<polygon class="st2" points="29.84,72.38 27.21,72.06 29.84,71.74 								"/>
								<polygon class="st2" points="32.55,71.74 35.12,72.06 32.55,72.38 								"/>
							</g>
							<path class="st2" d="M24.33,74.75c0.03-0.47,0.17-0.96,0.41-1.47c0.69,1.36,2.16,2.27,3.8,2.3c1.34,0.02,2.72-1.15,2.72-1.15
								s1.46,1.17,2.77,1.17c1.68,0,3.14-0.98,3.82-2.4c0.26,0.55,0.41,1.1,0.41,1.59c0,2.33-1.9,4.21-4.23,4.21
								c-1.31,0-1.43-0.52-2.74-0.52s-1.41,0.52-2.75,0.5C26.21,78.95,24.21,77.07,24.33,74.75z"/>
							<path class="st2" d="M32.34,63.89c-1.05-0.3-1.16-2.15-1.16-2.15s-0.12,1.87-1.18,2.15H32.34z"/>
							<path class="st2" d="M28.22,65.04c0.01-0.21,0.08-0.42,0.18-0.65c0.3,0.6,0.96,1.01,1.68,1.02c0.59,0.01,1.85,0.01,2.43,0.01
								c0.74,0,1.39-0.43,1.69-1.06c0.12,0.25,0.18,0.48,0.18,0.71c0,1.03-0.84,1.86-1.87,1.86c-0.58,0-1.21-0.87-1.21-0.87
								s-0.62,0.87-1.22,0.86C29.04,66.89,28.16,66.07,28.22,65.04z"/>
							<path class="st4" d="M17.94,60.23l2.01-1.88l0.88-2.67c0,0-2.98,0.6-3,0.52L17.94,60.23z"/>
							<path class="st4" d="M44.23,60.23l-2.01-1.88l-0.88-2.67c0,0,2.98,0.6,3,0.52L44.23,60.23z"/>
							<path class="st9" d="M43.03,58.75l0.28-0.56l0.66-2.14c0,0-3.71,1.04-3.54,0.93L43.03,58.75z"/>
							<polygon class="st10" points="15.53,52.88 17.53,52.29 21.15,51.21 21.38,51.14 26.01,49.76 26.14,49.72 26.43,49.63 
								27.84,49.21 28.39,49.05 30.15,48.52 31.03,48.26 34.44,47.24 35.16,47.03 35.32,46.98 36.21,46.71 36.77,46.55 38.39,46.06 
								40.83,45.33 40.83,46.02 40.85,48.03 42.45,45.32 42.45,44.85 44.15,44.34 48.23,43.13 48.23,48.85 48.22,49.14 48.22,49.16 
								48.22,49.17 48.18,50.03 48.04,50.35 47.24,52.25 46.43,54.15 45.58,56.19 45.25,56.95 44.89,57.81 44.3,57.95 43.31,58.19 
								43.26,58.2 43.18,58.22 43.06,58.25 43,58.26 42.78,58.32 42.49,58.39 42.49,58.39 42.46,58.4 42.31,58.43 39.6,59.09 
								39.31,59.16 39.19,59.19 38.9,59.26 36.73,59.78 36.69,59.79 36.44,59.86 35.62,60.06 35.44,60.1 33.83,60.49 28.53,60.49 
								27.26,60.18 26.96,60.1 26.79,60.06 24.86,59.59 23.13,59.17 19.9,58.39 19.72,58.35 18.97,58.17 17.94,57.92 17.88,57.9 
								17.49,57.81 16.69,55.8 15.89,53.78 15.66,53.22 							"/>
							<polygon class="st11" points="24.86,59.59 30.44,54.01 30.68,53.77 31.63,52.82 31.64,52.81 33.18,51.28 33.26,51.2 
								35.94,48.51 36.76,47.69 37.14,47.31 37.55,46.9 38.39,46.06 40.83,45.33 40.83,46.02 38.33,48.51 37.92,48.93 37.63,49.22 
								36.77,50.09 36.51,50.35 36.25,50.61 36.14,50.72 32.98,53.87 32.93,53.92 32.81,54.04 32.8,54.05 31.9,54.95 31.67,55.19 
								26.79,60.06 							"/>
							<polygon class="st11" points="17.94,57.92 21.3,54.56 26.06,49.8 26.14,49.72 26.43,49.63 27.84,49.21 28.39,49.05 
								30.15,48.52 31.03,48.26 34.44,47.24 35.16,47.03 35.32,46.98 35.2,47.11 34.69,47.61 32.29,50.01 32.05,50.25 30.76,51.54 
								30.61,51.69 29.35,52.95 23.13,59.17 19.9,58.39 19.72,58.35 18.97,58.17 							"/>
							<path class="st6" d="M26.01,49.76l0.13-0.04l0.28-0.08l1.41-0.42l0.55-0.16l1.77-0.53l0.88-0.26l3.41-1.02l0.71-0.21
								l0.16-0.05l0.89-0.27l0.56-0.17l0.37,0.77l0.78,1.62l2.51,5.22l1.21,2.54l0.12,0.24l0,0l0.68,1.41v0.01l0.02,0.05l-0.15,0.03
								l-2.71,0.66l-0.29,0.07l-0.12,0.03l-0.29,0.08l-2.17,0.52l-0.04,0.01l-0.25,0.06c-0.77-0.79-2.58-2.56-4.77-4.67
								c-0.39-0.38-0.81-0.78-1.22-1.18c-0.36-0.35-0.72-0.7-1.1-1.06c-1.09-1.04-2.2-2.12-3.29-3.15
								C26.05,49.79,26.03,49.77,26.01,49.76z"/>
							<path class="st2" d="M31.03,48.26l3.41-1.02l0.71-0.21l0.16-0.05l0.89-0.27l0.55,0.98l0.86,1.53l2.79,4.93l0.99,1.75
								l0.41,0.73l0.95,1.68l0.24,0.43l-0.29,0.08l-5.62,1.4c-0.06-0.08-0.19-0.23-0.39-0.44c-0.79-0.85-2.64-2.68-4.83-4.83
								c-0.4-0.39-0.8-0.79-1.21-1.18c-0.36-0.35-0.72-0.71-1.09-1.06c-1.05-1.02-2.12-2.07-3.17-3.07l1.41-0.42l0.55-0.16
								l1.77-0.53L31.03,48.26z"/>
							<polygon class="st12" points="35.89,60.93 35.62,60.05 31.42,57.61 31.54,60.49 							"/>
							<polygon class="st12" points="26.7,60.93 26.98,60.05 31.18,57.61 31.06,60.49 							"/>
							<path class="st6" d="M31.63,52.82l-0.78-0.83C31.13,52.28,31.4,52.56,31.63,52.82c0.47,0.47,0.87,0.89,1.17,1.22
								c0.29,0.31,0.51,0.54,0.62,0.66l-0.63-0.66L31.63,52.82z"/>
							<path class="st6" d="M30.61,51.69c-0.93-0.88-1.88-1.73-2.77-2.48l0.55-0.16l2.37,2.49l1.05,1.11l0.12,0.12l1.05,1.11
								l2.09,2.2l0.05,0.06c-0.02-0.02-0.03-0.04-0.06-0.06c-0.65-0.67-1.37-1.4-2.13-2.15c-0.35-0.35-0.72-0.71-1.09-1.06
								c-0.04-0.04-0.08-0.08-0.12-0.12C31.35,52.39,30.98,52.04,30.61,51.69z"/>
							<polygon class="st6" points="34.44,47.24 35.16,47.03 35.2,47.11 35.94,48.51 36.77,50.09 37.69,51.83 38.8,53.79 
								36.51,50.35 35.55,48.91 34.69,47.61 							"/>
							<polygon class="st6" points="30.15,48.52 31.03,48.26 31.68,49.24 32.29,50.01 33.26,51.2 33.72,51.77 33.18,51.28 
								32.05,50.25 							"/>
							<polygon class="st6" points="40.85,48.03 42.45,45.32 42.45,44.85 44.15,44.34 45.39,44.59 43.69,45.37 							"/>
							<polygon class="st6" points="15.53,52.88 17.53,52.29 21.15,51.21 21.38,51.14 21.6,53.85 21.3,54.56 20.83,55.68 
								19.72,58.35 18.97,58.17 17.94,57.92 17.88,57.9 17.49,57.81 16.69,55.8 15.89,53.78 15.66,53.22 							"/>
							<path class="st10" d="M17.53,52.29l3.61-1.08l0.02,2.57l-0.92,1.84l-0.1,0.2l-1.17,2.35l-1.03,2.06c0,0-2.62-3.3-2.7-3.24
								c-0.02,0-0.09-0.39-0.2-0.99c-0.12-0.73-0.29-1.78-0.45-2.84l0.84-0.25l0.09-0.03L17.53,52.29z"/>
							<path class="st6" d="M40.78,53.56L40.85,49l6.21,1.05c0,0,0.01,0.25-0.03,0.5l-1.78,6.4l-0.36,0.86l-1.64,0.39l-0.08,0.02
								l-0.12,0.03L43,58.26L40.78,53.56z"/>
							<path class="st10" d="M40.85,48.48L46.72,49l1.5,0.14h0c0,0,0,0.01,0,0.02c0,0,0,0,0,0.01c-0.02,0.12-0.08,0.56-0.18,1.18
								c-0.33,2.2-1,6.64-1.07,6.64c-0.08-0.06-2.7,3.24-2.7,3.24l-0.02-0.04l-0.99-1.99l-2.21-4.43L40.85,48.48z"/>
							<path class="st11" d="M14.59,53.16L14.59,53.16l0.02-0.01l0.83-0.24l0.09-0.03l0.11-0.03l0.31-0.1l1.58-0.47l-0.84,3.51
								l-0.2,0.86l1.45,3.57c-0.15-0.19-2.57-3.24-2.7-3.24c-0.02,0-0.09-0.39-0.2-0.99c-0.01-0.05-0.02-0.1-0.03-0.16
								c-0.02-0.11-0.04-0.22-0.06-0.34c-0.02-0.14-0.04-0.29-0.07-0.44c-0.01-0.11-0.03-0.24-0.06-0.36c0-0.04-0.01-0.08-0.02-0.13
								l-0.06-0.37c-0.01-0.08-0.03-0.17-0.04-0.25c-0.01-0.03-0.01-0.06-0.01-0.1C14.66,53.63,14.63,53.39,14.59,53.16z"/>
							<path class="st11" d="M44.25,60.19l1.43-3.53l-0.11-0.46l-1.24-5.16L46.72,49l0.52-0.45c0,0,0.77-3.14,0.86-3.24
								c0.02-0.02,0.06-0.01,0.13,0.01v3.51l-0.01,0.3c0,0,0,0.01,0,0.02c0,0.01,0,0.01,0,0.01l-0.04,0.86l-0.14,0.32v0.02
								c-0.04,0.24-0.08,0.5-0.12,0.79c-0.2,1.36-0.47,3.13-0.68,4.36c-0.02,0.12-0.03,0.22-0.05,0.33
								c-0.11,0.69-0.2,1.15-0.22,1.15c-0.13,0-2.7,3.24-2.7,3.24h-0.03L44.25,60.19z"/>
							<g>
								<path class="st2" d="M46.01,53.96c0.08-0.58,1.89-2.85,1.89-2.85s0.01,0.02,0.01,0.04c-0.2,1.36-0.47,3.13-0.68,4.36
									c-0.2,0.05-0.43,0.08-0.53,0.06C46.22,55.51,45.9,54.79,46.01,53.96z"/>
								<path class="st2" d="M14.61,53.16l0.83-0.24l0.09-0.03l0.11-0.03c0.32,0.47,0.57,0.9,0.6,1.11c0.11,0.83-0.2,1.55-0.69,1.62
									c-0.11,0.01-0.36-0.02-0.59-0.08c-0.01,0-0.01-0.01-0.02-0.01l-0.11-0.79l-0.02-0.13l-0.06-0.37L14.61,53.16z"/>
							</g>
							<g>
								<path class="st6" d="M35.83,58.35c-0.73-1.36,0.95-5.09,0.95-5.09s3.85,1.44,4.24,2.88c0.24,0.88-0.21,1.82-0.98,2.16
									c-0.44,0.19-1.1,0.02-1.1,0.02s-0.31,0.6-0.77,0.8C37.35,59.48,36.28,59.19,35.83,58.35z"/>
								<path class="st13" d="M35.87,57.87c-0.47-1.23,1.02-4.08,1.02-4.08s3.18,0.8,3.71,2.01c0.37,0.83,0.02,1.79-0.77,2.13
									c-0.44,0.2-1.12-0.01-1.12-0.01s-0.28,0.63-0.74,0.82C37.17,59.09,36.2,58.72,35.87,57.87z"/>
								<path class="st6" d="M37.3,54.7c1.2,0.38,2.41,0.97,2.6,1.41c0.1,0.22,0.11,0.46,0.03,0.68c-0.07,0.2-0.22,0.36-0.41,0.45
									c0,0-0.05,0.02-0.17,0.02c-0.18,0-0.37-0.04-0.43-0.06l-0.63-0.18l-0.28,0.6c-0.09,0.18-0.25,0.39-0.35,0.43
									c-0.1,0.04-0.21,0.06-0.32,0.06c-0.26,0-0.62-0.13-0.76-0.51C36.39,57.1,36.83,55.75,37.3,54.7z"/>
							</g>
						</g>
					</g>
					<path class="st6" d="M14.59,53.16c0.02,0.11,0.04,0.23,0.06,0.35c0.03,0.18,0.06,0.37,0.09,0.55c0.01,0.05,0.02,0.1,0.02,0.15
						l0.06,0.37c0.01,0.04,0.02,0.09,0.02,0.13l0.11,0.79c0.01,0,0.01,0.01,0.02,0.01c0.02,0.12,0.04,0.23,0.06,0.34
						c0.01,0.06,0.02,0.11,0.03,0.16c0.03,0.14,0.05,0.27,0.07,0.39c0.02,0.13,0.05,0.25,0.06,0.34c0.03,0.16,0.05,0.26,0.06,0.26
						c0.12,0,2.54,3.05,2.7,3.24l0-0.01c0,0,0.01,0.01,0.01,0.01l1.96-1.84l3.22,0.78l1.73,0.42l1.93,0.47l0.17,0.04l0,0l-0.26,0.83
						l1.82,0.81v0.56c-1.31,1.24-2.27,3.37-2.52,4.93c0,0.03-0.01,0.13-0.01,0.28c-0.02,0.03-0.03,0.06-0.05,0.09
						c-0.24,0.51-1.59,6.56-1.61,7.02c0,0.04,0,0.07,0,0.11c0,0,0,0,0,0c-0.12,2.33,1.87,4.2,4.21,4.23
						c1.34,0.02,1.45-0.49,2.73-0.5v-30.3l-0.25,0.07l-0.88,0.26l-1.77,0.53l-0.55,0.16l-1.41,0.42l-0.28,0.08l-0.13,0.04
						l-4.64,1.38l-0.23,0.07l-3.61,1.08v0l-1.58,0.47l-0.1,0.03l-0.27,0.08l-0.06,0.02l-0.04,0.02l-0.05,0.02l-0.67,0.2l-0.15,0.05
						l0,0L14.59,53.16C14.59,53.16,14.59,53.16,14.59,53.16L14.59,53.16z"/>
				</g>
			</g>
		</g>
	</g>
	<g>
		<path class="st2" d="M16.3,21.38c-0.1,1.91-3.93,4.81-3.93,4.81s-3.93-2.92-3.93-4.84c0-1.31,1.07-2.37,2.39-2.37
			c0.74,0,1.56,0.66,1.56,0.66s0.78-0.66,1.54-0.65C15.25,19,16.37,20.06,16.3,21.38z"/>
		<path class="st6" d="M13.93,18.99c-0.76-0.01-1.54,0.65-1.54,0.65s-0.01-0.01-0.03-0.02v6.56c0.01,0,0.01,0.01,0.01,0.01
			s3.83-2.9,3.93-4.81C16.37,20.06,15.25,19,13.93,18.99z"/>
	</g>
	<g>
		<path class="st2" d="M50.5,70.94c0.1-1.91,3.93-4.81,3.93-4.81s3.93,2.92,3.93,4.84c0,1.31-1.07,2.37-2.39,2.37
			c-0.74,0-1.56-0.66-1.56-0.66s-0.78,0.66-1.54,0.65C51.56,73.31,50.43,72.25,50.5,70.94z"/>
		<path class="st6" d="M52.87,73.33c0.76,0.01,1.54-0.65,1.54-0.65s0.01,0.01,0.03,0.02v-6.56c-0.01,0-0.01-0.01-0.01-0.01
			s-3.83,2.9-3.93,4.81C50.43,72.25,51.56,73.31,52.87,73.33z"/>
	</g>
</g>
</svg>
