<?xml version="1.0" encoding="utf-8"?>
<!-- Generator: Adobe Illustrator 26.0.3, SVG Export Plug-In . SVG Version: 6.00 Build 0)  -->
<svg version="1.1" id="Layer_1" xmlns="http://www.w3.org/2000/svg" xmlns:xlink="http://www.w3.org/1999/xlink" x="0px" y="0px"
	 viewBox="0 0 66 92" style="enable-background:new 0 0 66 92;" xml:space="preserve">
<style type="text/css">
	.st0{fill:#C9C9C9;}
	.st1{fill:#FFFFFF;}
	.st2{fill:#333333;}
	.st3{opacity:0.2;fill:#616161;}
	.st4{fill:#D66142;}
</style>
<g>
	<g>
		<g>
			<g>
				<path class="st0" d="M9.09,88.96c-3.63,0.01-6.59-2.89-6.6-6.46L2.3,9.54C2.3,5.95,5.25,3.04,8.9,3.04L57.1,3.13
					c3.63,0.01,6.58,2.93,6.58,6.51v72.8c0,3.56-2.94,6.46-6.56,6.46L9.09,88.96z"/>
			</g>
			<path class="st1" d="M9.69,88.78c-3.58,0-6.5-2.91-6.5-6.48V9.52c0-3.57,2.92-6.48,6.5-6.48H57.2c3.58,0,6.5,2.9,6.5,6.48V82.3
				c0,3.57-2.91,6.48-6.5,6.48H9.69z"/>
			<g>
				<path class="st2" d="M53.62,80.5c0-0.25,0.06-0.51,0.19-0.78c0.19-0.4,0.52-0.84,0.99-1.31c0.4-0.39,0.71-0.67,0.94-0.83
					c0.37-0.25,0.75-0.38,1.15-0.38c0.33,0,0.63,0.07,0.89,0.22c0.3,0.17,0.45,0.39,0.45,0.68c0,0.2-0.19,0.53-0.57,1.01
					c-0.38,0.48-0.65,0.72-0.81,0.72c-0.14,0-0.21-0.05-0.21-0.15s0.11-0.29,0.33-0.56c0.1-0.12,0.15-0.22,0.15-0.29
					c-0.06-0.11-0.12-0.2-0.18-0.25c-0.19-0.17-0.45-0.25-0.77-0.25c-0.28,0-0.54,0.09-0.76,0.26c-0.28,0.21-0.41,0.5-0.41,0.86
					c0,0.26,0.07,0.5,0.22,0.71c0.11,0.16,0.26,0.29,0.43,0.38c0.23,0.11,0.47,0.17,0.73,0.18c0.25,0.01,0.38,0.06,0.38,0.17
					c0,0.05-0.16,0.27-0.47,0.66c-0.25,0.3-0.48,0.63-0.71,0.99c0.07,0.07,0.13,0.1,0.17,0.1h1.44c0.06,0,0.19-0.08,0.38-0.23
					c0.19-0.15,0.32-0.23,0.39-0.23c0.13,0,0.19,0.05,0.19,0.14c0,0.05-0.07,0.16-0.22,0.33c-0.15,0.17-0.36,0.39-0.64,0.67
					c-0.31,0.31-0.51,0.5-0.59,0.56c-0.16,0.13-0.29,0.19-0.39,0.19h-2.4c-0.02-0.02-0.03-0.03-0.04-0.05
					c-0.01-0.01-0.01-0.05-0.01-0.11c0-0.18,0.22-0.49,0.65-0.91c0.43-0.43,0.65-0.72,0.65-0.88c0-0.04-0.17-0.12-0.52-0.25
					c-0.23-0.09-0.43-0.2-0.59-0.35c-0.12-0.12-0.23-0.26-0.3-0.43C53.66,80.91,53.62,80.71,53.62,80.5z"/>
			</g>
			<g>
				<path class="st2" d="M14.39,12.12c0,0.25-0.06,0.51-0.19,0.78c-0.19,0.4-0.52,0.84-0.99,1.31c-0.4,0.4-0.71,0.67-0.94,0.83
					c-0.37,0.25-0.75,0.38-1.15,0.38c-0.33,0-0.63-0.07-0.89-0.22c-0.3-0.17-0.45-0.4-0.45-0.68c0-0.19,0.19-0.53,0.57-1.01
					c0.38-0.48,0.65-0.72,0.81-0.72c0.14,0,0.21,0.05,0.21,0.15c0,0.1-0.11,0.29-0.33,0.56c-0.1,0.13-0.15,0.22-0.15,0.29
					c0.06,0.11,0.12,0.2,0.18,0.25c0.19,0.17,0.45,0.25,0.77,0.25c0.28,0,0.54-0.09,0.76-0.26c0.28-0.21,0.41-0.5,0.41-0.86
					c0-0.26-0.07-0.5-0.22-0.71c-0.11-0.16-0.26-0.29-0.43-0.38c-0.23-0.11-0.48-0.17-0.73-0.18c-0.25-0.01-0.38-0.06-0.38-0.17
					c0-0.05,0.16-0.27,0.47-0.66c0.24-0.3,0.48-0.63,0.71-0.99c-0.07-0.07-0.13-0.1-0.17-0.1h-1.44c-0.06,0-0.19,0.08-0.38,0.23
					c-0.19,0.15-0.32,0.23-0.39,0.23c-0.13,0-0.19-0.05-0.19-0.14c0-0.05,0.07-0.16,0.22-0.33c0.15-0.17,0.36-0.39,0.64-0.67
					c0.31-0.31,0.51-0.5,0.59-0.56c0.16-0.12,0.29-0.19,0.39-0.19h2.4c0.02,0.02,0.03,0.03,0.04,0.05c0.01,0.01,0.01,0.05,0.01,0.11
					c0,0.18-0.22,0.49-0.65,0.91c-0.43,0.43-0.65,0.72-0.65,0.88c0,0.04,0.17,0.12,0.52,0.24c0.23,0.09,0.43,0.2,0.59,0.35
					c0.13,0.12,0.23,0.26,0.3,0.43C14.35,11.72,14.39,11.91,14.39,12.12z"/>
			</g>
		</g>
		<g>
			<g>
				<path class="st3" d="M39.88,17.51c0.01-1.49-6.47-7.85-6.47-7.85S33.4,9.66,33.4,9.67v15.28l3.02,0.01l-2.41-4.14
					c0.58,0.35,1.26,0.56,1.99,0.56C38.13,21.38,39.88,19.65,39.88,17.51z"/>
			</g>
			<g>
				<path class="st3" d="M39.88,46.2c0.01-1.49-6.47-7.85-6.47-7.85s-0.01,0.01-0.01,0.01v15.28l3.02,0.01l-2.41-4.14
					c0.58,0.35,1.26,0.56,1.99,0.56C38.13,50.07,39.88,48.34,39.88,46.2z"/>
			</g>
			<g>
				<path class="st3" d="M39.88,73.76c0.01,1.49-6.47,7.85-6.47,7.85s-0.01-0.01-0.01-0.01V66.32l3.02-0.01l-2.41,4.14
					c0.58-0.35,1.26-0.56,1.99-0.56C38.13,69.89,39.88,71.62,39.88,73.76z"/>
			</g>
			<g>
				<path class="st3" d="M13.58,20.05c0-0.4-1.73-2.09-1.73-2.09s0,0,0,0v4.08l0.81,0l-0.64-1.1c0.15,0.09,0.34,0.15,0.53,0.15
					C13.11,21.08,13.58,20.62,13.58,20.05z"/>
			</g>
			<g>
				<path class="st3" d="M54.41,72.7c0,0.4,1.73,2.09,1.73,2.09s0,0,0,0v-4.08l-0.8,0l0.64,1.11c-0.15-0.09-0.34-0.15-0.53-0.15
					C54.88,71.66,54.41,72.12,54.41,72.7z"/>
			</g>
		</g>
	</g>
	<g>
		<path class="st4" d="M39.54,14.67c-0.16,2.94-6.05,7.41-6.05,7.41s-6.06-4.5-6.06-7.44c0-2.03,1.66-3.66,3.68-3.66
			c1.14,0,2.4,1.03,2.4,1.03s1.2-1.03,2.37-1.01C37.91,11.01,39.65,12.64,39.54,14.67z"/>
		<path class="st3" d="M35.88,10.99C34.71,10.97,33.51,12,33.51,12s-0.02-0.01-0.04-0.03v10.1c0.01,0.01,0.02,0.01,0.02,0.01
			s5.89-4.47,6.05-7.41C39.65,12.64,37.91,11.01,35.88,10.99z"/>
	</g>
	<g>
		<path class="st4" d="M39.54,43.03c-0.16,2.94-6.05,7.41-6.05,7.41s-6.06-4.5-6.06-7.44c0-2.03,1.66-3.66,3.68-3.66
			c1.14,0,2.4,1.03,2.4,1.03s1.2-1.03,2.37-1.01C37.91,39.38,39.65,41.01,39.54,43.03z"/>
		<path class="st3" d="M35.88,39.35c-1.17-0.02-2.37,1.01-2.37,1.01s-0.02-0.01-0.04-0.03v10.1c0.01,0.01,0.02,0.01,0.02,0.01
			s5.89-4.47,6.05-7.41C39.65,41.01,37.91,39.38,35.88,39.35z"/>
	</g>
	<g>
		<path class="st4" d="M27.34,75.1c0.16-2.94,6.05-7.41,6.05-7.41s6.06,4.5,6.06,7.44c0,2.03-1.66,3.66-3.68,3.66
			c-1.14,0-2.4-1.03-2.4-1.03s-1.2,1.03-2.37,1.01C28.97,78.76,27.23,77.13,27.34,75.1z"/>
		<path class="st3" d="M31,78.78c1.17,0.02,2.37-1.01,2.37-1.01s0.02,0.01,0.04,0.03v-10.1c-0.01-0.01-0.02-0.01-0.02-0.01
			s-5.89,4.47-6.05,7.41C27.23,77.13,28.97,78.76,31,78.78z"/>
	</g>
	<g>
		<path class="st4" d="M13.61,19.72c-0.06,1.03-2.13,2.6-2.13,2.6s-2.13-1.58-2.13-2.62c0-0.71,0.58-1.29,1.29-1.29
			c0.4,0,0.84,0.36,0.84,0.36s0.42-0.36,0.83-0.35C13.03,18.43,13.65,19.01,13.61,19.72z"/>
		<path class="st3" d="M12.32,18.42c-0.41-0.01-0.83,0.35-0.83,0.35s-0.01,0-0.01-0.01v3.55c0,0,0.01,0,0.01,0s2.07-1.57,2.13-2.6
			C13.65,19.01,13.03,18.43,12.32,18.42z"/>
	</g>
	<g>
		<path class="st4" d="M53.48,73.17c0.06-1.05,2.17-2.66,2.17-2.66s2.17,1.61,2.17,2.67c0,0.72-0.59,1.31-1.32,1.31
			c-0.41,0-0.86-0.37-0.86-0.37s-0.43,0.37-0.85,0.36C54.06,74.48,53.44,73.9,53.48,73.17z"/>
		<path class="st3" d="M54.79,74.49c0.42,0.01,0.85-0.36,0.85-0.36s0.01,0,0.01,0.01v-3.62c0,0,0,0,0,0s-2.12,1.6-2.17,2.66
			C53.44,73.9,54.06,74.48,54.79,74.49z"/>
	</g>
</g>
</svg>
