<?xml version="1.0" encoding="utf-8"?>
<!-- Generator: Adobe Illustrator 26.0.3, SVG Export Plug-In . SVG Version: 6.00 Build 0)  -->
<svg version="1.1" id="Layer_1" xmlns="http://www.w3.org/2000/svg" xmlns:xlink="http://www.w3.org/1999/xlink" x="0px" y="0px"
	 viewBox="0 0 66 92" style="enable-background:new 0 0 66 92;" xml:space="preserve">
<style type="text/css">
	.st0{fill:#C9C9C9;}
	.st1{fill:#FFFFFF;}
	.st2{fill:#333333;}
	.st3{opacity:0.2;fill:#616161;}
	.st4{fill:#D66142;}
</style>
<g>
	<g>
		<g>
			<g>
				<path class="st0" d="M10,87.32c-3.49,0-6.34-2.78-6.35-6.21L3.47,10.93C3.46,7.48,6.31,4.67,9.81,4.68l46.38,0.09
					c3.49,0.01,6.33,2.82,6.33,6.26v70.03c0,3.42-2.83,6.21-6.31,6.22L10,87.32z"/>
			</g>
			<path class="st1" d="M10.58,87.15c-3.45,0-6.25-2.79-6.25-6.23V10.91c0-3.43,2.81-6.23,6.25-6.23h45.7
				c3.45,0,6.25,2.79,6.25,6.23v70.01c0,3.44-2.8,6.23-6.25,6.23H10.58z"/>
			<g>
				<path class="st2" d="M8.65,15.67c0,0.11-0.19,0.28-0.56,0.53c-0.42,0.27-0.78,0.41-1.08,0.41c-0.16,0-0.29-0.08-0.39-0.23
					c-0.07-0.11-0.11-0.22-0.11-0.31v-4.71c0-0.1-0.01-0.16-0.04-0.19c-0.03-0.03-0.07-0.05-0.13-0.05c-0.03,0-0.1,0.01-0.21,0.04
					c-0.11,0.02-0.2,0.03-0.25,0.02c-0.02-0.03-0.04-0.06-0.04-0.08c0-0.07,0.07-0.15,0.22-0.24c0.14-0.1,0.29-0.21,0.45-0.35
					c0.13-0.11,0.26-0.22,0.39-0.34c0.14-0.1,0.25-0.14,0.34-0.14c0.15,0,0.3,0.08,0.44,0.24c0.14,0.16,0.21,0.32,0.21,0.46v4.99
					c0.02,0.03,0.04,0.05,0.05,0.05c0.04,0.04,0.07,0.05,0.1,0.05c0.05-0.02,0.09-0.03,0.12-0.04c0.08-0.04,0.18-0.1,0.3-0.19h0.15
					L8.65,15.67z"/>
				<path class="st2" d="M14.4,13.38c0,0.36-0.07,0.7-0.22,1.03c-0.24,0.53-0.64,1-1.21,1.4c-0.33,0.23-0.56,0.38-0.71,0.46
					c-0.36,0.2-0.78,0.3-1.25,0.3c-0.7,0-1.27-0.3-1.71-0.91c-0.42-0.56-0.62-1.22-0.62-1.98c0-0.49,0.13-0.99,0.38-1.49
					c0.16-0.32,0.37-0.63,0.63-0.92c0.33-0.36,0.66-0.65,1-0.87c0.44-0.28,0.87-0.42,1.29-0.42c0.74,0,1.34,0.36,1.8,1.09
					C14.2,11.73,14.4,12.5,14.4,13.38z M13.03,14.37c0-0.44-0.06-0.87-0.18-1.29c-0.12-0.42-0.3-0.81-0.54-1.16
					c-0.25-0.39-0.5-0.67-0.73-0.83c-0.16-0.12-0.32-0.17-0.46-0.17c-0.34,0-0.62,0.16-0.83,0.48c-0.21,0.32-0.32,0.69-0.32,1.1
					c0,0.25,0.02,0.49,0.07,0.71c0.07,0.34,0.21,0.73,0.41,1.16c0.23,0.51,0.48,0.88,0.77,1.11c0.23,0.19,0.47,0.29,0.7,0.29
					c0.35,0,0.62-0.12,0.81-0.38C12.93,15.15,13.03,14.81,13.03,14.37z"/>
			</g>
			<g>
				<path class="st2" d="M58.6,76.94c0-0.11,0.19-0.28,0.56-0.53c0.42-0.27,0.78-0.41,1.08-0.41c0.16,0,0.29,0.08,0.39,0.23
					c0.07,0.11,0.11,0.22,0.11,0.31v4.71c0,0.1,0.01,0.16,0.04,0.19c0.03,0.03,0.07,0.05,0.13,0.05c0.03,0,0.1-0.01,0.21-0.04
					c0.11-0.02,0.19-0.03,0.25-0.02c0.03,0.03,0.04,0.06,0.04,0.08c0,0.07-0.07,0.15-0.22,0.24c-0.14,0.1-0.29,0.21-0.45,0.35
					c-0.13,0.11-0.26,0.22-0.39,0.33c-0.14,0.1-0.25,0.14-0.34,0.14c-0.15,0-0.3-0.08-0.44-0.24c-0.14-0.16-0.21-0.32-0.21-0.46
					V76.9c-0.03-0.03-0.04-0.05-0.05-0.05c-0.04-0.04-0.08-0.05-0.1-0.05c-0.05,0.02-0.09,0.03-0.12,0.04
					c-0.08,0.04-0.18,0.1-0.3,0.19h-0.15L58.6,76.94z"/>
				<path class="st2" d="M52.84,79.22c0-0.36,0.07-0.7,0.22-1.03c0.24-0.53,0.64-1,1.21-1.4c0.33-0.23,0.56-0.38,0.71-0.46
					c0.36-0.2,0.78-0.3,1.25-0.3c0.7,0,1.27,0.3,1.71,0.91c0.42,0.56,0.62,1.22,0.62,1.98c0,0.49-0.13,0.99-0.38,1.49
					c-0.16,0.32-0.37,0.63-0.63,0.92c-0.33,0.36-0.66,0.65-1,0.87c-0.44,0.28-0.87,0.42-1.29,0.42c-0.74,0-1.34-0.36-1.8-1.09
					C53.04,80.87,52.84,80.11,52.84,79.22z M54.21,78.23c0,0.44,0.06,0.87,0.18,1.29c0.12,0.42,0.3,0.81,0.54,1.16
					c0.25,0.39,0.5,0.67,0.73,0.83c0.16,0.12,0.32,0.17,0.46,0.17c0.34,0,0.62-0.16,0.83-0.48c0.21-0.32,0.32-0.69,0.32-1.1
					c0-0.25-0.02-0.49-0.07-0.71c-0.07-0.34-0.21-0.73-0.41-1.16c-0.23-0.51-0.48-0.88-0.77-1.11c-0.23-0.19-0.47-0.29-0.7-0.29
					c-0.35,0-0.62,0.12-0.81,0.38C54.31,77.45,54.21,77.8,54.21,78.23z"/>
			</g>
		</g>
		<g>
			<g>
				<path class="st3" d="M50.85,18.6c0.01-1.49-6.47-7.85-6.47-7.85s-0.01,0.01-0.01,0.01v15.28l3.02,0.01l-2.41-4.14
					c0.58,0.35,1.26,0.56,1.99,0.56C49.1,22.47,50.85,20.74,50.85,18.6z"/>
			</g>
			<g>
				<path class="st3" d="M50.85,36.94c0.01-1.49-6.47-7.85-6.47-7.85s-0.01,0.01-0.01,0.01v15.28l3.02,0.01l-2.41-4.14
					c0.58,0.35,1.26,0.56,1.99,0.56C49.1,40.81,50.85,39.08,50.85,36.94z"/>
			</g>
			<g>
				<path class="st3" d="M16.06,18.6c-0.01-1.49,6.47-7.85,6.47-7.85s0.01,0.01,0.01,0.01v15.28l-3.02,0.01l2.41-4.14
					c-0.58,0.35-1.26,0.56-1.99,0.56C17.81,22.47,16.06,20.74,16.06,18.6z"/>
			</g>
			<g>
				<path class="st3" d="M27.05,29.08c-0.01-1.49,6.47-7.85,6.47-7.85s0.01,0.01,0.01,0.01v15.28l-3.02,0.01l2.41-4.14
					c-0.58,0.35-1.26,0.56-1.99,0.56C28.79,32.95,27.05,31.22,27.05,29.08z"/>
			</g>
			<g>
				<path class="st3" d="M16.06,36.94c-0.01-1.49,6.47-7.85,6.47-7.85s0.01,0.01,0.01,0.01v15.28l-3.02,0.01l2.41-4.14
					c-0.58,0.35-1.26,0.56-1.99,0.56C17.81,40.81,16.06,39.08,16.06,36.94z"/>
			</g>
			<g>
				<path class="st3" d="M50.82,73.54c0.01,1.49-6.47,7.85-6.47,7.85s-0.01-0.01-0.01-0.01V66.1l3.02-0.01l-2.41,4.14
					c0.58-0.35,1.26-0.56,1.99-0.56C49.08,69.67,50.82,71.4,50.82,73.54z"/>
			</g>
			<g>
				<path class="st3" d="M50.82,55.2c0.01,1.49-6.47,7.85-6.47,7.85s-0.01-0.01-0.01-0.01V47.75l3.02-0.01l-2.41,4.14
					c0.58-0.35,1.26-0.56,1.99-0.56C49.08,51.33,50.82,53.06,50.82,55.2z"/>
			</g>
			<g>
				<path class="st3" d="M16.03,73.54c-0.01,1.49,6.47,7.85,6.47,7.85s0.01-0.01,0.01-0.01V66.1l-3.02-0.01l2.41,4.14
					c-0.58-0.35-1.26-0.56-1.99-0.56C17.78,69.67,16.03,71.4,16.03,73.54z"/>
			</g>
			<g>
				<path class="st3" d="M27.02,62.92c-0.01,1.49,6.47,7.85,6.47,7.85s0.01-0.01,0.01-0.01V55.48l-3.02-0.01l2.41,4.14
					c-0.58-0.35-1.26-0.56-1.99-0.56C28.76,59.05,27.02,60.78,27.02,62.92z"/>
			</g>
			<g>
				<path class="st3" d="M16.03,55.2c-0.01,1.49,6.47,7.85,6.47,7.85s0.01-0.01,0.01-0.01V47.75l-3.02-0.01l2.41,4.14
					c-0.58-0.35-1.26-0.56-1.99-0.56C17.78,51.33,16.03,53.06,16.03,55.2z"/>
			</g>
			<g>
				<path class="st3" d="M11.23,21.42c0-0.4-1.73-2.09-1.73-2.09s0,0,0,0v4.08l0.81,0L9.66,22.3c0.15,0.09,0.34,0.15,0.53,0.15
					C10.76,22.46,11.23,21.99,11.23,21.42z"/>
			</g>
			<g>
				<path class="st3" d="M56.28,71.38c0,0.4,1.73,2.09,1.73,2.09s0,0,0,0v-4.08l-0.8,0l0.64,1.1c-0.15-0.09-0.34-0.15-0.53-0.15
					C56.75,70.34,56.28,70.8,56.28,71.38z"/>
			</g>
		</g>
	</g>
	<g>
		<path class="st4" d="M11.59,20.63c-0.06,1.03-2.13,2.6-2.13,2.6s-2.13-1.58-2.13-2.62c0-0.71,0.58-1.29,1.29-1.29
			c0.4,0,0.84,0.36,0.84,0.36s0.42-0.36,0.83-0.35C11.01,19.34,11.63,19.92,11.59,20.63z"/>
		<path class="st3" d="M10.3,19.33c-0.41-0.01-0.83,0.35-0.83,0.35s-0.01,0-0.01-0.01v3.55c0,0,0.01,0,0.01,0s2.07-1.57,2.13-2.6
			C11.63,19.92,11.01,19.34,10.3,19.33z"/>
	</g>
	<g>
		<path class="st4" d="M16.49,16.55c0.16,2.94,6.05,7.41,6.05,7.41s6.06-4.5,6.06-7.44c0-2.03-1.66-3.66-3.68-3.66
			c-1.14,0-2.4,1.03-2.4,1.03s-1.2-1.03-2.37-1.01C18.12,12.89,16.38,14.52,16.49,16.55z"/>
		<path class="st3" d="M20.15,12.86c1.17-0.02,2.37,1.01,2.37,1.01s0.02-0.01,0.04-0.03v10.1c-0.01,0.01-0.02,0.01-0.02,0.01
			s-5.89-4.47-6.05-7.41C16.38,14.52,18.12,12.89,20.15,12.86z"/>
	</g>
	<g>
		<path class="st4" d="M27.36,25.07c0.16,2.94,6.05,7.41,6.05,7.41s6.06-4.5,6.06-7.44c0-2.03-1.66-3.66-3.68-3.66
			c-1.14,0-2.4,1.03-2.4,1.03s-1.2-1.03-2.37-1.01C28.99,21.41,27.25,23.04,27.36,25.07z"/>
		<path class="st3" d="M31.02,21.39c1.17-0.02,2.37,1.01,2.37,1.01s0.02-0.01,0.04-0.03v10.1c-0.01,0.01-0.02,0.01-0.02,0.01
			s-5.89-4.47-6.05-7.41C27.25,23.04,28.99,21.41,31.02,21.39z"/>
	</g>
	<g>
		<path class="st4" d="M50.42,16.55c-0.16,2.94-6.05,7.41-6.05,7.41s-6.06-4.5-6.06-7.44c0-2.03,1.66-3.66,3.68-3.66
			c1.14,0,2.4,1.03,2.4,1.03s1.2-1.03,2.37-1.01C48.79,12.89,50.53,14.52,50.42,16.55z"/>
		<path class="st3" d="M46.76,12.86c-1.17-0.02-2.37,1.01-2.37,1.01s-0.02-0.01-0.04-0.03v10.1c0.01,0.01,0.02,0.01,0.02,0.01
			s5.89-4.47,6.05-7.41C50.53,14.52,48.79,12.89,46.76,12.86z"/>
	</g>
	<g>
		<path class="st4" d="M16.49,34.71c0.16,2.94,6.05,7.41,6.05,7.41s6.06-4.5,6.06-7.44c0-2.03-1.66-3.66-3.68-3.66
			c-1.14,0-2.4,1.03-2.4,1.03s-1.2-1.03-2.37-1.01C18.12,31.06,16.38,32.69,16.49,34.71z"/>
		<path class="st3" d="M20.15,31.03c1.17-0.02,2.37,1.01,2.37,1.01s0.02-0.01,0.04-0.03v10.1c-0.01,0.01-0.02,0.01-0.02,0.01
			s-5.89-4.47-6.05-7.41C16.38,32.69,18.12,31.06,20.15,31.03z"/>
	</g>
	<g>
		<path class="st4" d="M50.42,34.71c-0.16,2.94-6.05,7.41-6.05,7.41s-6.06-4.5-6.06-7.44c0-2.03,1.66-3.66,3.68-3.66
			c1.14,0,2.4,1.03,2.4,1.03s1.2-1.03,2.37-1.01C48.79,31.06,50.53,32.69,50.42,34.71z"/>
		<path class="st3" d="M46.76,31.03c-1.17-0.02-2.37,1.01-2.37,1.01s-0.02-0.01-0.04-0.03v10.1c0.01,0.01,0.02,0.01,0.02,0.01
			s5.89-4.47,6.05-7.41C50.53,32.69,48.79,31.06,46.76,31.03z"/>
	</g>
	<g>
		<path class="st4" d="M16.49,74.75c0.16-2.94,6.05-7.41,6.05-7.41s6.06,4.5,6.06,7.44c0,2.03-1.66,3.66-3.68,3.66
			c-1.14,0-2.4-1.03-2.4-1.03s-1.2,1.03-2.37,1.01C18.12,78.41,16.38,76.78,16.49,74.75z"/>
		<path class="st3" d="M20.15,78.44c1.17,0.02,2.37-1.01,2.37-1.01s0.02,0.01,0.04,0.03v-10.1c-0.01-0.01-0.02-0.01-0.02-0.01
			s-5.89,4.47-6.05,7.41C16.38,76.78,18.12,78.41,20.15,78.44z"/>
	</g>
	<g>
		<path class="st4" d="M27.36,66.23c0.16-2.94,6.05-7.41,6.05-7.41s6.06,4.5,6.06,7.44c0,2.03-1.66,3.66-3.68,3.66
			c-1.14,0-2.4-1.03-2.4-1.03s-1.2,1.03-2.37,1.01C28.99,69.89,27.25,68.26,27.36,66.23z"/>
		<path class="st3" d="M31.02,69.91c1.17,0.02,2.37-1.01,2.37-1.01s0.02,0.01,0.04,0.03v-10.1c-0.01-0.01-0.02-0.01-0.02-0.01
			s-5.89,4.47-6.05,7.41C27.25,68.26,28.99,69.89,31.02,69.91z"/>
	</g>
	<g>
		<path class="st4" d="M50.42,74.75c-0.16-2.94-6.05-7.41-6.05-7.41s-6.06,4.5-6.06,7.44c0,2.03,1.66,3.66,3.68,3.66
			c1.14,0,2.4-1.03,2.4-1.03s1.2,1.03,2.37,1.01C48.79,78.41,50.53,76.78,50.42,74.75z"/>
		<path class="st3" d="M46.76,78.44c-1.17,0.02-2.37-1.01-2.37-1.01s-0.02,0.01-0.04,0.03v-10.1c0.01-0.01,0.02-0.01,0.02-0.01
			s5.89,4.47,6.05,7.41C50.53,76.78,48.79,78.41,46.76,78.44z"/>
	</g>
	<g>
		<path class="st4" d="M16.49,56.59c0.16-2.94,6.05-7.41,6.05-7.41s6.06,4.5,6.06,7.44c0,2.03-1.66,3.66-3.68,3.66
			c-1.14,0-2.4-1.03-2.4-1.03s-1.2,1.03-2.37,1.01C18.12,60.24,16.38,58.61,16.49,56.59z"/>
		<path class="st3" d="M20.15,60.27c1.17,0.02,2.37-1.01,2.37-1.01s0.02,0.01,0.04,0.03v-10.1c-0.01-0.01-0.02-0.01-0.02-0.01
			s-5.89,4.47-6.05,7.41C16.38,58.61,18.12,60.24,20.15,60.27z"/>
	</g>
	<g>
		<path class="st4" d="M50.42,56.59c-0.16-2.94-6.05-7.41-6.05-7.41s-6.06,4.5-6.06,7.44c0,2.03,1.66,3.66,3.68,3.66
			c1.14,0,2.4-1.03,2.4-1.03s1.2,1.03,2.37,1.01C48.79,60.24,50.53,58.61,50.42,56.59z"/>
		<path class="st3" d="M46.76,60.27c-1.17,0.02-2.37-1.01-2.37-1.01s-0.02,0.01-0.04,0.03v-10.1c0.01-0.01,0.02-0.01,0.02-0.01
			s5.89,4.47,6.05,7.41C50.53,58.61,48.79,60.24,46.76,60.27z"/>
	</g>
	<g>
		<path class="st4" d="M55.84,72.1c0.06-1.05,2.17-2.66,2.17-2.66s2.17,1.61,2.17,2.67c0,0.72-0.59,1.31-1.32,1.31
			c-0.41,0-0.86-0.37-0.86-0.37s-0.43,0.37-0.85,0.36C56.42,73.4,55.8,72.82,55.84,72.1z"/>
		<path class="st3" d="M57.15,73.42c0.42,0.01,0.85-0.36,0.85-0.36s0.01,0,0.01,0.01v-3.62c0,0,0,0,0,0s-2.12,1.6-2.17,2.66
			C55.8,72.82,56.42,73.4,57.15,73.42z"/>
	</g>
</g>
</svg>
