<?xml version="1.0" encoding="utf-8"?>
<!-- Generator: Adobe Illustrator 26.0.3, SVG Export Plug-In . SVG Version: 6.00 Build 0)  -->
<svg version="1.1" id="Layer_1" xmlns="http://www.w3.org/2000/svg" xmlns:xlink="http://www.w3.org/1999/xlink" x="0px" y="0px"
	 viewBox="0 0 66 92" style="enable-background:new 0 0 66 92;" xml:space="preserve">
<style type="text/css">
	.st0{fill:#C9C9C9;}
	.st1{fill:#FFFFFF;}
	.st2{fill:#D66142;}
	.st3{fill:#333333;}
	.st4{fill:#FFD675;}
	.st5{opacity:0.2;fill:#616161;}
	.st6{fill:#EBEBEB;}
	.st7{fill:#EBBE9F;}
	.st8{fill:#9C9C9C;}
	.st9{opacity:0.2;fill:#FFFFFF;}
</style>
<g>
	<g>
		<g>
			<g>
				<path class="st0" d="M10.01,86.93c-3.46,0-6.28-2.76-6.33-6.26L3.5,11.2c0.04-3.31,2.85-6.09,6.32-6.08L55.73,5.2
					C59.19,5.21,62,7.99,62,11.4v69.32c0,3.39-2.8,6.15-6.24,6.16L10.01,86.93z"/>
				<path class="st1" d="M10.51,86.88c-3.46,0-6.28-2.76-6.28-6.15L4.05,11.26c-0.01-3.42,2.8-6.2,6.27-6.19l45.91,0.08
					c3.45,0.01,6.27,2.79,6.27,6.2v69.32c0,3.39-2.8,6.15-6.25,6.16L10.51,86.88z"/>
				<g>
					<path class="st2" d="M55.81,85.46H10.57c-2.64,0-4.8-2.14-4.8-4.77v-69.3c0-2.63,2.15-4.77,4.8-4.77h45.24
						c2.64,0,4.79,2.14,4.79,4.77v69.3C60.61,83.32,58.46,85.46,55.81,85.46z M10.57,8.5c-1.6,0-2.9,1.29-2.9,2.88v69.3
						c0,1.59,1.3,2.88,2.9,2.88h45.24c1.6,0,2.9-1.29,2.9-2.88v-69.3c0-1.59-1.3-2.88-2.9-2.88H10.57z"/>
				</g>
				<g>
					<path class="st3" d="M14.69,16.32c-0.04,0.07-0.21,0.21-0.52,0.44c-0.39,0.29-0.73,0.48-1.02,0.56l-1.57-2.88l-0.09,0.06v2.52
						H9.64v-6.56h1.85v3.72c0.32-0.04,0.6-0.26,0.86-0.65c0.23-0.36,0.35-0.7,0.35-1.01c0-0.23-0.04-0.42-0.11-0.59
						c-0.08-0.15-0.17-0.3-0.24-0.45c0-0.07,0.2-0.25,0.61-0.56c0.33-0.25,0.58-0.43,0.72-0.55c0.11,0.1,0.22,0.26,0.31,0.49
						c0.09,0.23,0.14,0.43,0.14,0.61c0,0.16-0.03,0.35-0.1,0.57c-0.07,0.23-0.16,0.43-0.26,0.61c-0.17,0.26-0.32,0.46-0.46,0.6
						c-0.27,0.28-0.42,0.44-0.44,0.47L14.69,16.32z"/>
				</g>
				<g>
					<path class="st3" d="M51.93,76.49c0.04-0.07,0.21-0.21,0.52-0.44c0.39-0.29,0.73-0.48,1.02-0.56l1.57,2.88l0.09-0.06v-2.52
						h1.85v6.56h-1.85v-3.72c-0.32,0.04-0.6,0.26-0.86,0.65c-0.23,0.36-0.35,0.7-0.35,1.01c0,0.23,0.04,0.42,0.11,0.59
						c0.08,0.15,0.17,0.3,0.24,0.45c0,0.07-0.2,0.25-0.61,0.56c-0.33,0.25-0.58,0.43-0.72,0.55c-0.11-0.1-0.22-0.26-0.31-0.49
						c-0.09-0.23-0.14-0.43-0.14-0.61c0-0.16,0.03-0.35,0.1-0.57c0.07-0.23,0.16-0.43,0.26-0.61c0.17-0.26,0.32-0.46,0.46-0.6
						c0.27-0.28,0.42-0.44,0.44-0.47L51.93,76.49z"/>
				</g>
			</g>
		</g>
		<g>
			<g>
				<g>
					<g>
						<g>
							<g>
								<path class="st2" d="M49.91,31.23v8.09l-8.42,2.53l-16.06,4.82l-1.65,0.5l-7.3,2.19V30.79c0.05-0.03,0.23-0.13,0.52-0.29
									c0.06-0.04,0.12-0.07,0.19-0.11c1.19-0.68,3.62-2.06,5.83-3.33c0.17-0.09,0.34-0.19,0.5-0.29c0.16-0.09,0.33-0.18,0.49-0.27
									c0.16-0.09,0.33-0.19,0.49-0.28c0.44-0.25,0.86-0.49,1.23-0.7c0.03-0.02,0.06-0.03,0.09-0.05c0.03-0.01,0.05-0.03,0.08-0.04
									c0.16-0.09,0.31-0.18,0.45-0.26c0,0,0,0,0.01,0c0.19-0.11,0.36-0.21,0.51-0.29c0.08-0.05,0.15-0.09,0.22-0.13
									c0.05-0.03,0.09-0.05,0.13-0.07c0.04-0.03,0.08-0.04,0.11-0.06c0.04-0.02,0.07-0.04,0.1-0.06c0.03-0.02,0.06-0.03,0.08-0.04
									c0.03-0.02,0.05-0.03,0.05-0.03h11.15c0,0,0.03,0.01,0.08,0.04c0.03,0.01,0.08,0.04,0.13,0.07
									c0.03,0.01,0.06,0.03,0.08,0.04c0.03,0.02,0.06,0.04,0.1,0.06c0.13,0.08,0.31,0.17,0.51,0.28c0.15,0.08,0.32,0.18,0.49,0.28
									c0.07,0.04,0.14,0.08,0.21,0.12c0.05,0.03,0.11,0.06,0.16,0.09v0.01c0.06,0.04,0.13,0.08,0.2,0.11
									c0.1,0.06,0.21,0.11,0.31,0.18c0.04,0.02,0.08,0.04,0.11,0.06c0.14,0.08,0.3,0.16,0.45,0.25c1.53,0.87,3.42,1.95,5.01,2.85
									c0.16,0.09,0.32,0.18,0.47,0.27c0.23,0.13,0.45,0.26,0.66,0.38c0.14,0.08,0.27,0.15,0.4,0.23c0.13,0.08,0.26,0.15,0.37,0.21
									c0.18,0.1,0.34,0.19,0.49,0.28c0.08,0.04,0.15,0.09,0.22,0.13c0.4,0.23,0.64,0.37,0.64,0.37L49.91,31.23z"/>
								<g>
									<g>
										<g>
											<g>
												<path class="st4" d="M33.21,34.11l-3.05-5.29h6.1L33.21,34.11z M30.74,29.16l2.47,4.27l2.47-4.27H30.74z"/>
											</g>
										</g>
										<path class="st5" d="M29.11,24.49c-0.06,0.01-11.09,6.31-11.09,6.31l-1.55,4.77v13.79l7.29-2.19l1.65-0.5l4.36-14.3
											l0.58-1.92l0.85-1.83l1.9-4.06v-0.08H29.11z"/>
										<path class="st6" d="M27.55,24.49c0,0-0.02,0.01-0.05,0.03c-0.02,0.01-0.05,0.03-0.08,0.05c-0.03,0.02-0.06,0.04-0.1,0.05
											c-0.03,0.02-0.07,0.04-0.11,0.06c-0.04,0.02-0.08,0.05-0.13,0.07c-0.07,0.04-0.14,0.08-0.22,0.12
											c-0.15,0.08-0.32,0.18-0.51,0.29c0,0-0.01,0-0.01,0c-0.14,0.08-0.29,0.17-0.45,0.26c-0.05,0.03-0.11,0.06-0.17,0.09
											c-0.37,0.21-0.79,0.44-1.23,0.7c-0.16,0.09-0.32,0.18-0.48,0.28c-0.16,0.09-0.32,0.18-0.49,0.28
											c-0.16,0.09-0.33,0.19-0.5,0.29c-0.71,0.41-1.45,0.82-2.16,1.23c-0.21,0.12-0.43,0.24-0.63,0.36
											c-1.24,0.71-2.35,1.34-3.04,1.73c-0.07,0.04-0.13,0.08-0.19,0.11c-0.28,0.16-0.47,0.27-0.52,0.29v18.58l1.3-0.39
											l0.73-0.22l5.18-1.56l0.08-0.03c0.24-0.57,0.5-1.18,0.76-1.82c1.75-4.2,3.88-9.52,5.25-12.98c0.86-2.16,1.43-3.6,1.43-3.6
											l0.01-0.15l0.37-4.14H27.55z"/>
									</g>
									<g>
										<g>
											<path class="st5" d="M49.91,36.41l-1.69-5.61c0,0-11.03-6.29-11.09-6.31h-4.01v0.08l2.75,5.89l3.58,12.23l10.46-3.79
												V36.41z"/>
											<path class="st6" d="M49.91,31.23v8.09l-8.42,2.53c-1.3-2.46-4.41-8.86-5.78-11.69c-0.42-0.85-0.67-1.38-0.67-1.38
												l-0.38-4.29h4.05c0,0,0.03,0.01,0.08,0.04c0.03,0.01,0.08,0.04,0.13,0.07c0.03,0.01,0.06,0.03,0.08,0.04
												c0.03,0.02,0.06,0.04,0.1,0.06c0.13,0.08,0.31,0.17,0.51,0.28c0.14,0.09,0.32,0.18,0.49,0.28
												c0.07,0.04,0.14,0.08,0.21,0.12c0.05,0.03,0.11,0.06,0.16,0.09h0.01c0.06,0.04,0.13,0.08,0.2,0.11
												c0.1,0.06,0.2,0.11,0.31,0.18c0.04,0.02,0.08,0.04,0.11,0.06c0.14,0.08,0.3,0.16,0.45,0.25
												c1.53,0.87,3.42,1.95,5.01,2.85c0.16,0.09,0.32,0.18,0.47,0.27c0.23,0.13,0.45,0.26,0.66,0.38
												c0.14,0.08,0.27,0.15,0.4,0.23c0.13,0.08,0.25,0.15,0.37,0.21c0.18,0.1,0.34,0.19,0.49,0.28
												c0.08,0.04,0.15,0.09,0.22,0.13c0.4,0.23,0.64,0.37,0.64,0.37L49.91,31.23z"/>
										</g>
									</g>
								</g>
								<g>
									<polygon class="st7" points="39.56,21.76 39.44,20.25 39.44,20.2 39.1,15.58 37.38,14.72 34.07,13.04 33.16,13.54 
										32.24,13.04 28.93,14.72 27.22,15.58 26.87,20.2 26.87,20.25 26.75,21.76 27.23,26.1 33.15,30.47 33.15,30.48 33.15,30.48 
										33.16,30.48 33.16,30.48 33.16,30.48 33.16,30.47 39.09,26.08 									"/>
									<path class="st7" d="M33.16,24.49l2.03-0.07l-1.52-0.95c0,0-0.24-0.01-0.51-0.01l0,0c0,0-0.01,0-0.01,0c0,0,0,0-0.01,0l0,0
										c-0.27,0-0.51,0.01-0.51,0.01l-1.52,0.95l2.03,0.07v0L33.16,24.49L33.16,24.49L33.16,24.49z"/>
									<polygon class="st5" points="34.39,21.59 33.56,18.7 33.16,18.7 33.15,18.7 32.75,18.7 31.92,21.59 32.75,22.48 
										33.15,22.5 33.15,22.5 33.16,22.5 33.16,22.5 33.16,22.5 33.56,22.48 									"/>
									<g>
										<polygon class="st8" points="34.03,17.93 36.64,17.6 36.7,17.59 36.73,17.61 37.97,18.27 36.61,17.89 36.7,17.9 
											34.17,18.61 										"/>
										<path class="st3" d="M34.95,19.02c-0.04,0.09-0.07,0.2-0.07,0.3c0,0.41,0.33,0.74,0.74,0.74c0.41,0,0.74-0.33,0.74-0.74
											c0-0.11-0.02-0.21-0.07-0.3H34.95z"/>
										<polygon class="st8" points="32.28,17.93 29.67,17.6 29.61,17.59 29.59,17.61 28.34,18.27 29.7,17.89 29.61,17.9 
											32.14,18.61 										"/>
										<path class="st3" d="M31.37,19.02c0.04,0.09,0.07,0.2,0.07,0.3c0,0.41-0.33,0.74-0.74,0.74s-0.74-0.33-0.74-0.74
											c0-0.11,0.02-0.21,0.07-0.3H31.37z"/>
										<path class="st8" d="M39.44,20.25c-0.04,0.03-0.06,0.05-0.06,0.05l-1.21-4.26l-0.79-1.33l1.71,0.87l0.34,4.61L39.44,20.25
											z"/>
										<path class="st8" d="M26.87,20.25c0.04,0.03,0.07,0.05,0.07,0.05l1.21-4.26l0.79-1.33l-1.71,0.87l-0.34,4.61L26.87,20.25z
											"/>
									</g>
									<path class="st4" d="M39.21,13.94v1.76c-1.53,0.42-3.24,0.6-4.88,0.64c-1.09,0.03-2.16,0.01-3.12-0.05
										c-0.48-0.03-0.93-0.06-1.34-0.1c-0.5-0.04-0.94-0.09-1.33-0.14c-0.92-0.11-1.49-0.21-1.49-0.21v-1.67
										c0,0,6.05-3.23,6.08-3.23c0,0.01,0.76,0.39,1.74,0.87c0.31,0.15,0.64,0.32,0.98,0.49c0.32,0.16,0.65,0.32,0.97,0.48
										c0.9,0.44,1.72,0.84,2.13,1.04C39.11,13.89,39.21,13.94,39.21,13.94z"/>
									<g>
										<path class="st9" d="M35.84,12.29l-5.98,3.9c-0.5-0.04-0.94-0.09-1.33-0.14l6.33-4.25
											C35.17,11.96,35.51,12.13,35.84,12.29z"/>
										<path class="st9" d="M38.94,13.81l-4.62,2.54c-1.09,0.03-2.16,0.01-3.12-0.05l5.6-3.52
											C37.71,13.21,38.53,13.61,38.94,13.81z"/>
									</g>
								</g>
							</g>
							<g>
								<polygon class="st3" points="21.17,36.69 20.97,38.11 21.67,36.85 								"/>
								<polygon class="st3" points="23.97,36.69 23.77,38.11 24.47,36.85 								"/>
								<polygon class="st3" points="26.76,36.69 26.56,38.11 27.26,36.85 								"/>
								<polygon class="st3" points="17.67,41.26 17.47,42.69 18.17,41.43 								"/>
								<polygon class="st3" points="20.47,41.26 20.27,42.69 20.97,41.43 								"/>
								<polygon class="st3" points="23.26,41.26 23.06,42.69 23.77,41.43 								"/>
								<polygon class="st3" points="18.53,45.88 18.33,47.3 19.03,46.05 								"/>
								<polygon class="st3" points="21.33,45.88 21.12,47.3 21.82,46.05 								"/>
								<path class="st3" d="M24.32,45.77c-0.13,0.32-0.26,0.62-0.38,0.91l-0.04,0.01l0.14-1.02L24.32,45.77z"/>
								<polygon class="st3" points="26.06,28.7 25.86,30.12 26.56,28.87 								"/>
								<polygon class="st3" points="23.26,28.13 23.06,29.55 23.77,28.3 								"/>
								<path class="st3" d="M20.66,28.64l-0.39,0.7l0.07-0.52C20.44,28.76,20.55,28.7,20.66,28.64z"/>
								<polygon class="st3" points="18.32,48.76 17.96,48.87 17.99,48.64 								"/>
								<polygon class="st3" points="17.74,32.07 17.54,33.49 18.24,32.24 								"/>
								<polygon class="st3" points="20.86,32.07 20.65,33.49 21.35,32.24 								"/>
								<polygon class="st3" points="23.65,32.07 23.45,33.49 24.15,32.24 								"/>
								<polygon class="st3" points="26.45,32.07 26.25,33.49 26.95,32.24 								"/>
								<polygon class="st3" points="29.31,29.44 29.11,30.86 29.81,29.61 								"/>
								<polygon class="st3" points="18.06,36.69 17.86,38.11 18.56,36.85 								"/>
							</g>
							<g>
								<polygon class="st3" points="45.75,36.69 45.95,38.11 45.25,36.85 								"/>
								<polygon class="st3" points="42.95,36.69 43.15,38.11 42.45,36.85 								"/>
								<polygon class="st3" points="40.15,36.69 40.35,38.11 39.65,36.85 								"/>
								<polygon class="st3" points="40.85,28.7 41.05,30.12 40.35,28.87 								"/>
								<polygon class="st3" points="43.65,28.13 43.85,29.55 43.15,28.3 								"/>
								<path class="st3" d="M46.26,28.64l0.39,0.7l-0.07-0.52C46.47,28.76,46.36,28.7,46.26,28.64z"/>
								<polygon class="st3" points="49.17,32.07 49.37,33.49 48.67,32.24 								"/>
								<polygon class="st3" points="46.06,32.07 46.26,33.49 45.56,32.24 								"/>
								<polygon class="st3" points="43.26,32.07 43.46,33.49 42.76,32.24 								"/>
								<polygon class="st3" points="40.47,32.07 40.67,33.49 39.97,32.24 								"/>
								<polygon class="st3" points="37.6,29.44 37.8,30.86 37.1,29.61 								"/>
								<polygon class="st3" points="48.86,36.69 49.06,38.11 48.36,36.85 								"/>
							</g>
						</g>
					</g>
					<path class="st5" d="M40.45,25.48L40.45,25.48L40.45,25.48c-0.22,1.29-2.74,3.28-4.75,4.68c-1.37,0.96-2.49,1.64-2.49,1.64
						s-7.36-3.79-7.4-6.33c0.03-0.01,0.05-0.03,0.08-0.04c0.16-0.09,0.31-0.18,0.45-0.26c0,0,0,0,0.01,0
						c0.19-0.11,0.36-0.21,0.51-0.29c0.08-0.05,0.15-0.09,0.22-0.13c0.05-0.03,0.09-0.05,0.13-0.07c0.04-0.03,0.08-0.04,0.11-0.06
						c0.04-0.02,0.07-0.04,0.1-0.06c0.03-0.02,0.06-0.03,0.08-0.04c0.03-0.02,0.05-0.03,0.05-0.03h11.15c0,0,0.03,0.01,0.08,0.04
						c0.03,0.01,0.08,0.04,0.13,0.07c0.03,0.01,0.06,0.03,0.08,0.04c0.03,0.02,0.06,0.04,0.1,0.06c0.13,0.08,0.31,0.17,0.51,0.28
						c0.15,0.08,0.32,0.18,0.49,0.28c0.07,0.04,0.14,0.08,0.21,0.12C40.34,25.42,40.39,25.45,40.45,25.48z"/>
					<path class="st8" d="M39.34,25.37c-0.2,2.13-6.32,5.26-6.32,5.26s-6.17-3.39-6.13-5.54c0.02-1.47,1.75-2.63,3.83-2.58
						c1.17,0.02,2.46,0.79,2.46,0.79s1.25-0.72,2.45-0.68C37.71,22.68,39.48,23.9,39.34,25.37z"/>
					<g>
						<polygon class="st7" points="31.85,23.46 33.19,23.76 34.52,23.46 34.86,25.22 31.52,25.2 						"/>
						<rect x="31.94" y="24.11" class="st5" width="2.64" height="0.52"/>
					</g>
					<g>
						<path class="st5" d="M36.13,35.7c0.05,1.47-3.13,3.76-3.13,3.76s-3.09-2.34-2.88-3.99c0.13-1.03,1.06-1.79,2.03-1.77
							c0.53,0.01,1.11,0.48,1.11,0.48s0.55-0.45,1.07-0.43C35.2,33.78,36.1,34.77,36.13,35.7z"/>
						<path class="st4" d="M35.88,35.4c-0.1,1.34-2.82,3.32-2.82,3.32s-2.72-2.1-2.69-3.44c0.02-0.92,0.78-1.65,1.71-1.63
							c0.52,0.01,1.09,0.49,1.09,0.49s0.56-0.45,1.09-0.44C35.17,33.73,35.95,34.48,35.88,35.4z"/>
						<path class="st5" d="M33.08,37.76c-1.02-0.87-1.96-1.96-1.95-2.46c0.01-0.5,0.43-0.9,0.93-0.89c0.15,0,0.47,0.19,0.61,0.31
							l0.48,0.4l0.48-0.4c0.14-0.11,0.43-0.27,0.58-0.27c0.27,0.01,0.52,0.13,0.7,0.32c0.1,0.12,0.22,0.31,0.2,0.58
							C35.09,35.86,34.11,36.92,33.08,37.76z"/>
					</g>
					<path class="st2" d="M34.12,12.49c-0.03,0.48-1.02,1.2-1.02,1.2s-0.98-0.76-0.97-1.24c0.01-0.33,0.28-0.6,0.61-0.59
						c0.19,0,0.39,0.18,0.39,0.18s0.2-0.16,0.39-0.16C33.86,11.88,34.14,12.15,34.12,12.49z"/>
				</g>
				<path class="st5" d="M49.91,36.41v-5.18l-0.13-0.43c0,0-0.24-0.13-0.64-0.37c-0.07-0.04-0.15-0.08-0.22-0.13
					c-0.14-0.09-0.31-0.18-0.49-0.28c-0.11-0.07-0.24-0.14-0.37-0.21c-0.13-0.08-0.27-0.15-0.4-0.23c-0.21-0.12-0.43-0.25-0.66-0.38
					c-0.13-0.07-0.26-0.15-0.4-0.23l-0.02-0.16c-0.1-0.06-0.21-0.12-0.32-0.18l0.12,0.21c-1.56-0.89-3.38-1.92-4.86-2.77
					c-0.15-0.09-0.3-0.18-0.45-0.25c-0.03-0.02-0.07-0.04-0.11-0.06c-0.1-0.06-0.21-0.12-0.31-0.18c-0.07-0.04-0.14-0.08-0.2-0.11
					v-0.01c-0.06-0.03-0.11-0.06-0.16-0.09c-0.07-0.04-0.14-0.08-0.21-0.12c-0.18-0.1-0.34-0.2-0.49-0.28
					c-0.1-0.06-0.19-0.11-0.28-0.16c-0.01-0.07-0.04-0.13-0.06-0.2l0.31-2.88l-0.11-1.51l0-0.06l-0.33-4.48
					c0.03-0.01,0.07-0.01,0.1-0.02v-1.76c0,0-0.1-0.05-0.27-0.13c-0.41-0.2-1.23-0.6-2.13-1.04c-0.32-0.16-0.64-0.32-0.97-0.48
					c-0.34-0.17-0.67-0.33-0.98-0.49c-0.98-0.48-1.74-0.86-1.74-0.87c0,0-0.03,0.01-0.08,0.04v33.41l6.34-1.91l0.06,0.2l3.58-1.3
					l6.87-2.07V38.9l0,0L49.91,36.41L49.91,36.41z"/>
			</g>
			<g>
				<g>
					<g>
						<g>
							<g>
								<path class="st2" d="M49.91,42.5v18.58c-0.05,0.02-0.23,0.13-0.52,0.29c-0.06,0.04-0.12,0.07-0.19,0.11
									c-0.15,0.08-0.32,0.18-0.5,0.28c-0.03,0.03-0.06,0.04-0.09,0.06c-0.16,0.08-0.33,0.18-0.5,0.28
									c-0.21,0.13-0.44,0.26-0.68,0.39c-0.24,0.14-0.49,0.28-0.75,0.43c-0.16,0.09-0.33,0.19-0.5,0.29
									c-0.21,0.12-0.42,0.24-0.63,0.36c-0.71,0.4-1.45,0.82-2.17,1.23c-0.16,0.1-0.34,0.2-0.5,0.29h-0.01
									c-0.16,0.09-0.33,0.18-0.49,0.27c-0.16,0.09-0.33,0.19-0.49,0.28c-0.44,0.25-0.85,0.49-1.22,0.7
									c-0.03,0.02-0.06,0.04-0.09,0.05c-0.03,0.01-0.05,0.04-0.08,0.04c-0.16,0.09-0.31,0.18-0.45,0.26c0,0,0,0-0.01,0
									c-0.19,0.11-0.36,0.21-0.51,0.29c-0.02,0.01-0.04,0.03-0.06,0.03c0.01,0.01,0,0.01,0,0.01c-0.06,0.03-0.11,0.06-0.16,0.09
									c-0.03,0.01-0.05,0.03-0.07,0.04c-0.02,0.01-0.04,0.03-0.06,0.03c-0.04,0.03-0.08,0.04-0.11,0.06
									c-0.02,0.01-0.04,0.02-0.05,0.03c-0.02,0.01-0.03,0.01-0.05,0.03c-0.03,0.03-0.06,0.03-0.08,0.04
									c-0.03,0.02-0.05,0.03-0.05,0.03H27.68c0,0-0.03-0.02-0.08-0.05c-0.03-0.01-0.08-0.04-0.13-0.07
									c-0.03-0.01-0.06-0.02-0.08-0.04c-0.03-0.03-0.06-0.04-0.1-0.06c-0.04-0.03-0.09-0.05-0.14-0.08
									c-0.03-0.01-0.05-0.03-0.08-0.04c-0.01-0.01-0.01-0.01-0.01-0.01c-0.09-0.05-0.18-0.1-0.28-0.16
									c-0.15-0.08-0.32-0.18-0.49-0.28c-0.07-0.04-0.14-0.08-0.21-0.12c-0.05-0.03-0.11-0.06-0.16-0.09v-0.01
									c-0.06-0.04-0.13-0.08-0.2-0.11c-0.1-0.06-0.21-0.12-0.31-0.18c-0.04-0.02-0.08-0.04-0.11-0.06
									c-0.15-0.07-0.3-0.16-0.45-0.25c-0.76-0.44-1.62-0.92-2.48-1.41c-0.36-0.2-0.73-0.41-1.08-0.61
									c-0.11-0.06-0.21-0.12-0.31-0.18c-0.34-0.2-0.67-0.38-0.99-0.56c-0.05-0.03-0.1-0.06-0.15-0.09
									c-0.02-0.01-0.04-0.03-0.06-0.04h-0.01c-0.13-0.08-0.27-0.15-0.4-0.23c-0.23-0.13-0.45-0.26-0.66-0.38
									c-0.14-0.08-0.27-0.15-0.4-0.23c-0.13-0.08-0.25-0.14-0.37-0.21c-0.18-0.1-0.34-0.19-0.49-0.28
									c-0.08-0.04-0.15-0.09-0.22-0.13c-0.4-0.23-0.64-0.37-0.64-0.37l-0.13-0.43v-8.09l6.87-2.06l0.04-0.01l0.04-0.01l1.46-0.44
									l2.09-0.63h0.01v-0.01l6.34-1.9l7.62-2.29h0.01l1.65-0.5l0.08-0.02l5.18-1.55l0.73-0.22L49.91,42.5z"/>
								<g>
									<g>
										<g>
											<g>
												<path class="st4" d="M31.11,62.71l0.09,0.18l0.07,0.16h3.92c0.01-0.03,0.03-0.09,0.06-0.16
													c0.03-0.05,0.05-0.11,0.08-0.18H31.11z M35.68,62.11l-0.07-0.13l-0.47-0.8v-0.01l-1.81-3.14l-0.16-0.27l-0.01-0.01
													l-0.01,0.03l-2.11,3.66c0,0.01,0,0.01-0.01,0.01l-0.26,0.45l-0.02,0.04l-0.64,1.1h6.1L35.68,62.11z M30.7,62.71
													l0.23-0.39l0.03-0.04c0,0,0,0,0-0.01l0.73-1.26l1.49-2.58l0.16,0.28l1.22,2.11v0.01l0.9,1.55l0.06,0.11l0.06,0.11
													l0.06,0.11H30.7z M31.11,62.71l0.09,0.18l0.07,0.16h3.92c0.01-0.03,0.03-0.09,0.06-0.16c0.03-0.05,0.05-0.11,0.08-0.18
													H31.11z"/>
											</g>
										</g>
										<path class="st5" d="M37.27,67.37c0.06-0.01,11.09-6.31,11.09-6.31l1.55-4.77V42.5l-7.29,2.19l-1.65,0.5l-4.36,14.3
											l-0.58,1.92l-0.85,1.83l-1.9,4.06v0.08H37.27z"/>
										<path class="st6" d="M38.83,67.37c0,0,0.02-0.01,0.05-0.03c0.02-0.01,0.05-0.03,0.08-0.05c0.03-0.02,0.06-0.04,0.1-0.05
											c0.03-0.02,0.07-0.04,0.11-0.06c0.04-0.02,0.08-0.05,0.13-0.07c0.07-0.04,0.14-0.08,0.22-0.12
											c0.15-0.08,0.32-0.18,0.51-0.29c0,0,0.01,0,0.01,0c0.14-0.08,0.29-0.17,0.45-0.26c0.05-0.03,0.11-0.06,0.17-0.09
											c0.37-0.21,0.79-0.45,1.23-0.7c0.16-0.09,0.32-0.18,0.48-0.28c0.16-0.09,0.32-0.18,0.49-0.28
											c0.16-0.09,0.33-0.19,0.5-0.29c0.71-0.41,1.45-0.82,2.16-1.23c0.21-0.12,0.43-0.24,0.63-0.36
											c1.24-0.71,2.35-1.34,3.04-1.73c0.07-0.04,0.13-0.08,0.19-0.11c0.28-0.16,0.47-0.27,0.52-0.29V42.5l-1.3,0.39l-0.73,0.22
											l-5.18,1.56l-0.08,0.03c-0.24,0.57-0.5,1.18-0.76,1.82c-1.75,4.2-3.88,9.52-5.25,12.98c-0.86,2.16-1.43,3.6-1.43,3.6
											l-0.01,0.15l-0.37,4.14H38.83z"/>
									</g>
									<g>
										<g>
											<path class="st5" d="M33.26,67.3v0.08h-4.01c-0.01-0.01-0.83-0.47-2.01-1.14c-0.04-0.03-0.08-0.05-0.13-0.07
												c-0.28-0.16-0.57-0.33-0.88-0.5c-1.05-0.6-2.27-1.29-3.43-1.95c-0.03-0.02-0.06-0.04-0.09-0.06
												c-2.4-1.37-4.55-2.59-4.55-2.59l-1.69-5.61v-2.49l6.87-2.49l0.04-0.01l0.04-0.01l1.46-0.44l2.09-0.63h0.01l3.48,11.88
												l0.04,0.14l0.15,0.32l0.11,0.22l0.17,0.37l0.12,0.25l0.06,0.14l0.09,0.18l0.07,0.16l0.09,0.18l1.6,3.43l0.27,0.57
												L33.26,67.3z"/>
											<path class="st6" d="M31.73,67.38h-4.05c0,0-0.03-0.02-0.08-0.05c-0.03-0.01-0.08-0.04-0.13-0.07
												c-0.03-0.01-0.06-0.02-0.08-0.04c-0.03-0.03-0.06-0.04-0.1-0.06c-0.04-0.03-0.09-0.05-0.14-0.08
												c-0.03-0.01-0.05-0.03-0.08-0.04c-0.01-0.01-0.01-0.01-0.01-0.01c-0.09-0.05-0.18-0.1-0.28-0.16
												c-0.15-0.08-0.32-0.18-0.49-0.28c-0.07-0.04-0.14-0.08-0.21-0.12c-0.05-0.03-0.11-0.06-0.16-0.09h-0.01
												c-0.06-0.04-0.13-0.08-0.2-0.11c-0.1-0.06-0.21-0.12-0.31-0.18c-0.04-0.02-0.08-0.04-0.11-0.06
												c-0.15-0.07-0.3-0.16-0.45-0.25c-0.76-0.44-1.62-0.92-2.48-1.41c-0.36-0.2-0.73-0.41-1.08-0.61
												c-0.11-0.06-0.21-0.12-0.31-0.18c-0.34-0.2-0.67-0.38-0.99-0.56c-0.05-0.03-0.1-0.06-0.15-0.09
												c-0.02-0.01-0.04-0.03-0.06-0.04h-0.01c-0.13-0.08-0.27-0.15-0.4-0.23c-0.23-0.13-0.45-0.26-0.66-0.38
												c-0.14-0.08-0.27-0.15-0.4-0.23c-0.13-0.08-0.25-0.14-0.37-0.21c-0.18-0.1-0.34-0.19-0.49-0.28
												c-0.08-0.04-0.15-0.09-0.22-0.13c-0.4-0.23-0.64-0.37-0.64-0.37l-0.13-0.43v-8.09l6.87-2.06l0.04-0.01l0.04-0.01
												l1.46-0.44c1.24,2.34,4.12,8.26,5.57,11.26c0.08,0.15,0.14,0.3,0.21,0.44c0.03,0.07,0.07,0.14,0.1,0.2
												c0.06,0.13,0.12,0.25,0.18,0.37c0,0.01,0,0.01,0,0.01c0.05,0.09,0.09,0.18,0.13,0.27c0.03,0.06,0.05,0.11,0.08,0.16
												c0.03,0.06,0.05,0.11,0.07,0.16c0.04,0.09,0.07,0.15,0.09,0.18c0.01,0.03,0.02,0.04,0.02,0.04l0.01,0.14l0.31,3.42
												L31.73,67.38z"/>
										</g>
									</g>
								</g>
								<g>
									<polygon class="st7" points="26.82,70.1 26.94,71.61 26.94,71.67 27.28,76.28 29,77.15 32.31,78.82 33.22,78.33 
										34.14,78.82 37.45,77.15 39.16,76.28 39.51,71.67 39.51,71.61 39.63,70.1 39.15,65.77 33.23,61.4 33.23,61.39 33.23,61.38 
										33.22,61.39 33.22,61.38 33.22,61.39 33.22,61.4 27.29,65.79 									"/>
									<path class="st7" d="M33.22,67.38l-2.03,0.07l1.52,0.95c0,0,0.24,0.01,0.51,0.01l0,0c0,0,0.01,0,0.01,0c0,0,0,0,0.01,0l0,0
										c0.27,0,0.51-0.01,0.51-0.01l1.52-0.95l-2.03-0.07v0L33.22,67.38L33.22,67.38L33.22,67.38z"/>
									<polygon class="st5" points="31.99,70.28 32.82,73.17 33.22,73.17 33.23,73.17 33.63,73.17 34.46,70.28 33.63,69.39 
										33.23,69.37 33.23,69.37 33.22,69.37 33.22,69.37 33.22,69.37 32.82,69.39 									"/>
									<g>
										<polygon class="st8" points="32.35,73.94 29.74,74.26 29.68,74.27 29.65,74.26 28.41,73.6 29.77,73.98 29.68,73.97 
											32.21,73.26 										"/>
										<path class="st3" d="M31.43,72.85c0.04-0.09,0.07-0.2,0.07-0.3c0-0.41-0.33-0.74-0.74-0.74c-0.41,0-0.74,0.33-0.74,0.74
											c0,0.11,0.02,0.21,0.07,0.3H31.43z"/>
										<polygon class="st8" points="34.1,73.94 36.71,74.26 36.77,74.27 36.79,74.26 38.04,73.6 36.68,73.98 36.77,73.97 
											34.24,73.26 										"/>
										<path class="st3" d="M35.02,72.85c-0.04-0.09-0.07-0.2-0.07-0.3c0-0.41,0.33-0.74,0.74-0.74c0.41,0,0.74,0.33,0.74,0.74
											c0,0.11-0.02,0.21-0.07,0.3H35.02z"/>
										<path class="st8" d="M26.94,71.61c0.04-0.03,0.06-0.05,0.06-0.05l1.21,4.26L29,77.15l-1.71-0.87l-0.34-4.61L26.94,71.61z"
											/>
										<path class="st8" d="M39.51,71.61c-0.04-0.03-0.07-0.05-0.07-0.05l-1.21,4.26l-0.79,1.33l1.71-0.87l0.34-4.61L39.51,71.61
											z"/>
									</g>
									<path class="st4" d="M27.17,77.93v-1.76c1.53-0.42,3.24-0.6,4.88-0.64c1.09-0.03,2.16,0,3.12,0.05
										c0.48,0.03,0.93,0.06,1.34,0.1c0.5,0.04,0.94,0.09,1.33,0.14c0.92,0.11,1.49,0.21,1.49,0.21v1.67c0,0-6.05,3.23-6.08,3.23
										c0-0.01-0.76-0.39-1.74-0.87c-0.31-0.15-0.64-0.32-0.98-0.49c-0.32-0.16-0.65-0.32-0.97-0.48
										c-0.9-0.44-1.72-0.84-2.13-1.04C27.27,77.98,27.17,77.93,27.17,77.93z"/>
									<g>
										<path class="st9" d="M30.54,79.57l5.98-3.9c0.5,0.04,0.94,0.09,1.33,0.14l-6.33,4.25C31.21,79.91,30.87,79.74,30.54,79.57
											z"/>
										<path class="st9" d="M27.44,78.06l4.62-2.54c1.09-0.03,2.16,0,3.12,0.05l-5.6,3.52C28.67,78.66,27.85,78.26,27.44,78.06z"
											/>
									</g>
								</g>
							</g>
							<g>
								<polygon class="st3" points="45.21,55.18 45.41,53.76 44.71,55.01 								"/>
								<polygon class="st3" points="42.41,55.18 42.62,53.76 41.91,55.01 								"/>
								<polygon class="st3" points="39.62,55.18 39.82,53.76 39.12,55.01 								"/>
								<polygon class="st3" points="48.71,50.6 48.91,49.18 48.21,50.43 								"/>
								<polygon class="st3" points="45.91,50.6 46.11,49.18 45.41,50.43 								"/>
								<polygon class="st3" points="43.12,50.6 43.32,49.18 42.62,50.43 								"/>
								<polygon class="st3" points="47.85,45.99 48.05,44.57 47.35,45.82 								"/>
								<polygon class="st3" points="45.06,45.99 45.26,44.57 44.56,45.82 								"/>
								<path class="st3" d="M42.06,46.1c0.13-0.32,0.26-0.62,0.38-0.91l0.04-0.01l-0.14,1.02L42.06,46.1z"/>
								<polygon class="st3" points="40.32,63.17 40.52,61.75 39.82,63 								"/>
								<polygon class="st3" points="43.12,63.74 43.32,62.32 42.62,63.57 								"/>
								<path class="st3" d="M45.72,63.22l0.39-0.7l-0.07,0.52C45.94,63.1,45.83,63.16,45.72,63.22z"/>
								<polygon class="st3" points="48.06,43.11 48.42,43 48.39,43.22 								"/>
								<polygon class="st3" points="48.64,59.8 48.84,58.38 48.14,59.63 								"/>
								<polygon class="st3" points="45.52,59.8 45.73,58.38 45.03,59.63 								"/>
								<polygon class="st3" points="42.73,59.8 42.93,58.38 42.23,59.63 								"/>
								<polygon class="st3" points="39.93,59.8 40.13,58.38 39.43,59.63 								"/>
								<polygon class="st3" points="37.07,62.43 37.27,61.01 36.57,62.26 								"/>
								<polygon class="st3" points="48.32,55.18 48.52,53.76 47.82,55.01 								"/>
							</g>
							<g>
								<polygon class="st3" points="20.63,55.18 20.44,53.76 21.13,55.01 								"/>
								<polygon class="st3" points="23.43,55.18 23.23,53.76 23.93,55.01 								"/>
								<polygon class="st3" points="26.23,55.18 26.03,53.76 26.73,55.01 								"/>
								<polygon class="st3" points="25.53,63.17 25.33,61.75 26.03,63 								"/>
								<polygon class="st3" points="22.73,63.74 22.53,62.32 23.23,63.57 								"/>
								<path class="st3" d="M20.12,63.22l-0.39-0.7l0.07,0.52C19.91,63.1,20.02,63.16,20.12,63.22z"/>
								<polygon class="st3" points="17.21,59.8 17.01,58.38 17.71,59.63 								"/>
								<polygon class="st3" points="20.32,59.8 20.12,58.38 20.82,59.63 								"/>
								<polygon class="st3" points="23.12,59.8 22.92,58.38 23.62,59.63 								"/>
								<polygon class="st3" points="25.91,59.8 25.71,58.38 26.41,59.63 								"/>
								<polygon class="st3" points="28.78,62.43 28.58,61.01 29.28,62.26 								"/>
								<polygon class="st3" points="17.52,55.18 17.32,53.76 18.02,55.01 								"/>
							</g>
						</g>
					</g>
					<path class="st5" d="M25.93,66.39L25.93,66.39L25.93,66.39c0.22-1.29,2.74-3.28,4.75-4.68c1.37-0.96,2.49-1.64,2.49-1.64
						s7.36,3.79,7.4,6.33c-0.03,0.01-0.05,0.03-0.08,0.04c-0.16,0.09-0.31,0.18-0.45,0.26c0,0,0,0-0.01,0
						c-0.19,0.11-0.36,0.21-0.51,0.29c-0.08,0.05-0.15,0.09-0.22,0.13c-0.05,0.02-0.09,0.05-0.13,0.07
						c-0.04,0.03-0.08,0.04-0.11,0.06c-0.04,0.02-0.07,0.04-0.1,0.06c-0.03,0.02-0.06,0.03-0.08,0.04
						c-0.03,0.02-0.05,0.03-0.05,0.03H27.69c0,0-0.03-0.01-0.08-0.04c-0.03-0.01-0.08-0.04-0.13-0.07
						c-0.03-0.01-0.06-0.03-0.08-0.04c-0.03-0.02-0.06-0.04-0.1-0.06c-0.13-0.08-0.31-0.17-0.51-0.28
						c-0.15-0.08-0.32-0.18-0.49-0.28c-0.07-0.04-0.14-0.08-0.21-0.12C26.05,66.45,25.99,66.41,25.93,66.39z"/>
					<path class="st8" d="M27.04,66.5c0.2-2.13,6.32-5.26,6.32-5.26s6.17,3.39,6.13,5.54c-0.02,1.47-1.75,2.63-3.83,2.58
						c-1.17-0.02-2.46-0.79-2.46-0.79s-1.25,0.72-2.45,0.68C28.67,69.18,26.9,67.96,27.04,66.5z"/>
					<g>
						<polygon class="st7" points="34.53,68.41 33.19,68.1 31.86,68.41 31.52,66.65 34.86,66.66 						"/>
						<rect x="31.79" y="67.23" class="st5" width="2.64" height="0.52"/>
					</g>
					<g>
						<path class="st5" d="M30.25,56.17c-0.05-1.47,3.13-3.76,3.13-3.76s3.09,2.34,2.88,3.99c-0.13,1.03-1.06,1.79-2.03,1.77
							c-0.53-0.01-1.11-0.48-1.11-0.48s-0.55,0.45-1.07,0.43C31.18,58.09,30.28,57.09,30.25,56.17z"/>
						<path class="st4" d="M30.5,56.46c0.1-1.34,2.82-3.32,2.82-3.32s2.72,2.1,2.69,3.44c-0.02,0.92-0.78,1.65-1.71,1.63
							c-0.52-0.01-1.09-0.49-1.09-0.49s-0.56,0.45-1.09,0.44C31.21,58.14,30.43,57.38,30.5,56.46z"/>
						<path class="st5" d="M33.3,54.11c1.02,0.87,1.96,1.96,1.95,2.46c-0.01,0.5-0.43,0.9-0.93,0.89c-0.15,0-0.47-0.19-0.61-0.31
							l-0.48-0.4l-0.48,0.4c-0.14,0.11-0.43,0.27-0.58,0.27c-0.27-0.01-0.52-0.13-0.7-0.32c-0.1-0.12-0.22-0.31-0.2-0.58
							C31.29,56.01,32.27,54.94,33.3,54.11z"/>
					</g>
					<path class="st2" d="M32.26,79.38c0.03-0.48,1.02-1.2,1.02-1.2s0.98,0.76,0.97,1.24c-0.01,0.33-0.28,0.59-0.61,0.59
						c-0.19,0-0.39-0.18-0.39-0.18S33.04,80,32.85,80C32.52,79.98,32.24,79.71,32.26,79.38z"/>
				</g>
				<path class="st5" d="M26.98,49.39l-2.09,0.63l-1.46,0.44l-0.04,0.01l-0.04,0.01l-6.87,2.06v0.43v2.49v5.18l0.13,0.43
					c0,0,0.24,0.13,0.64,0.37c0.07,0.04,0.15,0.08,0.22,0.13c0.14,0.09,0.31,0.18,0.49,0.28c0.12,0.07,0.25,0.14,0.37,0.21
					c0.13,0.08,0.27,0.15,0.4,0.23c0.21,0.12,0.43,0.25,0.66,0.38c0.13,0.08,0.27,0.15,0.4,0.23l0.03,0.16
					c0.1,0.06,0.21,0.12,0.32,0.18L20,63.01c0.32,0.18,0.65,0.37,0.99,0.56c0.1,0.06,0.2,0.11,0.31,0.18
					c0.35,0.2,0.72,0.41,1.08,0.61c0.86,0.49,1.72,0.98,2.48,1.41c0.15,0.09,0.3,0.18,0.45,0.25c0.03,0.02,0.07,0.04,0.11,0.06
					c0.1,0.06,0.21,0.12,0.31,0.18c0.07,0.03,0.14,0.07,0.2,0.11v0.01c0.06,0.03,0.11,0.06,0.16,0.09c0.07,0.04,0.14,0.08,0.21,0.12
					c0.18,0.1,0.34,0.2,0.49,0.28c0.09,0.06,0.19,0.11,0.28,0.16c0.01,0.02,0.01,0.04,0.02,0.06c0,0.01,0.01,0.01,0.01,0.01
					c0.01,0.04,0.02,0.08,0.04,0.13l-0.32,2.87l0.12,1.51v0.06l0.33,4.47v0.01c-0.03,0.01-0.07,0.01-0.1,0.02v1.76
					c0,0,0.09,0.05,0.27,0.13c0.41,0.2,1.23,0.6,2.13,1.04c0.32,0.16,0.64,0.32,0.97,0.47c0.33,0.16,0.67,0.33,0.98,0.49
					c0.98,0.48,1.74,0.86,1.74,0.87c0,0,0.03-0.01,0.08-0.04v-0.99v-1.07v-0.45v-0.16v-0.48v-1.02v-1.21v-2.36v-3.79v-0.74v-0.23
					v-0.28v-0.38v-0.37v-0.01v-0.14v-0.09v-0.48v-3.61v-0.34v-1.23v-0.23v-1.1v-1.43v-0.68v-0.2v-0.02v-0.98v-2.7v-0.97v-0.73v-4.96
					L26.98,49.39L26.98,49.39L26.98,49.39z"/>
			</g>
		</g>
	</g>
	<g>
		<path class="st2" d="M16.4,21.63c-0.1,1.89-3.89,4.76-3.89,4.76s-3.9-2.89-3.9-4.79c0-1.3,1.06-2.35,2.37-2.35
			c0.73,0,1.55,0.66,1.55,0.66s0.77-0.66,1.53-0.65C15.35,19.28,16.47,20.33,16.4,21.63z"/>
		<path class="st5" d="M14.05,19.26c-0.75-0.01-1.53,0.65-1.53,0.65s-0.01-0.01-0.03-0.02v6.5c0.01,0,0.01,0.01,0.01,0.01
			s3.79-2.87,3.89-4.76C16.47,20.33,15.35,19.28,14.05,19.26z"/>
	</g>
	<g>
		<path class="st2" d="M50.27,70.73c0.1-1.89,3.89-4.76,3.89-4.76s3.9,2.9,3.9,4.79c0,1.3-1.06,2.35-2.37,2.35
			c-0.73,0-1.55-0.66-1.55-0.66s-0.77,0.66-1.53,0.65C51.32,73.08,50.21,72.04,50.27,70.73z"/>
		<path class="st5" d="M52.63,73.1c0.75,0.01,1.53-0.65,1.53-0.65s0.01,0.01,0.03,0.02v-6.5c-0.01,0-0.01-0.01-0.01-0.01
			s-3.79,2.87-3.89,4.76C50.21,72.04,51.32,73.08,52.63,73.1z"/>
	</g>
</g>
</svg>
