<?xml version="1.0" encoding="utf-8"?>
<!-- Generator: Adobe Illustrator 26.0.3, SVG Export Plug-In . SVG Version: 6.00 Build 0)  -->
<svg version="1.1" id="Layer_1" xmlns="http://www.w3.org/2000/svg" xmlns:xlink="http://www.w3.org/1999/xlink" x="0px" y="0px"
	 viewBox="0 0 66 92" style="enable-background:new 0 0 66 92;" xml:space="preserve">
<style type="text/css">
	.st0{fill:#C9C9C9;}
	.st1{fill:#FFFFFF;}
	.st2{fill:#333333;}
	.st3{fill:#D66142;}
	.st4{fill:#EBB07A;}
	.st5{opacity:0.2;fill:#616161;}
	.st6{opacity:0.2;}
	.st7{fill:#616161;}
	.st8{fill:#FFD675;}
</style>
<g>
	<g>
		<path class="st0" d="M10.02,87.25c-3.48,0-6.33-2.78-6.34-6.2L3.5,10.99C3.49,7.55,6.33,4.75,9.83,4.75l46.29,0.09
			c3.48,0.01,6.32,2.81,6.32,6.25v69.9c0,3.42-2.82,6.2-6.3,6.21L10.02,87.25z"/>
		<path class="st1" d="M10.65,87.16c-3.44,0-6.24-2.79-6.24-6.22V11.06c0-3.43,2.8-6.22,6.24-6.22h45.61c3.44,0,6.24,2.79,6.24,6.22
			v69.88c0,3.43-2.8,6.22-6.24,6.22H10.65z"/>
	</g>
	<g>
		<g>
			<path class="st2" d="M10.3,9.22C10.17,9.46,10,9.63,9.79,9.76c-0.2,0.12-0.41,0.18-0.61,0.18c-0.07,0-0.3-0.05-0.7-0.15
				C8.29,9.74,8.12,9.72,7.97,9.72c-0.1,0-0.2,0.01-0.29,0.04c-0.1,0.02-0.18,0.06-0.25,0.12H7.35V9.78
				c0.14-0.31,0.3-0.53,0.49-0.66c0.19-0.13,0.44-0.2,0.75-0.2c0.22,0,0.44,0.04,0.64,0.11c0.21,0.07,0.4,0.11,0.59,0.11
				c0.06,0,0.13,0,0.22-0.01c0.08,0,0.17-0.01,0.27-0.03V9.22z M10.32,13.1c0,0.43-0.16,0.78-0.49,1.04
				c-0.33,0.26-0.75,0.4-1.26,0.4c-0.31,0-0.57-0.06-0.78-0.18C7.54,14.2,7.41,14,7.41,13.72c0-0.13,0.03-0.24,0.11-0.34
				c0.1-0.13,0.24-0.2,0.42-0.2c0.12,0,0.22,0.04,0.31,0.12c0.09,0.08,0.14,0.17,0.14,0.29c0,0.19-0.08,0.32-0.24,0.38
				c-0.16,0.07-0.24,0.11-0.24,0.14c0.03,0.06,0.06,0.1,0.09,0.13c0.09,0.08,0.23,0.13,0.4,0.13c0.18,0,0.33-0.04,0.45-0.13
				c0.13-0.08,0.19-0.2,0.19-0.35v-3.72c0.23-0.07,0.44-0.15,0.64-0.22c0.2-0.07,0.37-0.18,0.53-0.32h0.11V13.1z"/>
			<path class="st2" d="M10.03,18.16c0,0.22-0.04,0.42-0.12,0.61c-0.05,0.13-0.12,0.24-0.19,0.34c-0.14,0.19-0.25,0.34-0.33,0.44
				c-0.24,0.29-0.39,0.44-0.47,0.44c-0.06,0-0.14-0.04-0.22-0.11c-0.09-0.07-0.17-0.14-0.25-0.21c-0.22-0.18-0.39-0.38-0.51-0.6
				c-0.12-0.22-0.18-0.47-0.18-0.74c0-0.19,0.03-0.38,0.09-0.55c0.06-0.17,0.14-0.33,0.24-0.46c0.49-0.64,0.77-0.96,0.84-0.96
				c0.03,0,0.15,0.11,0.36,0.32c0.23,0.23,0.38,0.42,0.47,0.58c0.08,0.13,0.14,0.27,0.19,0.44C10,17.84,10.03,18,10.03,18.16z
				 M9.42,18.95c0-0.36-0.09-0.7-0.27-1.03c-0.27-0.48-0.49-0.72-0.68-0.72c-0.05,0-0.09,0.04-0.11,0.12
				c-0.02,0.08-0.03,0.17-0.03,0.25c0,0.39,0.08,0.7,0.23,0.94c0.11,0.18,0.37,0.42,0.76,0.73c0.04-0.04,0.07-0.08,0.08-0.12
				C9.42,19.08,9.42,19.02,9.42,18.95z"/>
			<path class="st2" d="M10.07,25.71c-0.1,0.11-0.17,0.19-0.23,0.24c-0.16,0.16-0.28,0.24-0.36,0.24c-0.2,0-0.35-0.29-0.46-0.86
				C8.95,25.01,8.88,24.8,8.8,24.7H8.71c-0.02,0.02-0.03,0.04-0.03,0.07v1.41H7.77v-4.44c0.05-0.04,0.13-0.09,0.24-0.14
				c0.28-0.11,0.46-0.19,0.53-0.22h0.14v1.78c0.08,0,0.24-0.08,0.48-0.24c0.12-0.08,0.25-0.16,0.38-0.24c0.05,0,0.12,0.07,0.22,0.22
				c0.11,0.17,0.16,0.35,0.16,0.53c0,0.23-0.09,0.42-0.27,0.58c-0.18,0.16-0.27,0.26-0.27,0.31c0,0.02,0.05,0.1,0.16,0.25
				c0.11,0.14,0.17,0.24,0.18,0.28c0.02,0.04,0.05,0.2,0.1,0.46c0,0.04,0.02,0.08,0.03,0.13c0.02,0.05,0.06,0.11,0.12,0.16
				C10.03,25.64,10.07,25.68,10.07,25.71z M9.16,23.82c0-0.1-0.02-0.19-0.07-0.28c-0.07-0.12-0.14-0.18-0.2-0.18
				c-0.04,0.01-0.07,0.02-0.09,0.03c-0.06,0.04-0.09,0.08-0.09,0.13v0.83c0.14-0.02,0.25-0.09,0.34-0.22
				C9.13,24.03,9.16,23.93,9.16,23.82z"/>
			<path class="st2" d="M9.86,29.8c0,0.14-0.17,0.35-0.52,0.65c-0.35,0.3-0.52,0.47-0.52,0.52c0,0.12,0.28,0.4,0.85,0.84
				c-0.02,0.04-0.13,0.14-0.32,0.31c-0.19,0.17-0.31,0.25-0.34,0.25c-0.03,0-0.1-0.04-0.2-0.11c-0.1-0.07-0.21-0.17-0.33-0.29
				c-0.2-0.2-0.35-0.43-0.45-0.71c-0.08-0.22-0.12-0.43-0.12-0.62c0-0.13,0.03-0.28,0.09-0.45c0.06-0.18,0.15-0.35,0.26-0.52
				c0.06-0.09,0.2-0.25,0.42-0.49c0.25-0.26,0.41-0.4,0.47-0.4c0.01,0,0.07,0.06,0.16,0.19c0.07,0.11,0.15,0.21,0.23,0.32
				c0.02,0.02,0.07,0.09,0.16,0.23C9.81,29.68,9.86,29.77,9.86,29.8z M9.14,30.18c0-0.03-0.04-0.11-0.13-0.24
				c-0.11-0.18-0.21-0.33-0.3-0.44H8.65c-0.04,0.11-0.08,0.23-0.11,0.33c-0.03,0.11-0.05,0.19-0.05,0.24c0,0.14,0.02,0.27,0.05,0.38
				c0.03,0.11,0.08,0.17,0.14,0.17c0.05,0,0.14-0.07,0.27-0.2C9.07,30.3,9.14,30.21,9.14,30.18z"/>
			<path class="st2" d="M9.82,35.53c0,0.04-0.04,0.11-0.12,0.2c-0.17,0.19-0.27,0.28-0.31,0.28c-0.03,0-0.07-0.03-0.12-0.09
				c-0.07-0.08-0.14-0.15-0.21-0.19v2.86H8.15v-2.86c0-0.04-0.02-0.09-0.07-0.16c-0.05-0.07-0.09-0.12-0.14-0.15
				c0.02-0.05,0.11-0.13,0.27-0.26c0.16-0.12,0.27-0.18,0.34-0.18c0.05,0,0.12,0.04,0.2,0.13c0.08,0.08,0.16,0.17,0.24,0.25
				c0.03,0,0.12-0.06,0.24-0.19c0.12-0.13,0.19-0.19,0.2-0.19c0.09,0.06,0.15,0.11,0.19,0.15C9.76,35.26,9.82,35.39,9.82,35.53z"/>
		</g>
		<g>
			<path class="st3" d="M57.7,78.6c0-0.43,0.16-0.78,0.49-1.04c0.33-0.26,0.75-0.4,1.26-0.4c0.31,0,0.57,0.06,0.78,0.18
				c0.25,0.15,0.38,0.35,0.38,0.63c0,0.13-0.03,0.24-0.11,0.34c-0.1,0.13-0.24,0.2-0.42,0.2c-0.12,0-0.22-0.04-0.31-0.12
				c-0.09-0.08-0.14-0.17-0.14-0.29c0-0.19,0.08-0.32,0.24-0.38c0.16-0.07,0.24-0.11,0.24-0.14c-0.03-0.06-0.06-0.1-0.09-0.13
				c-0.09-0.08-0.23-0.12-0.4-0.12c-0.18,0-0.33,0.04-0.45,0.12c-0.13,0.08-0.19,0.2-0.19,0.35v3.72c-0.23,0.07-0.44,0.15-0.64,0.22
				c-0.2,0.07-0.37,0.18-0.53,0.32H57.7V78.6z M57.72,82.47c0.14-0.23,0.31-0.41,0.51-0.53c0.2-0.12,0.41-0.18,0.61-0.18
				c0.07,0,0.3,0.05,0.7,0.15c0.19,0.05,0.36,0.07,0.51,0.07c0.1,0,0.2-0.01,0.29-0.04c0.1-0.02,0.18-0.06,0.25-0.12h0.07v0.09
				c-0.14,0.31-0.3,0.53-0.49,0.66c-0.19,0.13-0.44,0.2-0.75,0.2c-0.22,0-0.44-0.04-0.64-0.11c-0.21-0.07-0.4-0.11-0.59-0.11
				c-0.06,0-0.13,0-0.22,0.01c-0.08,0-0.17,0.01-0.27,0.03V82.47z"/>
			<path class="st3" d="M57.99,73.54c0-0.22,0.04-0.42,0.12-0.61c0.05-0.13,0.12-0.24,0.19-0.34c0.14-0.19,0.25-0.34,0.33-0.44
				c0.24-0.29,0.39-0.44,0.47-0.44c0.06,0,0.14,0.04,0.22,0.11c0.09,0.07,0.17,0.14,0.25,0.21c0.22,0.18,0.39,0.37,0.51,0.6
				c0.12,0.22,0.18,0.47,0.18,0.74c0,0.19-0.03,0.38-0.09,0.55c-0.06,0.17-0.14,0.33-0.24,0.46c-0.49,0.64-0.77,0.96-0.84,0.96
				c-0.03,0-0.15-0.11-0.36-0.32c-0.23-0.23-0.38-0.42-0.47-0.58c-0.08-0.13-0.14-0.27-0.19-0.44
				C58.02,73.85,57.99,73.69,57.99,73.54z M58.6,72.75c0,0.36,0.09,0.7,0.27,1.03c0.27,0.48,0.49,0.72,0.68,0.72
				c0.05,0,0.09-0.04,0.11-0.12c0.02-0.08,0.03-0.17,0.03-0.25c0-0.39-0.08-0.7-0.23-0.94c-0.11-0.18-0.37-0.42-0.76-0.73
				c-0.04,0.04-0.07,0.08-0.08,0.12C58.61,72.61,58.6,72.67,58.6,72.75z"/>
			<path class="st3" d="M57.95,65.99c0.1-0.11,0.17-0.19,0.23-0.24c0.16-0.16,0.28-0.24,0.36-0.24c0.2,0,0.35,0.29,0.46,0.86
				c0.06,0.32,0.13,0.53,0.22,0.63h0.09c0.02-0.02,0.03-0.04,0.03-0.07v-1.41h0.92v4.44c-0.05,0.04-0.13,0.09-0.24,0.14
				c-0.28,0.11-0.46,0.19-0.53,0.22h-0.14v-1.78c-0.08,0-0.24,0.08-0.48,0.24c-0.12,0.08-0.25,0.16-0.38,0.24
				c-0.05,0-0.12-0.07-0.22-0.22c-0.11-0.17-0.16-0.35-0.16-0.53c0-0.23,0.09-0.42,0.27-0.58c0.18-0.16,0.27-0.26,0.27-0.31
				c0-0.02-0.05-0.1-0.16-0.25c-0.11-0.14-0.17-0.24-0.18-0.28c-0.02-0.04-0.05-0.2-0.1-0.46c0-0.03-0.02-0.08-0.03-0.13
				c-0.02-0.05-0.06-0.11-0.12-0.16C57.99,66.05,57.95,66.01,57.95,65.99z M58.86,67.87c0,0.1,0.02,0.19,0.07,0.28
				c0.07,0.12,0.14,0.18,0.2,0.18c0.04-0.01,0.07-0.02,0.09-0.03c0.06-0.03,0.09-0.08,0.09-0.12v-0.83
				c-0.14,0.02-0.25,0.09-0.34,0.22C58.89,67.67,58.86,67.77,58.86,67.87z"/>
			<path class="st3" d="M58.16,61.89c0-0.14,0.17-0.35,0.52-0.65c0.35-0.3,0.52-0.47,0.52-0.52c0-0.12-0.28-0.4-0.85-0.84
				c0.02-0.04,0.13-0.14,0.32-0.31c0.19-0.17,0.31-0.25,0.34-0.25c0.03,0,0.1,0.04,0.2,0.11c0.1,0.08,0.21,0.17,0.33,0.29
				c0.2,0.2,0.35,0.43,0.45,0.71c0.08,0.22,0.12,0.43,0.12,0.62c0,0.13-0.03,0.28-0.09,0.46c-0.06,0.18-0.15,0.35-0.26,0.52
				c-0.06,0.09-0.2,0.25-0.42,0.49c-0.25,0.26-0.41,0.4-0.47,0.4c-0.01,0-0.07-0.06-0.16-0.18c-0.07-0.11-0.15-0.21-0.23-0.32
				c-0.02-0.02-0.07-0.09-0.16-0.23C58.21,62.02,58.16,61.92,58.16,61.89z M58.88,61.52c0,0.03,0.04,0.11,0.13,0.24
				c0.11,0.18,0.21,0.33,0.3,0.44h0.07c0.04-0.11,0.08-0.23,0.11-0.33c0.03-0.11,0.05-0.19,0.05-0.24c0-0.14-0.02-0.27-0.05-0.38
				c-0.03-0.11-0.08-0.17-0.14-0.17c-0.05,0-0.14,0.07-0.27,0.2C58.95,61.4,58.88,61.48,58.88,61.52z"/>
			<path class="st3" d="M58.2,56.17c0-0.04,0.04-0.11,0.12-0.2c0.17-0.19,0.27-0.28,0.31-0.28c0.03,0,0.07,0.03,0.12,0.09
				c0.07,0.08,0.14,0.15,0.21,0.19V53.1h0.92v2.86c0,0.04,0.02,0.09,0.07,0.16c0.05,0.07,0.09,0.12,0.14,0.15
				c-0.02,0.05-0.11,0.13-0.27,0.26c-0.16,0.12-0.27,0.18-0.34,0.18c-0.05,0-0.12-0.04-0.2-0.13c-0.08-0.08-0.16-0.17-0.24-0.25
				c-0.03,0-0.12,0.06-0.24,0.19c-0.12,0.13-0.19,0.19-0.2,0.19c-0.09-0.06-0.15-0.11-0.19-0.15C58.26,56.44,58.2,56.3,58.2,56.17z"
				/>
		</g>
		<g>
			<g>
				<path class="st3" d="M33.4,29.75c-11.07,0-20.06,9-20.06,20.06c0,4.5,1.49,8.67,4.01,12.02c1.25,1.67,2.74,3.13,4.44,4.33
					c3.28,2.34,7.29,3.71,11.62,3.71c4.44,0,8.55-1.45,11.88-3.91c1.76-1.3,3.3-2.88,4.56-4.67c2.28-3.26,3.62-7.22,3.62-11.49
					C53.47,38.75,44.47,29.75,33.4,29.75z M49.18,59.91c-0.95,1.47-2.1,2.8-3.41,3.96c-3.3,2.91-7.63,4.67-12.37,4.67
					c-4.28,0-8.24-1.44-11.4-3.87c-1.54-1.19-2.9-2.61-4.01-4.21c-2.1-3.03-3.33-6.7-3.33-10.65c0-10.33,8.41-18.74,18.74-18.74
					c10.33,0,18.74,8.41,18.74,18.74C52.14,53.53,51.05,56.99,49.18,59.91z"/>
			</g>
			<g>
				<g>
					<path class="st4" d="M35.4,42.39v2.91c0,1.28-0.9,2.33-1.99,2.33c-0.55,0-1.05-0.26-1.41-0.68c-0.36-0.42-0.59-1-0.59-1.65
						v-2.91c0-1.28,0.89-2.33,1.99-2.33c0.55,0,1.05,0.26,1.41,0.68C35.18,41.16,35.4,41.74,35.4,42.39z"/>
					<g>
						<path class="st5" d="M35.4,42.39v0.82c-0.62,0.14-1.26,0.22-1.92,0.22c-0.71,0-1.4-0.09-2.07-0.26v-0.77
							c0-1.28,0.89-2.33,1.99-2.33c0.55,0,1.05,0.26,1.41,0.68C35.18,41.16,35.4,41.74,35.4,42.39z"/>
					</g>
				</g>
				<path class="st4" d="M42.09,33.91c0,4.76-3.85,8.61-8.61,8.61c-4.76,0-8.75-4.03-8.75-8.78c0-0.41,0.03-0.81,0.09-1.2
					c0.23-1.6,0.92-3.04,1.92-4.2c1.09-1.26,2.55-2.21,4.2-2.68c0.81-0.24,1.66-0.36,2.54-0.36c0.82,0,1.6,0.12,2.35,0.33
					c1.65,0.46,3.09,1.4,4.18,2.67c1.03,1.19,1.74,2.68,1.99,4.31C42.05,33.02,42.09,33.46,42.09,33.91z"/>
				<g>
					<polygon class="st3" points="15.11,26.72 16.37,24.91 17.76,26.63 16.5,28.44 					"/>
					<path class="st2" d="M17.97,30.16c0-0.33-1.45-1.75-1.45-1.75s-1.41,1.47-1.41,1.75c0,0.48,0.39,0.87,0.87,0.87
						c0.16,0,0.31-0.05,0.44-0.12l-0.54,0.92h1.31l-0.54-0.92c0.13,0.08,0.28,0.12,0.45,0.12C17.58,31.03,17.97,30.64,17.97,30.16z"
						/>
					<g>
						<path class="st3" d="M35.39,25.67l-0.81,0.57l-1.07-0.95l-8.66,6.92l-0.72-2.75l-0.67-2.56l-0.42-1.61l-0.48-1.34L22,22.37
							L21.5,21l-0.39,0.19L19.45,22l-1.33,0.64l-0.88,0.43l-0.47,1l-0.41,0.88l-0.46-1.02l-0.43-0.97l0.99-1.54l1.74-2.71l1.08-1.68
							l2.22,0.22l5.36,0.54l2.11,0.21c0,0,0.52,0.7,1.19,1.59c0.69,0.93,1.56,2.08,2.17,2.87c0.44,0.56,0.75,0.93,0.79,0.93
							l0.19,0.19L35.39,25.67z"/>
						<polygon class="st2" points="16.36,24.96 15.48,22.94 17.12,23.34 						"/>
						<polygon class="st2" points="19.45,22 18.12,22.65 16.46,21.43 18.21,18.72 						"/>
						<path class="st2" d="M32.34,22.47l-8.87,4.43l-0.42-1.61l-0.48-1.34l7.6-4.34C30.87,20.54,31.73,21.68,32.34,22.47z"/>
						<path class="st2" d="M26.87,17.8c-1.35,1.37-3.44,3.43-4.87,4.57L21.5,21l-0.39,0.19l0.39-3.93L26.87,17.8z"/>
					</g>
					<g>
						<path class="st3" d="M33.74,25.29l8.21,6.92l0.72-2.75l0.67-2.56l0.42-1.61l0.48-1.34l0.57-1.58l0.5-1.37l0.38,0.19L47.37,22
							l1.32,0.64l0.88,0.43l0.47,1l0.41,0.88l0.46-1.02l0.43-0.97l-0.99-1.54l-1.75-2.71l-1.08-1.68l-2.22,0.22l-5.36,0.54
							l-2.11,0.21c0,0-0.52,0.7-1.19,1.59c-0.69,0.93-1.56,2.08-2.17,2.87c-0.43,0.56-0.75,0.93-0.79,0.93l-0.19,0.19L33.74,25.29z"
							/>
						<polygon class="st2" points="49.69,23.34 51.33,22.94 50.46,24.96 						"/>
						<polygon class="st2" points="47.37,22 48.69,22.65 50.35,21.43 48.6,18.72 						"/>
						<path class="st2" d="M34.47,22.47l8.87,4.43l0.42-1.61l0.48-1.34l-7.6-4.34C35.95,20.54,35.08,21.68,34.47,22.47z"/>
						<path class="st2" d="M39.94,17.8c1.35,1.37,3.44,3.43,4.87,4.57l0.5-1.37l0.38,0.19l-0.39-3.93L39.94,17.8z"/>
					</g>
					<path class="st3" d="M51.92,25.48c0,0.33-1.43,1.73-1.43,1.73s-1.39-1.45-1.39-1.73c0-0.47,0.38-0.86,0.86-0.86
						c0.16,0,0.31,0.05,0.44,0.12l0.12,0.11l0.11-0.11c0.13-0.08,0.28-0.12,0.44-0.12C51.54,24.63,51.92,25.01,51.92,25.48z"/>
					<path class="st2" d="M51.3,28.18c0.01-0.06,0.02-0.11,0.02-0.18c0-0.44-0.35-0.79-0.79-0.79c-0.44,0-0.79,0.35-0.79,0.79
						c0,0.09,0.02,0.18,0.05,0.27c-0.39,0.03-0.69,0.35-0.69,0.74c0,0.41,0.33,0.75,0.75,0.75c0.11,0,0.22-0.02,0.31-0.07
						c0.1-0.02,0.19-0.05,0.27-0.1l-0.51,0.87h1.23l-0.51-0.87c0.1,0.06,0.22,0.1,0.34,0.11c0.09,0.04,0.19,0.06,0.3,0.06
						c0.44,0,0.79-0.35,0.79-0.79C52.08,28.54,51.73,28.19,51.3,28.18z"/>
					<path class="st5" d="M41.99,32.6l-0.04,0.15l-4.4-3.56l-4.14,3.04l-4.05-3.1l-4.49,3.62l-0.05-0.21
						c0.23-1.6,0.92-3.04,1.92-4.2l4.2-2.68c0.81-0.24,1.66-0.36,2.54-0.36c0.82,0,1.6,0.12,2.35,0.33L40,28.29
						C41.03,29.48,41.74,30.97,41.99,32.6z"/>
					<polygon class="st2" points="42.67,29.46 33.49,23.59 33.41,23.68 33.32,23.59 24.14,29.46 24.86,32.21 29.35,28.6 
						33.41,31.69 37.55,28.65 41.95,32.21 					"/>
				</g>
				<path class="st2" d="M49.84,61.3c-0.7,1-1.5,1.95-2.37,2.8c-0.68,0.67-1.41,1.3-2.19,1.87l-0.58-0.17l1.06-1.93l0.5-0.92
					l-3.46-4.95v9.51c-0.72,0.38-1.46,0.73-2.23,1.02c-2.23,0.86-4.65,1.33-7.18,1.33c-0.7,0-1.4-0.03-2.09-0.11
					c-2.02-0.21-3.95-0.72-5.74-1.48l-0.03-1.47l-0.19-9.6l-3.77,5.2l-0.46,0.64l0.89,1.62l0.68,1.23l-0.9,0.26
					c-1.7-1.2-3.19-2.67-4.44-4.33L18,60.47l3.3-6.89l2.21-4.61l2.65-1.27c0.91-1.16,2.28-1.93,3.83-2.03c0.01,0,0.02,0,0.03,0
					c0.11-0.01,0.21-0.01,0.32-0.01h7.15c0.12,0,0.23,0,0.34,0.01h0.03c1.67,0.12,3.12,0.99,4.01,2.28l2,0.92l2.32,4.83l2.99,6.22
					L49.84,61.3z"/>
				<g>
					<path class="st5" d="M31.31,69.76c-2.02-0.21-3.95-0.72-5.74-1.48l-0.03-1.47l-0.19-9.6l-3.77,5.2L26,54.43l0.76,12.91
						L31.31,69.76z"/>
					<path class="st5" d="M47.61,62.81l-0.13,1.29c-0.68,0.67-1.41,1.3-2.19,1.87l-0.58-0.17l1.06-1.93l0.5-0.92l-3.46-4.95v9.51
						c-0.72,0.38-1.46,0.73-2.23,1.02l1.23-0.94l0.6-12.57L47.61,62.81z"/>
				</g>
				<g>
					<g class="st6">
						<path class="st7" d="M26.17,47.7l-2.65,1.27l-2.21,4.61l8.7-7.91C28.45,45.77,27.08,46.54,26.17,47.7z"/>
						<path class="st7" d="M34.42,45.65l-4.44,0.02h0l0,0.02l3.11,12.76c-0.5,0.17-0.86,0.63-0.87,1.18
							c-0.01,0.69,0.54,1.24,1.23,1.24c0.69,0,1.26-0.57,1.27-1.25c0.01-0.58-0.39-1.06-0.92-1.2l3.59-12.78L34.42,45.65z"/>
						<path class="st7" d="M43.88,48.86l-2-0.92c-0.89-1.29-2.34-2.17-4.01-2.28h-0.43l8.76,8.03L43.88,48.86z"/>
					</g>
					<g>
						<polygon class="st3" points="30.02,45.65 25.04,45.65 19.41,52.28 30.02,45.65 33.4,56.52 37.46,45.65 30.02,45.65 						"/>
						<polygon class="st3" points="42.44,45.65 37.46,45.65 48.07,52.28 						"/>
					</g>
					<path class="st8" d="M19.96,53.18c0,0.69-0.56,1.25-1.25,1.25c-0.69,0-1.25-0.56-1.25-1.25c0-0.69,0.56-1.25,1.25-1.25
						C19.4,51.93,19.96,52.49,19.96,53.18z"/>
					<path class="st8" d="M34.65,57.77c0,0.69-0.56,1.25-1.25,1.25c-0.69,0-1.25-0.56-1.25-1.25c0-0.69,0.56-1.25,1.25-1.25
						C34.09,56.52,34.65,57.08,34.65,57.77z"/>
					<path class="st8" d="M50.11,53.18c0,0.69-0.56,1.25-1.25,1.25c-0.69,0-1.25-0.56-1.25-1.25c0-0.69,0.56-1.25,1.25-1.25
						C49.55,51.93,50.11,52.49,50.11,53.18z"/>
				</g>
				<g>
					<path class="st2" d="M30.28,34.81c0.03-0.12,0.05-0.23,0.05-0.36c0-0.8-0.65-1.44-1.44-1.44c-0.79,0-1.44,0.64-1.44,1.44
						c0,0.13,0.02,0.24,0.05,0.36H30.28z"/>
					<path class="st2" d="M39.3,34.81c0.03-0.12,0.05-0.23,0.05-0.36c0-0.8-0.65-1.44-1.44-1.44c-0.79,0-1.44,0.64-1.44,1.44
						c0,0.13,0.02,0.24,0.05,0.36H39.3z"/>
					<path class="st5" d="M34.66,36.36c0,0.69-0.56,1.26-1.25,1.26c-0.69,0-1.25-0.56-1.25-1.26c0-0.69,0.56-2.71,1.25-2.71
						C34.1,33.65,34.66,35.67,34.66,36.36z"/>
				</g>
			</g>
			<g>
				<path class="st5" d="M51.3,28.18c0.01-0.06,0.02-0.11,0.02-0.18c0-0.44-0.35-0.79-0.79-0.79c-0.44,0-0.79,0.35-0.79,0.79
					c0,0.09,0.02,0.18,0.05,0.27c-0.39,0.03-0.69,0.35-0.69,0.74c0,0.41,0.33,0.75,0.75,0.75c0.11,0,0.22-0.02,0.31-0.07
					c0.1-0.02,0.19-0.05,0.27-0.1l-0.51,0.87h1.23l-0.51-0.87c0.1,0.06,0.22,0.1,0.34,0.11c0.09,0.04,0.19,0.06,0.3,0.06
					c0.44,0,0.79-0.35,0.79-0.79C52.08,28.54,51.73,28.19,51.3,28.18z"/>
				<path class="st5" d="M51.07,24.63c-0.16,0-0.31,0.05-0.44,0.12l-0.11,0.11l-0.01-0.01l0.41-0.92l0.43-0.97l-0.01-0.02
					l-0.98-1.51l-1.75-2.71l-1.08-1.68l-2.22,0.22l-5.36,0.54l-2.11,0.21c0,0-0.52,0.7-1.19,1.59c-0.69,0.93-1.56,2.08-2.17,2.87
					c-0.43,0.56-0.75,0.93-0.79,0.93l-0.19,0.19l-0.08,0.08l-0.01-0.01v46.21c0,0,0,0,0.01,0c2.53,0,4.95-0.47,7.18-1.33
					c0.77-0.3,1.52-0.64,2.23-1.02v-9.51l3.46,4.95l-0.5,0.92l-1.06,1.93l0.58,0.17c0.78-0.57,1.51-1.2,2.19-1.87
					c0.87-0.85,1.67-1.8,2.37-2.8l-0.66-1.39l-2.99-6.22L44.42,50l3.61,2.25c-0.26,0.23-0.42,0.56-0.42,0.93
					c0,0.69,0.56,1.25,1.25,1.25c0.69,0,1.25-0.56,1.25-1.25c0-0.69-0.56-1.25-1.25-1.25c-0.32,0-0.6,0.12-0.82,0.31l-5.6-6.59
					h-4.99l0,0h0l0,0h-2.09c0.01-0.12,0.03-0.23,0.03-0.35v-2.91c0-0.03-0.01-0.06-0.01-0.09c3.84-0.87,6.7-4.29,6.7-8.39
					c0-0.45-0.03-0.89-0.1-1.31c-0.02-0.14-0.05-0.27-0.08-0.41l0.04,0.03l0.72-2.75l0.67-2.56l0.42-1.61l0.48-1.34l0.57-1.58
					l0.5-1.37l0.38,0.19L47.37,22l1.32,0.64l0.88,0.43l0.47,1l0.3,0.65c-0.12-0.06-0.25-0.1-0.39-0.1c-0.47,0-0.86,0.38-0.86,0.86
					c0,0.28,1.39,1.73,1.39,1.73s1.43-1.4,1.43-1.73C51.92,25.01,51.54,24.63,51.07,24.63z"/>
			</g>
			<g>
				<path class="st3" d="M53.47,49.81c0,4.27-1.34,8.23-3.62,11.49c-1.25,1.79-2.79,3.37-4.56,4.67c-0.78,0.58-1.6,1.09-2.47,1.55
					c-2.81,1.51-6.02,2.36-9.41,2.36c-2.78,0-5.43-0.57-7.83-1.59c-1.34-0.57-2.61-1.29-3.78-2.12c-1.7-1.2-3.19-2.67-4.44-4.33
					c-2.52-3.35-4.01-7.51-4.01-12.02c0-6.78,3.38-12.79,8.55-16.42v1.66c-4.39,3.43-7.23,8.76-7.23,14.76
					c0,3.96,1.23,7.63,3.33,10.65c1.11,1.6,2.47,3.02,4.01,4.21c1.09,0.84,2.27,1.56,3.54,2.14c2.39,1.11,5.06,1.73,7.86,1.73
					c3.43,0,6.65-0.93,9.41-2.54c1.05-0.61,2.05-1.33,2.96-2.13c1.31-1.16,2.46-2.49,3.41-3.96c1.87-2.92,2.96-6.39,2.96-10.1
					c0-6.26-3.09-11.81-7.82-15.21v-1.61C49.82,36.57,53.47,42.77,53.47,49.81z"/>
			</g>
			<g>
				<g>
					<g>
						
							<rect x="18.94" y="66.13" transform="matrix(0.9605 -0.2781 0.2781 0.9605 -18.9488 9.036)" class="st1" width="6.87" height="10.35"/>
						<path class="st2" d="M20.3,77.63l-3.06-10.55l7.21-2.09l3.06,10.55L20.3,77.63z M18.03,67.51l2.7,9.33l5.98-1.73l-2.7-9.33
							L18.03,67.51z"/>
					</g>
					<polygon class="st3" points="20.46,72.06 21.67,68.98 24.29,71 23.08,74.08 					"/>
				</g>
				<g>
					<g>
						
							<rect x="27.34" y="63.58" transform="matrix(0.9586 -0.2849 0.2849 0.9586 -18.3117 11.6157)" class="st1" width="6.87" height="10.35"/>
						<path class="st2" d="M28.74,75.08l-3.13-10.53l7.19-2.14l3.12,10.53L28.74,75.08z M26.4,64.98l2.76,9.31l5.97-1.77l-2.76-9.31
							L26.4,64.98z"/>
					</g>
					<path class="st2" d="M32.8,68.35c-0.14-0.48-2.83-1.9-2.83-1.9s-1.4,2.71-1.28,3.12c0.2,0.69,0.92,1.08,1.61,0.87
						c0.23-0.07,0.44-0.2,0.59-0.37l-0.38,1.56l1.89-0.56l-1.17-1.1c0.22,0.06,0.46,0.06,0.69-0.01C32.61,69.75,33,69.03,32.8,68.35
						z"/>
				</g>
				<g>
					<g>
						
							<rect x="35.71" y="61.1" transform="matrix(0.9605 -0.2782 0.2782 0.9605 -16.8911 13.5053)" class="st1" width="6.87" height="10.35"/>
						<path class="st2" d="M37.07,72.59l-3.06-10.55l7.21-2.09l3.06,10.55L37.07,72.59z M34.8,62.47l2.7,9.33l5.98-1.73l-2.7-9.33
							L34.8,62.47z"/>
					</g>
					<path class="st3" d="M41.19,65.18c0.14,0.47-1.33,3.1-1.33,3.1s-2.62-1.5-2.74-1.9c-0.2-0.68,0.19-1.39,0.87-1.59
						c0.23-0.07,0.47-0.07,0.69-0.01l0.22,0.11l0.11-0.21c0.15-0.17,0.35-0.3,0.58-0.36C40.28,64.11,40.99,64.5,41.19,65.18z"/>
				</g>
				<g>
					<g>
						
							<rect x="44.09" y="58.51" transform="matrix(0.9605 -0.2781 0.2781 0.9605 -15.8383 15.7319)" class="st1" width="6.87" height="10.35"/>
						<path class="st2" d="M45.45,70l-3.06-10.55l7.21-2.09l3.05,10.55L45.45,70z M43.18,59.89l2.7,9.33l5.99-1.73l-2.7-9.33
							L43.18,59.89z"/>
					</g>
					<path class="st2" d="M48.47,62.77c-0.01-0.09-0.02-0.17-0.05-0.26c-0.18-0.63-0.85-0.99-1.47-0.8
						c-0.63,0.19-0.99,0.84-0.8,1.47c0.04,0.14,0.1,0.26,0.18,0.36c-0.54,0.21-0.84,0.8-0.67,1.36c0.18,0.59,0.8,0.93,1.39,0.76
						c0.16-0.05,0.3-0.13,0.41-0.23c0.14-0.07,0.25-0.16,0.35-0.27l-0.36,1.46l1.77-0.53l-1.1-1.03c0.17,0.05,0.35,0.05,0.54,0.02
						c0.15,0.01,0.3,0,0.45-0.04c0.63-0.19,0.99-0.85,0.8-1.47C49.74,62.96,49.09,62.6,48.47,62.77z"/>
				</g>
			</g>
			<g>
				<g>
					<polygon class="st2" points="36.48,32.58 35.62,32.1 35.93,31.55 36.47,31.85 38.59,30.62 39.55,31.36 39.16,31.86 
						38.54,31.39 					"/>
				</g>
				<g>
					<polygon class="st2" points="30.33,32.58 28.27,31.39 27.65,31.86 27.26,31.36 28.22,30.62 30.34,31.85 30.89,31.55 
						31.19,32.1 					"/>
				</g>
				<polygon class="st2" points="28.43,38.23 31.41,40.71 35.18,40.71 38.41,38.23 33.27,39.15 				"/>
			</g>
		</g>
	</g>
</g>
</svg>
