<?xml version="1.0" encoding="utf-8"?>
<!-- Generator: Adobe Illustrator 26.0.3, SVG Export Plug-In . SVG Version: 6.00 Build 0)  -->
<svg version="1.1" id="Layer_1" xmlns="http://www.w3.org/2000/svg" xmlns:xlink="http://www.w3.org/1999/xlink" x="0px" y="0px"
	 viewBox="0 0 66 92" style="enable-background:new 0 0 66 92;" xml:space="preserve">
<style type="text/css">
	.st0{fill:#C9C9C9;}
	.st1{fill:#FFFFFF;}
	.st2{fill:#333333;}
	.st3{fill:#757575;}
	.st4{fill:#EBB07A;}
	.st5{opacity:0.2;fill:#616161;}
	.st6{opacity:0.2;}
	.st7{fill:#616161;}
	.st8{fill:#1C1C1C;}
	.st9{fill:#ABABAB;}
	.st10{opacity:0.2;fill:#FFFFFF;}
	.st11{fill:#EBEBEB;}
	.st12{fill:#FFD675;}
</style>
<g>
	<g>
		<g>
			<path class="st0" d="M10.02,87.31c-3.49,0.01-6.33-2.78-6.34-6.21L3.5,10.98C3.49,7.53,6.33,4.72,9.83,4.73l46.34,0.09
				c3.49,0.01,6.33,2.81,6.33,6.26v69.97c0,3.42-2.83,6.21-6.3,6.21L10.02,87.31z"/>
			<path class="st1" d="M10.59,87.09c-3.44,0-6.25-2.79-6.25-6.22V10.91c0-3.43,2.8-6.22,6.25-6.22h45.66
				c3.44,0,6.25,2.79,6.25,6.22v69.96c0,3.43-2.8,6.22-6.25,6.22H10.59z"/>
			<g>
				<path class="st2" d="M56.25,85.82H10.59c-2.67,0-4.84-2.16-4.84-4.82V11.05c0-2.56,2.03-4.64,3.12-5.04l0.16-0.06l45.91,0
					c4.54,0.35,6.16,2.86,6.16,5.09v69.96C61.09,83.66,58.92,85.82,56.25,85.82z M9.41,7.87c-0.49,0.31-1.75,1.6-1.75,3.18v69.96
					c0,1.6,1.31,2.91,2.93,2.91h45.67c1.61,0,2.93-1.3,2.93-2.91V11.05c0-1.77-1.63-2.96-4.36-3.18H9.41z"/>
			</g>
			<g>
				<path class="st2" d="M14.53,10.49c-0.19,0.32-0.42,0.56-0.7,0.73c-0.28,0.17-0.56,0.25-0.84,0.25c-0.09,0-0.41-0.07-0.96-0.21
					c-0.26-0.07-0.49-0.1-0.71-0.1c-0.13,0-0.27,0.02-0.4,0.05c-0.14,0.03-0.25,0.09-0.35,0.17h-0.1v-0.13
					c0.19-0.42,0.41-0.72,0.67-0.9c0.26-0.18,0.6-0.27,1.03-0.27c0.31,0,0.6,0.05,0.88,0.15c0.28,0.1,0.55,0.15,0.81,0.15
					c0.08,0,0.18,0,0.29-0.01c0.11-0.01,0.23-0.02,0.37-0.04V10.49z M14.56,15.8c0,0.59-0.22,1.07-0.67,1.43
					c-0.45,0.36-1.02,0.54-1.72,0.54c-0.43,0-0.79-0.08-1.08-0.25c-0.34-0.2-0.52-0.49-0.52-0.86c0-0.17,0.05-0.33,0.14-0.46
					c0.13-0.18,0.33-0.27,0.58-0.27c0.16,0,0.31,0.05,0.43,0.16c0.12,0.11,0.19,0.24,0.19,0.39c0,0.26-0.11,0.43-0.33,0.52
					c-0.22,0.09-0.33,0.15-0.33,0.19c0.04,0.08,0.08,0.14,0.12,0.17c0.13,0.11,0.31,0.17,0.55,0.17c0.24,0,0.45-0.06,0.62-0.17
					c0.17-0.11,0.26-0.27,0.26-0.48v-5.1c0.31-0.1,0.61-0.2,0.88-0.3c0.27-0.1,0.51-0.25,0.72-0.44h0.15V15.8z"/>
			</g>
			<g>
				<path class="st2" d="M52.52,77.02c0-0.59,0.22-1.07,0.67-1.43c0.45-0.36,1.02-0.54,1.72-0.54c0.43,0,0.79,0.08,1.08,0.25
					c0.34,0.2,0.52,0.49,0.52,0.86c0,0.17-0.05,0.33-0.14,0.46c-0.13,0.18-0.33,0.27-0.58,0.27c-0.16,0-0.31-0.05-0.43-0.16
					c-0.12-0.11-0.19-0.24-0.19-0.39c0-0.26,0.11-0.43,0.33-0.52c0.22-0.09,0.33-0.15,0.33-0.19c-0.04-0.08-0.08-0.14-0.12-0.17
					c-0.13-0.11-0.31-0.17-0.55-0.17c-0.24,0-0.45,0.06-0.62,0.17c-0.17,0.11-0.26,0.27-0.26,0.48v5.1c-0.31,0.1-0.61,0.2-0.88,0.3
					c-0.27,0.1-0.51,0.25-0.72,0.44h-0.15V77.02z M52.55,82.33c0.19-0.32,0.42-0.56,0.7-0.73c0.28-0.17,0.56-0.25,0.84-0.25
					c0.09,0,0.41,0.07,0.96,0.21c0.26,0.07,0.49,0.1,0.71,0.1c0.13,0,0.27-0.02,0.4-0.05c0.14-0.03,0.25-0.09,0.35-0.17h0.1v0.13
					c-0.19,0.42-0.41,0.72-0.67,0.9c-0.26,0.18-0.6,0.27-1.03,0.27c-0.31,0-0.6-0.05-0.88-0.15c-0.28-0.1-0.55-0.15-0.81-0.15
					c-0.08,0-0.18,0-0.29,0.01c-0.11,0.01-0.23,0.02-0.37,0.04V82.33z"/>
			</g>
		</g>
		<g>
			<g>
				<g>
					<polygon class="st3" points="28.99,30.45 26.93,31.27 27.4,32.13 35.54,32.03 36.12,31.27 34.3,30.45 					"/>
					<g>
						<rect x="28.99" y="27.91" class="st4" width="5.31" height="5.54"/>
						<path class="st5" d="M34.3,28.97v1.35c-0.65,0.62-1.39,1.01-2.17,1.01h-1c-0.77,0-1.49-0.39-2.14-0.99v-1.33l0.46,0.73
							l0.12-1.85h4.12l0.12,1.85L34.3,28.97z"/>
						<path class="st4" d="M32.13,15.28h-0.5h-0.5c-2.62,0-4.75,1.79-4.75,4c0,0,0.02,5.42,0.06,5.67c0.36,2.34,2.32,5.95,4.68,5.95
							h0.5h0.5c2.36,0,4.32-3.61,4.68-5.95c0.04-0.26,0.06-5.67,0.06-5.67C36.87,17.07,34.75,15.28,32.13,15.28z"/>
						<path class="st2" d="M32.91,31.24c1.07,0,1.94-0.86,1.94-1.93c0-0.74-2.71-3.93-3.24-3.93s-3.16,3.28-3.16,3.92
							c0,1.07,0.86,1.94,1.93,1.94h0.01c0.36,0,0.7-0.1,0.99-0.28l0.53,0C32.19,31.14,32.53,31.24,32.91,31.24L32.91,31.24z"/>
						<path class="st4" d="M32.9,28.83c-0.15,0-0.26-0.05-0.33-0.09l-0.3-0.18l-1.24-0.01l-0.31,0.19c-0.1,0.06-0.21,0.09-0.32,0.09
							c-0.19,0-0.35-0.07-0.47-0.19c-0.08-0.08-0.14-0.18-0.17-0.29c0.28-0.43,1.47-2.26,1.88-2.26s1.66,1.81,1.92,2.25
							c-0.04,0.15-0.12,0.25-0.17,0.31C33.25,28.76,33.08,28.83,32.9,28.83L32.9,28.83z"/>
						<g>
							<path class="st2" d="M28.58,21.7c-0.1,0.12-0.16,0.27-0.16,0.43c0,0.41,0.39,0.75,0.88,0.75c0.49,0,0.88-0.34,0.88-0.75
								c0-0.16-0.06-0.3-0.16-0.43H28.58z"/>
							<polygon class="st5" points="31.97,20.97 31.63,20.97 31.29,20.97 30.82,24.45 31.63,25.38 32.44,24.45 							"/>
							<path class="st2" d="M34.68,21.7c0.1,0.12,0.16,0.27,0.16,0.43c0,0.41-0.39,0.75-0.88,0.75c-0.49,0-0.88-0.34-0.88-0.75
								c0-0.16,0.06-0.3,0.16-0.43H34.68z"/>
						</g>
						<g class="st6">
							<rect x="30.67" y="27.14" class="st7" width="1.94" height="0.48"/>
						</g>
						<polygon class="st2" points="32.98,19.82 35.61,20.14 32.98,20.46 						"/>
						<polygon class="st2" points="30.27,20.46 27.7,20.14 30.27,19.82 						"/>
					</g>
					<path class="st3" d="M44.88,31.97l-2.01,1.88l-0.88,2.67c0,0,2.98-0.6,3-0.52L44.88,31.97z"/>
					<path class="st3" d="M18.59,31.97l2.01,1.88l0.88,2.67c0,0-2.98-0.6-3-0.52L18.59,31.97z"/>
					<path class="st8" d="M19.79,33.45l-0.28,0.56l-0.66,2.14c0,0,3.71-1.04,3.54-0.93L19.79,33.45z"/>
					<polygon class="st9" points="47.29,39.31 45.29,39.91 41.67,40.99 41.44,41.06 36.81,42.44 36.68,42.48 36.39,42.56 
						34.98,42.99 34.43,43.15 32.67,43.68 31.79,43.94 28.38,44.96 27.66,45.17 27.5,45.21 26.61,45.48 26.05,45.65 24.43,46.13 
						21.99,46.86 21.99,46.17 21.97,44.16 20.37,46.88 20.37,47.34 18.67,47.85 14.59,49.07 14.59,43.35 14.6,43.06 14.6,43.03 
						14.6,43.03 14.65,42.17 14.78,41.85 15.59,39.94 16.39,38.04 17.24,36.01 17.57,35.24 17.93,34.39 18.53,34.24 19.52,34.01 
						19.56,34 19.64,33.98 19.76,33.94 19.83,33.93 20.04,33.88 20.33,33.81 20.33,33.81 20.36,33.8 20.51,33.76 23.22,33.11 
						23.51,33.04 23.63,33.01 23.92,32.93 26.09,32.41 26.13,32.4 26.38,32.34 27.2,32.14 27.38,32.1 28.99,31.71 34.3,31.71 
						35.56,32.02 35.86,32.09 36.03,32.13 37.96,32.6 39.69,33.02 42.92,33.8 43.1,33.85 43.85,34.03 44.88,34.28 44.94,34.29 
						45.33,34.39 46.13,36.4 46.93,38.42 47.16,38.97 					"/>
					<polygon class="st10" points="37.96,32.6 32.38,38.19 32.14,38.42 31.19,39.37 31.18,39.38 29.64,40.92 29.56,41 26.88,43.68 
						26.06,44.51 25.68,44.88 25.27,45.29 24.43,46.13 21.99,46.86 21.99,46.17 24.49,43.68 24.9,43.26 25.19,42.98 26.05,42.11 
						26.31,41.85 26.57,41.59 26.69,41.48 29.84,38.32 29.89,38.27 30.01,38.15 30.02,38.15 30.92,37.24 31.15,37.01 36.03,32.13 
											"/>
					<polygon class="st10" points="44.88,34.28 41.52,37.64 36.76,42.4 36.68,42.48 36.39,42.56 34.98,42.99 34.43,43.15 
						32.67,43.68 31.79,43.94 28.38,44.96 27.66,45.17 27.5,45.21 27.63,45.09 28.13,44.58 30.53,42.19 30.77,41.95 32.06,40.66 
						32.21,40.51 33.47,39.24 39.69,33.02 42.92,33.8 43.1,33.85 43.85,34.03 					"/>
					<path class="st5" d="M36.81,42.44l-0.13,0.04l-0.28,0.08l-1.41,0.42l-0.55,0.16l-1.77,0.53l-0.88,0.26l-3.41,1.02l-0.71,0.21
						l-0.16,0.05l-0.89,0.27l-0.56,0.17l-0.37-0.77l-0.78-1.62l-2.51-5.22l-1.21-2.54l-0.12-0.24l0,0l-0.68-1.41v0l-0.02-0.05
						l0.15-0.03l2.71-0.66l0.29-0.07l0.12-0.03l0.29-0.08l2.17-0.52l0.04-0.01l0.25-0.06c0.77,0.79,2.58,2.56,4.77,4.67
						c0.39,0.38,0.81,0.78,1.22,1.18c0.36,0.35,0.72,0.7,1.1,1.06c1.09,1.04,2.2,2.12,3.29,3.15
						C36.78,42.41,36.79,42.42,36.81,42.44z"/>
					<path class="st2" d="M31.79,43.94l-3.41,1.02l-0.71,0.21l-0.16,0.05l-0.89,0.27l-0.55-0.98l-0.86-1.53l-2.79-4.93l-0.99-1.75
						l-0.41-0.73l-0.95-1.68l-0.24-0.43l0.29-0.08l5.62-1.4c0.06,0.08,0.19,0.23,0.39,0.44c0.79,0.85,2.64,2.68,4.83,4.83
						c0.4,0.39,0.8,0.79,1.22,1.18c0.36,0.35,0.72,0.71,1.09,1.06c1.05,1.02,2.12,2.07,3.17,3.07l-1.41,0.42l-0.55,0.16l-1.77,0.53
						L31.79,43.94z"/>
					<polygon class="st11" points="26.93,31.27 27.2,32.14 31.4,34.58 31.28,31.71 					"/>
					<polygon class="st11" points="36.12,31.27 35.84,32.14 31.64,34.58 31.76,31.71 					"/>
					<path class="st5" d="M31.19,39.37l0.78,0.83C31.69,39.92,31.42,39.64,31.19,39.37c-0.47-0.47-0.87-0.89-1.17-1.22
						c-0.29-0.31-0.51-0.54-0.62-0.66l0.63,0.66L31.19,39.37z"/>
					<path class="st5" d="M32.21,40.51c0.93,0.88,1.88,1.73,2.77,2.48l-0.55,0.16l-2.37-2.49l-1.05-1.11l-0.12-0.12l-1.05-1.11
						l-2.09-2.2l-0.05-0.06c0.02,0.02,0.03,0.04,0.06,0.06c0.65,0.67,1.37,1.4,2.13,2.15c0.35,0.35,0.72,0.71,1.09,1.06
						c0.04,0.04,0.08,0.08,0.12,0.12C31.47,39.81,31.84,40.16,32.21,40.51z"/>
					<polygon class="st5" points="28.38,44.96 27.66,45.17 27.63,45.09 26.88,43.68 26.05,42.11 25.13,40.36 24.03,38.4 
						26.31,41.85 27.27,43.29 28.13,44.58 					"/>
					<polygon class="st5" points="32.67,43.68 31.79,43.94 31.14,42.95 30.53,42.19 29.56,41 29.1,40.42 29.64,40.92 30.77,41.95 
											"/>
					<polygon class="st5" points="21.97,44.16 20.37,46.88 20.37,47.34 18.67,47.85 17.43,47.6 19.13,46.83 					"/>
					<polygon class="st5" points="47.29,39.31 45.29,39.91 41.67,40.99 41.44,41.06 41.22,38.35 41.52,37.64 41.99,36.52 
						43.1,33.85 43.85,34.03 44.88,34.28 44.94,34.29 45.33,34.39 46.13,36.4 46.93,38.42 47.16,38.97 					"/>
					<path class="st9" d="M45.29,39.91l-3.61,1.08l-0.02-2.57l0.92-1.84l0.1-0.2l1.17-2.35l1.03-2.06c0,0,2.62,3.3,2.7,3.24
						c0.02,0,0.09,0.39,0.2,0.99c0.12,0.73,0.29,1.78,0.45,2.84l-0.84,0.25l-0.09,0.03L45.29,39.91z"/>
					<path class="st5" d="M22.04,38.63l-0.07,4.56l-6.21-1.05c0,0-0.01-0.25,0.03-0.5l1.78-6.4l0.36-0.86L19.56,34l0.08-0.02
						l0.12-0.03l0.06-0.01L22.04,38.63z"/>
					<path class="st9" d="M21.97,43.72l-5.87-0.53l-1.5-0.14h0c0,0,0-0.01,0-0.02c0,0,0,0,0-0.01c0.02-0.12,0.08-0.56,0.18-1.18
						c0.33-2.2,1-6.64,1.07-6.64c0.08,0.06,2.7-3.24,2.7-3.24l0.02,0.04L19.56,34l2.21,4.43L21.97,43.72z"/>
					<path class="st10" d="M48.23,39.03L48.23,39.03l-0.85,0.25l-0.09,0.03l-0.43,0.13l-1.58,0.47l0.84-3.51l0.2-0.86l-1.45-3.57
						c0.15,0.19,2.57,3.24,2.7,3.24c0.02,0,0.09,0.39,0.2,0.99c0.01,0.05,0.02,0.1,0.03,0.16c0.04,0.24,0.08,0.49,0.13,0.78
						c0.01,0.11,0.03,0.24,0.06,0.36c0,0.04,0.01,0.08,0.02,0.13c0.03,0.2,0.06,0.41,0.1,0.62c0.01,0.03,0.01,0.06,0.01,0.1
						C48.16,38.57,48.19,38.8,48.23,39.03z"/>
					<path class="st10" d="M18.57,32.01l-1.43,3.53l0.11,0.46l1.24,5.16l-2.38,2.03l-0.52,0.45c0,0-0.77,3.14-0.86,3.24
						c-0.02,0.02-0.06,0.01-0.13-0.01v-3.51l0.01-0.3c0,0,0-0.01,0-0.02c0-0.01,0-0.01,0-0.01l0.04-0.86l0.14-0.32v-0.02
						c0.23-1.5,0.61-4.01,0.85-5.47c0.11-0.69,0.2-1.15,0.22-1.15c0.13,0,2.7-3.24,2.7-3.24h0.03L18.57,32.01z"/>
					<path class="st2" d="M36.38,15.25l-2-1.26c-0.83-0.9-2.74-2.15-2.74-2.15s-2.17,1.41-2.98,2.28l-1.8,1.13l-1.24,2.12l0.49,5.02
						l0.64,0.37l0.11-4.62c0,0,0.11-1.61,1.5-1.61c1.38,0,3.26,0.97,3.26,0.97s1.91-0.97,3.26-0.97c1.35,0,1.5,1.61,1.5,1.61
						l0.11,4.62l0.64-0.37l0.49-5.02L36.38,15.25z"/>
					<g>
						<path class="st2" d="M16.59,39.36c-0.13,0.78-0.61,1.34-1.06,1.26c-0.16-0.03-0.29-0.13-0.39-0.27l0.27,1.58l-0.61-0.1
							c0.23-1.5,0.61-4.01,0.85-5.47c0.03-0.03,0.04-0.05,0.04-0.05S16.67,38.83,16.59,39.36z"/>
						<path class="st2" d="M48.22,39.03l-0.84,0.25l-0.09,0.03l-0.43,0.13c-0.01-0.03-0.01-0.05-0.02-0.08
							c-0.09-0.54,0.92-3.06,0.92-3.06s0.01,0.02,0.04,0.05c0.04,0.24,0.08,0.49,0.13,0.78c0.01,0.11,0.03,0.24,0.06,0.36
							c0,0.04,0.01,0.08,0.02,0.13c0.03,0.2,0.06,0.41,0.1,0.62c0.01,0.03,0.01,0.06,0.01,0.1C48.15,38.57,48.19,38.8,48.22,39.03z"
							/>
						<g>
							<path class="st5" d="M27.38,34.59c-0.29-0.55-3.87-1.91-3.87-1.91s-1.44,3.6-1.21,4.14c0.4,0.93,1.49,1.35,2.41,0.91
								c0.3-0.15,0.54-0.37,0.71-0.63l-0.48,2.17l2.56-1l-1.65-1.36c0.3,0.04,0.61-0.01,0.89-0.14
								C27.53,36.38,27.81,35.41,27.38,34.59z"/>
							<path class="st12" d="M27.26,34.63c-0.26-0.53-3.68-1.68-3.68-1.68s-1.11,3.44-0.89,3.9c0.37,0.76,1.29,1.08,2.06,0.71
								c0.26-0.13,0.47-0.32,0.62-0.55l-0.15,1.9l2.11-1.02l-1.58-1.06c0.27,0.02,0.55-0.02,0.81-0.15
								C27.31,36.32,27.64,35.4,27.26,34.63z"/>
							<path class="st5" d="M25.78,37.4l0.65,0.43l-0.71,0.34L25.78,37.4z M24.08,37.27c-0.42,0-0.8-0.24-0.99-0.62
								c-0.03-0.26,0.35-1.76,0.78-3.13c1.36,0.48,2.8,1.08,3.01,1.33c0.11,0.23,0.13,0.53,0.03,0.8c-0.1,0.28-0.29,0.5-0.56,0.63
								c-0.15,0.07-0.31,0.11-0.47,0.11c-0.03,0-0.07,0-0.1,0l-0.79,0.39c-0.1,0.16-0.25,0.3-0.43,0.38
								C24.4,37.24,24.24,37.27,24.08,37.27z"/>
						</g>
					</g>
				</g>
				<path class="st5" d="M48.23,39.03c-0.02-0.11-0.04-0.23-0.06-0.35c-0.03-0.21-0.06-0.41-0.1-0.61
					c-0.02-0.15-0.05-0.31-0.07-0.45c-0.01-0.04-0.02-0.09-0.02-0.13c-0.03-0.12-0.04-0.24-0.06-0.36
					c-0.04-0.29-0.09-0.54-0.13-0.78c-0.01-0.06-0.02-0.11-0.03-0.16c-0.03-0.14-0.05-0.27-0.07-0.39
					c-0.02-0.13-0.05-0.25-0.06-0.34c-0.03-0.16-0.05-0.26-0.06-0.26c-0.12,0-2.54-3.05-2.7-3.24l0,0.01c0,0-0.01-0.01-0.01-0.01
					l-1.96,1.84l-3.22-0.78l-1.73-0.42l-1.93-0.47l-0.17-0.04l0,0l0.26-0.83l-1.7-0.76c0.26-0.33,0.43-0.74,0.43-1.2c0,0,0,0,0-0.01
					c1.03-1.26,1.76-3.01,1.97-4.35c0.02-0.11,0.03-1.21,0.04-2.4l0.28-0.16l0.49-5.02l-1.24-2.12l-2-1.26
					c-0.83-0.9-2.74-2.15-2.74-2.15s-0.04,0.02-0.1,0.07v32.1l0.25-0.07l0.88-0.26l1.77-0.53l0.55-0.16l1.41-0.42l0.28-0.08
					l0.13-0.04l4.64-1.38l0.23-0.07l3.61-1.08v0l1.58-0.47l0.43-0.13l0.04-0.02l0.05-0.02L48.23,39.03
					C48.23,39.03,48.23,39.03,48.23,39.03L48.23,39.03z"/>
			</g>
			<g>
				<g>
					<polygon class="st3" points="33.83,61.92 35.89,61.1 35.42,60.24 27.28,60.34 26.7,61.1 28.53,61.92 					"/>
					<g>
						<rect x="28.53" y="58.92" class="st4" width="5.31" height="5.54"/>
						<path class="st5" d="M28.53,63.4v-1.35c0.65-0.62,1.39-1.01,2.17-1.01h1c0.77,0,1.49,0.39,2.14,0.99v1.33l-0.46-0.73
							l-0.12,1.85h-4.12l-0.12-1.85L28.53,63.4z"/>
						<path class="st4" d="M30.69,77.09h0.5h0.5c2.62,0,4.75-1.79,4.75-4c0,0-0.02-5.42-0.06-5.67c-0.36-2.34-2.32-5.95-4.68-5.95
							h-0.5h-0.5c-2.36,0-4.32,3.61-4.68,5.95c-0.04,0.26-0.06,5.67-0.06,5.67C25.95,75.3,28.07,77.09,30.69,77.09z"/>
						<path class="st2" d="M29.92,61.12c-1.07,0-1.94,0.86-1.94,1.93c0,0.74,2.71,3.93,3.24,3.93c0.52,0,3.16-3.28,3.16-3.91
							c0-1.07-0.86-1.94-1.93-1.94h-0.01c-0.36,0-0.7,0.1-0.99,0.28l-0.53,0C30.63,61.23,30.29,61.13,29.92,61.12L29.92,61.12z"/>
						<path class="st4" d="M29.92,63.54c0.15,0,0.26,0.05,0.33,0.09l0.3,0.18l1.24,0.01l0.31-0.19c0.1-0.06,0.21-0.09,0.32-0.09
							c0.19,0,0.35,0.07,0.47,0.19c0.08,0.08,0.14,0.18,0.17,0.29c-0.28,0.43-1.47,2.26-1.88,2.26c-0.41,0-1.66-1.81-1.92-2.25
							c0.04-0.15,0.12-0.25,0.17-0.31C29.57,63.61,29.74,63.54,29.92,63.54L29.92,63.54z"/>
						<g>
							<path class="st2" d="M34.24,70.67c0.1-0.12,0.16-0.27,0.16-0.42c0-0.41-0.39-0.75-0.88-0.75c-0.49,0-0.88,0.34-0.88,0.75
								c0,0.16,0.06,0.3,0.16,0.42H34.24z"/>
							<polygon class="st5" points="30.85,71.4 31.19,71.4 31.53,71.4 32,67.92 31.19,66.98 30.38,67.92 							"/>
							<path class="st2" d="M28.15,70.67c-0.1-0.12-0.16-0.27-0.16-0.42c0-0.41,0.39-0.75,0.88-0.75c0.49,0,0.88,0.34,0.88,0.75
								c0,0.16-0.06,0.3-0.16,0.42H28.15z"/>
						</g>
						<g class="st6">
							<rect x="30.21" y="64.76" class="st7" width="1.94" height="0.48"/>
						</g>
						<polygon class="st2" points="29.84,72.55 27.21,72.23 29.84,71.91 						"/>
						<polygon class="st2" points="32.55,71.91 35.12,72.23 32.55,72.55 						"/>
					</g>
					<path class="st3" d="M17.94,60.4l2.01-1.88l0.88-2.67c0,0-2.98,0.6-3,0.52L17.94,60.4z"/>
					<path class="st3" d="M44.23,60.4l-2.01-1.88l-0.88-2.67c0,0,2.98,0.6,3,0.52L44.23,60.4z"/>
					<path class="st8" d="M43.03,58.92l0.28-0.56l0.66-2.14c0,0-3.71,1.04-3.54,0.93L43.03,58.92z"/>
					<polygon class="st9" points="15.53,53.06 17.53,52.46 21.15,51.38 21.38,51.31 26.01,49.93 26.14,49.89 26.43,49.81 
						27.84,49.38 28.39,49.22 30.15,48.69 31.03,48.43 34.44,47.41 35.16,47.2 35.32,47.15 36.21,46.89 36.77,46.72 38.39,46.23 
						40.83,45.51 40.83,46.2 40.85,48.2 42.45,45.49 42.45,45.02 44.15,44.52 48.23,43.3 48.23,49.02 48.22,49.31 48.22,49.34 
						48.22,49.34 48.18,50.2 48.04,50.52 47.24,52.43 46.43,54.33 45.58,56.36 45.25,57.12 44.89,57.98 44.3,58.13 43.31,58.36 
						43.26,58.37 43.18,58.39 43.06,58.42 43,58.44 42.78,58.49 42.49,58.56 42.49,58.56 42.46,58.57 42.31,58.6 39.6,59.26 
						39.31,59.33 39.19,59.36 38.9,59.43 36.73,59.96 36.69,59.97 36.44,60.03 35.62,60.23 35.44,60.27 33.83,60.66 28.53,60.66 
						27.26,60.35 26.96,60.28 26.79,60.24 24.86,59.77 23.13,59.35 19.9,58.56 19.72,58.52 18.97,58.34 17.94,58.09 17.88,58.08 
						17.49,57.98 16.69,55.97 15.89,53.95 15.66,53.4 					"/>
					<polygon class="st10" points="24.86,59.77 30.44,54.18 30.68,53.94 31.63,52.99 31.64,52.99 33.18,51.45 33.26,51.37 
						35.94,48.69 36.76,47.86 37.14,47.49 37.55,47.07 38.39,46.23 40.83,45.51 40.83,46.2 38.33,48.69 37.92,49.11 37.63,49.39 
						36.77,50.26 36.51,50.52 36.25,50.78 36.14,50.89 32.98,54.05 32.93,54.09 32.81,54.21 32.8,54.22 31.9,55.13 31.67,55.36 
						26.79,60.24 					"/>
					<polygon class="st10" points="17.94,58.09 21.3,54.73 26.06,49.97 26.14,49.89 26.43,49.81 27.84,49.38 28.39,49.22 
						30.15,48.69 31.03,48.43 34.44,47.41 35.16,47.2 35.32,47.15 35.2,47.28 34.69,47.78 32.29,50.18 32.05,50.42 30.76,51.71 
						30.61,51.86 29.35,53.12 23.13,59.35 19.9,58.56 19.72,58.52 18.97,58.34 					"/>
					<path class="st5" d="M26.01,49.93l0.13-0.04l0.28-0.08l1.41-0.42l0.55-0.16l1.77-0.53l0.88-0.26l3.41-1.02l0.71-0.21l0.16-0.05
						l0.89-0.27l0.56-0.17l0.37,0.77l0.78,1.62l2.51,5.22l1.21,2.54l0.12,0.24l0,0l0.68,1.41v0l0.02,0.05l-0.15,0.03l-2.71,0.66
						l-0.29,0.07l-0.12,0.03l-0.29,0.08l-2.17,0.52l-0.04,0.01l-0.25,0.06c-0.77-0.79-2.58-2.56-4.77-4.67
						c-0.39-0.38-0.81-0.78-1.22-1.18c-0.36-0.35-0.72-0.7-1.1-1.06c-1.09-1.04-2.2-2.12-3.29-3.15
						C26.05,49.96,26.03,49.95,26.01,49.93z"/>
					<path class="st2" d="M31.03,48.43l3.41-1.02l0.71-0.21l0.16-0.05l0.89-0.27l0.55,0.98l0.86,1.53l2.79,4.93l0.99,1.75l0.41,0.73
						l0.95,1.68l0.24,0.43L42.73,59l-5.62,1.4c-0.06-0.08-0.19-0.23-0.39-0.44c-0.79-0.85-2.64-2.68-4.83-4.83
						c-0.4-0.39-0.8-0.79-1.21-1.18c-0.36-0.35-0.72-0.71-1.09-1.06c-1.05-1.02-2.12-2.07-3.17-3.07l1.41-0.42l0.55-0.16l1.77-0.53
						L31.03,48.43z"/>
					<polygon class="st11" points="35.89,61.1 35.62,60.23 31.42,57.79 31.54,60.66 					"/>
					<polygon class="st11" points="26.7,61.1 26.98,60.23 31.18,57.79 31.06,60.66 					"/>
					<path class="st5" d="M31.63,52.99l-0.78-0.83C31.13,52.45,31.4,52.73,31.63,52.99c0.47,0.47,0.87,0.89,1.17,1.22
						c0.29,0.31,0.51,0.54,0.62,0.66l-0.63-0.66L31.63,52.99z"/>
					<path class="st5" d="M30.61,51.86c-0.93-0.88-1.88-1.73-2.77-2.48l0.55-0.16l2.37,2.49l1.05,1.11l0.12,0.12l1.05,1.11l2.09,2.2
						l0.05,0.06c-0.02-0.02-0.03-0.04-0.06-0.06c-0.65-0.67-1.37-1.4-2.13-2.15c-0.35-0.35-0.72-0.71-1.09-1.06
						c-0.04-0.04-0.08-0.08-0.12-0.12C31.35,52.56,30.98,52.21,30.61,51.86z"/>
					<polygon class="st5" points="34.44,47.41 35.16,47.2 35.2,47.28 35.94,48.69 36.77,50.26 37.69,52.01 38.8,53.97 36.51,50.52 
						35.55,49.08 34.69,47.78 					"/>
					<polygon class="st5" points="30.15,48.69 31.03,48.43 31.68,49.42 32.29,50.18 33.26,51.37 33.72,51.95 33.18,51.45 
						32.05,50.42 					"/>
					<polygon class="st5" points="40.85,48.2 42.45,45.49 42.45,45.02 44.15,44.52 45.39,44.77 43.69,45.54 					"/>
					<polygon class="st5" points="15.53,53.06 17.53,52.46 21.15,51.38 21.38,51.31 21.6,54.02 21.3,54.73 20.83,55.85 19.72,58.52 
						18.97,58.34 17.94,58.09 17.88,58.08 17.49,57.98 16.69,55.97 15.89,53.95 15.66,53.4 					"/>
					<path class="st9" d="M17.53,52.46l3.61-1.08l0.02,2.57l-0.92,1.84l-0.1,0.2l-1.17,2.35l-1.03,2.06c0,0-2.62-3.3-2.7-3.24
						c-0.02,0-0.09-0.39-0.2-0.99c-0.12-0.73-0.29-1.78-0.45-2.84l0.84-0.25l0.09-0.03L17.53,52.46z"/>
					<path class="st5" d="M40.78,53.74l0.07-4.56l6.21,1.05c0,0,0.01,0.25-0.03,0.5l-1.78,6.4l-0.36,0.86l-1.64,0.39l-0.08,0.02
						l-0.12,0.03L43,58.44L40.78,53.74z"/>
					<path class="st9" d="M40.85,48.65l5.87,0.53l1.5,0.14h0c0,0,0,0.01,0,0.02c0,0,0,0,0,0.01c-0.02,0.12-0.08,0.56-0.18,1.18
						c-0.33,2.2-1,6.64-1.07,6.64c-0.08-0.06-2.7,3.24-2.7,3.24l-0.02-0.04l-0.99-1.99l-2.21-4.43L40.85,48.65z"/>
					<path class="st10" d="M14.59,53.34L14.59,53.34l0.85-0.25l0.09-0.03l0.43-0.13l1.58-0.47l-0.84,3.51l-0.2,0.86l1.45,3.57
						c-0.15-0.19-2.57-3.24-2.7-3.24c-0.02,0-0.09-0.39-0.2-0.99c-0.01-0.05-0.02-0.1-0.03-0.16c-0.04-0.24-0.08-0.49-0.13-0.78
						c-0.01-0.11-0.03-0.24-0.06-0.36c0-0.04-0.01-0.08-0.02-0.13c-0.03-0.2-0.06-0.41-0.1-0.62c-0.01-0.03-0.01-0.06-0.01-0.1
						C14.66,53.8,14.63,53.57,14.59,53.34z"/>
					<path class="st10" d="M44.25,60.36l1.43-3.53l-0.11-0.46l-1.24-5.16l2.38-2.03l0.52-0.45c0,0,0.77-3.14,0.86-3.24
						c0.02-0.02,0.06-0.01,0.13,0.01v3.51l-0.01,0.3c0,0,0,0.01,0,0.02c0,0.01,0,0.01,0,0.01l-0.04,0.86l-0.14,0.32v0.02
						c-0.23,1.5-0.61,4.01-0.85,5.47c-0.11,0.69-0.2,1.15-0.22,1.15c-0.13,0-2.7,3.24-2.7,3.24h-0.03L44.25,60.36z"/>
					<path class="st2" d="M26.44,77.11l2,1.26c0.83,0.9,2.74,2.15,2.74,2.15s2.17-1.41,2.98-2.28l1.8-1.13l1.24-2.12l-0.49-5.02
						l-0.64-0.38l-0.11,4.62c0,0-0.11,1.61-1.5,1.61c-1.38,0-3.26-0.97-3.26-0.97s-1.91,0.97-3.26,0.97c-1.35,0-1.5-1.61-1.5-1.61
						l-0.11-4.62l-0.64,0.38l-0.49,5.02L26.44,77.11z"/>
					<g>
						<path class="st2" d="M46.24,53c0.13-0.78,0.61-1.34,1.06-1.26c0.16,0.03,0.29,0.13,0.39,0.27l-0.27-1.58l0.61,0.1
							c-0.23,1.5-0.61,4.01-0.85,5.47c-0.03,0.03-0.04,0.05-0.04,0.05S46.15,53.54,46.24,53z"/>
						<path class="st2" d="M14.6,53.34l0.84-0.25l0.09-0.03l0.43-0.13c0.01,0.03,0.01,0.05,0.02,0.08c0.09,0.54-0.92,3.06-0.92,3.06
							s-0.01-0.02-0.04-0.05c-0.04-0.24-0.08-0.49-0.13-0.78c-0.01-0.11-0.03-0.24-0.06-0.36c0-0.04-0.01-0.08-0.02-0.13
							c-0.03-0.2-0.06-0.41-0.1-0.62c-0.01-0.03-0.01-0.06-0.01-0.1C14.67,53.8,14.64,53.57,14.6,53.34z"/>
						<g>
							<path class="st5" d="M35.44,57.77c0.29,0.55,3.87,1.91,3.87,1.91s1.44-3.6,1.21-4.14c-0.4-0.93-1.49-1.35-2.41-0.91
								c-0.3,0.15-0.54,0.37-0.71,0.63l0.48-2.17l-2.56,1l1.65,1.36c-0.3-0.04-0.61,0.01-0.89,0.14
								C35.29,55.99,35.01,56.96,35.44,57.77z"/>
							<path class="st12" d="M35.56,57.73c0.26,0.53,3.68,1.68,3.68,1.68s1.11-3.44,0.89-3.9c-0.37-0.76-1.29-1.08-2.06-0.71
								c-0.26,0.13-0.47,0.32-0.62,0.55l0.15-1.9l-2.11,1.02l1.58,1.06c-0.27-0.02-0.55,0.02-0.81,0.15
								C35.51,56.05,35.18,56.97,35.56,57.73z"/>
							<path class="st5" d="M37.04,54.97l-0.65-0.43l0.71-0.34L37.04,54.97z M38.74,55.09c0.42,0,0.8,0.24,0.99,0.62
								c0.03,0.26-0.35,1.76-0.78,3.13c-1.36-0.48-2.8-1.08-3.01-1.33c-0.11-0.23-0.13-0.53-0.03-0.8c0.1-0.28,0.29-0.5,0.56-0.63
								c0.15-0.07,0.31-0.11,0.47-0.11c0.03,0,0.07,0,0.1,0l0.79-0.39c0.1-0.16,0.25-0.3,0.43-0.38
								C38.42,55.13,38.58,55.09,38.74,55.09z"/>
						</g>
					</g>
				</g>
				<path class="st5" d="M14.59,53.34c0.02,0.11,0.04,0.23,0.06,0.35c0.03,0.21,0.06,0.41,0.1,0.61c0.02,0.15,0.05,0.31,0.07,0.45
					c0.01,0.04,0.02,0.09,0.02,0.13c0.03,0.12,0.04,0.24,0.06,0.36c0.04,0.29,0.09,0.54,0.13,0.78c0.01,0.06,0.02,0.11,0.03,0.16
					c0.03,0.14,0.05,0.27,0.07,0.39c0.02,0.13,0.05,0.25,0.06,0.34c0.03,0.16,0.05,0.26,0.06,0.26c0.12,0,2.54,3.05,2.7,3.24l0-0.01
					c0,0,0.01,0.01,0.01,0.01l1.96-1.84l3.22,0.78l1.73,0.42l1.93,0.47l0.17,0.04l0,0L26.7,61.1l1.7,0.76
					c-0.26,0.33-0.43,0.74-0.43,1.2c0,0,0,0,0,0.01c-1.03,1.26-1.76,3.01-1.97,4.35c-0.02,0.11-0.03,1.21-0.04,2.4l-0.28,0.16
					l-0.49,5.02l1.24,2.12l2,1.26c0.83,0.9,2.74,2.15,2.74,2.15s0.04-0.02,0.1-0.07v-32.1l-0.25,0.07l-0.88,0.26l-1.77,0.53
					l-0.55,0.16l-1.41,0.42l-0.28,0.08l-0.13,0.04l-4.64,1.38l-0.23,0.07l-3.61,1.08v0l-1.58,0.47l-0.43,0.13l-0.04,0.02l-0.05,0.02
					L14.59,53.34C14.59,53.34,14.59,53.34,14.59,53.34L14.59,53.34z"/>
			</g>
		</g>
	</g>
	<g>
		<path class="st2" d="M15.71,22.58c0-0.74-3.24-3.93-3.24-3.93s-3.16,3.28-3.16,3.91c0,1.07,0.86,1.94,1.93,1.94
			c0.37,0,0.71-0.1,1-0.28l-1.21,2.07l2.95,0.01l-1.21-2.07c0.29,0.18,0.63,0.28,1,0.28C14.84,24.52,15.71,23.66,15.71,22.58z"/>
		<path class="st5" d="M15.71,22.58c0-0.74-3.24-3.93-3.24-3.93s0,0-0.01,0.01v7.64l1.51,0l-1.21-2.07c0.29,0.18,0.63,0.28,1,0.28
			C14.84,24.52,15.71,23.66,15.71,22.58z"/>
	</g>
	<g>
		<path class="st2" d="M51.6,69.98c0,0.74,3.24,3.93,3.24,3.93s3.16-3.28,3.16-3.91c0-1.07-0.86-1.94-1.93-1.94
			c-0.37,0-0.71,0.1-1,0.28l1.21-2.07l-2.95-0.01l1.21,2.07c-0.29-0.18-0.63-0.28-1-0.28C52.47,68.05,51.6,68.91,51.6,69.98z"/>
		<path class="st5" d="M51.6,69.98c0,0.74,3.24,3.93,3.24,3.93s0,0,0.01-0.01v-7.64l-1.51,0l1.21,2.07c-0.29-0.18-0.63-0.28-1-0.28
			C52.47,68.05,51.6,68.91,51.6,69.98z"/>
	</g>
</g>
</svg>
