<?xml version="1.0" encoding="utf-8"?>
<!-- Generator: Adobe Illustrator 26.0.3, SVG Export Plug-In . SVG Version: 6.00 Build 0)  -->
<svg version="1.1" id="Layer_1" xmlns="http://www.w3.org/2000/svg" xmlns:xlink="http://www.w3.org/1999/xlink" x="0px" y="0px"
	 viewBox="0 0 66 92" style="enable-background:new 0 0 66 92;" xml:space="preserve">
<style type="text/css">
	.st0{fill:#C9C9C9;}
	.st1{fill:#FFFFFF;}
	.st2{fill:#333333;}
	.st3{opacity:0.2;fill:#616161;}
</style>
<g>
	<g>
		<g>
			<path class="st0" d="M10,87.32c-3.49,0-6.34-2.78-6.35-6.21L3.47,10.93C3.46,7.48,6.31,4.67,9.81,4.68l46.38,0.09
				c3.49,0.01,6.33,2.82,6.33,6.26v70.03c0,3.42-2.83,6.21-6.31,6.22L10,87.32z"/>
		</g>
		<path class="st1" d="M10.58,87.15c-3.45,0-6.25-2.79-6.25-6.23V10.91c0-3.43,2.81-6.23,6.25-6.23h45.7c3.45,0,6.25,2.79,6.25,6.23
			v70.01c0,3.44-2.8,6.23-6.25,6.23H10.58z"/>
		<g>
			<path class="st2" d="M8.65,15.67c0,0.11-0.19,0.28-0.56,0.53c-0.42,0.27-0.78,0.41-1.08,0.41c-0.16,0-0.29-0.08-0.39-0.23
				c-0.07-0.11-0.11-0.22-0.11-0.31v-4.71c0-0.1-0.01-0.16-0.04-0.19c-0.03-0.03-0.07-0.05-0.13-0.05c-0.03,0-0.1,0.01-0.21,0.04
				c-0.11,0.02-0.2,0.03-0.25,0.02c-0.02-0.03-0.04-0.06-0.04-0.08c0-0.07,0.07-0.15,0.22-0.24c0.14-0.1,0.29-0.21,0.45-0.35
				c0.13-0.11,0.26-0.22,0.39-0.34c0.14-0.1,0.25-0.14,0.34-0.14c0.15,0,0.3,0.08,0.44,0.24c0.14,0.16,0.21,0.32,0.21,0.46v4.99
				c0.02,0.03,0.04,0.05,0.05,0.05c0.04,0.04,0.07,0.05,0.1,0.05c0.05-0.02,0.09-0.03,0.12-0.04c0.08-0.04,0.18-0.1,0.3-0.19h0.15
				L8.65,15.67z"/>
			<path class="st2" d="M14.4,13.38c0,0.36-0.07,0.7-0.22,1.03c-0.24,0.53-0.64,1-1.21,1.4c-0.33,0.23-0.56,0.38-0.71,0.46
				c-0.36,0.2-0.78,0.3-1.25,0.3c-0.7,0-1.27-0.3-1.71-0.91c-0.42-0.56-0.62-1.22-0.62-1.98c0-0.49,0.13-0.99,0.38-1.49
				c0.16-0.32,0.37-0.63,0.63-0.92c0.33-0.36,0.66-0.65,1-0.87c0.44-0.28,0.87-0.42,1.29-0.42c0.74,0,1.34,0.36,1.8,1.09
				C14.2,11.73,14.4,12.5,14.4,13.38z M13.03,14.37c0-0.44-0.06-0.87-0.18-1.29c-0.12-0.42-0.3-0.81-0.54-1.16
				c-0.25-0.39-0.5-0.67-0.73-0.83c-0.16-0.12-0.32-0.17-0.46-0.17c-0.34,0-0.62,0.16-0.83,0.48c-0.21,0.32-0.32,0.69-0.32,1.1
				c0,0.25,0.02,0.49,0.07,0.71c0.07,0.34,0.21,0.73,0.41,1.16c0.23,0.51,0.48,0.88,0.77,1.11c0.23,0.19,0.47,0.29,0.7,0.29
				c0.35,0,0.62-0.12,0.81-0.38C12.93,15.15,13.03,14.81,13.03,14.37z"/>
		</g>
		<g>
			<path class="st2" d="M58.6,76.94c0-0.11,0.19-0.28,0.56-0.53c0.42-0.27,0.78-0.41,1.08-0.41c0.16,0,0.29,0.08,0.39,0.23
				c0.07,0.11,0.11,0.22,0.11,0.31v4.71c0,0.1,0.01,0.16,0.04,0.19c0.03,0.03,0.07,0.05,0.13,0.05c0.03,0,0.1-0.01,0.21-0.04
				c0.11-0.02,0.19-0.03,0.25-0.02c0.03,0.03,0.04,0.06,0.04,0.08c0,0.07-0.07,0.15-0.22,0.24c-0.14,0.1-0.29,0.21-0.45,0.35
				c-0.13,0.11-0.26,0.22-0.39,0.33c-0.14,0.1-0.25,0.14-0.34,0.14c-0.15,0-0.3-0.08-0.44-0.24c-0.14-0.16-0.21-0.32-0.21-0.46V76.9
				c-0.03-0.03-0.04-0.05-0.05-0.05c-0.04-0.04-0.08-0.05-0.1-0.05c-0.05,0.02-0.09,0.03-0.12,0.04c-0.08,0.04-0.18,0.1-0.3,0.19
				h-0.15L58.6,76.94z"/>
			<path class="st2" d="M52.84,79.22c0-0.36,0.07-0.7,0.22-1.03c0.24-0.53,0.64-1,1.21-1.4c0.33-0.23,0.56-0.38,0.71-0.46
				c0.36-0.2,0.78-0.3,1.25-0.3c0.7,0,1.27,0.3,1.71,0.91c0.42,0.56,0.62,1.22,0.62,1.98c0,0.49-0.13,0.99-0.38,1.49
				c-0.16,0.32-0.37,0.63-0.63,0.92c-0.33,0.36-0.66,0.65-1,0.87c-0.44,0.28-0.87,0.42-1.29,0.42c-0.74,0-1.34-0.36-1.8-1.09
				C53.04,80.87,52.84,80.11,52.84,79.22z M54.21,78.23c0,0.44,0.06,0.87,0.18,1.29c0.12,0.42,0.3,0.81,0.54,1.16
				c0.25,0.39,0.5,0.67,0.73,0.83c0.16,0.12,0.32,0.17,0.46,0.17c0.34,0,0.62-0.16,0.83-0.48c0.21-0.32,0.32-0.69,0.32-1.1
				c0-0.25-0.02-0.49-0.07-0.71c-0.07-0.34-0.21-0.73-0.41-1.16c-0.23-0.51-0.48-0.88-0.77-1.11c-0.23-0.19-0.47-0.29-0.7-0.29
				c-0.35,0-0.62,0.12-0.81,0.38C54.31,77.45,54.21,77.8,54.21,78.23z"/>
		</g>
	</g>
	<g>
		<g>
			<path class="st2" d="M50.85,18.6c0.01-1.49-6.47-7.85-6.47-7.85s-6.31,6.56-6.31,7.83c0,2.14,1.73,3.88,3.86,3.88
				c0.73,0,1.41-0.2,2-0.55l-2.43,4.14l5.89,0.01l-2.41-4.14c0.58,0.35,1.26,0.56,1.99,0.56C49.1,22.47,50.85,20.74,50.85,18.6z"/>
			<path class="st3" d="M50.85,18.6c0.01-1.49-6.47-7.85-6.47-7.85s-0.01,0.01-0.01,0.01v15.28l3.02,0.01l-2.41-4.14
				c0.58,0.35,1.26,0.56,1.99,0.56C49.1,22.47,50.85,20.74,50.85,18.6z"/>
		</g>
		<g>
			<path class="st2" d="M50.85,36.94c0.01-1.49-6.47-7.85-6.47-7.85s-6.31,6.56-6.31,7.83c0,2.14,1.73,3.88,3.86,3.88
				c0.73,0,1.41-0.2,2-0.55l-2.43,4.14l5.89,0.01l-2.41-4.14c0.58,0.35,1.26,0.56,1.99,0.56C49.1,40.81,50.85,39.08,50.85,36.94z"/>
			<path class="st3" d="M50.85,36.94c0.01-1.49-6.47-7.85-6.47-7.85s-0.01,0.01-0.01,0.01v15.28l3.02,0.01l-2.41-4.14
				c0.58,0.35,1.26,0.56,1.99,0.56C49.1,40.81,50.85,39.08,50.85,36.94z"/>
		</g>
		<g>
			<path class="st2" d="M16.06,18.6c-0.01-1.49,6.47-7.85,6.47-7.85s6.31,6.56,6.31,7.83c0,2.14-1.73,3.88-3.86,3.88
				c-0.73,0-1.41-0.2-2-0.55l2.43,4.14l-5.89,0.01l2.41-4.14c-0.58,0.35-1.26,0.56-1.99,0.56C17.81,22.47,16.06,20.74,16.06,18.6z"
				/>
			<path class="st3" d="M16.06,18.6c-0.01-1.49,6.47-7.85,6.47-7.85s0.01,0.01,0.01,0.01v15.28l-3.02,0.01l2.41-4.14
				c-0.58,0.35-1.26,0.56-1.99,0.56C17.81,22.47,16.06,20.74,16.06,18.6z"/>
		</g>
		<g>
			<path class="st2" d="M27.05,29.08c-0.01-1.49,6.47-7.85,6.47-7.85s6.31,6.56,6.31,7.83c0,2.14-1.73,3.87-3.86,3.88
				c-0.73,0-1.41-0.2-2-0.55l2.43,4.14l-5.89,0.01l2.41-4.14c-0.58,0.35-1.26,0.56-1.99,0.56C28.79,32.95,27.05,31.22,27.05,29.08z"
				/>
			<path class="st3" d="M27.05,29.08c-0.01-1.49,6.47-7.85,6.47-7.85s0.01,0.01,0.01,0.01v15.28l-3.02,0.01l2.41-4.14
				c-0.58,0.35-1.26,0.56-1.99,0.56C28.79,32.95,27.05,31.22,27.05,29.08z"/>
		</g>
		<g>
			<path class="st2" d="M16.06,36.94c-0.01-1.49,6.47-7.85,6.47-7.85s6.31,6.56,6.31,7.83c0,2.14-1.73,3.88-3.86,3.88
				c-0.73,0-1.41-0.2-2-0.55l2.43,4.14l-5.89,0.01l2.41-4.14c-0.58,0.35-1.26,0.56-1.99,0.56C17.81,40.81,16.06,39.08,16.06,36.94z"
				/>
			<path class="st3" d="M16.06,36.94c-0.01-1.49,6.47-7.85,6.47-7.85s0.01,0.01,0.01,0.01v15.28l-3.02,0.01l2.41-4.14
				c-0.58,0.35-1.26,0.56-1.99,0.56C17.81,40.81,16.06,39.08,16.06,36.94z"/>
		</g>
		<g>
			<path class="st2" d="M50.82,73.54c0.01,1.49-6.47,7.85-6.47,7.85s-6.31-6.56-6.31-7.83c0-2.14,1.73-3.88,3.86-3.88
				c0.73,0,1.41,0.2,2,0.55l-2.43-4.14l5.89-0.01l-2.41,4.14c0.58-0.35,1.26-0.56,1.99-0.56C49.08,69.67,50.82,71.4,50.82,73.54z"/>
			<path class="st3" d="M50.82,73.54c0.01,1.49-6.47,7.85-6.47,7.85s-0.01-0.01-0.01-0.01V66.1l3.02-0.01l-2.41,4.14
				c0.58-0.35,1.26-0.56,1.99-0.56C49.08,69.67,50.82,71.4,50.82,73.54z"/>
		</g>
		<g>
			<path class="st2" d="M50.82,55.2c0.01,1.49-6.47,7.85-6.47,7.85s-6.31-6.56-6.31-7.83c0-2.14,1.73-3.88,3.86-3.88
				c0.73,0,1.41,0.2,2,0.55l-2.43-4.14l5.89-0.01l-2.41,4.14c0.58-0.35,1.26-0.56,1.99-0.56C49.08,51.33,50.82,53.06,50.82,55.2z"/>
			<path class="st3" d="M50.82,55.2c0.01,1.49-6.47,7.85-6.47,7.85s-0.01-0.01-0.01-0.01V47.75l3.02-0.01l-2.41,4.14
				c0.58-0.35,1.26-0.56,1.99-0.56C49.08,51.33,50.82,53.06,50.82,55.2z"/>
		</g>
		<g>
			<path class="st2" d="M16.03,73.54c-0.01,1.49,6.47,7.85,6.47,7.85s6.31-6.56,6.31-7.83c0-2.14-1.73-3.88-3.86-3.88
				c-0.73,0-1.41,0.2-2,0.55l2.43-4.14l-5.89-0.01l2.41,4.14c-0.58-0.35-1.26-0.56-1.99-0.56C17.78,69.67,16.03,71.4,16.03,73.54z"
				/>
			<path class="st3" d="M16.03,73.54c-0.01,1.49,6.47,7.85,6.47,7.85s0.01-0.01,0.01-0.01V66.1l-3.02-0.01l2.41,4.14
				c-0.58-0.35-1.26-0.56-1.99-0.56C17.78,69.67,16.03,71.4,16.03,73.54z"/>
		</g>
		<g>
			<path class="st2" d="M27.02,62.92c-0.01,1.49,6.47,7.85,6.47,7.85s6.31-6.56,6.31-7.83c0-2.14-1.73-3.88-3.86-3.88
				c-0.73,0-1.41,0.2-2,0.55l2.43-4.14l-5.89-0.01l2.41,4.14c-0.58-0.35-1.26-0.56-1.99-0.56C28.76,59.05,27.02,60.78,27.02,62.92z"
				/>
			<path class="st3" d="M27.02,62.92c-0.01,1.49,6.47,7.85,6.47,7.85s0.01-0.01,0.01-0.01V55.48l-3.02-0.01l2.41,4.14
				c-0.58-0.35-1.26-0.56-1.99-0.56C28.76,59.05,27.02,60.78,27.02,62.92z"/>
		</g>
		<g>
			<path class="st2" d="M16.03,55.2c-0.01,1.49,6.47,7.85,6.47,7.85s6.31-6.56,6.31-7.83c0-2.14-1.73-3.88-3.86-3.88
				c-0.73,0-1.41,0.2-2,0.55l2.43-4.14l-5.89-0.01l2.41,4.14c-0.58-0.35-1.26-0.56-1.99-0.56C17.78,51.33,16.03,53.06,16.03,55.2z"
				/>
			<path class="st3" d="M16.03,55.2c-0.01,1.49,6.47,7.85,6.47,7.85s0.01-0.01,0.01-0.01V47.75l-3.02-0.01l2.41,4.14
				c-0.58-0.35-1.26-0.56-1.99-0.56C17.78,51.33,16.03,53.06,16.03,55.2z"/>
		</g>
		<g>
			<path class="st2" d="M11.23,21.42c0-0.4-1.73-2.09-1.73-2.09s-1.68,1.75-1.68,2.09c0,0.57,0.46,1.03,1.03,1.03
				c0.2,0,0.38-0.05,0.53-0.15l-0.65,1.1l1.57,0L9.66,22.3c0.15,0.09,0.34,0.15,0.53,0.15C10.76,22.46,11.23,21.99,11.23,21.42z"/>
			<path class="st3" d="M11.23,21.42c0-0.4-1.73-2.09-1.73-2.09s0,0,0,0v4.08l0.81,0L9.66,22.3c0.15,0.09,0.34,0.15,0.53,0.15
				C10.76,22.46,11.23,21.99,11.23,21.42z"/>
		</g>
		<g>
			<path class="st2" d="M56.28,71.38c0,0.4,1.73,2.09,1.73,2.09s1.68-1.75,1.68-2.09c0-0.57-0.46-1.03-1.03-1.03
				c-0.2,0-0.38,0.05-0.53,0.15l0.65-1.1l-1.57,0l0.64,1.1c-0.15-0.09-0.34-0.15-0.53-0.15C56.75,70.34,56.28,70.8,56.28,71.38z"/>
			<path class="st3" d="M56.28,71.38c0,0.4,1.73,2.09,1.73,2.09s0,0,0,0v-4.08l-0.8,0l0.64,1.1c-0.15-0.09-0.34-0.15-0.53-0.15
				C56.75,70.34,56.28,70.8,56.28,71.38z"/>
		</g>
	</g>
</g>
</svg>
