<?xml version="1.0" encoding="utf-8"?>
<!-- Generator: Adobe Illustrator 26.0.3, SVG Export Plug-In . SVG Version: 6.00 Build 0)  -->
<svg version="1.1" id="Layer_1" xmlns="http://www.w3.org/2000/svg" xmlns:xlink="http://www.w3.org/1999/xlink" x="0px" y="0px"
	 viewBox="0 0 66 92" style="enable-background:new 0 0 66 92;" xml:space="preserve">
<style type="text/css">
	.st0{fill:#C9C9C9;}
	.st1{fill:#FFFFFF;}
	.st2{fill:#333333;}
	.st3{opacity:0.2;fill:#616161;}
	.st4{fill:#FDD8AB;}
	.st5{fill:#EBEBEB;}
	.st6{fill:#454545;}
	.st7{fill:#FFD675;}
</style>
<g>
	<g>
		<g>
			<path class="st0" d="M10.02,87.29c-3.49,0.01-6.34-2.78-6.34-6.21L3.5,10.96C3.49,7.51,6.33,4.7,9.83,4.71l46.34,0.09
				c3.49,0.01,6.33,2.81,6.33,6.26v69.97c0,3.42-2.83,6.21-6.3,6.21L10.02,87.29z"/>
			<path class="st1" d="M10.32,87.2c-3.44,0-6.25-2.79-6.25-6.23V11.02c0-3.43,2.8-6.22,6.25-6.22h45.67c3.44,0,6.25,2.79,6.25,6.22
				v69.96c0,3.43-2.8,6.23-6.25,6.23H10.32z"/>
			<g>
				<path class="st2" d="M56.26,85.8H10.59c-2.67,0-4.84-2.16-4.84-4.82V11.03c0-2.55,2.03-4.64,3.12-5.04l0.16-0.06l45.91,0
					c4.54,0.36,6.16,2.86,6.16,5.09v69.96C61.09,83.64,58.92,85.8,56.26,85.8z M9.41,7.85c-0.49,0.31-1.75,1.6-1.75,3.18v69.96
					c0,1.6,1.31,2.91,2.93,2.91h45.67c1.61,0,2.93-1.3,2.93-2.91V11.03c0-1.77-1.63-2.96-4.36-3.18H9.41z"/>
			</g>
			<g>
				<path class="st2" d="M14.72,13.37c0,0.31-0.08,0.66-0.23,1.04c-0.15,0.38-0.34,0.68-0.55,0.9c-0.08,0.08-0.22,0.21-0.42,0.37
					c-0.29,0.24-0.59,0.45-0.9,0.63c-0.09,0.05-0.16,0.09-0.2,0.12c-0.14,0.09-0.21,0.15-0.21,0.19c0,0.07,0.21,0.2,0.64,0.37
					c0.39,0.16,0.68,0.26,0.87,0.3c0.02,0.01,0.07,0.01,0.13,0.01h0.16c0.05,0,0.1,0,0.15,0c0.05,0,0.1,0.01,0.16,0.03
					c-0.04,0.04-0.11,0.08-0.21,0.13c-0.11,0.05-0.21,0.1-0.32,0.15c-0.15,0.13-0.27,0.23-0.35,0.3c-0.08,0.07-0.15,0.1-0.19,0.1
					c-0.14,0-0.37-0.15-0.69-0.46c-0.32-0.31-0.62-0.46-0.91-0.46c-0.18,0-0.36,0.07-0.53,0.2c-0.17,0.14-0.28,0.2-0.31,0.2
					c-0.07,0-0.11-0.05-0.11-0.14c0-0.07,0.1-0.18,0.31-0.33c0.13-0.1,0.27-0.2,0.4-0.3c-0.33-0.19-0.65-0.39-0.95-0.61
					c-0.3-0.21-0.57-0.47-0.81-0.78c-0.21-0.27-0.36-0.56-0.47-0.86C9.06,14.17,9,13.86,9,13.53c0-0.49,0.1-0.9,0.29-1.2
					c0.07-0.11,0.3-0.37,0.69-0.76c0.12-0.12,0.43-0.38,0.91-0.78c0.61-0.49,0.97-0.74,1.09-0.74c0.11,0,0.31,0.11,0.61,0.32
					c0.36,0.25,0.78,0.62,1.26,1.1c0.3,0.3,0.52,0.6,0.66,0.9C14.65,12.66,14.72,12.99,14.72,13.37z M13.19,14.22
					c0-0.28-0.06-0.58-0.18-0.92c-0.12-0.33-0.28-0.65-0.49-0.95c-0.16-0.24-0.46-0.52-0.9-0.84c-0.14-0.11-0.35-0.25-0.61-0.42
					c-0.1,0-0.23,0.18-0.38,0.54c-0.15,0.36-0.23,0.59-0.23,0.7c0,0.49,0.11,0.95,0.32,1.37c0.17,0.36,0.45,0.72,0.81,1.1
					c0.15,0.16,0.52,0.5,1.1,1.03c0.2-0.19,0.35-0.47,0.45-0.86C13.15,14.7,13.19,14.44,13.19,14.22z"/>
			</g>
			<g>
				<path class="st2" d="M52.36,79.41c0-0.31,0.08-0.66,0.23-1.04c0.15-0.38,0.34-0.68,0.55-0.9c0.08-0.08,0.22-0.21,0.42-0.37
					c0.29-0.24,0.59-0.45,0.9-0.63c0.09-0.05,0.16-0.09,0.2-0.12c0.14-0.09,0.21-0.15,0.21-0.19c0-0.07-0.21-0.2-0.64-0.37
					c-0.39-0.16-0.68-0.26-0.87-0.3c-0.02-0.01-0.07-0.01-0.13-0.01h-0.16c-0.05,0-0.1,0-0.15,0c-0.05,0-0.1-0.01-0.16-0.03
					c0.04-0.04,0.11-0.08,0.21-0.13c0.11-0.05,0.21-0.1,0.32-0.15c0.15-0.13,0.27-0.23,0.35-0.3c0.08-0.07,0.15-0.1,0.19-0.1
					c0.14,0,0.37,0.15,0.69,0.46c0.32,0.31,0.62,0.46,0.91,0.46c0.18,0,0.36-0.07,0.53-0.2c0.17-0.14,0.28-0.2,0.31-0.2
					c0.07,0,0.11,0.05,0.11,0.15c0,0.07-0.1,0.18-0.31,0.33c-0.13,0.1-0.27,0.2-0.4,0.3c0.33,0.19,0.65,0.4,0.95,0.61
					c0.3,0.21,0.57,0.47,0.81,0.78c0.21,0.27,0.36,0.56,0.47,0.86c0.11,0.3,0.16,0.62,0.16,0.95c0,0.49-0.1,0.9-0.29,1.2
					c-0.07,0.11-0.3,0.37-0.69,0.76c-0.12,0.12-0.43,0.38-0.91,0.78c-0.61,0.49-0.97,0.74-1.09,0.74c-0.11,0-0.31-0.11-0.61-0.32
					c-0.36-0.25-0.78-0.62-1.26-1.1c-0.3-0.3-0.52-0.6-0.66-0.9C52.43,80.11,52.36,79.78,52.36,79.41z M53.89,78.56
					c0,0.28,0.06,0.58,0.18,0.92c0.12,0.33,0.28,0.65,0.49,0.95c0.16,0.23,0.46,0.52,0.9,0.84c0.14,0.11,0.35,0.25,0.61,0.42
					c0.1,0,0.23-0.18,0.38-0.54c0.15-0.36,0.23-0.59,0.23-0.7c0-0.49-0.11-0.95-0.32-1.38c-0.17-0.36-0.45-0.72-0.81-1.1
					c-0.15-0.16-0.52-0.5-1.1-1.03c-0.2,0.19-0.35,0.47-0.45,0.86C53.93,78.08,53.89,78.33,53.89,78.56z"/>
			</g>
		</g>
		<g>
			<g>
				<g>
					<g>
						<g>
							<polygon class="st0" points="42.31,28.08 42.22,29.32 42.16,30.08 41.93,33.33 41.88,34.09 41.81,35.13 41.81,35.14 
								41.74,36.09 40.99,36.11 40.64,36.12 39.92,36.13 39.5,36.14 39,36.15 38.12,36.17 37.13,36.19 32.51,36.29 32.5,36.29 
								27.87,36.19 26.89,36.17 26,36.15 25.5,36.14 25.09,36.13 24.72,36.13 24.36,36.12 24.01,36.11 23.27,36.09 23.2,35.14 
								23.2,35.13 23.12,34.09 23.07,33.33 22.84,30.08 22.78,29.32 22.69,28.08 							"/>
							<path class="st3" d="M41.42,28.08c-1.46,2.07-3.52,4.18-5.8,4.18h-0.03c-0.5,0.63-1.08,1.12-1.72,1.39
								c-0.4,0.17-0.83,0.27-1.27,0.27c-0.03,0-0.06,0-0.08-0.01c0,0,0,0-0.01,0v-5.83H41.42z"/>
							<g>
								<path class="st4" d="M45.45,40.88l-3.72,1.11l-0.35,0.1l-0.1,0.03c-0.29-0.49-0.53-0.85-0.63-1.01
									c-0.04-0.05-0.06-0.08-0.07-0.09c-0.01,0.01-0.01,0.02-0.02,0.03c-0.32,0.52-0.49,1.01-0.6,1.47l-0.99,0.3l-6.45,1.92
									l-4.03,1.2l-1.34,0.41c-0.04-0.16-0.1-0.33-0.17-0.51c-2.33-1-1.27-2.59-2.4-4.6c-0.04-0.07-0.08-0.14-0.13-0.21
									c-0.14,0.17-2.77,4.18-3.22,7.09l-0.33,0.1l-2.61,0.78h-0.06c-0.04-5.73,1.7-9.55,3.31-11.86c0.11-0.16,0.22-0.31,0.34-0.46
									c0.11-0.13,0.21-0.27,0.31-0.4l0.01-0.01c0-0.01,0-0.01,0-0.01c0.08-0.09,0.16-0.19,0.24-0.27c0.08-0.1,0.15-0.18,0.23-0.27
									c0.2-0.22,0.38-0.41,0.55-0.57v-0.01h0.01c0.04-0.04,0.08-0.08,0.13-0.12c0.04-0.04,0.08-0.08,0.11-0.11
									c0.04-0.03,0.08-0.07,0.11-0.1c0.07-0.06,0.13-0.12,0.2-0.17c0.25-0.22,0.41-0.32,0.41-0.32l0.61,0.15l0.1,0.03l0.24,0.06
									l0.06,0.01l0.84-0.04l1.3-0.05l1.38-0.06l3.79-0.15h0.01l3.87,0.16l1.31,0.05l1.3,0.05l0.84,0.04l0.07-0.01l0.24-0.06
									l0.11-0.03l0.6-0.15c0,0,0.16,0.1,0.41,0.32c0.06,0.05,0.13,0.11,0.2,0.17c0.03,0.03,0.07,0.07,0.11,0.1
									c0.04,0.03,0.08,0.07,0.11,0.11c0.04,0.04,0.08,0.08,0.13,0.12l0.01,0.01c0.04,0.03,0.08,0.08,0.12,0.12
									c0.04,0.04,0.1,0.09,0.14,0.14c0.09,0.1,0.19,0.2,0.29,0.31c0.07,0.07,0.13,0.14,0.2,0.22c0.01,0.02,0.02,0.03,0.03,0.05
									c0.08,0.08,0.16,0.18,0.24,0.27c0,0,0.01,0.01,0.01,0.01v0.01c0.1,0.12,0.2,0.26,0.32,0.4c0.11,0.15,0.22,0.3,0.33,0.46
									C44.16,38.1,44.86,39.34,45.45,40.88z"/>
								<path class="st3" d="M32.5,38.45h0.85l-0.38,3.07c-0.15,0.01-0.31,0.01-0.47,0.02V38.45z"/>
							</g>
							<g>
								<g>
									<path class="st3" d="M32.5,28.08h-8.92c1.47,2.06,3.52,4.17,5.8,4.17h0.03c0.81,1.03,1.85,1.66,3,1.66
										c0.03,0,0.06-0.01,0.09-0.01V28.08z"/>
									<path class="st3" d="M32.5,38.45h-0.85l0.38,3.07c0.16,0.01,0.31,0.01,0.47,0.02V38.45z"/>
								</g>
								<path class="st3" d="M29.4,41.03c-4.31-0.95-6.66-2.41-7.88-3.9c0.89-1.28,1.75-2.09,2.23-2.5L29.4,41.03z"/>
								<g>
									<path class="st4" d="M32.5,32.64c-0.03,0-0.06,0-0.09,0c-0.43,0-0.84-0.09-1.23-0.25c-0.02,0.1-0.04,0.2-0.04,0.31v0.55
										c0.41,0.18,0.83,0.27,1.27,0.27c0.03,0,0.06,0,0.09,0V32.64z"/>
									<path class="st4" d="M32.5,31.4c-0.02,0-0.03-0.01-0.05-0.01c-0.62,0-1.13,0.43-1.28,1c0.39,0.16,0.8,0.25,1.23,0.25
										c0.03,0,0.06,0,0.09,0V31.4z"/>
								</g>
								<path class="st4" d="M40.08,34.15l-2.29-0.03l-3.93-0.05v-0.81c-0.41,0.18-0.83,0.27-1.27,0.27c-0.03,0-0.06,0-0.09,0l0,0
									c0,0,0,0,0,0c0,0,0,0,0,0l0,0c-0.03,0-0.06,0-0.09,0c-0.44,0-0.87-0.09-1.27-0.27v0.81l-3.93,0.05l-2.29,0.03
									c-0.4,0.7-0.22,0.77-0.22,1.57c0,2,1.38,3.76,3.48,4.81c0.01,0.01,0.02,0.01,0.03,0.01c0.38,0.18,0.78,0.35,1.19,0.48
									c0.81,0.27,1.7,0.44,2.63,0.49c0.05,0,0.1,0.01,0.15,0.01c0.1,0,0.21,0,0.31,0.01l0,0c0,0,0,0,0,0c0,0,0,0,0,0l0,0
									c0.11,0,0.21,0,0.31-0.01c0.05,0,0.1-0.01,0.15-0.01c0.93-0.05,1.82-0.22,2.63-0.49c0.42-0.13,0.82-0.3,1.19-0.48
									c0.01,0,0.02,0,0.03-0.01c2.1-1.05,3.48-2.81,3.48-4.81C40.3,34.92,40.48,34.85,40.08,34.15z"/>
								<g>
									<path class="st3" d="M29.4,41.03c-0.42-0.16-0.82-0.32-1.19-0.48c-0.01,0-0.02,0-0.03-0.01c-2.1-1.05-3.48-2.81-3.48-4.81
										c0-0.8-0.18-0.87,0.22-1.57l2.29-0.03L29.4,41.03z"/>
									<path class="st3" d="M35.6,41.03c0.42-0.16,0.82-0.32,1.19-0.48c0.01,0,0.02,0,0.03-0.01c2.1-1.05,3.48-2.81,3.48-4.81
										c0-0.8,0.18-0.87-0.22-1.57l-2.29-0.03L35.6,41.03z"/>
								</g>
								<path class="st4" d="M32.5,32.64c0.03,0,0.06,0,0.09,0c0.43,0,0.84-0.09,1.23-0.25c0.02,0.1,0.04,0.2,0.04,0.31v0.55
									c-0.41,0.18-0.83,0.27-1.27,0.27c-0.03,0-0.06,0-0.09,0V32.64z"/>
								<path class="st4" d="M32.5,31.4c0.02,0,0.03-0.01,0.05-0.01c0.62,0,1.14,0.43,1.28,1c-0.39,0.16-0.8,0.25-1.23,0.25
									c-0.03,0-0.06,0-0.09,0V31.4z"/>
							</g>
							<path class="st3" d="M43.48,37.13c-1.23,1.49-3.57,2.94-7.88,3.9l2.34-2.65l0.14-0.16l1.83-2.08l0.39-0.44l0.94-1.07
								c0.06,0.05,0.13,0.11,0.2,0.17c0.03,0.03,0.07,0.07,0.11,0.1c0.04,0.03,0.08,0.07,0.12,0.11c0.04,0.04,0.08,0.08,0.13,0.12h0
								v0c0.04,0.03,0.08,0.08,0.12,0.12c0.05,0.05,0.09,0.09,0.14,0.14c0.09,0.1,0.19,0.2,0.29,0.31c0.07,0.07,0.13,0.14,0.19,0.22
								c0.01,0.01,0.03,0.03,0.04,0.04c0.08,0.09,0.15,0.18,0.23,0.28c0,0,0,0,0,0.01h0.01v0c0.1,0.13,0.2,0.26,0.31,0.4
								C43.26,36.81,43.37,36.97,43.48,37.13z"/>
							<path class="st5" d="M44.04,32.67c0,0.27-0.01,0.54-0.06,0.82c-0.12,0.89-0.46,1.83-1.14,2.78v0
								c-0.65,0.9-1.61,1.81-2.97,2.68c-0.08,0.05-0.17,0.11-0.26,0.16c-0.79,0.49-1.72,0.97-2.79,1.42
								c-0.02,0.01-0.05,0.02-0.07,0.03c-0.02,0.01-0.04,0.02-0.05,0.02c-0.07,0.02-0.13,0.05-0.19,0.08
								c-0.19,0.08-0.39,0.16-0.59,0.24c-0.1,0.04-0.2,0.08-0.31,0.12l2.51-4.86l0.86-1.65l0.19-0.38l3.14-6.06
								C42.31,28.08,44.04,30.05,44.04,32.67z"/>
							<path class="st5" d="M29.4,41.03c-1.61-0.6-2.93-1.25-4.01-1.91c-0.09-0.05-0.17-0.11-0.26-0.16
								c-2.79-1.79-3.87-3.73-4.11-5.46c-0.04-0.28-0.06-0.55-0.06-0.81c0-2.62,1.73-4.59,1.73-4.59L29.4,41.03z"/>
							<g>
								<polygon class="st2" points="23.76,35.78 24.57,36.86 24.2,35.56 								"/>
								<polygon class="st2" points="26.56,38.39 27.37,39.47 27,38.17 								"/>
								<polygon class="st2" points="22.29,29.35 23.09,30.43 22.73,29.13 								"/>
								<polygon class="st2" points="23.35,31.61 24.16,32.69 23.8,31.39 								"/>
								<polygon class="st2" points="24.42,33.87 25.23,34.95 24.86,33.65 								"/>
								<polygon class="st2" points="25.49,36.13 26.3,37.21 25.93,35.91 								"/>
								<path class="st2" d="M25.39,39.11c-0.09-0.05-0.17-0.11-0.26-0.16l-0.47-0.63l0.44-0.22L25.39,39.11z"/>
								<polygon class="st2" points="21.62,31.26 22.43,32.33 22.06,31.04 								"/>
								<polygon class="st2" points="22.69,33.52 23.5,34.59 23.13,33.3 								"/>
								<path class="st2" d="M21.37,33.95l-0.35-0.46c-0.04-0.28-0.06-0.55-0.06-0.81L21,32.65L21.37,33.95z"/>
								<polygon class="st2" points="22.1,35.55 22.91,36.62 22.54,35.33 								"/>
							</g>
							<g>
								<polygon class="st2" points="41.24,35.78 40.43,36.86 40.8,35.56 								"/>
								<polygon class="st2" points="38.44,38.39 37.63,39.47 38,38.17 								"/>
								<polygon class="st2" points="42.72,29.35 41.91,30.43 42.27,29.13 								"/>
								<polygon class="st2" points="41.65,31.61 40.84,32.69 41.21,31.39 								"/>
								<polygon class="st2" points="40.58,33.87 39.77,34.95 40.14,33.65 								"/>
								<polygon class="st2" points="39.51,36.13 38.7,37.21 39.07,35.91 								"/>
								<path class="st2" d="M39.61,39.11c0.09-0.05,0.17-0.11,0.26-0.16l0.47-0.63L39.9,38.1L39.61,39.11z"/>
								<polygon class="st2" points="43.38,31.26 42.57,32.33 42.94,31.04 								"/>
								<polygon class="st2" points="42.31,33.52 41.5,34.59 41.87,33.3 								"/>
								<path class="st2" d="M44.04,32.67c0,0.27-0.01,0.54-0.06,0.82l-0.35,0.46L44,32.65L44.04,32.67z"/>
								<polygon class="st2" points="42.91,35.55 42.1,36.62 42.46,35.33 								"/>
							</g>
						</g>
						<path class="st2" d="M36.72,30.59c-1.23-0.01-2.38-0.36-3.35-0.94l1.19,1.89l0.51,0.82l1.3,2.06l4.18,6.64
							c-0.32,0.52-0.49,1.01-0.6,1.47l-0.99,0.3l-6.45,1.92l-4.03,1.2l-1.34,0.41c-0.04-0.16-0.1-0.33-0.17-0.51
							c-2.33-1-1.27-2.59-2.4-4.6l4.15-6.83l1.24-2.05l0.38-0.62l1.27-2.1c-0.98,0.6-2.13,0.93-3.36,0.92c-3.6,0-6.51-2.93-6.5-6.53
							c0-2.13,10.62-13.17,10.62-13.17s10.9,10.71,10.89,13.22C43.25,27.68,40.32,30.59,36.72,30.59z"/>
						<g>
							<g>
								<path class="st3" d="M28.48,45.94l-1.35,0.4c-0.05-0.16-0.1-0.33-0.17-0.51c-2.41-1.03-1.19-2.7-2.53-4.81
									c-0.15,0.17-2.77,4.18-3.22,7.08l-0.32,0.1c-0.69-3.03,3.89-8.1,3.89-8.1S26.82,45.17,28.48,45.94z"/>
								<path class="st3" d="M41.72,41.99l-0.35,0.11l-0.11,0.03c-0.29-0.49-0.52-0.85-0.63-1.01c-0.04-0.05-0.06-0.08-0.07-0.09
									c-0.33,0.53-0.51,1.03-0.62,1.49l-0.99,0.3c0.74-1.39,1.27-2.71,1.27-2.71S40.92,40.88,41.72,41.99z"/>
							</g>
							<path class="st3" d="M35.07,32.35l-1.21,0.9c-0.4,0.18-0.83,0.27-1.27,0.27c-0.03,0-0.06-0.01-0.09-0.01
								c-0.03,0-0.06,0.01-0.09,0.01c-0.44,0-0.87-0.1-1.27-0.27l-1.19-0.9l0.38-0.62c0.74,0.37,1.79,0.9,2.09,0.9
								c0.03,0,0.06-0.01,0.08-0.01c0,0,0,0,0.01,0c0.03,0,0.06,0.01,0.09,0.01c0.27,0,1.22-0.62,1.97-1.12L35.07,32.35z"/>
							<path class="st4" d="M34.1,19.23c-0.7,0.08-1.3,0.51-1.6,1.11c-0.3-0.61-0.89-1.04-1.6-1.11c-1.74,0.99-2.98,3.52-2.98,6.48
								c0,2.1,0.62,3.98,1.61,5.25c0,0.01,0.01,0.02,0.01,0.02c0,0,0,0,0,0l0,0c0.51,0.65,1.11,1.13,1.77,1.41
								c0.38,0.15,0.77,0.24,1.18,0.25v0c0,0,0,0,0,0c0,0,0,0,0,0v0c0.41-0.01,0.8-0.09,1.18-0.25c0.66-0.27,1.26-0.76,1.77-1.41
								l0,0c0,0,0,0,0,0c0.01-0.01,0.01-0.01,0.01-0.02c0.99-1.27,1.61-3.15,1.61-5.25C37.08,22.75,35.84,20.23,34.1,19.23z"/>
							<path class="st2" d="M35.71,18.74c0-0.74-3.24-3.93-3.24-3.93s-3.16,3.28-3.16,3.91c0,1.07,0.86,1.94,1.93,1.94
								c0.37,0,0.71-0.1,1-0.28l0.53,0c0.29,0.18,0.63,0.28,1,0.28C34.83,20.67,35.71,19.81,35.71,18.74z"/>
							<g>
								<g>
									<path class="st2" d="M29.08,25.31c-0.02,0.05-0.03,0.1-0.03,0.16c0,0.35,0.44,0.64,0.98,0.64c0.54,0,0.98-0.29,0.98-0.64
										c0-0.06-0.01-0.11-0.03-0.16H29.08z"/>
								</g>
								<g>
									<path class="st2" d="M35.93,25.31c0.02,0.05,0.03,0.1,0.03,0.16c0,0.35-0.44,0.64-0.98,0.64c-0.54,0-0.98-0.29-0.98-0.64
										c0-0.06,0.01-0.11,0.03-0.16H35.93z"/>
								</g>
								<g>
									<path class="st6" d="M33.77,30.11H32.5H32.5h-1.27c0.25,0.34,0.73,0.57,1.27,0.57v0c0,0,0,0,0,0c0,0,0,0,0,0v0
										C33.05,30.68,33.52,30.45,33.77,30.11z"/>
									<path class="st2" d="M32.5,30.04c-0.58-0.68-1.4,0.18-1.4,0.18h1.4h0.01h1.4C33.9,30.22,33.08,29.37,32.5,30.04z"/>
								</g>
								<polygon class="st3" points="32.5,26.39 32.5,26.37 32.5,26.38 32.5,26.37 32.5,26.39 31.76,28.73 32.5,28.73 32.5,28.73 
									33.24,28.73 								"/>
								<polygon class="st2" points="33.9,23.91 35.84,24.02 35.87,24.02 35.88,24.03 36.65,24.87 35.8,24.12 35.84,24.13 
									33.9,24.23 								"/>
								<polygon class="st2" points="31.27,24.23 29.33,24.13 29.37,24.12 28.52,24.87 29.29,24.03 29.3,24.02 29.33,24.02 
									31.27,23.91 								"/>
							</g>
						</g>
					</g>
					<path class="st3" d="M33.84,19.28c0.08-0.02,0.17-0.04,0.26-0.04C34.01,19.24,33.93,19.25,33.84,19.28z"/>
					<path class="st3" d="M33.15,19.59c0.01-0.01,0.02-0.01,0.03-0.02C33.17,19.57,33.16,19.58,33.15,19.59z"/>
					<path class="st3" d="M33.37,19.46c0.02-0.01,0.03-0.01,0.05-0.02C33.4,19.44,33.38,19.45,33.37,19.46z"/>
					<path class="st3" d="M33.6,19.35c0.03-0.01,0.06-0.02,0.08-0.03C33.65,19.33,33.62,19.34,33.6,19.35z"/>
					<g>
						<path class="st7" d="M28.04,28.13c0-0.37-1.63-1.97-1.63-1.97s-1.59,1.65-1.59,1.97c0,0.54,0.43,0.97,0.97,0.97
							c0.18,0,0.36-0.05,0.5-0.14L25.69,30l1.48,0l-0.61-1.04c0.15,0.09,0.32,0.14,0.5,0.14C27.6,29.1,28.04,28.66,28.04,28.13z"/>
						<path class="st3" d="M26.25,29.68l0.19-0.32l0.18,0.32L26.25,29.68z M26.13,28.68c-0.1,0.06-0.21,0.09-0.33,0.09
							c-0.18,0-0.35-0.07-0.47-0.19c-0.12-0.12-0.19-0.29-0.19-0.46c0.06-0.15,0.67-0.87,1.28-1.51c0.62,0.63,1.25,1.35,1.31,1.55
							c0,0.14-0.07,0.31-0.19,0.43c-0.12,0.12-0.29,0.19-0.46,0.19l0,0c-0.12,0-0.24-0.03-0.34-0.09L26.13,28.68z"/>
						<path class="st7" d="M40.31,28.13c0-0.37-1.63-1.97-1.63-1.97s-1.59,1.65-1.59,1.97c0,0.54,0.43,0.97,0.97,0.97
							c0.18,0,0.36-0.05,0.5-0.14L37.96,30l1.48,0l-0.61-1.04c0.15,0.09,0.32,0.14,0.5,0.14C39.87,29.1,40.31,28.66,40.31,28.13z"/>
						<path class="st3" d="M38.51,29.68l0.19-0.32l0.18,0.32L38.51,29.68z M38.4,28.68c-0.1,0.06-0.21,0.09-0.33,0.09
							c-0.18,0-0.35-0.07-0.47-0.19c-0.12-0.12-0.19-0.29-0.19-0.46c0.06-0.15,0.67-0.87,1.28-1.51c0.62,0.63,1.25,1.35,1.31,1.55
							c0,0.14-0.07,0.31-0.19,0.43c-0.12,0.12-0.29,0.19-0.46,0.19l0,0c-0.12,0-0.24-0.03-0.34-0.09L38.4,28.68z"/>
					</g>
				</g>
				<path class="st3" d="M43.48,37.13c-0.11-0.16-0.22-0.31-0.33-0.46c-0.04-0.05-0.07-0.09-0.11-0.14
					c-0.07-0.09-0.14-0.18-0.2-0.26v0c0.68-0.95,1.02-1.89,1.14-2.78c0.05-0.28,0.06-0.55,0.06-0.82c0-2.62-1.73-4.6-1.73-4.6h-0.44
					c0.86-1.1,1.38-2.49,1.38-3.99C43.27,21.59,32.5,11,32.37,10.87v33.91l0.13-0.04l6.45-1.92l0.8-0.24l0.2-0.06v0h0
					c0.01-0.06,0.03-0.12,0.05-0.18c0.02-0.06,0.03-0.11,0.05-0.17c0,0,0,0,0,0c0.11-0.36,0.27-0.74,0.52-1.13
					c0,0,0.01,0.01,0.01,0.01c0.01,0.01,0.03,0.03,0.06,0.08c0.11,0.16,0.34,0.52,0.63,1.01l0,0l0.01,0l0.1-0.03l0.15-0.04l0.2-0.06
					l3.72-1.11C44.86,39.34,44.16,38.1,43.48,37.13z"/>
			</g>
			<g>
				<g>
					<g>
						<g>
							<polygon class="st0" points="21.34,64.91 21.43,63.66 21.49,62.9 21.72,59.65 21.78,58.89 21.85,57.85 21.85,57.85 
								21.92,56.89 22.66,56.87 23.01,56.87 23.74,56.85 24.15,56.84 24.65,56.83 25.54,56.82 26.52,56.79 31.15,56.7 31.16,56.7 
								35.78,56.79 36.77,56.82 37.66,56.83 38.16,56.84 38.57,56.85 38.93,56.86 39.3,56.87 39.65,56.87 40.39,56.89 40.46,57.85 
								40.46,57.85 40.53,58.89 40.59,59.65 40.82,62.9 40.88,63.66 40.96,64.91 							"/>
							<path class="st3" d="M22.24,64.91c1.46-2.07,3.52-4.18,5.8-4.18h0.03c0.5-0.63,1.08-1.12,1.72-1.39
								c0.4-0.17,0.83-0.27,1.27-0.27c0.03,0,0.06,0,0.08,0.01c0,0,0,0,0.01,0v5.83H22.24z"/>
							<g>
								<path class="st4" d="M18.21,52.11L21.93,51l0.35-0.1l0.1-0.03c0.29,0.49,0.53,0.85,0.63,1.01c0.04,0.05,0.06,0.08,0.07,0.09
									c0.01-0.01,0.01-0.02,0.02-0.03c0.32-0.52,0.49-1.01,0.6-1.47l0.99-0.3l6.46-1.92l4.03-1.2l1.34-0.41
									c0.04,0.16,0.1,0.33,0.17,0.51c2.33,1,1.27,2.59,2.4,4.6c0.04,0.07,0.08,0.14,0.13,0.21c0.14-0.17,2.77-4.18,3.22-7.09
									l0.33-0.1L45.38,44h0.06c0.04,5.73-1.7,9.55-3.31,11.86c-0.11,0.16-0.22,0.31-0.34,0.46c-0.11,0.13-0.21,0.27-0.31,0.4
									l-0.01,0.01c0,0.01,0,0.01,0,0.01c-0.08,0.09-0.16,0.19-0.24,0.27c-0.08,0.1-0.15,0.18-0.23,0.27
									c-0.2,0.22-0.38,0.41-0.55,0.57v0.01h-0.01c-0.04,0.04-0.08,0.08-0.13,0.12c-0.04,0.04-0.08,0.08-0.11,0.11
									c-0.04,0.03-0.08,0.07-0.11,0.1c-0.07,0.06-0.13,0.12-0.2,0.17c-0.25,0.22-0.41,0.32-0.41,0.32l-0.61-0.15l-0.1-0.03
									l-0.24-0.06l-0.06-0.01l-0.84,0.04l-1.3,0.05l-1.38,0.06l-3.79,0.15h-0.01l-3.87-0.16l-1.31-0.05l-1.3-0.05l-0.84-0.04
									l-0.07,0.01l-0.24,0.06l-0.11,0.03l-0.6,0.15c0,0-0.16-0.1-0.41-0.32c-0.06-0.05-0.13-0.11-0.2-0.17
									c-0.03-0.03-0.07-0.07-0.11-0.1c-0.04-0.03-0.08-0.07-0.11-0.11c-0.04-0.04-0.08-0.08-0.13-0.12l-0.01-0.01
									c-0.04-0.03-0.08-0.08-0.12-0.12c-0.04-0.04-0.1-0.09-0.14-0.14c-0.09-0.1-0.19-0.2-0.29-0.31
									c-0.07-0.07-0.13-0.14-0.2-0.22c-0.01-0.02-0.02-0.03-0.03-0.05c-0.08-0.08-0.16-0.18-0.24-0.27c0,0-0.01-0.01-0.01-0.01
									v-0.01c-0.1-0.12-0.2-0.26-0.32-0.4c-0.11-0.15-0.22-0.3-0.33-0.46C19.5,54.88,18.8,53.64,18.21,52.11z"/>
								<path class="st3" d="M31.16,54.54h-0.85l0.38-3.07c0.15-0.01,0.31-0.01,0.47-0.02V54.54z"/>
							</g>
							<g>
								<g>
									<path class="st3" d="M31.15,64.91h8.92c-1.47-2.06-3.52-4.17-5.8-4.17h-0.03c-0.81-1.03-1.85-1.66-3-1.66
										c-0.03,0-0.06,0.01-0.09,0.01V64.91z"/>
									<path class="st3" d="M31.15,54.54H32l-0.38-3.07c-0.16-0.01-0.31-0.01-0.47-0.02V54.54z"/>
								</g>
								<path class="st3" d="M34.25,51.96c4.31,0.95,6.66,2.41,7.88,3.9c-0.89,1.28-1.75,2.09-2.23,2.5L34.25,51.96z"/>
								<g>
									<path class="st4" d="M31.15,60.35c0.03,0,0.06,0,0.09,0c0.43,0,0.84,0.09,1.23,0.25c0.02-0.1,0.04-0.2,0.04-0.31v-0.55
										c-0.41-0.18-0.83-0.27-1.27-0.27c-0.03,0-0.06,0-0.09,0V60.35z"/>
									<path class="st4" d="M31.15,61.59c0.02,0,0.03,0.01,0.05,0.01c0.62,0,1.13-0.43,1.28-1c-0.39-0.16-0.8-0.25-1.23-0.25
										c-0.03,0-0.06,0-0.09,0V61.59z"/>
								</g>
								<path class="st4" d="M23.58,58.84l2.29,0.03l3.93,0.05v0.81c0.41-0.18,0.83-0.27,1.27-0.27c0.03,0,0.06,0,0.09,0l0,0
									c0,0,0,0,0,0c0,0,0,0,0,0l0,0c0.03,0,0.06,0,0.09,0c0.44,0,0.87,0.09,1.27,0.27v-0.81l3.93-0.05l2.29-0.03
									c0.4-0.7,0.22-0.77,0.22-1.57c0-2-1.38-3.76-3.48-4.81c-0.01-0.01-0.02-0.01-0.03-0.01c-0.38-0.18-0.78-0.35-1.19-0.48
									c-0.81-0.27-1.7-0.44-2.63-0.49c-0.05,0-0.1-0.01-0.15-0.01c-0.1,0-0.21,0-0.31-0.01l0,0c0,0,0,0,0,0c0,0,0,0,0,0l0,0
									c-0.11,0-0.21,0-0.31,0.01c-0.05,0-0.1,0.01-0.15,0.01c-0.93,0.05-1.82,0.22-2.63,0.49c-0.42,0.13-0.82,0.3-1.19,0.48
									c-0.01,0-0.02,0-0.03,0.01c-2.1,1.05-3.48,2.81-3.48,4.81C23.35,58.07,23.18,58.14,23.58,58.84z"/>
								<g>
									<path class="st3" d="M34.25,51.96c0.42,0.16,0.82,0.32,1.19,0.48c0.01,0,0.02,0,0.03,0.01c2.1,1.05,3.48,2.81,3.48,4.81
										c0,0.8,0.18,0.87-0.22,1.57l-2.29,0.03L34.25,51.96z"/>
									<path class="st3" d="M28.05,51.96c-0.42,0.16-0.82,0.32-1.19,0.48c-0.01,0-0.02,0-0.03,0.01c-2.1,1.05-3.48,2.81-3.48,4.81
										c0,0.8-0.18,0.87,0.22,1.57l2.29,0.03L28.05,51.96z"/>
								</g>
								<path class="st4" d="M31.16,60.35c-0.03,0-0.06,0-0.09,0c-0.43,0-0.84,0.09-1.23,0.25c-0.02-0.1-0.04-0.2-0.04-0.31v-0.55
									c0.41-0.18,0.83-0.27,1.27-0.27c0.03,0,0.06,0,0.09,0V60.35z"/>
								<path class="st4" d="M31.16,61.59c-0.02,0-0.03,0.01-0.05,0.01c-0.62,0-1.14-0.43-1.28-1c0.39-0.16,0.8-0.25,1.23-0.25
									c0.03,0,0.06,0,0.09,0V61.59z"/>
							</g>
							<path class="st3" d="M20.17,55.86c1.23-1.49,3.57-2.94,7.88-3.9l-2.34,2.65l-0.14,0.16l-1.83,2.08l-0.39,0.44l-0.94,1.07
								c-0.06-0.05-0.13-0.11-0.2-0.17c-0.03-0.03-0.07-0.07-0.11-0.1c-0.04-0.03-0.08-0.07-0.12-0.11
								c-0.04-0.04-0.08-0.08-0.13-0.12h0v0c-0.04-0.03-0.08-0.08-0.12-0.12c-0.05-0.05-0.09-0.09-0.14-0.14
								c-0.09-0.1-0.19-0.2-0.29-0.31c-0.07-0.07-0.13-0.14-0.19-0.22c-0.01-0.01-0.03-0.03-0.04-0.04
								c-0.08-0.09-0.15-0.18-0.23-0.28c0,0,0,0,0-0.01h0v0c-0.1-0.13-0.2-0.26-0.31-0.4C20.39,56.17,20.28,56.02,20.17,55.86z"/>
							<path class="st5" d="M19.62,60.31c0-0.27,0.01-0.54,0.06-0.82c0.12-0.89,0.46-1.83,1.14-2.78v0c0.65-0.9,1.61-1.81,2.97-2.68
								c0.08-0.05,0.17-0.11,0.26-0.16c0.79-0.49,1.72-0.97,2.79-1.42c0.02-0.01,0.05-0.02,0.07-0.03c0.02-0.01,0.04-0.02,0.05-0.02
								c0.07-0.02,0.13-0.05,0.19-0.08c0.19-0.08,0.39-0.16,0.59-0.24c0.1-0.04,0.2-0.08,0.31-0.12l-2.51,4.86l-0.86,1.65
								l-0.19,0.38l-3.14,6.06C21.34,64.91,19.62,62.93,19.62,60.31z"/>
							<path class="st5" d="M34.25,51.96c1.61,0.6,2.93,1.25,4.01,1.91c0.09,0.05,0.17,0.11,0.26,0.16
								c2.79,1.79,3.87,3.73,4.11,5.46c0.04,0.28,0.06,0.55,0.06,0.81c0,2.62-1.73,4.59-1.73,4.59L34.25,51.96z"/>
							<g>
								<polygon class="st2" points="39.9,57.21 39.09,56.13 39.45,57.43 								"/>
								<polygon class="st2" points="37.1,54.6 36.29,53.52 36.65,54.81 								"/>
								<polygon class="st2" points="41.37,63.63 40.56,62.56 40.93,63.85 								"/>
								<polygon class="st2" points="40.3,61.37 39.49,60.3 39.86,61.59 								"/>
								<polygon class="st2" points="39.23,59.11 38.42,58.04 38.79,59.33 								"/>
								<polygon class="st2" points="38.16,56.85 37.35,55.78 37.72,57.07 								"/>
								<path class="st2" d="M38.26,53.87c0.09,0.05,0.17,0.11,0.26,0.16l0.47,0.63l-0.44,0.22L38.26,53.87z"/>
								<polygon class="st2" points="42.03,61.73 41.22,60.65 41.59,61.95 								"/>
								<polygon class="st2" points="40.96,59.47 40.16,58.39 40.52,59.69 								"/>
								<path class="st2" d="M42.29,59.04l0.35,0.46c0.04,0.28,0.06,0.55,0.06,0.81l-0.04,0.02L42.29,59.04z"/>
								<polygon class="st2" points="41.56,57.43 40.75,56.36 41.12,57.66 								"/>
							</g>
							<g>
								<polygon class="st2" points="22.41,57.21 23.22,56.13 22.85,57.43 								"/>
								<polygon class="st2" points="25.21,54.6 26.02,53.52 25.66,54.81 								"/>
								<polygon class="st2" points="20.94,63.63 21.75,62.56 21.38,63.85 								"/>
								<polygon class="st2" points="22.01,61.37 22.82,60.3 22.45,61.59 								"/>
								<polygon class="st2" points="23.07,59.11 23.88,58.04 23.52,59.33 								"/>
								<polygon class="st2" points="24.14,56.85 24.95,55.78 24.59,57.07 								"/>
								<path class="st2" d="M24.04,53.87c-0.09,0.05-0.17,0.11-0.26,0.16l-0.47,0.63l0.44,0.22L24.04,53.87z"/>
								<polygon class="st2" points="20.27,61.73 21.08,60.65 20.72,61.95 								"/>
								<polygon class="st2" points="21.34,59.47 22.15,58.39 21.79,59.69 								"/>
								<path class="st2" d="M19.62,60.31c0-0.27,0.01-0.54,0.06-0.82l0.35-0.46l-0.37,1.29L19.62,60.31z"/>
								<polygon class="st2" points="20.75,57.43 21.56,56.36 21.19,57.66 								"/>
							</g>
						</g>
						<path class="st2" d="M26.93,62.4c1.23,0.01,2.38,0.36,3.35,0.94l-1.19-1.89l-0.51-0.82l-1.3-2.06l-4.18-6.64
							c0.32-0.52,0.49-1.01,0.6-1.47l0.99-0.3l6.46-1.92l4.03-1.2l1.34-0.41c0.04,0.16,0.1,0.33,0.17,0.51c2.33,1,1.27,2.59,2.4,4.6
							l-4.15,6.83l-1.24,2.05l-0.38,0.62l-1.27,2.1c0.98-0.6,2.13-0.93,3.36-0.92c3.6,0,6.51,2.92,6.5,6.53
							c0,2.13-10.62,13.17-10.62,13.17S20.39,71.41,20.4,68.9C20.4,65.3,23.33,62.39,26.93,62.4z"/>
						<g>
							<g>
								<path class="st3" d="M35.18,47.05l1.35-0.4c0.05,0.16,0.1,0.33,0.17,0.51c2.41,1.03,1.19,2.7,2.53,4.81
									c0.15-0.17,2.77-4.18,3.22-7.08l0.32-0.1c0.69,3.03-3.89,8.1-3.89,8.1S36.83,47.81,35.18,47.05z"/>
								<path class="st3" d="M21.93,51l0.35-0.11l0.11-0.03c0.29,0.49,0.52,0.85,0.63,1.01c0.04,0.05,0.06,0.08,0.07,0.09
									c0.33-0.53,0.51-1.03,0.62-1.49l0.99-0.3c-0.74,1.39-1.27,2.71-1.27,2.71S22.74,52.11,21.93,51z"/>
							</g>
							<path class="st3" d="M28.58,60.63l1.21-0.9c0.4-0.18,0.83-0.27,1.27-0.27c0.03,0,0.06,0.01,0.09,0.01
								c0.03,0,0.06-0.01,0.09-0.01c0.44,0,0.87,0.1,1.27,0.27l1.19,0.9l-0.38,0.62c-0.74-0.37-1.79-0.9-2.09-0.9
								c-0.03,0-0.06,0.01-0.08,0.01c0,0,0,0-0.01,0c-0.03,0-0.06-0.01-0.09-0.01c-0.27,0-1.22,0.62-1.97,1.12L28.58,60.63z"/>
							<path class="st4" d="M29.56,73.75c0.7-0.08,1.3-0.51,1.6-1.11c0.3,0.61,0.89,1.04,1.6,1.11c1.74-0.99,2.98-3.52,2.98-6.48
								c0-2.1-0.62-3.98-1.61-5.25c0-0.01-0.01-0.02-0.01-0.02c0,0,0,0,0,0l0,0c-0.51-0.65-1.11-1.13-1.77-1.41
								c-0.38-0.15-0.77-0.24-1.18-0.25v0c0,0,0,0,0,0c0,0,0,0,0,0v0c-0.41,0.01-0.8,0.09-1.18,0.25c-0.66,0.27-1.26,0.76-1.77,1.41
								l0,0c0,0,0,0,0,0c-0.01,0.01-0.01,0.01-0.01,0.02c-0.99,1.27-1.61,3.15-1.61,5.25C26.58,70.23,27.82,72.76,29.56,73.75z"/>
							<path class="st2" d="M27.95,74.25c0,0.74,3.24,3.93,3.24,3.93s3.16-3.28,3.16-3.92c0-1.07-0.86-1.94-1.93-1.94
								c-0.37,0-0.71,0.1-1,0.28l-0.53,0c-0.29-0.18-0.63-0.28-1-0.28C28.82,72.31,27.95,73.18,27.95,74.25z"/>
							<g>
								<g>
									<path class="st2" d="M34.58,67.68c0.02-0.05,0.03-0.1,0.03-0.16c0-0.35-0.44-0.64-0.98-0.64c-0.54,0-0.98,0.29-0.98,0.64
										c0,0.06,0.01,0.11,0.03,0.16H34.58z"/>
								</g>
								<g>
									<path class="st2" d="M27.73,67.68c-0.02-0.05-0.03-0.1-0.03-0.16c0-0.35,0.44-0.64,0.98-0.64c0.54,0,0.98,0.29,0.98,0.64
										c0,0.06-0.01,0.11-0.03,0.16H27.73z"/>
								</g>
								<g>
									<path class="st6" d="M29.88,62.87h1.27h0.01h1.27c-0.25-0.34-0.73-0.57-1.27-0.57v0c0,0,0,0,0,0c0,0,0,0,0,0v0
										C30.61,62.3,30.14,62.53,29.88,62.87z"/>
									<path class="st2" d="M31.15,62.94c0.58,0.68,1.4-0.18,1.4-0.18h-1.4h-0.01h-1.4C29.75,62.76,30.57,63.62,31.15,62.94z"/>
								</g>
								<polygon class="st3" points="31.15,66.59 31.15,66.62 31.15,66.6 31.16,66.62 31.16,66.59 31.89,64.25 31.16,64.25 
									31.15,64.25 30.42,64.25 								"/>
								<polygon class="st2" points="29.75,69.07 27.82,68.97 27.79,68.97 27.77,68.95 27.01,68.11 27.86,68.87 27.82,68.85 
									29.75,68.76 								"/>
								<polygon class="st2" points="32.39,68.76 34.32,68.85 34.28,68.87 35.13,68.11 34.37,68.95 34.35,68.97 34.33,68.97 
									32.39,69.07 								"/>
							</g>
						</g>
					</g>
					<path class="st3" d="M29.81,73.71c-0.08,0.02-0.17,0.04-0.26,0.04C29.64,73.75,29.73,73.73,29.81,73.71z"/>
					<path class="st3" d="M30.5,73.4c-0.01,0.01-0.02,0.01-0.03,0.02C30.48,73.41,30.49,73.41,30.5,73.4z"/>
					<path class="st3" d="M30.29,73.53c-0.02,0.01-0.03,0.01-0.05,0.02C30.26,73.54,30.27,73.54,30.29,73.53z"/>
					<path class="st3" d="M30.06,73.63c-0.03,0.01-0.06,0.02-0.08,0.03C30,73.65,30.03,73.64,30.06,73.63z"/>
					<g>
						<path class="st7" d="M35.61,64.86c0,0.37,1.63,1.98,1.63,1.98s1.59-1.65,1.59-1.97c0-0.54-0.43-0.97-0.97-0.97
							c-0.18,0-0.36,0.05-0.5,0.14l0.61-1.04l-1.48,0l0.61,1.04c-0.15-0.09-0.32-0.14-0.5-0.14C36.05,63.89,35.61,64.32,35.61,64.86
							z"/>
						<path class="st3" d="M37.41,63.31l-0.19,0.32l-0.18-0.32L37.41,63.31z M37.52,64.3c0.1-0.06,0.21-0.09,0.33-0.09
							c0.18,0,0.35,0.07,0.47,0.19c0.12,0.12,0.19,0.29,0.19,0.46c-0.06,0.15-0.67,0.87-1.28,1.51c-0.62-0.63-1.25-1.35-1.31-1.55
							c0-0.14,0.07-0.31,0.19-0.43c0.12-0.12,0.29-0.19,0.46-0.19l0,0c0.12,0,0.24,0.03,0.34,0.09L37.52,64.3z"/>
						<path class="st7" d="M23.35,64.86c0,0.37,1.63,1.98,1.63,1.98s1.59-1.65,1.59-1.97c0-0.54-0.43-0.97-0.97-0.97
							c-0.18,0-0.36,0.05-0.5,0.14l0.61-1.04l-1.48,0l0.61,1.04c-0.15-0.09-0.32-0.14-0.5-0.14C23.78,63.89,23.34,64.32,23.35,64.86
							z"/>
						<path class="st3" d="M25.14,63.31l-0.19,0.32l-0.18-0.32L25.14,63.31z M25.25,64.3c0.1-0.06,0.21-0.09,0.33-0.09
							c0.18,0,0.35,0.07,0.47,0.19c0.12,0.12,0.19,0.29,0.19,0.46c-0.06,0.15-0.67,0.87-1.28,1.51c-0.62-0.63-1.25-1.35-1.31-1.55
							c0-0.14,0.07-0.31,0.19-0.43c0.12-0.12,0.29-0.19,0.46-0.19l0,0c0.12,0,0.24,0.03,0.34,0.09L25.25,64.3z"/>
					</g>
				</g>
				<path class="st3" d="M20.17,55.86c0.11,0.16,0.22,0.31,0.33,0.46c0.04,0.05,0.07,0.09,0.11,0.14c0.07,0.09,0.14,0.18,0.2,0.26v0
					c-0.68,0.95-1.02,1.89-1.14,2.78c-0.05,0.28-0.06,0.55-0.06,0.82c0,2.62,1.73,4.6,1.73,4.6h0.44c-0.86,1.1-1.38,2.49-1.38,3.99
					c-0.01,2.49,10.75,13.08,10.88,13.21V48.21l-0.13,0.04l-6.46,1.92l-0.8,0.24l-0.2,0.06v0h0c-0.01,0.06-0.03,0.12-0.05,0.18
					c-0.02,0.06-0.03,0.11-0.05,0.17c0,0,0,0,0,0c-0.11,0.36-0.27,0.74-0.52,1.13c0,0-0.01-0.01-0.01-0.01
					c-0.01-0.01-0.03-0.03-0.06-0.08c-0.11-0.16-0.34-0.52-0.63-1.01l0,0l-0.01,0l-0.1,0.03l-0.15,0.04L21.93,51l-3.72,1.11
					C18.8,53.64,19.5,54.88,20.17,55.86z"/>
			</g>
		</g>
	</g>
	<g>
		<path class="st2" d="M15.65,22.56c0-0.74-3.24-3.93-3.24-3.93s-3.16,3.28-3.16,3.91c0,1.07,0.86,1.94,1.93,1.94
			c0.37,0,0.71-0.1,1-0.28l-1.21,2.07l2.95,0.01l-1.21-2.07c0.29,0.18,0.63,0.28,1,0.28C14.78,24.5,15.65,23.63,15.65,22.56z"/>
		<path class="st3" d="M15.65,22.56c0-0.74-3.24-3.93-3.24-3.93s0,0-0.01,0.01v7.64l1.51,0l-1.21-2.07c0.29,0.18,0.63,0.28,1,0.28
			C14.78,24.5,15.65,23.63,15.65,22.56z"/>
	</g>
	<g>
		<path class="st2" d="M51.54,69.96c0,0.74,3.24,3.93,3.24,3.93s3.16-3.28,3.16-3.91c0-1.07-0.86-1.94-1.93-1.94
			c-0.37,0-0.71,0.1-1,0.28l1.21-2.07l-2.95-0.01l1.21,2.07c-0.29-0.18-0.63-0.28-1-0.28C52.41,68.03,51.54,68.89,51.54,69.96z"/>
		<path class="st3" d="M51.54,69.96c0,0.74,3.24,3.93,3.24,3.93s0,0,0.01-0.01v-7.64l-1.51,0l1.21,2.07c-0.29-0.18-0.63-0.28-1-0.28
			C52.41,68.03,51.54,68.89,51.54,69.96z"/>
	</g>
</g>
</svg>
