<?xml version="1.0" encoding="utf-8"?>
<!-- Generator: Adobe Illustrator 26.0.3, SVG Export Plug-In . SVG Version: 6.00 Build 0)  -->
<svg version="1.1" id="Layer_1" xmlns="http://www.w3.org/2000/svg" xmlns:xlink="http://www.w3.org/1999/xlink" x="0px" y="0px"
	 viewBox="0 0 66 92" style="enable-background:new 0 0 66 92;" xml:space="preserve">
<style type="text/css">
	.st0{fill:#C9C9C9;}
	.st1{fill:#FFFFFF;}
	.st2{fill:#333333;}
	.st3{opacity:0.2;fill:#616161;}
	.st4{fill:#FFD675;}
	.st5{fill:#EBEBEB;}
	.st6{fill:#EBBE9F;}
	.st7{fill:#9C9C9C;}
	.st8{opacity:0.2;fill:#FFFFFF;}
</style>
<g>
	<g>
		<g>
			<path class="st0" d="M10.46,86.71c-3.46,0-6.28-2.76-6.34-6.27l-0.18-69.5c0.04-3.31,2.86-6.09,6.33-6.08L56.2,4.94
				c3.46,0.01,6.27,2.79,6.27,6.2V80.5c0,3.39-2.8,6.15-6.25,6.16L10.46,86.71z"/>
			<path class="st1" d="M10.93,86.58c-3.46,0-6.28-2.76-6.29-6.16l-0.18-69.5c-0.01-3.42,2.81-6.2,6.28-6.19l45.93,0.08
				c3.46,0.01,6.27,2.79,6.27,6.2v69.35c0,3.39-2.8,6.15-6.25,6.16L10.93,86.58z"/>
			<g>
				<path class="st2" d="M56.28,85.23H11.02c-2.65,0-4.8-2.14-4.8-4.78V11.12c0-2.63,2.15-4.78,4.8-4.78h45.26
					c2.64,0,4.8,2.14,4.8,4.78v69.34C61.08,83.09,58.92,85.23,56.28,85.23z M11.02,8.24c-1.6,0-2.9,1.29-2.9,2.88v69.34
					c0,1.59,1.3,2.88,2.9,2.88h45.26c1.6,0,2.9-1.29,2.9-2.88V11.12c0-1.59-1.3-2.88-2.9-2.88H11.02z"/>
			</g>
			<g>
				<path class="st2" d="M15.14,16.07c-0.04,0.07-0.21,0.21-0.52,0.44c-0.39,0.29-0.73,0.48-1.02,0.56l-1.57-2.88l-0.09,0.06v2.52
					h-1.85v-6.56h1.85v3.72c0.32-0.04,0.6-0.26,0.86-0.65c0.23-0.36,0.35-0.7,0.35-1.01c0-0.23-0.04-0.42-0.11-0.59
					c-0.08-0.15-0.17-0.3-0.24-0.45c0-0.07,0.2-0.25,0.61-0.56c0.33-0.25,0.58-0.43,0.73-0.55c0.11,0.1,0.22,0.26,0.31,0.49
					c0.09,0.23,0.14,0.43,0.14,0.61c0,0.16-0.03,0.35-0.1,0.57c-0.07,0.23-0.16,0.43-0.26,0.61c-0.17,0.26-0.32,0.46-0.46,0.6
					c-0.28,0.28-0.42,0.44-0.44,0.47L15.14,16.07z"/>
			</g>
			<g>
				<path class="st2" d="M52.39,76.27c0.04-0.07,0.21-0.21,0.52-0.44c0.39-0.29,0.73-0.48,1.02-0.56l1.57,2.88l0.09-0.06v-2.52h1.85
					v6.56h-1.85V78.4c-0.32,0.04-0.6,0.26-0.86,0.65c-0.23,0.36-0.35,0.7-0.35,1.01c0,0.23,0.04,0.42,0.11,0.59
					c0.08,0.15,0.17,0.3,0.24,0.45c0,0.07-0.2,0.25-0.61,0.56c-0.33,0.25-0.58,0.43-0.73,0.55c-0.11-0.1-0.22-0.26-0.31-0.49
					c-0.09-0.23-0.14-0.43-0.14-0.61c0-0.16,0.03-0.35,0.1-0.57c0.07-0.23,0.16-0.43,0.26-0.61c0.17-0.26,0.32-0.46,0.46-0.6
					c0.28-0.28,0.42-0.44,0.44-0.47L52.39,76.27z"/>
			</g>
		</g>
	</g>
	<g>
		<path class="st2" d="M15.83,22.55c0-0.74-3.21-3.89-3.21-3.89s-3.13,3.25-3.13,3.88c0,1.06,0.86,1.92,1.92,1.92
			c0.36,0,0.7-0.1,0.99-0.27l-1.2,2.05l2.92,0.01l-1.19-2.05c0.29,0.17,0.62,0.28,0.99,0.28C14.97,24.47,15.83,23.62,15.83,22.55z"
			/>
		<path class="st3" d="M15.83,22.55c0-0.74-3.21-3.89-3.21-3.89s0,0-0.01,0.01v7.58l1.5,0l-1.19-2.05c0.29,0.17,0.62,0.28,0.99,0.28
			C14.97,24.47,15.83,23.62,15.83,22.55z"/>
	</g>
	<g>
		<path class="st2" d="M51.4,69.53c0,0.74,3.21,3.89,3.21,3.89s3.13-3.25,3.13-3.88c0-1.06-0.86-1.92-1.92-1.92
			c-0.36,0-0.7,0.1-0.99,0.27l1.2-2.05l-2.92-0.01l1.19,2.05c-0.29-0.17-0.62-0.28-0.99-0.28C52.26,67.61,51.4,68.47,51.4,69.53z"/>
		<path class="st3" d="M51.4,69.53c0,0.74,3.21,3.89,3.21,3.89s0,0,0.01-0.01v-7.58l-1.5,0l1.19,2.05
			c-0.29-0.17-0.62-0.28-0.99-0.28C52.26,67.61,51.4,68.47,51.4,69.53z"/>
	</g>
	<g>
		<g>
			<g>
				<g>
					<g>
						<g>
							<path class="st2" d="M50.37,30.97l-0.12-0.42c0,0-7.83-4.47-10.33-5.89c-0.47-0.27-0.75-0.43-0.76-0.43H28
								c0,0-0.02,0.01-0.05,0.03c-0.02,0.01-0.05,0.03-0.08,0.05c-0.03,0.02-0.06,0.04-0.1,0.05c-0.03,0.02-0.07,0.04-0.11,0.06
								c-0.04,0.02-0.08,0.05-0.13,0.07c-0.07,0.04-0.14,0.08-0.22,0.12c-0.15,0.09-0.32,0.18-0.51,0.29c0,0-0.01,0-0.01,0
								c-0.14,0.08-0.29,0.17-0.45,0.26c-0.05,0.03-0.11,0.06-0.17,0.09c-0.37,0.21-0.79,0.45-1.23,0.7
								c-0.16,0.09-0.32,0.18-0.48,0.28c-0.16,0.09-0.32,0.18-0.49,0.28c-0.16,0.1-0.33,0.19-0.5,0.29
								c-2.21,1.26-4.65,2.65-5.83,3.33c-0.07,0.04-0.13,0.08-0.19,0.11c-0.28,0.16-0.47,0.27-0.52,0.29v18.59l7.3-2.19l1.66-0.5
								l24.5-7.36V30.97z"/>
							<g>
								<g>
									<g>
										<g>
											<path class="st4" d="M33.67,33.86l-3.05-5.29h6.11L33.67,33.86z M31.2,28.91l2.47,4.28l2.47-4.28H31.2z"/>
										</g>
									</g>
									<path class="st3" d="M29.56,24.24c-0.06,0.01-11.09,6.31-11.09,6.31l-1.55,4.77v13.8l7.3-2.19l1.66-0.5l4.36-14.31
										l0.58-1.92l0.85-1.83l1.9-4.07v-0.08H29.56z"/>
									<path class="st5" d="M28,24.24c0,0-0.02,0.01-0.05,0.03c-0.02,0.01-0.05,0.03-0.08,0.05c-0.03,0.02-0.06,0.04-0.1,0.05
										c-0.03,0.02-0.07,0.04-0.11,0.06c-0.04,0.02-0.08,0.05-0.13,0.07c-0.07,0.04-0.14,0.08-0.22,0.12
										c-0.15,0.08-0.32,0.18-0.51,0.29c0,0-0.01,0-0.01,0c-0.14,0.08-0.29,0.17-0.45,0.26c-0.05,0.03-0.11,0.06-0.17,0.09
										c-0.37,0.21-0.79,0.44-1.23,0.7c-0.16,0.09-0.32,0.18-0.48,0.28c-0.16,0.09-0.32,0.18-0.49,0.28
										c-0.16,0.09-0.33,0.19-0.5,0.29c-0.71,0.41-1.45,0.83-2.16,1.23c-0.21,0.12-0.43,0.24-0.63,0.36
										c-1.24,0.71-2.35,1.34-3.04,1.73c-0.07,0.04-0.13,0.08-0.19,0.11c-0.28,0.16-0.47,0.27-0.52,0.29v18.59l1.3-0.39l0.73-0.22
										l5.19-1.56l0.08-0.03c0.24-0.57,0.5-1.18,0.76-1.82c1.75-4.2,3.88-9.52,5.25-12.99c0.86-2.16,1.43-3.6,1.43-3.6l0.01-0.15
										l0.37-4.14H28z"/>
								</g>
								<g>
									<g>
										<path class="st3" d="M50.37,36.17l-1.69-5.62c0,0-11.04-6.3-11.09-6.31h-4.01v0.08l2.75,5.89l3.58,12.23l10.46-3.79V36.17
											z"/>
										<path class="st5" d="M50.37,30.98l-0.13-0.43c0,0-11.04-6.3-11.09-6.31H35.1l0.38,4.29c0,0,4.76,9.88,6.45,13.08
											l8.43-2.53V30.98z"/>
									</g>
								</g>
							</g>
							<g>
								<polygon class="st6" points="40.02,21.51 39.9,20 39.9,19.95 39.56,15.33 37.84,14.46 34.53,12.79 33.61,13.28 32.7,12.79 
									29.39,14.46 27.67,15.33 27.33,19.95 27.32,20 27.21,21.51 27.55,25.9 33.61,30.22 33.61,30.23 33.61,30.23 33.61,30.23 
									33.62,30.23 33.62,30.23 33.62,30.22 39.67,25.9 								"/>
								<path class="st6" d="M33.62,24.24l2.03-0.07l-1.52-0.95c0,0-0.24-0.01-0.51-0.01l0,0c0,0-0.01,0-0.01,0c0,0,0,0-0.01,0l0,0
									c-0.27,0-0.51,0.01-0.51,0.01l-1.52,0.95l2.03,0.07v0L33.62,24.24L33.62,24.24L33.62,24.24z"/>
								<polygon class="st3" points="34.85,21.34 34.02,18.45 33.62,18.45 33.61,18.45 33.21,18.45 32.38,21.34 33.21,22.23 
									33.61,22.24 33.61,22.24 33.61,22.24 33.62,22.24 33.62,22.24 34.02,22.23 								"/>
								<g>
									<polygon class="st7" points="34.49,17.68 37.1,17.35 37.16,17.34 37.19,17.36 38.43,18.01 37.07,17.64 37.16,17.64 
										34.63,18.36 									"/>
									<path class="st2" d="M35.41,18.77c-0.04,0.09-0.07,0.2-0.07,0.3c0,0.41,0.33,0.74,0.74,0.74c0.41,0,0.74-0.33,0.74-0.74
										c0-0.11-0.02-0.21-0.07-0.3H35.41z"/>
									<polygon class="st7" points="32.74,17.68 30.13,17.35 30.07,17.34 30.04,17.36 28.8,18.01 30.15,17.64 30.07,17.64 
										32.6,18.36 									"/>
									<path class="st2" d="M31.82,18.77c0.04,0.09,0.07,0.2,0.07,0.3c0,0.41-0.33,0.74-0.74,0.74c-0.41,0-0.74-0.33-0.74-0.74
										c0-0.11,0.02-0.21,0.07-0.3H31.82z"/>
									<path class="st7" d="M39.9,20c-0.04,0.03-0.06,0.05-0.06,0.05l-1.21-4.26l-0.79-1.33l1.71,0.87l0.34,4.62L39.9,20z"/>
									<path class="st7" d="M27.32,20c0.04,0.03,0.07,0.05,0.07,0.05l1.21-4.26l0.79-1.33l-1.71,0.87l-0.34,4.62L27.32,20z"/>
								</g>
								<path class="st4" d="M39.67,13.68v1.76c-1.53,0.42-3.24,0.6-4.89,0.64c-1.09,0.03-2.16,0.01-3.12-0.05
									c-0.48-0.03-0.93-0.06-1.34-0.1c-0.5-0.04-0.94-0.09-1.33-0.14c-0.93-0.11-1.49-0.21-1.49-0.21v-1.68
									c0,0,6.06-3.24,6.09-3.24c0,0.01,0.76,0.39,1.74,0.87c0.31,0.15,0.65,0.32,0.98,0.49c0.32,0.16,0.65,0.32,0.97,0.48
									c0.9,0.44,1.72,0.84,2.13,1.04C39.57,13.63,39.67,13.68,39.67,13.68z"/>
								<g>
									<path class="st8" d="M36.3,12.04l-5.98,3.9c-0.5-0.04-0.94-0.09-1.33-0.14l6.33-4.25C35.63,11.7,35.96,11.87,36.3,12.04z"
										/>
									<path class="st8" d="M39.4,13.55l-4.62,2.54c-1.09,0.03-2.16,0.01-3.12-0.05l5.61-3.52C38.17,12.95,38.99,13.35,39.4,13.55
										z"/>
								</g>
							</g>
						</g>
						<g>
							<polygon class="st2" points="21.62,36.44 21.42,37.86 22.12,36.61 							"/>
							<polygon class="st2" points="24.42,36.44 24.22,37.86 24.92,36.61 							"/>
							<polygon class="st2" points="27.22,36.44 27.02,37.86 27.72,36.61 							"/>
							<polygon class="st2" points="18.12,41.02 17.92,42.44 18.62,41.19 							"/>
							<polygon class="st2" points="20.92,41.02 20.72,42.44 21.42,41.19 							"/>
							<polygon class="st2" points="23.72,41.02 23.52,42.44 24.22,41.19 							"/>
							<polygon class="st2" points="18.98,45.64 18.78,47.06 19.48,45.81 							"/>
							<polygon class="st2" points="21.78,45.64 21.58,47.06 22.28,45.81 							"/>
							<path class="st2" d="M24.77,45.53c-0.13,0.32-0.26,0.62-0.38,0.91l-0.04,0.01l0.14-1.02L24.77,45.53z"/>
							<polygon class="st2" points="26.52,28.45 26.32,29.87 27.02,28.62 							"/>
							<polygon class="st2" points="23.72,27.88 23.52,29.3 24.22,28.05 							"/>
							<path class="st2" d="M21.11,28.4l-0.39,0.7l0.07-0.52C20.9,28.51,21,28.45,21.11,28.4z"/>
							<polygon class="st2" points="18.77,48.52 18.41,48.62 18.44,48.4 							"/>
							<polygon class="st2" points="18.19,31.82 17.99,33.24 18.69,31.99 							"/>
							<polygon class="st2" points="21.31,31.82 21.11,33.24 21.81,31.99 							"/>
							<polygon class="st2" points="24.1,31.82 23.9,33.24 24.6,31.99 							"/>
							<polygon class="st2" points="26.9,31.82 26.7,33.24 27.4,31.99 							"/>
							<polygon class="st2" points="29.77,29.19 29.57,30.61 30.27,29.36 							"/>
							<polygon class="st2" points="18.51,36.44 18.31,37.86 19.01,36.61 							"/>
						</g>
						<g>
							<polygon class="st2" points="46.21,36.44 46.41,37.86 45.71,36.61 							"/>
							<polygon class="st2" points="43.41,36.44 43.61,37.86 42.91,36.61 							"/>
							<polygon class="st2" points="40.61,36.44 40.81,37.86 40.11,36.61 							"/>
							<polygon class="st2" points="41.31,28.45 41.52,29.87 40.81,28.62 							"/>
							<polygon class="st2" points="44.11,27.88 44.31,29.3 43.61,28.05 							"/>
							<path class="st2" d="M46.72,28.4l0.39,0.7l-0.07-0.52C46.93,28.51,46.83,28.45,46.72,28.4z"/>
							<polygon class="st2" points="49.64,31.82 49.84,33.24 49.14,31.99 							"/>
							<polygon class="st2" points="46.52,31.82 46.72,33.24 46.02,31.99 							"/>
							<polygon class="st2" points="43.73,31.82 43.93,33.24 43.23,31.99 							"/>
							<polygon class="st2" points="40.93,31.82 41.13,33.24 40.43,31.99 							"/>
							<polygon class="st2" points="38.06,29.19 38.26,30.61 37.56,29.36 							"/>
							<polygon class="st2" points="49.32,36.44 49.52,37.86 48.82,36.61 							"/>
						</g>
					</g>
				</g>
				<g>
					<g id="XMLID_1_">
						<g>
							<path class="st7" d="M29.18,27.38c0-0.78,0.38-1.53,1.04-2.06c0.2-0.16,0.42-0.28,0.65-0.39l-1.49-2.48h8.46l-1.48,2.49
								c0.23,0.1,0.45,0.23,0.64,0.39c0.66,0.52,1.04,1.28,1.04,2.07c0,0.51,0,1.09-3.59,4.02l-0.78,0.64l-0.8-0.61
								C29.17,28.58,29.17,27.89,29.18,27.38"/>
						</g>
					</g>
					<polygon class="st6" points="31.15,23.2 36.08,23.2 35.38,24.96 32.05,24.95 					"/>
					<rect x="32.4" y="23.86" class="st3" width="2.64" height="0.52"/>
					<path class="st2" d="M34.62,12.37c0-0.23-0.98-1.19-0.98-1.19s-0.96,1-0.96,1.19c0,0.33,0.26,0.59,0.59,0.59
						c0.11,0,0.22-0.03,0.3-0.08L33.2,13.5l0.9,0l-0.37-0.63c0.09,0.05,0.19,0.08,0.3,0.09C34.36,12.96,34.62,12.7,34.62,12.37z"/>
					<path class="st3" d="M37.07,37.23c-0.07-0.76-3.4-3.66-3.4-3.66s-3.26,3-3.32,3.65c-0.11,1.15,0.76,2.15,1.96,2.14
						c0.41,0,0.79-0.12,1.12-0.32l-1.46,2.56l3.49,0L34,39.04c0.32,0.2,0.71,0.32,1.12,0.33C36.31,39.37,37.18,38.38,37.07,37.23z"
						/>
					<path class="st4" d="M36.71,37.25c0-0.7-3.03-3.67-3.03-3.67s-2.95,3.07-2.95,3.66c0,1,0.81,1.81,1.81,1.81
						c0.34,0,0.66-0.09,0.93-0.26l-1.13,1.93l2.75,0.01l-1.13-1.94c0.27,0.16,0.59,0.26,0.93,0.26
						C35.9,39.05,36.71,38.24,36.71,37.25z"/>
					<path class="st3" d="M33.44,40.09l0.28-0.47l0.28,0.47L33.44,40.09z M33.14,38.25c-0.18,0.11-0.38,0.17-0.6,0.17
						c-0.63,0-1.15-0.5-1.18-1.12c0.18-0.4,1.26-1.67,2.33-2.82c1.12,1.14,2.23,2.41,2.38,2.81c-0.01,0.3-0.13,0.58-0.34,0.79
						c-0.22,0.22-0.52,0.34-0.83,0.34l0,0c-0.21,0-0.42-0.06-0.61-0.17L33.14,38.25z"/>
				</g>
			</g>
			<path class="st3" d="M50.25,30.55c0,0-1.39-0.79-3.19-1.82l-0.02-0.16c-0.1-0.06-0.21-0.12-0.32-0.18l0.12,0.21
				c-2.44-1.39-5.52-3.15-6.93-3.94c-0.05-0.03-0.09-0.05-0.14-0.08l0.24-3.08L39.9,20l0-0.06l-0.33-4.48
				c0.03-0.01,0.07-0.01,0.1-0.02v-1.76c0,0-0.1-0.05-0.27-0.13c-0.41-0.2-1.23-0.6-2.13-1.04c-0.32-0.16-0.65-0.32-0.97-0.48
				c-0.34-0.17-0.67-0.33-0.98-0.49c-0.98-0.48-1.74-0.86-1.74-0.87c0,0-0.03,0.01-0.08,0.04v33.43l6.35-1.91l0.06,0.2l3.57-1.29
				l6.89-2.07v-8.1L50.25,30.55z"/>
		</g>
		<g>
			<g>
				<g>
					<g>
						<g>
							<path class="st2" d="M16.92,60.41l0.12,0.42c0,0,7.83,4.47,10.33,5.89c0.47,0.27,0.75,0.42,0.76,0.42h11.15
								c0,0,0.02-0.01,0.05-0.03c0.02-0.01,0.05-0.03,0.08-0.05c0.03-0.02,0.06-0.04,0.1-0.05c0.03-0.02,0.07-0.04,0.11-0.06
								c0.04-0.02,0.08-0.05,0.13-0.07c0.07-0.04,0.14-0.08,0.22-0.12c0.15-0.09,0.32-0.19,0.51-0.29c0,0,0.01,0,0.01,0
								c0.14-0.08,0.29-0.17,0.45-0.26c0.05-0.03,0.11-0.06,0.17-0.09c0.37-0.21,0.79-0.45,1.23-0.7c0.16-0.09,0.32-0.18,0.48-0.28
								c0.16-0.09,0.32-0.19,0.49-0.28c0.16-0.1,0.33-0.19,0.5-0.29c2.21-1.26,4.65-2.65,5.83-3.33c0.07-0.04,0.13-0.08,0.19-0.11
								c0.28-0.16,0.47-0.27,0.52-0.29V42.26l-7.3,2.19l-1.66,0.5l-24.5,7.36V60.41z"/>
							<g>
								<g>
									<g>
										<g>
											<path class="st4" d="M33.63,57.52l3.05,5.29h-6.11L33.63,57.52z M36.1,62.47l-2.47-4.28l-2.47,4.28H36.1z"/>
										</g>
									</g>
									<path class="st3" d="M37.73,67.14c0.06-0.01,11.09-6.31,11.09-6.31l1.55-4.77v-13.8l-7.3,2.19l-1.66,0.5l-4.36,14.31
										l-0.58,1.92L35.62,63l-1.9,4.07v0.08H37.73z"/>
									<path class="st5" d="M39.29,67.14c0,0,0.02-0.01,0.05-0.03c0.02-0.01,0.05-0.03,0.08-0.05c0.03-0.02,0.06-0.04,0.1-0.05
										c0.03-0.02,0.07-0.04,0.11-0.06c0.04-0.02,0.08-0.05,0.13-0.07c0.07-0.04,0.14-0.08,0.22-0.12
										c0.15-0.08,0.32-0.18,0.51-0.29c0,0,0.01,0,0.01,0c0.14-0.08,0.29-0.17,0.45-0.26c0.05-0.03,0.11-0.06,0.17-0.09
										c0.37-0.21,0.79-0.45,1.23-0.7c0.16-0.09,0.32-0.18,0.48-0.28c0.16-0.09,0.32-0.18,0.49-0.28c0.16-0.09,0.33-0.19,0.5-0.29
										c0.71-0.41,1.45-0.83,2.16-1.23c0.21-0.12,0.43-0.24,0.63-0.36c1.24-0.71,2.35-1.34,3.04-1.73
										c0.07-0.04,0.13-0.08,0.19-0.11c0.28-0.16,0.47-0.27,0.52-0.29V42.26l-1.3,0.39l-0.73,0.22l-5.19,1.56l-0.08,0.03
										c-0.24,0.57-0.5,1.18-0.76,1.82c-1.75,4.2-3.88,9.52-5.25,12.99c-0.86,2.16-1.43,3.6-1.43,3.6L35.62,63l-0.37,4.14H39.29z"
										/>
								</g>
								<g>
									<g>
										<path class="st3" d="M16.92,55.22l1.69,5.61c0,0,11.04,6.3,11.09,6.31h4.01v-0.08l-2.75-5.89l-3.58-12.23l-10.46,3.79
											V55.22z"/>
										<path class="st5" d="M16.92,60.41l0.13,0.43c0,0,11.04,6.3,11.09,6.31h4.05l-0.38-4.29c0,0-4.76-9.88-6.45-13.08
											l-8.43,2.53V60.41z"/>
									</g>
								</g>
							</g>
							<g>
								<polygon class="st6" points="27.28,69.87 27.39,71.38 27.4,71.44 27.74,76.05 29.45,76.92 32.77,78.6 33.68,78.1 34.6,78.6 
									37.91,76.92 39.63,76.05 39.97,71.44 39.97,71.38 40.09,69.87 39.74,65.48 33.69,61.16 33.69,61.15 33.69,61.15 
									33.68,61.15 33.67,61.15 33.67,61.15 33.67,61.16 27.63,65.48 								"/>
								<path class="st6" d="M33.67,67.14l-2.03,0.07l1.52,0.95c0,0,0.24,0.01,0.51,0.01l0,0c0,0,0.01,0,0.01,0c0,0,0,0,0.01,0l0,0
									c0.27,0,0.51-0.01,0.51-0.01l1.52-0.95l-2.03-0.07v0L33.67,67.14L33.67,67.14L33.67,67.14z"/>
								<polygon class="st3" points="32.45,70.05 33.28,72.94 33.67,72.94 33.69,72.94 34.09,72.94 34.92,70.05 34.09,69.15 
									33.69,69.14 33.69,69.14 33.68,69.14 33.67,69.14 33.67,69.14 33.28,69.15 								"/>
								<g>
									<polygon class="st7" points="32.81,73.71 30.2,74.04 30.14,74.04 30.11,74.03 28.87,73.37 30.22,73.75 30.14,73.74 
										32.67,73.03 									"/>
									<path class="st2" d="M31.89,72.62c0.04-0.09,0.07-0.2,0.07-0.3c0-0.41-0.33-0.74-0.74-0.74c-0.41,0-0.74,0.33-0.74,0.74
										c0,0.11,0.02,0.21,0.07,0.3H31.89z"/>
									<polygon class="st7" points="34.56,73.71 37.17,74.04 37.23,74.04 37.25,74.03 38.5,73.37 37.14,73.75 37.23,73.74 
										34.7,73.03 									"/>
									<path class="st2" d="M35.47,72.62c-0.04-0.09-0.07-0.2-0.07-0.3c0-0.41,0.33-0.74,0.74-0.74c0.41,0,0.74,0.33,0.74,0.74
										c0,0.11-0.02,0.21-0.07,0.3H35.47z"/>
									<path class="st7" d="M27.39,71.38c0.04-0.03,0.06-0.05,0.06-0.05l1.21,4.26l0.79,1.33l-1.71-0.87l-0.34-4.62L27.39,71.38z"
										/>
									<path class="st7" d="M39.97,71.38c-0.04-0.03-0.07-0.05-0.07-0.05l-1.21,4.26l-0.79,1.33l1.71-0.87l0.34-4.62L39.97,71.38z
										"/>
								</g>
								<path class="st4" d="M27.63,77.7v-1.76c1.53-0.42,3.24-0.6,4.89-0.64c1.09-0.03,2.16,0,3.12,0.05
									c0.48,0.03,0.93,0.06,1.34,0.1c0.5,0.04,0.94,0.09,1.33,0.14c0.93,0.11,1.49,0.21,1.49,0.21v1.68c0,0-6.06,3.24-6.09,3.24
									c0-0.01-0.76-0.39-1.74-0.87c-0.31-0.15-0.65-0.32-0.98-0.49c-0.32-0.16-0.65-0.32-0.97-0.48c-0.9-0.44-1.72-0.84-2.13-1.04
									C27.73,77.75,27.63,77.7,27.63,77.7z"/>
								<g>
									<path class="st8" d="M30.99,79.35l5.98-3.9c0.5,0.04,0.94,0.09,1.33,0.14l-6.33,4.25C31.67,79.68,31.33,79.51,30.99,79.35z
										"/>
									<path class="st8" d="M27.9,77.83l4.62-2.54c1.09-0.03,2.16,0,3.12,0.05l-5.61,3.52C29.13,78.43,28.3,78.03,27.9,77.83z"/>
								</g>
							</g>
						</g>
						<g>
							<polygon class="st2" points="45.67,54.94 45.88,53.52 45.17,54.78 							"/>
							<polygon class="st2" points="42.88,54.94 43.08,53.52 42.38,54.78 							"/>
							<polygon class="st2" points="40.08,54.94 40.28,53.52 39.58,54.78 							"/>
							<polygon class="st2" points="49.17,50.36 49.37,48.94 48.67,50.19 							"/>
							<polygon class="st2" points="46.38,50.36 46.58,48.94 45.88,50.19 							"/>
							<polygon class="st2" points="43.58,50.36 43.78,48.94 43.08,50.19 							"/>
							<polygon class="st2" points="48.32,45.75 48.52,44.32 47.82,45.58 							"/>
							<polygon class="st2" points="45.52,45.75 45.72,44.32 45.02,45.58 							"/>
							<path class="st2" d="M42.53,45.85c0.13-0.32,0.26-0.62,0.38-0.91l0.04-0.01l-0.14,1.02L42.53,45.85z"/>
							<polygon class="st2" points="40.78,62.93 40.98,61.51 40.28,62.76 							"/>
							<polygon class="st2" points="43.58,63.5 43.78,62.09 43.08,63.34 							"/>
							<path class="st2" d="M46.19,62.99l0.39-0.7l-0.07,0.52C46.4,62.87,46.3,62.93,46.19,62.99z"/>
							<polygon class="st2" points="48.53,42.87 48.89,42.76 48.86,42.98 							"/>
							<polygon class="st2" points="49.1,59.56 49.3,58.14 48.6,59.39 							"/>
							<polygon class="st2" points="45.99,59.56 46.19,58.14 45.49,59.39 							"/>
							<polygon class="st2" points="43.19,59.56 43.39,58.14 42.69,59.39 							"/>
							<polygon class="st2" points="40.4,59.56 40.59,58.14 39.9,59.39 							"/>
							<polygon class="st2" points="37.53,62.19 37.73,60.77 37.03,62.02 							"/>
							<polygon class="st2" points="48.79,54.94 48.99,53.52 48.29,54.78 							"/>
						</g>
						<g>
							<polygon class="st2" points="21.09,54.94 20.89,53.52 21.59,54.78 							"/>
							<polygon class="st2" points="23.89,54.94 23.68,53.52 24.39,54.78 							"/>
							<polygon class="st2" points="26.68,54.94 26.48,53.52 27.18,54.78 							"/>
							<polygon class="st2" points="25.98,62.93 25.78,61.51 26.48,62.76 							"/>
							<polygon class="st2" points="23.19,63.5 22.98,62.09 23.68,63.34 							"/>
							<path class="st2" d="M20.58,62.99l-0.39-0.7l0.07,0.52C20.36,62.87,20.47,62.93,20.58,62.99z"/>
							<polygon class="st2" points="17.66,59.56 17.46,58.14 18.16,59.39 							"/>
							<polygon class="st2" points="20.77,59.56 20.57,58.14 21.27,59.39 							"/>
							<polygon class="st2" points="23.57,59.56 23.37,58.14 24.07,59.39 							"/>
							<polygon class="st2" points="26.37,59.56 26.17,58.14 26.87,59.39 							"/>
							<polygon class="st2" points="29.24,62.19 29.03,60.77 29.74,62.02 							"/>
							<polygon class="st2" points="17.98,54.94 17.77,53.52 18.48,54.78 							"/>
						</g>
					</g>
				</g>
				<g>
					<g id="XMLID_4_">
						<g>
							<path class="st7" d="M33.62,59.32l0.8,0.61c3.71,2.87,3.7,3.56,3.69,4.07c0,0.78-0.38,1.53-1.04,2.06
								c-0.2,0.16-0.42,0.28-0.65,0.39l1.49,2.48h-8.46l1.48-2.49c-0.23-0.1-0.45-0.23-0.64-0.39c-0.66-0.52-1.04-1.28-1.04-2.07
								c0-0.51,0-1.09,3.59-4.02L33.62,59.32z"/>
						</g>
					</g>
					<polygon class="st6" points="36.14,68.18 31.22,68.18 31.91,66.42 35.25,66.43 					"/>
					<rect x="32.25" y="67" class="st3" width="2.64" height="0.52"/>
					<path class="st2" d="M32.68,79.01c0,0.23,0.98,1.19,0.98,1.19s0.96-1,0.96-1.19c0-0.33-0.26-0.59-0.59-0.59
						c-0.11,0-0.22,0.03-0.3,0.08l0.37-0.63l-0.9,0l0.37,0.63c-0.09-0.05-0.19-0.08-0.3-0.09C32.94,78.42,32.68,78.69,32.68,79.01z"
						/>
					<path class="st3" d="M30.23,54.15c0.07,0.76,3.4,3.66,3.4,3.66s3.26-3,3.32-3.65c0.11-1.15-0.76-2.15-1.96-2.14
						c-0.41,0-0.79,0.12-1.12,0.32l1.46-2.56l-3.49,0l1.45,2.56c-0.32-0.2-0.71-0.32-1.12-0.33C30.99,52.02,30.11,53,30.23,54.15z"
						/>
					<path class="st4" d="M30.59,54.14c0,0.7,3.03,3.67,3.03,3.67s2.95-3.07,2.95-3.66c0-1-0.81-1.81-1.81-1.81
						c-0.34,0-0.66,0.09-0.93,0.26l1.13-1.93l-2.75-0.01l1.13,1.94c-0.27-0.16-0.59-0.26-0.93-0.26
						C31.4,52.33,30.59,53.14,30.59,54.14z"/>
					<path class="st3" d="M33.86,51.29l-0.28,0.47l-0.28-0.47L33.86,51.29z M34.15,53.14c0.18-0.11,0.38-0.17,0.6-0.17
						c0.63,0,1.15,0.5,1.18,1.12c-0.18,0.4-1.26,1.67-2.33,2.82c-1.12-1.14-2.23-2.41-2.38-2.81c0.01-0.3,0.13-0.58,0.34-0.79
						c0.22-0.22,0.52-0.34,0.83-0.34l0,0c0.21,0,0.42,0.06,0.61,0.17L34.15,53.14z"/>
				</g>
			</g>
			<path class="st3" d="M17.05,60.83c0,0,1.39,0.79,3.19,1.82l0.02,0.16c0.1,0.06,0.21,0.12,0.32,0.18l-0.12-0.21
				c2.44,1.39,5.52,3.15,6.93,3.94c0.05,0.03,0.09,0.05,0.14,0.08l-0.24,3.08l0.11,1.51l0,0.06l0.33,4.48
				c-0.03,0.01-0.07,0.01-0.1,0.02v1.76c0,0,0.1,0.05,0.27,0.13c0.41,0.2,1.23,0.6,2.13,1.04c0.32,0.16,0.65,0.32,0.97,0.48
				c0.34,0.17,0.67,0.33,0.98,0.49c0.98,0.48,1.74,0.86,1.74,0.87c0,0,0.03-0.01,0.08-0.04V47.24l-6.35,1.91l-0.06-0.2l-3.57,1.29
				l-6.89,2.07v8.1L17.05,60.83z"/>
		</g>
	</g>
</g>
</svg>
