<?xml version="1.0" encoding="utf-8"?>
<!-- Generator: Adobe Illustrator 26.0.3, SVG Export Plug-In . SVG Version: 6.00 Build 0)  -->
<svg version="1.1" id="Layer_1" xmlns="http://www.w3.org/2000/svg" xmlns:xlink="http://www.w3.org/1999/xlink" x="0px" y="0px"
	 viewBox="0 0 66 92" style="enable-background:new 0 0 66 92;" xml:space="preserve">
<style type="text/css">
	.st0{fill:#C9C9C9;}
	.st1{fill:#FFFFFF;}
	.st2{fill:#333333;}
	.st3{opacity:0.2;fill:#616161;}
</style>
<g>
	<g>
		<g>
			<path class="st0" d="M10,87.32c-3.49,0-6.34-2.78-6.35-6.21L3.47,10.93C3.46,7.48,6.3,4.67,9.81,4.68l46.38,0.09
				c3.49,0.01,6.33,2.82,6.33,6.26v70.03c0,3.42-2.83,6.21-6.31,6.22L10,87.32z"/>
		</g>
		<path class="st1" d="M10.58,87.15c-3.45,0-6.25-2.79-6.25-6.23V10.91c0-3.43,2.8-6.23,6.25-6.23h45.7c3.45,0,6.25,2.79,6.25,6.23
			v70.01c0,3.44-2.8,6.23-6.25,6.23H10.58z"/>
		<g>
			<path class="st2" d="M11.65,12.25c0,0.44-0.1,0.92-0.29,1.43c-0.2,0.52-0.4,0.89-0.61,1.14c-0.38,0.43-0.74,0.79-1.07,1.07
				c-0.55,0.47-0.99,0.71-1.31,0.71c-0.03,0-0.06-0.01-0.09-0.04c-0.03-0.02-0.06-0.05-0.08-0.08c0.3-0.19,0.61-0.47,0.92-0.82
				c0.31-0.35,0.62-0.83,0.92-1.43v-0.12c-0.03-0.01-0.05-0.02-0.07-0.04c-0.24,0.11-0.46,0.2-0.67,0.28
				c-0.2,0.08-0.38,0.12-0.54,0.12c-0.31,0-0.61-0.17-0.89-0.52C7.56,13.57,7.4,13.1,7.4,12.54c0-0.54,0.33-1.12,0.98-1.72
				c0.6-0.56,1.1-0.83,1.49-0.83c0.37,0,0.75,0.2,1.12,0.59C11.43,11.04,11.65,11.6,11.65,12.25z M10.28,13.04
				c0-0.53-0.16-0.98-0.49-1.34C9.5,11.38,9.2,11.22,8.9,11.22c-0.07,0-0.12,0.04-0.14,0.13c-0.03,0.09-0.04,0.19-0.04,0.29
				c0,0.46,0.12,0.84,0.34,1.14c0.28,0.37,0.54,0.55,0.8,0.55c0.13,0,0.22-0.01,0.28-0.04C10.23,13.25,10.28,13.16,10.28,13.04z"/>
		</g>
		<g>
			<path class="st2" d="M55.59,80.35c0-0.44,0.1-0.92,0.29-1.43c0.2-0.52,0.4-0.89,0.61-1.14c0.38-0.43,0.74-0.79,1.07-1.07
				c0.55-0.47,0.99-0.71,1.31-0.71c0.03,0,0.06,0.01,0.09,0.04c0.03,0.02,0.06,0.05,0.08,0.08c-0.3,0.19-0.61,0.47-0.92,0.82
				c-0.31,0.35-0.62,0.83-0.92,1.43v0.12c0.03,0.01,0.05,0.02,0.07,0.04c0.24-0.11,0.46-0.2,0.67-0.28c0.2-0.08,0.38-0.12,0.54-0.12
				c0.31,0,0.61,0.17,0.89,0.52c0.32,0.39,0.48,0.87,0.48,1.42c0,0.54-0.33,1.12-0.98,1.72c-0.6,0.56-1.1,0.83-1.49,0.83
				c-0.37,0-0.75-0.2-1.12-0.59C55.81,81.56,55.59,81,55.59,80.35z M56.97,79.56c0,0.53,0.16,0.98,0.49,1.34
				c0.29,0.32,0.59,0.48,0.89,0.48c0.07,0,0.12-0.04,0.14-0.13c0.03-0.09,0.04-0.19,0.04-0.29c0-0.46-0.12-0.84-0.34-1.14
				c-0.28-0.37-0.54-0.55-0.8-0.55c-0.13,0-0.22,0.01-0.28,0.04C57.01,79.36,56.97,79.44,56.97,79.56z"/>
		</g>
	</g>
	<g>
		<g>
			<path class="st2" d="M50.83,18.6c0.01-1.49-6.47-7.85-6.47-7.85s-6.31,6.56-6.31,7.83c0,2.14,1.73,3.88,3.86,3.88
				c0.73,0,1.41-0.2,2-0.55l-2.43,4.14l5.89,0.01l-2.41-4.14c0.58,0.35,1.26,0.56,1.99,0.56C49.09,22.47,50.83,20.74,50.83,18.6z"/>
			<path class="st3" d="M50.83,18.6c0.01-1.49-6.47-7.85-6.47-7.85s-0.01,0.01-0.01,0.01v15.28l3.02,0.01l-2.41-4.14
				c0.58,0.35,1.26,0.56,1.99,0.56C49.09,22.47,50.83,20.74,50.83,18.6z"/>
		</g>
		<g>
			<path class="st2" d="M50.83,36.94c0.01-1.49-6.47-7.85-6.47-7.85s-6.31,6.56-6.31,7.83c0,2.14,1.73,3.88,3.86,3.88
				c0.73,0,1.41-0.2,2-0.55l-2.43,4.14l5.89,0.01l-2.41-4.14c0.58,0.35,1.26,0.56,1.99,0.56C49.09,40.81,50.83,39.08,50.83,36.94z"
				/>
			<path class="st3" d="M50.83,36.94c0.01-1.49-6.47-7.85-6.47-7.85s-0.01,0.01-0.01,0.01v15.28l3.02,0.01l-2.41-4.14
				c0.58,0.35,1.26,0.56,1.99,0.56C49.09,40.81,50.83,39.08,50.83,36.94z"/>
		</g>
		<g>
			<path class="st2" d="M16.05,18.6c-0.01-1.49,6.47-7.85,6.47-7.85s6.31,6.56,6.31,7.83c0,2.14-1.73,3.88-3.86,3.88
				c-0.73,0-1.41-0.2-2-0.55l2.43,4.14l-5.89,0.01l2.41-4.14c-0.58,0.35-1.26,0.56-1.99,0.56C17.79,22.47,16.05,20.74,16.05,18.6z"
				/>
			<path class="st3" d="M16.05,18.6c-0.01-1.49,6.47-7.85,6.47-7.85s0.01,0.01,0.01,0.01v15.28l-3.02,0.01l2.41-4.14
				c-0.58,0.35-1.26,0.56-1.99,0.56C17.79,22.47,16.05,20.74,16.05,18.6z"/>
		</g>
		<g>
			<path class="st2" d="M27.04,45.98c-0.01-1.49,6.47-7.85,6.47-7.85s6.31,6.56,6.31,7.83c0,2.14-1.73,3.88-3.86,3.88
				c-0.73,0-1.41-0.2-2-0.55l2.43,4.14l-5.89,0.01l2.41-4.14c-0.58,0.35-1.26,0.56-1.99,0.56C28.78,49.86,27.04,48.12,27.04,45.98z"
				/>
			<path class="st3" d="M27.04,45.98c-0.01-1.49,6.47-7.85,6.47-7.85s0.01,0.01,0.01,0.01v15.28l-3.02,0.01l2.41-4.14
				c-0.58,0.35-1.26,0.56-1.99,0.56C28.78,49.86,27.04,48.12,27.04,45.98z"/>
		</g>
		<g>
			<path class="st2" d="M16.05,36.94c-0.01-1.49,6.47-7.85,6.47-7.85s6.31,6.56,6.31,7.83c0,2.14-1.73,3.88-3.86,3.88
				c-0.73,0-1.41-0.2-2-0.55l2.43,4.14l-5.89,0.01l2.41-4.14c-0.58,0.35-1.26,0.56-1.99,0.56C17.79,40.81,16.05,39.08,16.05,36.94z"
				/>
			<path class="st3" d="M16.05,36.94c-0.01-1.49,6.47-7.85,6.47-7.85s0.01,0.01,0.01,0.01v15.28l-3.02,0.01l2.41-4.14
				c-0.58,0.35-1.26,0.56-1.99,0.56C17.79,40.81,16.05,39.08,16.05,36.94z"/>
		</g>
		<g>
			<path class="st2" d="M50.8,73.54c0.01,1.49-6.47,7.85-6.47,7.85s-6.31-6.56-6.31-7.83c0-2.14,1.73-3.88,3.86-3.88
				c0.73,0,1.41,0.2,2,0.55l-2.43-4.14l5.89-0.01l-2.41,4.14c0.58-0.35,1.26-0.56,1.99-0.56C49.06,69.67,50.8,71.4,50.8,73.54z"/>
			<path class="st3" d="M50.8,73.54c0.01,1.49-6.47,7.85-6.47,7.85s-0.01-0.01-0.01-0.01V66.1l3.02-0.01l-2.41,4.14
				c0.58-0.35,1.26-0.56,1.99-0.56C49.06,69.67,50.8,71.4,50.8,73.54z"/>
		</g>
		<g>
			<path class="st2" d="M50.8,55.2c0.01,1.49-6.47,7.85-6.47,7.85s-6.31-6.56-6.31-7.83c0-2.14,1.73-3.88,3.86-3.88
				c0.73,0,1.41,0.2,2,0.55l-2.43-4.14l5.89-0.01l-2.41,4.14c0.58-0.35,1.26-0.56,1.99-0.56C49.06,51.33,50.8,53.06,50.8,55.2z"/>
			<path class="st3" d="M50.8,55.2c0.01,1.49-6.47,7.85-6.47,7.85s-0.01-0.01-0.01-0.01V47.75l3.02-0.01l-2.41,4.14
				c0.58-0.35,1.26-0.56,1.99-0.56C49.06,51.33,50.8,53.06,50.8,55.2z"/>
		</g>
		<g>
			<path class="st2" d="M16.02,73.54c-0.01,1.49,6.47,7.85,6.47,7.85s6.31-6.56,6.31-7.83c0-2.14-1.73-3.88-3.86-3.88
				c-0.73,0-1.41,0.2-2,0.55l2.43-4.14l-5.89-0.01l2.41,4.14c-0.58-0.35-1.26-0.56-1.99-0.56C17.76,69.67,16.02,71.4,16.02,73.54z"
				/>
			<path class="st3" d="M16.02,73.54c-0.01,1.49,6.47,7.85,6.47,7.85s0.01-0.01,0.01-0.01V66.1l-3.02-0.01l2.41,4.14
				c-0.58-0.35-1.26-0.56-1.99-0.56C17.76,69.67,16.02,71.4,16.02,73.54z"/>
		</g>
		<g>
			<path class="st2" d="M16.02,55.2c-0.01,1.49,6.47,7.85,6.47,7.85s6.31-6.56,6.31-7.83c0-2.14-1.73-3.88-3.86-3.88
				c-0.73,0-1.41,0.2-2,0.55l2.43-4.14l-5.89-0.01l2.41,4.14c-0.58-0.35-1.26-0.56-1.99-0.56C17.76,51.33,16.02,53.06,16.02,55.2z"
				/>
			<path class="st3" d="M16.02,55.2c-0.01,1.49,6.47,7.85,6.47,7.85s0.01-0.01,0.01-0.01V47.75l-3.02-0.01l2.41,4.14
				c-0.58-0.35-1.26-0.56-1.99-0.56C17.76,51.33,16.02,53.06,16.02,55.2z"/>
		</g>
		<g>
			<path class="st2" d="M10.99,21.42c0-0.4-1.73-2.09-1.73-2.09s-1.68,1.75-1.68,2.09c0,0.57,0.46,1.03,1.03,1.03
				c0.2,0,0.38-0.05,0.53-0.15l-0.65,1.1l1.57,0L9.43,22.3c0.15,0.09,0.34,0.15,0.53,0.15C10.53,22.46,10.99,21.99,10.99,21.42z"/>
			<path class="st3" d="M10.99,21.42c0-0.4-1.73-2.09-1.73-2.09s0,0,0,0v4.08l0.81,0L9.43,22.3c0.15,0.09,0.34,0.15,0.53,0.15
				C10.53,22.46,10.99,21.99,10.99,21.42z"/>
		</g>
		<g>
			<path class="st2" d="M56.04,71.38c0,0.4,1.73,2.09,1.73,2.09s1.68-1.75,1.68-2.09c0-0.57-0.46-1.03-1.03-1.03
				c-0.2,0-0.38,0.05-0.53,0.15l0.65-1.1l-1.57,0l0.64,1.1c-0.15-0.09-0.34-0.15-0.53-0.15C56.51,70.34,56.04,70.8,56.04,71.38z"/>
			<path class="st3" d="M56.04,71.38c0,0.4,1.73,2.09,1.73,2.09s0,0,0,0v-4.08l-0.8,0l0.64,1.1c-0.15-0.09-0.34-0.15-0.53-0.15
				C56.51,70.34,56.04,70.8,56.04,71.38z"/>
		</g>
	</g>
</g>
</svg>
