<?xml version="1.0" encoding="utf-8"?>
<!-- Generator: Adobe Illustrator 26.0.3, SVG Export Plug-In . SVG Version: 6.00 Build 0)  -->
<svg version="1.1" id="Layer_1" xmlns="http://www.w3.org/2000/svg" xmlns:xlink="http://www.w3.org/1999/xlink" x="0px" y="0px"
	 viewBox="0 0 66 92" style="enable-background:new 0 0 66 92;" xml:space="preserve">
<style type="text/css">
	.st0{fill:#C9C9C9;}
	.st1{fill:#FFFFFF;}
	.st2{fill:#333333;}
	.st3{opacity:0.2;fill:#616161;}
</style>
<g>
	<g>
		<g>
			<path class="st0" d="M10,87.32c-3.49,0.01-6.34-2.78-6.35-6.21L3.47,10.93C3.46,7.48,6.31,4.67,9.81,4.68l46.38,0.09
				c3.49,0.01,6.33,2.82,6.33,6.26v70.03c0,3.42-2.83,6.21-6.31,6.21L10,87.32z"/>
		</g>
		<path class="st1" d="M10.58,87.15c-3.45,0-6.25-2.79-6.25-6.23V10.91c0-3.43,2.8-6.23,6.25-6.23h45.7c3.45,0,6.25,2.79,6.25,6.23
			v70.01c0,3.44-2.8,6.23-6.25,6.23H10.58z"/>
		<g>
			<path class="st2" d="M11.62,14.21c0,0.3-0.15,0.69-0.46,1.18c-0.3,0.48-0.61,0.79-0.9,0.93c-0.24,0.11-0.41,0.18-0.53,0.22
				c-0.12,0.04-0.21,0.06-0.29,0.06c-0.1,0-0.18,0-0.26,0c-0.63,0-1.11-0.22-1.46-0.66c-0.3-0.39-0.45-0.86-0.45-1.42
				c0-0.38,0.07-0.81,0.22-1.29c0.15-0.49,0.33-0.9,0.56-1.24c0.32-0.48,0.53-0.78,0.62-0.89c0.05-0.06,0.29-0.27,0.72-0.63
				c0.31-0.27,0.54-0.44,0.68-0.52c0.1-0.05,0.18-0.08,0.26-0.08c0.11,0,0.16,0.06,0.16,0.17c0,0.03-0.15,0.19-0.46,0.48
				c-0.23,0.22-0.46,0.48-0.68,0.78c-0.09,0.11-0.2,0.31-0.34,0.62c-0.17,0.35-0.25,0.58-0.25,0.69c0,0.02,0.01,0.04,0.03,0.06
				c0.02,0.02,0.04,0.03,0.07,0.03c0.16-0.08,0.32-0.17,0.5-0.25c0.35-0.17,0.6-0.25,0.76-0.25c0.3,0,0.62,0.19,0.94,0.56
				C11.43,13.17,11.62,13.66,11.62,14.21z M10.31,15.19c0-0.39-0.14-0.78-0.41-1.15c-0.27-0.38-0.55-0.57-0.84-0.57
				c-0.11,0-0.21,0.02-0.3,0.07c-0.09,0.05-0.14,0.12-0.14,0.22c0,0.37,0.15,0.75,0.46,1.13c0.33,0.42,0.68,0.62,1.06,0.62
				c0.05,0,0.1-0.02,0.12-0.06C10.3,15.41,10.31,15.32,10.31,15.19z"/>
		</g>
		<g>
			<path class="st2" d="M55.63,78.39c0-0.3,0.15-0.69,0.46-1.18c0.3-0.48,0.6-0.79,0.9-0.93c0.24-0.11,0.41-0.18,0.53-0.22
				C57.63,76.02,57.73,76,57.8,76c0.1,0,0.18,0,0.26,0c0.63,0,1.11,0.22,1.46,0.66c0.3,0.39,0.45,0.86,0.45,1.42
				c0,0.38-0.07,0.81-0.22,1.29c-0.15,0.49-0.33,0.9-0.56,1.24c-0.32,0.48-0.53,0.78-0.62,0.89c-0.05,0.06-0.29,0.27-0.72,0.63
				c-0.31,0.27-0.54,0.44-0.68,0.52c-0.1,0.05-0.18,0.08-0.26,0.08c-0.11,0-0.16-0.06-0.16-0.17c0-0.03,0.15-0.19,0.46-0.48
				c0.23-0.22,0.46-0.48,0.68-0.78c0.09-0.11,0.2-0.31,0.34-0.62c0.17-0.35,0.25-0.58,0.25-0.69c0-0.02-0.01-0.04-0.03-0.06
				c-0.02-0.02-0.04-0.03-0.07-0.03c-0.16,0.08-0.32,0.17-0.5,0.25c-0.35,0.17-0.6,0.25-0.76,0.25c-0.3,0-0.62-0.19-0.94-0.56
				C55.81,79.43,55.63,78.94,55.63,78.39z M56.93,77.42c0,0.39,0.14,0.78,0.41,1.15c0.27,0.38,0.55,0.57,0.84,0.57
				c0.11,0,0.21-0.02,0.3-0.07c0.09-0.05,0.14-0.12,0.14-0.22c0-0.37-0.15-0.75-0.46-1.13c-0.33-0.42-0.69-0.62-1.06-0.62
				c-0.05,0-0.1,0.02-0.12,0.06C56.94,77.2,56.93,77.28,56.93,77.42z"/>
		</g>
	</g>
	<g>
		<g>
			<path class="st2" d="M50.83,18.6c0.01-1.49-6.47-7.85-6.47-7.85s-6.31,6.56-6.31,7.83c0,2.14,1.73,3.88,3.86,3.88
				c0.73,0,1.41-0.2,2-0.55l-2.43,4.14l5.89,0.01l-2.41-4.14c0.58,0.35,1.26,0.56,1.99,0.56C49.09,22.47,50.83,20.74,50.83,18.6z"/>
			<path class="st3" d="M50.83,18.6c0.01-1.49-6.47-7.85-6.47-7.85s-0.01,0.01-0.01,0.01v15.28l3.02,0.01l-2.41-4.14
				c0.58,0.35,1.26,0.56,1.99,0.56C49.09,22.47,50.83,20.74,50.83,18.6z"/>
		</g>
		<g>
			<path class="st2" d="M50.83,46.82c0.01-1.49-6.47-7.85-6.47-7.85s-6.31,6.56-6.31,7.83c0,2.14,1.73,3.88,3.86,3.88
				c0.73,0,1.41-0.2,2-0.55l-2.43,4.14l5.89,0.01l-2.41-4.14c0.58,0.35,1.26,0.56,1.99,0.56C49.09,50.69,50.83,48.96,50.83,46.82z"
				/>
			<path class="st3" d="M50.83,46.82c0.01-1.49-6.47-7.85-6.47-7.85s-0.01,0.01-0.01,0.01v15.28l3.02,0.01l-2.41-4.14
				c0.58,0.35,1.26,0.56,1.99,0.56C49.09,50.69,50.83,48.96,50.83,46.82z"/>
		</g>
		<g>
			<path class="st2" d="M16.05,18.6c-0.01-1.49,6.47-7.85,6.47-7.85s6.31,6.56,6.31,7.83c0,2.14-1.73,3.88-3.86,3.88
				c-0.73,0-1.41-0.2-2-0.55l2.43,4.14l-5.89,0.01l2.41-4.14c-0.58,0.35-1.26,0.56-1.99,0.56C17.79,22.47,16.05,20.74,16.05,18.6z"
				/>
			<path class="st3" d="M16.05,18.6c-0.01-1.49,6.47-7.85,6.47-7.85s0.01,0.01,0.01,0.01v15.28l-3.02,0.01l2.41-4.14
				c-0.58,0.35-1.26,0.56-1.99,0.56C17.79,22.47,16.05,20.74,16.05,18.6z"/>
		</g>
		<g>
			<path class="st2" d="M16.05,45.44c-0.01-1.49,6.47-7.85,6.47-7.85s6.31,6.56,6.31,7.83c0,2.14-1.73,3.88-3.86,3.88
				c-0.73,0-1.41-0.2-2-0.55l2.43,4.14l-5.89,0.01l2.41-4.14c-0.58,0.35-1.26,0.56-1.99,0.56C17.79,49.31,16.05,47.58,16.05,45.44z"
				/>
			<path class="st3" d="M16.05,45.44c-0.01-1.49,6.47-7.85,6.47-7.85s0.01,0.01,0.01,0.01v15.28l-3.02,0.01l2.41-4.14
				c-0.58,0.35-1.26,0.56-1.99,0.56C17.79,49.31,16.05,47.58,16.05,45.44z"/>
		</g>
		<g>
			<path class="st2" d="M50.81,73.54c0.01,1.49-6.47,7.85-6.47,7.85s-6.31-6.56-6.31-7.83c0-2.14,1.73-3.88,3.86-3.88
				c0.73,0,1.41,0.2,2,0.55l-2.43-4.14l5.89-0.01l-2.41,4.14c0.58-0.35,1.26-0.56,1.99-0.56C49.06,69.67,50.81,71.4,50.81,73.54z"/>
			<path class="st3" d="M50.81,73.54c0.01,1.49-6.47,7.85-6.47,7.85s-0.01-0.01-0.01-0.01V66.1l3.02-0.01l-2.41,4.14
				c0.58-0.35,1.26-0.56,1.99-0.56C49.06,69.67,50.81,71.4,50.81,73.54z"/>
		</g>
		<g>
			<path class="st2" d="M16.02,73.54c-0.01,1.49,6.47,7.85,6.47,7.85s6.31-6.56,6.31-7.83c0-2.14-1.73-3.88-3.86-3.88
				c-0.73,0-1.41,0.2-2,0.55l2.43-4.14l-5.89-0.01l2.41,4.14c-0.58-0.35-1.26-0.56-1.99-0.56C17.76,69.67,16.02,71.4,16.02,73.54z"
				/>
			<path class="st3" d="M16.02,73.54c-0.01,1.49,6.47,7.85,6.47,7.85s0.01-0.01,0.01-0.01V66.1l-3.02-0.01l2.41,4.14
				c-0.58-0.35-1.26-0.56-1.99-0.56C17.76,69.67,16.02,71.4,16.02,73.54z"/>
		</g>
		<g>
			<path class="st2" d="M10.92,21.42c0-0.4-1.73-2.09-1.73-2.09s-1.68,1.75-1.68,2.09c0,0.57,0.46,1.03,1.03,1.03
				c0.2,0,0.38-0.05,0.53-0.15l-0.65,1.1l1.57,0L9.36,22.3c0.15,0.09,0.34,0.15,0.53,0.15C10.46,22.46,10.92,21.99,10.92,21.42z"/>
			<path class="st3" d="M10.92,21.42c0-0.4-1.73-2.09-1.73-2.09s0,0,0,0v4.08l0.81,0L9.36,22.3c0.15,0.09,0.34,0.15,0.53,0.15
				C10.46,22.46,10.92,21.99,10.92,21.42z"/>
		</g>
		<g>
			<path class="st2" d="M56.32,72.03c0,0.4,1.73,2.09,1.73,2.09s1.68-1.75,1.68-2.09c0-0.57-0.46-1.03-1.03-1.03
				c-0.2,0-0.38,0.05-0.53,0.15l0.65-1.1l-1.57,0l0.64,1.1C57.73,71.06,57.55,71,57.35,71C56.78,71,56.32,71.46,56.32,72.03z"/>
			<path class="st3" d="M56.32,72.03c0,0.4,1.73,2.09,1.73,2.09s0,0,0,0v-4.08l-0.8,0l0.64,1.1C57.73,71.06,57.55,71,57.35,71
				C56.78,71,56.32,71.46,56.32,72.03z"/>
		</g>
	</g>
</g>
</svg>
