<?xml version="1.0" encoding="utf-8"?>
<!-- Generator: Adobe Illustrator 26.0.3, SVG Export Plug-In . SVG Version: 6.00 Build 0)  -->
<svg version="1.1" id="Layer_1" xmlns="http://www.w3.org/2000/svg" xmlns:xlink="http://www.w3.org/1999/xlink" x="0px" y="0px"
	 viewBox="0 0 66 92" style="enable-background:new 0 0 66 92;" xml:space="preserve">
<style type="text/css">
	.st0{fill:#C9C9C9;}
	.st1{fill:#FFFFFF;}
	.st2{fill:#333333;}
	.st3{opacity:0.2;fill:#616161;}
</style>
<g>
	<g>
		<g>
			<path class="st0" d="M9.09,88.96c-3.63,0.01-6.59-2.89-6.6-6.46L2.3,9.54C2.3,5.95,5.25,3.04,8.89,3.04L57.1,3.13
				c3.63,0.01,6.58,2.93,6.58,6.51v72.8c0,3.56-2.94,6.46-6.56,6.46L9.09,88.96z"/>
		</g>
		<path class="st1" d="M9.69,88.78c-3.58,0-6.5-2.91-6.5-6.48V9.52c0-3.57,2.91-6.48,6.5-6.48H57.2c3.58,0,6.5,2.9,6.5,6.48V82.3
			c0,3.57-2.91,6.48-6.5,6.48H9.69z"/>
		<g>
			<path class="st2" d="M53.67,77.2h2v3.29h1.22c0.07-0.08,0.15-0.29,0.24-0.64c0.21-0.84,0.46-1.52,0.75-2.04
				c0.12-0.22,0.26-0.4,0.42-0.53c0.2-0.16,0.41-0.24,0.63-0.24c0.15,0,0.31,0.05,0.49,0.16c0.22,0.13,0.33,0.29,0.33,0.47
				c0,0.09-0.03,0.16-0.1,0.22c-0.07,0.06-0.14,0.09-0.21,0.09c-0.18,0-0.28-0.1-0.29-0.3c-0.01-0.2-0.09-0.3-0.24-0.3
				c-0.34,0-0.57,0.17-0.7,0.52c-0.08,0.23-0.12,0.56-0.12,0.99c0,0.26,0.01,0.55,0.04,0.88c0.03,0.33,0.06,0.68,0.09,1.05
				c0,0.43-0.08,0.82-0.25,1.18c-0.14,0.29-0.35,0.6-0.65,0.91c-0.18,0.19-0.46,0.45-0.84,0.78l0.07,0.1h1.77
				c0.11,0,0.22-0.01,0.31-0.04c0.18-0.06,0.36-0.11,0.54-0.17v0.1c-0.08,0.12-0.13,0.22-0.17,0.27c-0.12,0.19-0.19,0.28-0.22,0.28
				c-0.02,0-0.07-0.02-0.14-0.06c-0.08-0.04-0.15-0.06-0.22-0.06h-4.76V77.2z M55.74,81.01v2.65c0.18-0.05,0.36-0.24,0.55-0.57
				c0.07-0.12,0.15-0.29,0.24-0.52c0.06-0.16,0.12-0.35,0.17-0.56c0.11-0.45,0.16-0.68,0.17-0.7v-0.3H55.74z"/>
		</g>
		<g>
			<path class="st2" d="M14.34,15.42h-2v-3.29h-1.22c-0.07,0.08-0.15,0.3-0.24,0.64c-0.21,0.84-0.46,1.52-0.75,2.04
				c-0.12,0.22-0.26,0.39-0.42,0.53c-0.2,0.16-0.41,0.25-0.63,0.25c-0.15,0-0.31-0.05-0.49-0.16c-0.22-0.13-0.33-0.29-0.33-0.47
				c0-0.09,0.03-0.16,0.1-0.22c0.07-0.06,0.14-0.09,0.21-0.09c0.18,0,0.28,0.1,0.29,0.3c0.01,0.2,0.09,0.3,0.24,0.3
				c0.34,0,0.57-0.17,0.7-0.52c0.08-0.23,0.12-0.55,0.12-0.99c0-0.26-0.01-0.55-0.04-0.88c-0.03-0.33-0.06-0.68-0.09-1.05
				c0-0.43,0.08-0.82,0.25-1.18c0.14-0.29,0.35-0.6,0.65-0.91c0.18-0.19,0.46-0.45,0.84-0.78l-0.07-0.1H9.68
				c-0.11,0-0.22,0.01-0.31,0.04C9.19,8.92,9.01,8.98,8.84,9.03v-0.1c0.08-0.13,0.13-0.22,0.17-0.27C9.13,8.47,9.2,8.37,9.22,8.37
				c0.02,0,0.07,0.02,0.14,0.06c0.08,0.04,0.15,0.06,0.22,0.06h4.76V15.42z M12.27,11.61V8.96c-0.18,0.05-0.36,0.24-0.55,0.57
				c-0.07,0.12-0.15,0.29-0.24,0.52c-0.06,0.16-0.12,0.35-0.17,0.56c-0.11,0.45-0.16,0.68-0.17,0.7v0.3H12.27z"/>
		</g>
	</g>
	<g>
		<g>
			<path class="st2" d="M46.99,46.15C47,43.04,33.46,29.73,33.46,29.73s-13.2,13.72-13.2,16.37c-0.01,4.47,3.61,8.1,8.08,8.11
				c1.53,0.01,2.96-0.41,4.18-1.15l-5.08,8.65l12.31,0.02l-5.04-8.66c1.21,0.73,2.63,1.17,4.16,1.17
				C43.34,54.24,46.99,50.63,46.99,46.15z"/>
			<path class="st3" d="M46.99,46.15C47,43.04,33.46,29.73,33.46,29.73s-0.02,0.01-0.02,0.03v31.96l6.32,0.01l-5.04-8.66
				c1.21,0.73,2.63,1.17,4.16,1.17C43.34,54.24,46.99,50.63,46.99,46.15z"/>
		</g>
		<g>
			<path class="st2" d="M13.66,20.05c0-0.4-1.73-2.09-1.73-2.09s-1.68,1.75-1.68,2.09c0,0.57,0.46,1.03,1.03,1.03
				c0.2,0,0.38-0.05,0.53-0.15l-0.65,1.1l1.57,0l-0.64-1.1c0.15,0.09,0.34,0.15,0.53,0.15C13.19,21.08,13.66,20.62,13.66,20.05z"/>
			<path class="st3" d="M13.66,20.05c0-0.4-1.73-2.09-1.73-2.09s0,0,0,0v4.08l0.81,0l-0.64-1.1c0.15,0.09,0.34,0.15,0.53,0.15
				C13.19,21.08,13.66,20.62,13.66,20.05z"/>
		</g>
		<g>
			<path class="st2" d="M54.43,72.7c0,0.4,1.73,2.09,1.73,2.09s1.68-1.75,1.68-2.09c0-0.57-0.46-1.03-1.03-1.03
				c-0.2,0-0.38,0.05-0.53,0.15l0.65-1.1l-1.57,0l0.64,1.11c-0.15-0.09-0.34-0.15-0.53-0.15C54.89,71.66,54.43,72.12,54.43,72.7z"/>
			<path class="st3" d="M54.43,72.7c0,0.4,1.73,2.09,1.73,2.09s0,0,0,0v-4.08l-0.8,0l0.64,1.11c-0.15-0.09-0.34-0.15-0.53-0.15
				C54.89,71.66,54.43,72.12,54.43,72.7z"/>
		</g>
	</g>
</g>
</svg>
