<?xml version="1.0" encoding="utf-8"?>
<!-- Generator: Adobe Illustrator 26.0.3, SVG Export Plug-In . SVG Version: 6.00 Build 0)  -->
<svg version="1.1" id="Layer_1" xmlns="http://www.w3.org/2000/svg" xmlns:xlink="http://www.w3.org/1999/xlink" x="0px" y="0px"
	 viewBox="0 0 66 92" style="enable-background:new 0 0 66 92;" xml:space="preserve">
<style type="text/css">
	.st0{fill:#C9C9C9;}
	.st1{fill:#FFFFFF;}
	.st2{fill:#333333;}
	.st3{opacity:0.2;fill:#616161;}
</style>
<g>
	<g>
		<g>
			<path class="st0" d="M9.09,88.96c-3.63,0.01-6.59-2.89-6.6-6.46L2.3,9.54c-0.01-3.59,2.95-6.51,6.59-6.5L57.1,3.13
				c3.63,0.01,6.58,2.93,6.58,6.51v72.8c0,3.56-2.94,6.46-6.56,6.46L9.09,88.96z"/>
		</g>
		<path class="st1" d="M9.69,88.78c-3.58,0-6.5-2.91-6.5-6.48V9.52c0-3.57,2.91-6.48,6.5-6.48H57.2c3.58,0,6.5,2.9,6.5,6.48V82.3
			c0,3.57-2.91,6.48-6.5,6.48H9.69z"/>
		<g>
			<path class="st2" d="M53.62,79.13c0.11-0.29,0.3-0.63,0.56-1.03c0.34-0.53,0.62-0.8,0.84-0.8h2.87c0.04-0.01,0.08-0.02,0.13-0.03
				c0.05-0.01,0.11-0.04,0.18-0.08h0.17v0.24c-0.12,0.1-0.23,0.21-0.32,0.33c-0.33,0.43-0.74,0.96-1.21,1.57
				c-0.35,0.45-0.61,0.81-0.77,1.07c-0.26,0.41-0.39,0.75-0.39,1c0,0.16,0.03,0.32,0.1,0.5c0.07,0.18,0.16,0.33,0.27,0.45
				c0.06,0.06,0.18,0.14,0.36,0.24c0.22,0.13,0.39,0.19,0.5,0.19c0.18,0,0.43-0.12,0.74-0.37c0.31-0.25,0.49-0.37,0.54-0.37
				c0.13,0,0.19,0.05,0.19,0.16c0,0.11-0.14,0.31-0.4,0.6c-0.27,0.29-0.52,0.52-0.76,0.68c-0.33,0.22-0.52,0.34-0.56,0.36
				c-0.29,0.16-0.54,0.25-0.74,0.25c-0.4,0-0.77-0.16-1.11-0.48c-0.34-0.32-0.51-0.7-0.51-1.13c0-0.41,0.12-0.8,0.36-1.16
				c0.04-0.06,0.21-0.29,0.52-0.71c0.43-0.59,0.69-0.94,0.77-1.05c0.35-0.47,0.53-0.71,0.53-0.73c0-0.09-0.05-0.14-0.16-0.16
				c-0.11-0.02-0.21-0.03-0.31-0.03c-0.07,0-0.15,0-0.24,0c-0.09,0-0.14,0-0.15,0c-0.55,0-0.96,0.07-1.22,0.21
				c-0.2,0.16-0.4,0.32-0.6,0.48c-0.02,0-0.05-0.01-0.08-0.02c-0.03-0.01-0.05-0.02-0.06-0.03V79.13z"/>
		</g>
		<g>
			<path class="st2" d="M14.39,13.5c-0.11,0.29-0.3,0.63-0.56,1.03c-0.34,0.53-0.62,0.8-0.84,0.8h-2.87
				c-0.04,0.01-0.08,0.02-0.13,0.03c-0.05,0.01-0.11,0.04-0.18,0.08H9.65v-0.24c0.12-0.1,0.23-0.21,0.32-0.33
				c0.33-0.43,0.74-0.96,1.21-1.57c0.35-0.45,0.61-0.81,0.77-1.07c0.26-0.41,0.39-0.75,0.39-1c0-0.16-0.03-0.32-0.1-0.5
				c-0.07-0.18-0.16-0.33-0.27-0.45c-0.06-0.06-0.18-0.14-0.36-0.25c-0.22-0.12-0.39-0.19-0.5-0.19c-0.18,0-0.43,0.12-0.74,0.37
				c-0.31,0.25-0.49,0.37-0.54,0.37c-0.13,0-0.19-0.05-0.19-0.16s0.14-0.31,0.4-0.6c0.27-0.29,0.52-0.52,0.76-0.68
				c0.33-0.22,0.52-0.34,0.56-0.36c0.29-0.16,0.54-0.25,0.74-0.25c0.4,0,0.77,0.16,1.11,0.48c0.34,0.32,0.51,0.7,0.51,1.13
				c0,0.42-0.12,0.8-0.36,1.16c-0.04,0.06-0.21,0.29-0.52,0.71c-0.43,0.59-0.69,0.94-0.77,1.05c-0.35,0.46-0.53,0.71-0.53,0.73
				c0,0.09,0.05,0.14,0.16,0.16c0.11,0.02,0.21,0.03,0.31,0.03c0.07,0,0.15,0,0.24,0c0.09,0,0.14,0,0.15,0
				c0.55,0,0.96-0.07,1.22-0.21c0.2-0.16,0.4-0.32,0.6-0.48c0.02,0,0.05,0.01,0.08,0.02c0.03,0.01,0.05,0.02,0.06,0.03V13.5z"/>
		</g>
	</g>
	<g>
		<g>
			<path class="st2" d="M39.88,32.51c0.01-1.49-6.47-7.85-6.47-7.85s-6.31,6.56-6.31,7.83c0,2.14,1.73,3.88,3.86,3.88
				c0.73,0,1.42-0.2,2-0.55l-2.43,4.14l5.89,0.01l-2.41-4.14c0.58,0.35,1.26,0.56,1.99,0.56C38.14,36.38,39.88,34.65,39.88,32.51z"
				/>
			<path class="st3" d="M39.88,32.51c0.01-1.49-6.47-7.85-6.47-7.85s-0.01,0.01-0.01,0.01v15.28l3.02,0.01l-2.41-4.14
				c0.58,0.35,1.26,0.56,1.99,0.56C38.14,36.38,39.88,34.65,39.88,32.51z"/>
		</g>
		<g>
			<path class="st2" d="M39.88,60.49c0.01,1.49-6.47,7.85-6.47,7.85s-6.31-6.56-6.31-7.83c0-2.14,1.73-3.88,3.87-3.88
				c0.73,0,1.41,0.2,2,0.55l-2.43-4.14l5.89-0.01l-2.41,4.14c0.58-0.35,1.26-0.56,1.99-0.56C38.14,56.62,39.88,58.35,39.88,60.49z"
				/>
			<path class="st3" d="M39.88,60.49c0.01,1.49-6.47,7.85-6.47,7.85s-0.01-0.01-0.01-0.01V53.05l3.02-0.01l-2.41,4.14
				c0.58-0.35,1.26-0.56,1.99-0.56C38.14,56.62,39.88,58.35,39.88,60.49z"/>
		</g>
		<g>
			<path class="st2" d="M13.62,20.05c0-0.4-1.73-2.09-1.73-2.09s-1.68,1.75-1.68,2.09c0,0.57,0.46,1.03,1.03,1.03
				c0.2,0,0.38-0.05,0.53-0.15l-0.65,1.1l1.57,0l-0.64-1.1c0.15,0.09,0.34,0.15,0.53,0.15C13.15,21.08,13.62,20.62,13.62,20.05z"/>
			<path class="st3" d="M13.62,20.05c0-0.4-1.73-2.09-1.73-2.09s0,0,0,0v4.08l0.81,0l-0.64-1.1c0.15,0.09,0.34,0.15,0.53,0.15
				C13.15,21.08,13.62,20.62,13.62,20.05z"/>
		</g>
		<g>
			<path class="st2" d="M54.29,72.7c0,0.4,1.73,2.09,1.73,2.09s1.68-1.75,1.68-2.09c0-0.57-0.46-1.03-1.03-1.03
				c-0.2,0-0.38,0.05-0.53,0.15l0.65-1.1l-1.57,0l0.64,1.11c-0.15-0.09-0.34-0.15-0.53-0.15C54.75,71.66,54.29,72.12,54.29,72.7z"/>
			<path class="st3" d="M54.29,72.7c0,0.4,1.73,2.09,1.73,2.09s0,0,0,0v-4.08l-0.8,0l0.64,1.11c-0.15-0.09-0.34-0.15-0.53-0.15
				C54.75,71.66,54.29,72.12,54.29,72.7z"/>
		</g>
	</g>
</g>
</svg>
